<?xml version="1.0" encoding="utf-8"?>
<!-- Generator: Adobe Illustrator 27.2.0, SVG Export Plug-In . SVG Version: 6.00 Build 0)  -->
<svg version="1.1" id="Ebene_1" xmlns="http://www.w3.org/2000/svg" xmlns:xlink="http://www.w3.org/1999/xlink" x="0px" y="0px"
	 viewBox="0 0 74 72" style="enable-background:new 0 0 74 72;" xml:space="preserve">
<style type="text/css">
	.st0{fill:#9CA7B4;}
	.st1{fill:#FFFFFF;}
	.st2{fill:#BABBBC;}
	.st3{fill:#5B718A;}
	.st4{fill:#A5C848;}
	.st5{fill:#45AD4B;}
	.st6{fill:#C1252D;}
	.st7{fill:#6DC5D8;}
	.st8{fill:none;stroke:#CCD8DC;stroke-miterlimit:10;}
	.st9{opacity:0.1;fill:#757577;}
	.st10{fill:#60748C;}
	.st11{fill:none;stroke:#FFFFFF;stroke-miterlimit:10;}
	.st12{opacity:0.6;}
	.st13{fill:#F1F3F4;}
	.st14{fill:none;stroke:#F1F3F4;stroke-miterlimit:10;}
	.st15{fill:#E8EAED;}
	.st16{fill:#F1F1F1;}
	.st17{fill:#646768;}
	.st18{opacity:0.25;fill:#757577;}
	.st19{fill:none;stroke:#6DC5D8;stroke-width:3;stroke-miterlimit:10;}
	.st20{fill:none;stroke:#C1252D;stroke-width:3;stroke-miterlimit:10;}
	.st21{fill:none;stroke:#45AD4B;stroke-width:3;stroke-miterlimit:10;}
	.st22{fill:#E7E7E7;}
	.st23{clip-path:url(#SVGID_00000132084296079045904240000006136185397777929622_);}
	.st24{clip-path:url(#SVGID_00000132084296079045904240000006136185397777929622_);fill:#F1F1F1;}
	.st25{clip-path:url(#SVGID_00000161611855570381421620000005517593667657475749_);}
	.st26{fill:#FEF9E8;}
	.st27{fill:#CEEAD6;}
	.st28{fill:#FCE8E6;}
	.st29{fill:none;stroke:#9CC0F9;stroke-width:3;stroke-miterlimit:10;}
	.st30{fill:none;stroke:#9CC0F9;stroke-miterlimit:10;}
	.st31{opacity:0.5;fill:#757577;}
	.st32{clip-path:url(#SVGID_00000132084296079045904240000006136185397777929622_);fill:#FFFFFF;}
	.st33{fill:none;stroke:#C1252D;stroke-width:9;stroke-miterlimit:10;}
	.st34{fill:none;stroke:#E7E7E7;stroke-width:9;stroke-miterlimit:10;}
	.st35{fill:none;stroke:#FFFFFF;stroke-width:3;stroke-miterlimit:10;}
	.st36{fill:none;stroke:#45AD4B;stroke-width:9;stroke-miterlimit:10;}
	.st37{fill:none;stroke:#6DC5D8;stroke-width:1.5;stroke-miterlimit:10;}
	.st38{opacity:0.25;clip-path:url(#SVGID_00000132084296079045904240000006136185397777929622_);fill:#757577;}
</style>
<path class="st5" d="M36.89,4.37c-6.93,0.28-13.45,2.72-18.87,7.1c-4.45,3.6-7.83,8.3-9.84,13.62L16.7,28
	c1.46-3.72,3.85-7,6.98-9.53c3.85-3.11,8.46-4.86,13.37-5.1L36.89,4.37z"/>
<path class="st22" d="M63.2,16.25C57.4,9.08,49.02,4.86,39.89,4.38l0.16,9.02c6.3,0.49,12.12,3.52,16.16,8.51
	c4.6,5.69,6.22,13.03,4.46,20.14l4.37,1.09l-4.37-1.09c-1.22,4.91-3.95,9.19-7.9,12.38l0,0c-9.92,8.02-24.51,6.47-32.53-3.44l0,0
	c-4.61-5.71-6.21-13.1-4.45-20.14l-8.55-2.92c-2.76,9.99-0.58,20.59,6,28.72l3.5-2.83l-3.5,2.83c6.34,7.84,15.64,11.92,25.02,11.92
	c7.09,0,14.24-2.33,20.17-7.13l-2.83-3.5l2.83,3.5C63.9,57,67.7,51.05,69.4,44.23l0,0C71.85,34.35,69.59,24.15,63.2,16.25z"/>
</svg>
