<?xml version="1.0" encoding="utf-8"?>
<!-- Generator: Adobe Illustrator 27.2.0, SVG Export Plug-In . SVG Version: 6.00 Build 0)  -->
<svg version="1.1" id="Ebene_1" xmlns="http://www.w3.org/2000/svg" xmlns:xlink="http://www.w3.org/1999/xlink" x="0px" y="0px"
	 viewBox="0 0 74 72" style="enable-background:new 0 0 74 72;" xml:space="preserve">
<style type="text/css">
	.st0{fill:#9CA7B4;}
	.st1{fill:#FFFFFF;}
	.st2{fill:#BABBBC;}
	.st3{fill:#5B718A;}
	.st4{fill:#A5C848;}
	.st5{fill:#45AD4B;}
	.st6{fill:#C1252D;}
	.st7{fill:#6DC5D8;}
	.st8{fill:none;stroke:#CCD8DC;stroke-miterlimit:10;}
	.st9{opacity:0.1;fill:#757577;}
	.st10{fill:#60748C;}
	.st11{fill:none;stroke:#FFFFFF;stroke-miterlimit:10;}
	.st12{opacity:0.6;}
	.st13{fill:#F1F3F4;}
	.st14{fill:none;stroke:#F1F3F4;stroke-miterlimit:10;}
	.st15{fill:#E8EAED;}
	.st16{fill:#F1F1F1;}
	.st17{fill:#646768;}
	.st18{opacity:0.25;fill:#757577;}
	.st19{fill:none;stroke:#6DC5D8;stroke-width:3;stroke-miterlimit:10;}
	.st20{fill:none;stroke:#C1252D;stroke-width:3;stroke-miterlimit:10;}
	.st21{fill:none;stroke:#45AD4B;stroke-width:3;stroke-miterlimit:10;}
	.st22{fill:#E7E7E7;}
	.st23{clip-path:url(#SVGID_00000149364085070334732800000004087079524539140273_);}
	.st24{clip-path:url(#SVGID_00000149364085070334732800000004087079524539140273_);fill:#F1F1F1;}
	.st25{clip-path:url(#SVGID_00000075849302769481189570000003683519939783985329_);}
	.st26{fill:#FEF9E8;}
	.st27{fill:#CEEAD6;}
	.st28{fill:#FCE8E6;}
	.st29{fill:none;stroke:#9CC0F9;stroke-width:3;stroke-miterlimit:10;}
	.st30{fill:none;stroke:#9CC0F9;stroke-miterlimit:10;}
	.st31{opacity:0.5;fill:#757577;}
	.st32{clip-path:url(#SVGID_00000149364085070334732800000004087079524539140273_);fill:#FFFFFF;}
	.st33{fill:none;stroke:#C1252D;stroke-width:9;stroke-miterlimit:10;}
	.st34{fill:none;stroke:#E7E7E7;stroke-width:9;stroke-miterlimit:10;}
	.st35{fill:none;stroke:#FFFFFF;stroke-width:3;stroke-miterlimit:10;}
	.st36{fill:none;stroke:#45AD4B;stroke-width:9;stroke-miterlimit:10;}
	.st37{fill:none;stroke:#6DC5D8;stroke-width:1.5;stroke-miterlimit:10;}
	.st38{opacity:0.25;clip-path:url(#SVGID_00000149364085070334732800000004087079524539140273_);fill:#757577;}
</style>
<path class="st22" d="M67.5,25.21c-2.37-6.52-6.66-11.99-12.48-15.84c-4.78-3.15-10.28-4.95-15.96-5.25l-0.2,9
	c3.98,0.26,7.84,1.55,11.2,3.77c4.13,2.73,7.19,6.59,8.9,11.2L67.5,25.21z"/>
<g>
	<path class="st6" d="M14.66,40.83c-1.24-6.05-0.05-12.23,3.36-17.38c4.04-6.13,10.61-9.87,17.85-10.33l0.2-9.04
		c-10.38,0.38-19.8,5.68-25.56,14.41c-4.73,7.16-6.38,15.74-4.66,24.14C7.57,51.04,12.46,58.27,19.62,63l4.96-7.51
		C19.43,52.09,15.9,46.88,14.66,40.83z"/>
	<path class="st6" d="M68.4,28.07l-8.55,2.88c1.44,6.18,0.32,12.61-3.22,17.98c-4.03,6.11-10.54,9.88-17.85,10.34l0.29,4.49
		l-0.29-4.49c-5.05,0.32-9.96-0.99-14.19-3.78L19.62,63c5.3,3.5,11.36,5.32,17.64,5.32c0.69,0,1.39-0.02,2.09-0.07v0
		c10.16-0.65,19.19-5.88,24.79-14.37C69.22,46.19,70.72,36.9,68.4,28.07z"/>
</g>
</svg>
