<?xml version="1.0" encoding="utf-8"?>
<!-- Generator: Adobe Illustrator 27.2.0, SVG Export Plug-In . SVG Version: 6.00 Build 0)  -->
<svg version="1.1" id="Ebene_1" xmlns="http://www.w3.org/2000/svg" xmlns:xlink="http://www.w3.org/1999/xlink" x="0px" y="0px"
	 viewBox="0 0 82 39" style="enable-background:new 0 0 82 39;" xml:space="preserve">
<style type="text/css">
	.st0{fill:#9CA7B4;}
	.st1{fill:#FFFFFF;}
	.st2{fill:#BABBBC;}
	.st3{fill:#5B718A;}
	.st4{fill:#A5C848;}
	.st5{fill:#45AD4B;}
	.st6{fill:#C1252D;}
	.st7{fill:#6DC5D8;}
	.st8{fill:none;stroke:#CCD8DC;stroke-miterlimit:10;}
	.st9{opacity:0.1;fill:#757577;}
	.st10{fill:#60748C;}
	.st11{fill:none;stroke:#FFFFFF;stroke-miterlimit:10;}
	.st12{opacity:0.6;}
	.st13{fill:#F1F3F4;}
	.st14{fill:none;stroke:#F1F3F4;stroke-miterlimit:10;}
	.st15{fill:#E8EAED;}
	.st16{fill:#F1F1F1;}
	.st17{fill:#646768;}
	.st18{opacity:0.25;fill:#757577;}
	.st19{fill:none;stroke:#6DC5D8;stroke-width:3;stroke-miterlimit:10;}
	.st20{fill:none;stroke:#C1252D;stroke-width:3;stroke-miterlimit:10;}
	.st21{fill:none;stroke:#45AD4B;stroke-width:3;stroke-miterlimit:10;}
	.st22{fill:#E7E7E7;}
	.st23{clip-path:url(#SVGID_00000120535738584199200160000011437296448031299988_);}
	.st24{clip-path:url(#SVGID_00000120535738584199200160000011437296448031299988_);fill:#F1F1F1;}
	.st25{clip-path:url(#SVGID_00000005238869615312409330000005164471900889608622_);}
	.st26{fill:#FEF9E8;}
	.st27{fill:#CEEAD6;}
	.st28{fill:#FCE8E6;}
	.st29{fill:none;stroke:#9CC0F9;stroke-width:3;stroke-miterlimit:10;}
	.st30{fill:none;stroke:#9CC0F9;stroke-miterlimit:10;}
	.st31{opacity:0.5;fill:#757577;}
	.st32{clip-path:url(#SVGID_00000120535738584199200160000011437296448031299988_);fill:#FFFFFF;}
	.st33{fill:none;stroke:#C1252D;stroke-width:9;stroke-miterlimit:10;}
	.st34{fill:none;stroke:#E7E7E7;stroke-width:9;stroke-miterlimit:10;}
	.st35{fill:none;stroke:#FFFFFF;stroke-width:3;stroke-miterlimit:10;}
	.st36{fill:none;stroke:#45AD4B;stroke-width:9;stroke-miterlimit:10;}
	.st37{fill:none;stroke:#6DC5D8;stroke-width:1.5;stroke-miterlimit:10;}
	.st38{opacity:0.25;clip-path:url(#SVGID_00000120535738584199200160000011437296448031299988_);fill:#757577;}
</style>
<g>
	<g>
		<path class="st17" d="M38.07,36.06H11.99c-3.91,0-7.08-3.22-7.08-7.2V12.68c0-3.97,3.17-7.2,7.08-7.2h60.18
			c3.91,0,7.08,3.22,7.08,7.2v16.19c0,3.97-3.17,7.2-7.08,7.2H46.6"/>
	</g>
	<g>
		<g>
			<path class="st1" d="M27.8,25.33c-0.51-0.24-0.9-0.58-1.17-1.02c-0.27-0.44-0.41-0.96-0.41-1.55v-0.31
				c0-0.05,0.02-0.09,0.04-0.12c0.03-0.03,0.07-0.05,0.11-0.05h1.45c0.04,0,0.08,0.02,0.11,0.05c0.03,0.03,0.04,0.07,0.04,0.12v0.21
				c0,0.37,0.16,0.69,0.47,0.94s0.74,0.38,1.27,0.38c0.45,0,0.78-0.11,1-0.32c0.22-0.21,0.33-0.47,0.33-0.78
				c0-0.22-0.07-0.41-0.2-0.57s-0.32-0.29-0.55-0.41c-0.23-0.12-0.6-0.28-1.11-0.48c-0.57-0.21-1.05-0.43-1.44-0.66
				c-0.39-0.22-0.72-0.53-0.99-0.92c-0.27-0.39-0.4-0.87-0.4-1.43c0-0.56,0.13-1.05,0.39-1.47s0.63-0.74,1.09-0.97
				c0.46-0.22,1-0.34,1.61-0.34c0.64,0,1.22,0.13,1.72,0.38c0.5,0.25,0.9,0.6,1.18,1.06c0.28,0.45,0.42,0.98,0.42,1.57v0.21
				c0,0.05-0.01,0.09-0.04,0.12c-0.03,0.03-0.07,0.05-0.11,0.05h-1.46c-0.04,0-0.08-0.02-0.11-0.05C31.01,18.97,31,18.93,31,18.89
				v-0.11c0-0.39-0.15-0.72-0.44-1c-0.29-0.28-0.69-0.41-1.2-0.41c-0.4,0-0.71,0.09-0.93,0.28s-0.34,0.44-0.34,0.77
				c0,0.23,0.07,0.43,0.2,0.59c0.13,0.16,0.33,0.3,0.58,0.43c0.26,0.13,0.66,0.3,1.2,0.51c0.6,0.24,1.07,0.46,1.41,0.64
				c0.34,0.19,0.65,0.46,0.93,0.83c0.27,0.37,0.41,0.85,0.41,1.43c0,0.88-0.29,1.57-0.88,2.08c-0.58,0.51-1.37,0.76-2.37,0.76
				C28.9,25.69,28.31,25.57,27.8,25.33z"/>
			<path class="st1" d="M40.71,25.44l-0.38-1.37c-0.02-0.04-0.04-0.06-0.06-0.06h-3.12c-0.03,0-0.05,0.02-0.06,0.06l-0.37,1.37
				c-0.03,0.09-0.08,0.14-0.16,0.14h-1.61c-0.05,0-0.09-0.02-0.11-0.05c-0.03-0.03-0.03-0.08-0.01-0.15l2.74-9.46
				c0.03-0.09,0.08-0.14,0.17-0.14h1.99c0.08,0,0.14,0.05,0.17,0.14l2.74,9.46c0.01,0.02,0.01,0.04,0.01,0.07
				c0,0.08-0.05,0.13-0.14,0.13h-1.61C40.79,25.58,40.73,25.53,40.71,25.44z M37.58,22.48h2.23c0.05,0,0.07-0.03,0.05-0.08
				l-1.14-4.16c-0.01-0.04-0.02-0.05-0.04-0.05s-0.03,0.02-0.04,0.05l-1.12,4.16C37.53,22.46,37.54,22.48,37.58,22.48z"/>
			<path class="st1" d="M50.99,17.42c-0.03,0.03-0.07,0.05-0.11,0.05h-4.15c-0.04,0-0.06,0.02-0.06,0.07v2.17
				c0,0.05,0.02,0.07,0.06,0.07h2.73c0.04,0,0.08,0.02,0.11,0.05c0.03,0.03,0.04,0.07,0.04,0.12v1.36c0,0.05-0.02,0.09-0.04,0.12
				c-0.03,0.03-0.07,0.05-0.11,0.05h-2.73c-0.04,0-0.06,0.02-0.06,0.07v3.86c0,0.05-0.01,0.09-0.04,0.12
				c-0.03,0.03-0.07,0.05-0.11,0.05h-1.48c-0.04,0-0.08-0.02-0.11-0.05c-0.03-0.03-0.04-0.07-0.04-0.12v-9.46
				c0-0.05,0.01-0.09,0.04-0.12c0.03-0.03,0.07-0.05,0.11-0.05h5.85c0.04,0,0.08,0.02,0.11,0.05c0.03,0.03,0.04,0.07,0.04,0.12v1.36
				C51.03,17.35,51.02,17.39,50.99,17.42z"/>
			<path class="st1" d="M59.25,17.42c-0.03,0.03-0.07,0.05-0.11,0.05h-4.16c-0.04,0-0.06,0.02-0.06,0.07v2.17
				c0,0.05,0.02,0.07,0.06,0.07h2.73c0.04,0,0.08,0.02,0.11,0.05c0.03,0.03,0.04,0.07,0.04,0.12v1.36c0,0.05-0.02,0.09-0.04,0.12
				c-0.03,0.03-0.07,0.05-0.11,0.05h-2.73c-0.04,0-0.06,0.02-0.06,0.07v2.27c0,0.05,0.02,0.07,0.06,0.07h4.16
				c0.04,0,0.08,0.02,0.11,0.05c0.03,0.03,0.04,0.07,0.04,0.12v1.36c0,0.05-0.01,0.09-0.04,0.12c-0.03,0.03-0.07,0.05-0.11,0.05
				h-5.86c-0.04,0-0.08-0.02-0.11-0.05c-0.03-0.03-0.04-0.07-0.04-0.12v-9.46c0-0.05,0.01-0.09,0.04-0.12
				c0.03-0.03,0.07-0.05,0.11-0.05h5.86c0.04,0,0.08,0.02,0.11,0.05c0.03,0.03,0.04,0.07,0.04,0.12v1.36
				C59.29,17.35,59.28,17.39,59.25,17.42z"/>
		</g>
	</g>
</g>
</svg>
