<?xml version="1.0" encoding="utf-8"?>
<!-- Generator: Adobe Illustrator 27.2.0, SVG Export Plug-In . SVG Version: 6.00 Build 0)  -->
<svg version="1.1" id="Ebene_1" xmlns="http://www.w3.org/2000/svg" xmlns:xlink="http://www.w3.org/1999/xlink" x="0px" y="0px"
	 viewBox="0 0 74 72" style="enable-background:new 0 0 74 72;" xml:space="preserve">
<style type="text/css">
	.st0{fill:#9CA7B4;}
	.st1{fill:#FFFFFF;}
	.st2{fill:#BABBBC;}
	.st3{fill:#5B718A;}
	.st4{fill:#A5C848;}
	.st5{fill:#45AD4B;}
	.st6{fill:#C1252D;}
	.st7{fill:#6DC5D8;}
	.st8{fill:none;stroke:#CCD8DC;stroke-miterlimit:10;}
	.st9{opacity:0.1;fill:#757577;}
	.st10{fill:#60748C;}
	.st11{fill:none;stroke:#FFFFFF;stroke-miterlimit:10;}
	.st12{opacity:0.6;}
	.st13{fill:#F1F3F4;}
	.st14{fill:none;stroke:#F1F3F4;stroke-miterlimit:10;}
	.st15{fill:#E8EAED;}
	.st16{fill:#F1F1F1;}
	.st17{fill:#646768;}
	.st18{opacity:0.25;fill:#757577;}
	.st19{fill:none;stroke:#6DC5D8;stroke-width:3;stroke-miterlimit:10;}
	.st20{fill:none;stroke:#C1252D;stroke-width:3;stroke-miterlimit:10;}
	.st21{fill:none;stroke:#45AD4B;stroke-width:3;stroke-miterlimit:10;}
	.st22{fill:#E7E7E7;}
	.st23{clip-path:url(#SVGID_00000027581681850386462390000006778978964314464167_);}
	.st24{clip-path:url(#SVGID_00000027581681850386462390000006778978964314464167_);fill:#F1F1F1;}
	.st25{clip-path:url(#SVGID_00000075155034228908780300000005245323712303996318_);}
	.st26{fill:#FEF9E8;}
	.st27{fill:#CEEAD6;}
	.st28{fill:#FCE8E6;}
	.st29{fill:none;stroke:#9CC0F9;stroke-width:3;stroke-miterlimit:10;}
	.st30{fill:none;stroke:#9CC0F9;stroke-miterlimit:10;}
	.st31{opacity:0.5;fill:#757577;}
	.st32{clip-path:url(#SVGID_00000027581681850386462390000006778978964314464167_);fill:#FFFFFF;}
	.st33{fill:none;stroke:#C1252D;stroke-width:9;stroke-miterlimit:10;}
	.st34{fill:none;stroke:#E7E7E7;stroke-width:9;stroke-miterlimit:10;}
	.st35{fill:none;stroke:#FFFFFF;stroke-width:3;stroke-miterlimit:10;}
	.st36{fill:none;stroke:#45AD4B;stroke-width:9;stroke-miterlimit:10;}
	.st37{fill:none;stroke:#6DC5D8;stroke-width:1.5;stroke-miterlimit:10;}
	.st38{opacity:0.25;clip-path:url(#SVGID_00000027581681850386462390000006778978964314464167_);fill:#757577;}
</style>
<path class="st5" d="M69.73,35.2c0-0.48-0.01-0.96-0.03-1.45c-0.01-0.12-0.01-0.24-0.02-0.36c-0.03-0.45-0.06-0.91-0.1-1.36
	c-0.01-0.12-0.03-0.24-0.04-0.35c-0.11-1.01-0.26-2.03-0.46-3.04c-1.01-4.95-3.13-9.49-6.16-13.35c-0.07-0.08-0.13-0.17-0.2-0.25
	c-0.47-0.59-0.95-1.16-1.46-1.71c-0.11-0.12-0.22-0.23-0.33-0.34c-0.39-0.41-0.8-0.82-1.22-1.21c-0.18-0.17-0.36-0.34-0.54-0.51
	c-0.47-0.43-0.96-0.84-1.46-1.24c-0.24-0.19-0.49-0.38-0.73-0.56c-0.38-0.29-0.77-0.57-1.16-0.84c-0.17-0.12-0.34-0.25-0.51-0.37
	c-0.32-0.21-0.66-0.4-0.99-0.61c-0.15-0.09-0.3-0.19-0.45-0.27c-0.33-0.19-0.66-0.37-0.99-0.55c-0.24-0.13-0.47-0.25-0.71-0.37
	C51.87,6.29,51.58,6.14,51.29,6c-0.53-0.25-1.07-0.49-1.61-0.71c-0.07-0.03-0.14-0.05-0.21-0.08c-0.56-0.22-1.12-0.43-1.69-0.62
	c-0.1-0.03-0.19-0.06-0.29-0.09c-3.59-1.17-7.36-1.69-11.16-1.53l0-0.03C26.2,3.31,16.99,8.39,11.2,16.76
	c-0.02,0.02-0.03,0.05-0.05,0.07c-0.12,0.18-0.25,0.34-0.37,0.52c-0.21,0.32-0.41,0.65-0.61,0.98c-0.01,0.02-0.02,0.03-0.03,0.05
	c-0.32,0.52-0.62,1.05-0.91,1.59c0,0,0,0,0,0c-0.29,0.53-0.56,1.08-0.81,1.62c-0.04,0.08-0.07,0.16-0.11,0.24
	c-0.2,0.44-0.39,0.88-0.57,1.32c-0.08,0.19-0.15,0.39-0.22,0.58c-0.13,0.34-0.26,0.68-0.37,1.03C7.07,24.99,7,25.2,6.94,25.42
	c-0.11,0.34-0.21,0.68-0.3,1.02c-0.06,0.21-0.12,0.42-0.17,0.64c-0.1,0.37-0.18,0.75-0.26,1.13c-0.04,0.18-0.08,0.36-0.12,0.53
	c-0.1,0.52-0.2,1.05-0.28,1.57c0,0.03-0.01,0.07-0.02,0.1C5.7,31,5.63,31.6,5.58,32.2c0,0.03,0,0.07-0.01,0.1
	c-0.05,0.55-0.08,1.1-0.1,1.65c0,0.11,0,0.21-0.01,0.32c-0.01,0.49-0.01,0.98,0,1.47c0,0.12,0.01,0.23,0.01,0.35
	c0.02,0.5,0.05,1,0.09,1.5c0.01,0.1,0.01,0.19,0.02,0.29c0.05,0.57,0.12,1.14,0.2,1.71c0,0.02,0,0.04,0.01,0.06
	c0.09,0.61,0.19,1.22,0.32,1.84c0.23,1.12,0.52,2.21,0.85,3.28c0.03,0.11,0.07,0.22,0.11,0.33c0.13,0.41,0.27,0.81,0.42,1.21
	c0.06,0.17,0.13,0.33,0.2,0.5c0.13,0.33,0.26,0.67,0.4,1c0.09,0.2,0.18,0.4,0.27,0.6c0.13,0.29,0.26,0.57,0.4,0.85
	C8.88,49.5,9,49.72,9.12,49.94c0.13,0.25,0.26,0.49,0.39,0.74c0.14,0.25,0.28,0.49,0.42,0.73c0.12,0.21,0.25,0.42,0.38,0.63
	c0.16,0.26,0.33,0.52,0.5,0.78c0.12,0.17,0.23,0.35,0.35,0.52c0.19,0.28,0.39,0.56,0.6,0.83c0.1,0.14,0.2,0.27,0.31,0.41
	c0.23,0.3,0.46,0.6,0.7,0.89c0.08,0.1,0.16,0.19,0.24,0.28c0.27,0.32,0.55,0.64,0.83,0.95c0.04,0.05,0.09,0.1,0.14,0.15
	c2.13,2.31,4.61,4.31,7.39,5.94l0.01-0.02c4.94,2.9,10.45,4.42,16.16,4.42c0.69,0,1.39-0.02,2.09-0.07v0
	c8.39-0.54,16.01-4.21,21.56-10.25l0.02,0.02c5.51-5.93,8.48-13.57,8.53-21.51C69.73,35.32,69.73,35.26,69.73,35.2z M39.05,58.14
	l0.29,4.49L39.05,58.14c-5.04,0.32-9.94-0.98-14.17-3.77c-0.01-0.01-0.03-0.02-0.04-0.03c-1.28-0.85-2.46-1.8-3.53-2.86
	c0,0-0.01-0.01-0.01-0.01c-0.53-0.52-1.03-1.07-1.5-1.64c-0.02-0.02-0.03-0.04-0.05-0.06c-0.46-0.55-0.89-1.13-1.29-1.72
	c-0.03-0.04-0.05-0.08-0.08-0.12c-0.39-0.58-0.75-1.17-1.08-1.79c-0.03-0.06-0.06-0.12-0.09-0.18c-0.32-0.6-0.62-1.22-0.89-1.85
	c-0.03-0.07-0.06-0.15-0.09-0.23c-0.26-0.62-0.49-1.26-0.69-1.91c-0.03-0.09-0.05-0.17-0.07-0.26c-0.18-0.61-0.35-1.24-0.48-1.87
	c-0.01-0.05-0.02-0.1-0.03-0.15c-0.18-0.89-0.31-1.78-0.39-2.67c0-0.01,0-0.03,0-0.04c-0.04-0.43-0.06-0.85-0.07-1.27
	c0-0.03,0-0.05,0-0.08c-0.01-0.43-0.01-0.86,0-1.29c0,0,0-0.01,0-0.01c0.04-1.32,0.19-2.63,0.45-3.92c0.01-0.03,0.01-0.05,0.02-0.08
	c0.08-0.38,0.17-0.77,0.27-1.15c0.02-0.07,0.04-0.13,0.05-0.2c0.09-0.35,0.2-0.69,0.31-1.03c0.02-0.07,0.04-0.14,0.07-0.2
	c0.12-0.36,0.25-0.73,0.39-1.09c0.01-0.03,0.02-0.07,0.04-0.1c0.97-2.45,2.37-4.75,4.18-6.81l-0.01-0.01c0,0,0,0,0,0l0.01,0.01
	c3.34-3.79,7.74-6.34,12.71-7.36l0,0l0,0l0,0c0.35-0.07,0.7-0.13,1.05-0.19c0.07-0.01,0.14-0.02,0.21-0.03
	c0.3-0.04,0.6-0.08,0.9-0.12c0.15-0.02,0.3-0.03,0.44-0.04c1.25-0.11,2.49-0.12,3.73-0.03c0.41,0.03,0.83,0.07,1.24,0.12
	c0.04,0.01,0.09,0.01,0.13,0.02c0.92,0.12,1.83,0.3,2.73,0.53c0.12,0.03,0.24,0.07,0.37,0.1c0.3,0.08,0.6,0.18,0.9,0.27
	c0.16,0.05,0.31,0.1,0.47,0.15c0.26,0.09,0.53,0.19,0.79,0.29c0.39,0.15,0.77,0.31,1.15,0.48c0.11,0.05,0.22,0.1,0.34,0.15
	c0.29,0.13,0.57,0.28,0.85,0.42c0.07,0.04,0.15,0.08,0.22,0.12c0.64,0.34,1.26,0.71,1.87,1.11c0.62,0.41,1.22,0.85,1.79,1.31
	c0.07,0.06,0.14,0.12,0.22,0.18c0.47,0.39,0.92,0.79,1.35,1.21c0.13,0.13,0.26,0.25,0.39,0.38c0.36,0.36,0.7,0.74,1.03,1.13
	c0.14,0.17,0.29,0.33,0.43,0.5c0.3,0.36,0.57,0.74,0.84,1.13c0.37,0.53,0.73,1.07,1.06,1.62c0.09,0.15,0.19,0.3,0.28,0.46
	c0.25,0.44,0.47,0.89,0.69,1.34c0.06,0.12,0.12,0.24,0.17,0.36c0.22,0.48,0.42,0.97,0.61,1.46c0.4,1.06,0.74,2.14,0.98,3.27
	c0.06,0.26,0.12,0.53,0.17,0.8c0.01,0.07,0.02,0.13,0.03,0.2c0.06,0.34,0.11,0.67,0.16,1.01c0.01,0.05,0.01,0.1,0.02,0.15
	c0.18,1.46,0.22,2.92,0.12,4.37c0,0.07-0.01,0.15-0.01,0.22c-0.02,0.31-0.06,0.61-0.09,0.92c-0.01,0.1-0.02,0.2-0.03,0.3
	c-0.04,0.3-0.09,0.6-0.14,0.9c-0.02,0.1-0.03,0.19-0.05,0.29c-0.06,0.31-0.12,0.61-0.19,0.92c-0.02,0.07-0.03,0.14-0.05,0.22
	c-0.08,0.33-0.16,0.66-0.25,0.98c0,0.02-0.01,0.03-0.01,0.05c-0.63,2.21-1.6,4.33-2.9,6.31c-0.02,0.04-0.05,0.07-0.07,0.11
	c-0.21,0.32-0.44,0.63-0.66,0.94c-0.06,0.08-0.11,0.15-0.17,0.23c-0.19,0.25-0.39,0.5-0.59,0.74c-0.1,0.13-0.21,0.25-0.31,0.38
	C51.1,54.85,45.38,57.73,39.05,58.14z"/>
</svg>
