<?xml version="1.0" encoding="utf-8"?>
<!-- Generator: Adobe Illustrator 27.2.0, SVG Export Plug-In . SVG Version: 6.00 Build 0)  -->
<svg version="1.1" id="Ebene_1" xmlns="http://www.w3.org/2000/svg" xmlns:xlink="http://www.w3.org/1999/xlink" x="0px" y="0px"
	 viewBox="0 0 59 71" style="enable-background:new 0 0 59 71;" xml:space="preserve">
<style type="text/css">
	.st0{fill:#9CA7B4;}
	.st1{fill:#FFFFFF;}
	.st2{fill:#BABBBC;}
	.st3{fill:#5B718A;}
	.st4{fill:#A5C848;}
	.st5{fill:#45AD4B;}
	.st6{fill:#C1252D;}
	.st7{fill:#6DC5D8;}
	.st8{fill:none;stroke:#CCD8DC;stroke-miterlimit:10;}
	.st9{opacity:0.1;fill:#757577;}
	.st10{fill:#60748C;}
	.st11{fill:none;stroke:#FFFFFF;stroke-miterlimit:10;}
	.st12{opacity:0.6;}
	.st13{fill:#F1F3F4;}
	.st14{fill:none;stroke:#F1F3F4;stroke-miterlimit:10;}
	.st15{fill:#E8EAED;}
	.st16{fill:#F1F1F1;}
	.st17{fill:#646768;}
	.st18{opacity:0.25;fill:#757577;}
	.st19{fill:none;stroke:#6DC5D8;stroke-width:3;stroke-miterlimit:10;}
	.st20{fill:none;stroke:#C1252D;stroke-width:3;stroke-miterlimit:10;}
	.st21{fill:none;stroke:#45AD4B;stroke-width:3;stroke-miterlimit:10;}
	.st22{fill:#E7E7E7;}
	.st23{clip-path:url(#SVGID_00000145774041878885676550000005142007692973824933_);}
	.st24{clip-path:url(#SVGID_00000145774041878885676550000005142007692973824933_);fill:#F1F1F1;}
	.st25{clip-path:url(#SVGID_00000150785106304978058610000014063043893549917088_);}
	.st26{fill:#FEF9E8;}
	.st27{fill:#CEEAD6;}
	.st28{fill:#FCE8E6;}
	.st29{fill:none;stroke:#9CC0F9;stroke-width:3;stroke-miterlimit:10;}
	.st30{fill:none;stroke:#9CC0F9;stroke-miterlimit:10;}
	.st31{opacity:0.5;fill:#757577;}
	.st32{clip-path:url(#SVGID_00000145774041878885676550000005142007692973824933_);fill:#FFFFFF;}
	.st33{fill:none;stroke:#C1252D;stroke-width:9;stroke-miterlimit:10;}
	.st34{fill:none;stroke:#E7E7E7;stroke-width:9;stroke-miterlimit:10;}
	.st35{fill:none;stroke:#FFFFFF;stroke-width:3;stroke-miterlimit:10;}
	.st36{fill:none;stroke:#45AD4B;stroke-width:9;stroke-miterlimit:10;}
	.st37{fill:none;stroke:#6DC5D8;stroke-width:1.5;stroke-miterlimit:10;}
	.st38{opacity:0.25;clip-path:url(#SVGID_00000145774041878885676550000005142007692973824933_);fill:#757577;}
</style>
<g>
	<ellipse class="st18" cx="29.39" cy="63.87" rx="14.23" ry="4.63"/>
	<path class="st6" d="M55.57,27.32c0-14.43-11.74-26.17-26.17-26.17S3.24,12.89,3.24,27.32c0,7.35,3.05,13.99,7.95,18.74l-0.03,0.03
		l18.18,17.75l18.39-17.85l-0.01-0.01C52.56,41.22,55.57,34.62,55.57,27.32z"/>
</g>
<g>
	<g>
		<path class="st13" d="M26.37,43.77c-0.63-0.7-0.94-1.58-0.94-2.66c0-1.08,0.31-1.96,0.94-2.64c0.63-0.68,1.42-1.02,2.4-1.02
			c0.97,0,1.77,0.34,2.4,1.02c0.63,0.68,0.94,1.56,0.94,2.64c0,1.05-0.31,1.93-0.94,2.64c-0.63,0.71-1.42,1.06-2.4,1.06
			C27.79,44.82,26.99,44.47,26.37,43.77z M26.64,34.32c-0.09-0.1-0.13-0.22-0.13-0.36l-0.65-18.4c0-0.34,0.15-0.51,0.46-0.51h5.44
			c0.31,0,0.46,0.17,0.46,0.51l-0.65,18.4c0,0.14-0.04,0.26-0.13,0.36c-0.09,0.1-0.2,0.15-0.33,0.15h-4.14
			C26.83,34.47,26.73,34.42,26.64,34.32z"/>
	</g>
</g>
</svg>
