<?xml version="1.0" encoding="utf-8"?>
<!-- Generator: Adobe Illustrator 27.2.0, SVG Export Plug-In . SVG Version: 6.00 Build 0)  -->
<svg version="1.1" id="Ebene_1" xmlns="http://www.w3.org/2000/svg" xmlns:xlink="http://www.w3.org/1999/xlink" x="0px" y="0px"
	 viewBox="0 0 247.63 267.33" style="enable-background:new 0 0 247.63 267.33;" xml:space="preserve">
<style type="text/css">
	.st0{fill:#60748C;}
	.st1{fill:#ECECEC;}
	.st2{stroke:#FFFFFF;stroke-width:0.5;stroke-miterlimit:10;}
	.st3{fill:#FFFFFF;}
	.st4{fill:#EDEDED;}
	.st5{opacity:0.1;fill:#546579;stroke:#60748C;stroke-width:1.0251;stroke-miterlimit:10;}
	.st6{opacity:0.1;fill:#546579;stroke:#282F39;stroke-width:1.0251;stroke-miterlimit:10;}
	.st7{opacity:0.1;fill:#546579;stroke:#546579;stroke-width:1.0251;stroke-miterlimit:10;}
	.st8{fill:#60748C;stroke:#60748C;stroke-width:0.9491;stroke-miterlimit:10;}
	.st9{fill:#282F39;}
	.st10{fill:#45AD4B;stroke:#45AD4B;stroke-width:0.8985;stroke-miterlimit:10;}
	.st11{fill:#6DC5D8;stroke:#6DC5D8;stroke-width:0.9491;stroke-miterlimit:10;}
	.st12{fill:#282F39;stroke:#FFFFFF;stroke-width:1.0437;stroke-miterlimit:10;}
	.st13{fill:#45AD4B;stroke:#45AD4B;stroke-width:0.9491;stroke-miterlimit:10;}
	.st14{fill:#A4C748;}
	.st15{fill:#45AD4B;stroke:#45AD4B;stroke-width:0.9119;stroke-miterlimit:10;}
	.st16{fill:#C1252D;stroke:#C1252D;stroke-width:0.9491;stroke-miterlimit:10;}
	.st17{fill:#C1252D;}
	.st18{fill:#C1252D;stroke:#C1252D;stroke-width:1.0339;stroke-miterlimit:10;}
	.st19{fill:#C1252D;stroke:#C1252D;stroke-width:0.8834;stroke-miterlimit:10;}
	.st20{fill:none;stroke:#282F39;stroke-width:2;stroke-linecap:round;stroke-linejoin:round;stroke-miterlimit:10;}
	.st21{fill:#45AD4B;}
	.st22{fill:#45AB4B;}
	.st23{fill:#6DC5D8;}
	.st24{opacity:0.1;}
	.st25{fill:#5B7188;}
	.st26{fill:#97A2AF;}
	.st27{fill:#BABBBC;}
	.st28{fill:#5B7185;}
	.st29{fill:#A0C348;}
	.st30{fill:#45A84B;}
	.st31{fill:#BC252D;}
	.st32{fill:#6DC0D3;}
	.st33{fill:none;stroke:#C7D3D7;stroke-miterlimit:10;}
	.st34{opacity:0.1;fill:#757577;}
	.st35{fill:none;stroke:#FFFFFF;stroke-miterlimit:10;}
	.st36{opacity:0.6;}
	.st37{fill:#F1F3F4;}
	.st38{fill:none;stroke:#F1F3F4;stroke-miterlimit:10;}
	.st39{fill:#E8EAED;}
	.st40{fill:#F1F1F1;}
	.st41{fill:#646768;}
	.st42{opacity:0.25;fill:#757577;}
	.st43{fill:none;stroke:#6DC5D8;stroke-width:3;stroke-miterlimit:10;}
	.st44{fill:none;stroke:#C1252D;stroke-width:3;stroke-miterlimit:10;}
	.st45{fill:none;stroke:#45AD4B;stroke-width:3;stroke-miterlimit:10;}
	.st46{fill:#E7E7E7;}
	.st47{clip-path:url(#SVGID_00000168114258520283798340000010242747170570449547_);}
	.st48{clip-path:url(#SVGID_00000168114258520283798340000010242747170570449547_);fill:#F1F1F1;}
	.st49{clip-path:url(#SVGID_00000017511858145532376030000008314423808176589959_);}
	.st50{fill:#FEF9E8;}
	.st51{fill:#CEEAD6;}
	.st52{fill:#FCE8E6;}
	.st53{fill:none;stroke:#9CC0F9;stroke-width:3;stroke-miterlimit:10;}
	.st54{fill:none;stroke:#9CC0F9;stroke-miterlimit:10;}
	.st55{opacity:0.5;fill:#757577;}
	.st56{clip-path:url(#SVGID_00000168114258520283798340000010242747170570449547_);fill:#FFFFFF;}
	.st57{fill:none;stroke:#C1252D;stroke-width:9;stroke-miterlimit:10;}
	.st58{fill:none;stroke:#E7E7E7;stroke-width:9;stroke-miterlimit:10;}
	.st59{fill:none;stroke:#FFFFFF;stroke-width:3;stroke-miterlimit:10;}
	.st60{fill:none;stroke:#45AD4B;stroke-width:9;stroke-miterlimit:10;}
	.st61{fill:none;stroke:#6DC5D8;stroke-width:1.5;stroke-miterlimit:10;}
	.st62{opacity:0.25;clip-path:url(#SVGID_00000168114258520283798340000010242747170570449547_);fill:#757577;}
	.st63{fill:#292929;}
	.st64{fill-rule:evenodd;clip-rule:evenodd;}
	.st65{fill:#FF7578;}
	.st66{fill:#FFC9CA;}
	.st67{fill:#173042;}
	.st68{fill:#946B6B;}
	.st69{fill:none;}
	.st70{fill:#FFFFFF;stroke:#FFFFFF;stroke-width:7;stroke-miterlimit:10;}
	.st71{fill:#444444;}
	.st72{fill:#F73103;}
	.st73{fill:#FFBB39;}
	.st74{fill:#398229;}
	.st75{fill:#DE0505;}
	.st76{fill:#FF804E;}
	.st77{fill:#7ED668;}
	.st78{fill:#BF252D;}
	.st79{fill:#D4894D;}
	.st80{fill:#AD5512;}
	.st81{fill:#FF00FF;}
	.st82{fill:#FF3D75;}
	.st83{fill:#F28E1E;}
	.st84{fill:#2B6E53;}
	.st85{fill:#399150;}
	.st86{fill:#6A4A1D;}
	.st87{fill:#6DC3D6;}
	.st88{clip-path:url(#SVGID_00000121274685817858368780000016565820582726197431_);}
	.st89{clip-path:url(#SVGID_00000112608603836211676560000016945032964463608732_);}
	.st90{fill:#333333;}
	.st91{fill:url(#SVGID_00000080923972948523664980000005380401734339783075_);}
	.st92{fill:url(#SVGID_00000097476027687163505010000000945495500030757532_);}
	.st93{opacity:0.08;}
	.st94{fill:url(#SVGID_00000005956967364961175490000000845107774065029045_);}
	.st95{fill-rule:evenodd;clip-rule:evenodd;fill:#1A1A1A;}
	.st96{fill:#1A1A1A;}
	.st97{fill-rule:evenodd;clip-rule:evenodd;fill:#60748C;}
	.st98{fill:#FCEED7;}
	.st99{fill:#FBD18B;}
	.st100{fill:#DEE1E5;}
	.st101{fill:#ED8D80;}
	.st102{fill:#E97361;}
	.st103{fill:#AE5649;}
	.st104{fill:#CACED5;}
	.st105{fill:#A8B0BB;}
	.st106{fill:#CACFD7;}
	.st107{fill:#EABF9A;}
	.st108{fill:#E4E7EB;}
	.st109{fill:#69D4F2;}
	.st110{fill:#B2DB7F;}
	.st111{fill:#9ED268;}
	.st112{fill:#F8F8F8;}
	.st113{fill:#F0F0F0;}
	.st114{fill:#738DBD;}
	.st115{fill:#E46D67;}
	.st116{fill:#24C1F0;}
	.st117{fill:#36B183;}
	.st118{fill:#FFB866;}
	.st119{fill:#FFD873;}
	.st120{fill-rule:evenodd;clip-rule:evenodd;fill:#485156;}
	.st121{fill:#58595B;}
	.st122{fill:#BF252D;stroke:#BF252D;stroke-width:2;stroke-miterlimit:10;}
	.st123{fill:#FFFFFF;stroke:#BF252D;stroke-width:4;stroke-linecap:round;stroke-linejoin:round;stroke-miterlimit:10;}
	.st124{fill-rule:evenodd;clip-rule:evenodd;fill:#BF252D;}
	.st125{fill:none;stroke:#FFFFFF;stroke-miterlimit:10;stroke-dasharray:1.0108,1.0108;}
	.st126{fill:none;stroke:#45AD4B;stroke-width:4;stroke-miterlimit:10;}
	.st127{fill:none;stroke:#C1252D;stroke-width:4;stroke-miterlimit:10;}
	.st128{opacity:0.2;fill:#45AD4B;}
	.st129{opacity:0.6;fill:#45AD4B;}
	.st130{fill:#44A049;}
	.st131{fill:#A3C648;}
	.st132{clip-path:url(#SVGID_00000160185782175760901750000010295021760934405791_);}
	.st133{opacity:0.5;fill:#45AD4B;}
	.st134{opacity:0.2;fill:#E7E7E7;}
	.st135{opacity:0.5;fill:#E7E7E7;}
	.st136{opacity:0.5;fill:#FFFFFF;}
	.st137{opacity:0.2;fill:#6DC5D8;}
	.st138{fill:none;stroke:#FFFFFF;stroke-width:2.5;stroke-miterlimit:10;}
	.st139{fill:none;stroke:#BF252D;stroke-width:5;stroke-miterlimit:10;}
	.st140{fill:#BF252D;stroke:#FFFFFF;stroke-width:3;stroke-miterlimit:10;}
	.st141{fill:#FFFFFF;stroke:#FFFFFF;stroke-width:5.5;stroke-miterlimit:10;}
	.st142{fill:none;stroke:#BF252D;stroke-width:3;stroke-miterlimit:10;}
	.st143{fill:#BF252D;stroke:#FFFFFF;stroke-width:4.5;stroke-miterlimit:10;}
	.st144{fill:#BF252D;stroke:#FFFFFF;stroke-miterlimit:10;}
	.st145{fill:#F7E921;}
	.st146{fill:#6E81B5;}
	.st147{fill:#466087;}
	.st148{fill:#FFAEA8;}
	.st149{fill:#FFE152;}
	.st150{fill:#96C869;}
	.st151{fill:#ADB3BD;}
	.st152{fill:#CACED8;}
	.st153{fill:#40CAEF;}
	.st154{fill:#276F80;}
	.st155{fill:#878F9E;}
	.st156{fill:#EEF0F3;}
	.st157{fill:#1E505B;}
	.st158{fill:#9C80EA;}
	.st159{fill:#FAC955;}
	.st160{clip-path:url(#SVGID_00000043439895175111913460000013479131702409589406_);}
	.st161{fill:#E5EAEB;}
	.st162{fill:#ADB4B9;}
	.st163{fill:#495D72;}
	.st164{fill:#28384C;}
	.st165{fill:#E9B816;}
	.st166{fill:#DB352E;}
	.st167{fill:#366DB4;}
	.st168{fill:#753489;}
	.st169{fill:#57A9BF;}
	.st170{fill:#25AC86;}
	.st171{fill:#F56363;}
	.st172{fill:#BD5A45;}
	.st173{fill:#F0EABD;}
	.st174{fill:#EB8819;}
	.st175{fill:#C3411E;}
	.st176{fill:#205B75;}
	.st177{fill:#C8D9E8;}
	.st178{fill:#A9B9CA;}
	.st179{fill:#114559;}
	.st180{fill:#DFE8F2;}
	.st181{fill:#E3B933;}
	.st182{fill:#E96374;}
	.st183{fill:#80EAFF;}
	.st184{fill:#FFFFFF;stroke:#C1252D;stroke-width:7;stroke-miterlimit:10;}
	.st185{fill:#FFFFFF;stroke:#45AD4B;stroke-width:7;stroke-miterlimit:10;}
	.st186{fill:#B4BCBD;}
	.st187{fill:#CED7DA;}
	.st188{fill:none;stroke:#45AD4B;stroke-width:2;stroke-miterlimit:10;}
	.st189{fill:#6DC3D6;stroke:#FFFFFF;stroke-width:0.1;stroke-miterlimit:10;}
	.st190{fill:#C1252D;stroke:#FFFFFF;stroke-width:0.1;stroke-miterlimit:10;}
	.st191{fill:#A3C648;stroke:#FFFFFF;stroke-width:0.1;stroke-miterlimit:10;}
	.st192{fill:#45AB4B;stroke:#FFFFFF;stroke-width:0.1;stroke-miterlimit:10;}
	.st193{fill:none;stroke:#60748C;stroke-linecap:round;stroke-linejoin:round;stroke-miterlimit:10;stroke-dasharray:2,4;}
	.st194{fill:#F0F0F0;stroke:#C1252D;stroke-width:7;stroke-miterlimit:10;}
	.st195{fill:#F0F0F0;stroke:#45AD4B;stroke-width:7;stroke-miterlimit:10;}
	.st196{opacity:0.3;}
	.st197{opacity:0.3;fill:#5B7188;}
	.st198{fill:#EDEDED;stroke:#C1252D;stroke-width:6;stroke-miterlimit:10;}
	.st199{fill:#5B7188;stroke:#EDEDED;stroke-miterlimit:10;}
	.st200{fill:#EDEDED;stroke:#45AD4B;stroke-width:6;stroke-miterlimit:10;}
	.st201{fill:#FFFFFF;stroke:#C1252D;stroke-width:6;stroke-miterlimit:10;}
	.st202{fill:#FFFFFF;stroke:#45AD4B;stroke-width:6;stroke-miterlimit:10;}
	.st203{fill:none;stroke:#6DC5D8;stroke-linecap:round;stroke-linejoin:round;}
	.st204{fill:none;stroke:#6DC5D8;stroke-linecap:round;stroke-linejoin:round;stroke-dasharray:4.8937,7.8299;}
	.st205{fill:none;stroke:#6DC5D8;stroke-linecap:round;stroke-linejoin:round;stroke-dasharray:5.1322,8.2115;}
	.st206{fill:none;stroke:#6DC5D8;stroke-linecap:round;stroke-linejoin:round;stroke-miterlimit:10;stroke-dasharray:5,8;}
	.st207{fill:#45AC4B;}
	.st208{fill:#C0252D;}
	.st209{fill:#6DC4D7;}
	.st210{fill:#5B7189;}
	.st211{fill:none;stroke:#60748C;stroke-width:1.5;stroke-miterlimit:10;}
	.st212{opacity:0.4;}
	.st213{fill:none;stroke:#60748C;stroke-width:2;stroke-linecap:round;stroke-linejoin:round;stroke-miterlimit:10;}
	.st214{opacity:0.54;fill:#FFFFFF;}
	.st215{clip-path:url(#SVGID_00000162354226735531234940000007673008698329572025_);}
	.st216{opacity:0.5;fill:#5B7188;}
	.st217{opacity:0.1;fill:#60748C;}
	.st218{clip-path:url(#SVGID_00000087390778349323810680000004186660799979564186_);}
	.st219{display:none;}
	.st220{display:inline;fill:#FFFFFF;}
	.st221{display:inline;fill:#090C11;}
	.st222{display:inline;fill:#4A596E;}
	.st223{fill:#546579;}
	.st224{fill:#6F88A6;}
	.st225{opacity:0.1;fill:none;stroke:#FFFFFF;stroke-miterlimit:10;}
	.st226{display:none;fill:#6DC5D8;}
	.st227{opacity:0.45;fill:#60748C;}
	.st228{opacity:0.03;clip-path:url(#SVGID_00000044145178276752842760000002968175786099584147_);}
	.st229{clip-path:url(#SVGID_00000044145178276752842760000002968175786099584147_);}
	
		.st230{clip-path:url(#SVGID_00000044145178276752842760000002968175786099584147_);fill:#FFFFFF;stroke:#60748C;stroke-width:1.5;stroke-miterlimit:10;}
	.st231{opacity:0.4;clip-path:url(#SVGID_00000044145178276752842760000002968175786099584147_);}
	.st232{clip-path:url(#SVGID_00000086688186558819618890000009432725663150746810_);}
	.st233{opacity:0.05;clip-path:url(#SVGID_00000086688186558819618890000009432725663150746810_);}
	.st234{fill:#575756;}
	
		.st235{clip-path:url(#SVGID_00000086688186558819618890000009432725663150746810_);fill:#FFFFFF;stroke:#60748C;stroke-width:1.5;stroke-miterlimit:10;}
	.st236{opacity:0.4;clip-path:url(#SVGID_00000086688186558819618890000009432725663150746810_);}
	.st237{fill:#FFFFFF;stroke:#60748C;stroke-width:1.5;stroke-miterlimit:10;}
	.st238{fill:#A5C848;}
	.st239{opacity:0.2;}
	.st240{clip-path:url(#SVGID_00000150098056333137202940000017099908228897805188_);}
	.st241{clip-path:url(#SVGID_00000124138575661924016280000017668113641107266969_);}
	.st242{fill:none;stroke:#60748C;stroke-width:3;stroke-miterlimit:10;}
	.st243{fill:#EDEDED;stroke:#C0252D;stroke-width:3;stroke-miterlimit:10;}
	.st244{clip-path:url(#SVGID_00000049206258704466898370000016737230045696517269_);}
	.st245{opacity:0.1;fill:#546579;}
	.st246{opacity:0.05;}
	.st247{fill:#606060;}
	.st248{opacity:0.15;}
	.st249{opacity:0.5;}
	.st250{fill:#535353;}
	.st251{opacity:0.7;}
	.st252{filter:url(#Adobe_OpacityMaskFilter);}
	.st253{filter:url(#Adobe_OpacityMaskFilter_00000107568812066244323790000017625512914959485583_);}
	
		.st254{mask:url(#SVGID_00000169527109827824134650000014201426808988438715_);fill:url(#SVGID_00000106132089215654926830000000204083155871615410_);}
	.st255{filter:url(#Adobe_OpacityMaskFilter_00000064312795017976958860000010877540948248283045_);}
	.st256{filter:url(#Adobe_OpacityMaskFilter_00000070097834793167172140000005398824583535819707_);}
	
		.st257{mask:url(#SVGID_00000163064014529483249690000015827122068323427228_);fill:url(#SVGID_00000137116606916966753710000015310491965924609933_);}
	.st258{filter:url(#Adobe_OpacityMaskFilter_00000062913842432147374950000017917823230407886210_);}
	.st259{filter:url(#Adobe_OpacityMaskFilter_00000007419836642214129580000012489058399571814811_);}
	
		.st260{mask:url(#SVGID_00000173871269217401201210000007424203318121069221_);fill:url(#SVGID_00000034783932216342724610000012027735044908297915_);}
	.st261{filter:url(#Adobe_OpacityMaskFilter_00000092425694659481924010000006561225881769980084_);}
	.st262{filter:url(#Adobe_OpacityMaskFilter_00000093146162765920920870000002829098068329202078_);}
	
		.st263{mask:url(#SVGID_00000166635642592286504830000009200710727174924462_);fill:url(#SVGID_00000133522577774440951840000000781800712091961514_);}
	.st264{filter:url(#Adobe_OpacityMaskFilter_00000111165410267364992530000000737621766180126894_);}
	.st265{filter:url(#Adobe_OpacityMaskFilter_00000061450754341150890970000017744735571228359040_);}
	
		.st266{mask:url(#SVGID_00000174599895927537140030000011976326438762209938_);fill:url(#SVGID_00000174571308900336333010000016561822009604113051_);}
	.st267{filter:url(#Adobe_OpacityMaskFilter_00000008837143850406731570000016646444645118320817_);}
	.st268{filter:url(#Adobe_OpacityMaskFilter_00000158021457991899130130000017546592466043421859_);}
	
		.st269{mask:url(#SVGID_00000049181585921659371950000008977387133690458022_);fill:url(#SVGID_00000141416360782362067940000015640561811366301099_);}
	.st270{filter:url(#Adobe_OpacityMaskFilter_00000054982533114846364580000007084511622165453703_);}
	.st271{filter:url(#Adobe_OpacityMaskFilter_00000137813570171769991870000009382902714706348721_);}
	
		.st272{mask:url(#SVGID_00000088855668761078546390000012985057974817948558_);fill:url(#SVGID_00000012459896799117792640000003082080650091073183_);}
	.st273{opacity:0.8;}
	.st274{filter:url(#Adobe_OpacityMaskFilter_00000040563993823393388820000017846663432416615575_);}
	.st275{filter:url(#Adobe_OpacityMaskFilter_00000136408544131919608910000001153876509112152200_);}
	
		.st276{mask:url(#SVGID_00000060747741063522621800000016477930193106597781_);fill:url(#SVGID_00000177478855051127268030000016506369465753584318_);}
	.st277{fill:none;stroke:#1A1A1A;stroke-width:4;stroke-miterlimit:10;}
	.st278{fill:none;stroke:#60748C;stroke-width:4;stroke-miterlimit:10;}
	.st279{fill:#FFFFFF;stroke:#60748C;stroke-width:3;stroke-miterlimit:10;}
	.st280{fill:#FFFFFF;stroke:#6DC5D8;stroke-width:3;stroke-miterlimit:10;}
	.st281{fill:#6DC5D8;stroke:#FFFFFF;stroke-width:3;stroke-miterlimit:10;}
	.st282{opacity:0.25;}
	.st283{fill:#757577;}
	.st284{fill:#AEAEAE;}
	.st285{fill:#C1252D;stroke:#FFFFFF;stroke-width:3;stroke-miterlimit:10;}
	.st286{fill:#1A1A1A;stroke:#FFFFFF;stroke-width:3;stroke-miterlimit:10;}
	.st287{fill:none;stroke:#000000;stroke-width:10;stroke-linecap:round;stroke-miterlimit:10;}
	.st288{fill:none;stroke:#45AD4B;stroke-width:6;stroke-miterlimit:10;}
	.st289{fill:none;stroke:#6DC5D8;stroke-width:6;stroke-miterlimit:10;}
	.st290{fill:none;stroke:#60748C;stroke-width:6;stroke-miterlimit:10;}
	.st291{fill:none;stroke:#000000;stroke-width:6;stroke-miterlimit:10;}
	.st292{fill:#60748C;stroke:#FFFFFF;stroke-width:4;stroke-miterlimit:10;}
	.st293{fill:none;stroke:#000000;stroke-width:7;stroke-linecap:round;stroke-miterlimit:10;}
	.st294{fill-rule:evenodd;clip-rule:evenodd;fill:none;stroke:#000000;stroke-width:4;stroke-miterlimit:10;}
	.st295{fill:none;stroke:#000000;stroke-width:4;stroke-miterlimit:10;}
	.st296{fill:none;stroke:#000000;stroke-width:4;stroke-linecap:round;stroke-miterlimit:10;}
	.st297{fill-rule:evenodd;clip-rule:evenodd;stroke:#FFFFFF;stroke-miterlimit:10;}
	.st298{fill:#949494;}
	.st299{clip-path:url(#SVGID_00000157304842286478847060000005902333641756113591_);}
	.st300{fill:#1A1A1A;stroke:#1A1A1A;stroke-miterlimit:10;}
	.st301{stroke:#000000;stroke-miterlimit:10;}
	.st302{clip-path:url(#SVGID_00000022534648125095716240000003091793920836235199_);}
	.st303{fill:#60748C;stroke:#60748C;stroke-miterlimit:10;}
	.st304{fill:#728499;}
	.st305{opacity:0.4;fill:#BF252D;}
	.st306{opacity:0.75;fill:#BF252D;}
	.st307{fill:none;stroke:#FFFFFF;stroke-width:5;stroke-miterlimit:10;}
	.st308{fill:#C7C7C7;}
	.st309{opacity:0.23;}
	.st310{opacity:0.2;fill:#5B7188;}
	.st311{fill:none;stroke:#FFFFFF;stroke-width:6;stroke-miterlimit:10;}
	.st312{fill:#BF252D;stroke:#FFFFFF;stroke-width:6;stroke-miterlimit:10;}
	.st313{opacity:0.3;fill:#BF252D;}
	.st314{opacity:0.7;fill:#BF252D;}
	.st315{opacity:0.5;fill:#BF252D;}
	.st316{opacity:0.2;fill:#BF252D;}
	.st317{fill:#BF252D;stroke:#FFFFFF;stroke-width:5;stroke-miterlimit:10;}
</style>
<g>
	<g>
		<path class="st1" d="M208.64,147.66c-1.5,0.61-3.11,1.05-4.5,1.85c-14.45,8.32-28.85,16.75-43.31,25.06
			c-9.71,5.58-19.51,11.01-29.27,16.5c-4.41,2.48-6.37,6.14-4.54,9.42c6.1,10.94,12.35,21.8,18.71,32.6
			c0.5,0.85,2.56,1.64,3.43,1.29c5.76-2.32,11.67-4.47,17-7.58c12.16-7.09,22.02-16.7,29.53-28.72
			c8.71-13.93,13.2-29.07,13.84-46.53C209.39,150.94,209.02,149.3,208.64,147.66z"/>
		<path class="st1" d="M79.69,118.59c7.09,12.35,14.12,24.74,21.2,37.1c4.45,7.77,9.19,15.38,13.35,23.3c3.28,6.25,6.9,7.62,13,4.04
			c7.08-4.16,14.2-8.24,21.31-12.36c5.81-3.37,11.62-6.74,17.44-10.1c13.01-7.49,26-15.02,39.07-22.41
			c2.54-1.44,3.31-3.14,2.56-5.89c-1.14-4.16-2.09-8.36-3.11-12.55c-30.87-62.82-90.47-57.75-94.39-57.35c0-0.01,0-0.02,0-0.03
			c-3.67,0.57-7.41,0.88-11.01,1.76C85.08,67.57,72.71,74.3,61.86,83.8c-0.59,0.52-0.87,2.23-0.48,2.92
			C67.41,97.39,73.59,107.97,79.69,118.59z"/>
		<path class="st1" d="M77.83,148.73c2.8-1.63,5.13-3.74,4.18-7.36c-0.4-1.52-1.68-2.8-2.5-4.23c-8.11-14.2-16.22-28.41-24.3-42.63
			c-1.16-2.04-2.34-1.86-3.61-0.22c-1.32,1.71-2.57,3.48-3.82,5.24c-7.06,9.87-11.7,20.79-14.03,32.7c-0.32,0.93-0.8,1.84-0.93,2.79
			c-1.58,11.56-1.79,23.1,0.88,34.54c0.3,1.28,1,2.48,1.52,3.71c1.34-0.7,2.68-1.41,4.03-2.11
			C52.11,163.69,64.97,156.22,77.83,148.73z"/>
		<path class="st1" d="M127.04,219.24c-4.16-7.28-8.3-14.58-12.5-21.84c-7.1-12.3-14.3-24.53-21.31-36.88
			c-2.7-4.75-5.63-6.05-10.39-3.37c-14.12,7.94-28.13,16.05-42.19,24.09c-2.42,1.38-2.4,3.25-1.31,5.51
			c5.19,10.7,11.92,20.21,20.62,28.43c16.8,15.85,36.84,23.47,60.88,24.45c3.84-0.44,8.87-1.02,13.9-1.61
			c2.13-0.25,2.42-1.18,1.33-3.03C132.99,229.78,130.04,224.49,127.04,219.24z"/>
	</g>
	<ellipse class="st307" cx="120.87" cy="152.19" rx="90.62" ry="88.89"/>
</g>
<g>
	<circle class="st131" cx="56" cy="136.19" r="12"/>
	<circle class="st131" cx="101.05" cy="213.02" r="12"/>
	<circle class="st131" cx="80.13" cy="205.41" r="6.5"/>
</g>
<g>
	<g class="st309">
		<path class="st25" d="M144.84,169.23c7.23-14.15-2.09-29.95-20.77-35.2c-18.69-5.26-39.77,1.98-47,16.14
			c-3.68,7.21-3.06,14.83,0.89,21.28l-0.05,0.02l14.65,24.04l32.76-10.81l-0.01-0.01C133.96,181.77,141.18,176.39,144.84,169.23z"/>
	</g>
	<g>
		<path class="st21" d="M129.44,142.38c0-20.8-16.2-37.72-36.12-37.72S57.2,121.58,57.2,142.38c0,10.59,4.21,20.16,10.97,27.02
			l-0.03,0.04l25.1,25.59l25.38-25.73l-0.01-0.01C125.28,162.43,129.44,152.9,129.44,142.38z"/>
	</g>
</g>
<g>
	<polygon class="st37" points="89.76,160.2 79.46,149.22 84.8,144.22 89.66,149.41 106.66,130.64 112.08,135.55 	"/>
</g>
<g class="st309">
	<path class="st25" d="M207.54,99.49c7.65-14.33-2.21-30.33-21.96-35.65s-42.06,2.01-49.71,16.34c-3.89,7.3-3.23,15.02,0.95,21.55
		l-0.05,0.02l15.49,24.34l34.65-10.95l-0.01-0.01C196.04,112.19,203.67,106.74,207.54,99.49z"/>
</g>
<g>
	<g>
		<path class="st78" d="M191.25,72.3c0-21.06-17.14-38.2-38.2-38.2s-38.2,17.14-38.2,38.2c0,10.72,4.46,20.42,11.6,27.36l-0.04,0.04
			l26.54,25.91l26.84-26.06l-0.01-0.01C186.86,92.6,191.25,82.96,191.25,72.3z"/>
	</g>
	<g>
		<g>
			<g>
				<path class="st37" d="M150.01,95.34c-0.89-0.98-1.33-2.24-1.33-3.77s0.44-2.77,1.33-3.73c0.89-0.96,2.01-1.45,3.39-1.45
					c1.37,0,2.5,0.48,3.39,1.45c0.89,0.96,1.33,2.21,1.33,3.73c0,1.49-0.44,2.73-1.33,3.73c-0.89,1-2.02,1.51-3.39,1.51
					C152.02,96.82,150.89,96.33,150.01,95.34z M150.39,81.97c-0.13-0.14-0.19-0.31-0.19-0.51l-0.92-26.02
					c0-0.48,0.22-0.72,0.65-0.72h7.7c0.43,0,0.65,0.24,0.65,0.72l-0.92,26.02c0,0.2-0.06,0.37-0.19,0.51
					c-0.13,0.14-0.28,0.21-0.46,0.21h-5.85C150.67,82.18,150.52,82.11,150.39,81.97z"/>
			</g>
		</g>
	</g>
</g>
</svg>
