<?xml version="1.0" encoding="utf-8"?>
<!-- Generator: Adobe Illustrator 27.2.0, SVG Export Plug-In . SVG Version: 6.00 Build 0)  -->
<svg version="1.1" id="Ebene_1" xmlns="http://www.w3.org/2000/svg" xmlns:xlink="http://www.w3.org/1999/xlink" x="0px" y="0px"
	 viewBox="0 0 155.48 160.03" style="enable-background:new 0 0 155.48 160.03;" xml:space="preserve">
<style type="text/css">
	.st0{opacity:0.1;}
	.st1{opacity:0.3;fill:#5B7188;}
	.st2{fill:#60748C;}
	.st3{opacity:0.3;fill:none;stroke:#5B7188;stroke-width:13;stroke-miterlimit:10;}
	.st4{opacity:0.7;fill:#60748C;}
	.st5{fill:#A4C748;}
	.st6{fill:#ECECEC;}
	.st7{fill:none;stroke:#FFFFFF;stroke-width:5;stroke-miterlimit:10;}
	.st8{fill:#A3C648;}
	.st9{opacity:0.25;fill:#60748C;}
	.st10{opacity:0.34;fill:#60748C;}
	.st11{stroke:#FFFFFF;stroke-width:0.5;stroke-miterlimit:10;}
	.st12{fill:#FFFFFF;}
	.st13{fill:#EDEDED;}
	.st14{opacity:0.1;fill:#546579;stroke:#60748C;stroke-width:1.0251;stroke-miterlimit:10;}
	.st15{opacity:0.1;fill:#546579;stroke:#282F39;stroke-width:1.0251;stroke-miterlimit:10;}
	.st16{opacity:0.1;fill:#546579;stroke:#546579;stroke-width:1.0251;stroke-miterlimit:10;}
	.st17{fill:#60748C;stroke:#60748C;stroke-width:0.9491;stroke-miterlimit:10;}
	.st18{fill:#282F39;}
	.st19{fill:#45AD4B;stroke:#45AD4B;stroke-width:0.8985;stroke-miterlimit:10;}
	.st20{fill:#6DC5D8;stroke:#6DC5D8;stroke-width:0.9491;stroke-miterlimit:10;}
	.st21{fill:#282F39;stroke:#FFFFFF;stroke-width:1.0437;stroke-miterlimit:10;}
	.st22{fill:#45AD4B;stroke:#45AD4B;stroke-width:0.9491;stroke-miterlimit:10;}
	.st23{fill:#45AD4B;stroke:#45AD4B;stroke-width:0.9119;stroke-miterlimit:10;}
	.st24{fill:#C1252D;stroke:#C1252D;stroke-width:0.9491;stroke-miterlimit:10;}
	.st25{fill:#C1252D;}
	.st26{fill:#C1252D;stroke:#C1252D;stroke-width:1.0339;stroke-miterlimit:10;}
	.st27{fill:#C1252D;stroke:#C1252D;stroke-width:0.8834;stroke-miterlimit:10;}
	.st28{fill:none;stroke:#282F39;stroke-width:2;stroke-linecap:round;stroke-linejoin:round;stroke-miterlimit:10;}
	.st29{fill:#45AD4B;}
	.st30{fill:#45AB4B;}
	.st31{fill:#6DC5D8;}
	.st32{fill:#5B7188;}
	.st33{fill:#97A2AF;}
	.st34{fill:#BABBBC;}
	.st35{fill:#5B7185;}
	.st36{fill:#A0C348;}
	.st37{fill:#45A84B;}
	.st38{fill:#BC252D;}
	.st39{fill:#6DC0D3;}
	.st40{fill:none;stroke:#C7D3D7;stroke-miterlimit:10;}
	.st41{opacity:0.1;fill:#757577;}
	.st42{fill:none;stroke:#FFFFFF;stroke-miterlimit:10;}
	.st43{opacity:0.6;}
	.st44{fill:#F1F3F4;}
	.st45{fill:none;stroke:#F1F3F4;stroke-miterlimit:10;}
	.st46{fill:#E8EAED;}
	.st47{fill:#F1F1F1;}
	.st48{fill:#646768;}
	.st49{opacity:0.25;fill:#757577;}
	.st50{fill:none;stroke:#6DC5D8;stroke-width:3;stroke-miterlimit:10;}
	.st51{fill:none;stroke:#C1252D;stroke-width:3;stroke-miterlimit:10;}
	.st52{fill:none;stroke:#45AD4B;stroke-width:3;stroke-miterlimit:10;}
	.st53{fill:#E7E7E7;}
	.st54{clip-path:url(#SVGID_00000113338984313897575040000017860359523492796077_);}
	.st55{clip-path:url(#SVGID_00000113338984313897575040000017860359523492796077_);fill:#F1F1F1;}
	.st56{clip-path:url(#SVGID_00000115511209304220900080000010669607741777768875_);}
	.st57{fill:#FEF9E8;}
	.st58{fill:#CEEAD6;}
	.st59{fill:#FCE8E6;}
	.st60{fill:none;stroke:#9CC0F9;stroke-width:3;stroke-miterlimit:10;}
	.st61{fill:none;stroke:#9CC0F9;stroke-miterlimit:10;}
	.st62{opacity:0.5;fill:#757577;}
	.st63{clip-path:url(#SVGID_00000113338984313897575040000017860359523492796077_);fill:#FFFFFF;}
	.st64{fill:none;stroke:#C1252D;stroke-width:9;stroke-miterlimit:10;}
	.st65{fill:none;stroke:#E7E7E7;stroke-width:9;stroke-miterlimit:10;}
	.st66{fill:none;stroke:#FFFFFF;stroke-width:3;stroke-miterlimit:10;}
	.st67{fill:none;stroke:#45AD4B;stroke-width:9;stroke-miterlimit:10;}
	.st68{fill:none;stroke:#6DC5D8;stroke-width:1.5;stroke-miterlimit:10;}
	.st69{opacity:0.25;clip-path:url(#SVGID_00000113338984313897575040000017860359523492796077_);fill:#757577;}
	.st70{fill:#292929;}
	.st71{fill-rule:evenodd;clip-rule:evenodd;}
	.st72{fill:#FF7578;}
	.st73{fill:#FFC9CA;}
	.st74{fill:#173042;}
	.st75{fill:#946B6B;}
	.st76{fill:none;}
	.st77{fill:#FFFFFF;stroke:#FFFFFF;stroke-width:7;stroke-miterlimit:10;}
	.st78{fill:#444444;}
	.st79{fill:#F73103;}
	.st80{fill:#FFBB39;}
	.st81{fill:#398229;}
	.st82{fill:#DE0505;}
	.st83{fill:#FF804E;}
	.st84{fill:#7ED668;}
	.st85{fill:#BF252D;}
	.st86{fill:#D4894D;}
	.st87{fill:#AD5512;}
	.st88{fill:#FF00FF;}
	.st89{fill:#FF3D75;}
	.st90{fill:#F28E1E;}
	.st91{fill:#2B6E53;}
	.st92{fill:#399150;}
	.st93{fill:#6A4A1D;}
	.st94{fill:#6DC3D6;}
	.st95{clip-path:url(#SVGID_00000015315202530148219290000010196160291738542486_);}
	.st96{clip-path:url(#SVGID_00000179610186106470250510000011126866959541756313_);}
	.st97{fill:#333333;}
	.st98{fill:url(#SVGID_00000150083429712648683980000005722920053169211798_);}
	.st99{fill:url(#SVGID_00000014611335591786384640000002696461524507350970_);}
	.st100{opacity:0.08;}
	.st101{fill:url(#SVGID_00000057131614520262544670000016725618130046743487_);}
	.st102{fill-rule:evenodd;clip-rule:evenodd;fill:#1A1A1A;}
	.st103{fill:#1A1A1A;}
	.st104{fill-rule:evenodd;clip-rule:evenodd;fill:#60748C;}
	.st105{fill:#FCEED7;}
	.st106{fill:#FBD18B;}
	.st107{fill:#DEE1E5;}
	.st108{fill:#ED8D80;}
	.st109{fill:#E97361;}
	.st110{fill:#AE5649;}
	.st111{fill:#CACED5;}
	.st112{fill:#A8B0BB;}
	.st113{fill:#CACFD7;}
	.st114{fill:#EABF9A;}
	.st115{fill:#E4E7EB;}
	.st116{fill:#69D4F2;}
	.st117{fill:#B2DB7F;}
	.st118{fill:#9ED268;}
	.st119{fill:#F8F8F8;}
	.st120{fill:#F0F0F0;}
	.st121{fill:#738DBD;}
	.st122{fill:#E46D67;}
	.st123{fill:#24C1F0;}
	.st124{fill:#36B183;}
	.st125{fill:#FFB866;}
	.st126{fill:#FFD873;}
	.st127{fill-rule:evenodd;clip-rule:evenodd;fill:#485156;}
	.st128{fill:#58595B;}
	.st129{fill:#BF252D;stroke:#BF252D;stroke-width:2;stroke-miterlimit:10;}
	.st130{fill:#FFFFFF;stroke:#BF252D;stroke-width:4;stroke-linecap:round;stroke-linejoin:round;stroke-miterlimit:10;}
	.st131{fill-rule:evenodd;clip-rule:evenodd;fill:#BF252D;}
	.st132{fill:none;stroke:#FFFFFF;stroke-miterlimit:10;stroke-dasharray:1.0108,1.0108;}
	.st133{fill:none;stroke:#45AD4B;stroke-width:4;stroke-miterlimit:10;}
	.st134{fill:none;stroke:#C1252D;stroke-width:4;stroke-miterlimit:10;}
	.st135{opacity:0.2;fill:#45AD4B;}
	.st136{opacity:0.6;fill:#45AD4B;}
	.st137{fill:#44A049;}
	.st138{clip-path:url(#SVGID_00000182510162599110260000000011834712068137247164_);}
	.st139{opacity:0.5;fill:#45AD4B;}
	.st140{opacity:0.2;fill:#E7E7E7;}
	.st141{opacity:0.5;fill:#E7E7E7;}
	.st142{opacity:0.5;fill:#FFFFFF;}
	.st143{opacity:0.2;fill:#6DC5D8;}
	.st144{fill:none;stroke:#FFFFFF;stroke-width:2.5;stroke-miterlimit:10;}
	.st145{fill:none;stroke:#BF252D;stroke-width:5;stroke-miterlimit:10;}
	.st146{fill:#BF252D;stroke:#FFFFFF;stroke-width:3;stroke-miterlimit:10;}
	.st147{fill:#FFFFFF;stroke:#FFFFFF;stroke-width:5.5;stroke-miterlimit:10;}
	.st148{fill:none;stroke:#BF252D;stroke-width:3;stroke-miterlimit:10;}
	.st149{fill:#BF252D;stroke:#FFFFFF;stroke-width:4.5;stroke-miterlimit:10;}
	.st150{fill:#BF252D;stroke:#FFFFFF;stroke-miterlimit:10;}
	.st151{fill:#F7E921;}
	.st152{fill:#6E81B5;}
	.st153{fill:#466087;}
	.st154{fill:#FFAEA8;}
	.st155{fill:#FFE152;}
	.st156{fill:#96C869;}
	.st157{fill:#ADB3BD;}
	.st158{fill:#CACED8;}
	.st159{fill:#40CAEF;}
	.st160{fill:#276F80;}
	.st161{fill:#878F9E;}
	.st162{fill:#EEF0F3;}
	.st163{fill:#1E505B;}
	.st164{fill:#9C80EA;}
	.st165{fill:#FAC955;}
	.st166{clip-path:url(#SVGID_00000044858312924080429670000012917216623046660226_);}
	.st167{fill:#E5EAEB;}
	.st168{fill:#ADB4B9;}
	.st169{fill:#495D72;}
	.st170{fill:#28384C;}
	.st171{fill:#E9B816;}
	.st172{fill:#DB352E;}
	.st173{fill:#366DB4;}
	.st174{fill:#753489;}
	.st175{fill:#57A9BF;}
	.st176{fill:#25AC86;}
	.st177{fill:#F56363;}
	.st178{fill:#BD5A45;}
	.st179{fill:#F0EABD;}
	.st180{fill:#EB8819;}
	.st181{fill:#C3411E;}
	.st182{fill:#205B75;}
	.st183{fill:#C8D9E8;}
	.st184{fill:#A9B9CA;}
	.st185{fill:#114559;}
	.st186{fill:#DFE8F2;}
	.st187{fill:#E3B933;}
	.st188{fill:#E96374;}
	.st189{fill:#80EAFF;}
	.st190{fill:#FFFFFF;stroke:#C1252D;stroke-width:7;stroke-miterlimit:10;}
	.st191{fill:#FFFFFF;stroke:#45AD4B;stroke-width:7;stroke-miterlimit:10;}
	.st192{fill:#B4BCBD;}
	.st193{fill:#CED7DA;}
	.st194{fill:none;stroke:#45AD4B;stroke-width:2;stroke-miterlimit:10;}
	.st195{fill:#6DC3D6;stroke:#FFFFFF;stroke-width:0.1;stroke-miterlimit:10;}
	.st196{fill:#C1252D;stroke:#FFFFFF;stroke-width:0.1;stroke-miterlimit:10;}
	.st197{fill:#A3C648;stroke:#FFFFFF;stroke-width:0.1;stroke-miterlimit:10;}
	.st198{fill:#45AB4B;stroke:#FFFFFF;stroke-width:0.1;stroke-miterlimit:10;}
	.st199{fill:none;stroke:#60748C;stroke-linecap:round;stroke-linejoin:round;stroke-miterlimit:10;stroke-dasharray:2,4;}
	.st200{fill:#F0F0F0;stroke:#C1252D;stroke-width:7;stroke-miterlimit:10;}
	.st201{fill:#F0F0F0;stroke:#45AD4B;stroke-width:7;stroke-miterlimit:10;}
	.st202{opacity:0.3;}
	.st203{fill:#EDEDED;stroke:#C1252D;stroke-width:6;stroke-miterlimit:10;}
	.st204{fill:#5B7188;stroke:#EDEDED;stroke-miterlimit:10;}
	.st205{fill:#EDEDED;stroke:#45AD4B;stroke-width:6;stroke-miterlimit:10;}
	.st206{fill:#FFFFFF;stroke:#C1252D;stroke-width:6;stroke-miterlimit:10;}
	.st207{fill:#FFFFFF;stroke:#45AD4B;stroke-width:6;stroke-miterlimit:10;}
	.st208{fill:none;stroke:#6DC5D8;stroke-linecap:round;stroke-linejoin:round;}
	.st209{fill:none;stroke:#6DC5D8;stroke-linecap:round;stroke-linejoin:round;stroke-dasharray:4.8937,7.8299;}
	.st210{fill:none;stroke:#6DC5D8;stroke-linecap:round;stroke-linejoin:round;stroke-dasharray:5.1322,8.2115;}
	.st211{fill:none;stroke:#6DC5D8;stroke-linecap:round;stroke-linejoin:round;stroke-miterlimit:10;stroke-dasharray:5,8;}
	.st212{fill:#45AC4B;}
	.st213{fill:#C0252D;}
	.st214{fill:#6DC4D7;}
	.st215{fill:#5B7189;}
	.st216{fill:none;stroke:#60748C;stroke-width:1.5;stroke-miterlimit:10;}
	.st217{opacity:0.4;}
	.st218{fill:none;stroke:#60748C;stroke-width:2;stroke-linecap:round;stroke-linejoin:round;stroke-miterlimit:10;}
	.st219{opacity:0.54;fill:#FFFFFF;}
	.st220{clip-path:url(#SVGID_00000127743425738799874900000015927373420883587735_);}
	.st221{opacity:0.5;fill:#5B7188;}
	.st222{opacity:0.1;fill:#60748C;}
	.st223{clip-path:url(#SVGID_00000178171143618080916720000007586439212185257641_);}
	.st224{display:none;}
	.st225{display:inline;fill:#FFFFFF;}
	.st226{display:inline;fill:#090C11;}
	.st227{display:inline;fill:#4A596E;}
	.st228{fill:#546579;}
	.st229{fill:#6F88A6;}
	.st230{opacity:0.1;fill:none;stroke:#FFFFFF;stroke-miterlimit:10;}
	.st231{display:none;fill:#6DC5D8;}
	.st232{opacity:0.45;fill:#60748C;}
	.st233{opacity:0.03;clip-path:url(#SVGID_00000090276775796939167900000009959048780814676646_);}
	.st234{clip-path:url(#SVGID_00000090276775796939167900000009959048780814676646_);}
	
		.st235{clip-path:url(#SVGID_00000090276775796939167900000009959048780814676646_);fill:#FFFFFF;stroke:#60748C;stroke-width:1.5;stroke-miterlimit:10;}
	.st236{opacity:0.4;clip-path:url(#SVGID_00000090276775796939167900000009959048780814676646_);}
	.st237{clip-path:url(#SVGID_00000142169784406541503590000005999835693436176558_);}
	.st238{opacity:0.05;clip-path:url(#SVGID_00000142169784406541503590000005999835693436176558_);}
	.st239{fill:#575756;}
	
		.st240{clip-path:url(#SVGID_00000142169784406541503590000005999835693436176558_);fill:#FFFFFF;stroke:#60748C;stroke-width:1.5;stroke-miterlimit:10;}
	.st241{opacity:0.4;clip-path:url(#SVGID_00000142169784406541503590000005999835693436176558_);}
	.st242{fill:#FFFFFF;stroke:#60748C;stroke-width:1.5;stroke-miterlimit:10;}
	.st243{fill:#A5C848;}
	.st244{opacity:0.2;}
	.st245{clip-path:url(#SVGID_00000047763325141711307300000008737920925441673375_);}
	.st246{clip-path:url(#SVGID_00000039854611206831116610000016024702320518628279_);}
	.st247{fill:none;stroke:#60748C;stroke-width:3;stroke-miterlimit:10;}
	.st248{fill:#EDEDED;stroke:#C0252D;stroke-width:3;stroke-miterlimit:10;}
	.st249{clip-path:url(#SVGID_00000134216448875813421780000013654815598622238360_);}
	.st250{opacity:0.1;fill:#546579;}
	.st251{opacity:0.05;}
	.st252{fill:#606060;}
	.st253{opacity:0.15;}
	.st254{opacity:0.5;}
	.st255{fill:#535353;}
	.st256{opacity:0.7;}
	.st257{filter:url(#Adobe_OpacityMaskFilter);}
	.st258{filter:url(#Adobe_OpacityMaskFilter_00000056386936482519836540000001619199931489699989_);}
	
		.st259{mask:url(#SVGID_00000164501541634600711900000001247579320348354714_);fill:url(#SVGID_00000124845514283159686080000001353167788768644224_);}
	.st260{filter:url(#Adobe_OpacityMaskFilter_00000040571043452648324280000005688798254564207790_);}
	.st261{filter:url(#Adobe_OpacityMaskFilter_00000073722161504230686140000007686438028591596934_);}
	
		.st262{mask:url(#SVGID_00000106148285807139844320000018316627895836673464_);fill:url(#SVGID_00000165937618183233298000000007447071444885876921_);}
	.st263{filter:url(#Adobe_OpacityMaskFilter_00000134936081831712916630000009328955949182875295_);}
	.st264{filter:url(#Adobe_OpacityMaskFilter_00000094585234242323523020000009873732151114953114_);}
	
		.st265{mask:url(#SVGID_00000113336368614038256380000002196310863063112321_);fill:url(#SVGID_00000110459735486033082500000015779432119732057000_);}
	.st266{filter:url(#Adobe_OpacityMaskFilter_00000016765661814455886940000005466909779180654756_);}
	.st267{filter:url(#Adobe_OpacityMaskFilter_00000043458801793925066980000000924308225833455779_);}
	
		.st268{mask:url(#SVGID_00000093870479984109858210000008385386741097321866_);fill:url(#SVGID_00000169545366295307853450000005227483785765106619_);}
	.st269{filter:url(#Adobe_OpacityMaskFilter_00000160176453576536531310000013956325934894707102_);}
	.st270{filter:url(#Adobe_OpacityMaskFilter_00000065780922738931516450000004937781838941938587_);}
	
		.st271{mask:url(#SVGID_00000150100395564669192560000004608870019837610174_);fill:url(#SVGID_00000137851933306356727470000000711010815917576357_);}
	.st272{filter:url(#Adobe_OpacityMaskFilter_00000158025691973957465590000009176713386771109009_);}
	.st273{filter:url(#Adobe_OpacityMaskFilter_00000166659446998432323780000012898854647986712503_);}
	
		.st274{mask:url(#SVGID_00000088840263649614248440000003306739892548266662_);fill:url(#SVGID_00000023990968033178753450000002108211024641885878_);}
	.st275{filter:url(#Adobe_OpacityMaskFilter_00000085935863564468888430000005891450374022112659_);}
	.st276{filter:url(#Adobe_OpacityMaskFilter_00000155127291984963576070000015263028487350497710_);}
	
		.st277{mask:url(#SVGID_00000041263530659859091620000017071254170638472351_);fill:url(#SVGID_00000124134951911425819840000017168601482408433337_);}
	.st278{opacity:0.8;}
	.st279{filter:url(#Adobe_OpacityMaskFilter_00000084513184018462780130000011845660391755097263_);}
	.st280{filter:url(#Adobe_OpacityMaskFilter_00000122697144567254887240000004345777354261952693_);}
	
		.st281{mask:url(#SVGID_00000065772312125663118210000016906589608630131610_);fill:url(#SVGID_00000109014064063215752100000001408284439214225849_);}
	.st282{fill:none;stroke:#1A1A1A;stroke-width:4;stroke-miterlimit:10;}
	.st283{fill:none;stroke:#60748C;stroke-width:4;stroke-miterlimit:10;}
	.st284{fill:#FFFFFF;stroke:#60748C;stroke-width:3;stroke-miterlimit:10;}
	.st285{fill:#FFFFFF;stroke:#6DC5D8;stroke-width:3;stroke-miterlimit:10;}
	.st286{fill:#6DC5D8;stroke:#FFFFFF;stroke-width:3;stroke-miterlimit:10;}
	.st287{opacity:0.25;}
	.st288{fill:#757577;}
	.st289{fill:#AEAEAE;}
	.st290{fill:#C1252D;stroke:#FFFFFF;stroke-width:3;stroke-miterlimit:10;}
	.st291{fill:#1A1A1A;stroke:#FFFFFF;stroke-width:3;stroke-miterlimit:10;}
	.st292{fill:none;stroke:#000000;stroke-width:10;stroke-linecap:round;stroke-miterlimit:10;}
	.st293{fill:none;stroke:#45AD4B;stroke-width:6;stroke-miterlimit:10;}
	.st294{fill:none;stroke:#6DC5D8;stroke-width:6;stroke-miterlimit:10;}
	.st295{fill:none;stroke:#60748C;stroke-width:6;stroke-miterlimit:10;}
	.st296{fill:none;stroke:#000000;stroke-width:6;stroke-miterlimit:10;}
	.st297{fill:#60748C;stroke:#FFFFFF;stroke-width:4;stroke-miterlimit:10;}
	.st298{fill:none;stroke:#000000;stroke-width:7;stroke-linecap:round;stroke-miterlimit:10;}
	.st299{fill-rule:evenodd;clip-rule:evenodd;fill:none;stroke:#000000;stroke-width:4;stroke-miterlimit:10;}
	.st300{fill:none;stroke:#000000;stroke-width:4;stroke-miterlimit:10;}
	.st301{fill:none;stroke:#000000;stroke-width:4;stroke-linecap:round;stroke-miterlimit:10;}
	.st302{fill-rule:evenodd;clip-rule:evenodd;stroke:#FFFFFF;stroke-miterlimit:10;}
	.st303{fill:#949494;}
	.st304{clip-path:url(#SVGID_00000077317682004489571390000006674164228944988079_);}
	.st305{fill:#1A1A1A;stroke:#1A1A1A;stroke-miterlimit:10;}
	.st306{stroke:#000000;stroke-miterlimit:10;}
	.st307{clip-path:url(#SVGID_00000049940715729060359070000003962183548849450662_);}
	.st308{fill:#60748C;stroke:#60748C;stroke-miterlimit:10;}
	.st309{fill:#728499;}
	.st310{opacity:0.4;fill:#BF252D;}
	.st311{opacity:0.75;fill:#BF252D;}
	.st312{fill:#C7C7C7;}
	.st313{opacity:0.23;}
	.st314{opacity:0.2;fill:#5B7188;}
	.st315{fill:none;stroke:#FFFFFF;stroke-width:6;stroke-miterlimit:10;}
	.st316{fill:#BF252D;stroke:#FFFFFF;stroke-width:6;stroke-miterlimit:10;}
	.st317{opacity:0.3;fill:#BF252D;}
	.st318{opacity:0.7;fill:#BF252D;}
	.st319{opacity:0.5;fill:#BF252D;}
	.st320{opacity:0.2;fill:#BF252D;}
	.st321{fill:#BF252D;stroke:#FFFFFF;stroke-width:5;stroke-miterlimit:10;}
	.st322{opacity:0.53;fill:#52717F;}
	.st323{opacity:0.36;fill:#60748C;}
	.st324{opacity:0.31;fill:#60748C;}
	.st325{opacity:0.45;fill:#6DC5D8;}
	.st326{fill:#E81C24;}
	.st327{fill:#D4DB21;}
	.st328{fill:#F6AB3B;}
	.st329{opacity:0.8;fill:#60748C;}
	.st330{opacity:0.61;fill:#60748C;}
	.st331{opacity:0.12;fill:#6DC5D8;}
	.st332{fill:none;stroke:#6DC5D8;stroke-width:4;stroke-miterlimit:10;}
	.st333{fill:none;stroke:#A4C748;stroke-width:4;stroke-miterlimit:10;}
	.st334{fill:#C1252D;stroke:#C1252D;stroke-width:4;stroke-miterlimit:10;}
	.st335{fill:none;stroke:#FFFFFF;stroke-width:2;stroke-linecap:round;stroke-miterlimit:10;stroke-dasharray:3.9843,5.9765;}
	.st336{fill:none;stroke:#60748C;stroke-width:3;stroke-linecap:round;stroke-miterlimit:10;stroke-dasharray:0.4961,6.945;}
	.st337{fill:none;stroke:#FFFFFF;stroke-width:2;stroke-linecap:round;stroke-miterlimit:10;stroke-dasharray:4.0153,6.023;}
	.st338{fill:none;stroke:#60748C;stroke-width:3;stroke-linecap:round;stroke-miterlimit:10;stroke-dasharray:0.4971,6.9599;}
	.st339{opacity:0.47;fill:#60748C;}
	.st340{fill:none;stroke:#D01519;stroke-miterlimit:10;}
	.st341{clip-path:url(#SVGID_00000124128191007559727410000013754924632555019909_);}
	.st342{clip-path:url(#SVGID_00000096047892078612749390000008053037916233738401_);}
	.st343{fill:#ECECEC;stroke:#FFFFFF;stroke-width:10;stroke-miterlimit:10;}
	.st344{clip-path:url(#SVGID_00000132064830615006562640000002543036802872003224_);}
	.st345{clip-path:url(#SVGID_00000094620313545257137680000005031332175786528655_);}
	.st346{clip-path:url(#SVGID_00000161629477165722230330000004663487078730977409_);}
	.st347{clip-path:url(#SVGID_00000072265132847646701180000004631648185444203155_);}
	.st348{fill:none;stroke:#5B7188;stroke-width:3;stroke-miterlimit:10;stroke-dasharray:9,8;}
	.st349{clip-path:url(#SVGID_00000111160104532725026240000007196587785458277511_);}
	.st350{clip-path:url(#SVGID_00000142855645777520824440000009453781148099932581_);}
	.st351{fill:none;stroke:#E1E1E1;stroke-width:4;stroke-linecap:round;stroke-miterlimit:10;}
	.st352{fill:none;stroke:#000000;stroke-width:5;stroke-miterlimit:10;}
	.st353{fill:none;stroke:#000000;stroke-width:5;stroke-linecap:round;stroke-miterlimit:10;}
	.st354{fill:none;stroke:#E1E1E1;stroke-width:10;stroke-miterlimit:10;}
	.st355{fill:none;stroke:#A4C748;stroke-width:5;stroke-miterlimit:10;}
	.st356{fill:#A4C748;stroke:#FFFFFF;stroke-width:3;stroke-miterlimit:10;}
	.st357{fill:none;stroke:#E1E1E1;stroke-width:10;stroke-linecap:round;stroke-miterlimit:10;}
	.st358{fill:#60748C;stroke:#FFFFFF;stroke-width:5;stroke-miterlimit:10;}
	.st359{fill:#5B7188;stroke:#FFFFFF;stroke-width:5;stroke-miterlimit:10;}
	.st360{fill:#E1E1E1;}
</style>
<g class="st202">
	<path class="st32" d="M140.43,40.1c0-9.23-5.76-14.99-12.85-14.99h-2.14v96.35h2.14c7.09,0,12.85,3.62,12.85,10.71V40.1z"/>
</g>
<path class="st2" d="M109.42,140.73H29.1V91.49h-4.28v51.39c0,1.18,0.96,2.14,2.14,2.14h82.46V140.73z"/>
<g>
	<path class="st32" d="M93.62,116.47c0.15,0,0.26-0.12,0.26-0.26v-5.74h0.85c0.15,0,0.26-0.12,0.26-0.26v-2.23
		c0-0.15-0.12-0.26-0.26-0.26h-3.08v-2.81h1.96c0.15,0,0.26-0.12,0.26-0.26v-2.23c0-0.15-0.12-0.26-0.26-0.26h-1.96v-1.7h1.96
		c0.15,0,0.26-0.12,0.26-0.26v-2.23c0-0.15-0.12-0.26-0.26-0.26h-1.96v-0.85c0-0.14-0.47-0.4-1.38-0.4c-0.9,0-1.38,0.26-1.38,0.4
		v0.85H74.94v-0.85c0-0.14-0.47-0.4-1.38-0.4c-0.9,0-1.38,0.26-1.38,0.4v0.85h-1.96c-0.15,0-0.26,0.12-0.26,0.26v2.23
		c0,0.15,0.12,0.26,0.26,0.26h1.96v1.7h-1.96c-0.15,0-0.26,0.12-0.26,0.26v2.23c0,0.15,0.12,0.26,0.26,0.26h1.96v2.81h-3.08
		c-0.07,0-0.14,0.03-0.19,0.08c-0.05,0.05-0.08,0.12-0.08,0.19v2.23c0,0.15,0.12,0.26,0.26,0.26h0.85v5.74
		c0,0.15,0.12,0.26,0.26,0.26h2.23c0.15,0,0.26-0.12,0.26-0.26v-5.74h18.41v5.74c0,0.15,0.12,0.26,0.26,0.26H93.62z M88.9,107.71
		H74.94v-2.81H88.9V107.71z M88.9,102.14H74.94v-1.7H88.9V102.14z"/>
</g>
<g>
	<rect x="46.56" y="37.96" class="st2" width="10.04" height="4.28"/>
	<rect x="81.89" y="37.96" class="st2" width="8.03" height="4.28"/>
	<path class="st2" d="M39.73,37.96H26.96c-1.18,0-2.14,0.96-2.14,2.14v17.13h4.28V42.24h10.64V37.96z"/>
</g>
<g>
	<g>
		<g>
			<path class="st2" d="M70.25,59.12h3.82v10.43h-3.82V59.12z"/>
		</g>
		<g>
			<path class="st2" d="M62.62,59.12h3.82v10.43h-3.82V59.12z"/>
		</g>
		<g>
			<path class="st2" d="M81.18,4.44H55.5c-1.05,0-1.91,0.85-1.91,1.91v63.2h5.21V57.22c0-1.05,0.85-1.91,1.91-1.91h7.63h7.63
				c1.05,0,1.91,0.85,1.91,1.91v12.34h5.21V6.35C83.09,5.3,82.24,4.44,81.18,4.44z M62.62,49.59c0,1.05-0.85,1.91-1.91,1.91
				s-1.91-0.85-1.91-1.91v-3.82c0-1.05,0.85-1.91,1.91-1.91s1.91,0.85,1.91,1.91V49.59z M62.62,38.14c0,1.05-0.85,1.91-1.91,1.91
				s-1.91-0.85-1.91-1.91v-3.82c0-1.05,0.85-1.91,1.91-1.91s1.91,0.85,1.91,1.91V38.14z M70.25,49.59c0,1.05-0.85,1.91-1.91,1.91
				c-1.05,0-1.91-0.85-1.91-1.91v-3.82c0-1.05,0.85-1.91,1.91-1.91c1.05,0,1.91,0.85,1.91,1.91V49.59z M70.25,38.14
				c0,1.05-0.85,1.91-1.91,1.91c-1.05,0-1.91-0.85-1.91-1.91v-3.82c0-1.05,0.85-1.91,1.91-1.91c1.05,0,1.91,0.85,1.91,1.91V38.14z
				 M77.88,49.59c0,1.05-0.85,1.91-1.91,1.91c-1.05,0-1.91-0.85-1.91-1.91v-3.82c0-1.05,0.85-1.91,1.91-1.91
				c1.05,0,1.91,0.85,1.91,1.91V49.59z M77.88,38.14c0,1.05-0.85,1.91-1.91,1.91c-1.05,0-1.91-0.85-1.91-1.91v-3.82
				c0-1.05,0.85-1.91,1.91-1.91c1.05,0,1.91,0.85,1.91,1.91V38.14z M62.62,26.7c0,1.05-0.85,1.91-1.91,1.91s-1.91-0.85-1.91-1.91
				v-3.82c0-1.05,0.85-1.91,1.91-1.91s1.91,0.85,1.91,1.91V26.7z M70.25,26.7c0,1.05-0.85,1.91-1.91,1.91
				c-1.05,0-1.91-0.85-1.91-1.91v-3.82c0-1.05,0.85-1.91,1.91-1.91c1.05,0,1.91,0.85,1.91,1.91V26.7z M77.88,26.7
				c0,1.05-0.85,1.91-1.91,1.91c-1.05,0-1.91-0.85-1.91-1.91v-3.82c0-1.05,0.85-1.91,1.91-1.91c1.05,0,1.91,0.85,1.91,1.91V26.7z
				 M62.62,15.25c0,1.05-0.85,1.91-1.91,1.91s-1.91-0.85-1.91-1.91v-3.82c0-1.05,0.85-1.91,1.91-1.91s1.91,0.85,1.91,1.91V15.25z
				 M70.25,15.25c0,1.05-0.85,1.91-1.91,1.91c-1.05,0-1.91-0.85-1.91-1.91v-3.82c0-1.05,0.85-1.91,1.91-1.91
				c1.05,0,1.91,0.85,1.91,1.91V15.25z M77.88,15.25c0,1.05-0.85,1.91-1.91,1.91c-1.05,0-1.91-0.85-1.91-1.91v-3.82
				c0-1.05,0.85-1.91,1.91-1.91c1.05,0,1.91,0.85,1.91,1.91V15.25z"/>
		</g>
	</g>
	<g>
		<path class="st2" d="M37.69,29.88c-1.05,0-1.91,0.85-1.91,1.91v35.86c0,1.05,0.85,1.91,1.91,1.91h12.08V29.88H37.69z M44.69,54.67
			c0,1.05-0.85,1.91-1.91,1.91s-1.91-0.85-1.91-1.91v-3.82c0-1.05,0.85-1.91,1.91-1.91s1.91,0.85,1.91,1.91V54.67z M44.69,43.23
			c0,1.05-0.85,1.91-1.91,1.91s-1.91-0.85-1.91-1.91v-3.82c0-1.05,0.85-1.91,1.91-1.91s1.91,0.85,1.91,1.91V43.23z"/>
	</g>
</g>
<circle class="st5" cx="108.49" cy="49.26" r="10.33"/>
<g>
	<path class="st2" d="M95.81,53.35v1.32c0,1.05-0.85,1.91-1.91,1.91s-1.91-0.85-1.91-1.91v-3.82c0-1.05,0.85-1.91,1.91-1.91
		c0.49,0,0.93,0.19,1.27,0.49c0-0.06-0.01-0.12-0.01-0.18c0-4.53,2.27-8.53,5.73-10.94v-6.54c0-1.05-0.85-1.91-1.91-1.91H86.91
		v39.68h12.08c1.05,0,1.91-0.85,1.91-1.91V60.2C98.53,58.55,96.72,56.15,95.81,53.35z M91.99,39.41c0-1.05,0.85-1.91,1.91-1.91
		s1.91,0.85,1.91,1.91v3.81c0,1.05-0.85,1.91-1.91,1.91s-1.91-0.85-1.91-1.91V39.41z"/>
</g>
<g>
	<path class="st2" d="M127.59,22.97h-2.14c-1.18,0-2.14,0.96-2.14,2.14v12.85h-7.78c1.73,1.08,3.2,2.55,4.28,4.28h3.5v79.22
		c0,1.18,0.96,2.14,2.14,2.14h2.14c5.18,0,10.71,2.25,10.71,8.56c0,6.32-5.1,8.56-9.85,8.56h0v4.28h0c8.46,0,14.13-5.16,14.13-12.85
		V40.1C142.58,30.19,136.28,22.97,127.59,22.97z M138.29,122.72c-2.61-2.16-6.32-3.4-10.71-3.4V27.25c6.29,0,10.71,5.29,10.71,12.85
		V122.72z"/>
</g>
<g>
	<path class="st2" d="M63.73,78.46v-2.56h-1.98c-0.07-0.86-0.36-1.5-1.36-1.5h-2.77c-0.98,0-1.26,0.65-1.32,1.5h-1.98v2.56H63.73z"
		/>
	<g>
		<path class="st2" d="M61.76,108.64c-0.01-0.16-0.03-0.31-0.05-0.46l-0.02-0.16h-0.01c-0.14-0.59-0.49-1-1.29-1h-0.14V84.95
			c0.93-0.45,1.62-1.4,1.76-2.54l0.28-2.26h-6.51l0.28,2.26c0.14,1.15,0.83,2.09,1.76,2.54v22.08h-0.18c-0.77,0-1.11,0.41-1.25,1
			h-0.01l-0.02,0.17c-0.02,0.14-0.04,0.29-0.05,0.45h0.01l-0.75,7.83h6.96L61.76,108.64L61.76,108.64z"/>
		<g>
			<path class="st360" d="M58.89,82.69l0.13,0.06l0.13-0.06c0.03-0.01,0.05-0.03,0.08-0.05h-0.43
				C58.84,82.67,58.87,82.68,58.89,82.69z"/>
			<path class="st360" d="M109.35,89.24c-4.7-8.38-13.11-13.39-22.5-13.39H66.23v5.11H64.7l-0.21,1.74
				c-0.15,1.2-0.66,2.29-1.42,3.15h23.78c6.06,0,9.9,3.13,12.06,5.76c1.79,2.18,2.73,4.4,3.13,5.94c-1.46,0-3.41,0-5.69,0
				c0.02,0.13,0.04,0.25,0.04,0.39v2.23c0,0.4-0.08,0.77-0.23,1.11c0.15,0.34,0.23,0.72,0.23,1.11v2.23c0,0.35-0.07,0.69-0.19,1
				c0.67,0.42,1.12,1.12,1.25,1.93c4.06,0,6.73,0,7.16,0.01c2.64,0.1,5.02-1.17,6.38-3.4C113.57,99.92,111.83,93.68,109.35,89.24z"
				/>
			<path class="st360" d="M53.56,82.71l-0.21-1.74h-1.53v-5.11H17.6c-2.76,0-5,2.24-5,5c0,2.76,2.24,5,5,5h37.38
				C54.22,84.99,53.71,83.91,53.56,82.71z"/>
		</g>
	</g>
</g>
<g>
	<g>
		<path class="st2" d="M63.73,78.46v-2.56h-1.98c-0.07-0.86-0.36-1.5-1.36-1.5h-2.77c-0.98,0-1.26,0.65-1.32,1.5h-1.98v2.56H63.73z"
			/>
	</g>
	<g>
		<path class="st2" d="M61.76,108.64c-0.01-0.16-0.03-0.31-0.05-0.46l-0.02-0.16h-0.01c-0.14-0.59-0.49-1-1.29-1h-0.14V84.95
			c0.93-0.45,1.62-1.4,1.76-2.54l0.28-2.26h-6.51l0.28,2.26c0.14,1.15,0.83,2.09,1.76,2.54v22.08h-0.18c-0.77,0-1.11,0.41-1.25,1
			h-0.01l-0.02,0.17c-0.02,0.14-0.04,0.29-0.05,0.45h0.01l-0.75,7.83h6.96L61.76,108.64L61.76,108.64z"/>
	</g>
</g>
<path class="st360" d="M67.49,97.62c-1.63,0-3.22,0.01-4.75,0.01v7.65c0.1,0.08,0.2,0.16,0.29,0.25h0.92l0.21,2.1
	c0.74,0,1.48,0,2.22-0.01c0.08-0.6,0.34-1.17,0.78-1.6c0.15-0.15,0.31-0.28,0.49-0.39c-0.12-0.31-0.19-0.65-0.19-1v-2.23
	c0-0.4,0.08-0.77,0.23-1.11c-0.15-0.34-0.23-0.72-0.23-1.11v-2.23C67.46,97.83,67.48,97.73,67.49,97.62z"/>
<path class="st5" d="M58.69,130.35c-0.3-0.08-0.61-0.12-0.92-0.12c-0.61,0-1.22,0.16-1.76,0.47c-0.82,0.47-1.4,1.23-1.65,2.15
	s-0.12,1.86,0.35,2.68c0.47,0.82,1.23,1.4,2.15,1.65c0.91,0.25,1.86,0.12,2.68-0.35c1.69-0.97,2.27-3.14,1.29-4.83
	C60.36,131.18,59.6,130.6,58.69,130.35z"/>
<path class="st5" d="M42.49,123.55c-3.81,0-6.92,3.1-6.92,6.92c0,3.81,3.1,6.91,6.92,6.91s6.92-3.1,6.92-6.91
	C49.4,126.65,46.3,123.55,42.49,123.55z"/>
<g>
	<path class="st360" d="M118.36,126.36c-5.26-4.87-12.11-4.81-13.65-4.73h-37c-0.53,0-1.1,0.01-1.69,0.02
		c-6.3,0.1-14.13,0.22-19.53-9.51c-0.73-1.32-0.9-2.25-0.74-2.59c0.33-0.71,2.04-1.55,3.41-1.88c1.53,0,3.11-0.01,4.73-0.01
		l0.2-2.13H55c0.1-0.09,0.2-0.18,0.3-0.26v-7.62c-2.92,0.01-5.26,0.02-6.69,0.02l-0.42,0l-0.41,0.07
		c-0.83,0.14-8.22,1.57-11.06,7.48c-1.17,2.43-1.94,6.45,1.02,11.77c0.78,1.41,1.61,2.68,2.46,3.83c0.73-0.17,1.49-0.27,2.28-0.27
		c5.29,0,9.61,4.17,9.89,9.39c0.03,0.01,0.06,0.02,0.08,0.03c0.54-0.75,1.23-1.39,2.05-1.87c1.51-0.87,3.27-1.11,4.96-0.65
		c1.69,0.45,3.09,1.53,3.97,3.04c0.22,0.38,0.39,0.77,0.53,1.17c0.79,0,1.53-0.01,2.21-0.02c0.54-0.01,1.06-0.02,1.54-0.02h37.15
		l0.15,0l0.19-0.02c0.04,0,3.95-0.2,6.41,2.13c1.58,1.49,2.38,3.92,2.38,7.23v4.54c0,2.76,2.24,5,5,5s5-2.24,5-5v-4.54
		C124,134.74,122.1,129.82,118.36,126.36z"/>
</g>
<g>
	<g>
		<path class="st5" d="M110.89,59.35v-5.79h-5v5.73c0.84,0.22,1.72,0.35,2.63,0.35C109.34,59.64,110.13,59.54,110.89,59.35z"/>
		<path class="st5" d="M108.52,62.64c-0.9,0-1.78-0.09-2.63-0.26v7.3h5v-7.26C110.12,62.56,109.33,62.64,108.52,62.64z"/>
	</g>
</g>
</svg>
