<?xml version="1.0" encoding="utf-8"?>
<!-- Generator: Adobe Illustrator 27.2.0, SVG Export Plug-In . SVG Version: 6.00 Build 0)  -->
<svg version="1.1" id="Ebene_1" xmlns="http://www.w3.org/2000/svg" xmlns:xlink="http://www.w3.org/1999/xlink" x="0px" y="0px"
	 viewBox="0 0 121 57" style="enable-background:new 0 0 121 57;" xml:space="preserve">
<style type="text/css">
	.st0{fill:#9CA7B4;}
	.st1{fill:#FFFFFF;}
	.st2{fill:#BABBBC;}
	.st3{fill:#5B718A;}
	.st4{fill:#A5C848;}
	.st5{fill:#45AD4B;}
	.st6{fill:#C1252D;}
	.st7{fill:#6DC5D8;}
	.st8{fill:none;stroke:#CCD8DC;stroke-miterlimit:10;}
	.st9{opacity:0.1;fill:#757577;}
	.st10{fill:#60748C;}
	.st11{fill:none;stroke:#FFFFFF;stroke-miterlimit:10;}
	.st12{font-family:'Barlow-SemiBold';}
	.st13{font-size:14.2704px;}
	.st14{opacity:0.6;}
	.st15{fill:#F1F3F4;}
	.st16{fill:none;stroke:#F1F3F4;stroke-miterlimit:10;}
	.st17{fill:#E8EAED;}
	.st18{fill:#F1F1F1;}
	.st19{fill:#646768;}
	.st20{opacity:0.25;fill:#757577;}
	.st21{fill:none;stroke:#6DC5D8;stroke-width:3;stroke-miterlimit:10;}
	.st22{fill:none;stroke:#C1252D;stroke-width:3;stroke-miterlimit:10;}
	.st23{fill:none;stroke:#45AD4B;stroke-width:3;stroke-miterlimit:10;}
	.st24{fill:#E7E7E7;}
	.st25{clip-path:url(#SVGID_00000034794230576517045290000002574653921811089801_);}
	.st26{clip-path:url(#SVGID_00000034794230576517045290000002574653921811089801_);fill:#F1F1F1;}
	.st27{clip-path:url(#SVGID_00000137117790673287599720000012019391111770238648_);}
	.st28{fill:#FEF9E8;}
	.st29{fill:#CEEAD6;}
	.st30{fill:#FCE8E6;}
	.st31{fill:none;stroke:#9CC0F9;stroke-width:3;stroke-miterlimit:10;}
	.st32{fill:none;stroke:#9CC0F9;stroke-miterlimit:10;}
	.st33{opacity:0.5;fill:#757577;}
	.st34{clip-path:url(#SVGID_00000034794230576517045290000002574653921811089801_);fill:#FFFFFF;}
	.st35{fill:none;stroke:#C1252D;stroke-width:9;stroke-miterlimit:10;}
	.st36{fill:none;stroke:#E7E7E7;stroke-width:9;stroke-miterlimit:10;}
	.st37{fill:none;stroke:#FFFFFF;stroke-width:3;stroke-miterlimit:10;}
	.st38{fill:none;stroke:#45AD4B;stroke-width:9;stroke-miterlimit:10;}
	.st39{fill:none;stroke:#6DC5D8;stroke-width:1.5;stroke-miterlimit:10;}
	.st40{opacity:0.25;clip-path:url(#SVGID_00000034794230576517045290000002574653921811089801_);fill:#757577;}
	.st41{fill:#A1CFA0;}
</style>
<g>
	<g>
		<path class="st6" d="M105.67,43.94H65.05l-5.73,9.38l-5.73-9.38H13.97c-5.25,0-9.51-4.26-9.51-9.51V14.35
			c0-5.25,4.26-9.51,9.51-9.51h91.71c5.25,0,9.51,4.26,9.51,9.51v20.07C115.19,39.68,110.93,43.94,105.67,43.94z"/>
		<path class="st11" d="M105.67,43.94H65.05l-5.73,9.38l-5.73-9.38H13.97c-5.25,0-9.51-4.26-9.51-9.51V14.35
			c0-5.25,4.26-9.51,9.51-9.51h91.71c5.25,0,9.51,4.26,9.51,9.51v20.07C115.19,39.68,110.93,43.94,105.67,43.94z"/>
	</g>
	<g>
		<text transform="matrix(0.9 0 0 1 19.1387 29.4316)" class="st1 st12 st13">Unsave area!</text>
	</g>
</g>
</svg>
