<?xml version="1.0" encoding="utf-8"?>
<!-- Generator: Adobe Illustrator 27.2.0, SVG Export Plug-In . SVG Version: 6.00 Build 0)  -->
<svg version="1.1" id="Ebene_1" xmlns="http://www.w3.org/2000/svg" xmlns:xlink="http://www.w3.org/1999/xlink" x="0px" y="0px"
	 viewBox="0 0 178 45" style="enable-background:new 0 0 178 45;" xml:space="preserve">
<style type="text/css">
	.st0{fill:#9CA7B4;}
	.st1{fill:#FFFFFF;}
	.st2{fill:#BABBBC;}
	.st3{fill:#5B718A;}
	.st4{fill:#A5C848;}
	.st5{fill:#45AD4B;}
	.st6{fill:#C1252D;}
	.st7{fill:#6DC5D8;}
	.st8{fill:none;stroke:#CCD8DC;stroke-miterlimit:10;}
	.st9{opacity:0.1;fill:#757577;}
	.st10{fill:#60748C;}
	.st11{fill:none;stroke:#FFFFFF;stroke-miterlimit:10;}
	.st12{opacity:0.6;}
	.st13{fill:#F1F3F4;}
	.st14{fill:none;stroke:#F1F3F4;stroke-miterlimit:10;}
	.st15{fill:#E8EAED;}
	.st16{fill:#F1F1F1;}
	.st17{fill:#646768;}
	.st18{opacity:0.25;fill:#757577;}
	.st19{fill:none;stroke:#6DC5D8;stroke-width:3;stroke-miterlimit:10;}
	.st20{fill:none;stroke:#C1252D;stroke-width:3;stroke-miterlimit:10;}
	.st21{fill:none;stroke:#45AD4B;stroke-width:3;stroke-miterlimit:10;}
	.st22{fill:#E7E7E7;}
	.st23{clip-path:url(#SVGID_00000080169583597970697730000008679522999781359292_);}
	.st24{clip-path:url(#SVGID_00000080169583597970697730000008679522999781359292_);fill:#F1F1F1;}
	.st25{clip-path:url(#SVGID_00000025413383999346205920000005988926984810987189_);}
	.st26{fill:#FEF9E8;}
	.st27{fill:#CEEAD6;}
	.st28{fill:#FCE8E6;}
	.st29{fill:none;stroke:#9CC0F9;stroke-width:3;stroke-miterlimit:10;}
	.st30{fill:none;stroke:#9CC0F9;stroke-miterlimit:10;}
	.st31{opacity:0.5;fill:#757577;}
	.st32{clip-path:url(#SVGID_00000080169583597970697730000008679522999781359292_);fill:#FFFFFF;}
	.st33{fill:none;stroke:#C1252D;stroke-width:9;stroke-miterlimit:10;}
	.st34{fill:none;stroke:#E7E7E7;stroke-width:9;stroke-miterlimit:10;}
	.st35{fill:none;stroke:#FFFFFF;stroke-width:3;stroke-miterlimit:10;}
	.st36{fill:none;stroke:#45AD4B;stroke-width:9;stroke-miterlimit:10;}
	.st37{fill:none;stroke:#6DC5D8;stroke-width:1.5;stroke-miterlimit:10;}
	.st38{opacity:0.25;clip-path:url(#SVGID_00000080169583597970697730000008679522999781359292_);fill:#757577;}
	.st39{fill:#A1CFA0;}
</style>
<g>
	<path class="st1" d="M172.18,14.99c-0.29-5.2-4.58-9.32-9.85-9.32H13.09c-5.27,0-9.56,4.13-9.85,9.32H3.21v0.55l0,0v8.53v1.47l0,0
		v0.45v9.7c18.52,2.26,47.59,3.72,80.29,3.72c38.2,0,71.46-1.99,88.71-4.93v-8.49v-0.45l0,0v-0.26v-9.74l0,0v-0.55H172.18z"/>
	<g>
		<g>
			<g>
				<path class="st3" d="M19.88,26.14l8.76-2.16l-5.95-4.09l1.05-3.23c-0.18-0.04-0.36-0.07-0.54-0.09l-1.08,3.31l-5.08-1.02
					c-0.14,0.15-0.27,0.31-0.39,0.47l5.26,1.06l-2.39,5.09l-0.13-0.24l-0.11,0.76l-0.58,1.23l0.46-0.43l-0.42,2.9
					c0.17,0.1,0.33,0.19,0.51,0.27l0.44-3.05l2.04,3.72c0.19,0.02,0.38,0.02,0.57,0.02c0.02,0,0.04,0,0.06,0L19.88,26.14z
					 M22.48,20.46l4.84,3.39l-7.4,1.7L22.48,20.46z"/>
				<circle class="st4" cx="19.54" cy="25.83" r="2.33"/>
				<circle class="st5" cx="22.3" cy="20.2" r="1.43"/>
				<circle class="st6" cx="27.86" cy="23.98" r="1.01"/>
				<path class="st6" d="M17.04,18.87c1.3-1.44,3.17-2.35,5.26-2.35c0.31,0,0.61,0.02,0.9,0.06l0.57-1.74
					c-0.48-0.08-0.97-0.12-1.47-0.12c-2.99,0-5.64,1.49-7.25,3.76L17.04,18.87z"/>
				<path class="st7" d="M18.74,29.71c-2.1-1.23-3.51-3.51-3.51-6.11c0-1.59,0.53-3.07,1.42-4.25l-1.92-0.39
					c-0.83,1.35-1.31,2.94-1.31,4.64c0,3.53,2.06,6.58,5.05,8.01L18.74,29.71z"/>
				<path class="st4" d="M21.73,30.65c-0.88-0.07-1.72-0.3-2.48-0.67l-0.27,1.86c1.03,0.42,2.15,0.65,3.32,0.65
					c0.14,0,0.29,0,0.43-0.01L21.73,30.65z"/>
				<g>
					<path class="st6" d="M27.86,20.18c-2.09,0-3.8,1.7-3.8,3.8s1.7,3.8,3.8,3.8s3.8-1.7,3.8-3.8S29.96,20.18,27.86,20.18z
						 M27.86,27.21c-1.78,0-3.22-1.45-3.22-3.22c0-1.78,1.45-3.22,3.22-3.22c1.78,0,3.22,1.45,3.22,3.22
						C31.09,25.76,29.64,27.21,27.86,27.21z"/>
					<path class="st6" d="M27.86,21.52c-1.36,0-2.46,1.11-2.46,2.46c0,1.36,1.1,2.46,2.46,2.46c1.36,0,2.46-1.11,2.46-2.46
						C30.33,22.63,29.22,21.52,27.86,21.52z M27.86,25.87c-1.04,0-1.89-0.85-1.89-1.89c0-1.04,0.85-1.89,1.89-1.89
						c1.04,0,1.89,0.85,1.89,1.89C29.75,25.02,28.9,25.87,27.86,25.87z"/>
				</g>
				<path class="st5" d="M28.01,27.78c-1.28,1.75-3.35,2.89-5.68,2.89l0.93,1.76c3.47-0.37,6.34-2.73,7.44-5.92
					C30.03,27.26,29.07,27.74,28.01,27.78z"/>
				<path class="st5" d="M28.53,20.25c1.03,0.18,1.92,0.78,2.48,1.62c-0.67-3.42-3.3-6.13-6.68-6.92l-0.59,1.72
					C25.82,17.1,27.56,18.44,28.53,20.25z"/>
			</g>
		</g>
		<g>
			<path class="st3" d="M35.63,18.84h0.54c0.35,0,0.53,0.18,0.53,0.53v6.15c0,1.29,0.64,1.7,1.42,1.7c0.78,0,1.42-0.4,1.42-1.7
				v-6.15c0-0.35,0.18-0.53,0.53-0.53h0.54c0.35,0,0.53,0.18,0.53,0.53v6.32c0,2.03-1.29,3.05-3.02,3.05
				c-1.72,0-3.02-1.02-3.02-3.05v-6.32C35.1,19.02,35.28,18.84,35.63,18.84z"/>
			<path class="st3" d="M44.5,23.46v4.62c0,0.33-0.17,0.5-0.5,0.5h-0.5c-0.33,0-0.5-0.17-0.5-0.5v-4.73c0-1.59,0.81-2.17,2.2-2.17
				c0.21,0,0.43,0,0.71,0.06c0.26,0.06,0.43,0.17,0.43,0.5v0.4c0,0.33-0.17,0.54-0.5,0.49c-0.17-0.03-0.29-0.04-0.43-0.04
				C44.76,22.58,44.5,22.81,44.5,23.46z"/>
			<path class="st3" d="M48.92,21.68c0.33-0.4,0.81-0.58,1.38-0.58c1.14,0,1.99,0.74,1.99,2.3v2.88c0,1.67-1.04,2.46-2.43,2.46
				c-1.39,0-2.43-0.79-2.43-2.46V19.2c0-0.33,0.17-0.5,0.5-0.5h0.5c0.33,0,0.5,0.17,0.5,0.5V21.68z M48.92,26.17
				c0,0.89,0.42,1.16,0.93,1.16c0.51,0,0.93-0.26,0.93-1.16v-2.52c0-0.89-0.42-1.16-0.93-1.16c-0.51,0-0.93,0.26-0.93,1.16V26.17z"
				/>
			<path class="st3" d="M52.74,19.44c-0.08-0.32,0.06-0.6,0.4-0.6h0.68c0.36,0,0.54,0.14,0.61,0.47l1.74,7.72l1.74-7.72
				c0.07-0.33,0.25-0.47,0.61-0.47h0.64c0.35,0,0.49,0.28,0.4,0.6l-2.09,8.39c-0.13,0.5-0.45,0.75-0.96,0.75h-0.74
				c-0.51,0-0.83-0.25-0.96-0.75L52.74,19.44z"/>
			<path class="st3" d="M60.39,19.34c0-0.33,0.17-0.5,0.5-0.5h0.5c0.33,0,0.5,0.17,0.5,0.5v0.47c0,0.33-0.17,0.5-0.5,0.5h-0.5
				c-0.33,0-0.5-0.17-0.5-0.5V19.34z M60.39,21.75c0-0.33,0.17-0.5,0.5-0.5h0.5c0.33,0,0.5,0.17,0.5,0.5v6.33
				c0,0.33-0.17,0.5-0.5,0.5h-0.5c-0.33,0-0.5-0.17-0.5-0.5V21.75z"/>
			<path class="st3" d="M67.33,26.12h0.57c0.33,0,0.5,0.17,0.5,0.5c0,1.25-0.95,2.12-2.36,2.12c-1.39,0-2.43-0.82-2.43-2.46v-2.71
				c0-1.64,1.04-2.46,2.43-2.46c1.39,0,2.43,0.82,2.43,2.46v1.18c0,0.33-0.17,0.5-0.5,0.5H65.1v0.93c0,0.89,0.42,1.16,0.93,1.16
				c0.53,0,0.86-0.31,0.86-0.78C66.9,26.27,67.05,26.12,67.33,26.12z M65.1,24.12h1.86v-0.46c0-0.89-0.42-1.16-0.93-1.16
				c-0.51,0-0.93,0.26-0.93,1.16V24.12z"/>
			<path class="st3" d="M70.08,21.75c0-0.33,0.17-0.5,0.5-0.5h0.5c0.33,0,0.5,0.17,0.5,0.5v4.5c0,0.83,0.39,1.09,0.88,1.09
				s0.88-0.25,0.88-1.09v-4.5c0-0.33,0.17-0.5,0.5-0.5h0.5c0.33,0,0.5,0.17,0.5,0.5v4.5c0,0.83,0.39,1.09,0.88,1.09
				s0.88-0.25,0.88-1.09v-4.5c0-0.33,0.17-0.5,0.5-0.5h0.5c0.33,0,0.5,0.17,0.5,0.5v4.77c0,1.48-0.93,2.21-2.18,2.21
				c-0.83,0-1.47-0.36-1.82-1.04c-0.35,0.68-1,1.04-1.82,1.04c-1.25,0-2.18-0.74-2.18-2.21V21.75z"/>
		</g>
	</g>
</g>
</svg>
