<?xml version="1.0" encoding="utf-8"?>
<!-- Generator: Adobe Illustrator 27.2.0, SVG Export Plug-In . SVG Version: 6.00 Build 0)  -->
<svg version="1.1" id="Ebene_1" xmlns="http://www.w3.org/2000/svg" xmlns:xlink="http://www.w3.org/1999/xlink" x="0px" y="0px"
	 viewBox="0 0 175 41" style="enable-background:new 0 0 175 41;" xml:space="preserve">
<style type="text/css">
	.st0{fill:#9CA7B4;}
	.st1{fill:#FFFFFF;}
	.st2{fill:#BABBBC;}
	.st3{fill:#5B718A;}
	.st4{fill:#A5C848;}
	.st5{fill:#45AD4B;}
	.st6{fill:#C1252D;}
	.st7{fill:#6DC5D8;}
	.st8{fill:none;stroke:#CCD8DC;stroke-miterlimit:10;}
	.st9{opacity:0.1;fill:#757577;}
	.st10{fill:#60748C;}
	.st11{fill:none;stroke:#FFFFFF;stroke-miterlimit:10;}
	.st12{opacity:0.6;}
	.st13{fill:#F1F3F4;}
	.st14{fill:none;stroke:#F1F3F4;stroke-miterlimit:10;}
	.st15{fill:#E8EAED;}
	.st16{fill:#F1F1F1;}
	.st17{fill:#646768;}
	.st18{opacity:0.25;fill:#757577;}
	.st19{fill:none;stroke:#6DC5D8;stroke-width:3;stroke-miterlimit:10;}
	.st20{fill:none;stroke:#C1252D;stroke-width:3;stroke-miterlimit:10;}
	.st21{fill:none;stroke:#45AD4B;stroke-width:3;stroke-miterlimit:10;}
	.st22{fill:#E7E7E7;}
	.st23{clip-path:url(#SVGID_00000023978108042800259780000001207520390164485255_);}
	.st24{clip-path:url(#SVGID_00000023978108042800259780000001207520390164485255_);fill:#F1F1F1;}
	.st25{clip-path:url(#SVGID_00000074401091849752081130000012461916929209435067_);}
	.st26{fill:#FEF9E8;}
	.st27{fill:#CEEAD6;}
	.st28{fill:#FCE8E6;}
	.st29{fill:none;stroke:#9CC0F9;stroke-width:3;stroke-miterlimit:10;}
	.st30{fill:none;stroke:#9CC0F9;stroke-miterlimit:10;}
	.st31{opacity:0.5;fill:#757577;}
	.st32{clip-path:url(#SVGID_00000023978108042800259780000001207520390164485255_);fill:#FFFFFF;}
	.st33{fill:none;stroke:#C1252D;stroke-width:9;stroke-miterlimit:10;}
	.st34{fill:none;stroke:#E7E7E7;stroke-width:9;stroke-miterlimit:10;}
	.st35{fill:none;stroke:#FFFFFF;stroke-width:3;stroke-miterlimit:10;}
	.st36{fill:none;stroke:#45AD4B;stroke-width:9;stroke-miterlimit:10;}
	.st37{fill:none;stroke:#6DC5D8;stroke-width:1.5;stroke-miterlimit:10;}
	.st38{opacity:0.25;clip-path:url(#SVGID_00000023978108042800259780000001207520390164485255_);fill:#757577;}
	.st39{fill:#A1CFA0;}
</style>
<g>
	<path class="st1" d="M171.42,12c-0.29-5.2-4.58-9.32-9.85-9.32H12.25C6.98,2.68,2.68,6.8,2.4,12H2.37v0.55v0v16v0v0.88h0.04
		c0.45,5.04,4.67,9,9.83,9h149.32c5.16,0,9.39-3.96,9.83-9h0.04v-0.88v0v-16v0V12H171.42z"/>
	<g>
		<g>
			<g>
				<path class="st3" d="M19.05,23.15l8.77-2.16l-5.95-4.09l1.05-3.23c-0.18-0.04-0.36-0.07-0.54-0.09l-1.08,3.31l-5.08-1.02
					c-0.14,0.15-0.27,0.31-0.39,0.47l5.26,1.06l-2.39,5.09l-0.13-0.24l-0.11,0.76l-0.58,1.23l0.46-0.43l-0.42,2.9
					c0.17,0.1,0.33,0.19,0.51,0.27l0.44-3.05l2.04,3.72c0.19,0.02,0.38,0.02,0.57,0.02c0.02,0,0.04,0,0.06,0L19.05,23.15z
					 M21.65,17.47l4.84,3.39l-7.4,1.7L21.65,17.47z"/>
				<circle class="st4" cx="18.71" cy="22.84" r="2.33"/>
				<circle class="st5" cx="21.47" cy="17.21" r="1.43"/>
				<circle class="st6" cx="27.03" cy="20.99" r="1.01"/>
				<path class="st6" d="M16.21,15.88c1.3-1.44,3.17-2.35,5.26-2.35c0.31,0,0.61,0.02,0.9,0.06l0.57-1.74
					c-0.48-0.08-0.97-0.12-1.47-0.12c-2.99,0-5.64,1.49-7.25,3.76L16.21,15.88z"/>
				<path class="st7" d="M17.91,26.72c-2.1-1.23-3.52-3.51-3.52-6.11c0-1.59,0.53-3.07,1.42-4.25l-1.92-0.39
					c-0.83,1.35-1.31,2.94-1.31,4.64c0,3.53,2.06,6.58,5.05,8.01L17.91,26.72z"/>
				<path class="st4" d="M20.9,27.66c-0.88-0.07-1.72-0.3-2.48-0.67l-0.27,1.86c1.03,0.42,2.15,0.65,3.32,0.65
					c0.14,0,0.29,0,0.43-0.01L20.9,27.66z"/>
				<g>
					<path class="st6" d="M27.03,17.19c-2.1,0-3.8,1.7-3.8,3.8s1.7,3.8,3.8,3.8s3.8-1.7,3.8-3.8S29.13,17.19,27.03,17.19z
						 M27.03,24.22c-1.78,0-3.22-1.45-3.22-3.22c0-1.78,1.45-3.22,3.22-3.22c1.78,0,3.22,1.45,3.22,3.22
						C30.26,22.77,28.81,24.22,27.03,24.22z"/>
					<path class="st6" d="M27.03,18.53c-1.36,0-2.46,1.11-2.46,2.46c0,1.36,1.11,2.46,2.46,2.46s2.46-1.11,2.46-2.46
						C29.5,19.64,28.39,18.53,27.03,18.53z M27.03,22.88c-1.04,0-1.89-0.85-1.89-1.89c0-1.04,0.85-1.89,1.89-1.89
						c1.04,0,1.89,0.85,1.89,1.89C28.92,22.04,28.07,22.88,27.03,22.88z"/>
				</g>
				<path class="st5" d="M27.18,24.79c-1.28,1.75-3.35,2.89-5.69,2.89l0.93,1.76c3.47-0.37,6.34-2.73,7.45-5.92
					C29.2,24.27,28.25,24.75,27.18,24.79z"/>
				<path class="st5" d="M27.7,17.26c1.03,0.18,1.92,0.78,2.48,1.62c-0.68-3.42-3.31-6.13-6.68-6.92l-0.59,1.72
					C24.99,14.11,26.73,15.45,27.7,17.26z"/>
			</g>
		</g>
		<g>
			<path class="st3" d="M34.8,15.85h0.54c0.35,0,0.53,0.18,0.53,0.53v6.15c0,1.29,0.64,1.7,1.42,1.7c0.78,0,1.42-0.4,1.42-1.7v-6.15
				c0-0.35,0.18-0.53,0.53-0.53h0.54c0.35,0,0.53,0.18,0.53,0.53v6.32c0,2.03-1.29,3.05-3.02,3.05c-1.73,0-3.02-1.02-3.02-3.05
				v-6.32C34.27,16.03,34.45,15.85,34.8,15.85z"/>
			<path class="st3" d="M43.68,20.47v4.62c0,0.33-0.17,0.5-0.5,0.5h-0.5c-0.33,0-0.5-0.17-0.5-0.5v-4.73c0-1.59,0.81-2.17,2.2-2.17
				c0.21,0,0.43,0,0.71,0.06c0.26,0.06,0.43,0.17,0.43,0.5v0.4c0,0.33-0.17,0.54-0.5,0.49c-0.17-0.03-0.29-0.04-0.43-0.04
				C43.94,19.59,43.68,19.82,43.68,20.47z"/>
			<path class="st3" d="M48.1,18.69c0.33-0.4,0.81-0.58,1.38-0.58c1.14,0,1.99,0.74,1.99,2.3v2.88c0,1.67-1.04,2.46-2.44,2.46
				c-1.39,0-2.44-0.79-2.44-2.46v-7.07c0-0.33,0.17-0.5,0.5-0.5h0.5c0.33,0,0.5,0.17,0.5,0.5V18.69z M48.1,23.19
				c0,0.89,0.42,1.16,0.93,1.16c0.51,0,0.93-0.26,0.93-1.16v-2.52c0-0.89-0.42-1.16-0.93-1.16c-0.51,0-0.93,0.26-0.93,1.16V23.19z"
				/>
			<path class="st3" d="M51.92,16.45c-0.08-0.32,0.06-0.6,0.4-0.6h0.68c0.36,0,0.54,0.14,0.61,0.47l1.74,7.72l1.74-7.72
				c0.07-0.33,0.25-0.47,0.61-0.47h0.64c0.35,0,0.49,0.28,0.4,0.6l-2.09,8.39c-0.13,0.5-0.45,0.75-0.96,0.75h-0.74
				c-0.51,0-0.84-0.25-0.96-0.75L51.92,16.45z"/>
			<path class="st3" d="M59.57,16.35c0-0.33,0.17-0.5,0.5-0.5h0.5c0.33,0,0.5,0.17,0.5,0.5v0.47c0,0.33-0.17,0.5-0.5,0.5h-0.5
				c-0.33,0-0.5-0.17-0.5-0.5V16.35z M59.57,18.76c0-0.33,0.17-0.5,0.5-0.5h0.5c0.33,0,0.5,0.17,0.5,0.5v6.33
				c0,0.33-0.17,0.5-0.5,0.5h-0.5c-0.33,0-0.5-0.17-0.5-0.5V18.76z"/>
			<path class="st3" d="M66.52,23.13h0.57c0.33,0,0.5,0.17,0.5,0.5c0,1.25-0.95,2.12-2.37,2.12c-1.39,0-2.44-0.82-2.44-2.46v-2.71
				c0-1.64,1.04-2.46,2.44-2.46s2.44,0.82,2.44,2.46v1.18c0,0.33-0.17,0.5-0.5,0.5h-2.87v0.93c0,0.89,0.42,1.16,0.93,1.16
				c0.53,0,0.86-0.31,0.86-0.78C66.09,23.28,66.24,23.13,66.52,23.13z M64.29,21.13h1.86v-0.46c0-0.89-0.42-1.16-0.93-1.16
				s-0.93,0.26-0.93,1.16V21.13z"/>
			<path class="st3" d="M69.27,18.76c0-0.33,0.17-0.5,0.5-0.5h0.5c0.33,0,0.5,0.17,0.5,0.5v4.5c0,0.83,0.39,1.09,0.88,1.09
				s0.88-0.25,0.88-1.09v-4.5c0-0.33,0.17-0.5,0.5-0.5h0.5c0.33,0,0.5,0.17,0.5,0.5v4.5c0,0.83,0.39,1.09,0.88,1.09
				s0.88-0.25,0.88-1.09v-4.5c0-0.33,0.17-0.5,0.5-0.5h0.5c0.33,0,0.5,0.17,0.5,0.5v4.77c0,1.48-0.93,2.21-2.18,2.21
				c-0.83,0-1.48-0.36-1.82-1.04c-0.35,0.68-1,1.04-1.82,1.04c-1.25,0-2.18-0.74-2.18-2.21V18.76z"/>
		</g>
	</g>
</g>
</svg>
