<?xml version="1.0" encoding="utf-8"?>
<!-- Generator: Adobe Illustrator 27.2.0, SVG Export Plug-In . SVG Version: 6.00 Build 0)  -->
<svg version="1.1" id="Ebene_1" xmlns="http://www.w3.org/2000/svg" xmlns:xlink="http://www.w3.org/1999/xlink" x="0px" y="0px"
	 viewBox="0 0 157 79" style="enable-background:new 0 0 157 79;" xml:space="preserve">
<style type="text/css">
	.st0{fill:#9CA7B4;}
	.st1{fill:#FFFFFF;}
	.st2{fill:#BABBBC;}
	.st3{fill:#5B718A;}
	.st4{fill:#A5C848;}
	.st5{fill:#45AD4B;}
	.st6{fill:#C1252D;}
	.st7{fill:#6DC5D8;}
	.st8{fill:none;stroke:#CCD8DC;stroke-miterlimit:10;}
	.st9{opacity:0.1;fill:#757577;}
	.st10{fill:#60748C;}
	.st11{fill:none;stroke:#FFFFFF;stroke-miterlimit:10;}
	.st12{opacity:0.6;}
	.st13{fill:#F1F3F4;}
	.st14{fill:none;stroke:#F1F3F4;stroke-miterlimit:10;}
	.st15{font-family:'Barlow-SemiBold';}
	.st16{font-size:14.2704px;}
	.st17{fill:#E8EAED;}
	.st18{fill:#F1F1F1;}
	.st19{fill:#646768;}
	.st20{opacity:0.25;fill:#757577;}
	.st21{fill:none;stroke:#6DC5D8;stroke-width:3;stroke-miterlimit:10;}
	.st22{fill:none;stroke:#C1252D;stroke-width:3;stroke-miterlimit:10;}
	.st23{fill:none;stroke:#45AD4B;stroke-width:3;stroke-miterlimit:10;}
	.st24{fill:#E7E7E7;}
	.st25{clip-path:url(#SVGID_00000182513912882107060820000007030010144330099640_);}
	.st26{clip-path:url(#SVGID_00000182513912882107060820000007030010144330099640_);fill:#F1F1F1;}
	.st27{clip-path:url(#SVGID_00000142870304338661062950000016291799359654625449_);}
	.st28{fill:#FEF9E8;}
	.st29{fill:#CEEAD6;}
	.st30{fill:#FCE8E6;}
	.st31{fill:none;stroke:#9CC0F9;stroke-width:3;stroke-miterlimit:10;}
	.st32{fill:none;stroke:#9CC0F9;stroke-miterlimit:10;}
	.st33{opacity:0.5;fill:#757577;}
	.st34{clip-path:url(#SVGID_00000182513912882107060820000007030010144330099640_);fill:#FFFFFF;}
	.st35{fill:none;stroke:#C1252D;stroke-width:9;stroke-miterlimit:10;}
	.st36{fill:none;stroke:#E7E7E7;stroke-width:9;stroke-miterlimit:10;}
	.st37{fill:none;stroke:#FFFFFF;stroke-width:3;stroke-miterlimit:10;}
	.st38{fill:none;stroke:#45AD4B;stroke-width:9;stroke-miterlimit:10;}
	.st39{fill:none;stroke:#6DC5D8;stroke-width:1.5;stroke-miterlimit:10;}
	.st40{opacity:0.25;clip-path:url(#SVGID_00000182513912882107060820000007030010144330099640_);fill:#757577;}
	.st41{fill:#A1CFA0;}
</style>
<g>
	<g>
		<path class="st10" d="M140.22,61.01H80.54l-5.73,9.38l-5.73-9.38H13.78c-5.25,0-9.51-4.26-9.51-9.51V14.74
			c0-5.25,4.26-9.51,9.51-9.51h126.44c5.25,0,9.51,4.26,9.51,9.51v36.75C149.74,56.75,145.48,61.01,140.22,61.01z"/>
		<path class="st14" d="M140.22,61.01H80.54l-5.73,9.38l-5.73-9.38H13.78c-5.25,0-9.51-4.26-9.51-9.51V14.74
			c0-5.25,4.26-9.51,9.51-9.51h126.44c5.25,0,9.51,4.26,9.51,9.51v36.75C149.74,56.75,145.48,61.01,140.22,61.01z"/>
	</g>
	<g>
		<text transform="matrix(0.9 0 0 1 16.8457 27.667)"><tspan x="0" y="0" class="st13 st15 st16">Adress Name</tspan><tspan x="0" y="19.38" class="st13 st15 st16">Street 1, 12345 HH</tspan></text>
	</g>
</g>
</svg>
