<?xml version="1.0" encoding="utf-8"?>
<!-- Generator: Adobe Illustrator 27.2.0, SVG Export Plug-In . SVG Version: 6.00 Build 0)  -->
<svg version="1.1" id="Ebene_1" xmlns="http://www.w3.org/2000/svg" xmlns:xlink="http://www.w3.org/1999/xlink" x="0px" y="0px"
	 viewBox="0 0 3087.18 255.69" style="enable-background:new 0 0 3087.18 255.69;" xml:space="preserve">
<style type="text/css">
	.st0{fill:#60748C;}
	.st1{fill:#ECECEC;}
	.st2{stroke:#FFFFFF;stroke-width:0.5;stroke-miterlimit:10;}
	.st3{fill:#FFFFFF;}
	.st4{fill:#EDEDED;}
	.st5{opacity:0.1;fill:#546579;stroke:#60748C;stroke-width:1.0251;stroke-miterlimit:10;}
	.st6{opacity:0.1;fill:#546579;stroke:#282F39;stroke-width:1.0251;stroke-miterlimit:10;}
	.st7{opacity:0.1;fill:#546579;stroke:#546579;stroke-width:1.0251;stroke-miterlimit:10;}
	.st8{fill:#60748C;stroke:#60748C;stroke-width:0.9491;stroke-miterlimit:10;}
	.st9{fill:#282F39;}
	.st10{fill:#45AD4B;stroke:#45AD4B;stroke-width:0.8985;stroke-miterlimit:10;}
	.st11{fill:#6DC5D8;stroke:#6DC5D8;stroke-width:0.9491;stroke-miterlimit:10;}
	.st12{fill:#282F39;stroke:#FFFFFF;stroke-width:1.0437;stroke-miterlimit:10;}
	.st13{fill:#45AD4B;stroke:#45AD4B;stroke-width:0.9491;stroke-miterlimit:10;}
	.st14{fill:#A4C748;}
	.st15{fill:#45AD4B;stroke:#45AD4B;stroke-width:0.9119;stroke-miterlimit:10;}
	.st16{fill:#C1252D;stroke:#C1252D;stroke-width:0.9491;stroke-miterlimit:10;}
	.st17{fill:#C1252D;}
	.st18{fill:#C1252D;stroke:#C1252D;stroke-width:1.0339;stroke-miterlimit:10;}
	.st19{fill:#C1252D;stroke:#C1252D;stroke-width:0.8834;stroke-miterlimit:10;}
	.st20{fill:none;stroke:#282F39;stroke-width:2;stroke-linecap:round;stroke-linejoin:round;stroke-miterlimit:10;}
	.st21{fill:#45AD4B;}
	.st22{fill:#45AB4B;}
	.st23{fill:#6DC5D8;}
	.st24{opacity:0.1;}
	.st25{fill:#5B7188;}
	.st26{fill:#97A2AF;}
	.st27{fill:#BABBBC;}
	.st28{fill:#5B7185;}
	.st29{fill:#A0C348;}
	.st30{fill:#45A84B;}
	.st31{fill:#BC252D;}
	.st32{fill:#6DC0D3;}
	.st33{fill:none;stroke:#C7D3D7;stroke-miterlimit:10;}
	.st34{opacity:0.1;fill:#757577;}
	.st35{fill:none;stroke:#FFFFFF;stroke-miterlimit:10;}
	.st36{opacity:0.6;}
	.st37{fill:#F1F3F4;}
	.st38{fill:none;stroke:#F1F3F4;stroke-miterlimit:10;}
	.st39{fill:#E8EAED;}
	.st40{fill:#F1F1F1;}
	.st41{fill:#646768;}
	.st42{opacity:0.25;fill:#757577;}
	.st43{fill:none;stroke:#6DC5D8;stroke-width:3;stroke-miterlimit:10;}
	.st44{fill:none;stroke:#C1252D;stroke-width:3;stroke-miterlimit:10;}
	.st45{fill:none;stroke:#45AD4B;stroke-width:3;stroke-miterlimit:10;}
	.st46{fill:#E7E7E7;}
	.st47{clip-path:url(#SVGID_00000178197839273307475390000017335085168782157973_);}
	.st48{clip-path:url(#SVGID_00000178197839273307475390000017335085168782157973_);fill:#F1F1F1;}
	.st49{clip-path:url(#SVGID_00000046320188472748063860000006994309531510776205_);}
	.st50{fill:#FEF9E8;}
	.st51{fill:#CEEAD6;}
	.st52{fill:#FCE8E6;}
	.st53{fill:none;stroke:#9CC0F9;stroke-width:3;stroke-miterlimit:10;}
	.st54{fill:none;stroke:#9CC0F9;stroke-miterlimit:10;}
	.st55{opacity:0.5;fill:#757577;}
	.st56{clip-path:url(#SVGID_00000178197839273307475390000017335085168782157973_);fill:#FFFFFF;}
	.st57{fill:none;stroke:#C1252D;stroke-width:9;stroke-miterlimit:10;}
	.st58{fill:none;stroke:#E7E7E7;stroke-width:9;stroke-miterlimit:10;}
	.st59{fill:none;stroke:#FFFFFF;stroke-width:3;stroke-miterlimit:10;}
	.st60{fill:none;stroke:#45AD4B;stroke-width:9;stroke-miterlimit:10;}
	.st61{fill:none;stroke:#6DC5D8;stroke-width:1.5;stroke-miterlimit:10;}
	.st62{opacity:0.25;clip-path:url(#SVGID_00000178197839273307475390000017335085168782157973_);fill:#757577;}
	.st63{fill:#292929;}
	.st64{fill-rule:evenodd;clip-rule:evenodd;}
	.st65{fill:#FF7578;}
	.st66{fill:#FFC9CA;}
	.st67{fill:#173042;}
	.st68{fill:#946B6B;}
	.st69{fill:none;}
	.st70{fill:#FFFFFF;stroke:#FFFFFF;stroke-width:7;stroke-miterlimit:10;}
	.st71{fill:#444444;}
	.st72{fill:#F73103;}
	.st73{fill:#FFBB39;}
	.st74{fill:#398229;}
	.st75{fill:#DE0505;}
	.st76{fill:#FF804E;}
	.st77{fill:#7ED668;}
	.st78{fill:#BF252D;}
	.st79{fill:#D4894D;}
	.st80{fill:#AD5512;}
	.st81{fill:#FF00FF;}
	.st82{fill:#FF3D75;}
	.st83{fill:#F28E1E;}
	.st84{fill:#2B6E53;}
	.st85{fill:#399150;}
	.st86{fill:#6A4A1D;}
	.st87{fill:#6DC3D6;}
	.st88{clip-path:url(#SVGID_00000081617775420897734370000007680633378360751540_);}
	.st89{clip-path:url(#SVGID_00000023247965460581500750000001360296030476162228_);}
	.st90{fill:#333333;}
	.st91{fill:url(#SVGID_00000080184047286859416290000017747009825997709246_);}
	.st92{fill:url(#SVGID_00000057832156615445291860000015908025683481535914_);}
	.st93{opacity:0.08;}
	.st94{fill:url(#SVGID_00000043432553554873217030000001517457247316052903_);}
	.st95{fill-rule:evenodd;clip-rule:evenodd;fill:#1A1A1A;}
	.st96{fill:#1A1A1A;}
	.st97{fill-rule:evenodd;clip-rule:evenodd;fill:#60748C;}
	.st98{fill:#FCEED7;}
	.st99{fill:#FBD18B;}
	.st100{fill:#DEE1E5;}
	.st101{fill:#ED8D80;}
	.st102{fill:#E97361;}
	.st103{fill:#AE5649;}
	.st104{fill:#CACED5;}
	.st105{fill:#A8B0BB;}
	.st106{fill:#CACFD7;}
	.st107{fill:#EABF9A;}
	.st108{fill:#E4E7EB;}
	.st109{fill:#69D4F2;}
	.st110{fill:#B2DB7F;}
	.st111{fill:#9ED268;}
	.st112{fill:#F8F8F8;}
	.st113{fill:#F0F0F0;}
	.st114{fill:#738DBD;}
	.st115{fill:#E46D67;}
	.st116{fill:#24C1F0;}
	.st117{fill:#36B183;}
	.st118{fill:#FFB866;}
	.st119{fill:#FFD873;}
	.st120{fill-rule:evenodd;clip-rule:evenodd;fill:#485156;}
	.st121{fill:#58595B;}
	.st122{fill:#BF252D;stroke:#BF252D;stroke-width:2;stroke-miterlimit:10;}
	.st123{fill:#FFFFFF;stroke:#BF252D;stroke-width:4;stroke-linecap:round;stroke-linejoin:round;stroke-miterlimit:10;}
	.st124{fill-rule:evenodd;clip-rule:evenodd;fill:#BF252D;}
	.st125{fill:none;stroke:#FFFFFF;stroke-miterlimit:10;stroke-dasharray:1.0108,1.0108;}
	.st126{fill:none;stroke:#45AD4B;stroke-width:4;stroke-miterlimit:10;}
	.st127{fill:none;stroke:#C1252D;stroke-width:4;stroke-miterlimit:10;}
	.st128{opacity:0.2;fill:#45AD4B;}
	.st129{opacity:0.6;fill:#45AD4B;}
	.st130{fill:#44A049;}
	.st131{fill:#A3C648;}
	.st132{clip-path:url(#SVGID_00000096053735427433360110000018389940799800749471_);}
	.st133{opacity:0.5;fill:#45AD4B;}
	.st134{opacity:0.2;fill:#E7E7E7;}
	.st135{opacity:0.5;fill:#E7E7E7;}
	.st136{opacity:0.5;fill:#FFFFFF;}
	.st137{opacity:0.2;fill:#6DC5D8;}
	.st138{fill:none;stroke:#FFFFFF;stroke-width:2.5;stroke-miterlimit:10;}
	.st139{fill:none;stroke:#BF252D;stroke-width:5;stroke-miterlimit:10;}
	.st140{fill:#BF252D;stroke:#FFFFFF;stroke-width:3;stroke-miterlimit:10;}
	.st141{fill:#FFFFFF;stroke:#FFFFFF;stroke-width:5.5;stroke-miterlimit:10;}
	.st142{fill:none;stroke:#BF252D;stroke-width:3;stroke-miterlimit:10;}
	.st143{fill:#BF252D;stroke:#FFFFFF;stroke-width:4.5;stroke-miterlimit:10;}
	.st144{fill:#BF252D;stroke:#FFFFFF;stroke-miterlimit:10;}
	.st145{fill:#F7E921;}
	.st146{fill:#6E81B5;}
	.st147{fill:#466087;}
	.st148{fill:#FFAEA8;}
	.st149{fill:#FFE152;}
	.st150{fill:#96C869;}
	.st151{fill:#ADB3BD;}
	.st152{fill:#CACED8;}
	.st153{fill:#40CAEF;}
	.st154{fill:#276F80;}
	.st155{fill:#878F9E;}
	.st156{fill:#EEF0F3;}
	.st157{fill:#1E505B;}
	.st158{fill:#9C80EA;}
	.st159{fill:#FAC955;}
	.st160{clip-path:url(#SVGID_00000052066617098450225150000006928656278288490645_);}
	.st161{fill:#E5EAEB;}
	.st162{fill:#ADB4B9;}
	.st163{fill:#495D72;}
	.st164{fill:#28384C;}
	.st165{fill:#E9B816;}
	.st166{fill:#DB352E;}
	.st167{fill:#366DB4;}
	.st168{fill:#753489;}
	.st169{fill:#57A9BF;}
	.st170{fill:#25AC86;}
	.st171{fill:#F56363;}
	.st172{fill:#BD5A45;}
	.st173{fill:#F0EABD;}
	.st174{fill:#EB8819;}
	.st175{fill:#C3411E;}
	.st176{fill:#205B75;}
	.st177{fill:#C8D9E8;}
	.st178{fill:#A9B9CA;}
	.st179{fill:#114559;}
	.st180{fill:#DFE8F2;}
	.st181{fill:#E3B933;}
	.st182{fill:#E96374;}
	.st183{fill:#80EAFF;}
	.st184{fill:#FFFFFF;stroke:#C1252D;stroke-width:7;stroke-miterlimit:10;}
	.st185{fill:#FFFFFF;stroke:#45AD4B;stroke-width:7;stroke-miterlimit:10;}
	.st186{fill:#B4BCBD;}
	.st187{fill:#CED7DA;}
	.st188{fill:none;stroke:#45AD4B;stroke-width:2;stroke-miterlimit:10;}
	.st189{fill:#6DC3D6;stroke:#FFFFFF;stroke-width:0.1;stroke-miterlimit:10;}
	.st190{fill:#C1252D;stroke:#FFFFFF;stroke-width:0.1;stroke-miterlimit:10;}
	.st191{fill:#A3C648;stroke:#FFFFFF;stroke-width:0.1;stroke-miterlimit:10;}
	.st192{fill:#45AB4B;stroke:#FFFFFF;stroke-width:0.1;stroke-miterlimit:10;}
	.st193{fill:none;stroke:#60748C;stroke-linecap:round;stroke-linejoin:round;stroke-miterlimit:10;stroke-dasharray:2,4;}
	.st194{fill:#F0F0F0;stroke:#C1252D;stroke-width:7;stroke-miterlimit:10;}
	.st195{fill:#F0F0F0;stroke:#45AD4B;stroke-width:7;stroke-miterlimit:10;}
	.st196{opacity:0.3;}
	.st197{opacity:0.3;fill:#5B7188;}
	.st198{fill:#EDEDED;stroke:#C1252D;stroke-width:6;stroke-miterlimit:10;}
	.st199{fill:#5B7188;stroke:#EDEDED;stroke-miterlimit:10;}
	.st200{fill:#EDEDED;stroke:#45AD4B;stroke-width:6;stroke-miterlimit:10;}
	.st201{fill:#FFFFFF;stroke:#C1252D;stroke-width:6;stroke-miterlimit:10;}
	.st202{fill:#FFFFFF;stroke:#45AD4B;stroke-width:6;stroke-miterlimit:10;}
	.st203{fill:none;stroke:#6DC5D8;stroke-linecap:round;stroke-linejoin:round;}
	.st204{fill:none;stroke:#6DC5D8;stroke-linecap:round;stroke-linejoin:round;stroke-dasharray:4.8937,7.8299;}
	.st205{fill:none;stroke:#6DC5D8;stroke-linecap:round;stroke-linejoin:round;stroke-dasharray:5.1322,8.2115;}
	.st206{fill:none;stroke:#6DC5D8;stroke-linecap:round;stroke-linejoin:round;stroke-miterlimit:10;stroke-dasharray:5,8;}
	.st207{fill:#45AC4B;}
	.st208{fill:#C0252D;}
	.st209{fill:#6DC4D7;}
	.st210{fill:#5B7189;}
	.st211{fill:none;stroke:#60748C;stroke-width:1.5;stroke-miterlimit:10;}
	.st212{opacity:0.4;}
	.st213{fill:none;stroke:#60748C;stroke-width:2;stroke-linecap:round;stroke-linejoin:round;stroke-miterlimit:10;}
	.st214{opacity:0.54;fill:#FFFFFF;}
	.st215{clip-path:url(#SVGID_00000114780838889494995010000006491035013857146251_);}
	.st216{opacity:0.5;fill:#5B7188;}
	.st217{opacity:0.1;fill:#60748C;}
	.st218{clip-path:url(#SVGID_00000007396257496407950290000003060374225365973438_);}
	.st219{display:none;}
	.st220{display:inline;fill:#FFFFFF;}
	.st221{display:inline;fill:#090C11;}
	.st222{display:inline;fill:#4A596E;}
	.st223{fill:#546579;}
	.st224{fill:#6F88A6;}
	.st225{opacity:0.1;fill:none;stroke:#FFFFFF;stroke-miterlimit:10;}
	.st226{display:none;fill:#6DC5D8;}
	.st227{opacity:0.45;fill:#60748C;}
	.st228{opacity:0.03;clip-path:url(#SVGID_00000129168700963604831600000015968444535338676375_);}
	.st229{clip-path:url(#SVGID_00000129168700963604831600000015968444535338676375_);}
	
		.st230{clip-path:url(#SVGID_00000129168700963604831600000015968444535338676375_);fill:#FFFFFF;stroke:#60748C;stroke-width:1.5;stroke-miterlimit:10;}
	.st231{opacity:0.4;clip-path:url(#SVGID_00000129168700963604831600000015968444535338676375_);}
	.st232{clip-path:url(#SVGID_00000160883949527440762550000004232088230206427301_);}
	.st233{opacity:0.05;clip-path:url(#SVGID_00000160883949527440762550000004232088230206427301_);}
	.st234{fill:#575756;}
	
		.st235{clip-path:url(#SVGID_00000160883949527440762550000004232088230206427301_);fill:#FFFFFF;stroke:#60748C;stroke-width:1.5;stroke-miterlimit:10;}
	.st236{opacity:0.4;clip-path:url(#SVGID_00000160883949527440762550000004232088230206427301_);}
	.st237{fill:#FFFFFF;stroke:#60748C;stroke-width:1.5;stroke-miterlimit:10;}
	.st238{fill:#A5C848;}
	.st239{opacity:0.2;}
	.st240{clip-path:url(#SVGID_00000010283900861980819510000008387724789634253500_);}
	.st241{clip-path:url(#SVGID_00000031898157507537361980000010768246571956782744_);}
	.st242{fill:none;stroke:#60748C;stroke-width:3;stroke-miterlimit:10;}
	.st243{fill:#EDEDED;stroke:#C0252D;stroke-width:3;stroke-miterlimit:10;}
	.st244{clip-path:url(#SVGID_00000093898365548327415620000016183683296652070307_);}
	.st245{opacity:0.1;fill:#546579;}
	.st246{opacity:0.05;}
	.st247{fill:#606060;}
	.st248{opacity:0.15;}
	.st249{opacity:0.5;}
	.st250{fill:#535353;}
	.st251{opacity:0.7;}
	.st252{filter:url(#Adobe_OpacityMaskFilter);}
	.st253{filter:url(#Adobe_OpacityMaskFilter_00000049923746475038518670000012118245611581600932_);}
	
		.st254{mask:url(#SVGID_00000106120314671893589280000002622634615129922979_);fill:url(#SVGID_00000097481208951005816960000008878204671729022878_);}
	.st255{filter:url(#Adobe_OpacityMaskFilter_00000113321447468692900120000000917715014653922969_);}
	.st256{filter:url(#Adobe_OpacityMaskFilter_00000106833777024489789620000001455245022308727470_);}
	
		.st257{mask:url(#SVGID_00000040569265927730783930000015795062156916624036_);fill:url(#SVGID_00000051368203318855681770000001640176764243079601_);}
	.st258{filter:url(#Adobe_OpacityMaskFilter_00000116217884238529873590000006710632221575521161_);}
	.st259{filter:url(#Adobe_OpacityMaskFilter_00000025420987695672441260000014483013011725789319_);}
	
		.st260{mask:url(#SVGID_00000163073657053695771880000014501304720864255932_);fill:url(#SVGID_00000036932703303049774800000004143040149817611444_);}
	.st261{filter:url(#Adobe_OpacityMaskFilter_00000123419353096388885100000001553459882791747739_);}
	.st262{filter:url(#Adobe_OpacityMaskFilter_00000072265583361178706460000016529362248989658243_);}
	
		.st263{mask:url(#SVGID_00000105405980386750244150000016851814834616778135_);fill:url(#SVGID_00000070800686139442132310000009579779202454076854_);}
	.st264{filter:url(#Adobe_OpacityMaskFilter_00000083807541136028008160000015558006062190140069_);}
	.st265{filter:url(#Adobe_OpacityMaskFilter_00000093169219805249766620000007618658000312922013_);}
	
		.st266{mask:url(#SVGID_00000129195296794642672630000011773544763812741273_);fill:url(#SVGID_00000152966944943752124940000000582210970883787453_);}
	.st267{filter:url(#Adobe_OpacityMaskFilter_00000026885919496585591630000015351230787024456612_);}
	.st268{filter:url(#Adobe_OpacityMaskFilter_00000007395481912305404950000017700433512245623974_);}
	
		.st269{mask:url(#SVGID_00000090255873095717952850000002703601493287354772_);fill:url(#SVGID_00000036231541576873383800000010489834903011817879_);}
	.st270{filter:url(#Adobe_OpacityMaskFilter_00000109012872191230903750000012944334424902653317_);}
	.st271{filter:url(#Adobe_OpacityMaskFilter_00000044857405014643194790000001744133203990897849_);}
	
		.st272{mask:url(#SVGID_00000181073623853752567130000001961213812067984559_);fill:url(#SVGID_00000143606544346821724110000001821515682725563830_);}
	.st273{opacity:0.8;}
	.st274{filter:url(#Adobe_OpacityMaskFilter_00000016787777326282455560000004879391533309535369_);}
	.st275{filter:url(#Adobe_OpacityMaskFilter_00000050633470093913345990000003313185093903159952_);}
	
		.st276{mask:url(#SVGID_00000175319653285409477130000012165608220849243296_);fill:url(#SVGID_00000099659872703612005390000006433490136044208572_);}
	.st277{fill:none;stroke:#1A1A1A;stroke-width:4;stroke-miterlimit:10;}
	.st278{fill:none;stroke:#60748C;stroke-width:4;stroke-miterlimit:10;}
	.st279{fill:#FFFFFF;stroke:#60748C;stroke-width:3;stroke-miterlimit:10;}
	.st280{fill:#FFFFFF;stroke:#6DC5D8;stroke-width:3;stroke-miterlimit:10;}
	.st281{fill:#6DC5D8;stroke:#FFFFFF;stroke-width:3;stroke-miterlimit:10;}
	.st282{opacity:0.25;}
	.st283{fill:#757577;}
	.st284{fill:#AEAEAE;}
	.st285{fill:#C1252D;stroke:#FFFFFF;stroke-width:3;stroke-miterlimit:10;}
	.st286{fill:#1A1A1A;stroke:#FFFFFF;stroke-width:3;stroke-miterlimit:10;}
	.st287{fill:none;stroke:#000000;stroke-width:10;stroke-linecap:round;stroke-miterlimit:10;}
	.st288{fill:none;stroke:#45AD4B;stroke-width:6;stroke-miterlimit:10;}
	.st289{fill:none;stroke:#6DC5D8;stroke-width:6;stroke-miterlimit:10;}
	.st290{fill:none;stroke:#60748C;stroke-width:6;stroke-miterlimit:10;}
	.st291{fill:none;stroke:#000000;stroke-width:6;stroke-miterlimit:10;}
	.st292{fill:#60748C;stroke:#FFFFFF;stroke-width:4;stroke-miterlimit:10;}
	.st293{fill:none;stroke:#000000;stroke-width:7;stroke-linecap:round;stroke-miterlimit:10;}
	.st294{fill-rule:evenodd;clip-rule:evenodd;fill:none;stroke:#000000;stroke-width:4;stroke-miterlimit:10;}
	.st295{fill:none;stroke:#000000;stroke-width:4;stroke-miterlimit:10;}
	.st296{fill:none;stroke:#000000;stroke-width:4;stroke-linecap:round;stroke-miterlimit:10;}
	.st297{fill-rule:evenodd;clip-rule:evenodd;stroke:#FFFFFF;stroke-miterlimit:10;}
	.st298{fill:#949494;}
	.st299{clip-path:url(#SVGID_00000131354831649031181200000007239952637781034168_);}
	.st300{fill:#1A1A1A;stroke:#1A1A1A;stroke-miterlimit:10;}
	.st301{stroke:#000000;stroke-miterlimit:10;}
	.st302{clip-path:url(#SVGID_00000070093760532820578940000012144016939645695404_);}
	.st303{fill:#60748C;stroke:#60748C;stroke-miterlimit:10;}
	.st304{fill:#728499;}
	.st305{opacity:0.4;fill:#BF252D;}
	.st306{opacity:0.75;fill:#BF252D;}
	.st307{fill:none;stroke:#FFFFFF;stroke-width:5;stroke-miterlimit:10;}
	.st308{fill:#C7C7C7;}
	.st309{opacity:0.23;}
	.st310{opacity:0.2;fill:#5B7188;}
	.st311{fill:none;stroke:#FFFFFF;stroke-width:6;stroke-miterlimit:10;}
	.st312{fill:#BF252D;stroke:#FFFFFF;stroke-width:6;stroke-miterlimit:10;}
	.st313{opacity:0.3;fill:#BF252D;}
	.st314{opacity:0.7;fill:#BF252D;}
	.st315{opacity:0.5;fill:#BF252D;}
	.st316{opacity:0.2;fill:#BF252D;}
	.st317{fill:#BF252D;stroke:#FFFFFF;stroke-width:5;stroke-miterlimit:10;}
</style>
<g>
	<g>
		<path class="st1" d="M1085.93,134.87c-1.5,0.61-3.11,1.05-4.5,1.85c-14.45,8.32-28.85,16.75-43.31,25.06
			c-9.71,5.58-19.51,11.01-29.27,16.5c-4.41,2.48-6.37,6.14-4.54,9.42c6.1,10.94,12.35,21.8,18.71,32.6
			c0.5,0.85,2.56,1.64,3.43,1.29c5.76-2.32,11.67-4.47,17-7.58c12.16-7.09,22.02-16.7,29.53-28.72
			c8.71-13.93,13.2-29.07,13.84-46.53C1086.68,138.14,1086.31,136.51,1085.93,134.87z"/>
		<path class="st1" d="M956.98,105.8c7.09,12.35,14.12,24.74,21.2,37.1c4.45,7.77,9.19,15.38,13.35,23.3c3.28,6.25,6.9,7.62,13,4.04
			c7.08-4.16,14.2-8.24,21.31-12.36c5.81-3.37,11.62-6.74,17.44-10.1c13.01-7.49,26-15.02,39.07-22.41
			c2.54-1.44,3.31-3.14,2.56-5.89c-1.14-4.16-2.09-8.36-3.11-12.55c-30.87-62.82-90.47-57.75-94.39-57.35c0-0.01,0-0.02,0-0.03
			c-3.67,0.57-7.41,0.88-11.01,1.76c-14.03,3.46-26.4,10.19-37.25,19.69c-0.59,0.52-0.87,2.23-0.48,2.92
			C944.69,84.6,950.88,95.17,956.98,105.8z"/>
		<path class="st1" d="M955.12,135.94c2.8-1.63,5.13-3.74,4.18-7.36c-0.4-1.52-1.68-2.8-2.5-4.23c-8.11-14.2-16.22-28.41-24.3-42.63
			c-1.16-2.04-2.34-1.86-3.61-0.22c-1.32,1.71-2.57,3.48-3.82,5.24c-7.06,9.87-11.7,20.79-14.03,32.7c-0.32,0.93-0.8,1.84-0.93,2.79
			c-1.58,11.56-1.79,23.1,0.88,34.54c0.3,1.28,1,2.48,1.52,3.71c1.34-0.7,2.68-1.41,4.03-2.11
			C929.39,150.89,942.26,143.43,955.12,135.94z"/>
		<path class="st1" d="M1004.33,206.44c-4.16-7.28-8.3-14.58-12.5-21.84c-7.1-12.3-14.3-24.53-21.31-36.88
			c-2.7-4.75-5.63-6.05-10.39-3.37c-14.12,7.94-28.13,16.05-42.19,24.09c-2.42,1.38-2.4,3.25-1.31,5.51
			c5.19,10.7,11.92,20.21,20.62,28.43c16.8,15.85,36.84,23.47,60.88,24.45c3.84-0.44,8.87-1.02,13.9-1.61
			c2.13-0.25,2.42-1.18,1.33-3.03C1010.28,216.99,1007.33,211.7,1004.33,206.44z"/>
	</g>
	<ellipse class="st307" cx="998.16" cy="139.4" rx="90.62" ry="88.89"/>
</g>
<g>
	<g>
		<path class="st1" d="M215.96,134.87c-1.5,0.61-3.11,1.05-4.5,1.85c-14.45,8.32-28.85,16.75-43.31,25.06
			c-9.71,5.58-19.51,11.01-29.27,16.5c-4.41,2.48-6.37,6.14-4.54,9.42c6.1,10.94,12.35,21.8,18.71,32.6
			c0.5,0.85,2.56,1.64,3.43,1.29c5.76-2.32,11.67-4.47,17-7.58c12.16-7.09,22.02-16.7,29.53-28.72
			c8.71-13.93,13.2-29.07,13.84-46.53C216.71,138.14,216.33,136.51,215.96,134.87z"/>
		<path class="st1" d="M87,105.8c7.09,12.35,14.12,24.74,21.2,37.1c4.45,7.77,9.19,15.38,13.35,23.3c3.28,6.25,6.9,7.62,13,4.04
			c7.08-4.16,14.2-8.24,21.31-12.36c5.81-3.37,11.62-6.74,17.44-10.1c13.01-7.49,26-15.02,39.07-22.41
			c2.54-1.44,3.31-3.14,2.56-5.89c-1.14-4.16-2.09-8.36-3.11-12.55c-30.87-62.82-90.47-57.75-94.39-57.35c0-0.01,0-0.02,0-0.03
			c-3.67,0.57-7.41,0.88-11.01,1.76c-14.03,3.46-26.4,10.19-37.25,19.69c-0.59,0.52-0.87,2.23-0.48,2.92
			C74.72,84.6,80.9,95.17,87,105.8z"/>
		<path class="st1" d="M85.14,135.94c2.8-1.63,5.13-3.74,4.18-7.36c-0.4-1.52-1.68-2.8-2.5-4.23c-8.11-14.2-16.22-28.41-24.3-42.63
			c-1.16-2.04-2.34-1.86-3.61-0.22c-1.32,1.71-2.57,3.48-3.82,5.24c-7.06,9.87-11.7,20.79-14.03,32.7c-0.32,0.93-0.8,1.84-0.93,2.79
			c-1.58,11.56-1.79,23.1,0.88,34.54c0.3,1.28,1,2.48,1.52,3.71c1.34-0.7,2.68-1.41,4.03-2.11
			C59.42,150.89,72.29,143.43,85.14,135.94z"/>
		<path class="st1" d="M134.35,206.44c-4.16-7.28-8.3-14.58-12.5-21.84c-7.1-12.3-14.3-24.53-21.31-36.88
			c-2.7-4.75-5.63-6.05-10.39-3.37c-14.12,7.94-28.13,16.05-42.19,24.09c-2.42,1.38-2.4,3.25-1.31,5.51
			c5.19,10.7,11.92,20.21,20.62,28.43c16.8,15.85,36.84,23.47,60.88,24.45c3.84-0.44,8.87-1.02,13.9-1.61
			c2.13-0.25,2.42-1.18,1.33-3.03C140.3,216.99,137.36,211.7,134.35,206.44z"/>
	</g>
	<ellipse class="st307" cx="128.19" cy="139.4" rx="90.62" ry="88.89"/>
</g>
<g>
	<g>
		<path class="st1" d="M420.88,134.87c-1.5,0.61-3.11,1.05-4.5,1.85c-14.45,8.32-28.85,16.75-43.31,25.06
			c-9.71,5.58-19.51,11.01-29.27,16.5c-4.41,2.48-6.37,6.14-4.54,9.42c6.1,10.94,12.35,21.8,18.71,32.6
			c0.5,0.85,2.56,1.64,3.43,1.29c5.76-2.32,11.67-4.47,17-7.58c12.16-7.09,22.02-16.7,29.53-28.72
			c8.71-13.93,13.2-29.07,13.84-46.53C421.63,138.14,421.25,136.51,420.88,134.87z"/>
		<path class="st1" d="M291.93,105.8c7.09,12.35,14.12,24.74,21.2,37.1c4.45,7.77,9.19,15.38,13.35,23.3c3.28,6.25,6.9,7.62,13,4.04
			c7.08-4.16,14.2-8.24,21.31-12.36c5.81-3.37,11.62-6.74,17.44-10.1c13.01-7.49,26-15.02,39.07-22.41
			c2.54-1.44,3.31-3.14,2.56-5.89c-1.14-4.16-2.09-8.36-3.11-12.55c-30.87-62.82-90.47-57.75-94.39-57.35c0-0.01,0-0.02,0-0.03
			c-3.67,0.57-7.41,0.88-11.01,1.76c-14.03,3.46-26.4,10.19-37.25,19.69c-0.59,0.52-0.87,2.23-0.48,2.92
			C279.64,84.6,285.83,95.17,291.93,105.8z"/>
		<path class="st1" d="M290.06,135.94c2.8-1.63,5.13-3.74,4.18-7.36c-0.4-1.52-1.68-2.8-2.5-4.23c-8.11-14.2-16.22-28.41-24.3-42.63
			c-1.16-2.04-2.34-1.86-3.61-0.22c-1.32,1.71-2.57,3.48-3.82,5.24c-7.06,9.87-11.7,20.79-14.03,32.7c-0.32,0.93-0.8,1.84-0.93,2.79
			c-1.58,11.56-1.79,23.1,0.88,34.54c0.3,1.28,1,2.48,1.52,3.71c1.34-0.7,2.68-1.41,4.03-2.11
			C264.34,150.89,277.21,143.43,290.06,135.94z"/>
		<path class="st1" d="M339.28,206.44c-4.16-7.28-8.3-14.58-12.5-21.84c-7.1-12.3-14.3-24.53-21.31-36.88
			c-2.7-4.75-5.63-6.05-10.39-3.37c-14.12,7.94-28.13,16.05-42.19,24.09c-2.42,1.38-2.4,3.25-1.31,5.51
			c5.19,10.7,11.92,20.21,20.62,28.43c16.8,15.85,36.84,23.47,60.88,24.45c3.84-0.44,8.87-1.02,13.9-1.61
			c2.13-0.25,2.42-1.18,1.33-3.03C345.23,216.99,342.28,211.7,339.28,206.44z"/>
	</g>
	<ellipse class="st307" cx="333.11" cy="139.4" rx="90.62" ry="88.89"/>
</g>
<g>
	<g>
		<path class="st1" d="M642.19,134.87c-1.5,0.61-3.11,1.05-4.5,1.85c-14.45,8.32-28.85,16.75-43.31,25.06
			c-9.71,5.58-19.51,11.01-29.27,16.5c-4.41,2.48-6.37,6.14-4.54,9.42c6.1,10.94,12.35,21.8,18.71,32.6
			c0.5,0.85,2.56,1.64,3.43,1.29c5.76-2.32,11.67-4.47,17-7.58c12.16-7.09,22.02-16.7,29.53-28.72
			c8.71-13.93,13.2-29.07,13.84-46.53C642.94,138.14,642.56,136.51,642.19,134.87z"/>
		<path class="st1" d="M513.23,105.8c7.09,12.35,14.12,24.74,21.2,37.1c4.45,7.77,9.19,15.38,13.35,23.3c3.28,6.25,6.9,7.62,13,4.04
			c7.08-4.16,14.2-8.24,21.31-12.36c5.81-3.37,11.62-6.74,17.44-10.1c13.01-7.49,26-15.02,39.07-22.41
			c2.54-1.44,3.31-3.14,2.56-5.89c-1.14-4.16-2.09-8.36-3.11-12.55c-30.87-62.82-90.47-57.75-94.39-57.35c0-0.01,0-0.02,0-0.03
			c-3.67,0.57-7.41,0.88-11.01,1.76c-14.03,3.46-26.4,10.19-37.25,19.69c-0.59,0.52-0.87,2.23-0.48,2.92
			C500.95,84.6,507.13,95.17,513.23,105.8z"/>
		<path class="st1" d="M511.37,135.94c2.8-1.63,5.13-3.74,4.18-7.36c-0.4-1.52-1.68-2.8-2.5-4.23c-8.11-14.2-16.22-28.41-24.3-42.63
			c-1.16-2.04-2.34-1.86-3.61-0.22c-1.32,1.71-2.57,3.48-3.82,5.24c-7.06,9.87-11.7,20.79-14.03,32.7c-0.32,0.93-0.8,1.84-0.93,2.79
			c-1.58,11.56-1.79,23.1,0.88,34.54c0.3,1.28,1,2.48,1.52,3.71c1.34-0.7,2.68-1.41,4.03-2.11
			C485.65,150.89,498.52,143.43,511.37,135.94z"/>
		<path class="st1" d="M560.58,206.44c-4.16-7.28-8.3-14.58-12.5-21.84c-7.1-12.3-14.3-24.53-21.31-36.88
			c-2.7-4.75-5.63-6.05-10.39-3.37c-14.12,7.94-28.13,16.05-42.19,24.09c-2.42,1.38-2.4,3.25-1.31,5.51
			c5.19,10.7,11.92,20.21,20.62,28.43c16.8,15.85,36.84,23.47,60.88,24.45c3.84-0.44,8.87-1.02,13.9-1.61
			c2.13-0.25,2.42-1.18,1.33-3.03C566.53,216.99,563.59,211.7,560.58,206.44z"/>
	</g>
	<ellipse class="st307" cx="554.42" cy="139.4" rx="90.62" ry="88.89"/>
</g>
<g>
	
		<ellipse transform="matrix(0.9072 -0.4207 0.4207 0.9072 41.281 438.2839)" class="st78" cx="1014.06" cy="125.57" rx="12.42" ry="12.08"/>
	<g>
		<path class="st78" d="M1015.03,79.91c-25.62,0-46.9,20.49-47.44,45.67s19.87,45.66,45.5,45.66c25.62,0,46.91-20.48,47.44-45.66
			S1040.65,79.91,1015.03,79.91z M1013.24,164.31c-21.73,0-39.05-17.38-38.59-38.73c0.45-21.36,18.5-38.74,40.24-38.74
			c21.74,0,39.05,17.38,38.59,38.74C1053.02,146.93,1034.97,164.31,1013.24,164.31z"/>
		<path class="st78" d="M1014.69,95.97c-16.61,0-30.41,13.28-30.76,29.61c-0.35,16.33,12.89,29.61,29.5,29.61
			s30.41-13.28,30.76-29.61S1031.3,95.97,1014.69,95.97z M1013.58,148.25c-12.72,0-22.86-10.17-22.59-22.68
			c0.27-12.5,10.83-22.68,23.56-22.68c12.72,0,22.86,10.17,22.59,22.68C1036.87,138.08,1026.3,148.25,1013.58,148.25z"/>
	</g>
</g>
<ellipse transform="matrix(0.9072 -0.4207 0.4207 0.9072 0.2504 252.2827)" class="st78" cx="571.95" cy="125.57" rx="12.42" ry="12.08"/>
<ellipse transform="matrix(0.9967 -0.081 0.081 0.9967 -9.103 28.5632)" class="st308" cx="347.63" cy="126.52" rx="6.04" ry="4.83"/>
<g class="st309">
	<path class="st25" d="M1076.42,94.76c8.77-16.43-2.53-34.76-25.18-40.86s-48.21,2.3-56.97,18.73c-4.46,8.36-3.7,17.21,1.08,24.7
		l-0.06,0.02l17.76,27.9l39.71-12.55l-0.01-0.01C1063.25,109.31,1071.99,103.07,1076.42,94.76z"/>
</g>
<g class="st309">
	<path class="st25" d="M624.41,104.87c7.15-13.4-2.06-28.35-20.54-33.33c-18.48-4.98-39.32,1.88-46.48,15.28
		c-3.64,6.82-3.02,14.04,0.88,20.15l-0.05,0.02l14.48,22.76l32.39-10.24l-0.01-0.01C613.66,116.74,620.79,111.65,624.41,104.87z"/>
</g>
<g>
	<path class="st78" d="M1057.76,63.59c0-24.14-19.64-43.78-43.78-43.78c-24.14,0-43.78,19.64-43.78,43.78
		c0,12.29,5.11,23.4,13.29,31.36l-0.04,0.04l30.42,29.7l30.77-29.87l-0.02-0.02C1052.72,86.86,1057.76,75.81,1057.76,63.59z"/>
</g>
<g>
	<g>
		<g>
			<path class="st37" d="M1010.49,90.01c-1.02-1.13-1.52-2.57-1.52-4.32c0-1.75,0.51-3.18,1.52-4.28c1.01-1.11,2.31-1.66,3.88-1.66
				c1.57,0,2.87,0.55,3.88,1.66c1.01,1.11,1.52,2.53,1.52,4.28c0,1.7-0.51,3.13-1.52,4.28c-1.02,1.15-2.31,1.73-3.88,1.73
				C1012.8,91.7,1011.5,91.13,1010.49,90.01z M1010.92,74.68c-0.15-0.16-0.22-0.36-0.22-0.59l-1.06-29.83
				c0-0.55,0.25-0.83,0.75-0.83h8.82c0.5,0,0.75,0.28,0.75,0.83l-1.06,29.83c0,0.23-0.07,0.43-0.22,0.59
				c-0.15,0.16-0.32,0.24-0.53,0.24h-6.71C1011.24,74.92,1011.07,74.84,1010.92,74.68z"/>
		</g>
	</g>
</g>
<g>
	<g>
		<path class="st1" d="M1306.99,134.87c-1.5,0.61-3.11,1.05-4.5,1.85c-14.45,8.32-28.85,16.75-43.31,25.06
			c-9.71,5.58-19.51,11.01-29.27,16.5c-4.41,2.48-6.37,6.14-4.54,9.42c6.1,10.94,12.35,21.8,18.71,32.6
			c0.5,0.85,2.56,1.64,3.43,1.29c5.76-2.32,11.67-4.47,17-7.58c12.16-7.09,22.02-16.7,29.53-28.72
			c8.71-13.93,13.2-29.07,13.84-46.53C1307.74,138.14,1307.36,136.51,1306.99,134.87z"/>
		<path class="st1" d="M1178.03,105.8c7.09,12.35,14.12,24.74,21.2,37.1c4.45,7.77,9.19,15.38,13.35,23.3
			c3.28,6.25,6.9,7.62,13,4.04c7.08-4.16,14.2-8.24,21.31-12.36c5.81-3.37,11.62-6.74,17.44-10.1c13.01-7.49,26-15.02,39.07-22.41
			c2.54-1.44,3.31-3.14,2.56-5.89c-1.14-4.16-2.09-8.36-3.11-12.55c-30.87-62.82-90.47-57.75-94.39-57.35c0-0.01,0-0.02,0-0.03
			c-3.67,0.57-7.41,0.88-11.01,1.76c-14.03,3.46-26.4,10.19-37.25,19.69c-0.59,0.52-0.87,2.23-0.48,2.92
			C1165.75,84.6,1171.94,95.17,1178.03,105.8z"/>
		<path class="st1" d="M1176.17,135.94c2.8-1.63,5.13-3.74,4.18-7.36c-0.4-1.52-1.68-2.8-2.5-4.23
			c-8.11-14.2-16.22-28.41-24.3-42.63c-1.16-2.04-2.34-1.86-3.61-0.22c-1.32,1.71-2.57,3.48-3.82,5.24
			c-7.06,9.87-11.7,20.79-14.03,32.7c-0.32,0.93-0.8,1.84-0.93,2.79c-1.58,11.56-1.79,23.1,0.88,34.54c0.3,1.28,1,2.48,1.52,3.71
			c1.34-0.7,2.68-1.41,4.03-2.11C1150.45,150.89,1163.32,143.43,1176.17,135.94z"/>
		<path class="st1" d="M1225.38,206.44c-4.16-7.28-8.3-14.58-12.5-21.84c-7.1-12.3-14.3-24.53-21.31-36.88
			c-2.7-4.75-5.63-6.05-10.39-3.37c-14.12,7.94-28.13,16.05-42.19,24.09c-2.42,1.38-2.4,3.25-1.31,5.51
			c5.19,10.7,11.92,20.21,20.62,28.43c16.8,15.85,36.84,23.47,60.88,24.45c3.84-0.44,8.87-1.02,13.9-1.61
			c2.13-0.25,2.42-1.18,1.33-3.03C1231.33,216.99,1228.39,211.7,1225.38,206.44z"/>
	</g>
	<ellipse class="st307" cx="1219.22" cy="139.4" rx="90.62" ry="88.89"/>
</g>
<g>
	
		<ellipse transform="matrix(0.9072 -0.4207 0.4207 0.9072 61.7964 531.2849)" class="st78" cx="1235.12" cy="125.57" rx="12.42" ry="12.08"/>
	<g>
		<path class="st78" d="M1236.09,79.91c-25.62,0-46.9,20.49-47.44,45.67c-0.53,25.18,19.87,45.66,45.5,45.66
			c25.62,0,46.91-20.48,47.44-45.66C1282.12,100.39,1261.71,79.91,1236.09,79.91z M1234.29,164.31c-21.73,0-39.05-17.38-38.59-38.73
			c0.45-21.36,18.5-38.74,40.24-38.74c21.74,0,39.05,17.38,38.59,38.74C1274.08,146.93,1256.03,164.31,1234.29,164.31z"/>
		<path class="st78" d="M1235.74,95.97c-16.61,0-30.41,13.28-30.76,29.61s12.89,29.61,29.5,29.61s30.41-13.28,30.76-29.61
			C1265.59,109.25,1252.36,95.97,1235.74,95.97z M1234.63,148.25c-12.72,0-22.86-10.17-22.59-22.68
			c0.27-12.5,10.83-22.68,23.56-22.68s22.86,10.17,22.59,22.68C1257.92,138.08,1247.36,148.25,1234.63,148.25z"/>
	</g>
</g>
<g>
	<g class="st309">
		<path class="st25" d="M1287.56,101.49c7.23-13.55-2.09-28.68-20.77-33.71s-39.77,1.9-47,15.45c-3.68,6.9-3.06,14.2,0.89,20.38
			l-0.05,0.02l14.65,23.02l32.76-10.35l-0.01-0.01C1276.69,113.5,1283.9,108.35,1287.56,101.49z"/>
	</g>
	<g>
		<path class="st78" d="M1272.16,75.78c0-19.92-16.2-36.12-36.12-36.12c-19.92,0-36.12,16.2-36.12,36.12
			c0,10.14,4.21,19.31,10.97,25.87l-0.03,0.04l25.1,24.5l25.38-24.64l-0.01-0.01C1268,94.98,1272.16,85.86,1272.16,75.78z"/>
	</g>
	<g>
		<g>
			<g>
				<path class="st37" d="M1233.16,97.57c-0.84-0.93-1.26-2.12-1.26-3.56s0.42-2.62,1.26-3.53c0.84-0.91,1.9-1.37,3.2-1.37
					c1.3,0,2.37,0.46,3.2,1.37c0.84,0.91,1.26,2.09,1.26,3.53c0,1.41-0.42,2.58-1.26,3.53c-0.84,0.95-1.91,1.42-3.2,1.42
					C1235.07,98.97,1234,98.5,1233.16,97.57z M1233.52,84.92c-0.12-0.13-0.18-0.29-0.18-0.48l-0.87-24.61
					c0-0.46,0.21-0.68,0.62-0.68h7.28c0.41,0,0.62,0.23,0.62,0.68l-0.87,24.61c0,0.19-0.06,0.35-0.18,0.48
					c-0.12,0.13-0.27,0.2-0.44,0.2h-5.54C1233.79,85.12,1233.64,85.06,1233.52,84.92z"/>
			</g>
		</g>
	</g>
</g>
<g>
	<g>
		<path class="st1" d="M2411.21,134.87c-1.5,0.61-3.11,1.05-4.5,1.85c-14.45,8.32-28.85,16.75-43.31,25.06
			c-9.71,5.58-19.51,11.01-29.27,16.5c-4.41,2.48-6.37,6.14-4.54,9.42c6.1,10.94,12.35,21.8,18.71,32.6
			c0.5,0.85,2.56,1.64,3.43,1.29c5.76-2.32,11.67-4.47,17-7.58c12.16-7.09,22.02-16.7,29.53-28.72
			c8.71-13.93,13.2-29.07,13.84-46.53C2411.96,138.14,2411.59,136.51,2411.21,134.87z"/>
		<path class="st1" d="M2282.26,105.8c7.09,12.35,14.12,24.74,21.2,37.1c4.45,7.77,9.19,15.38,13.35,23.3
			c3.28,6.25,6.9,7.62,13,4.04c7.08-4.16,14.2-8.24,21.31-12.36c5.81-3.37,11.62-6.74,17.44-10.1c13.01-7.49,26-15.02,39.07-22.41
			c2.54-1.44,3.31-3.14,2.56-5.89c-1.14-4.16-2.09-8.36-3.11-12.55c-30.87-62.82-90.47-57.75-94.39-57.35c0-0.01,0-0.02,0-0.03
			c-3.67,0.57-7.41,0.88-11.01,1.76c-14.03,3.46-26.4,10.19-37.25,19.69c-0.59,0.52-0.87,2.23-0.48,2.92
			C2269.97,84.6,2276.16,95.17,2282.26,105.8z"/>
		<path class="st1" d="M2280.39,135.94c2.8-1.63,5.13-3.74,4.18-7.36c-0.4-1.52-1.68-2.8-2.5-4.23
			c-8.11-14.2-16.22-28.41-24.3-42.63c-1.16-2.04-2.34-1.86-3.61-0.22c-1.32,1.71-2.57,3.48-3.82,5.24
			c-7.06,9.87-11.7,20.79-14.03,32.7c-0.32,0.93-0.8,1.84-0.93,2.79c-1.58,11.56-1.79,23.1,0.88,34.54c0.3,1.28,1,2.48,1.52,3.71
			c1.34-0.7,2.68-1.41,4.03-2.11C2254.67,150.89,2267.54,143.43,2280.39,135.94z"/>
		<path class="st1" d="M2329.61,206.44c-4.16-7.28-8.3-14.58-12.5-21.84c-7.1-12.3-14.3-24.53-21.31-36.88
			c-2.7-4.75-5.63-6.05-10.39-3.37c-14.12,7.94-28.13,16.05-42.19,24.09c-2.42,1.38-2.4,3.25-1.31,5.51
			c5.19,10.7,11.92,20.21,20.62,28.43c16.8,15.85,36.84,23.47,60.88,24.45c3.84-0.44,8.87-1.02,13.9-1.61
			c2.13-0.25,2.42-1.18,1.33-3.03C2335.56,216.99,2332.61,211.7,2329.61,206.44z"/>
	</g>
	<ellipse class="st307" cx="2323.44" cy="139.4" rx="90.62" ry="88.89"/>
</g>
<g>
	<g>
		<path class="st1" d="M1954.85,134.87c-1.5,0.61-3.11,1.05-4.5,1.85c-14.45,8.32-28.85,16.75-43.31,25.06
			c-9.71,5.58-19.51,11.01-29.27,16.5c-4.41,2.48-6.37,6.14-4.54,9.42c6.1,10.94,12.35,21.8,18.71,32.6
			c0.5,0.85,2.56,1.64,3.43,1.29c5.76-2.32,11.67-4.47,17-7.58c12.16-7.09,22.02-16.7,29.53-28.72
			c8.71-13.93,13.2-29.07,13.84-46.53C1955.6,138.14,1955.22,136.51,1954.85,134.87z"/>
		<path class="st1" d="M1825.9,105.8c7.09,12.35,14.12,24.74,21.2,37.1c4.45,7.77,9.19,15.38,13.35,23.3c3.28,6.25,6.9,7.62,13,4.04
			c7.08-4.16,14.2-8.24,21.31-12.36c5.81-3.37,11.62-6.74,17.44-10.1c13.01-7.49,26-15.02,39.07-22.41
			c2.54-1.44,3.31-3.14,2.56-5.89c-1.14-4.16-2.09-8.36-3.11-12.55c-30.87-62.82-90.47-57.75-94.39-57.35c0-0.01,0-0.02,0-0.03
			c-3.67,0.57-7.41,0.88-11.01,1.76c-14.03,3.46-26.4,10.19-37.25,19.69c-0.59,0.52-0.87,2.23-0.48,2.92
			C1813.61,84.6,1819.8,95.17,1825.9,105.8z"/>
		<path class="st1" d="M1824.03,135.94c2.8-1.63,5.13-3.74,4.18-7.36c-0.4-1.52-1.68-2.8-2.5-4.23
			c-8.11-14.2-16.22-28.41-24.3-42.63c-1.16-2.04-2.34-1.86-3.61-0.22c-1.32,1.71-2.57,3.48-3.82,5.24
			c-7.06,9.87-11.7,20.79-14.03,32.7c-0.32,0.93-0.8,1.84-0.93,2.79c-1.58,11.56-1.79,23.1,0.88,34.54c0.3,1.28,1,2.48,1.52,3.71
			c1.34-0.7,2.68-1.41,4.03-2.11C1798.31,150.89,1811.18,143.43,1824.03,135.94z"/>
		<path class="st1" d="M1873.25,206.44c-4.16-7.28-8.3-14.58-12.5-21.84c-7.1-12.3-14.3-24.53-21.31-36.88
			c-2.7-4.75-5.63-6.05-10.39-3.37c-14.12,7.94-28.13,16.05-42.19,24.09c-2.42,1.38-2.4,3.25-1.31,5.51
			c5.19,10.7,11.92,20.21,20.62,28.43c16.8,15.85,36.84,23.47,60.88,24.45c3.84-0.44,8.87-1.02,13.9-1.61
			c2.13-0.25,2.42-1.18,1.33-3.03C1879.2,216.99,1876.25,211.7,1873.25,206.44z"/>
	</g>
	<ellipse class="st307" cx="1867.08" cy="139.4" rx="90.62" ry="88.89"/>
</g>
<g>
	
		<ellipse transform="matrix(0.9072 -0.4207 0.4207 0.9072 121.9226 803.8504)" class="st313" cx="1882.98" cy="125.57" rx="12.42" ry="12.08"/>
	<g>
		<path class="st78" d="M1883.95,79.91c-25.62,0-46.9,20.49-47.44,45.67c-0.53,25.18,19.87,45.66,45.5,45.66
			c25.62,0,46.91-20.48,47.44-45.66C1929.98,100.39,1909.57,79.91,1883.95,79.91z M1882.16,164.31c-21.73,0-39.05-17.38-38.59-38.73
			c0.45-21.36,18.5-38.74,40.24-38.74c21.74,0,39.05,17.38,38.59,38.74C1921.94,146.93,1903.89,164.31,1882.16,164.31z"/>
		<path class="st314" d="M1883.61,95.97c-16.61,0-30.41,13.28-30.76,29.61s12.89,29.61,29.5,29.61c16.61,0,30.41-13.28,30.76-29.61
			C1913.45,109.25,1900.22,95.97,1883.61,95.97z M1882.5,148.25c-12.72,0-22.86-10.17-22.59-22.68
			c0.27-12.5,10.83-22.68,23.56-22.68s22.86,10.17,22.59,22.68C1905.79,138.08,1895.22,148.25,1882.5,148.25z"/>
	</g>
</g>
<g>
	<g class="st309">
		<path class="st25" d="M1905.96,116.77c7.23-16.19-2.09-34.25-20.77-40.26c-18.69-6.01-39.77,2.27-47,18.45
			c-3.68,8.24-3.06,16.96,0.89,24.34l-0.05,0.02l14.65,27.49l32.76-12.37l-0.01-0.01C1895.09,131.11,1902.3,124.96,1905.96,116.77z"
			/>
	</g>
	<g>
		<path class="st78" d="M1872.97,70.98c0-23.79-16.2-43.14-36.12-43.14c-19.92,0-36.12,19.35-36.12,43.14
			c0,12.11,4.21,23.06,10.97,30.9l-0.03,0.04l25.1,29.27l25.38-29.43l-0.01-0.01C1868.81,93.9,1872.97,83.01,1872.97,70.98z"/>
	</g>
	<g>
		<g>
			<g>
				<path class="st37" d="M1833.96,97c-0.84-1.11-1.26-2.53-1.26-4.25s0.42-3.13,1.26-4.22c0.84-1.09,1.9-1.63,3.2-1.63
					c1.3,0,2.37,0.54,3.2,1.63c0.84,1.09,1.26,2.49,1.26,4.22c0,1.68-0.42,3.08-1.26,4.22c-0.84,1.13-1.91,1.7-3.2,1.7
					C1835.87,98.67,1834.8,98.11,1833.96,97z M1834.32,81.9c-0.12-0.16-0.18-0.35-0.18-0.58l-0.87-29.39c0-0.54,0.21-0.82,0.62-0.82
					h7.28c0.41,0,0.62,0.27,0.62,0.82l-0.87,29.39c0,0.23-0.06,0.42-0.18,0.58c-0.12,0.16-0.27,0.24-0.44,0.24h-5.54
					C1834.59,82.14,1834.44,82.06,1834.32,81.9z"/>
			</g>
		</g>
	</g>
</g>
<g>
	<g>
		<path class="st1" d="M1727.07,134.87c-1.5,0.61-3.11,1.05-4.5,1.85c-14.45,8.32-28.85,16.75-43.31,25.06
			c-9.71,5.58-19.51,11.01-29.27,16.5c-4.41,2.48-6.37,6.14-4.54,9.42c6.1,10.94,12.35,21.8,18.71,32.6
			c0.5,0.85,2.56,1.64,3.43,1.29c5.76-2.32,11.67-4.47,17-7.58c12.16-7.09,22.02-16.7,29.53-28.72
			c8.71-13.93,13.2-29.07,13.84-46.53C1727.82,138.14,1727.44,136.51,1727.07,134.87z"/>
		<path class="st1" d="M1598.11,105.8c7.09,12.35,14.12,24.74,21.2,37.1c4.45,7.77,9.19,15.38,13.35,23.3
			c3.28,6.25,6.9,7.62,13,4.04c7.08-4.16,14.2-8.24,21.31-12.36c5.81-3.37,11.62-6.74,17.44-10.1c13.01-7.49,26-15.02,39.07-22.41
			c2.54-1.44,3.31-3.14,2.56-5.89c-1.14-4.16-2.09-8.36-3.11-12.55c-30.87-62.82-90.47-57.75-94.39-57.35c0-0.01,0-0.02,0-0.03
			c-3.67,0.57-7.41,0.88-11.01,1.76c-14.03,3.46-26.4,10.19-37.25,19.69c-0.59,0.52-0.87,2.23-0.48,2.92
			C1585.83,84.6,1592.02,95.17,1598.11,105.8z"/>
		<path class="st1" d="M1596.25,135.94c2.8-1.63,5.13-3.74,4.18-7.36c-0.4-1.52-1.68-2.8-2.5-4.23
			c-8.11-14.2-16.22-28.41-24.3-42.63c-1.16-2.04-2.34-1.86-3.61-0.22c-1.32,1.71-2.57,3.48-3.82,5.24
			c-7.06,9.87-11.7,20.79-14.03,32.7c-0.32,0.93-0.8,1.84-0.93,2.79c-1.58,11.56-1.79,23.1,0.88,34.54c0.3,1.28,1,2.48,1.52,3.71
			c1.34-0.7,2.68-1.41,4.03-2.11C1570.53,150.89,1583.4,143.43,1596.25,135.94z"/>
		<path class="st1" d="M1645.46,206.44c-4.16-7.28-8.3-14.58-12.5-21.84c-7.1-12.3-14.3-24.53-21.31-36.88
			c-2.7-4.75-5.63-6.05-10.39-3.37c-14.12,7.94-28.13,16.05-42.19,24.09c-2.42,1.38-2.4,3.25-1.31,5.51
			c5.19,10.7,11.92,20.21,20.62,28.43c16.8,15.85,36.84,23.47,60.88,24.45c3.84-0.44,8.87-1.02,13.9-1.61
			c2.13-0.25,2.42-1.18,1.33-3.03C1651.41,216.99,1648.47,211.7,1645.46,206.44z"/>
	</g>
	<ellipse class="st307" cx="1639.3" cy="139.4" rx="90.62" ry="88.89"/>
</g>
<g>
	
		<ellipse transform="matrix(0.9072 -0.4207 0.4207 0.9072 100.7828 708.0189)" class="st78" cx="1655.2" cy="125.57" rx="12.42" ry="12.08"/>
	<g>
		<path class="st78" d="M1656.17,79.91c-25.62,0-46.9,20.49-47.44,45.67c-0.53,25.18,19.87,45.66,45.5,45.66
			c25.62,0,46.91-20.48,47.44-45.66C1702.2,100.39,1681.79,79.91,1656.17,79.91z M1654.37,164.31c-21.73,0-39.05-17.38-38.59-38.73
			c0.45-21.36,18.5-38.74,40.24-38.74c21.74,0,39.05,17.38,38.59,38.74C1694.16,146.93,1676.11,164.31,1654.37,164.31z"/>
		<path class="st78" d="M1655.83,95.97c-16.61,0-30.41,13.28-30.76,29.61c-0.35,16.33,12.89,29.61,29.5,29.61
			s30.41-13.28,30.76-29.61S1672.44,95.97,1655.83,95.97z M1654.71,148.25c-12.72,0-22.86-10.17-22.59-22.68
			c0.27-12.5,10.83-22.68,23.56-22.68s22.86,10.17,22.59,22.68C1678.01,138.08,1667.44,148.25,1654.71,148.25z"/>
	</g>
</g>
<g>
	<g class="st309">
		<path class="st25" d="M1707.64,106.97c7.23-10.6-2.09-22.42-20.77-26.36s-39.77,1.48-47,12.08c-3.68,5.4-3.06,11.11,0.89,15.93
			l-0.05,0.01l14.65,18l32.76-8.1l-0.01-0.01C1696.77,116.37,1703.98,112.34,1707.64,106.97z"/>
	</g>
	<g>
		<path class="st78" d="M1692.25,86.87c0-15.57-16.2-28.25-36.12-28.25c-19.92,0-36.12,12.67-36.12,28.25
			c0,7.93,4.21,15.1,10.97,20.23l-0.03,0.03l25.1,19.16l25.38-19.27l-0.01-0.01C1688.09,101.88,1692.25,94.75,1692.25,86.87z"/>
	</g>
	<g>
		<g>
			<g>
				<path class="st37" d="M1653.24,103.91c-0.84-0.73-1.26-1.66-1.26-2.78s0.42-2.05,1.26-2.76c0.84-0.71,1.9-1.07,3.2-1.07
					c1.3,0,2.37,0.36,3.2,1.07c0.84,0.71,1.26,1.63,1.26,2.76c0,1.1-0.42,2.02-1.26,2.76c-0.84,0.74-1.91,1.11-3.2,1.11
					C1655.15,105,1654.08,104.64,1653.24,103.91z M1653.6,94.02c-0.12-0.1-0.18-0.23-0.18-0.38l-0.87-19.24
					c0-0.36,0.21-0.53,0.62-0.53h7.28c0.41,0,0.62,0.18,0.62,0.53l-0.87,19.24c0,0.15-0.06,0.27-0.18,0.38
					c-0.12,0.1-0.27,0.16-0.44,0.16h-5.54C1653.87,94.18,1653.72,94.12,1653.6,94.02z"/>
			</g>
		</g>
	</g>
</g>
<g>
	<g>
		<path class="st1" d="M1522.47,134.87c-1.5,0.61-3.11,1.05-4.5,1.85c-14.45,8.32-28.85,16.75-43.31,25.06
			c-9.71,5.58-19.51,11.01-29.27,16.5c-4.41,2.48-6.37,6.14-4.54,9.42c6.1,10.94,12.35,21.8,18.71,32.6
			c0.5,0.85,2.56,1.64,3.43,1.29c5.76-2.32,11.67-4.47,17-7.58c12.16-7.09,22.02-16.7,29.53-28.72
			c8.71-13.93,13.2-29.07,13.84-46.53C1523.22,138.14,1522.85,136.51,1522.47,134.87z"/>
		<path class="st1" d="M1393.52,105.8c7.09,12.35,14.12,24.74,21.2,37.1c4.45,7.77,9.19,15.38,13.35,23.3
			c3.28,6.25,6.9,7.62,13,4.04c7.08-4.16,14.2-8.24,21.31-12.36c5.81-3.37,11.62-6.74,17.44-10.1c13.01-7.49,26-15.02,39.07-22.41
			c2.54-1.44,3.31-3.14,2.56-5.89c-1.14-4.16-2.09-8.36-3.11-12.55c-30.87-62.82-90.47-57.75-94.39-57.35c0-0.01,0-0.02,0-0.03
			c-3.67,0.57-7.41,0.88-11.01,1.76c-14.03,3.46-26.4,10.19-37.25,19.69c-0.59,0.52-0.87,2.23-0.48,2.92
			C1381.24,84.6,1387.42,95.17,1393.52,105.8z"/>
		<path class="st1" d="M1391.66,135.94c2.8-1.63,5.13-3.74,4.18-7.36c-0.4-1.52-1.68-2.8-2.5-4.23
			c-8.11-14.2-16.22-28.41-24.3-42.63c-1.16-2.04-2.34-1.86-3.61-0.22c-1.32,1.71-2.57,3.48-3.82,5.24
			c-7.06,9.87-11.7,20.79-14.03,32.7c-0.32,0.93-0.8,1.84-0.93,2.79c-1.58,11.56-1.79,23.1,0.88,34.54c0.3,1.28,1,2.48,1.52,3.71
			c1.34-0.7,2.68-1.41,4.03-2.11C1365.94,150.89,1378.81,143.43,1391.66,135.94z"/>
		<path class="st1" d="M1440.87,206.44c-4.16-7.28-8.3-14.58-12.5-21.84c-7.1-12.3-14.3-24.53-21.31-36.88
			c-2.7-4.75-5.63-6.05-10.39-3.37c-14.12,7.94-28.13,16.05-42.19,24.09c-2.42,1.38-2.4,3.25-1.31,5.51
			c5.19,10.7,11.92,20.21,20.62,28.43c16.8,15.85,36.84,23.47,60.88,24.45c3.84-0.44,8.87-1.02,13.9-1.61
			c2.13-0.25,2.42-1.18,1.33-3.03C1446.82,216.99,1443.88,211.7,1440.87,206.44z"/>
	</g>
	<ellipse class="st307" cx="1434.71" cy="139.4" rx="90.62" ry="88.89"/>
</g>
<g>
	<g>
		<path class="st1" d="M2184.51,134.87c-1.5,0.61-3.11,1.05-4.5,1.85c-14.45,8.32-28.85,16.75-43.31,25.06
			c-9.71,5.58-19.51,11.01-29.27,16.5c-4.41,2.48-6.37,6.14-4.54,9.42c6.1,10.94,12.35,21.8,18.71,32.6
			c0.5,0.85,2.56,1.64,3.43,1.29c5.76-2.32,11.67-4.47,17-7.58c12.16-7.09,22.02-16.7,29.53-28.72
			c8.71-13.93,13.2-29.07,13.84-46.53C2185.26,138.14,2184.88,136.51,2184.51,134.87z"/>
		<path class="st1" d="M2055.55,105.8c7.09,12.35,14.12,24.74,21.2,37.1c4.45,7.77,9.19,15.38,13.35,23.3
			c3.28,6.25,6.9,7.62,13,4.04c7.08-4.16,14.2-8.24,21.31-12.36c5.81-3.37,11.62-6.74,17.44-10.1c13.01-7.49,26-15.02,39.07-22.41
			c2.54-1.44,3.31-3.14,2.56-5.89c-1.14-4.16-2.09-8.36-3.11-12.55c-30.87-62.82-90.47-57.75-94.39-57.35c0-0.01,0-0.02,0-0.03
			c-3.67,0.57-7.41,0.88-11.01,1.76c-14.03,3.46-26.4,10.19-37.25,19.69c-0.59,0.52-0.87,2.23-0.48,2.92
			C2043.27,84.6,2049.46,95.17,2055.55,105.8z"/>
		<path class="st1" d="M2053.69,135.94c2.8-1.63,5.13-3.74,4.18-7.36c-0.4-1.52-1.68-2.8-2.5-4.23
			c-8.11-14.2-16.22-28.41-24.3-42.63c-1.16-2.04-2.34-1.86-3.61-0.22c-1.32,1.71-2.57,3.48-3.82,5.24
			c-7.06,9.87-11.7,20.79-14.03,32.7c-0.32,0.93-0.8,1.84-0.93,2.79c-1.58,11.56-1.79,23.1,0.88,34.54c0.3,1.28,1,2.48,1.52,3.71
			c1.34-0.7,2.68-1.41,4.03-2.11C2027.97,150.89,2040.84,143.43,2053.69,135.94z"/>
		<path class="st1" d="M2102.9,206.44c-4.16-7.28-8.3-14.58-12.5-21.84c-7.1-12.3-14.3-24.53-21.31-36.88
			c-2.7-4.75-5.63-6.05-10.39-3.37c-14.12,7.94-28.13,16.05-42.19,24.09c-2.42,1.38-2.4,3.25-1.31,5.51
			c5.19,10.7,11.92,20.21,20.62,28.43c16.8,15.85,36.84,23.47,60.88,24.45c3.84-0.44,8.87-1.02,13.9-1.61
			c2.13-0.25,2.42-1.18,1.33-3.03C2108.85,216.99,2105.91,211.7,2102.9,206.44z"/>
	</g>
	<ellipse class="st307" cx="2096.74" cy="139.4" rx="90.62" ry="88.89"/>
</g>
<g>
	<g>
		<path class="st315" d="M2113.61,79.91c-25.62,0-46.9,20.49-47.44,45.67s19.87,45.66,45.5,45.66c25.62,0,46.91-20.48,47.44-45.66
			C2159.64,100.39,2139.23,79.91,2113.61,79.91z M2111.81,164.31c-21.73,0-39.05-17.38-38.59-38.73
			c0.45-21.36,18.5-38.74,40.24-38.74c21.74,0,39.05,17.38,38.59,38.74C2151.6,146.93,2133.55,164.31,2111.81,164.31z"/>
		<path class="st316" d="M2113.27,95.97c-16.61,0-30.41,13.28-30.76,29.61s12.89,29.61,29.5,29.61s30.41-13.28,30.76-29.61
			C2143.11,109.25,2129.88,95.97,2113.27,95.97z M2112.15,148.25c-12.72,0-22.86-10.17-22.59-22.68
			c0.27-12.5,10.83-22.68,23.56-22.68c12.72,0,22.86,10.17,22.59,22.68C2135.45,138.08,2124.88,148.25,2112.15,148.25z"/>
	</g>
</g>
<g>
	
		<ellipse transform="matrix(0.9072 -0.4207 0.4207 0.9072 81.7952 621.944)" class="st78" cx="1450.6" cy="125.57" rx="12.42" ry="12.08"/>
	<g>
		<path class="st78" d="M1451.57,79.91c-25.62,0-46.9,20.49-47.44,45.67c-0.53,25.18,19.87,45.66,45.5,45.66
			c25.62,0,46.91-20.48,47.44-45.66C1497.61,100.39,1477.2,79.91,1451.57,79.91z M1449.78,164.31c-21.73,0-39.05-17.38-38.59-38.73
			c0.45-21.36,18.5-38.74,40.24-38.74c21.74,0,39.05,17.38,38.59,38.74C1489.57,146.93,1471.52,164.31,1449.78,164.31z"/>
		<path class="st78" d="M1451.23,95.97c-16.61,0-30.41,13.28-30.76,29.61s12.89,29.61,29.5,29.61s30.41-13.28,30.76-29.61
			C1481.08,109.25,1467.85,95.97,1451.23,95.97z M1450.12,148.25c-12.72,0-22.86-10.17-22.59-22.68
			c0.27-12.5,10.83-22.68,23.56-22.68s22.86,10.17,22.59,22.68C1473.41,138.08,1462.84,148.25,1450.12,148.25z"/>
	</g>
</g>
<g class="st309">
	<path class="st25" d="M1512.97,94.76c8.77-16.43-2.53-34.76-25.18-40.86s-48.21,2.3-56.97,18.73c-4.46,8.36-3.7,17.21,1.08,24.7
		l-0.06,0.02l17.76,27.9l39.71-12.55l-0.01-0.01C1499.79,109.31,1508.53,103.07,1512.97,94.76z"/>
</g>
<g>
	<path class="st78" d="M1494.31,63.59c0-24.14-19.64-43.78-43.78-43.78c-24.14,0-43.78,19.64-43.78,43.78
		c0,12.29,5.11,23.4,13.29,31.36l-0.04,0.04l30.42,29.7l30.77-29.87l-0.02-0.02C1489.26,86.86,1494.31,75.81,1494.31,63.59z"/>
</g>
<g>
	<g>
		<g>
			<path class="st37" d="M1447.03,90.01c-1.02-1.13-1.52-2.57-1.52-4.32c0-1.75,0.51-3.18,1.52-4.28c1.01-1.11,2.31-1.66,3.88-1.66
				c1.57,0,2.87,0.55,3.88,1.66c1.01,1.11,1.52,2.53,1.52,4.28c0,1.7-0.51,3.13-1.52,4.28c-1.02,1.15-2.31,1.73-3.88,1.73
				C1449.34,91.7,1448.05,91.13,1447.03,90.01z M1447.47,74.68c-0.15-0.16-0.22-0.36-0.22-0.59l-1.06-29.83
				c0-0.55,0.25-0.83,0.75-0.83h8.82c0.5,0,0.75,0.28,0.75,0.83l-1.06,29.83c0,0.23-0.07,0.43-0.22,0.59
				c-0.15,0.16-0.32,0.24-0.53,0.24H1448C1447.79,74.92,1447.61,74.84,1447.47,74.68z"/>
		</g>
	</g>
</g>
<g>
	<path class="st78" d="M607.28,81.02c0-19.69-16.02-35.72-35.72-35.72c-19.69,0-35.72,16.02-35.72,35.72
		c0,10.03,4.17,19.09,10.84,25.58l-0.03,0.04l24.82,24.23l25.1-24.37l-0.01-0.01C603.17,100,607.28,90.99,607.28,81.02z"/>
</g>
<g>
	<g>
		<path class="st1" d="M864.51,134.87c-1.5,0.61-3.11,1.05-4.5,1.85c-14.45,8.32-28.85,16.75-43.31,25.06
			c-9.71,5.58-19.51,11.01-29.27,16.5c-4.41,2.48-6.37,6.14-4.54,9.42c6.1,10.94,12.35,21.8,18.71,32.6
			c0.5,0.85,2.56,1.64,3.43,1.29c5.76-2.32,11.67-4.47,17-7.58c12.16-7.09,22.02-16.7,29.53-28.72
			c8.71-13.93,13.2-29.07,13.84-46.53C865.26,138.14,864.89,136.51,864.51,134.87z"/>
		<path class="st1" d="M735.56,105.8c7.09,12.35,14.12,24.74,21.2,37.1c4.45,7.77,9.19,15.38,13.35,23.3c3.28,6.25,6.9,7.62,13,4.04
			c7.08-4.16,14.2-8.24,21.31-12.36c5.81-3.37,11.62-6.74,17.44-10.1c13.01-7.49,26-15.02,39.07-22.41
			c2.54-1.44,3.31-3.14,2.56-5.89c-1.14-4.16-2.09-8.36-3.11-12.55c-30.87-62.82-90.47-57.75-94.39-57.35c0-0.01,0-0.02,0-0.03
			c-3.67,0.57-7.41,0.88-11.01,1.76c-14.03,3.46-26.4,10.19-37.25,19.69c-0.59,0.52-0.87,2.23-0.48,2.92
			C723.28,84.6,729.46,95.17,735.56,105.8z"/>
		<path class="st1" d="M733.7,135.94c2.8-1.63,5.13-3.74,4.18-7.36c-0.4-1.52-1.68-2.8-2.5-4.23c-8.11-14.2-16.22-28.41-24.3-42.63
			c-1.16-2.04-2.34-1.86-3.61-0.22c-1.32,1.71-2.57,3.48-3.82,5.24c-7.06,9.87-11.7,20.79-14.03,32.7c-0.32,0.93-0.8,1.84-0.93,2.79
			c-1.58,11.56-1.79,23.1,0.88,34.54c0.3,1.28,1,2.48,1.52,3.71c1.34-0.7,2.68-1.41,4.03-2.11
			C707.98,150.89,720.85,143.43,733.7,135.94z"/>
		<path class="st1" d="M782.91,206.44c-4.16-7.28-8.3-14.58-12.5-21.84c-7.1-12.3-14.3-24.53-21.31-36.88
			c-2.7-4.75-5.63-6.05-10.39-3.37c-14.12,7.94-28.13,16.05-42.19,24.09c-2.42,1.38-2.4,3.25-1.31,5.51
			c5.19,10.7,11.92,20.21,20.62,28.43c16.8,15.85,36.84,23.47,60.88,24.45c3.84-0.44,8.87-1.02,13.9-1.61
			c2.13-0.25,2.42-1.18,1.33-3.03C788.86,216.99,785.92,211.7,782.91,206.44z"/>
	</g>
	<ellipse class="st307" cx="776.75" cy="139.4" rx="90.62" ry="88.89"/>
</g>
<g>
	<path class="st25" d="M374.04,35.33c0-18.48-11.74-33.51-26.17-33.51S321.7,16.85,321.7,35.33c0,9.41,3.05,17.91,7.95,24
		l-0.03,0.03l18.18,22.73l18.39-22.86l-0.01-0.01C371.03,53.14,374.04,44.68,374.04,35.33z"/>
</g>
<g class="st196">
	<path class="st25" d="M417.47,90.32c11.55-9.89,14.03-23.42,5.54-30.17c-8.49-6.75-24.79-4.2-36.34,5.69
		c-5.88,5.03-9.39,11.01-10.32,16.56l-0.04,0.01l-3.5,20.67l25.11-3.63l0-0.01C404.57,98.44,411.63,95.32,417.47,90.32z"/>
</g>
<ellipse transform="matrix(0.9072 -0.4207 0.4207 0.9072 20.9913 346.3062)" class="st78" cx="795.44" cy="125.57" rx="12.42" ry="12.08"/>
<g>
	<path class="st78" d="M796.07,95.97c-16.61,0-30.41,13.28-30.76,29.61s12.89,29.61,29.5,29.61s30.41-13.28,30.76-29.61
		S812.68,95.97,796.07,95.97z M794.96,148.25c-12.72,0-22.86-10.17-22.59-22.68c0.27-12.5,10.83-22.68,23.56-22.68
		c12.72,0,22.86,10.17,22.59,22.68C818.25,138.08,807.68,148.25,794.96,148.25z"/>
</g>
<g class="st309">
	<path class="st25" d="M846.74,104.87c7.15-13.4-2.06-28.35-20.54-33.33c-18.48-4.98-39.32,1.88-46.48,15.28
		c-3.64,6.82-3.02,14.04,0.88,20.15l-0.05,0.02l14.48,22.76l32.39-10.24l-0.01-0.01C835.99,116.74,843.12,111.65,846.74,104.87z"/>
</g>
<g>
	<path class="st78" d="M837.51,70.4c0-23.05-18.75-41.8-41.8-41.8s-41.8,18.75-41.8,41.8c0,11.73,4.88,22.34,12.69,29.94l-0.04,0.04
		l29.04,28.36l29.37-28.52l-0.01-0.01C832.7,92.62,837.51,82.06,837.51,70.4z"/>
</g>
<g>
	<g>
		<g>
			<path class="st37" d="M791.76,95.65c-0.95-1.05-1.42-2.39-1.42-4.02s0.47-2.96,1.42-3.99c0.95-1.03,2.15-1.55,3.62-1.55
				c1.47,0,2.67,0.52,3.62,1.55c0.95,1.03,1.42,2.36,1.42,3.99c0,1.59-0.47,2.92-1.42,3.99c-0.95,1.07-2.15,1.61-3.62,1.61
				C793.91,97.23,792.7,96.7,791.76,95.65z M792.16,81.36c-0.14-0.15-0.2-0.33-0.2-0.55L790.97,53c0-0.52,0.23-0.77,0.7-0.77h8.23
				c0.46,0,0.7,0.26,0.7,0.77l-0.98,27.81c0,0.22-0.07,0.4-0.2,0.55c-0.14,0.15-0.3,0.23-0.49,0.23h-6.26
				C792.46,81.58,792.3,81.51,792.16,81.36z"/>
		</g>
	</g>
</g>
<g>
	<g>
		<path class="st1" d="M2611.04,134.87c-1.5,0.61-3.11,1.05-4.5,1.85c-14.45,8.32-28.85,16.75-43.31,25.06
			c-9.71,5.58-19.51,11.01-29.27,16.5c-4.41,2.48-6.37,6.14-4.54,9.42c6.1,10.94,12.35,21.8,18.71,32.6
			c0.5,0.85,2.56,1.64,3.43,1.29c5.76-2.32,11.67-4.47,17-7.58c12.16-7.09,22.02-16.7,29.53-28.72
			c8.71-13.93,13.2-29.07,13.84-46.53C2611.79,138.14,2611.42,136.51,2611.04,134.87z"/>
		<path class="st1" d="M2482.09,105.8c7.09,12.35,14.12,24.74,21.2,37.1c4.45,7.77,9.19,15.38,13.35,23.3
			c3.28,6.25,6.9,7.62,13,4.04c7.08-4.16,14.2-8.24,21.31-12.36c5.81-3.37,11.62-6.74,17.44-10.1c13.01-7.49,26-15.02,39.07-22.41
			c2.54-1.44,3.31-3.14,2.56-5.89c-1.14-4.16-2.09-8.36-3.11-12.55c-30.87-62.82-90.47-57.75-94.39-57.35c0-0.01,0-0.02,0-0.03
			c-3.67,0.57-7.41,0.88-11.01,1.76c-14.03,3.46-26.4,10.19-37.25,19.69c-0.59,0.52-0.87,2.23-0.48,2.92
			C2469.8,84.6,2475.99,95.17,2482.09,105.8z"/>
		<path class="st1" d="M2480.22,135.94c2.8-1.63,5.13-3.74,4.18-7.36c-0.4-1.52-1.68-2.8-2.5-4.23
			c-8.11-14.2-16.22-28.41-24.3-42.63c-1.16-2.04-2.34-1.86-3.61-0.22c-1.32,1.71-2.57,3.48-3.82,5.24
			c-7.06,9.87-11.7,20.79-14.03,32.7c-0.32,0.93-0.8,1.84-0.93,2.79c-1.58,11.56-1.79,23.1,0.88,34.54c0.3,1.28,1,2.48,1.52,3.71
			c1.34-0.7,2.68-1.41,4.03-2.11C2454.5,150.89,2467.37,143.43,2480.22,135.94z"/>
		<path class="st1" d="M2529.44,206.44c-4.16-7.28-8.3-14.58-12.5-21.84c-7.1-12.3-14.3-24.53-21.31-36.88
			c-2.7-4.75-5.63-6.05-10.39-3.37c-14.12,7.94-28.13,16.05-42.19,24.09c-2.42,1.38-2.4,3.25-1.31,5.51
			c5.19,10.7,11.92,20.21,20.62,28.43c16.8,15.85,36.84,23.47,60.88,24.45c3.84-0.44,8.87-1.02,13.9-1.61
			c2.13-0.25,2.42-1.18,1.33-3.03C2535.39,216.99,2532.44,211.7,2529.44,206.44z"/>
	</g>
	<ellipse class="st307" cx="2523.27" cy="139.4" rx="90.62" ry="88.89"/>
</g>
<g>
	<g>
		<path class="st1" d="M2827.36,134.87c-1.5,0.61-3.11,1.05-4.5,1.85c-14.45,8.32-28.85,16.75-43.31,25.06
			c-9.71,5.58-19.51,11.01-29.27,16.5c-4.41,2.48-6.37,6.14-4.54,9.42c6.1,10.94,12.35,21.8,18.71,32.6
			c0.5,0.85,2.56,1.64,3.43,1.29c5.76-2.32,11.67-4.47,17-7.58c12.16-7.09,22.02-16.7,29.53-28.72
			c8.71-13.93,13.2-29.07,13.84-46.53C2828.11,138.14,2827.73,136.51,2827.36,134.87z"/>
		<path class="st1" d="M2698.41,105.8c7.09,12.35,14.12,24.74,21.2,37.1c4.45,7.77,9.19,15.38,13.35,23.3
			c3.28,6.25,6.9,7.62,13,4.04c7.08-4.16,14.2-8.24,21.31-12.36c5.81-3.37,11.62-6.74,17.44-10.1c13.01-7.49,26-15.02,39.07-22.41
			c2.54-1.44,3.31-3.14,2.56-5.89c-1.14-4.16-2.09-8.36-3.11-12.55c-30.87-62.82-90.47-57.75-94.39-57.35c0-0.01,0-0.02,0-0.03
			c-3.67,0.57-7.41,0.88-11.01,1.76c-14.03,3.46-26.4,10.19-37.25,19.69c-0.59,0.52-0.87,2.23-0.48,2.92
			C2686.12,84.6,2692.31,95.17,2698.41,105.8z"/>
		<path class="st1" d="M2696.54,135.94c2.8-1.63,5.13-3.74,4.18-7.36c-0.4-1.52-1.68-2.8-2.5-4.23
			c-8.11-14.2-16.22-28.41-24.3-42.63c-1.16-2.04-2.34-1.86-3.61-0.22c-1.32,1.71-2.57,3.48-3.82,5.24
			c-7.06,9.87-11.7,20.79-14.03,32.7c-0.32,0.93-0.8,1.84-0.93,2.79c-1.58,11.56-1.79,23.1,0.88,34.54c0.3,1.28,1,2.48,1.52,3.71
			c1.34-0.7,2.68-1.41,4.03-2.11C2670.82,150.89,2683.69,143.43,2696.54,135.94z"/>
		<path class="st1" d="M2745.76,206.44c-4.16-7.28-8.3-14.58-12.5-21.84c-7.1-12.3-14.3-24.53-21.31-36.88
			c-2.7-4.75-5.63-6.05-10.39-3.37c-14.12,7.94-28.13,16.05-42.19,24.09c-2.42,1.38-2.4,3.25-1.31,5.51
			c5.19,10.7,11.92,20.21,20.62,28.43c16.8,15.85,36.84,23.47,60.88,24.45c3.84-0.44,8.87-1.02,13.9-1.61
			c2.13-0.25,2.42-1.18,1.33-3.03C2751.71,216.99,2748.76,211.7,2745.76,206.44z"/>
	</g>
	<ellipse class="st307" cx="2739.59" cy="139.4" rx="90.62" ry="88.89"/>
</g>
<g>
	<g>
		<path class="st1" d="M3053.64,134.87c-1.5,0.61-3.11,1.05-4.5,1.85c-14.45,8.32-28.85,16.75-43.31,25.06
			c-9.71,5.58-19.51,11.01-29.27,16.5c-4.41,2.48-6.37,6.14-4.54,9.42c6.1,10.94,12.35,21.8,18.71,32.6
			c0.5,0.85,2.56,1.64,3.43,1.29c5.76-2.32,11.67-4.47,17-7.58c12.16-7.09,22.02-16.7,29.53-28.72
			c8.71-13.93,13.2-29.07,13.84-46.53C3054.39,138.14,3054.02,136.51,3053.64,134.87z"/>
		<path class="st1" d="M2924.69,105.8c7.09,12.35,14.12,24.74,21.2,37.1c4.45,7.77,9.19,15.38,13.35,23.3
			c3.28,6.25,6.9,7.62,13,4.04c7.08-4.16,14.2-8.24,21.31-12.36c5.81-3.37,11.62-6.74,17.44-10.1c13.01-7.49,26-15.02,39.07-22.41
			c2.54-1.44,3.31-3.14,2.56-5.89c-1.14-4.16-2.09-8.36-3.11-12.55c-30.87-62.82-90.47-57.75-94.39-57.35c0-0.01,0-0.02,0-0.03
			c-3.67,0.57-7.41,0.88-11.01,1.76c-14.03,3.46-26.4,10.19-37.25,19.69c-0.59,0.52-0.87,2.23-0.48,2.92
			C2912.4,84.6,2918.59,95.17,2924.69,105.8z"/>
		<path class="st1" d="M2922.82,135.94c2.8-1.63,5.13-3.74,4.18-7.36c-0.4-1.52-1.68-2.8-2.5-4.23
			c-8.11-14.2-16.22-28.41-24.3-42.63c-1.16-2.04-2.34-1.86-3.61-0.22c-1.32,1.71-2.57,3.48-3.82,5.24
			c-7.06,9.87-11.7,20.79-14.03,32.7c-0.32,0.93-0.8,1.84-0.93,2.79c-1.58,11.56-1.79,23.1,0.88,34.54c0.3,1.28,1,2.48,1.52,3.71
			c1.34-0.7,2.68-1.41,4.03-2.11C2897.1,150.89,2909.97,143.43,2922.82,135.94z"/>
		<path class="st1" d="M2972.04,206.44c-4.16-7.28-8.3-14.58-12.5-21.84c-7.1-12.3-14.3-24.53-21.31-36.88
			c-2.7-4.75-5.63-6.05-10.39-3.37c-14.12,7.94-28.13,16.05-42.19,24.09c-2.42,1.38-2.4,3.25-1.31,5.51
			c5.19,10.7,11.92,20.21,20.62,28.43c16.8,15.85,36.84,23.47,60.88,24.45c3.84-0.44,8.87-1.02,13.9-1.61
			c2.13-0.25,2.42-1.18,1.33-3.03C2977.99,216.99,2975.04,211.7,2972.04,206.44z"/>
	</g>
	<ellipse class="st307" cx="2965.87" cy="139.4" rx="90.62" ry="88.89"/>
</g>
<g class="st309">
	<path class="st25" d="M2989.02,160.22c10.48-9.98,10.61-23.87,0.29-30.97c-10.32-7.09-27.25-4.74-37.73,5.24
		c-5.34,5.08-7.98,11.18-7.93,16.87l-0.04,0.01l0.11,21.22l26.13-3.31l0-0.01C2976.76,168.36,2983.71,165.28,2989.02,160.22z"/>
</g>
<g>
	<g>
		<path class="st21" d="M2974.44,51.64c0-26.85-16.2-48.7-36.12-48.7c-19.92,0-36.12,21.85-36.12,48.7
			c0,13.67,4.22,26.03,10.97,34.88l-0.03,0.05l25.1,33.04l25.38-33.22l-0.01-0.02C2970.28,77.52,2974.44,65.22,2974.44,51.64z"/>
	</g>
	<g>
		<polygon class="st37" points="2935.4,74.95 2925.1,60.14 2930.44,53.39 2935.31,60.39 2952.3,35.09 2957.72,41.71 		"/>
	</g>
</g>
<ellipse transform="matrix(0.9967 -0.081 0.081 0.9967 -4.6052 238.2916)" class="st308" cx="2935.79" cy="175.93" rx="6.04" ry="4.83"/>
<g>
	<circle class="st131" cx="492.62" cy="123.4" r="12"/>
	<circle class="st131" cx="537.67" cy="200.23" r="12"/>
	<circle class="st131" cx="516.74" cy="192.62" r="6.5"/>
</g>
<g>
	<circle class="st131" cx="713.46" cy="123.4" r="12"/>
	<circle class="st131" cx="758.51" cy="200.23" r="12"/>
	<circle class="st131" cx="737.59" cy="192.62" r="6.5"/>
</g>
<g>
	<circle class="st131" cx="932.71" cy="123.4" r="12"/>
	<circle class="st131" cx="977.76" cy="200.23" r="12"/>
	<circle class="st131" cx="956.83" cy="192.62" r="6.5"/>
</g>
<g>
	<circle class="st131" cx="1154.35" cy="123.4" r="12"/>
	<circle class="st131" cx="1199.4" cy="200.23" r="12"/>
	<circle class="st131" cx="1178.47" cy="192.62" r="6.5"/>
</g>
<g>
	<circle class="st131" cx="1370.39" cy="123.4" r="12"/>
	<circle class="st131" cx="1415.44" cy="200.23" r="12"/>
	<circle class="st131" cx="1394.52" cy="192.62" r="6.5"/>
</g>
<g>
	<circle class="st131" cx="1576.84" cy="123.4" r="12"/>
	<circle class="st131" cx="1621.88" cy="200.23" r="12"/>
	<circle class="st131" cx="1600.96" cy="192.62" r="6.5"/>
</g>
<g>
	<circle class="st131" cx="1804.88" cy="123.4" r="12"/>
	<circle class="st131" cx="1849.93" cy="200.23" r="12"/>
	<circle class="st131" cx="1829" cy="192.62" r="6.5"/>
</g>
<g>
	<circle class="st131" cx="2033.73" cy="123.4" r="12"/>
	<circle class="st131" cx="2078.78" cy="200.23" r="12"/>
	<circle class="st131" cx="2057.85" cy="192.62" r="6.5"/>
</g>
<g>
	<circle class="st131" cx="2258.57" cy="123.4" r="12"/>
	<circle class="st131" cx="2303.62" cy="200.23" r="12"/>
	<circle class="st131" cx="2282.69" cy="192.62" r="6.5"/>
</g>
<g>
	<circle class="st131" cx="2456.21" cy="123.4" r="12"/>
	<circle class="st131" cx="2501.26" cy="200.23" r="12"/>
	<circle class="st131" cx="2480.33" cy="192.62" r="6.5"/>
</g>
<g>
	<circle class="st131" cx="2673.86" cy="123.4" r="12"/>
	<circle class="st131" cx="2718.9" cy="200.23" r="12"/>
	<circle class="st131" cx="2697.98" cy="192.62" r="6.5"/>
</g>
<g>
	<circle class="st131" cx="2901.9" cy="123.4" r="12"/>
	<circle class="st131" cx="2946.95" cy="200.23" r="12"/>
	<circle class="st131" cx="2926.02" cy="192.62" r="6.5"/>
</g>
<circle class="st131" cx="270.97" cy="123.4" r="12"/>
<circle class="st131" cx="316.02" cy="200.23" r="12"/>
<circle class="st131" cx="295.1" cy="192.62" r="6.5"/>
<circle class="st131" cx="64.53" cy="123.4" r="12"/>
<circle class="st131" cx="109.58" cy="200.23" r="12"/>
<circle class="st131" cx="88.66" cy="192.62" r="6.5"/>
<g>
	<g class="st309">
		<path class="st25" d="M2769.65,146.52c7.23-16.22-2.08-34.31-20.77-40.33c-18.69-6.02-39.77,2.27-47,18.49
			c-3.68,8.26-3.06,16.99,0.89,24.38l-0.05,0.02l14.65,27.54l32.76-12.39l-0.01-0.01C2758.77,160.89,2765.99,154.72,2769.65,146.52z
			"/>
	</g>
	<g>
		<path class="st21" d="M2748.16,107.93c0-23.83-16.2-43.21-36.12-43.21c-19.92,0-36.12,19.39-36.12,43.21
			c0,12.13,4.22,23.1,10.97,30.95l-0.03,0.04l25.1,29.32l25.38-29.48l-0.01-0.01C2744,130.89,2748.16,119.99,2748.16,107.93z"/>
	</g>
</g>
<g>
	<polygon class="st37" points="2709.12,128.62 2698.82,115.47 2704.16,109.49 2709.02,115.7 2726.02,93.24 2731.44,99.12 	"/>
</g>
<g>
	<g>
		<g class="st309">
			<path class="st25" d="M2547.25,161.38c7.22-11.48-2.11-24.27-20.8-28.51s-39.77,1.64-46.99,13.12
				c-3.68,5.84-3.04,12.02,0.91,17.25l-0.05,0.01l14.67,19.47l32.75-8.79l-0.01-0.01C2536.39,171.55,2543.6,167.19,2547.25,161.38z"
				/>
		</g>
		<g>
			<path class="st21" d="M2531.83,139.63c-0.02-16.86-16.24-30.56-36.16-30.54c-19.92,0.02-36.11,13.74-36.09,30.6
				c0.01,8.58,4.23,16.34,10.99,21.89l-0.03,0.03l25.12,20.72l25.36-20.88l-0.01-0.01C2527.69,155.88,2531.84,148.16,2531.83,139.63
				z"/>
		</g>
	</g>
	<g>
		<polygon class="st37" points="2492.81,154.3 2482.5,145.01 2487.83,140.77 2492.7,145.16 2509.68,129.26 2515.11,133.41 		"/>
	</g>
</g>
<g>
	<g class="st309">
		<path class="st25" d="M2347.41,157.55c7.23-13.55-2.09-28.68-20.77-33.71c-18.69-5.03-39.77,1.9-47,15.45
			c-3.68,6.9-3.06,14.2,0.89,20.38l-0.05,0.02l14.65,23.02l32.76-10.35l-0.01-0.01C2336.53,169.56,2343.75,164.4,2347.41,157.55z"/>
	</g>
	<g>
		<path class="st21" d="M2332.01,131.84c0-19.92-16.2-36.12-36.12-36.12s-36.12,16.2-36.12,36.12c0,10.14,4.22,19.31,10.97,25.87
			l-0.03,0.04l25.1,24.5l25.38-24.64l-0.01-0.01C2327.85,151.03,2332.01,141.92,2332.01,131.84z"/>
	</g>
</g>
<g>
	<polygon class="st37" points="2292.97,149.13 2282.67,138.14 2288.01,133.14 2292.88,138.33 2309.87,119.56 2315.29,124.47 	"/>
</g>
<g>
	<g class="st309">
		<path class="st25" d="M2117.04,160c7.23-10.79-2.08-22.83-20.77-26.83c-18.69-4.01-39.77,1.51-47,12.3
			c-3.68,5.49-3.06,11.31,0.89,16.22l-0.05,0.01l14.65,18.32l32.76-8.24l-0.01-0.01C2106.16,169.57,2113.38,165.46,2117.04,160z"/>
	</g>
	<g>
		<path class="st78" d="M2101.64,139.54c0-15.85-16.2-28.75-36.12-28.75c-19.92,0-36.12,12.9-36.12,28.75
			c0,8.07,4.22,15.37,10.97,20.59l-0.03,0.03l25.1,19.51l25.38-19.62l-0.01-0.01C2097.48,154.82,2101.64,147.56,2101.64,139.54z"/>
	</g>
	<g>
		<g>
			<g>
				<path class="st37" d="M2062.64,156.89c-0.84-0.74-1.26-1.69-1.26-2.83s0.42-2.09,1.26-2.81c0.84-0.73,1.91-1.09,3.2-1.09
					c1.3,0,2.37,0.36,3.2,1.09c0.84,0.73,1.26,1.66,1.26,2.81c0,1.12-0.42,2.06-1.26,2.81c-0.84,0.76-1.91,1.13-3.2,1.13
					C2064.54,158,2063.47,157.63,2062.64,156.89z M2063,146.82c-0.12-0.11-0.18-0.23-0.18-0.39l-0.87-19.59
					c0-0.36,0.21-0.54,0.62-0.54h7.28c0.41,0,0.62,0.18,0.62,0.54l-0.87,19.59c0,0.15-0.06,0.28-0.18,0.39
					c-0.12,0.11-0.27,0.16-0.44,0.16h-5.54C2063.26,146.98,2063.12,146.93,2063,146.82z"/>
			</g>
		</g>
	</g>
</g>
</svg>
