<?xml version="1.0" encoding="utf-8"?>
<!-- Generator: Adobe Illustrator 27.2.0, SVG Export Plug-In . SVG Version: 6.00 Build 0)  -->
<svg version="1.1" id="Ebene_1" xmlns="http://www.w3.org/2000/svg" xmlns:xlink="http://www.w3.org/1999/xlink" x="0px" y="0px"
	 viewBox="0 0 68.67 65.05" style="enable-background:new 0 0 68.67 65.05;" xml:space="preserve">
<style type="text/css">
	.st0{stroke:#FFFFFF;stroke-width:0.5;stroke-miterlimit:10;}
	.st1{fill:#FFFFFF;}
	.st2{fill:#EDEDED;}
	.st3{opacity:0.1;fill:#546579;stroke:#60748C;stroke-width:1.0251;stroke-miterlimit:10;}
	.st4{opacity:0.1;fill:#546579;stroke:#282F39;stroke-width:1.0251;stroke-miterlimit:10;}
	.st5{opacity:0.1;fill:#546579;stroke:#546579;stroke-width:1.0251;stroke-miterlimit:10;}
	.st6{fill:#60748C;stroke:#60748C;stroke-width:0.9491;stroke-miterlimit:10;}
	.st7{fill:#282F39;}
	.st8{fill:#45AD4B;stroke:#45AD4B;stroke-width:0.8985;stroke-miterlimit:10;}
	.st9{fill:#6DC5D8;stroke:#6DC5D8;stroke-width:0.9491;stroke-miterlimit:10;}
	.st10{fill:#282F39;stroke:#FFFFFF;stroke-width:1.0437;stroke-miterlimit:10;}
	.st11{fill:#45AD4B;stroke:#45AD4B;stroke-width:0.9491;stroke-miterlimit:10;}
	.st12{fill:#A4C748;}
	.st13{fill:#45AD4B;stroke:#45AD4B;stroke-width:0.9119;stroke-miterlimit:10;}
	.st14{fill:#C1252D;stroke:#C1252D;stroke-width:0.9491;stroke-miterlimit:10;}
	.st15{fill:#C1252D;}
	.st16{fill:#C1252D;stroke:#C1252D;stroke-width:1.0339;stroke-miterlimit:10;}
	.st17{fill:#C1252D;stroke:#C1252D;stroke-width:0.8834;stroke-miterlimit:10;}
	.st18{fill:none;stroke:#282F39;stroke-width:2;stroke-linecap:round;stroke-linejoin:round;stroke-miterlimit:10;}
	.st19{fill:#45AD4B;}
	.st20{fill:#45AB4B;}
	.st21{fill:#60748C;}
	.st22{fill:#6DC5D8;}
	.st23{opacity:0.1;}
	.st24{fill:#5B7188;}
	.st25{fill:#97A2AF;}
	.st26{fill:#BABBBC;}
	.st27{fill:#5B7185;}
	.st28{fill:#A0C348;}
	.st29{fill:#45A84B;}
	.st30{fill:#BC252D;}
	.st31{fill:#6DC0D3;}
	.st32{fill:none;stroke:#C7D3D7;stroke-miterlimit:10;}
	.st33{opacity:0.1;fill:#757577;}
	.st34{fill:none;stroke:#FFFFFF;stroke-miterlimit:10;}
	.st35{opacity:0.6;}
	.st36{fill:#F1F3F4;}
	.st37{fill:none;stroke:#F1F3F4;stroke-miterlimit:10;}
	.st38{fill:#E8EAED;}
	.st39{fill:#F1F1F1;}
	.st40{fill:#646768;}
	.st41{opacity:0.25;fill:#757577;}
	.st42{fill:none;stroke:#6DC5D8;stroke-width:3;stroke-miterlimit:10;}
	.st43{fill:none;stroke:#C1252D;stroke-width:3;stroke-miterlimit:10;}
	.st44{fill:none;stroke:#45AD4B;stroke-width:3;stroke-miterlimit:10;}
	.st45{fill:#E7E7E7;}
	.st46{clip-path:url(#SVGID_00000066473631381720311310000003326647911740191421_);}
	.st47{clip-path:url(#SVGID_00000066473631381720311310000003326647911740191421_);fill:#F1F1F1;}
	.st48{clip-path:url(#SVGID_00000140709648847613304100000000474644879365089722_);}
	.st49{fill:#FEF9E8;}
	.st50{fill:#CEEAD6;}
	.st51{fill:#FCE8E6;}
	.st52{fill:none;stroke:#9CC0F9;stroke-width:3;stroke-miterlimit:10;}
	.st53{fill:none;stroke:#9CC0F9;stroke-miterlimit:10;}
	.st54{opacity:0.5;fill:#757577;}
	.st55{clip-path:url(#SVGID_00000066473631381720311310000003326647911740191421_);fill:#FFFFFF;}
	.st56{fill:none;stroke:#C1252D;stroke-width:9;stroke-miterlimit:10;}
	.st57{fill:none;stroke:#E7E7E7;stroke-width:9;stroke-miterlimit:10;}
	.st58{fill:none;stroke:#FFFFFF;stroke-width:3;stroke-miterlimit:10;}
	.st59{fill:none;stroke:#45AD4B;stroke-width:9;stroke-miterlimit:10;}
	.st60{fill:none;stroke:#6DC5D8;stroke-width:1.5;stroke-miterlimit:10;}
	.st61{opacity:0.25;clip-path:url(#SVGID_00000066473631381720311310000003326647911740191421_);fill:#757577;}
	.st62{fill:#292929;}
	.st63{fill-rule:evenodd;clip-rule:evenodd;}
	.st64{fill:#FF7578;}
	.st65{fill:#FFC9CA;}
	.st66{fill:#173042;}
	.st67{fill:#946B6B;}
	.st68{fill:none;}
	.st69{fill:#FFFFFF;stroke:#FFFFFF;stroke-width:7;stroke-miterlimit:10;}
	.st70{fill:#444444;}
	.st71{fill:#F73103;}
	.st72{fill:#FFBB39;}
	.st73{fill:#398229;}
	.st74{fill:#DE0505;}
	.st75{fill:#FF804E;}
	.st76{fill:#7ED668;}
	.st77{fill:#BF252D;}
	.st78{fill:#D4894D;}
	.st79{fill:#AD5512;}
	.st80{fill:#FF00FF;}
	.st81{fill:#FF3D75;}
	.st82{fill:#F28E1E;}
	.st83{fill:#2B6E53;}
	.st84{fill:#399150;}
	.st85{fill:#6A4A1D;}
	.st86{fill:#6DC3D6;}
	.st87{clip-path:url(#SVGID_00000045604013676969317950000013178730885870738099_);}
	.st88{clip-path:url(#SVGID_00000129921700543285231460000000718728761847889293_);}
	.st89{fill:#333333;}
	.st90{fill:url(#SVGID_00000096048818439614954720000005080002762024877211_);}
	.st91{fill:url(#SVGID_00000130625131581698275580000009616604693975379641_);}
	.st92{opacity:0.08;}
	.st93{fill:url(#SVGID_00000042721949849902992140000004151208441561412496_);}
	.st94{fill-rule:evenodd;clip-rule:evenodd;fill:#1A1A1A;}
	.st95{fill:#1A1A1A;}
	.st96{fill-rule:evenodd;clip-rule:evenodd;fill:#60748C;}
	.st97{fill:#FCEED7;}
	.st98{fill:#FBD18B;}
	.st99{fill:#DEE1E5;}
	.st100{fill:#ED8D80;}
	.st101{fill:#E97361;}
	.st102{fill:#AE5649;}
	.st103{fill:#CACED5;}
	.st104{fill:#A8B0BB;}
	.st105{fill:#CACFD7;}
	.st106{fill:#EABF9A;}
	.st107{fill:#E4E7EB;}
	.st108{fill:#69D4F2;}
	.st109{fill:#B2DB7F;}
	.st110{fill:#9ED268;}
	.st111{fill:#F8F8F8;}
	.st112{fill:#F0F0F0;}
	.st113{fill:#738DBD;}
	.st114{fill:#E46D67;}
	.st115{fill:#24C1F0;}
	.st116{fill:#36B183;}
	.st117{fill:#FFB866;}
	.st118{fill:#FFD873;}
	.st119{fill-rule:evenodd;clip-rule:evenodd;fill:#485156;}
	.st120{fill:#58595B;}
	.st121{fill:#BF252D;stroke:#BF252D;stroke-width:2;stroke-miterlimit:10;}
	.st122{fill:#FFFFFF;stroke:#BF252D;stroke-width:4;stroke-linecap:round;stroke-linejoin:round;stroke-miterlimit:10;}
	.st123{fill-rule:evenodd;clip-rule:evenodd;fill:#BF252D;}
	.st124{fill:none;stroke:#FFFFFF;stroke-miterlimit:10;stroke-dasharray:1.0108,1.0108;}
	.st125{fill:none;stroke:#45AD4B;stroke-width:4;stroke-miterlimit:10;}
	.st126{fill:none;stroke:#C1252D;stroke-width:4;stroke-miterlimit:10;}
	.st127{opacity:0.2;fill:#45AD4B;}
	.st128{opacity:0.6;fill:#45AD4B;}
	.st129{fill:#44A049;}
	.st130{fill:#A3C648;}
	.st131{clip-path:url(#SVGID_00000124854400343299272850000003188294087636256186_);}
	.st132{opacity:0.5;fill:#45AD4B;}
	.st133{opacity:0.2;fill:#E7E7E7;}
	.st134{opacity:0.5;fill:#E7E7E7;}
	.st135{opacity:0.5;fill:#FFFFFF;}
	.st136{opacity:0.2;fill:#6DC5D8;}
	.st137{fill:none;stroke:#FFFFFF;stroke-width:2.5;stroke-miterlimit:10;}
	.st138{fill:none;stroke:#BF252D;stroke-width:5;stroke-miterlimit:10;}
	.st139{fill:#BF252D;stroke:#FFFFFF;stroke-width:3;stroke-miterlimit:10;}
	.st140{fill:#FFFFFF;stroke:#FFFFFF;stroke-width:5.5;stroke-miterlimit:10;}
	.st141{fill:none;stroke:#BF252D;stroke-width:3;stroke-miterlimit:10;}
	.st142{fill:#BF252D;stroke:#FFFFFF;stroke-width:4.5;stroke-miterlimit:10;}
	.st143{fill:#BF252D;stroke:#FFFFFF;stroke-miterlimit:10;}
	.st144{fill:#F7E921;}
	.st145{fill:#6E81B5;}
	.st146{fill:#466087;}
	.st147{fill:#FFAEA8;}
	.st148{fill:#FFE152;}
	.st149{fill:#96C869;}
	.st150{fill:#ADB3BD;}
	.st151{fill:#CACED8;}
	.st152{fill:#40CAEF;}
	.st153{fill:#276F80;}
	.st154{fill:#878F9E;}
	.st155{fill:#EEF0F3;}
	.st156{fill:#1E505B;}
	.st157{fill:#9C80EA;}
	.st158{fill:#FAC955;}
	.st159{clip-path:url(#SVGID_00000087381655611950787680000014253806059500151941_);}
	.st160{fill:#E5EAEB;}
	.st161{fill:#ADB4B9;}
	.st162{fill:#495D72;}
	.st163{fill:#28384C;}
	.st164{fill:#E9B816;}
	.st165{fill:#DB352E;}
	.st166{fill:#366DB4;}
	.st167{fill:#753489;}
	.st168{fill:#57A9BF;}
	.st169{fill:#25AC86;}
	.st170{fill:#F56363;}
	.st171{fill:#BD5A45;}
	.st172{fill:#F0EABD;}
	.st173{fill:#EB8819;}
	.st174{fill:#C3411E;}
	.st175{fill:#205B75;}
	.st176{fill:#C8D9E8;}
	.st177{fill:#A9B9CA;}
	.st178{fill:#114559;}
	.st179{fill:#DFE8F2;}
	.st180{fill:#E3B933;}
	.st181{fill:#E96374;}
	.st182{fill:#80EAFF;}
	.st183{fill:#FFFFFF;stroke:#C1252D;stroke-width:7;stroke-miterlimit:10;}
	.st184{fill:#FFFFFF;stroke:#45AD4B;stroke-width:7;stroke-miterlimit:10;}
	.st185{fill:#B4BCBD;}
	.st186{fill:#CED7DA;}
	.st187{fill:none;stroke:#45AD4B;stroke-width:2;stroke-miterlimit:10;}
	.st188{fill:#6DC3D6;stroke:#FFFFFF;stroke-width:0.1;stroke-miterlimit:10;}
	.st189{fill:#C1252D;stroke:#FFFFFF;stroke-width:0.1;stroke-miterlimit:10;}
	.st190{fill:#A3C648;stroke:#FFFFFF;stroke-width:0.1;stroke-miterlimit:10;}
	.st191{fill:#45AB4B;stroke:#FFFFFF;stroke-width:0.1;stroke-miterlimit:10;}
	.st192{fill:none;stroke:#60748C;stroke-linecap:round;stroke-linejoin:round;stroke-miterlimit:10;stroke-dasharray:2,4;}
	.st193{fill:#F0F0F0;stroke:#C1252D;stroke-width:7;stroke-miterlimit:10;}
	.st194{fill:#F0F0F0;stroke:#45AD4B;stroke-width:7;stroke-miterlimit:10;}
	.st195{opacity:0.3;}
	.st196{opacity:0.3;fill:#5B7188;}
	.st197{fill:#EDEDED;stroke:#C1252D;stroke-width:6;stroke-miterlimit:10;}
	.st198{fill:#5B7188;stroke:#EDEDED;stroke-miterlimit:10;}
	.st199{fill:#EDEDED;stroke:#45AD4B;stroke-width:6;stroke-miterlimit:10;}
	.st200{fill:#FFFFFF;stroke:#C1252D;stroke-width:6;stroke-miterlimit:10;}
	.st201{fill:#FFFFFF;stroke:#45AD4B;stroke-width:6;stroke-miterlimit:10;}
	.st202{fill:none;stroke:#6DC5D8;stroke-linecap:round;stroke-linejoin:round;}
	.st203{fill:none;stroke:#6DC5D8;stroke-linecap:round;stroke-linejoin:round;stroke-dasharray:4.8937,7.8299;}
	.st204{fill:none;stroke:#6DC5D8;stroke-linecap:round;stroke-linejoin:round;stroke-dasharray:5.1322,8.2115;}
	.st205{fill:none;stroke:#6DC5D8;stroke-linecap:round;stroke-linejoin:round;stroke-miterlimit:10;stroke-dasharray:5,8;}
	.st206{fill:#45AC4B;}
	.st207{fill:#C0252D;}
	.st208{fill:#6DC4D7;}
	.st209{fill:#5B7189;}
	.st210{fill:none;stroke:#60748C;stroke-width:1.5;stroke-miterlimit:10;}
	.st211{opacity:0.4;}
	.st212{fill:none;stroke:#60748C;stroke-width:2;stroke-linecap:round;stroke-linejoin:round;stroke-miterlimit:10;}
	.st213{opacity:0.54;fill:#FFFFFF;}
	.st214{clip-path:url(#SVGID_00000010991141059948647820000016459890383413337239_);}
	.st215{opacity:0.5;fill:#5B7188;}
	.st216{opacity:0.1;fill:#60748C;}
	.st217{clip-path:url(#SVGID_00000078015176036344606700000016548862921418233491_);}
	.st218{display:none;}
	.st219{display:inline;fill:#FFFFFF;}
	.st220{display:inline;fill:#090C11;}
	.st221{display:inline;fill:#4A596E;}
	.st222{fill:#546579;}
	.st223{fill:#6F88A6;}
	.st224{opacity:0.1;fill:none;stroke:#FFFFFF;stroke-miterlimit:10;}
	.st225{display:none;fill:#6DC5D8;}
	.st226{opacity:0.45;fill:#60748C;}
	.st227{opacity:0.03;clip-path:url(#SVGID_00000009569783728445455160000017524906544968227741_);}
	.st228{clip-path:url(#SVGID_00000009569783728445455160000017524906544968227741_);}
	
		.st229{clip-path:url(#SVGID_00000009569783728445455160000017524906544968227741_);fill:#FFFFFF;stroke:#60748C;stroke-width:1.5;stroke-miterlimit:10;}
	.st230{opacity:0.4;clip-path:url(#SVGID_00000009569783728445455160000017524906544968227741_);}
	.st231{clip-path:url(#SVGID_00000003085644037048231620000005009337923965430670_);}
	.st232{opacity:0.05;clip-path:url(#SVGID_00000003085644037048231620000005009337923965430670_);}
	.st233{fill:#575756;}
	
		.st234{clip-path:url(#SVGID_00000003085644037048231620000005009337923965430670_);fill:#FFFFFF;stroke:#60748C;stroke-width:1.5;stroke-miterlimit:10;}
	.st235{opacity:0.4;clip-path:url(#SVGID_00000003085644037048231620000005009337923965430670_);}
	.st236{fill:#FFFFFF;stroke:#60748C;stroke-width:1.5;stroke-miterlimit:10;}
	.st237{fill:#A5C848;}
	.st238{opacity:0.2;}
	.st239{clip-path:url(#SVGID_00000058556415149693213740000006835536744723262865_);}
	.st240{clip-path:url(#SVGID_00000003063696845028328230000000054924576789331621_);}
	.st241{fill:none;stroke:#60748C;stroke-width:3;stroke-miterlimit:10;}
	.st242{fill:#EDEDED;stroke:#C0252D;stroke-width:3;stroke-miterlimit:10;}
	.st243{clip-path:url(#SVGID_00000094599286082591070240000008035266864548294533_);}
	.st244{opacity:0.1;fill:#546579;}
	.st245{opacity:0.05;}
	.st246{fill:#606060;}
	.st247{opacity:0.15;}
	.st248{opacity:0.5;}
	.st249{fill:#535353;}
	.st250{opacity:0.7;}
	.st251{filter:url(#Adobe_OpacityMaskFilter);}
	.st252{filter:url(#Adobe_OpacityMaskFilter_00000145036731046083040690000003948668233402586027_);}
	
		.st253{mask:url(#SVGID_00000032608928969999910730000007536017004526498479_);fill:url(#SVGID_00000072246809278105993880000005593317744395381160_);}
	.st254{filter:url(#Adobe_OpacityMaskFilter_00000169546557070854334280000014326461916210288823_);}
	.st255{filter:url(#Adobe_OpacityMaskFilter_00000021087205105440986080000001223205221337507507_);}
	
		.st256{mask:url(#SVGID_00000011723056799616487690000016601978183390493334_);fill:url(#SVGID_00000124867525721601768520000011753447927731045764_);}
	.st257{filter:url(#Adobe_OpacityMaskFilter_00000173849644707683402910000003575421357263349641_);}
	.st258{filter:url(#Adobe_OpacityMaskFilter_00000158003528354597259860000001507920595304590490_);}
	
		.st259{mask:url(#SVGID_00000173155529830274634270000010397032049687651744_);fill:url(#SVGID_00000078032284734740756540000013437328766659341494_);}
	.st260{filter:url(#Adobe_OpacityMaskFilter_00000073707152032158035710000008491276839437366931_);}
	.st261{filter:url(#Adobe_OpacityMaskFilter_00000126286834949767402710000007004720079661596088_);}
	
		.st262{mask:url(#SVGID_00000004542947647281267880000012849516052289722530_);fill:url(#SVGID_00000178901428522297327220000010043978569124122799_);}
	.st263{filter:url(#Adobe_OpacityMaskFilter_00000158743337287239767330000014536975122360970413_);}
	.st264{filter:url(#Adobe_OpacityMaskFilter_00000096740355320658064050000004576038934904835767_);}
	
		.st265{mask:url(#SVGID_00000013172157941521994870000015495925257230552490_);fill:url(#SVGID_00000129178143223857895970000003151450696467870107_);}
	.st266{filter:url(#Adobe_OpacityMaskFilter_00000104678904407366364040000000044627869177429425_);}
	.st267{filter:url(#Adobe_OpacityMaskFilter_00000109011977826938026030000013500066318462381222_);}
	
		.st268{mask:url(#SVGID_00000011022470750741845580000013311644620246403716_);fill:url(#SVGID_00000045592338857368560600000010165034765011968939_);}
	.st269{filter:url(#Adobe_OpacityMaskFilter_00000061471685374219773410000010405189760184015533_);}
	.st270{filter:url(#Adobe_OpacityMaskFilter_00000129200830119416447970000003088144436113233573_);}
	
		.st271{mask:url(#SVGID_00000032650635171716592990000009673267892878687886_);fill:url(#SVGID_00000160155702144350969460000005636169898150217088_);}
	.st272{opacity:0.8;}
	.st273{filter:url(#Adobe_OpacityMaskFilter_00000099657513987970060140000004419235086011355776_);}
	.st274{filter:url(#Adobe_OpacityMaskFilter_00000082352339721601008800000013813718828191506081_);}
	
		.st275{mask:url(#SVGID_00000073718063966801522520000006866264518701520005_);fill:url(#SVGID_00000136409905167537471000000016781750800738266813_);}
	.st276{fill:none;stroke:#1A1A1A;stroke-width:4;stroke-miterlimit:10;}
	.st277{fill:none;stroke:#60748C;stroke-width:4;stroke-miterlimit:10;}
	.st278{fill:#FFFFFF;stroke:#60748C;stroke-width:3;stroke-miterlimit:10;}
	.st279{fill:#FFFFFF;stroke:#6DC5D8;stroke-width:3;stroke-miterlimit:10;}
	.st280{fill:#6DC5D8;stroke:#FFFFFF;stroke-width:3;stroke-miterlimit:10;}
	.st281{opacity:0.25;}
	.st282{fill:#757577;}
	.st283{fill:#AEAEAE;}
	.st284{fill:#C1252D;stroke:#FFFFFF;stroke-width:3;stroke-miterlimit:10;}
	.st285{fill:#1A1A1A;stroke:#FFFFFF;stroke-width:3;stroke-miterlimit:10;}
	.st286{fill:none;stroke:#000000;stroke-width:10;stroke-linecap:round;stroke-miterlimit:10;}
	.st287{fill:none;stroke:#45AD4B;stroke-width:6;stroke-miterlimit:10;}
	.st288{fill:none;stroke:#6DC5D8;stroke-width:6;stroke-miterlimit:10;}
	.st289{fill:none;stroke:#60748C;stroke-width:6;stroke-miterlimit:10;}
	.st290{fill:none;stroke:#000000;stroke-width:6;stroke-miterlimit:10;}
	.st291{fill:#60748C;stroke:#FFFFFF;stroke-width:4;stroke-miterlimit:10;}
	.st292{fill:none;stroke:#000000;stroke-width:7;stroke-linecap:round;stroke-miterlimit:10;}
	.st293{fill-rule:evenodd;clip-rule:evenodd;fill:none;stroke:#000000;stroke-width:4;stroke-miterlimit:10;}
	.st294{fill:none;stroke:#000000;stroke-width:4;stroke-miterlimit:10;}
	.st295{fill:none;stroke:#000000;stroke-width:4;stroke-linecap:round;stroke-miterlimit:10;}
	.st296{fill-rule:evenodd;clip-rule:evenodd;stroke:#FFFFFF;stroke-miterlimit:10;}
	.st297{clip-path:url(#SVGID_00000013877430164704433270000001414588868479796137_);}
	.st298{fill:#1A1A1A;stroke:#1A1A1A;stroke-miterlimit:10;}
	.st299{stroke:#000000;stroke-miterlimit:10;}
	.st300{clip-path:url(#SVGID_00000177456868562562562360000005326185361368942984_);}
	.st301{fill:#60748C;stroke:#60748C;stroke-miterlimit:10;}
</style>
<g>
	<path class="st95" d="M23.16,21.51c0,2.39,1.94,4.33,4.33,4.33c2.39,0,4.33-1.94,4.33-4.33s-1.94-4.33-4.33-4.33
		C25.1,17.18,23.16,19.12,23.16,21.51z"/>
	<path class="st95" d="M60.75,27.99c0-0.1-0.02-0.19-0.04-0.29c-0.89-3.61-2.51-6.92-4.8-9.85c-0.25-0.42-0.71-0.71-1.23-0.71
		c-0.79,0-1.44,0.64-1.44,1.44c0,0.37,0.14,0.7,0.37,0.96c-0.01,0-0.01,0.01-0.02,0.02c1.96,2.49,3.36,5.29,4.18,8.34
		c0,0.01,0,0.03,0.01,0.04c1,3.7,1.04,7.52,0.24,11.14c-0.8-0.2-1.97-0.46-3.45-0.68V22.6H37.11v11.82
		c-0.74-0.51-1.64-0.83-2.62-0.9c-0.81-1.6-2.55-2.67-4.56-2.67c-0.29,0-0.57,0.02-0.81,0.06c-1.67,0.25-3.06,1.25-3.75,2.6
		c-0.26-0.01-0.52,0-0.78,0.02c-0.91-1.31-2.5-2.15-4.25-2.15c-0.29,0-0.57,0.02-0.81,0.06c-1.91,0.28-3.42,1.52-3.98,3.16
		c-0.35,0.04-0.69,0.11-1.03,0.21c-0.64,0.2-1.73,0.74-2.65,1.65c-0.15-1.48-0.17-2.99-0.04-4.51c0.55-6.25,3.5-11.9,8.3-15.93
		c2.32-1.94,4.9-3.36,7.6-4.26c0.02-0.01,0.04-0.01,0.06-0.02c0.26-0.09,0.53-0.17,0.79-0.24c0.19-0.05,0.38-0.11,0.57-0.16
		c2.29-0.61,4.65-0.87,6.99-0.77c0,0,0-0.01,0-0.01c0.75-0.05,1.34-0.67,1.34-1.43c0-0.7-0.5-1.28-1.16-1.41c0,0,0-0.01,0-0.01
		c-0.03,0-0.07,0-0.1,0c-0.06-0.01-0.12-0.02-0.18-0.02c-0.04,0-0.08,0.01-0.12,0.01c-2.35-0.1-4.71,0.16-7.04,0.73
		c-0.03,0.01-0.06,0-0.08,0.01c-0.15,0.04-0.3,0.08-0.45,0.12c-0.16,0.04-0.32,0.09-0.48,0.13c-3.56,1.01-6.82,2.73-9.69,5.14
		c-5.39,4.52-8.7,10.88-9.32,17.89c-0.33,3.76,0.14,7.47,1.34,10.93l0.21,0.86c0.04,0.18,1.09,4.36,4.79,7.92
		c0.29,0.28,0.58,0.54,0.87,0.8c4.42,4.63,10.3,7.47,16.73,8.04c0.79,0.07,1.57,0.1,2.35,0.1c5.97,0,11.71-2.01,16.41-5.78
		l0.06,0.06l1.01-0.87c0.21-0.18,3.96-3.45,6.12-8.19C61.4,40.22,62.16,34,60.75,27.99z M49,25.59h2.59v2.59H49V25.59z M49,30.04
		h2.59v2.59H49V30.04z M49,34.5h2.59v2.59H49V34.5z M44.54,25.59h2.59v2.59h-2.59V25.59z M44.54,30.04h2.59v2.59h-2.59V30.04z
		 M44.54,34.5h2.59v2.59h-2.59V34.5z M40.09,25.59h2.59v2.59h-2.59V25.59z M40.09,30.04h2.59v2.59h-2.59V30.04z M40.09,34.5h2.59
		v2.59h-2.59V34.5z M13.24,39.49c0.39-1.07,1.61-1.76,2.14-1.92c0.25-0.08,0.51-0.12,0.77-0.12c0.14,0,0.27,0.02,0.4,0.03l1.64,0.18
		v-1.65c0-0.83,0.76-1.57,1.79-1.72c0.11-0.02,0.24-0.03,0.36-0.03c0.99,0,1.84,0.55,2.08,1.33l0.44,1.45l1.42-0.51
		c0.5-0.18,1.09-0.19,1.61-0.02l1.67,0.54l0.21-1.74c0.09-0.77,0.81-1.4,1.78-1.55c0.11-0.02,0.24-0.03,0.36-0.03
		c1.07,0,1.98,0.65,2.13,1.51l0.24,1.4l1.4-0.22c0.15-0.02,0.29-0.04,0.42-0.04c1.19,0,2.15,0.78,2.15,1.75l0.26,1.67
		c-0.15,0.05-0.7,0.33-0.85,0.38c-1.75-0.51-3.11-1.02-6.55-1.59c-6.81-0.97-12.92,1.01-15.91,2.3
		C13.08,40.39,13.08,39.93,13.24,39.49z M19.17,51.12c-0.68-0.64-1.33-1.31-1.94-2.03c-1.36-1.62-2.48-3.4-3.34-5.27
		c1.76-0.7,6.54-2.37,12.19-2.37c0.79,0,1.55,0.03,2.28,0.08c1.51,0.2,3.06,0.56,4.64,1.13c8.33,2.99,13.88,7.87,16.08,10.06
		C45.13,55.39,32.52,62.19,19.17,51.12z M56.17,44.38c-1.13,2.31-2.65,4.45-4.51,6.3c-1.84-1.67-5.96-5.12-11.79-8.42l-0.06-0.37
		c7.91-1.9,14.63-0.73,17.27-0.09C56.86,42.7,56.54,43.56,56.17,44.38z"/>
	<path class="st95" d="M42.13,11.77h0.53h3.28v1.37v2.45c0,0.95,0.77,1.71,1.71,1.71s1.71-0.77,1.71-1.71v-0.3v-3.5v-0.02h3.82
		c0.95,0,1.71-0.77,1.71-1.71s-0.77-1.71-1.71-1.71h-3.82V4.53c0-0.95-0.77-1.71-1.71-1.71s-1.71,0.77-1.71,1.71v3.82h-3.82
		c-0.2,0-0.39,0.04-0.57,0.11c-0.66,0.24-1.14,0.87-1.14,1.61c0,0.47,0.19,0.9,0.5,1.21C41.22,11.58,41.65,11.77,42.13,11.77z"/>
</g>
</svg>
