<?xml version="1.0" encoding="utf-8"?>
<!-- Generator: Adobe Illustrator 27.2.0, SVG Export Plug-In . SVG Version: 6.00 Build 0)  -->
<svg version="1.1" id="Ebene_1" xmlns="http://www.w3.org/2000/svg" xmlns:xlink="http://www.w3.org/1999/xlink" x="0px" y="0px"
	 viewBox="0 0 68.67 65.05" style="enable-background:new 0 0 68.67 65.05;" xml:space="preserve">
<style type="text/css">
	.st0{stroke:#FFFFFF;stroke-width:0.5;stroke-miterlimit:10;}
	.st1{fill:#FFFFFF;}
	.st2{fill:#EDEDED;}
	.st3{opacity:0.1;fill:#546579;stroke:#60748C;stroke-width:1.0251;stroke-miterlimit:10;}
	.st4{opacity:0.1;fill:#546579;stroke:#282F39;stroke-width:1.0251;stroke-miterlimit:10;}
	.st5{opacity:0.1;fill:#546579;stroke:#546579;stroke-width:1.0251;stroke-miterlimit:10;}
	.st6{fill:#60748C;stroke:#60748C;stroke-width:0.9491;stroke-miterlimit:10;}
	.st7{fill:#282F39;}
	.st8{fill:#45AD4B;stroke:#45AD4B;stroke-width:0.8985;stroke-miterlimit:10;}
	.st9{fill:#6DC5D8;stroke:#6DC5D8;stroke-width:0.9491;stroke-miterlimit:10;}
	.st10{fill:#282F39;stroke:#FFFFFF;stroke-width:1.0437;stroke-miterlimit:10;}
	.st11{fill:#45AD4B;stroke:#45AD4B;stroke-width:0.9491;stroke-miterlimit:10;}
	.st12{fill:#A4C748;}
	.st13{fill:#45AD4B;stroke:#45AD4B;stroke-width:0.9119;stroke-miterlimit:10;}
	.st14{fill:#C1252D;stroke:#C1252D;stroke-width:0.9491;stroke-miterlimit:10;}
	.st15{fill:#C1252D;}
	.st16{fill:#C1252D;stroke:#C1252D;stroke-width:1.0339;stroke-miterlimit:10;}
	.st17{fill:#C1252D;stroke:#C1252D;stroke-width:0.8834;stroke-miterlimit:10;}
	.st18{fill:none;stroke:#282F39;stroke-width:2;stroke-linecap:round;stroke-linejoin:round;stroke-miterlimit:10;}
	.st19{fill:#45AD4B;}
	.st20{fill:#45AB4B;}
	.st21{fill:#60748C;}
	.st22{fill:#6DC5D8;}
	.st23{opacity:0.1;}
	.st24{fill:#5B7188;}
	.st25{fill:#97A2AF;}
	.st26{fill:#BABBBC;}
	.st27{fill:#5B7185;}
	.st28{fill:#A0C348;}
	.st29{fill:#45A84B;}
	.st30{fill:#BC252D;}
	.st31{fill:#6DC0D3;}
	.st32{fill:none;stroke:#C7D3D7;stroke-miterlimit:10;}
	.st33{opacity:0.1;fill:#757577;}
	.st34{fill:none;stroke:#FFFFFF;stroke-miterlimit:10;}
	.st35{opacity:0.6;}
	.st36{fill:#F1F3F4;}
	.st37{fill:none;stroke:#F1F3F4;stroke-miterlimit:10;}
	.st38{fill:#E8EAED;}
	.st39{fill:#F1F1F1;}
	.st40{fill:#646768;}
	.st41{opacity:0.25;fill:#757577;}
	.st42{fill:none;stroke:#6DC5D8;stroke-width:3;stroke-miterlimit:10;}
	.st43{fill:none;stroke:#C1252D;stroke-width:3;stroke-miterlimit:10;}
	.st44{fill:none;stroke:#45AD4B;stroke-width:3;stroke-miterlimit:10;}
	.st45{fill:#E7E7E7;}
	.st46{clip-path:url(#SVGID_00000173152183905455345860000003250068497797404849_);}
	.st47{clip-path:url(#SVGID_00000173152183905455345860000003250068497797404849_);fill:#F1F1F1;}
	.st48{clip-path:url(#SVGID_00000092450359014233303450000010236584588616156351_);}
	.st49{fill:#FEF9E8;}
	.st50{fill:#CEEAD6;}
	.st51{fill:#FCE8E6;}
	.st52{fill:none;stroke:#9CC0F9;stroke-width:3;stroke-miterlimit:10;}
	.st53{fill:none;stroke:#9CC0F9;stroke-miterlimit:10;}
	.st54{opacity:0.5;fill:#757577;}
	.st55{clip-path:url(#SVGID_00000173152183905455345860000003250068497797404849_);fill:#FFFFFF;}
	.st56{fill:none;stroke:#C1252D;stroke-width:9;stroke-miterlimit:10;}
	.st57{fill:none;stroke:#E7E7E7;stroke-width:9;stroke-miterlimit:10;}
	.st58{fill:none;stroke:#FFFFFF;stroke-width:3;stroke-miterlimit:10;}
	.st59{fill:none;stroke:#45AD4B;stroke-width:9;stroke-miterlimit:10;}
	.st60{fill:none;stroke:#6DC5D8;stroke-width:1.5;stroke-miterlimit:10;}
	.st61{opacity:0.25;clip-path:url(#SVGID_00000173152183905455345860000003250068497797404849_);fill:#757577;}
	.st62{fill:#292929;}
	.st63{fill-rule:evenodd;clip-rule:evenodd;}
	.st64{fill:#FF7578;}
	.st65{fill:#FFC9CA;}
	.st66{fill:#173042;}
	.st67{fill:#946B6B;}
	.st68{fill:none;}
	.st69{fill:#FFFFFF;stroke:#FFFFFF;stroke-width:7;stroke-miterlimit:10;}
	.st70{fill:#444444;}
	.st71{fill:#F73103;}
	.st72{fill:#FFBB39;}
	.st73{fill:#398229;}
	.st74{fill:#DE0505;}
	.st75{fill:#FF804E;}
	.st76{fill:#7ED668;}
	.st77{fill:#BF252D;}
	.st78{fill:#D4894D;}
	.st79{fill:#AD5512;}
	.st80{fill:#FF00FF;}
	.st81{fill:#FF3D75;}
	.st82{fill:#F28E1E;}
	.st83{fill:#2B6E53;}
	.st84{fill:#399150;}
	.st85{fill:#6A4A1D;}
	.st86{fill:#6DC3D6;}
	.st87{clip-path:url(#SVGID_00000022524917099609675810000016365547567345667483_);}
	.st88{clip-path:url(#SVGID_00000049900167231950849970000015564511437785207704_);}
	.st89{fill:#333333;}
	.st90{fill:url(#SVGID_00000098943111745399442060000013390978841540651695_);}
	.st91{fill:url(#SVGID_00000006687614899947285170000010623137772465796003_);}
	.st92{opacity:0.08;}
	.st93{fill:url(#SVGID_00000034806074691708002510000009942274827316371853_);}
	.st94{fill-rule:evenodd;clip-rule:evenodd;fill:#1A1A1A;}
	.st95{fill:#1A1A1A;}
	.st96{fill-rule:evenodd;clip-rule:evenodd;fill:#60748C;}
	.st97{fill:#FCEED7;}
	.st98{fill:#FBD18B;}
	.st99{fill:#DEE1E5;}
	.st100{fill:#ED8D80;}
	.st101{fill:#E97361;}
	.st102{fill:#AE5649;}
	.st103{fill:#CACED5;}
	.st104{fill:#A8B0BB;}
	.st105{fill:#CACFD7;}
	.st106{fill:#EABF9A;}
	.st107{fill:#E4E7EB;}
	.st108{fill:#69D4F2;}
	.st109{fill:#B2DB7F;}
	.st110{fill:#9ED268;}
	.st111{fill:#F8F8F8;}
	.st112{fill:#F0F0F0;}
	.st113{fill:#738DBD;}
	.st114{fill:#E46D67;}
	.st115{fill:#24C1F0;}
	.st116{fill:#36B183;}
	.st117{fill:#FFB866;}
	.st118{fill:#FFD873;}
	.st119{fill-rule:evenodd;clip-rule:evenodd;fill:#485156;}
	.st120{fill:#58595B;}
	.st121{fill:#BF252D;stroke:#BF252D;stroke-width:2;stroke-miterlimit:10;}
	.st122{fill:#FFFFFF;stroke:#BF252D;stroke-width:4;stroke-linecap:round;stroke-linejoin:round;stroke-miterlimit:10;}
	.st123{fill-rule:evenodd;clip-rule:evenodd;fill:#BF252D;}
	.st124{fill:none;stroke:#FFFFFF;stroke-miterlimit:10;stroke-dasharray:1.0108,1.0108;}
	.st125{fill:none;stroke:#45AD4B;stroke-width:4;stroke-miterlimit:10;}
	.st126{fill:none;stroke:#C1252D;stroke-width:4;stroke-miterlimit:10;}
	.st127{opacity:0.2;fill:#45AD4B;}
	.st128{opacity:0.6;fill:#45AD4B;}
	.st129{fill:#44A049;}
	.st130{fill:#A3C648;}
	.st131{clip-path:url(#SVGID_00000044881173962572757870000001694895716622297228_);}
	.st132{opacity:0.5;fill:#45AD4B;}
	.st133{opacity:0.2;fill:#E7E7E7;}
	.st134{opacity:0.5;fill:#E7E7E7;}
	.st135{opacity:0.5;fill:#FFFFFF;}
	.st136{opacity:0.2;fill:#6DC5D8;}
	.st137{fill:none;stroke:#FFFFFF;stroke-width:2.5;stroke-miterlimit:10;}
	.st138{fill:none;stroke:#BF252D;stroke-width:5;stroke-miterlimit:10;}
	.st139{fill:#BF252D;stroke:#FFFFFF;stroke-width:3;stroke-miterlimit:10;}
	.st140{fill:#FFFFFF;stroke:#FFFFFF;stroke-width:5.5;stroke-miterlimit:10;}
	.st141{fill:none;stroke:#BF252D;stroke-width:3;stroke-miterlimit:10;}
	.st142{fill:#BF252D;stroke:#FFFFFF;stroke-width:4.5;stroke-miterlimit:10;}
	.st143{fill:#BF252D;stroke:#FFFFFF;stroke-miterlimit:10;}
	.st144{fill:#F7E921;}
	.st145{fill:#6E81B5;}
	.st146{fill:#466087;}
	.st147{fill:#FFAEA8;}
	.st148{fill:#FFE152;}
	.st149{fill:#96C869;}
	.st150{fill:#ADB3BD;}
	.st151{fill:#CACED8;}
	.st152{fill:#40CAEF;}
	.st153{fill:#276F80;}
	.st154{fill:#878F9E;}
	.st155{fill:#EEF0F3;}
	.st156{fill:#1E505B;}
	.st157{fill:#9C80EA;}
	.st158{fill:#FAC955;}
	.st159{clip-path:url(#SVGID_00000166634789002299262050000000021993183293819265_);}
	.st160{fill:#E5EAEB;}
	.st161{fill:#ADB4B9;}
	.st162{fill:#495D72;}
	.st163{fill:#28384C;}
	.st164{fill:#E9B816;}
	.st165{fill:#DB352E;}
	.st166{fill:#366DB4;}
	.st167{fill:#753489;}
	.st168{fill:#57A9BF;}
	.st169{fill:#25AC86;}
	.st170{fill:#F56363;}
	.st171{fill:#BD5A45;}
	.st172{fill:#F0EABD;}
	.st173{fill:#EB8819;}
	.st174{fill:#C3411E;}
	.st175{fill:#205B75;}
	.st176{fill:#C8D9E8;}
	.st177{fill:#A9B9CA;}
	.st178{fill:#114559;}
	.st179{fill:#DFE8F2;}
	.st180{fill:#E3B933;}
	.st181{fill:#E96374;}
	.st182{fill:#80EAFF;}
	.st183{fill:#FFFFFF;stroke:#C1252D;stroke-width:7;stroke-miterlimit:10;}
	.st184{fill:#FFFFFF;stroke:#45AD4B;stroke-width:7;stroke-miterlimit:10;}
	.st185{fill:#B4BCBD;}
	.st186{fill:#CED7DA;}
	.st187{fill:none;stroke:#45AD4B;stroke-width:2;stroke-miterlimit:10;}
	.st188{fill:#6DC3D6;stroke:#FFFFFF;stroke-width:0.1;stroke-miterlimit:10;}
	.st189{fill:#C1252D;stroke:#FFFFFF;stroke-width:0.1;stroke-miterlimit:10;}
	.st190{fill:#A3C648;stroke:#FFFFFF;stroke-width:0.1;stroke-miterlimit:10;}
	.st191{fill:#45AB4B;stroke:#FFFFFF;stroke-width:0.1;stroke-miterlimit:10;}
	.st192{fill:none;stroke:#60748C;stroke-linecap:round;stroke-linejoin:round;stroke-miterlimit:10;stroke-dasharray:2,4;}
	.st193{fill:#F0F0F0;stroke:#C1252D;stroke-width:7;stroke-miterlimit:10;}
	.st194{fill:#F0F0F0;stroke:#45AD4B;stroke-width:7;stroke-miterlimit:10;}
	.st195{opacity:0.3;}
	.st196{opacity:0.3;fill:#5B7188;}
	.st197{fill:#EDEDED;stroke:#C1252D;stroke-width:6;stroke-miterlimit:10;}
	.st198{fill:#5B7188;stroke:#EDEDED;stroke-miterlimit:10;}
	.st199{fill:#EDEDED;stroke:#45AD4B;stroke-width:6;stroke-miterlimit:10;}
	.st200{fill:#FFFFFF;stroke:#C1252D;stroke-width:6;stroke-miterlimit:10;}
	.st201{fill:#FFFFFF;stroke:#45AD4B;stroke-width:6;stroke-miterlimit:10;}
	.st202{fill:none;stroke:#6DC5D8;stroke-linecap:round;stroke-linejoin:round;}
	.st203{fill:none;stroke:#6DC5D8;stroke-linecap:round;stroke-linejoin:round;stroke-dasharray:4.8937,7.8299;}
	.st204{fill:none;stroke:#6DC5D8;stroke-linecap:round;stroke-linejoin:round;stroke-dasharray:5.1322,8.2115;}
	.st205{fill:none;stroke:#6DC5D8;stroke-linecap:round;stroke-linejoin:round;stroke-miterlimit:10;stroke-dasharray:5,8;}
	.st206{fill:#45AC4B;}
	.st207{fill:#C0252D;}
	.st208{fill:#6DC4D7;}
	.st209{fill:#5B7189;}
	.st210{fill:none;stroke:#60748C;stroke-width:1.5;stroke-miterlimit:10;}
	.st211{opacity:0.4;}
	.st212{fill:none;stroke:#60748C;stroke-width:2;stroke-linecap:round;stroke-linejoin:round;stroke-miterlimit:10;}
	.st213{opacity:0.54;fill:#FFFFFF;}
	.st214{clip-path:url(#SVGID_00000144309021690611104320000008098481436992037546_);}
	.st215{opacity:0.5;fill:#5B7188;}
	.st216{opacity:0.1;fill:#60748C;}
	.st217{clip-path:url(#SVGID_00000155863419997608857930000009302813073775008412_);}
	.st218{display:none;}
	.st219{display:inline;fill:#FFFFFF;}
	.st220{display:inline;fill:#090C11;}
	.st221{display:inline;fill:#4A596E;}
	.st222{fill:#546579;}
	.st223{fill:#6F88A6;}
	.st224{opacity:0.1;fill:none;stroke:#FFFFFF;stroke-miterlimit:10;}
	.st225{display:none;fill:#6DC5D8;}
	.st226{opacity:0.45;fill:#60748C;}
	.st227{opacity:0.03;clip-path:url(#SVGID_00000183946710967682704910000001117756856199468467_);}
	.st228{clip-path:url(#SVGID_00000183946710967682704910000001117756856199468467_);}
	
		.st229{clip-path:url(#SVGID_00000183946710967682704910000001117756856199468467_);fill:#FFFFFF;stroke:#60748C;stroke-width:1.5;stroke-miterlimit:10;}
	.st230{opacity:0.4;clip-path:url(#SVGID_00000183946710967682704910000001117756856199468467_);}
	.st231{clip-path:url(#SVGID_00000078014495772605559760000009561412505592616116_);}
	.st232{opacity:0.05;clip-path:url(#SVGID_00000078014495772605559760000009561412505592616116_);}
	.st233{fill:#575756;}
	
		.st234{clip-path:url(#SVGID_00000078014495772605559760000009561412505592616116_);fill:#FFFFFF;stroke:#60748C;stroke-width:1.5;stroke-miterlimit:10;}
	.st235{opacity:0.4;clip-path:url(#SVGID_00000078014495772605559760000009561412505592616116_);}
	.st236{fill:#FFFFFF;stroke:#60748C;stroke-width:1.5;stroke-miterlimit:10;}
	.st237{fill:#A5C848;}
	.st238{opacity:0.2;}
	.st239{clip-path:url(#SVGID_00000049221866080141879950000000488948186937250223_);}
	.st240{clip-path:url(#SVGID_00000020370258987034979090000003859665140492379575_);}
	.st241{fill:none;stroke:#60748C;stroke-width:3;stroke-miterlimit:10;}
	.st242{fill:#EDEDED;stroke:#C0252D;stroke-width:3;stroke-miterlimit:10;}
	.st243{clip-path:url(#SVGID_00000023980400631163539240000013274717258591019943_);}
	.st244{opacity:0.1;fill:#546579;}
	.st245{opacity:0.05;}
	.st246{fill:#606060;}
	.st247{opacity:0.15;}
	.st248{opacity:0.5;}
	.st249{fill:#535353;}
	.st250{opacity:0.7;}
	.st251{filter:url(#Adobe_OpacityMaskFilter);}
	.st252{filter:url(#Adobe_OpacityMaskFilter_00000046300187684614606820000016123404232713490861_);}
	
		.st253{mask:url(#SVGID_00000003083880683551638390000009145014732243644843_);fill:url(#SVGID_00000176043616924353669880000013503005503446895026_);}
	.st254{filter:url(#Adobe_OpacityMaskFilter_00000011007918389888253300000017471421536512149146_);}
	.st255{filter:url(#Adobe_OpacityMaskFilter_00000126286658448457331680000015942375202003821748_);}
	
		.st256{mask:url(#SVGID_00000013191342968783964080000011615957879456513418_);fill:url(#SVGID_00000059999586315478739300000004384723063493244843_);}
	.st257{filter:url(#Adobe_OpacityMaskFilter_00000101100900293813285920000002866126952794400693_);}
	.st258{filter:url(#Adobe_OpacityMaskFilter_00000144327177376935798280000003893795895276071045_);}
	
		.st259{mask:url(#SVGID_00000023278615314437915120000012728102487059176096_);fill:url(#SVGID_00000124862084820252760830000001675229040383499179_);}
	.st260{filter:url(#Adobe_OpacityMaskFilter_00000121983286651587105450000017811760591253222536_);}
	.st261{filter:url(#Adobe_OpacityMaskFilter_00000090270465789255058730000011309553659663345580_);}
	
		.st262{mask:url(#SVGID_00000126309893068303830260000015527710635751202488_);fill:url(#SVGID_00000127727399030727458590000001439603118497014425_);}
	.st263{filter:url(#Adobe_OpacityMaskFilter_00000002371879360047467180000002761965052320402586_);}
	.st264{filter:url(#Adobe_OpacityMaskFilter_00000070810561119023341620000003766922402562759327_);}
	
		.st265{mask:url(#SVGID_00000143580383660340492690000001745585440416479378_);fill:url(#SVGID_00000148643112659580501110000016630343601060284289_);}
	.st266{filter:url(#Adobe_OpacityMaskFilter_00000142146723107834298300000010292093409254565311_);}
	.st267{filter:url(#Adobe_OpacityMaskFilter_00000106826752196928640540000009079024608626016172_);}
	
		.st268{mask:url(#SVGID_00000123420408202330485780000013894334058195900308_);fill:url(#SVGID_00000116212935730334494840000011263489938514589825_);}
	.st269{filter:url(#Adobe_OpacityMaskFilter_00000183232853022662231600000004011870875117008797_);}
	.st270{filter:url(#Adobe_OpacityMaskFilter_00000054259714417390897930000005797018758437734550_);}
	
		.st271{mask:url(#SVGID_00000115514691607660927340000009174047884730579620_);fill:url(#SVGID_00000051373869923611126590000000832792819256582021_);}
	.st272{opacity:0.8;}
	.st273{filter:url(#Adobe_OpacityMaskFilter_00000085229051239027688670000003061007825467727788_);}
	.st274{filter:url(#Adobe_OpacityMaskFilter_00000072276327866736922820000009856834054691652995_);}
	
		.st275{mask:url(#SVGID_00000176740313040650869440000001970090974772248742_);fill:url(#SVGID_00000170958977116589441300000009005879016758219953_);}
	.st276{fill:none;stroke:#1A1A1A;stroke-width:4;stroke-miterlimit:10;}
	.st277{fill:none;stroke:#60748C;stroke-width:4;stroke-miterlimit:10;}
	.st278{fill:#FFFFFF;stroke:#60748C;stroke-width:3;stroke-miterlimit:10;}
	.st279{fill:#FFFFFF;stroke:#6DC5D8;stroke-width:3;stroke-miterlimit:10;}
	.st280{fill:#6DC5D8;stroke:#FFFFFF;stroke-width:3;stroke-miterlimit:10;}
	.st281{opacity:0.25;}
	.st282{fill:#757577;}
	.st283{fill:#AEAEAE;}
	.st284{fill:#C1252D;stroke:#FFFFFF;stroke-width:3;stroke-miterlimit:10;}
	.st285{fill:#1A1A1A;stroke:#FFFFFF;stroke-width:3;stroke-miterlimit:10;}
	.st286{fill:none;stroke:#000000;stroke-width:10;stroke-linecap:round;stroke-miterlimit:10;}
	.st287{fill:none;stroke:#45AD4B;stroke-width:6;stroke-miterlimit:10;}
	.st288{fill:none;stroke:#6DC5D8;stroke-width:6;stroke-miterlimit:10;}
	.st289{fill:none;stroke:#60748C;stroke-width:6;stroke-miterlimit:10;}
	.st290{fill:none;stroke:#000000;stroke-width:6;stroke-miterlimit:10;}
	.st291{fill:#60748C;stroke:#FFFFFF;stroke-width:4;stroke-miterlimit:10;}
	.st292{fill:none;stroke:#000000;stroke-width:7;stroke-linecap:round;stroke-miterlimit:10;}
	.st293{fill-rule:evenodd;clip-rule:evenodd;fill:none;stroke:#000000;stroke-width:4;stroke-miterlimit:10;}
	.st294{fill:none;stroke:#000000;stroke-width:4;stroke-miterlimit:10;}
	.st295{fill:none;stroke:#000000;stroke-width:4;stroke-linecap:round;stroke-miterlimit:10;}
	.st296{fill-rule:evenodd;clip-rule:evenodd;stroke:#FFFFFF;stroke-miterlimit:10;}
	.st297{clip-path:url(#SVGID_00000164483322038047737990000018064390482567981465_);}
	.st298{fill:#1A1A1A;stroke:#1A1A1A;stroke-miterlimit:10;}
	.st299{stroke:#000000;stroke-miterlimit:10;}
	.st300{clip-path:url(#SVGID_00000090270323787084739280000018396769263352411312_);}
	.st301{fill:#60748C;stroke:#60748C;stroke-miterlimit:10;}
</style>
<path class="st96" d="M39.72,9.02H22.93c-3.02,0-5.92,1.2-8.05,3.34s-3.34,5.03-3.34,8.05v23.98c0,3.02,1.2,5.92,3.34,8.05
	s5.03,3.34,8.05,3.34h23.98c3.02,0,5.92-1.2,8.05-3.34s3.34-5.03,3.34-8.05c0-7.54,0-17.85,0-17.85c0-0.99-0.81-1.8-1.8-1.8
	s-1.8,0.81-1.8,1.8v17.85c0,2.07-0.82,4.05-2.28,5.51c-1.46,1.46-3.44,2.28-5.51,2.28H22.93c-2.07,0-4.05-0.82-5.51-2.28
	c-1.46-1.46-2.28-3.44-2.28-5.51c0-7.14,0-16.84,0-23.98c0-2.07,0.82-4.05,2.28-5.51c1.46-1.46,3.44-2.28,5.51-2.28h16.78
	c0.99,0,1.8-0.81,1.8-1.8S40.71,9.02,39.72,9.02L39.72,9.02z"/>
<g>
	<g>
		<path class="st21" d="M33.55,20.74c0-3.92-3.19-7.11-7.11-7.11c-3.92,0-7.11,3.19-7.11,7.11c0,2,0.83,3.8,2.16,5.09l-0.01,0.01
			l4.94,4.82l5-4.85l0,0C32.73,24.52,33.55,22.73,33.55,20.74z M26.44,17c2.06,0,3.74,1.68,3.74,3.74s-1.68,3.74-3.74,3.74
			c-2.06,0-3.74-1.68-3.74-3.74S24.38,17,26.44,17z"/>
	</g>
</g>
<g>
	<defs>
		<polygon id="SVGID_00000046327619789914742670000016579485472034342313_" points="54.38,51.43 51.9,53.94 18.21,53.94 
			15.13,50.96 12.67,45.4 12.67,10.76 56.56,10.76 56.56,47.3 		"/>
	</defs>
	<clipPath id="SVGID_00000093157132176870936160000003332493559043122568_">
		<use xlink:href="#SVGID_00000046327619789914742670000016579485472034342313_"  style="overflow:visible;"/>
	</clipPath>
	<g style="clip-path:url(#SVGID_00000093157132176870936160000003332493559043122568_);">
		<path class="st301" d="M48.44,39.63c-0.57-0.57-0.57-1.5,0-2.07l21.67-21.67c0.5-0.5,0.5-1.31,0-1.82c-0.5-0.5-1.31-0.5-1.82,0
			L46.62,35.75c-1.57,1.57-1.57,4.13,0,5.7L72.08,66.9c0.25,0.25,0.58,0.38,0.91,0.38s0.66-0.13,0.91-0.38c0.5-0.5,0.5-1.31,0-1.82
			L48.44,39.63z"/>
		<path class="st301" d="M42.96,43.9c-1.57-1.57-4.13-1.57-5.7,0L11.81,69.36c-0.5,0.5-0.5,1.31,0,1.82c0.5,0.5,1.31,0.5,1.82,0
			l25.46-25.46c0.57-0.57,1.5-0.57,2.07,0l25.46,25.46c0.25,0.25,0.58,0.38,0.91,0.38s0.66-0.13,0.91-0.38c0.5-0.5,0.5-1.31,0-1.82
			L42.96,43.9z"/>
		<path class="st301" d="M25.23,44.39L3.44,22.6c-0.5-0.5-1.31-0.5-1.82,0c-0.5,0.5-0.5,1.31,0,1.82l21.79,21.79
			c0.79,0.79,1.82,1.18,2.85,1.18c1.03,0,2.06-0.39,2.85-1.18l19.68-19.39c0.5-0.5,0.5-1.31,0-1.82c-0.5-0.5-1.31-0.5-1.82,0
			L27.3,44.39C26.73,44.96,25.8,44.96,25.23,44.39z"/>
		<path class="st301" d="M24.96,34.71L3.17,12.92c-0.5-0.5-1.31-0.5-1.82,0c-0.5,0.5-0.5,1.31,0,1.82l21.79,21.79
			c0.79,0.79,1.82,1.18,2.85,1.18c1.03,0,2.06-0.39,2.85-1.18l15.2-15.31c0.5-0.5,0.5-1.31,0-1.82c-0.5-0.5-1.31-0.5-1.82,0
			l-15.2,15.31C26.45,35.28,25.53,35.28,24.96,34.71z"/>
		<path class="st299" d="M68.24,34.68c-0.28-0.28-0.43-0.64-0.43-1.03c0-0.39,0.15-0.76,0.43-1.03l9.7-9.7c0.5-0.5,0.5-1.31,0-1.82
			c-0.5-0.5-1.31-0.5-1.82,0l-9.7,9.7c-0.76,0.76-1.18,1.77-1.18,2.85c0,1.08,0.42,2.09,1.18,2.85l9.7,9.7
			c0.25,0.25,0.58,0.38,0.91,0.38c0.33,0,0.66-0.13,0.91-0.38c0.5-0.5,0.5-1.31,0-1.82L68.24,34.68z"/>
	</g>
</g>
<path class="st96" d="M49.91,10.81v9.59c0,0.99,0.81,1.8,1.8,1.8s1.8-0.81,1.8-1.8v-9.59c0-0.99-0.81-1.8-1.8-1.8
	S49.91,9.82,49.91,10.81z"/>
<path class="st96" d="M46.91,17.41h9.59c0.99,0,1.8-0.81,1.8-1.8s-0.81-1.8-1.8-1.8h-9.59c-0.99,0-1.8,0.81-1.8,1.8
	S45.92,17.41,46.91,17.41z"/>
</svg>
