<?xml version="1.0" encoding="utf-8"?>
<!-- Generator: Adobe Illustrator 27.2.0, SVG Export Plug-In . SVG Version: 6.00 Build 0)  -->
<svg version="1.1" id="Ebene_1" xmlns="http://www.w3.org/2000/svg" xmlns:xlink="http://www.w3.org/1999/xlink" x="0px" y="0px"
	 viewBox="0 0 64.04 62.65" style="enable-background:new 0 0 64.04 62.65;" xml:space="preserve">
<style type="text/css">
	.st0{fill:#1A1A1A;}
</style>
<path class="st0" d="M29.55,43.44c0.89,0.89,2.06,1.37,3.3,1.37c1.25,0,2.43-0.49,3.3-1.37l6.06-6.06c0.94-0.94,0.94-2.47,0-3.41
	s-2.47-0.94-3.41,0l-3.55,3.56V17.99c0-1.33-1.08-2.41-2.41-2.41s-2.41,1.08-2.41,2.41v19.54l-3.56-3.56
	c-0.94-0.94-2.47-0.94-3.41,0s-0.94,2.47,0,3.41L29.55,43.44z"/>
<g>
	<g>
		<g>
			<path class="st0" d="M17.29,16.96c3.76-4.18,9.21-6.82,15.27-6.82c0.89,0,1.76,0.06,2.61,0.17l1.66-5.06
				c-1.39-0.23-2.81-0.36-4.27-0.36c-8.68,0-16.37,4.32-21.05,10.91L17.29,16.96z"/>
			<path class="st0" d="M22.22,48.42c-6.1-3.57-10.2-10.18-10.2-17.74c0-4.63,1.54-8.9,4.13-12.34l-5.58-1.12
				c-2.41,3.92-3.8,8.53-3.8,13.47c0,10.23,5.99,19.09,14.65,23.26L22.22,48.42z"/>
			<path class="st0" d="M30.9,51.15c-2.56-0.21-4.99-0.88-7.21-1.94l-0.78,5.39c2.98,1.21,6.24,1.88,9.65,1.88
				c0.42,0,0.83-0.01,1.25-0.03L30.9,51.15z"/>
		</g>
	</g>
	<path class="st0" d="M54.52,17.13l-0.02,0.01c-3.55-5.73-9.28-9.97-16.03-11.56l-1.71,4.99c6.02,1.25,11.06,5.14,13.89,10.39
		c0.01,0,0.01,0,0.02,0c2.31,4.3,2.98,9.24,2.02,13.91l0,0c-0.61,2.93-1.84,5.62-3.55,7.94l0,0c-1.16,1.57-2.53,2.98-4.08,4.17
		c-0.12,0.09-0.24,0.17-0.36,0.26c-0.18,0.13-0.36,0.27-0.55,0.4s-0.38,0.25-0.57,0.37c-0.12,0.08-0.25,0.16-0.37,0.24
		c-0.23,0.14-0.45,0.27-0.69,0.39c-2.93,1.63-6.3,2.57-9.89,2.58l2.69,5.1c4.28-0.45,8.24-1.96,11.63-4.24
		c0.01,0,0.01-0.01,0.02-0.01c0.23-0.16,0.46-0.32,0.69-0.48c0.03-0.02,0.06-0.04,0.08-0.06c0.2-0.15,0.41-0.3,0.61-0.46
		c0.05-0.04,0.1-0.07,0.14-0.11c0.18-0.14,0.35-0.28,0.53-0.43c0.07-0.06,0.13-0.11,0.2-0.17c0.15-0.13,0.3-0.26,0.45-0.39
		c0.09-0.08,0.17-0.15,0.26-0.23c0.13-0.11,0.25-0.23,0.37-0.35c0.1-0.1,0.21-0.2,0.31-0.3c0.1-0.1,0.2-0.2,0.3-0.3
		c0.12-0.12,0.24-0.24,0.36-0.37c0.08-0.08,0.15-0.16,0.23-0.24c0.14-0.15,0.27-0.29,0.4-0.45c0.05-0.06,0.1-0.12,0.16-0.18
		c0.15-0.17,0.3-0.35,0.45-0.53c0.03-0.04,0.06-0.07,0.09-0.11c0.17-0.2,0.33-0.41,0.49-0.62c0.01-0.01,0.02-0.02,0.03-0.04
		c0.33-0.43,0.64-0.87,0.94-1.32c0,0.02-0.01,0.05-0.01,0.07C59.65,36.63,59.82,25.67,54.52,17.13z"/>
</g>
</svg>
