<?xml version="1.0" encoding="utf-8"?>
<!-- Generator: Adobe Illustrator 27.2.0, SVG Export Plug-In . SVG Version: 6.00 Build 0)  -->
<svg version="1.1" id="Ebene_1" xmlns="http://www.w3.org/2000/svg" xmlns:xlink="http://www.w3.org/1999/xlink" x="0px" y="0px"
	 viewBox="0 0 543.97 301.5" style="enable-background:new 0 0 543.97 301.5;" xml:space="preserve">
<style type="text/css">
	.st0{opacity:0.7;fill:#60748C;}
	.st1{fill:#A4C748;}
	.st2{fill:#ECECEC;}
	.st3{fill:none;stroke:#FFFFFF;stroke-width:5;stroke-miterlimit:10;}
	.st4{fill:#A3C648;}
	.st5{opacity:0.25;fill:#60748C;}
	.st6{opacity:0.34;fill:#60748C;}
	.st7{fill:#60748C;}
	.st8{stroke:#FFFFFF;stroke-width:0.5;stroke-miterlimit:10;}
	.st9{fill:#FFFFFF;}
	.st10{fill:#EDEDED;}
	.st11{opacity:0.1;fill:#546579;stroke:#60748C;stroke-width:1.0251;stroke-miterlimit:10;}
	.st12{opacity:0.1;fill:#546579;stroke:#282F39;stroke-width:1.0251;stroke-miterlimit:10;}
	.st13{opacity:0.1;fill:#546579;stroke:#546579;stroke-width:1.0251;stroke-miterlimit:10;}
	.st14{fill:#60748C;stroke:#60748C;stroke-width:0.9491;stroke-miterlimit:10;}
	.st15{fill:#282F39;}
	.st16{fill:#45AD4B;stroke:#45AD4B;stroke-width:0.8985;stroke-miterlimit:10;}
	.st17{fill:#6DC5D8;stroke:#6DC5D8;stroke-width:0.9491;stroke-miterlimit:10;}
	.st18{fill:#282F39;stroke:#FFFFFF;stroke-width:1.0437;stroke-miterlimit:10;}
	.st19{fill:#45AD4B;stroke:#45AD4B;stroke-width:0.9491;stroke-miterlimit:10;}
	.st20{fill:#45AD4B;stroke:#45AD4B;stroke-width:0.9119;stroke-miterlimit:10;}
	.st21{fill:#C1252D;stroke:#C1252D;stroke-width:0.9491;stroke-miterlimit:10;}
	.st22{fill:#C1252D;}
	.st23{fill:#C1252D;stroke:#C1252D;stroke-width:1.0339;stroke-miterlimit:10;}
	.st24{fill:#C1252D;stroke:#C1252D;stroke-width:0.8834;stroke-miterlimit:10;}
	.st25{fill:none;stroke:#282F39;stroke-width:2;stroke-linecap:round;stroke-linejoin:round;stroke-miterlimit:10;}
	.st26{fill:#45AD4B;}
	.st27{fill:#45AB4B;}
	.st28{fill:#6DC5D8;}
	.st29{opacity:0.1;}
	.st30{fill:#5B7188;}
	.st31{fill:#97A2AF;}
	.st32{fill:#BABBBC;}
	.st33{fill:#5B7185;}
	.st34{fill:#A0C348;}
	.st35{fill:#45A84B;}
	.st36{fill:#BC252D;}
	.st37{fill:#6DC0D3;}
	.st38{fill:none;stroke:#C7D3D7;stroke-miterlimit:10;}
	.st39{opacity:0.1;fill:#757577;}
	.st40{fill:none;stroke:#FFFFFF;stroke-miterlimit:10;}
	.st41{opacity:0.6;}
	.st42{fill:#F1F3F4;}
	.st43{fill:none;stroke:#F1F3F4;stroke-miterlimit:10;}
	.st44{fill:#E8EAED;}
	.st45{fill:#F1F1F1;}
	.st46{fill:#646768;}
	.st47{opacity:0.25;fill:#757577;}
	.st48{fill:none;stroke:#6DC5D8;stroke-width:3;stroke-miterlimit:10;}
	.st49{fill:none;stroke:#C1252D;stroke-width:3;stroke-miterlimit:10;}
	.st50{fill:none;stroke:#45AD4B;stroke-width:3;stroke-miterlimit:10;}
	.st51{fill:#E7E7E7;}
	.st52{clip-path:url(#SVGID_00000078726585821448322730000008517356803327443381_);}
	.st53{clip-path:url(#SVGID_00000078726585821448322730000008517356803327443381_);fill:#F1F1F1;}
	.st54{clip-path:url(#SVGID_00000093857875046505612700000015595826025133611404_);}
	.st55{fill:#FEF9E8;}
	.st56{fill:#CEEAD6;}
	.st57{fill:#FCE8E6;}
	.st58{fill:none;stroke:#9CC0F9;stroke-width:3;stroke-miterlimit:10;}
	.st59{fill:none;stroke:#9CC0F9;stroke-miterlimit:10;}
	.st60{opacity:0.5;fill:#757577;}
	.st61{clip-path:url(#SVGID_00000078726585821448322730000008517356803327443381_);fill:#FFFFFF;}
	.st62{fill:none;stroke:#C1252D;stroke-width:9;stroke-miterlimit:10;}
	.st63{fill:none;stroke:#E7E7E7;stroke-width:9;stroke-miterlimit:10;}
	.st64{fill:none;stroke:#FFFFFF;stroke-width:3;stroke-miterlimit:10;}
	.st65{fill:none;stroke:#45AD4B;stroke-width:9;stroke-miterlimit:10;}
	.st66{fill:none;stroke:#6DC5D8;stroke-width:1.5;stroke-miterlimit:10;}
	.st67{opacity:0.25;clip-path:url(#SVGID_00000078726585821448322730000008517356803327443381_);fill:#757577;}
	.st68{fill:#292929;}
	.st69{fill-rule:evenodd;clip-rule:evenodd;}
	.st70{fill:#FF7578;}
	.st71{fill:#FFC9CA;}
	.st72{fill:#173042;}
	.st73{fill:#946B6B;}
	.st74{fill:none;}
	.st75{fill:#FFFFFF;stroke:#FFFFFF;stroke-width:7;stroke-miterlimit:10;}
	.st76{fill:#444444;}
	.st77{fill:#F73103;}
	.st78{fill:#FFBB39;}
	.st79{fill:#398229;}
	.st80{fill:#DE0505;}
	.st81{fill:#FF804E;}
	.st82{fill:#7ED668;}
	.st83{fill:#BF252D;}
	.st84{fill:#D4894D;}
	.st85{fill:#AD5512;}
	.st86{fill:#FF00FF;}
	.st87{fill:#FF3D75;}
	.st88{fill:#F28E1E;}
	.st89{fill:#2B6E53;}
	.st90{fill:#399150;}
	.st91{fill:#6A4A1D;}
	.st92{fill:#6DC3D6;}
	.st93{clip-path:url(#SVGID_00000158024447984113342660000015040416141241660044_);}
	.st94{clip-path:url(#SVGID_00000003064680519034568340000018332621084321480347_);}
	.st95{fill:#333333;}
	.st96{fill:url(#SVGID_00000140000946598400123170000007720652568934116497_);}
	.st97{fill:url(#SVGID_00000144298642589023563250000015321774000913786537_);}
	.st98{opacity:0.08;}
	.st99{fill:url(#SVGID_00000106116206491137015300000003973351171704420761_);}
	.st100{fill-rule:evenodd;clip-rule:evenodd;fill:#1A1A1A;}
	.st101{fill:#1A1A1A;}
	.st102{fill-rule:evenodd;clip-rule:evenodd;fill:#60748C;}
	.st103{fill:#FCEED7;}
	.st104{fill:#FBD18B;}
	.st105{fill:#DEE1E5;}
	.st106{fill:#ED8D80;}
	.st107{fill:#E97361;}
	.st108{fill:#AE5649;}
	.st109{fill:#CACED5;}
	.st110{fill:#A8B0BB;}
	.st111{fill:#CACFD7;}
	.st112{fill:#EABF9A;}
	.st113{fill:#E4E7EB;}
	.st114{fill:#69D4F2;}
	.st115{fill:#B2DB7F;}
	.st116{fill:#9ED268;}
	.st117{fill:#F8F8F8;}
	.st118{fill:#F0F0F0;}
	.st119{fill:#738DBD;}
	.st120{fill:#E46D67;}
	.st121{fill:#24C1F0;}
	.st122{fill:#36B183;}
	.st123{fill:#FFB866;}
	.st124{fill:#FFD873;}
	.st125{fill-rule:evenodd;clip-rule:evenodd;fill:#485156;}
	.st126{fill:#58595B;}
	.st127{fill:#BF252D;stroke:#BF252D;stroke-width:2;stroke-miterlimit:10;}
	.st128{fill:#FFFFFF;stroke:#BF252D;stroke-width:4;stroke-linecap:round;stroke-linejoin:round;stroke-miterlimit:10;}
	.st129{fill-rule:evenodd;clip-rule:evenodd;fill:#BF252D;}
	.st130{fill:none;stroke:#FFFFFF;stroke-miterlimit:10;stroke-dasharray:1.0108,1.0108;}
	.st131{fill:none;stroke:#45AD4B;stroke-width:4;stroke-miterlimit:10;}
	.st132{fill:none;stroke:#C1252D;stroke-width:4;stroke-miterlimit:10;}
	.st133{opacity:0.2;fill:#45AD4B;}
	.st134{opacity:0.6;fill:#45AD4B;}
	.st135{fill:#44A049;}
	.st136{clip-path:url(#SVGID_00000065753339336424363120000007435013038499478408_);}
	.st137{opacity:0.5;fill:#45AD4B;}
	.st138{opacity:0.2;fill:#E7E7E7;}
	.st139{opacity:0.5;fill:#E7E7E7;}
	.st140{opacity:0.5;fill:#FFFFFF;}
	.st141{opacity:0.2;fill:#6DC5D8;}
	.st142{fill:none;stroke:#FFFFFF;stroke-width:2.5;stroke-miterlimit:10;}
	.st143{fill:none;stroke:#BF252D;stroke-width:5;stroke-miterlimit:10;}
	.st144{fill:#BF252D;stroke:#FFFFFF;stroke-width:3;stroke-miterlimit:10;}
	.st145{fill:#FFFFFF;stroke:#FFFFFF;stroke-width:5.5;stroke-miterlimit:10;}
	.st146{fill:none;stroke:#BF252D;stroke-width:3;stroke-miterlimit:10;}
	.st147{fill:#BF252D;stroke:#FFFFFF;stroke-width:4.5;stroke-miterlimit:10;}
	.st148{fill:#BF252D;stroke:#FFFFFF;stroke-miterlimit:10;}
	.st149{fill:#F7E921;}
	.st150{fill:#6E81B5;}
	.st151{fill:#466087;}
	.st152{fill:#FFAEA8;}
	.st153{fill:#FFE152;}
	.st154{fill:#96C869;}
	.st155{fill:#ADB3BD;}
	.st156{fill:#CACED8;}
	.st157{fill:#40CAEF;}
	.st158{fill:#276F80;}
	.st159{fill:#878F9E;}
	.st160{fill:#EEF0F3;}
	.st161{fill:#1E505B;}
	.st162{fill:#9C80EA;}
	.st163{fill:#FAC955;}
	.st164{clip-path:url(#SVGID_00000034791420511085682550000004727810878219759537_);}
	.st165{fill:#E5EAEB;}
	.st166{fill:#ADB4B9;}
	.st167{fill:#495D72;}
	.st168{fill:#28384C;}
	.st169{fill:#E9B816;}
	.st170{fill:#DB352E;}
	.st171{fill:#366DB4;}
	.st172{fill:#753489;}
	.st173{fill:#57A9BF;}
	.st174{fill:#25AC86;}
	.st175{fill:#F56363;}
	.st176{fill:#BD5A45;}
	.st177{fill:#F0EABD;}
	.st178{fill:#EB8819;}
	.st179{fill:#C3411E;}
	.st180{fill:#205B75;}
	.st181{fill:#C8D9E8;}
	.st182{fill:#A9B9CA;}
	.st183{fill:#114559;}
	.st184{fill:#DFE8F2;}
	.st185{fill:#E3B933;}
	.st186{fill:#E96374;}
	.st187{fill:#80EAFF;}
	.st188{fill:#FFFFFF;stroke:#C1252D;stroke-width:7;stroke-miterlimit:10;}
	.st189{fill:#FFFFFF;stroke:#45AD4B;stroke-width:7;stroke-miterlimit:10;}
	.st190{fill:#B4BCBD;}
	.st191{fill:#CED7DA;}
	.st192{fill:none;stroke:#45AD4B;stroke-width:2;stroke-miterlimit:10;}
	.st193{fill:#6DC3D6;stroke:#FFFFFF;stroke-width:0.1;stroke-miterlimit:10;}
	.st194{fill:#C1252D;stroke:#FFFFFF;stroke-width:0.1;stroke-miterlimit:10;}
	.st195{fill:#A3C648;stroke:#FFFFFF;stroke-width:0.1;stroke-miterlimit:10;}
	.st196{fill:#45AB4B;stroke:#FFFFFF;stroke-width:0.1;stroke-miterlimit:10;}
	.st197{fill:none;stroke:#60748C;stroke-linecap:round;stroke-linejoin:round;stroke-miterlimit:10;stroke-dasharray:2,4;}
	.st198{fill:#F0F0F0;stroke:#C1252D;stroke-width:7;stroke-miterlimit:10;}
	.st199{fill:#F0F0F0;stroke:#45AD4B;stroke-width:7;stroke-miterlimit:10;}
	.st200{opacity:0.3;}
	.st201{opacity:0.3;fill:#5B7188;}
	.st202{fill:#EDEDED;stroke:#C1252D;stroke-width:6;stroke-miterlimit:10;}
	.st203{fill:#5B7188;stroke:#EDEDED;stroke-miterlimit:10;}
	.st204{fill:#EDEDED;stroke:#45AD4B;stroke-width:6;stroke-miterlimit:10;}
	.st205{fill:#FFFFFF;stroke:#C1252D;stroke-width:6;stroke-miterlimit:10;}
	.st206{fill:#FFFFFF;stroke:#45AD4B;stroke-width:6;stroke-miterlimit:10;}
	.st207{fill:none;stroke:#6DC5D8;stroke-linecap:round;stroke-linejoin:round;}
	.st208{fill:none;stroke:#6DC5D8;stroke-linecap:round;stroke-linejoin:round;stroke-dasharray:4.8937,7.8299;}
	.st209{fill:none;stroke:#6DC5D8;stroke-linecap:round;stroke-linejoin:round;stroke-dasharray:5.1322,8.2115;}
	.st210{fill:none;stroke:#6DC5D8;stroke-linecap:round;stroke-linejoin:round;stroke-miterlimit:10;stroke-dasharray:5,8;}
	.st211{fill:#45AC4B;}
	.st212{fill:#C0252D;}
	.st213{fill:#6DC4D7;}
	.st214{fill:#5B7189;}
	.st215{fill:none;stroke:#60748C;stroke-width:1.5;stroke-miterlimit:10;}
	.st216{opacity:0.4;}
	.st217{fill:none;stroke:#60748C;stroke-width:2;stroke-linecap:round;stroke-linejoin:round;stroke-miterlimit:10;}
	.st218{opacity:0.54;fill:#FFFFFF;}
	.st219{clip-path:url(#SVGID_00000045584666269477573440000003587487264198426543_);}
	.st220{opacity:0.5;fill:#5B7188;}
	.st221{opacity:0.1;fill:#60748C;}
	.st222{clip-path:url(#SVGID_00000037686888413074867440000011184921686109117849_);}
	.st223{display:none;}
	.st224{display:inline;fill:#FFFFFF;}
	.st225{display:inline;fill:#090C11;}
	.st226{display:inline;fill:#4A596E;}
	.st227{fill:#546579;}
	.st228{fill:#6F88A6;}
	.st229{opacity:0.1;fill:none;stroke:#FFFFFF;stroke-miterlimit:10;}
	.st230{display:none;fill:#6DC5D8;}
	.st231{opacity:0.45;fill:#60748C;}
	.st232{opacity:0.03;clip-path:url(#SVGID_00000123437817011794957530000011768293768334049457_);}
	.st233{clip-path:url(#SVGID_00000123437817011794957530000011768293768334049457_);}
	
		.st234{clip-path:url(#SVGID_00000123437817011794957530000011768293768334049457_);fill:#FFFFFF;stroke:#60748C;stroke-width:1.5;stroke-miterlimit:10;}
	.st235{opacity:0.4;clip-path:url(#SVGID_00000123437817011794957530000011768293768334049457_);}
	.st236{clip-path:url(#SVGID_00000026851811958577508670000012859686972689766037_);}
	.st237{opacity:0.05;clip-path:url(#SVGID_00000026851811958577508670000012859686972689766037_);}
	.st238{fill:#575756;}
	
		.st239{clip-path:url(#SVGID_00000026851811958577508670000012859686972689766037_);fill:#FFFFFF;stroke:#60748C;stroke-width:1.5;stroke-miterlimit:10;}
	.st240{opacity:0.4;clip-path:url(#SVGID_00000026851811958577508670000012859686972689766037_);}
	.st241{fill:#FFFFFF;stroke:#60748C;stroke-width:1.5;stroke-miterlimit:10;}
	.st242{fill:#A5C848;}
	.st243{opacity:0.2;}
	.st244{clip-path:url(#SVGID_00000099635985773945795320000003461082980916311961_);}
	.st245{clip-path:url(#SVGID_00000098209931507261699860000014399604267552737727_);}
	.st246{fill:none;stroke:#60748C;stroke-width:3;stroke-miterlimit:10;}
	.st247{fill:#EDEDED;stroke:#C0252D;stroke-width:3;stroke-miterlimit:10;}
	.st248{clip-path:url(#SVGID_00000060743864528782616690000004208162800036204987_);}
	.st249{opacity:0.1;fill:#546579;}
	.st250{opacity:0.05;}
	.st251{fill:#606060;}
	.st252{opacity:0.15;}
	.st253{opacity:0.5;}
	.st254{fill:#535353;}
	.st255{opacity:0.7;}
	.st256{filter:url(#Adobe_OpacityMaskFilter);}
	.st257{filter:url(#Adobe_OpacityMaskFilter_00000183929509938037980670000010056278699342397115_);}
	
		.st258{mask:url(#SVGID_00000101094626812604951800000014101249763470403981_);fill:url(#SVGID_00000108301571160459248700000004541818064304967300_);}
	.st259{filter:url(#Adobe_OpacityMaskFilter_00000175281166702335636410000000698979766482447271_);}
	.st260{filter:url(#Adobe_OpacityMaskFilter_00000125581322731929687520000017370458295730967454_);}
	
		.st261{mask:url(#SVGID_00000079456450313402958140000007921769429477991849_);fill:url(#SVGID_00000013151089862772888510000017009410684198907296_);}
	.st262{filter:url(#Adobe_OpacityMaskFilter_00000174572624396176558690000017382742977023625635_);}
	.st263{filter:url(#Adobe_OpacityMaskFilter_00000119106118791791855720000003407699840851339924_);}
	
		.st264{mask:url(#SVGID_00000041265428654572921670000001942834546958632588_);fill:url(#SVGID_00000173127800858916367690000012457245530672482951_);}
	.st265{filter:url(#Adobe_OpacityMaskFilter_00000091733890487030290150000009546508848094858426_);}
	.st266{filter:url(#Adobe_OpacityMaskFilter_00000062170917105939157140000014907082494740638086_);}
	
		.st267{mask:url(#SVGID_00000072253702945051425390000001785305382012806815_);fill:url(#SVGID_00000147218505961059259100000008034834464671154067_);}
	.st268{filter:url(#Adobe_OpacityMaskFilter_00000137828292330300753090000015431086990529960331_);}
	.st269{filter:url(#Adobe_OpacityMaskFilter_00000164513487424096652340000004315037532981389729_);}
	
		.st270{mask:url(#SVGID_00000140698281346532068800000000552866445523840145_);fill:url(#SVGID_00000086689860309855715250000016034185303466484392_);}
	.st271{filter:url(#Adobe_OpacityMaskFilter_00000024703330894454545130000006107487796588422075_);}
	.st272{filter:url(#Adobe_OpacityMaskFilter_00000057141467495336083710000004747427645639089027_);}
	
		.st273{mask:url(#SVGID_00000152986731001458691330000012835608932486192517_);fill:url(#SVGID_00000072972169182621546410000010431095458170612903_);}
	.st274{filter:url(#Adobe_OpacityMaskFilter_00000045608459180398637600000017137187943816245161_);}
	.st275{filter:url(#Adobe_OpacityMaskFilter_00000116237210056924639260000002213855388369281956_);}
	
		.st276{mask:url(#SVGID_00000075158155448802415740000006010719454042784930_);fill:url(#SVGID_00000173844334272522201010000005399566711007313582_);}
	.st277{opacity:0.8;}
	.st278{filter:url(#Adobe_OpacityMaskFilter_00000012432839018289431180000001665568271650238337_);}
	.st279{filter:url(#Adobe_OpacityMaskFilter_00000076594632303106029420000013921954492671497135_);}
	
		.st280{mask:url(#SVGID_00000027568745201129271900000010351123674717952426_);fill:url(#SVGID_00000102527996361060700070000012386634566653130113_);}
	.st281{fill:none;stroke:#1A1A1A;stroke-width:4;stroke-miterlimit:10;}
	.st282{fill:none;stroke:#60748C;stroke-width:4;stroke-miterlimit:10;}
	.st283{fill:#FFFFFF;stroke:#60748C;stroke-width:3;stroke-miterlimit:10;}
	.st284{fill:#FFFFFF;stroke:#6DC5D8;stroke-width:3;stroke-miterlimit:10;}
	.st285{fill:#6DC5D8;stroke:#FFFFFF;stroke-width:3;stroke-miterlimit:10;}
	.st286{opacity:0.25;}
	.st287{fill:#757577;}
	.st288{fill:#AEAEAE;}
	.st289{fill:#C1252D;stroke:#FFFFFF;stroke-width:3;stroke-miterlimit:10;}
	.st290{fill:#1A1A1A;stroke:#FFFFFF;stroke-width:3;stroke-miterlimit:10;}
	.st291{fill:none;stroke:#000000;stroke-width:10;stroke-linecap:round;stroke-miterlimit:10;}
	.st292{fill:none;stroke:#45AD4B;stroke-width:6;stroke-miterlimit:10;}
	.st293{fill:none;stroke:#6DC5D8;stroke-width:6;stroke-miterlimit:10;}
	.st294{fill:none;stroke:#60748C;stroke-width:6;stroke-miterlimit:10;}
	.st295{fill:none;stroke:#000000;stroke-width:6;stroke-miterlimit:10;}
	.st296{fill:#60748C;stroke:#FFFFFF;stroke-width:4;stroke-miterlimit:10;}
	.st297{fill:none;stroke:#000000;stroke-width:7;stroke-linecap:round;stroke-miterlimit:10;}
	.st298{fill-rule:evenodd;clip-rule:evenodd;fill:none;stroke:#000000;stroke-width:4;stroke-miterlimit:10;}
	.st299{fill:none;stroke:#000000;stroke-width:4;stroke-miterlimit:10;}
	.st300{fill:none;stroke:#000000;stroke-width:4;stroke-linecap:round;stroke-miterlimit:10;}
	.st301{fill-rule:evenodd;clip-rule:evenodd;stroke:#FFFFFF;stroke-miterlimit:10;}
	.st302{fill:#949494;}
	.st303{clip-path:url(#SVGID_00000150080648468769849730000009239042647747878564_);}
	.st304{fill:#1A1A1A;stroke:#1A1A1A;stroke-miterlimit:10;}
	.st305{stroke:#000000;stroke-miterlimit:10;}
	.st306{clip-path:url(#SVGID_00000160875446569928899910000003403389201645243071_);}
	.st307{fill:#60748C;stroke:#60748C;stroke-miterlimit:10;}
	.st308{fill:#728499;}
	.st309{opacity:0.4;fill:#BF252D;}
	.st310{opacity:0.75;fill:#BF252D;}
	.st311{fill:#C7C7C7;}
	.st312{opacity:0.23;}
	.st313{opacity:0.2;fill:#5B7188;}
	.st314{fill:none;stroke:#FFFFFF;stroke-width:6;stroke-miterlimit:10;}
	.st315{fill:#BF252D;stroke:#FFFFFF;stroke-width:6;stroke-miterlimit:10;}
	.st316{opacity:0.3;fill:#BF252D;}
	.st317{opacity:0.7;fill:#BF252D;}
	.st318{opacity:0.5;fill:#BF252D;}
	.st319{opacity:0.2;fill:#BF252D;}
	.st320{fill:#BF252D;stroke:#FFFFFF;stroke-width:5;stroke-miterlimit:10;}
	.st321{opacity:0.53;fill:#52717F;}
	.st322{opacity:0.36;fill:#60748C;}
	.st323{opacity:0.31;fill:#60748C;}
	.st324{opacity:0.45;fill:#6DC5D8;}
	.st325{fill:#E81C24;}
	.st326{fill:#D4DB21;}
	.st327{fill:#F6AB3B;}
	.st328{opacity:0.8;fill:#60748C;}
	.st329{opacity:0.61;fill:#60748C;}
	.st330{opacity:0.12;fill:#6DC5D8;}
	.st331{fill:none;stroke:#6DC5D8;stroke-width:4;stroke-miterlimit:10;}
	.st332{fill:none;stroke:#A4C748;stroke-width:4;stroke-miterlimit:10;}
	.st333{fill:#C1252D;stroke:#C1252D;stroke-width:4;stroke-miterlimit:10;}
	.st334{fill:none;stroke:#FFFFFF;stroke-width:2;stroke-linecap:round;stroke-miterlimit:10;stroke-dasharray:3.9843,5.9765;}
	.st335{fill:none;stroke:#60748C;stroke-width:3;stroke-linecap:round;stroke-miterlimit:10;stroke-dasharray:0.4961,6.945;}
	.st336{fill:none;stroke:#FFFFFF;stroke-width:2;stroke-linecap:round;stroke-miterlimit:10;stroke-dasharray:4.0153,6.023;}
	.st337{fill:none;stroke:#60748C;stroke-width:3;stroke-linecap:round;stroke-miterlimit:10;stroke-dasharray:0.4971,6.9599;}
	.st338{opacity:0.47;fill:#60748C;}
	.st339{fill:none;stroke:#D01519;stroke-miterlimit:10;}
	.st340{clip-path:url(#SVGID_00000026863911725674545920000007119838916034406539_);}
	.st341{clip-path:url(#SVGID_00000100384747392426556470000012278906186625067661_);}
	.st342{fill:#ECECEC;stroke:#FFFFFF;stroke-width:10;stroke-miterlimit:10;}
	.st343{clip-path:url(#SVGID_00000163055854727174126550000011307056339697286820_);}
	.st344{clip-path:url(#SVGID_00000070086092264369256250000017984912944740242594_);}
	.st345{clip-path:url(#SVGID_00000174581611092289018560000017846669522541925028_);}
	.st346{clip-path:url(#SVGID_00000137118289002246062320000001571340432159543971_);}
	.st347{fill:none;stroke:#5B7188;stroke-width:3;stroke-miterlimit:10;stroke-dasharray:9,8;}
	.st348{clip-path:url(#SVGID_00000143595007285380544070000002927087428932384133_);}
	.st349{clip-path:url(#SVGID_00000139292838632654906860000003687666649126250141_);}
</style>
<circle class="st0" cx="52.27" cy="194.95" r="20.83"/>
<circle class="st1" cx="52.27" cy="129.69" r="20.83"/>
<g>
	<g>
		<g>
			<path class="st92" d="M259.99,53.66c4.09-4.55,10.02-7.41,16.6-7.41c0.96,0,1.91,0.07,2.84,0.19l1.8-5.5
				c-1.51-0.25-3.06-0.39-4.64-0.39c-9.44,0-17.79,4.69-22.88,11.86L259.99,53.66z"/>
			<path class="st92" d="M265.35,87.85c-6.63-3.88-11.09-11.07-11.09-19.28c0-5.03,1.67-9.68,4.49-13.42l-6.07-1.22
				c-2.62,4.26-4.14,9.28-4.14,14.64c0,11.12,6.51,20.76,15.93,25.28L265.35,87.85z"/>
			<path class="st92" d="M274.79,90.82c-2.79-0.22-5.43-0.95-7.83-2.11l-0.85,5.85c3.24,1.31,6.78,2.04,10.48,2.04
				c0.45,0,0.91-0.01,1.36-0.03L274.79,90.82z"/>
		</g>
	</g>
	<path class="st92" d="M300.46,53.84l-0.02,0.01c-3.86-6.23-10.08-10.84-17.43-12.56l-1.86,5.43c6.54,1.36,12.02,5.58,15.1,11.3
		c0.01,0,0.01,0,0.02,0c2.51,4.67,3.24,10.04,2.19,15.12l-0.01,0c-0.66,3.18-2.01,6.11-3.86,8.64c0,0,0,0,0,0
		c-1.26,1.71-2.75,3.24-4.44,4.53c-0.13,0.1-0.26,0.19-0.39,0.28c-0.2,0.15-0.4,0.29-0.6,0.43c-0.2,0.14-0.41,0.27-0.62,0.4
		c-0.14,0.09-0.27,0.18-0.41,0.26c-0.24,0.15-0.49,0.29-0.75,0.43c-3.19,1.77-6.85,2.79-10.75,2.8l2.93,5.55
		c4.65-0.49,8.95-2.13,12.64-4.61c0.01,0,0.01-0.01,0.02-0.02c0.25-0.17,0.5-0.35,0.75-0.52c0.03-0.02,0.06-0.04,0.09-0.07
		c0.22-0.16,0.44-0.33,0.66-0.5c0.05-0.04,0.1-0.08,0.16-0.12c0.19-0.15,0.38-0.31,0.57-0.46c0.07-0.06,0.15-0.12,0.22-0.18
		c0.16-0.14,0.33-0.28,0.49-0.42c0.09-0.08,0.19-0.16,0.28-0.25c0.14-0.12,0.27-0.25,0.4-0.38c0.11-0.11,0.23-0.21,0.34-0.32
		c0.11-0.11,0.22-0.21,0.32-0.32c0.13-0.13,0.26-0.26,0.39-0.4c0.08-0.09,0.16-0.18,0.25-0.26c0.15-0.16,0.3-0.32,0.44-0.48
		c0.06-0.06,0.11-0.13,0.17-0.2c0.16-0.19,0.33-0.38,0.49-0.58c0.03-0.04,0.06-0.08,0.1-0.12c0.18-0.22,0.36-0.44,0.53-0.67
		c0.01-0.01,0.02-0.03,0.03-0.04c0.36-0.47,0.7-0.94,1.03-1.43c0,0.03-0.01,0.05-0.01,0.08C306.04,75.04,306.22,63.13,300.46,53.84z
		"/>
</g>
<g>
	<g>
		<g>
			<path class="st92" d="M258.66,116.77c4.09-4.55,10.02-7.41,16.6-7.41c0.96,0,1.91,0.07,2.84,0.19l1.8-5.5
				c-1.51-0.25-3.06-0.39-4.64-0.39c-9.44,0-17.79,4.69-22.88,11.86L258.66,116.77z"/>
			<path class="st92" d="M264.03,150.96c-6.63-3.88-11.09-11.07-11.09-19.28c0-5.03,1.67-9.68,4.49-13.42l-6.07-1.22
				c-2.62,4.26-4.14,9.28-4.14,14.64c0,11.12,6.51,20.76,15.93,25.28L264.03,150.96z"/>
			<path class="st92" d="M273.47,153.93c-2.79-0.22-5.43-0.95-7.83-2.11l-0.85,5.85c3.24,1.31,6.78,2.04,10.48,2.04
				c0.45,0,0.91-0.01,1.36-0.03L273.47,153.93z"/>
		</g>
	</g>
	<path class="st92" d="M299.14,116.95l-0.02,0.01c-3.86-6.23-10.08-10.84-17.43-12.56l-1.86,5.43c6.54,1.36,12.02,5.58,15.1,11.3
		c0.01,0,0.01,0,0.02,0c2.51,4.67,3.24,10.04,2.19,15.12l-0.01,0c-0.66,3.18-2.01,6.11-3.86,8.64c0,0,0,0,0,0
		c-1.26,1.71-2.75,3.24-4.44,4.53c-0.13,0.1-0.26,0.19-0.39,0.28c-0.2,0.15-0.4,0.29-0.6,0.43c-0.2,0.14-0.41,0.27-0.62,0.4
		c-0.14,0.09-0.27,0.18-0.41,0.26c-0.24,0.15-0.49,0.29-0.75,0.43c-3.19,1.77-6.85,2.79-10.75,2.8l2.93,5.55
		c4.65-0.49,8.95-2.13,12.64-4.61c0.01,0,0.01-0.01,0.02-0.02c0.25-0.17,0.5-0.35,0.75-0.52c0.03-0.02,0.06-0.04,0.09-0.07
		c0.22-0.16,0.44-0.33,0.66-0.5c0.05-0.04,0.1-0.08,0.16-0.12c0.19-0.15,0.38-0.31,0.57-0.46c0.07-0.06,0.15-0.12,0.22-0.18
		c0.16-0.14,0.33-0.28,0.49-0.42c0.09-0.08,0.19-0.16,0.28-0.25c0.14-0.12,0.27-0.25,0.4-0.38c0.11-0.11,0.23-0.21,0.34-0.32
		c0.11-0.11,0.22-0.21,0.32-0.32c0.13-0.13,0.26-0.26,0.39-0.4c0.08-0.09,0.16-0.18,0.25-0.26c0.15-0.16,0.3-0.32,0.44-0.48
		c0.06-0.06,0.11-0.13,0.17-0.2c0.16-0.19,0.33-0.38,0.49-0.58c0.03-0.04,0.06-0.08,0.1-0.12c0.18-0.22,0.36-0.44,0.53-0.67
		c0.01-0.01,0.02-0.03,0.03-0.04c0.36-0.47,0.7-0.94,1.03-1.43c0,0.03-0.01,0.05-0.01,0.08
		C304.72,138.15,304.89,126.24,299.14,116.95z"/>
</g>
<g>
	<g>
		<g>
			<path class="st92" d="M259.03,178.27c4.09-4.55,10.02-7.41,16.6-7.41c0.96,0,1.91,0.07,2.84,0.19l1.8-5.5
				c-1.51-0.25-3.06-0.39-4.64-0.39c-9.44,0-17.79,4.69-22.88,11.86L259.03,178.27z"/>
			<path class="st92" d="M264.39,212.47c-6.63-3.88-11.09-11.07-11.09-19.28c0-5.03,1.67-9.68,4.49-13.42l-6.07-1.22
				c-2.62,4.26-4.14,9.28-4.14,14.64c0,11.12,6.51,20.76,15.93,25.28L264.39,212.47z"/>
			<path class="st92" d="M273.83,215.44c-2.79-0.22-5.43-0.95-7.83-2.11l-0.85,5.85c3.24,1.31,6.78,2.04,10.48,2.04
				c0.45,0,0.91-0.01,1.36-0.03L273.83,215.44z"/>
		</g>
	</g>
	<path class="st92" d="M299.5,178.45l-0.02,0.01c-3.86-6.23-10.08-10.84-17.43-12.56l-1.86,5.43c6.54,1.36,12.02,5.58,15.1,11.3
		c0.01,0,0.01,0,0.02,0c2.51,4.67,3.24,10.04,2.19,15.12l-0.01,0c-0.66,3.18-2.01,6.11-3.86,8.64c0,0,0,0,0,0
		c-1.26,1.71-2.75,3.24-4.44,4.53c-0.13,0.1-0.26,0.19-0.39,0.28c-0.2,0.15-0.4,0.29-0.6,0.43c-0.2,0.14-0.41,0.27-0.62,0.4
		c-0.14,0.09-0.27,0.18-0.41,0.26c-0.24,0.15-0.49,0.29-0.75,0.43c-3.19,1.77-6.85,2.79-10.75,2.8l2.93,5.55
		c4.65-0.49,8.95-2.13,12.64-4.61c0.01,0,0.01-0.01,0.02-0.02c0.25-0.17,0.5-0.35,0.75-0.52c0.03-0.02,0.06-0.04,0.09-0.07
		c0.22-0.16,0.44-0.33,0.66-0.5c0.05-0.04,0.1-0.08,0.16-0.12c0.19-0.15,0.38-0.31,0.57-0.46c0.07-0.06,0.15-0.12,0.22-0.18
		c0.16-0.14,0.33-0.28,0.49-0.42c0.09-0.08,0.19-0.16,0.28-0.25c0.14-0.12,0.27-0.25,0.4-0.38c0.11-0.11,0.23-0.21,0.34-0.32
		c0.11-0.11,0.22-0.21,0.32-0.32c0.13-0.13,0.26-0.26,0.39-0.4c0.08-0.09,0.16-0.18,0.25-0.26c0.15-0.16,0.3-0.32,0.44-0.48
		c0.06-0.06,0.11-0.13,0.17-0.2c0.16-0.19,0.33-0.38,0.49-0.58c0.03-0.04,0.06-0.08,0.1-0.12c0.18-0.22,0.36-0.44,0.53-0.67
		c0.01-0.01,0.02-0.03,0.03-0.04c0.36-0.47,0.7-0.94,1.03-1.43c0,0.03-0.01,0.05-0.01,0.08
		C305.08,199.66,305.26,187.74,299.5,178.45z"/>
</g>
<g>
	<g>
		<g>
			<path class="st92" d="M258.66,240.92c4.09-4.55,10.02-7.41,16.6-7.41c0.96,0,1.91,0.07,2.84,0.19l1.8-5.5
				c-1.51-0.25-3.06-0.39-4.64-0.39c-9.44,0-17.79,4.69-22.88,11.86L258.66,240.92z"/>
			<path class="st92" d="M264.03,275.11c-6.63-3.88-11.09-11.07-11.09-19.28c0-5.03,1.67-9.68,4.49-13.42l-6.07-1.22
				c-2.62,4.26-4.14,9.28-4.14,14.64c0,11.12,6.51,20.76,15.93,25.28L264.03,275.11z"/>
			<path class="st92" d="M273.47,278.08c-2.79-0.22-5.43-0.95-7.83-2.11l-0.85,5.85c3.24,1.31,6.78,2.04,10.48,2.04
				c0.45,0,0.91-0.01,1.36-0.03L273.47,278.08z"/>
		</g>
	</g>
	<path class="st92" d="M299.14,241.1l-0.02,0.01c-3.86-6.23-10.08-10.84-17.43-12.56l-1.86,5.43c6.54,1.36,12.02,5.58,15.1,11.3
		c0.01,0,0.01,0,0.02,0c2.51,4.67,3.24,10.04,2.19,15.12l-0.01,0c-0.66,3.18-2.01,6.11-3.86,8.64c0,0,0,0,0,0
		c-1.26,1.71-2.75,3.24-4.44,4.53c-0.13,0.1-0.26,0.19-0.39,0.28c-0.2,0.15-0.4,0.29-0.6,0.43c-0.2,0.14-0.41,0.27-0.62,0.4
		c-0.14,0.09-0.27,0.18-0.41,0.26c-0.24,0.15-0.49,0.29-0.75,0.43c-3.19,1.77-6.85,2.79-10.75,2.8l2.93,5.55
		c4.65-0.49,8.95-2.13,12.64-4.61c0.01,0,0.01-0.01,0.02-0.02c0.25-0.17,0.5-0.35,0.75-0.52c0.03-0.02,0.06-0.04,0.09-0.07
		c0.22-0.16,0.44-0.33,0.66-0.5c0.05-0.04,0.1-0.08,0.16-0.12c0.19-0.15,0.38-0.31,0.57-0.46c0.07-0.06,0.15-0.12,0.22-0.18
		c0.16-0.14,0.33-0.28,0.49-0.42c0.09-0.08,0.19-0.16,0.28-0.25c0.14-0.12,0.27-0.25,0.4-0.38c0.11-0.11,0.23-0.21,0.34-0.32
		c0.11-0.11,0.22-0.21,0.32-0.32c0.13-0.13,0.26-0.26,0.39-0.4c0.08-0.09,0.16-0.18,0.25-0.26c0.15-0.16,0.3-0.32,0.44-0.48
		c0.06-0.06,0.11-0.13,0.17-0.2c0.16-0.19,0.33-0.38,0.49-0.58c0.03-0.04,0.06-0.08,0.1-0.12c0.18-0.22,0.36-0.44,0.53-0.67
		c0.01-0.01,0.02-0.03,0.03-0.04c0.36-0.47,0.7-0.94,1.03-1.43c0,0.03-0.01,0.05-0.01,0.08C304.72,262.3,304.89,250.38,299.14,241.1
		z"/>
</g>
<g>
	<g>
		<g>
			<polygon class="st308" points="183.3,101.15 243.48,71.22 244.13,72.52 245.21,69.3 241.99,68.22 242.64,69.52 182.45,99.44 			
				"/>
		</g>
	</g>
</g>
<g>
	<g>
		<g>
			<polygon class="st308" points="85.6,130.86 103.93,130.78 103.94,132.24 106.33,129.82 103.92,127.43 103.92,128.88 
				85.59,128.96 			"/>
		</g>
	</g>
</g>
<g>
	<g>
		<g>
			<polygon class="st308" points="303.76,70.13 362.99,119.16 362.07,120.28 365.45,119.96 365.13,116.58 364.21,117.7 
				304.97,68.66 			"/>
		</g>
	</g>
</g>
<g>
	<g>
		<g>
			<polygon class="st308" points="180.43,100.64 243.43,120.53 242.99,121.92 246.01,120.35 244.44,117.34 244,118.72 181.01,98.82 
							"/>
		</g>
	</g>
</g>
<g>
	<g>
		<g>
			<polygon class="st308" points="181,101.35 247.35,170.42 246.3,171.43 249.7,171.5 249.77,168.1 248.72,169.1 182.37,100.03 			
				"/>
		</g>
	</g>
</g>
<g>
	<g>
		<g>
			<polygon class="st308" points="180.6,100.66 249.59,229.78 248.31,230.46 251.56,231.45 252.55,228.19 251.27,228.88 
				182.28,99.76 			"/>
		</g>
	</g>
</g>
<g>
	<g>
		<g>
			<polygon class="st308" points="183.63,164.45 244.48,84.97 245.64,85.86 245.19,82.49 241.82,82.93 242.97,83.82 182.12,163.29 
							"/>
		</g>
	</g>
</g>
<g>
	<g>
		<g>
			<polygon class="st308" points="183.27,164.74 240.88,138.99 241.47,140.32 242.68,137.15 239.51,135.93 240.1,137.26 182.49,163 
							"/>
		</g>
	</g>
</g>
<g>
	<g>
		<g>
			<polygon class="st308" points="182.56,164.77 238.84,184.87 238.36,186.24 241.43,184.78 239.97,181.71 239.49,183.08 
				183.2,162.98 			"/>
		</g>
	</g>
</g>
<g>
	<g>
		<g>
			<polygon class="st308" points="182.14,164.48 244.18,239.45 243.06,240.38 246.44,240.7 246.76,237.31 245.64,238.24 
				183.61,163.27 			"/>
		</g>
	</g>
</g>
<g>
	<g>
		<g>
			<polygon class="st308" points="182.64,228.52 254.18,94.62 255.46,95.3 254.47,92.05 251.22,93.04 252.5,93.72 180.96,227.63 			
				"/>
		</g>
	</g>
</g>
<g>
	<g>
		<g>
			<polygon class="st308" points="182.52,228.7 247.83,154.12 248.92,155.08 248.7,151.69 245.31,151.91 246.4,152.87 
				181.09,227.45 			"/>
		</g>
	</g>
</g>
<g>
	<g>
		<g>
			<polygon class="st308" points="182.19,228.94 242.08,202.34 242.67,203.67 243.89,200.5 240.72,199.28 241.31,200.61 
				181.41,227.2 			"/>
		</g>
	</g>
</g>
<g>
	<g>
		<g>
			<polygon class="st308" points="181.47,228.97 241.31,250.83 240.81,252.19 243.89,250.76 242.46,247.67 241.96,249.04 
				182.13,227.18 			"/>
		</g>
	</g>
</g>
<g>
	<g>
		<g>
			<polygon class="st308" points="303.56,69.9 366.49,170.96 365.26,171.72 368.57,172.49 369.34,169.18 368.11,169.95 
				305.17,68.89 			"/>
		</g>
	</g>
</g>
<g>
	<g>
		<g>
			<polygon class="st308" points="303.41,131.28 361.14,131.28 361.14,132.73 363.54,130.33 361.14,127.92 361.14,129.38 
				303.41,129.38 			"/>
		</g>
	</g>
</g>
<g>
	<g>
		<g>
			<polygon class="st308" points="304.02,194.59 361.18,143.42 362.15,144.5 362.34,141.11 358.95,140.92 359.92,142 302.75,193.17 
							"/>
		</g>
	</g>
</g>
<g>
	<g>
		<g>
			<polygon class="st308" points="304.46,254.68 365.75,153.24 366.99,153.99 366.17,150.69 362.87,151.51 364.12,152.26 
				302.83,253.7 			"/>
		</g>
	</g>
</g>
<g>
	<g>
		<g>
			<polygon class="st308" points="302.77,131.03 360.64,183.09 359.67,184.17 363.06,183.99 362.88,180.6 361.91,181.68 
				304.04,129.62 			"/>
		</g>
	</g>
</g>
<g>
	<g>
		<g>
			<polygon class="st308" points="304.25,254.92 363.25,206.14 364.18,207.26 364.5,203.88 361.11,203.56 362.04,204.68 
				303.04,253.45 			"/>
		</g>
	</g>
</g>
<g>
	<g>
		<g>
			<polygon class="st308" points="303.39,194.56 360.18,194.3 360.19,195.75 362.58,193.34 360.17,190.94 360.17,192.39 
				303.39,192.65 			"/>
		</g>
	</g>
</g>
<g>
	<g>
		<g>
			<polygon class="st308" points="418.6,140.72 467.63,161.23 467.07,162.57 470.21,161.28 468.92,158.14 468.36,159.48 
				419.34,138.96 			"/>
		</g>
	</g>
</g>
<g>
	<g>
		<g>
			<polygon class="st308" points="420.8,189.38 468.42,167.75 469.02,169.07 470.21,165.89 467.03,164.7 467.63,166.02 
				420.01,187.65 			"/>
		</g>
	</g>
</g>
<g>
	<g>
		<g>
			<path class="st27" d="M378.91,116.35c3.91-4.34,9.57-7.08,15.86-7.08c0.92,0,1.82,0.07,2.71,0.18l1.72-5.26
				c-1.44-0.24-2.92-0.37-4.43-0.37c-9.01,0-17,4.48-21.85,11.33L378.91,116.35z"/>
			<path class="st27" d="M384.03,149.01c-6.33-3.7-10.59-10.57-10.59-18.42c0-4.81,1.6-9.24,4.29-12.81l-5.79-1.17
				c-2.5,4.07-3.95,8.86-3.95,13.98c0,10.63,6.22,19.82,15.21,24.15L384.03,149.01z"/>
			<path class="st27" d="M393.04,151.84c-2.66-0.21-5.19-0.91-7.48-2.01l-0.81,5.59c3.1,1.25,6.47,1.95,10.01,1.95
				c0.43,0,0.87-0.01,1.3-0.03L393.04,151.84z"/>
		</g>
	</g>
	<path class="st27" d="M417.56,116.52l-0.02,0.01c-3.68-5.95-9.63-10.35-16.64-12l-1.77,5.19c6.25,1.3,11.49,5.33,14.42,10.79
		c0.01,0,0.01,0,0.02,0c2.4,4.46,3.1,9.59,2.09,14.44l0,0c-0.63,3.04-1.92,5.84-3.69,8.25c0,0,0,0,0,0
		c-1.2,1.64-2.63,3.09-4.24,4.33c-0.12,0.09-0.25,0.18-0.37,0.27c-0.19,0.14-0.38,0.28-0.57,0.41c-0.19,0.13-0.39,0.26-0.59,0.38
		c-0.13,0.08-0.26,0.17-0.39,0.25c-0.23,0.14-0.47,0.28-0.71,0.41c-3.04,1.69-6.54,2.67-10.27,2.68l2.79,5.3
		c4.44-0.47,8.55-2.03,12.07-4.4c0.01,0,0.01-0.01,0.02-0.01c0.24-0.16,0.48-0.33,0.72-0.5c0.03-0.02,0.06-0.04,0.09-0.06
		c0.21-0.16,0.42-0.31,0.63-0.48c0.05-0.04,0.1-0.08,0.15-0.11c0.18-0.15,0.37-0.29,0.55-0.44c0.07-0.06,0.14-0.12,0.21-0.17
		c0.16-0.13,0.31-0.27,0.47-0.4c0.09-0.08,0.18-0.16,0.27-0.24c0.13-0.12,0.26-0.24,0.39-0.36c0.11-0.1,0.21-0.2,0.32-0.31
		c0.1-0.1,0.21-0.21,0.31-0.31c0.13-0.13,0.25-0.25,0.37-0.38c0.08-0.08,0.16-0.17,0.23-0.25c0.14-0.15,0.28-0.31,0.42-0.46
		c0.05-0.06,0.11-0.12,0.16-0.19c0.16-0.18,0.31-0.36,0.47-0.55c0.03-0.04,0.06-0.08,0.09-0.11c0.17-0.21,0.34-0.42,0.51-0.64
		c0.01-0.01,0.02-0.03,0.03-0.04c0.34-0.45,0.67-0.9,0.98-1.37c0,0.02-0.01,0.05-0.01,0.07
		C422.89,136.77,423.06,125.39,417.56,116.52z"/>
</g>
<g>
	<g>
		<g>
			<path class="st27" d="M378.96,178.91c3.91-4.34,9.57-7.08,15.86-7.08c0.92,0,1.82,0.07,2.71,0.18l1.72-5.26
				c-1.44-0.24-2.92-0.37-4.43-0.37c-9.01,0-17,4.48-21.85,11.33L378.96,178.91z"/>
			<path class="st27" d="M384.08,211.58c-6.33-3.7-10.59-10.57-10.59-18.42c0-4.81,1.6-9.24,4.29-12.81l-5.79-1.17
				c-2.5,4.07-3.95,8.86-3.95,13.98c0,10.63,6.22,19.82,15.21,24.15L384.08,211.58z"/>
			<path class="st27" d="M393.09,214.41c-2.66-0.21-5.19-0.91-7.48-2.01l-0.81,5.59c3.1,1.25,6.47,1.95,10.01,1.95
				c0.43,0,0.87-0.01,1.3-0.03L393.09,214.41z"/>
		</g>
	</g>
	<path class="st27" d="M417.61,179.09l-0.02,0.01c-3.68-5.95-9.63-10.35-16.64-12l-1.77,5.19c6.25,1.3,11.49,5.33,14.42,10.79
		c0.01,0,0.01,0,0.02,0c2.4,4.46,3.1,9.59,2.09,14.44l0,0c-0.63,3.04-1.92,5.84-3.69,8.25c0,0,0,0,0,0
		c-1.2,1.64-2.63,3.09-4.24,4.33c-0.12,0.09-0.25,0.18-0.37,0.27c-0.19,0.14-0.38,0.28-0.57,0.41c-0.19,0.13-0.39,0.26-0.59,0.38
		c-0.13,0.08-0.26,0.17-0.39,0.25c-0.23,0.14-0.47,0.28-0.71,0.41c-3.04,1.69-6.54,2.67-10.27,2.68l2.79,5.3
		c4.44-0.47,8.55-2.03,12.07-4.4c0.01,0,0.01-0.01,0.02-0.01c0.24-0.16,0.48-0.33,0.72-0.5c0.03-0.02,0.06-0.04,0.09-0.06
		c0.21-0.16,0.42-0.31,0.63-0.48c0.05-0.04,0.1-0.08,0.15-0.11c0.18-0.15,0.37-0.29,0.55-0.44c0.07-0.06,0.14-0.12,0.21-0.17
		c0.16-0.13,0.31-0.27,0.47-0.4c0.09-0.08,0.18-0.16,0.27-0.24c0.13-0.12,0.26-0.24,0.39-0.36c0.11-0.1,0.21-0.2,0.32-0.31
		c0.1-0.1,0.21-0.21,0.31-0.31c0.13-0.13,0.25-0.25,0.37-0.38c0.08-0.08,0.16-0.17,0.23-0.25c0.14-0.15,0.28-0.31,0.42-0.46
		c0.05-0.06,0.11-0.12,0.16-0.19c0.16-0.18,0.31-0.36,0.47-0.55c0.03-0.04,0.06-0.08,0.09-0.11c0.17-0.21,0.34-0.42,0.51-0.64
		c0.01-0.01,0.02-0.03,0.03-0.04c0.34-0.45,0.67-0.9,0.98-1.37c0,0.02-0.01,0.05-0.01,0.07
		C422.94,199.34,423.11,187.96,417.61,179.09z"/>
</g>
<g>
	<g>
		<g>
			<path class="st30" d="M139.13,148.14c4.09-4.55,10.02-7.41,16.6-7.41c0.96,0,1.91,0.07,2.84,0.19l1.8-5.5
				c-1.51-0.25-3.06-0.39-4.64-0.39c-9.44,0-17.79,4.69-22.88,11.86L139.13,148.14z"/>
			<path class="st30" d="M144.49,182.34c-6.63-3.88-11.09-11.07-11.09-19.28c0-5.03,1.67-9.68,4.49-13.42l-6.07-1.22
				c-2.62,4.26-4.14,9.28-4.14,14.64c0,11.12,6.51,20.76,15.93,25.28L144.49,182.34z"/>
			<path class="st30" d="M153.93,185.31c-2.79-0.22-5.43-0.95-7.83-2.11l-0.85,5.85c3.24,1.31,6.78,2.04,10.48,2.04
				c0.45,0,0.91-0.01,1.36-0.03L153.93,185.31z"/>
		</g>
	</g>
	<path class="st30" d="M179.6,148.32l-0.02,0.01c-3.86-6.23-10.08-10.84-17.43-12.56l-1.86,5.43c6.54,1.36,12.02,5.58,15.1,11.3
		c0.01,0,0.01,0,0.02,0c2.51,4.67,3.24,10.04,2.19,15.12l-0.01,0c-0.66,3.18-2.01,6.11-3.86,8.64c0,0,0,0,0,0
		c-1.26,1.71-2.75,3.24-4.44,4.53c-0.13,0.1-0.26,0.19-0.39,0.28c-0.2,0.15-0.4,0.29-0.6,0.43c-0.2,0.14-0.41,0.27-0.62,0.4
		c-0.14,0.09-0.27,0.18-0.41,0.26c-0.24,0.15-0.49,0.29-0.75,0.43c-3.19,1.77-6.85,2.79-10.75,2.8l2.93,5.55
		c4.65-0.49,8.95-2.13,12.64-4.61c0.01,0,0.01-0.01,0.02-0.02c0.25-0.17,0.5-0.35,0.75-0.52c0.03-0.02,0.06-0.04,0.09-0.07
		c0.22-0.16,0.44-0.33,0.66-0.5c0.05-0.04,0.1-0.08,0.16-0.12c0.19-0.15,0.38-0.31,0.57-0.46c0.07-0.06,0.15-0.12,0.22-0.18
		c0.16-0.14,0.33-0.28,0.49-0.42c0.09-0.08,0.19-0.16,0.28-0.25c0.14-0.12,0.27-0.25,0.4-0.38c0.11-0.11,0.23-0.21,0.34-0.32
		c0.11-0.11,0.22-0.21,0.32-0.32c0.13-0.13,0.26-0.26,0.39-0.4c0.08-0.09,0.16-0.18,0.25-0.26c0.15-0.16,0.3-0.32,0.44-0.48
		c0.06-0.06,0.11-0.13,0.17-0.2c0.16-0.19,0.33-0.38,0.49-0.58c0.03-0.04,0.06-0.08,0.1-0.12c0.18-0.22,0.36-0.44,0.53-0.67
		c0.01-0.01,0.02-0.03,0.03-0.04c0.36-0.47,0.7-0.94,1.03-1.43c0,0.03-0.01,0.05-0.01,0.08
		C185.18,169.53,185.36,157.61,179.6,148.32z"/>
</g>
<g>
	<g>
		<g>
			<path class="st30" d="M138.45,211.15c4.09-4.55,10.02-7.41,16.6-7.41c0.96,0,1.91,0.07,2.84,0.19l1.8-5.5
				c-1.51-0.25-3.06-0.39-4.64-0.39c-9.44,0-17.79,4.69-22.88,11.86L138.45,211.15z"/>
			<path class="st30" d="M143.82,245.34c-6.63-3.88-11.09-11.07-11.09-19.28c0-5.03,1.67-9.68,4.49-13.42l-6.07-1.22
				c-2.62,4.26-4.14,9.28-4.14,14.64c0,11.12,6.51,20.76,15.93,25.28L143.82,245.34z"/>
			<path class="st30" d="M153.26,248.31c-2.79-0.22-5.43-0.95-7.83-2.11l-0.85,5.85c3.24,1.31,6.78,2.04,10.48,2.04
				c0.45,0,0.91-0.01,1.36-0.03L153.26,248.31z"/>
		</g>
	</g>
	<path class="st30" d="M178.93,211.33l-0.02,0.01c-3.86-6.23-10.08-10.84-17.43-12.56l-1.86,5.43c6.54,1.36,12.02,5.58,15.1,11.3
		c0.01,0,0.01,0,0.02,0c2.51,4.67,3.24,10.04,2.19,15.12l-0.01,0c-0.66,3.18-2.01,6.11-3.86,8.64c0,0,0,0,0,0
		c-1.26,1.71-2.75,3.24-4.44,4.53c-0.13,0.1-0.26,0.19-0.39,0.28c-0.2,0.15-0.4,0.29-0.6,0.43c-0.2,0.14-0.41,0.27-0.62,0.4
		c-0.14,0.09-0.27,0.18-0.41,0.26c-0.24,0.15-0.49,0.29-0.75,0.43c-3.19,1.77-6.85,2.79-10.75,2.8l2.93,5.55
		c4.65-0.49,8.95-2.13,12.64-4.61c0.01,0,0.01-0.01,0.02-0.02c0.25-0.17,0.5-0.35,0.75-0.52c0.03-0.02,0.06-0.04,0.09-0.07
		c0.22-0.16,0.44-0.33,0.66-0.5c0.05-0.04,0.1-0.08,0.16-0.12c0.19-0.15,0.38-0.31,0.57-0.46c0.07-0.06,0.15-0.12,0.22-0.18
		c0.16-0.14,0.33-0.28,0.49-0.42c0.09-0.08,0.19-0.16,0.28-0.25c0.14-0.12,0.27-0.25,0.4-0.38c0.11-0.11,0.23-0.21,0.34-0.32
		c0.11-0.11,0.22-0.21,0.32-0.32c0.13-0.13,0.26-0.26,0.39-0.4c0.08-0.09,0.16-0.18,0.25-0.26c0.15-0.16,0.3-0.32,0.44-0.48
		c0.06-0.06,0.11-0.13,0.17-0.2c0.16-0.19,0.33-0.38,0.49-0.58c0.03-0.04,0.06-0.08,0.1-0.12c0.18-0.22,0.36-0.44,0.53-0.67
		c0.01-0.01,0.02-0.03,0.03-0.04c0.36-0.47,0.7-0.94,1.03-1.43c0,0.03-0.01,0.05-0.01,0.08
		C184.51,232.53,184.68,220.62,178.93,211.33z"/>
</g>
<g>
	<g>
		<g>
			<path class="st30" d="M139.13,84.46c4.09-4.55,10.02-7.41,16.6-7.41c0.96,0,1.91,0.07,2.84,0.19l1.8-5.5
				c-1.51-0.25-3.06-0.39-4.64-0.39c-9.44,0-17.79,4.69-22.88,11.86L139.13,84.46z"/>
			<path class="st30" d="M144.49,118.65c-6.63-3.88-11.09-11.07-11.09-19.28c0-5.03,1.67-9.68,4.49-13.42l-6.07-1.22
				c-2.62,4.26-4.14,9.28-4.14,14.64c0,11.12,6.51,20.76,15.93,25.28L144.49,118.65z"/>
			<path class="st30" d="M153.93,121.62c-2.79-0.22-5.43-0.95-7.83-2.11l-0.85,5.85c3.24,1.31,6.78,2.04,10.48,2.04
				c0.45,0,0.91-0.01,1.36-0.03L153.93,121.62z"/>
		</g>
	</g>
	<path class="st30" d="M179.6,84.64l-0.02,0.01c-3.86-6.23-10.08-10.84-17.43-12.56l-1.86,5.43c6.54,1.36,12.02,5.58,15.1,11.3
		c0.01,0,0.01,0,0.02,0c2.51,4.67,3.24,10.04,2.19,15.12l-0.01,0c-0.66,3.18-2.01,6.11-3.86,8.64c0,0,0,0,0,0
		c-1.26,1.71-2.75,3.24-4.44,4.53c-0.13,0.1-0.26,0.19-0.39,0.28c-0.2,0.15-0.4,0.29-0.6,0.43c-0.2,0.14-0.41,0.27-0.62,0.4
		c-0.14,0.09-0.27,0.18-0.41,0.26c-0.24,0.15-0.49,0.29-0.75,0.43c-3.19,1.77-6.85,2.79-10.75,2.8l2.93,5.55
		c4.65-0.49,8.95-2.13,12.64-4.61c0.01,0,0.01-0.01,0.02-0.02c0.25-0.17,0.5-0.35,0.75-0.52c0.03-0.02,0.06-0.04,0.09-0.07
		c0.22-0.16,0.44-0.33,0.66-0.5c0.05-0.04,0.1-0.08,0.16-0.12c0.19-0.15,0.38-0.31,0.57-0.46c0.07-0.06,0.15-0.12,0.22-0.18
		c0.16-0.14,0.33-0.28,0.49-0.42c0.09-0.08,0.19-0.16,0.28-0.25c0.14-0.12,0.27-0.25,0.4-0.38c0.11-0.11,0.23-0.21,0.34-0.32
		c0.11-0.11,0.22-0.21,0.32-0.32c0.13-0.13,0.26-0.26,0.39-0.4c0.08-0.09,0.16-0.18,0.25-0.26c0.15-0.16,0.3-0.32,0.44-0.48
		c0.06-0.06,0.11-0.13,0.17-0.2c0.16-0.19,0.33-0.38,0.49-0.58c0.03-0.04,0.06-0.08,0.1-0.12c0.18-0.22,0.36-0.44,0.53-0.67
		c0.01-0.01,0.02-0.03,0.03-0.04c0.36-0.47,0.7-0.94,1.03-1.43c0,0.03-0.01,0.05-0.01,0.08C185.18,105.84,185.36,93.92,179.6,84.64z
		"/>
</g>
<g class="st200">
	<g>
		<g>
			<path class="st30" d="M35.51,114.75c4.11-4.57,10.06-7.45,16.67-7.45c0.97,0,1.92,0.07,2.85,0.19l1.81-5.53
				c-1.52-0.25-3.07-0.39-4.66-0.39c-9.48,0-17.87,4.71-22.97,11.91L35.51,114.75z"/>
			<path class="st30" d="M40.89,149.08c-6.65-3.89-11.13-11.11-11.13-19.36c0-5.05,1.68-9.72,4.51-13.47l-6.09-1.23
				c-2.63,4.28-4.15,9.31-4.15,14.7c0,11.17,6.54,20.84,15.99,25.39L40.89,149.08z"/>
			<path class="st30" d="M50.37,152.06c-2.8-0.22-5.45-0.96-7.87-2.12l-0.85,5.88c3.25,1.32,6.81,2.05,10.53,2.05
				c0.46,0,0.91-0.01,1.36-0.03L50.37,152.06z"/>
		</g>
	</g>
	<path class="st30" d="M76.14,114.93l-0.02,0.01c-3.87-6.26-10.12-10.88-17.5-12.61l-1.86,5.45c6.57,1.37,12.07,5.61,15.16,11.34
		c0.01,0,0.01,0,0.02,0c2.52,4.69,3.26,10.08,2.2,15.18l-0.01,0c-0.66,3.19-2.01,6.13-3.88,8.67c0,0,0,0,0,0
		c-1.26,1.72-2.76,3.25-4.45,4.55c-0.13,0.1-0.26,0.19-0.39,0.28c-0.2,0.15-0.4,0.29-0.6,0.43c-0.2,0.14-0.41,0.27-0.62,0.4
		c-0.14,0.09-0.27,0.18-0.41,0.26c-0.25,0.15-0.5,0.29-0.75,0.43c-3.2,1.78-6.87,2.8-10.79,2.82l2.94,5.57
		c4.67-0.5,8.99-2.14,12.69-4.63c0.01,0,0.02-0.01,0.02-0.02c0.25-0.17,0.5-0.35,0.75-0.53c0.03-0.02,0.06-0.04,0.09-0.07
		c0.22-0.16,0.44-0.33,0.66-0.5c0.05-0.04,0.1-0.08,0.16-0.12c0.19-0.15,0.39-0.31,0.58-0.47c0.07-0.06,0.15-0.12,0.22-0.18
		c0.16-0.14,0.33-0.28,0.49-0.43c0.09-0.08,0.19-0.17,0.28-0.25c0.14-0.12,0.27-0.25,0.41-0.38c0.11-0.11,0.23-0.21,0.34-0.32
		c0.11-0.11,0.22-0.22,0.32-0.32c0.13-0.13,0.26-0.27,0.39-0.4c0.08-0.09,0.16-0.18,0.25-0.26c0.15-0.16,0.3-0.32,0.44-0.49
		c0.06-0.06,0.11-0.13,0.17-0.2c0.17-0.19,0.33-0.38,0.49-0.58c0.03-0.04,0.06-0.08,0.1-0.12c0.18-0.22,0.36-0.45,0.53-0.67
		c0.01-0.01,0.02-0.03,0.03-0.04c0.36-0.47,0.7-0.95,1.03-1.44c0,0.03-0.01,0.05-0.01,0.08C81.75,136.22,81.92,124.25,76.14,114.93z
		"/>
</g>
<circle class="st10" cx="501.3" cy="163.67" r="20.83"/>
<g>
	<g>
		<g>
			<path class="st27" d="M484.54,148.72c4.11-4.57,10.06-7.45,16.67-7.45c0.97,0,1.92,0.07,2.85,0.19l1.81-5.53
				c-1.52-0.25-3.07-0.39-4.66-0.39c-9.48,0-17.87,4.71-22.97,11.91L484.54,148.72z"/>
			<path class="st30" d="M489.93,183.06c-6.65-3.89-11.13-11.11-11.13-19.36c0-5.05,1.68-9.72,4.51-13.47l-6.09-1.23
				c-2.63,4.28-4.15,9.31-4.15,14.7c0,11.17,6.54,20.84,15.99,25.39L489.93,183.06z"/>
			<path class="st201" d="M499.41,186.04c-2.8-0.22-5.45-0.96-7.87-2.12l-0.85,5.88c3.25,1.32,6.81,2.05,10.53,2.05
				c0.46,0,0.91-0.01,1.36-0.03L499.41,186.04z"/>
		</g>
	</g>
	<path class="st92" d="M525.18,148.9l-0.02,0.01c-3.87-6.26-10.12-10.88-17.5-12.61l-1.86,5.45c6.57,1.37,12.07,5.61,15.16,11.34
		c0.01,0,0.01,0,0.02,0c2.52,4.69,3.26,10.08,2.2,15.18l-0.01,0c-0.66,3.19-2.01,6.13-3.88,8.67c0,0,0,0,0,0
		c-1.26,1.72-2.76,3.25-4.45,4.55c-0.13,0.1-0.26,0.19-0.39,0.28c-0.2,0.15-0.4,0.29-0.6,0.43c-0.2,0.14-0.41,0.27-0.62,0.4
		c-0.14,0.09-0.27,0.18-0.41,0.26c-0.25,0.15-0.5,0.29-0.75,0.43c-3.2,1.78-6.87,2.8-10.79,2.82l2.94,5.57
		c4.67-0.5,8.99-2.14,12.69-4.63c0.01,0,0.02-0.01,0.02-0.02c0.25-0.17,0.5-0.35,0.75-0.53c0.03-0.02,0.06-0.04,0.09-0.07
		c0.22-0.16,0.44-0.33,0.66-0.5c0.05-0.04,0.1-0.08,0.16-0.12c0.19-0.15,0.39-0.31,0.58-0.47c0.07-0.06,0.15-0.12,0.22-0.18
		c0.16-0.14,0.33-0.28,0.49-0.43c0.09-0.08,0.19-0.17,0.28-0.25c0.14-0.12,0.27-0.25,0.41-0.38c0.11-0.11,0.23-0.21,0.34-0.32
		c0.11-0.11,0.22-0.22,0.32-0.32c0.13-0.13,0.26-0.27,0.39-0.4c0.08-0.09,0.16-0.18,0.25-0.26c0.15-0.16,0.3-0.32,0.44-0.49
		c0.06-0.06,0.11-0.13,0.17-0.2c0.17-0.19,0.33-0.38,0.49-0.58c0.03-0.04,0.06-0.08,0.1-0.12c0.18-0.22,0.36-0.45,0.53-0.67
		c0.01-0.01,0.02-0.03,0.03-0.04c0.36-0.47,0.7-0.95,1.03-1.44c0,0.03-0.01,0.05-0.01,0.08C530.78,170.2,530.96,158.23,525.18,148.9
		z"/>
</g>
<path class="st9" d="M62.25,203.98c0.12,0,0.22-0.1,0.22-0.22v-4.8l0.71,0c0.12,0,0.22-0.1,0.22-0.22v-1.86
	c0-0.12-0.1-0.22-0.22-0.22h-2.57v-2.35h1.64c0.12,0,0.22-0.1,0.22-0.22v-1.86c0-0.12-0.1-0.22-0.22-0.22h-1.64v-1.42h1.64
	c0.12,0,0.22-0.1,0.22-0.22l0-1.86c0-0.12-0.1-0.22-0.22-0.22l-1.64,0v-0.71c0-0.12-0.4-0.33-1.15-0.33c-0.76,0-1.15,0.22-1.15,0.33
	v0.71H46.66v-0.71c0-0.12-0.4-0.33-1.15-0.33c-0.76,0-1.15,0.22-1.15,0.33v0.71h-1.64c-0.12,0-0.22,0.1-0.22,0.22l0,1.86
	c0,0.12,0.1,0.22,0.22,0.22h1.64v1.42h-1.64c-0.12,0-0.22,0.1-0.22,0.22v1.86c0,0.12,0.1,0.22,0.22,0.22h1.64v2.35h-2.57
	c-0.06,0-0.11,0.02-0.16,0.06c-0.04,0.04-0.06,0.1-0.06,0.16v1.86c0,0.12,0.1,0.22,0.22,0.22h0.71v4.8c0,0.12,0.1,0.22,0.22,0.22
	h1.86c0.12,0,0.22-0.1,0.22-0.22v-4.8h15.38v4.8c0,0.12,0.1,0.22,0.22,0.22H62.25z M58.31,196.67H46.66v-2.35h11.65V196.67z
	 M58.31,192.01H46.66v-1.42h11.65V192.01z"/>
<g class="st200">
	<g>
		<g>
			<path class="st30" d="M35.5,180.15c4.1-4.56,10.04-7.43,16.63-7.43c0.96,0,1.91,0.07,2.85,0.19l1.8-5.52
				c-1.51-0.25-3.07-0.39-4.65-0.39c-9.46,0-17.83,4.7-22.92,11.88L35.5,180.15z"/>
			<path class="st30" d="M40.87,214.41c-6.64-3.89-11.11-11.09-11.11-19.32c0-5.04,1.68-9.7,4.5-13.44l-6.08-1.22
				c-2.63,4.27-4.14,9.29-4.14,14.67c0,11.15,6.53,20.8,15.96,25.33L40.87,214.41z"/>
			<path class="st30" d="M50.33,217.38c-2.79-0.22-5.44-0.96-7.85-2.11l-0.85,5.87c3.25,1.31,6.79,2.05,10.51,2.05
				c0.46,0,0.91-0.01,1.36-0.03L50.33,217.38z"/>
		</g>
	</g>
	<path class="st30" d="M76.05,180.33l-0.02,0.01c-3.86-6.24-10.1-10.86-17.46-12.59l-1.86,5.44c6.55,1.36,12.05,5.59,15.13,11.32
		c0.01,0,0.01,0,0.02,0c2.52,4.68,3.25,10.06,2.19,15.15l-0.01,0c-0.66,3.19-2.01,6.12-3.87,8.65c0,0,0,0,0,0
		c-1.26,1.72-2.76,3.24-4.44,4.54c-0.13,0.1-0.26,0.19-0.39,0.28c-0.2,0.15-0.4,0.29-0.6,0.43c-0.2,0.14-0.41,0.27-0.62,0.4
		c-0.14,0.09-0.27,0.18-0.41,0.26c-0.25,0.15-0.5,0.29-0.75,0.43c-3.19,1.77-6.86,2.8-10.77,2.81l2.93,5.56
		c4.66-0.5,8.97-2.13,12.66-4.62c0.01,0,0.01-0.01,0.02-0.02c0.25-0.17,0.5-0.35,0.75-0.53c0.03-0.02,0.06-0.04,0.09-0.07
		c0.22-0.16,0.44-0.33,0.66-0.5c0.05-0.04,0.1-0.08,0.16-0.12c0.19-0.15,0.38-0.31,0.57-0.47c0.07-0.06,0.15-0.12,0.22-0.18
		c0.16-0.14,0.33-0.28,0.49-0.42c0.09-0.08,0.19-0.16,0.28-0.25c0.14-0.12,0.27-0.25,0.41-0.38c0.11-0.11,0.23-0.21,0.34-0.32
		c0.11-0.11,0.22-0.22,0.32-0.32c0.13-0.13,0.26-0.26,0.39-0.4c0.08-0.09,0.16-0.18,0.25-0.26c0.15-0.16,0.3-0.32,0.44-0.48
		c0.06-0.06,0.11-0.13,0.17-0.2c0.17-0.19,0.33-0.38,0.49-0.58c0.03-0.04,0.06-0.08,0.1-0.12c0.18-0.22,0.36-0.45,0.53-0.67
		c0.01-0.01,0.02-0.03,0.03-0.04c0.36-0.47,0.7-0.95,1.03-1.44c0,0.03-0.01,0.05-0.01,0.08C81.64,201.58,81.82,189.64,76.05,180.33z
		"/>
</g>
<path class="st30" d="M174.51,41.46H138.3c-1.9,0-3.43,1.54-3.43,3.43v11.35c0,1.9,1.54,3.43,3.43,3.43h14.4l4.05,5.85l4.29-5.85
	h13.48c1.9,0,3.43-1.54,3.43-3.43V44.89C177.95,42.99,176.41,41.46,174.51,41.46z"/>
<g>
	<path class="st9" d="M146.49,46.42h0.45c0.29,0,0.44,0.15,0.44,0.44v7.27c0,0.29-0.15,0.44-0.44,0.44h-0.45
		c-0.29,0-0.44-0.15-0.44-0.44v-7.27C146.05,46.58,146.2,46.42,146.49,46.42z"/>
	<path class="st9" d="M152.68,54.57h-0.42c-0.28,0-0.42-0.14-0.42-0.42v-3.7c0-0.75-0.35-0.97-0.78-0.97s-0.78,0.22-0.78,0.97v3.7
		c0,0.28-0.14,0.42-0.42,0.42h-0.42c-0.28,0-0.42-0.14-0.42-0.42v-3.78c0-1.37,0.87-2.06,2.04-2.06c1.16,0,2.04,0.69,2.04,2.06v3.78
		C153.1,54.43,152.96,54.57,152.68,54.57z"/>
	<path class="st9" d="M158.66,52.78c0,1.3-0.71,1.92-1.66,1.92c-0.48,0-0.87-0.15-1.15-0.49v1.91c0,0.28-0.14,0.42-0.42,0.42H155
		c-0.28,0-0.42-0.14-0.42-0.42v-5.75c0-1.4,0.87-2.06,2.04-2.06c1.16,0,2.04,0.66,2.04,2.06V52.78z M157.4,50.45
		c0-0.75-0.35-0.97-0.78-0.97c-0.43,0-0.78,0.22-0.78,0.97v2.11c0,0.75,0.35,0.97,0.78,0.97c0.43,0,0.78-0.22,0.78-0.97V50.45z"/>
	<path class="st9" d="M160.44,48.44h0.42c0.28,0,0.42,0.14,0.42,0.42v3.7c0,0.75,0.35,0.97,0.78,0.97s0.78-0.22,0.78-0.97v-3.7
		c0-0.28,0.14-0.42,0.42-0.42h0.42c0.28,0,0.42,0.14,0.42,0.42v3.78c0,1.37-0.87,2.06-2.04,2.06c-1.16,0-2.04-0.69-2.04-2.06v-3.78
		C160.02,48.58,160.16,48.44,160.44,48.44z"/>
	<path class="st9" d="M167.3,54.62c-1.11,0-1.72-0.47-1.72-1.72v-5.54c0-0.28,0.14-0.42,0.42-0.42h0.42c0.28,0,0.42,0.14,0.42,0.42
		v1.08h1c0.28,0,0.42,0.14,0.42,0.42v0.34c0,0.28-0.14,0.42-0.42,0.42h-1v3.19c0,0.48,0.16,0.64,0.64,0.64
		c0.12,0,0.22-0.01,0.36-0.03c0.28-0.05,0.42,0.13,0.42,0.41v0.34c0,0.28-0.14,0.37-0.36,0.42
		C167.66,54.62,167.48,54.62,167.3,54.62z"/>
</g>
<path class="st92" d="M295.22,13.36h-36.21c-1.9,0-3.43,1.54-3.43,3.43v11.35c0,1.9,1.54,3.43,3.43,3.43h14.4l4.05,5.85l4.29-5.85
	h13.48c1.9,0,3.43-1.54,3.43-3.43V16.79C298.65,14.89,297.12,13.36,295.22,13.36z"/>
<g>
	<path class="st9" d="M263.19,18.32h0.45c0.29,0,0.44,0.15,0.44,0.44v2.92h2.38v-2.92c0-0.29,0.15-0.44,0.44-0.44h0.45
		c0.29,0,0.44,0.15,0.44,0.44v7.27c0,0.29-0.15,0.44-0.44,0.44h-0.45c-0.29,0-0.44-0.15-0.44-0.44v-3.07h-2.38v3.07
		c0,0.29-0.15,0.44-0.44,0.44h-0.45c-0.29,0-0.44-0.15-0.44-0.44v-7.27C262.75,18.47,262.9,18.32,263.19,18.32z"/>
	<path class="st9" d="M269.52,18.74c0-0.28,0.14-0.42,0.42-0.42h0.42c0.28,0,0.42,0.14,0.42,0.42v0.4c0,0.28-0.14,0.42-0.42,0.42
		h-0.42c-0.28,0-0.42-0.14-0.42-0.42V18.74z M269.52,20.76c0-0.28,0.14-0.42,0.42-0.42h0.42c0.28,0,0.42,0.14,0.42,0.42v5.3
		c0,0.28-0.14,0.42-0.42,0.42h-0.42c-0.28,0-0.42-0.14-0.42-0.42V20.76z"/>
	<path class="st9" d="M272.21,22.13c0-1.3,0.71-1.92,1.66-1.92c0.47,0,0.87,0.15,1.15,0.49v-2.07c0-0.28,0.14-0.42,0.42-0.42h0.42
		c0.28,0,0.42,0.14,0.42,0.42v5.91c0,1.4-0.87,2.06-2.04,2.06c-1.16,0-2.04-0.66-2.04-2.06V22.13z M273.47,24.46
		c0,0.75,0.35,0.97,0.78,0.97s0.78-0.22,0.78-0.97v-2.11c0-0.75-0.35-0.97-0.78-0.97s-0.78,0.22-0.78,0.97V24.46z"/>
	<path class="st9" d="M277.66,22.13c0-1.3,0.71-1.92,1.66-1.92c0.47,0,0.87,0.15,1.15,0.49v-2.07c0-0.28,0.14-0.42,0.42-0.42h0.42
		c0.28,0,0.42,0.14,0.42,0.42v5.91c0,1.4-0.87,2.06-2.04,2.06c-1.16,0-2.04-0.66-2.04-2.06V22.13z M278.92,24.46
		c0,0.75,0.35,0.97,0.78,0.97s0.78-0.22,0.78-0.97v-2.11c0-0.75-0.35-0.97-0.78-0.97s-0.78,0.22-0.78,0.97V24.46z"/>
	<path class="st9" d="M286.23,24.41h0.48c0.28,0,0.42,0.14,0.42,0.42c0,1.05-0.79,1.77-1.98,1.77c-1.16,0-2.04-0.69-2.04-2.06v-2.27
		c0-1.37,0.87-2.06,2.04-2.06c1.16,0,2.04,0.69,2.04,2.06v0.99c0,0.28-0.14,0.42-0.42,0.42h-2.4v0.78c0,0.75,0.35,0.97,0.78,0.97
		c0.44,0,0.72-0.26,0.72-0.65C285.87,24.54,286,24.41,286.23,24.41z M284.37,22.74h1.56v-0.38c0-0.75-0.35-0.97-0.78-0.97
		s-0.78,0.22-0.78,0.97V22.74z"/>
	<path class="st9" d="M292.19,26.47h-0.42c-0.28,0-0.42-0.14-0.42-0.42v-3.7c0-0.75-0.35-0.97-0.78-0.97s-0.78,0.22-0.78,0.97v3.7
		c0,0.28-0.14,0.42-0.42,0.42h-0.42c-0.28,0-0.42-0.14-0.42-0.42v-3.78c0-1.37,0.87-2.06,2.04-2.06c1.16,0,2.04,0.69,2.04,2.06v3.78
		C292.61,26.33,292.47,26.47,292.19,26.47z"/>
</g>
<g>
	<path class="st27" d="M413.12,93.83H376.9c-1.89,0-3.43-1.54-3.43-3.43V79.05c0-1.9,1.54-3.43,3.43-3.43h36.21
		c1.89,0,3.43,1.54,3.43,3.43V90.4C416.55,92.3,415.01,93.83,413.12,93.83z"/>
	<polygon class="st27" points="390.8,93.1 400.1,93.21 395.35,99.68 	"/>
</g>
<g>
	<path class="st9" d="M382.86,80.46c1.44,0,2.53,0.85,2.53,2.55v3.31c0,1.7-1.08,2.55-2.53,2.55c-1.44,0-2.53-0.85-2.53-2.55v-3.31
		C380.33,81.31,381.42,80.46,382.86,80.46z M381.67,86.17c0,1.08,0.54,1.42,1.19,1.42c0.65,0,1.19-0.34,1.19-1.42v-3.03
		c0-1.08-0.54-1.42-1.19-1.42c-0.65,0-1.19,0.34-1.19,1.42V86.17z"/>
	<path class="st9" d="M387.25,82.6h0.42c0.28,0,0.42,0.14,0.42,0.42v3.7c0,0.75,0.35,0.97,0.78,0.97s0.78-0.22,0.78-0.97v-3.7
		c0-0.28,0.14-0.42,0.42-0.42h0.42c0.28,0,0.42,0.14,0.42,0.42v3.78c0,1.37-0.87,2.06-2.04,2.06c-1.16,0-2.04-0.69-2.04-2.06v-3.78
		C386.83,82.74,386.97,82.6,387.25,82.6z"/>
	<path class="st9" d="M394.11,88.78c-1.11,0-1.72-0.47-1.72-1.72v-5.54c0-0.28,0.14-0.42,0.42-0.42h0.42c0.28,0,0.42,0.14,0.42,0.42
		v1.08h1c0.28,0,0.42,0.14,0.42,0.42v0.34c0,0.28-0.14,0.42-0.42,0.42h-1v3.19c0,0.48,0.16,0.64,0.64,0.64
		c0.12,0,0.22-0.01,0.36-0.03c0.28-0.05,0.42,0.13,0.42,0.41v0.34c0,0.28-0.14,0.37-0.36,0.42
		C394.47,88.78,394.29,88.78,394.11,88.78z"/>
	<path class="st9" d="M400.26,86.94c0,1.3-0.71,1.92-1.66,1.92c-0.48,0-0.87-0.15-1.15-0.49v1.91c0,0.28-0.14,0.42-0.42,0.42h-0.42
		c-0.28,0-0.42-0.14-0.42-0.42v-5.75c0-1.4,0.87-2.06,2.04-2.06c1.16,0,2.04,0.66,2.04,2.06V86.94z M399,84.61
		c0-0.75-0.35-0.97-0.78-0.97c-0.43,0-0.78,0.22-0.78,0.97v2.11c0,0.75,0.35,0.97,0.78,0.97c0.43,0,0.78-0.22,0.78-0.97V84.61z"/>
	<path class="st9" d="M402.05,82.6h0.42c0.28,0,0.42,0.14,0.42,0.42v3.7c0,0.75,0.35,0.97,0.78,0.97s0.78-0.22,0.78-0.97v-3.7
		c0-0.28,0.14-0.42,0.42-0.42h0.42c0.28,0,0.42,0.14,0.42,0.42v3.78c0,1.37-0.87,2.06-2.04,2.06c-1.16,0-2.04-0.69-2.04-2.06v-3.78
		C401.63,82.74,401.77,82.6,402.05,82.6z"/>
	<path class="st9" d="M408.91,88.78c-1.11,0-1.72-0.47-1.72-1.72v-5.54c0-0.28,0.14-0.42,0.42-0.42h0.42c0.28,0,0.42,0.14,0.42,0.42
		v1.08h1c0.28,0,0.42,0.14,0.42,0.42v0.34c0,0.28-0.14,0.42-0.42,0.42h-1v3.19c0,0.48,0.16,0.64,0.64,0.64
		c0.12,0,0.22-0.01,0.36-0.03c0.28-0.05,0.42,0.13,0.42,0.41v0.34c0,0.28-0.14,0.37-0.36,0.42
		C409.27,88.78,409.08,88.78,408.91,88.78z"/>
</g>
<g>
	<path class="st7" d="M493.7,160.05h-1.36c-0.29,0-0.44-0.15-0.44-0.44v-0.38c0-0.29,0.15-0.44,0.44-0.44h4.06
		c0.29,0,0.44,0.15,0.44,0.44v0.38c0,0.29-0.15,0.44-0.44,0.44h-1.36v6.44c0,0.29-0.15,0.44-0.44,0.44h-0.45
		c-0.29,0-0.44-0.15-0.44-0.44V160.05z"/>
	<path class="st7" d="M498.74,162.65v3.87c0,0.28-0.14,0.42-0.42,0.42h-0.42c-0.28,0-0.42-0.14-0.42-0.42v-3.96
		c0-1.33,0.68-1.82,1.84-1.82c0.17,0,0.36,0,0.59,0.05c0.22,0.05,0.36,0.14,0.36,0.42v0.34c0,0.28-0.14,0.45-0.42,0.41
		c-0.14-0.02-0.24-0.04-0.36-0.04C498.96,161.91,498.74,162.1,498.74,162.65z"/>
	<path class="st7" d="M504.19,164.87h0.48c0.28,0,0.42,0.14,0.42,0.42c0,1.05-0.79,1.77-1.98,1.77c-1.16,0-2.04-0.69-2.04-2.06
		v-2.27c0-1.37,0.87-2.06,2.04-2.06c1.16,0,2.04,0.69,2.04,2.06v0.99c0,0.28-0.14,0.42-0.42,0.42h-2.4v0.78
		c0,0.75,0.35,0.97,0.78,0.97c0.44,0,0.72-0.26,0.72-0.65C503.83,165,503.96,164.87,504.19,164.87z M502.33,163.2h1.56v-0.38
		c0-0.75-0.35-0.97-0.78-0.97s-0.78,0.22-0.78,0.97V163.2z"/>
	<path class="st7" d="M509.51,164.87h0.48c0.28,0,0.42,0.14,0.42,0.42c0,1.05-0.79,1.77-1.98,1.77c-1.16,0-2.04-0.69-2.04-2.06
		v-2.27c0-1.37,0.87-2.06,2.04-2.06c1.16,0,2.04,0.69,2.04,2.06v0.99c0,0.28-0.14,0.42-0.42,0.42h-2.4v0.78
		c0,0.75,0.35,0.97,0.78,0.97c0.44,0,0.72-0.26,0.72-0.65C509.15,165,509.28,164.87,509.51,164.87z M507.65,163.2h1.56v-0.38
		c0-0.75-0.35-0.97-0.78-0.97s-0.78,0.22-0.78,0.97V163.2z"/>
</g>
<g>
	<path class="st9" d="M43.51,122.52c0.21-0.16,0.44-0.27,0.71-0.34c0.67-0.18,1.39-0.14,2.03-0.45c0.47-0.22,0.87-0.62,1.34-0.84
		c0.9-0.43,1.92-0.18,2.81,0.2c1.21,0.52,2.35,1.31,3.13,2.47c0.77,1.16,1.13,2.72,0.75,4.15c-0.56,2.09-2.53,3.39-4.44,3.79
		c-2.07,0.43-4.3-0.02-5.83-1.53c-1.03-1.02-1.68-2.54-1.71-4.11C42.26,124.65,42.6,123.21,43.51,122.52z"/>
	<path class="st9" d="M62.74,129.9c0,2.43-2.06,4.4-4.59,4.4c-2.54,0-4.59-1.97-4.59-4.4c0-2.43,2.06-4.4,4.59-4.4
		C60.69,125.5,62.74,127.47,62.74,129.9z"/>
	<path class="st9" d="M58.09,131.74c-0.81,0.07-1.6,0.19-2.36,0.39c-0.7,0.19-1.41,0.41-2.07,0.72c1.05-1.1,2.19-2.07,3.46-2.92
		c0.72-0.48,1.44-0.94,2.02-1.58c0.43-0.47,0.86-0.94,1.29-1.4c-0.12-0.06-0.41-0.3-0.54-0.28c-0.13,0.02-0.36,0.35-0.45,0.43
		c-0.58,0.55-1.15,1.14-1.79,1.62c-0.25,0.19-1.61,1.23-1.8,0.87c-0.13-0.23,0.04-0.97,0.18-1.5c-0.09,0.01-0.17,0.03-0.27,0.03
		c-0.11,0-0.21-0.01-0.31-0.03c-0.14,0.74-0.27,1.92-0.58,2.37c-0.64,0.91-1.69,1.4-2.34,2.3c0.04-1.12,0.05-2.25,0.1-3.37
		c0.04-0.91,0.18-1.82,0.53-2.66c0.33-0.79,0.76-1.54,1.08-2.34c0.04-0.1,0.3-0.57,0.26-0.68c-0.02-0.05-0.33-0.23-0.38-0.22
		c-0.21,0.05-0.59,1.03-0.68,1.21c-0.74,1.45-1.36,3.03-1.45,4.68c-0.2-1.23-0.38-2.5-0.8-3.67c-0.27-0.76-0.52-1.51-0.76-2.28
		c-0.06-0.18-0.11-0.66-0.24-0.8c-0.1-0.1-0.32-0.06-0.49-0.06c0.35,1.81,0.94,3.57,1.22,5.4c0.15,0.98,0.38,1.98,0.38,2.97
		c0,0.74-0.07,1.49-0.13,2.23c-1.51-0.68-3.27-1.24-4.58-2.27c-0.69-0.55-1.15-1.22-1.53-2.01c-0.13-0.27-0.28-0.9-0.5-1.1
		c-0.13-0.11-0.3-0.04-0.5-0.01c0.27,0.8,0.55,1.61,0.9,2.38c0.22,0.48,0.47,0.86,0.9,1.18c0.45,0.33,2.75,1.74,3.54,2.07
		c0.77,0.32,1.48,1.04,1.66,1.92c0.27,1.3,0.06,2.83-0.01,4.14c-0.06,1.05-0.12,2.09-0.19,3.14c-0.06,0.97,0.05,2.25-0.39,3.13h2.9
		c-0.34-0.46-0.3-1.16-0.34-1.7c-0.05-0.76-0.11-1.52-0.15-2.28c-0.09-1.42-0.21-2.85-0.21-4.28c0-0.78,0.06-1.55,0.27-2.3
		c0.25-0.87,0.57-1.34,1.4-1.73c1.17-0.54,2.47-0.9,3.76-1.07C58.1,132.18,58.1,131.96,58.09,131.74z"/>
	<circle class="st9" cx="45.05" cy="130.3" r="3.34"/>
	<path class="st9" d="M56.14,124.71c0.53-0.48,1.23-0.78,1.95-0.79c1.27-0.01,2.32,0.88,2.82,2c0.52,1.18-0.06,2.61-1.07,3.34
		c-1,0.72-2.46,0.71-3.45-0.01c-0.99-0.72-1.45-2.11-1.07-3.28C55.47,125.49,55.77,125.06,56.14,124.71z"/>
	<path class="st9" d="M58.36,119.92c0,0,3-0.95,4.36,1.87c1,2.06-0.22,3.94-1.24,4.37c-1.68,0.71-2.7-0.22-2.7-0.22
		s-1.14,2.22-4.01,2.69c-5.07,0.82-6.83-2.62-6.83-2.62s-1.21,0.65-2.95,0.33c-2.29-0.43-3.49-2.23-3.26-4.25
		c0.26-2.32,2.3-3.66,4.04-3.36c0,0,0.07-1.63,2.13-2.27c0.5-0.16,1.67-0.24,2.24,0.02c0,0,1.28-2.37,4.56-1.75
		C59.2,115.56,58.36,119.92,58.36,119.92z"/>
</g>
<polyline class="st217" points="122.88,254.22 111.44,254.22 111.44,73.47 122.88,73.47 "/>
</svg>
