<?xml version="1.0" encoding="utf-8"?>
<!-- Generator: Adobe Illustrator 27.2.0, SVG Export Plug-In . SVG Version: 6.00 Build 0)  -->
<svg version="1.1" id="Ebene_1" xmlns="http://www.w3.org/2000/svg" xmlns:xlink="http://www.w3.org/1999/xlink" x="0px" y="0px"
	 viewBox="0 0 1200.05 415.36" style="enable-background:new 0 0 1200.05 415.36;" xml:space="preserve">
<style type="text/css">
	.st0{opacity:0.4;fill:#60748C;}
	.st1{opacity:0.75;fill:#60748C;}
	.st2{fill:#ECECEC;}
	.st3{opacity:0.1;}
	.st4{opacity:0.3;fill:#5B7188;}
	.st5{fill:#60748C;}
	.st6{opacity:0.3;fill:none;stroke:#5B7188;stroke-width:13;stroke-miterlimit:10;}
	.st7{opacity:0.7;fill:#60748C;}
	.st8{fill:#A4C748;}
	.st9{fill:none;stroke:#FFFFFF;stroke-width:5;stroke-miterlimit:10;}
	.st10{fill:#A3C648;}
	.st11{opacity:0.25;fill:#60748C;}
	.st12{opacity:0.34;fill:#60748C;}
	.st13{stroke:#FFFFFF;stroke-width:0.5;stroke-miterlimit:10;}
	.st14{fill:#FFFFFF;}
	.st15{fill:#EDEDED;}
	.st16{opacity:0.1;fill:#546579;stroke:#60748C;stroke-width:1.0251;stroke-miterlimit:10;}
	.st17{opacity:0.1;fill:#546579;stroke:#282F39;stroke-width:1.0251;stroke-miterlimit:10;}
	.st18{opacity:0.1;fill:#546579;stroke:#546579;stroke-width:1.0251;stroke-miterlimit:10;}
	.st19{fill:#60748C;stroke:#60748C;stroke-width:0.9491;stroke-miterlimit:10;}
	.st20{fill:#282F39;}
	.st21{fill:#45AD4B;stroke:#45AD4B;stroke-width:0.8985;stroke-miterlimit:10;}
	.st22{fill:#6DC5D8;stroke:#6DC5D8;stroke-width:0.9491;stroke-miterlimit:10;}
	.st23{fill:#282F39;stroke:#FFFFFF;stroke-width:1.0437;stroke-miterlimit:10;}
	.st24{fill:#45AD4B;stroke:#45AD4B;stroke-width:0.9491;stroke-miterlimit:10;}
	.st25{fill:#45AD4B;stroke:#45AD4B;stroke-width:0.9119;stroke-miterlimit:10;}
	.st26{fill:#C1252D;stroke:#C1252D;stroke-width:0.9491;stroke-miterlimit:10;}
	.st27{fill:#C1252D;}
	.st28{fill:#C1252D;stroke:#C1252D;stroke-width:1.0339;stroke-miterlimit:10;}
	.st29{fill:#C1252D;stroke:#C1252D;stroke-width:0.8834;stroke-miterlimit:10;}
	.st30{fill:none;stroke:#282F39;stroke-width:2;stroke-linecap:round;stroke-linejoin:round;stroke-miterlimit:10;}
	.st31{fill:#45AD4B;}
	.st32{fill:#45AB4B;}
	.st33{fill:#6DC5D8;}
	.st34{fill:#5B7188;}
	.st35{fill:#97A2AF;}
	.st36{fill:#BABBBC;}
	.st37{fill:#5B7185;}
	.st38{fill:#A0C348;}
	.st39{fill:#45A84B;}
	.st40{fill:#BC252D;}
	.st41{fill:#6DC0D3;}
	.st42{fill:none;stroke:#C7D3D7;stroke-miterlimit:10;}
	.st43{opacity:0.1;fill:#757577;}
	.st44{fill:none;stroke:#FFFFFF;stroke-miterlimit:10;}
	.st45{opacity:0.6;}
	.st46{fill:#F1F3F4;}
	.st47{fill:none;stroke:#F1F3F4;stroke-miterlimit:10;}
	.st48{fill:#E8EAED;}
	.st49{fill:#F1F1F1;}
	.st50{fill:#646768;}
	.st51{opacity:0.25;fill:#757577;}
	.st52{fill:none;stroke:#6DC5D8;stroke-width:3;stroke-miterlimit:10;}
	.st53{fill:none;stroke:#C1252D;stroke-width:3;stroke-miterlimit:10;}
	.st54{fill:none;stroke:#45AD4B;stroke-width:3;stroke-miterlimit:10;}
	.st55{fill:#E7E7E7;}
	.st56{clip-path:url(#SVGID_00000026135533647781160710000016641781282894197133_);}
	.st57{clip-path:url(#SVGID_00000026135533647781160710000016641781282894197133_);fill:#F1F1F1;}
	.st58{clip-path:url(#SVGID_00000006685032968110491910000009595969040285329839_);}
	.st59{fill:#FEF9E8;}
	.st60{fill:#CEEAD6;}
	.st61{fill:#FCE8E6;}
	.st62{fill:none;stroke:#9CC0F9;stroke-width:3;stroke-miterlimit:10;}
	.st63{fill:none;stroke:#9CC0F9;stroke-miterlimit:10;}
	.st64{opacity:0.5;fill:#757577;}
	.st65{clip-path:url(#SVGID_00000026135533647781160710000016641781282894197133_);fill:#FFFFFF;}
	.st66{fill:none;stroke:#C1252D;stroke-width:9;stroke-miterlimit:10;}
	.st67{fill:none;stroke:#E7E7E7;stroke-width:9;stroke-miterlimit:10;}
	.st68{fill:none;stroke:#FFFFFF;stroke-width:3;stroke-miterlimit:10;}
	.st69{fill:none;stroke:#45AD4B;stroke-width:9;stroke-miterlimit:10;}
	.st70{fill:none;stroke:#6DC5D8;stroke-width:1.5;stroke-miterlimit:10;}
	.st71{opacity:0.25;clip-path:url(#SVGID_00000026135533647781160710000016641781282894197133_);fill:#757577;}
	.st72{fill:#292929;}
	.st73{fill-rule:evenodd;clip-rule:evenodd;}
	.st74{fill:#FF7578;}
	.st75{fill:#FFC9CA;}
	.st76{fill:#173042;}
	.st77{fill:#946B6B;}
	.st78{fill:none;}
	.st79{fill:#FFFFFF;stroke:#FFFFFF;stroke-width:7;stroke-miterlimit:10;}
	.st80{fill:#444444;}
	.st81{fill:#F73103;}
	.st82{fill:#FFBB39;}
	.st83{fill:#398229;}
	.st84{fill:#DE0505;}
	.st85{fill:#FF804E;}
	.st86{fill:#7ED668;}
	.st87{fill:#BF252D;}
	.st88{fill:#D4894D;}
	.st89{fill:#AD5512;}
	.st90{fill:#FF00FF;}
	.st91{fill:#FF3D75;}
	.st92{fill:#F28E1E;}
	.st93{fill:#2B6E53;}
	.st94{fill:#399150;}
	.st95{fill:#6A4A1D;}
	.st96{fill:#6DC3D6;}
	.st97{clip-path:url(#SVGID_00000112594310784203676860000015394073171658897578_);}
	.st98{clip-path:url(#SVGID_00000166638528657717764030000000593314191459995267_);}
	.st99{fill:#333333;}
	.st100{fill:url(#SVGID_00000133522164719561897350000004003956302173958034_);}
	.st101{fill:url(#SVGID_00000056413306835204531780000015126956076500382610_);}
	.st102{opacity:0.08;}
	.st103{fill:url(#SVGID_00000119810174348986125110000013573992065285997712_);}
	.st104{fill-rule:evenodd;clip-rule:evenodd;fill:#1A1A1A;}
	.st105{fill:#1A1A1A;}
	.st106{fill-rule:evenodd;clip-rule:evenodd;fill:#60748C;}
	.st107{fill:#FCEED7;}
	.st108{fill:#FBD18B;}
	.st109{fill:#DEE1E5;}
	.st110{fill:#ED8D80;}
	.st111{fill:#E97361;}
	.st112{fill:#AE5649;}
	.st113{fill:#CACED5;}
	.st114{fill:#A8B0BB;}
	.st115{fill:#CACFD7;}
	.st116{fill:#EABF9A;}
	.st117{fill:#E4E7EB;}
	.st118{fill:#69D4F2;}
	.st119{fill:#B2DB7F;}
	.st120{fill:#9ED268;}
	.st121{fill:#F8F8F8;}
	.st122{fill:#F0F0F0;}
	.st123{fill:#738DBD;}
	.st124{fill:#E46D67;}
	.st125{fill:#24C1F0;}
	.st126{fill:#36B183;}
	.st127{fill:#FFB866;}
	.st128{fill:#FFD873;}
	.st129{fill-rule:evenodd;clip-rule:evenodd;fill:#485156;}
	.st130{fill:#58595B;}
	.st131{fill:#BF252D;stroke:#BF252D;stroke-width:2;stroke-miterlimit:10;}
	.st132{fill:#FFFFFF;stroke:#BF252D;stroke-width:4;stroke-linecap:round;stroke-linejoin:round;stroke-miterlimit:10;}
	.st133{fill-rule:evenodd;clip-rule:evenodd;fill:#BF252D;}
	.st134{fill:none;stroke:#FFFFFF;stroke-miterlimit:10;stroke-dasharray:1.0108,1.0108;}
	.st135{fill:none;stroke:#45AD4B;stroke-width:4;stroke-miterlimit:10;}
	.st136{fill:none;stroke:#C1252D;stroke-width:4;stroke-miterlimit:10;}
	.st137{opacity:0.2;fill:#45AD4B;}
	.st138{opacity:0.6;fill:#45AD4B;}
	.st139{fill:#44A049;}
	.st140{clip-path:url(#SVGID_00000023275468470295986100000008027290634228115343_);}
	.st141{opacity:0.5;fill:#45AD4B;}
	.st142{opacity:0.2;fill:#E7E7E7;}
	.st143{opacity:0.5;fill:#E7E7E7;}
	.st144{opacity:0.5;fill:#FFFFFF;}
	.st145{opacity:0.2;fill:#6DC5D8;}
	.st146{fill:none;stroke:#FFFFFF;stroke-width:2.5;stroke-miterlimit:10;}
	.st147{fill:none;stroke:#BF252D;stroke-width:5;stroke-miterlimit:10;}
	.st148{fill:#BF252D;stroke:#FFFFFF;stroke-width:3;stroke-miterlimit:10;}
	.st149{fill:#FFFFFF;stroke:#FFFFFF;stroke-width:5.5;stroke-miterlimit:10;}
	.st150{fill:none;stroke:#BF252D;stroke-width:3;stroke-miterlimit:10;}
	.st151{fill:#BF252D;stroke:#FFFFFF;stroke-width:4.5;stroke-miterlimit:10;}
	.st152{fill:#BF252D;stroke:#FFFFFF;stroke-miterlimit:10;}
	.st153{fill:#F7E921;}
	.st154{fill:#6E81B5;}
	.st155{fill:#466087;}
	.st156{fill:#FFAEA8;}
	.st157{fill:#FFE152;}
	.st158{fill:#96C869;}
	.st159{fill:#ADB3BD;}
	.st160{fill:#CACED8;}
	.st161{fill:#40CAEF;}
	.st162{fill:#276F80;}
	.st163{fill:#878F9E;}
	.st164{fill:#EEF0F3;}
	.st165{fill:#1E505B;}
	.st166{fill:#9C80EA;}
	.st167{fill:#FAC955;}
	.st168{clip-path:url(#SVGID_00000016764901680683030630000007500975235322478739_);}
	.st169{fill:#E5EAEB;}
	.st170{fill:#ADB4B9;}
	.st171{fill:#495D72;}
	.st172{fill:#28384C;}
	.st173{fill:#E9B816;}
	.st174{fill:#DB352E;}
	.st175{fill:#366DB4;}
	.st176{fill:#753489;}
	.st177{fill:#57A9BF;}
	.st178{fill:#25AC86;}
	.st179{fill:#F56363;}
	.st180{fill:#BD5A45;}
	.st181{fill:#F0EABD;}
	.st182{fill:#EB8819;}
	.st183{fill:#C3411E;}
	.st184{fill:#205B75;}
	.st185{fill:#C8D9E8;}
	.st186{fill:#A9B9CA;}
	.st187{fill:#114559;}
	.st188{fill:#DFE8F2;}
	.st189{fill:#E3B933;}
	.st190{fill:#E96374;}
	.st191{fill:#80EAFF;}
	.st192{fill:#FFFFFF;stroke:#C1252D;stroke-width:7;stroke-miterlimit:10;}
	.st193{fill:#FFFFFF;stroke:#45AD4B;stroke-width:7;stroke-miterlimit:10;}
	.st194{fill:#B4BCBD;}
	.st195{fill:#CED7DA;}
	.st196{fill:none;stroke:#45AD4B;stroke-width:2;stroke-miterlimit:10;}
	.st197{fill:#6DC3D6;stroke:#FFFFFF;stroke-width:0.1;stroke-miterlimit:10;}
	.st198{fill:#C1252D;stroke:#FFFFFF;stroke-width:0.1;stroke-miterlimit:10;}
	.st199{fill:#A3C648;stroke:#FFFFFF;stroke-width:0.1;stroke-miterlimit:10;}
	.st200{fill:#45AB4B;stroke:#FFFFFF;stroke-width:0.1;stroke-miterlimit:10;}
	.st201{fill:none;stroke:#60748C;stroke-linecap:round;stroke-linejoin:round;stroke-miterlimit:10;stroke-dasharray:2,4;}
	.st202{fill:#F0F0F0;stroke:#C1252D;stroke-width:7;stroke-miterlimit:10;}
	.st203{fill:#F0F0F0;stroke:#45AD4B;stroke-width:7;stroke-miterlimit:10;}
	.st204{opacity:0.3;}
	.st205{fill:#566469;}
	.st206{font-family:'Yummo-Bold';}
	.st207{font-size:28.8259px;}
	.st208{font-size:16.7771px;}
	.st209{fill:#EDEDED;stroke:#C1252D;stroke-width:6;stroke-miterlimit:10;}
	.st210{font-size:17.8446px;}
	.st211{fill:#5B7188;stroke:#EDEDED;stroke-miterlimit:10;}
	.st212{fill:#EDEDED;stroke:#45AD4B;stroke-width:6;stroke-miterlimit:10;}
	.st213{fill:#FFFFFF;stroke:#C1252D;stroke-width:6;stroke-miterlimit:10;}
	.st214{fill:#FFFFFF;stroke:#45AD4B;stroke-width:6;stroke-miterlimit:10;}
	.st215{fill:none;stroke:#6DC5D8;stroke-linecap:round;stroke-linejoin:round;}
	.st216{fill:none;stroke:#6DC5D8;stroke-linecap:round;stroke-linejoin:round;stroke-dasharray:4.8937,7.8299;}
	.st217{fill:none;stroke:#6DC5D8;stroke-linecap:round;stroke-linejoin:round;stroke-dasharray:5.1322,8.2115;}
	.st218{fill:none;stroke:#6DC5D8;stroke-linecap:round;stroke-linejoin:round;stroke-miterlimit:10;stroke-dasharray:5,8;}
	.st219{fill:#45AC4B;}
	.st220{fill:#C0252D;}
	.st221{fill:#6DC4D7;}
	.st222{fill:#5B7189;}
	.st223{fill:none;stroke:#60748C;stroke-width:1.5;stroke-miterlimit:10;}
	.st224{opacity:0.4;}
	.st225{fill:none;stroke:#60748C;stroke-width:2;stroke-linecap:round;stroke-linejoin:round;stroke-miterlimit:10;}
	.st226{opacity:0.54;fill:#FFFFFF;}
	.st227{clip-path:url(#SVGID_00000023266862106597917870000016291364796073267343_);}
	.st228{opacity:0.5;fill:#5B7188;}
	.st229{opacity:0.1;fill:#60748C;}
	.st230{clip-path:url(#SVGID_00000173125207632803531500000004688178041436408201_);}
	.st231{display:none;}
	.st232{display:inline;fill:#FFFFFF;}
	.st233{display:inline;fill:#090C11;}
	.st234{display:inline;fill:#4A596E;}
	.st235{fill:#546579;}
	.st236{fill:#6F88A6;}
	.st237{opacity:0.1;fill:none;stroke:#FFFFFF;stroke-miterlimit:10;}
	.st238{display:none;fill:#6DC5D8;}
	.st239{opacity:0.45;fill:#60748C;}
	.st240{opacity:0.03;clip-path:url(#SVGID_00000097481427133652253260000008366463875691570573_);}
	.st241{clip-path:url(#SVGID_00000097481427133652253260000008366463875691570573_);}
	
		.st242{clip-path:url(#SVGID_00000097481427133652253260000008366463875691570573_);fill:#FFFFFF;stroke:#60748C;stroke-width:1.5;stroke-miterlimit:10;}
	.st243{opacity:0.4;clip-path:url(#SVGID_00000097481427133652253260000008366463875691570573_);}
	.st244{clip-path:url(#SVGID_00000061465224984693627130000002925489522982580154_);}
	.st245{opacity:0.05;clip-path:url(#SVGID_00000061465224984693627130000002925489522982580154_);}
	.st246{fill:#575756;}
	
		.st247{clip-path:url(#SVGID_00000061465224984693627130000002925489522982580154_);fill:#FFFFFF;stroke:#60748C;stroke-width:1.5;stroke-miterlimit:10;}
	.st248{opacity:0.4;clip-path:url(#SVGID_00000061465224984693627130000002925489522982580154_);}
	.st249{fill:#FFFFFF;stroke:#60748C;stroke-width:1.5;stroke-miterlimit:10;}
	.st250{fill:#A5C848;}
	.st251{opacity:0.2;}
	.st252{clip-path:url(#SVGID_00000054253598514297260210000010875817059754739077_);}
	.st253{clip-path:url(#SVGID_00000163057404210220978640000015158143585720303037_);}
	.st254{fill:none;stroke:#60748C;stroke-width:3;stroke-miterlimit:10;}
	.st255{fill:#EDEDED;stroke:#C0252D;stroke-width:3;stroke-miterlimit:10;}
	.st256{clip-path:url(#SVGID_00000004519919834372226340000012251639506162418335_);}
	.st257{opacity:0.1;fill:#546579;}
	.st258{opacity:0.05;}
	.st259{fill:#606060;}
	.st260{opacity:0.15;}
	.st261{opacity:0.5;}
	.st262{fill:#535353;}
	.st263{opacity:0.7;}
	.st264{filter:url(#Adobe_OpacityMaskFilter);}
	.st265{filter:url(#Adobe_OpacityMaskFilter_00000037674779229448991830000015838308905734914944_);}
	
		.st266{mask:url(#SVGID_00000002384493303833711740000018438815557470823357_);fill:url(#SVGID_00000176013502306725245200000014813968044441407887_);}
	.st267{filter:url(#Adobe_OpacityMaskFilter_00000020368634544303672120000014946377850900734629_);}
	.st268{filter:url(#Adobe_OpacityMaskFilter_00000179639786299065129580000011707073003292150916_);}
	
		.st269{mask:url(#SVGID_00000086655751882518106730000010944760115664939186_);fill:url(#SVGID_00000113336167646153294610000011201579345018604445_);}
	.st270{filter:url(#Adobe_OpacityMaskFilter_00000010279761080287776630000016307237980898067632_);}
	.st271{filter:url(#Adobe_OpacityMaskFilter_00000040565630796707950830000006633244727012105869_);}
	
		.st272{mask:url(#SVGID_00000116205636940111682920000004018290686039466379_);fill:url(#SVGID_00000134235012691807833790000016376457288930618011_);}
	.st273{filter:url(#Adobe_OpacityMaskFilter_00000062899224132451260080000000863856983579204028_);}
	.st274{filter:url(#Adobe_OpacityMaskFilter_00000016780058374154999020000004328206494553293208_);}
	
		.st275{mask:url(#SVGID_00000177481865631472196470000018342167444020155576_);fill:url(#SVGID_00000082360301535891594050000005835853416890592170_);}
	.st276{filter:url(#Adobe_OpacityMaskFilter_00000086691087967380238400000001558342379337411970_);}
	.st277{filter:url(#Adobe_OpacityMaskFilter_00000181084594833044037620000002517156622567028608_);}
	
		.st278{mask:url(#SVGID_00000064337202953327480410000007293318984435755186_);fill:url(#SVGID_00000170240816727882084130000004394094970164566439_);}
	.st279{filter:url(#Adobe_OpacityMaskFilter_00000130643322827438526120000016724878614137182883_);}
	.st280{filter:url(#Adobe_OpacityMaskFilter_00000173152996742576710850000012136392604106311572_);}
	
		.st281{mask:url(#SVGID_00000156560749020621065930000003607256003501693597_);fill:url(#SVGID_00000022521577682618814500000006514047198721856385_);}
	.st282{filter:url(#Adobe_OpacityMaskFilter_00000041997586946655178080000006638031821602728865_);}
	.st283{filter:url(#Adobe_OpacityMaskFilter_00000156586518733319657350000003510501887256644793_);}
	
		.st284{mask:url(#SVGID_00000068648847089442697370000007423547830397348747_);fill:url(#SVGID_00000027563383804096228440000014791266664684818346_);}
	.st285{opacity:0.8;}
	.st286{filter:url(#Adobe_OpacityMaskFilter_00000170253838132361727760000003194669270761282962_);}
	.st287{filter:url(#Adobe_OpacityMaskFilter_00000008107897719980531750000008030216664926571919_);}
	
		.st288{mask:url(#SVGID_00000014628326592850455170000004240228091318793605_);fill:url(#SVGID_00000048488589068492767700000006252748870403602576_);}
	.st289{fill:none;stroke:#1A1A1A;stroke-width:4;stroke-miterlimit:10;}
	.st290{fill:none;stroke:#60748C;stroke-width:4;stroke-miterlimit:10;}
	.st291{fill:#FFFFFF;stroke:#60748C;stroke-width:3;stroke-miterlimit:10;}
	.st292{fill:#FFFFFF;stroke:#6DC5D8;stroke-width:3;stroke-miterlimit:10;}
	.st293{fill:#6DC5D8;stroke:#FFFFFF;stroke-width:3;stroke-miterlimit:10;}
	.st294{opacity:0.25;}
	.st295{fill:#757577;}
	.st296{fill:#AEAEAE;}
	.st297{fill:#C1252D;stroke:#FFFFFF;stroke-width:3;stroke-miterlimit:10;}
	.st298{fill:#1A1A1A;stroke:#FFFFFF;stroke-width:3;stroke-miterlimit:10;}
	.st299{fill:none;stroke:#000000;stroke-width:10;stroke-linecap:round;stroke-miterlimit:10;}
	.st300{fill:none;stroke:#45AD4B;stroke-width:6;stroke-miterlimit:10;}
	.st301{fill:none;stroke:#6DC5D8;stroke-width:6;stroke-miterlimit:10;}
	.st302{fill:none;stroke:#60748C;stroke-width:6;stroke-miterlimit:10;}
	.st303{fill:none;stroke:#000000;stroke-width:6;stroke-miterlimit:10;}
	.st304{fill:#60748C;stroke:#FFFFFF;stroke-width:4;stroke-miterlimit:10;}
	.st305{fill:none;stroke:#000000;stroke-width:7;stroke-linecap:round;stroke-miterlimit:10;}
	.st306{fill-rule:evenodd;clip-rule:evenodd;fill:none;stroke:#000000;stroke-width:4;stroke-miterlimit:10;}
	.st307{fill:none;stroke:#000000;stroke-width:4;stroke-miterlimit:10;}
	.st308{fill:none;stroke:#000000;stroke-width:4;stroke-linecap:round;stroke-miterlimit:10;}
	.st309{fill-rule:evenodd;clip-rule:evenodd;stroke:#FFFFFF;stroke-miterlimit:10;}
	.st310{fill:#949494;}
	.st311{clip-path:url(#SVGID_00000079477405277418768990000013165143259174094743_);}
	.st312{fill:#1A1A1A;stroke:#1A1A1A;stroke-miterlimit:10;}
	.st313{stroke:#000000;stroke-miterlimit:10;}
	.st314{clip-path:url(#SVGID_00000111881325578071959020000005960126627953997482_);}
	.st315{fill:#60748C;stroke:#60748C;stroke-miterlimit:10;}
	.st316{fill:#728499;}
	.st317{opacity:0.4;fill:#BF252D;}
	.st318{opacity:0.75;fill:#BF252D;}
	.st319{fill:#C7C7C7;}
	.st320{opacity:0.23;}
	.st321{opacity:0.2;fill:#5B7188;}
	.st322{fill:none;stroke:#FFFFFF;stroke-width:6;stroke-miterlimit:10;}
	.st323{fill:#BF252D;stroke:#FFFFFF;stroke-width:6;stroke-miterlimit:10;}
	.st324{opacity:0.3;fill:#BF252D;}
	.st325{opacity:0.7;fill:#BF252D;}
	.st326{opacity:0.5;fill:#BF252D;}
	.st327{opacity:0.2;fill:#BF252D;}
	.st328{fill:#BF252D;stroke:#FFFFFF;stroke-width:5;stroke-miterlimit:10;}
	.st329{opacity:0.53;fill:#52717F;}
	.st330{opacity:0.36;fill:#60748C;}
	.st331{opacity:0.31;fill:#60748C;}
	.st332{opacity:0.45;fill:#6DC5D8;}
	.st333{fill:#E81C24;}
	.st334{fill:#D4DB21;}
	.st335{fill:#F6AB3B;}
	.st336{opacity:0.8;fill:#60748C;}
	.st337{opacity:0.61;fill:#60748C;}
	.st338{opacity:0.12;fill:#6DC5D8;}
	.st339{fill:none;stroke:#6DC5D8;stroke-width:4;stroke-miterlimit:10;}
	.st340{fill:none;stroke:#A4C748;stroke-width:4;stroke-miterlimit:10;}
	.st341{fill:#C1252D;stroke:#C1252D;stroke-width:4;stroke-miterlimit:10;}
	.st342{fill:none;stroke:#FFFFFF;stroke-width:2;stroke-linecap:round;stroke-miterlimit:10;stroke-dasharray:3.9843,5.9765;}
	.st343{fill:none;stroke:#60748C;stroke-width:3;stroke-linecap:round;stroke-miterlimit:10;stroke-dasharray:0.4961,6.945;}
	.st344{fill:none;stroke:#FFFFFF;stroke-width:2;stroke-linecap:round;stroke-miterlimit:10;stroke-dasharray:4.0153,6.023;}
	.st345{fill:none;stroke:#60748C;stroke-width:3;stroke-linecap:round;stroke-miterlimit:10;stroke-dasharray:0.4971,6.9599;}
	.st346{opacity:0.47;fill:#60748C;}
	.st347{fill:none;stroke:#D01519;stroke-miterlimit:10;}
	.st348{clip-path:url(#SVGID_00000096759335118959036890000001526484919946631578_);}
	.st349{clip-path:url(#SVGID_00000015332165630350748170000004457686350112433855_);}
	.st350{fill:#ECECEC;stroke:#FFFFFF;stroke-width:10;stroke-miterlimit:10;}
	.st351{clip-path:url(#SVGID_00000084521770016886925050000008402239988061523902_);}
	.st352{clip-path:url(#SVGID_00000182505325108650899910000003176702664326673598_);}
	.st353{clip-path:url(#SVGID_00000032618098756006882660000017779411994243010481_);}
	.st354{clip-path:url(#SVGID_00000103254776501995013640000011306996982687474086_);}
	.st355{fill:none;stroke:#5B7188;stroke-width:3;stroke-miterlimit:10;stroke-dasharray:9,8;}
	.st356{clip-path:url(#SVGID_00000060010682083265731070000012768855642650012343_);}
	.st357{clip-path:url(#SVGID_00000163760075537569618580000005530835011657879209_);}
	.st358{fill:none;stroke:#E1E1E1;stroke-width:4;stroke-linecap:round;stroke-miterlimit:10;}
	.st359{fill:none;stroke:#000000;stroke-width:5;stroke-miterlimit:10;}
	.st360{fill:none;stroke:#000000;stroke-width:5;stroke-linecap:round;stroke-miterlimit:10;}
	.st361{fill:none;stroke:#E1E1E1;stroke-width:10;stroke-miterlimit:10;}
	.st362{fill:none;stroke:#A4C748;stroke-width:5;stroke-miterlimit:10;}
	.st363{fill:#A4C748;stroke:#FFFFFF;stroke-width:3;stroke-miterlimit:10;}
	.st364{fill:none;stroke:#E1E1E1;stroke-width:10;stroke-linecap:round;stroke-miterlimit:10;}
	.st365{fill:#60748C;stroke:#FFFFFF;stroke-width:5;stroke-miterlimit:10;}
	.st366{fill:#5B7188;stroke:#FFFFFF;stroke-width:5;stroke-miterlimit:10;}
	.st367{fill:#E1E1E1;}
	.st368{fill:none;stroke:#000000;stroke-width:7;stroke-linecap:round;stroke-linejoin:round;stroke-miterlimit:10;}
	.st369{fill:none;stroke:#000000;stroke-width:3;stroke-linecap:round;stroke-linejoin:round;stroke-miterlimit:10;}
	.st370{fill:none;stroke:#000000;stroke-width:6;stroke-linecap:round;stroke-linejoin:round;stroke-miterlimit:10;}
	.st371{fill:none;stroke:#000000;stroke-width:15;stroke-linecap:round;stroke-linejoin:round;stroke-miterlimit:10;}
	.st372{opacity:0.15;fill:#60748C;}
	.st373{opacity:0.37;fill:#60748C;}
	.st374{fill:none;stroke:#333E4C;stroke-width:6;stroke-linecap:round;stroke-linejoin:round;stroke-miterlimit:10;}
	.st375{fill:#EDEDED;stroke:#333E4C;stroke-miterlimit:10;}
	.st376{fill:none;stroke:#333E4C;stroke-width:7;stroke-linecap:round;stroke-linejoin:round;stroke-miterlimit:10;}
	.st377{fill:#5B7188;stroke:#FFFFFF;stroke-miterlimit:10;}
</style>
<g>
	<path class="st194" d="M618.12,291.63h113.79v28.45H618.12V291.63z"/>
	<path class="st195" d="M764.2,334.3c-0.37-0.57-0.87-1.05-1.47-1.37l-30.82-17.59H618.12l-30.82,17.59c-0.6,0.33-1.1,0.8-1.47,1.37
		c-0.58,0.8-0.89,1.76-0.9,2.75v11.47c0,2.62,2.12,4.74,4.74,4.74h170.69c2.62,0,4.74-2.12,4.74-4.74v-11.47
		C765.1,336.06,764.78,335.1,764.2,334.3z"/>
	<path class="st194" d="M765.1,337.05v11.47c0,2.62-2.12,4.74-4.74,4.74H589.68c-2.62,0-4.74-2.12-4.74-4.74v-11.47
		c0.01-0.99,0.32-1.95,0.9-2.75H764.2C764.78,335.1,765.1,336.06,765.1,337.05L765.1,337.05z"/>
	<path class="st195" d="M812.52,258.44v23.71c0,7.86-6.37,14.22-14.22,14.22H551.75c-7.86,0-14.22-6.37-14.22-14.22v-23.71
		l9.48-9.48h260.77L812.52,258.44z"/>
	<path class="st122" d="M812.52,92.49v165.94H537.52V92.49c0-7.86,6.37-14.22,14.22-14.22h246.55
		C806.15,78.27,812.52,84.64,812.52,92.49z"/>
	<path class="st87" d="M684.16,201.07h-4.74c-2.62,0-4.74-2.12-4.74-4.74s2.12-4.74,4.74-4.74h4.74c2.62,0,4.74,2.12,4.74,4.74
		S686.78,201.07,684.16,201.07z"/>
	<path class="st96" d="M736.31,201.07h-33.19c-2.62,0-4.74-2.12-4.74-4.74s2.12-4.74,4.74-4.74h33.19c2.62,0,4.74,2.12,4.74,4.74
		S738.93,201.07,736.31,201.07z"/>
	<path class="st32" d="M707.08,239.47h-52.15c-2.62,0-4.74-2.12-4.74-4.74c0-2.62,2.12-4.74,4.74-4.74h52.15
		c2.62,0,4.74,2.12,4.74,4.74C711.82,237.35,709.7,239.47,707.08,239.47z"/>
	<path class="st87" d="M703.54,220.25h-99.57c-2.62,0-4.74-2.12-4.74-4.74s2.12-4.74,4.74-4.74h99.57c2.62,0,4.74,2.12,4.74,4.74
		S706.16,220.25,703.54,220.25z"/>
	<path class="st32" d="M585.01,220.25h-9.48c-2.62,0-4.74-2.12-4.74-4.74s2.12-4.74,4.74-4.74h9.48c2.62,0,4.74,2.12,4.74,4.74
		S587.63,220.25,585.01,220.25z"/>
	<path class="st96" d="M594.49,239.22h-18.97c-2.62,0-4.74-2.12-4.74-4.74s2.12-4.74,4.74-4.74h18.97c2.62,0,4.74,2.12,4.74,4.74
		S597.11,239.22,594.49,239.22z"/>
	<path class="st87" d="M745.89,239.22h-18.97c-2.62,0-4.74-2.12-4.74-4.74s2.12-4.74,4.74-4.74h18.97c2.62,0,4.74,2.12,4.74,4.74
		S748.51,239.22,745.89,239.22z"/>
	<path class="st32" d="M774.14,201.08h-18.97c-2.62,0-4.74-2.12-4.74-4.74s2.12-4.74,4.74-4.74h18.97c2.62,0,4.74,2.12,4.74,4.74
		S776.76,201.08,774.14,201.08z"/>
	<path class="st87" d="M594.49,201.29h-18.97c-2.62,0-4.74-2.12-4.74-4.74s2.12-4.74,4.74-4.74h18.97c2.62,0,4.74,2.12,4.74,4.74
		S597.11,201.29,594.49,201.29z"/>
	<path class="st96" d="M660.87,201.29h-47.41c-2.62,0-4.74-2.12-4.74-4.74s2.12-4.74,4.74-4.74h47.41c2.62,0,4.74,2.12,4.74,4.74
		S663.49,201.29,660.87,201.29z"/>
	<path class="st96" d="M768.69,220.59h-47.41c-2.62,0-4.74-2.12-4.74-4.74s2.12-4.74,4.74-4.74h47.41c2.62,0,4.74,2.12,4.74,4.74
		S771.31,220.59,768.69,220.59z"/>
	<path class="st87" d="M635.98,239.22h-18.97c-2.62,0-4.74-2.12-4.74-4.74s2.12-4.74,4.74-4.74h18.97c2.62,0,4.74,2.12,4.74,4.74
		S638.6,239.22,635.98,239.22z"/>
	<circle class="st196" cx="675.56" cy="276.12" r="8.96"/>
	<g>
		<path class="st197" d="M551.87,99.35c-2.17-0.83-3.72-2.92-3.72-5.38c0-1.36,0.47-2.6,1.26-3.59l-2.23-0.42
			c-0.7,1.17-1.11,2.54-1.11,4.01c0,3.49,2.29,6.45,5.45,7.47L551.87,99.35z"/>
		<path class="st198" d="M549.83,89.9c1.04-1.05,2.49-1.7,4.08-1.7c0.42,0,0.82,0.05,1.21,0.13l0.65-1.98
			c-0.6-0.15-1.22-0.23-1.86-0.23c-2.65,0-5,1.33-6.42,3.35L549.83,89.9z"/>
		<path class="st199" d="M553.8,99.72c-0.49-0.01-0.96-0.08-1.41-0.2l-0.36,2.06c0.6,0.15,1.23,0.24,1.87,0.24
			c0.41,0,0.81-0.04,1.2-0.1L553.8,99.72z"/>
		<path class="st200" d="M556.3,86.49l-0.65,1.98c2.33,0.74,4.02,2.92,4.02,5.49c0,3-2.3,5.47-5.23,5.73l1.25,1.9
			c3.47-0.81,6.07-3.92,6.07-7.63C561.75,90.47,559.46,87.51,556.3,86.49z"/>
	</g>
	<rect x="566.52" y="114.88" class="st78" width="220.16" height="65.7"/>
	<text transform="matrix(1 0 0 1 566.5223 135.3454)"><tspan x="0" y="0" class="st205 st206 st207">10010101011010</tspan><tspan x="0" y="34.59" class="st205 st206 st207">11101001101011</tspan></text>
</g>
<g>
	<path class="st15" d="M285.5,353.79h-89.59c-7.29,0-13.2-5.91-13.2-13.2v-94.32c0-7.29,5.91-13.2,13.2-13.2h89.59
		c7.29,0,13.2,5.91,13.2,13.2v94.32C298.7,347.88,292.79,353.79,285.5,353.79z"/>
	<g>
		<path class="st96" d="M270.75,254.1H213.8c-4.68,0-8.48-3.79-8.48-8.48V227.1c0-4.68,3.79-8.48,8.48-8.48h56.95
			c4.68,0,8.48,3.79,8.48,8.48v18.52C279.23,250.31,275.44,254.1,270.75,254.1z"/>
		<polygon class="st96" points="232.46,249.3 251.26,249.52 241.67,262.6 		"/>
	</g>
	<g>
		<g>
			<path class="st34" d="M236.08,330.79h10.9v10.83h-10.9V330.79z"/>
			<path class="st34" d="M235.1,330.79h3.96v10.83h-3.96V330.79z"/>
			<path class="st34" d="M254.38,274.01H227.7c-1.09,0-1.98,0.89-1.98,1.98v65.63h5.41v-12.81c0-1.09,0.89-1.98,1.98-1.98h7.92h7.92
				c1.09,0,1.98,0.89,1.98,1.98v12.81h5.41v-65.63C256.36,274.9,255.47,274.01,254.38,274.01z M235.1,309
				c0,1.09-0.89,1.98-1.98,1.98s-1.98-0.89-1.98-1.98v-3.96c0-1.09,0.89-1.98,1.98-1.98s1.98,0.89,1.98,1.98V309z M243.02,309
				c0,1.09-0.89,1.98-1.98,1.98s-1.98-0.89-1.98-1.98v-3.96c0-1.09,0.89-1.98,1.98-1.98s1.98,0.89,1.98,1.98V309z M250.94,309
				c0,1.09-0.89,1.98-1.98,1.98s-1.98-0.89-1.98-1.98v-3.96c0-1.09,0.89-1.98,1.98-1.98s1.98,0.89,1.98,1.98V309z M235.1,297.12
				c0,1.09-0.89,1.98-1.98,1.98s-1.98-0.89-1.98-1.98v-3.96c0-1.09,0.89-1.98,1.98-1.98s1.98,0.89,1.98,1.98V297.12z M243.02,297.12
				c0,1.09-0.89,1.98-1.98,1.98s-1.98-0.89-1.98-1.98v-3.96c0-1.09,0.89-1.98,1.98-1.98s1.98,0.89,1.98,1.98V297.12z M250.94,297.12
				c0,1.09-0.89,1.98-1.98,1.98s-1.98-0.89-1.98-1.98v-3.96c0-1.09,0.89-1.98,1.98-1.98s1.98,0.89,1.98,1.98V297.12z M235.1,285.23
				c0,1.09-0.89,1.98-1.98,1.98s-1.98-0.89-1.98-1.98v-3.96c0-1.09,0.89-1.98,1.98-1.98s1.98,0.89,1.98,1.98V285.23z M243.02,285.23
				c0,1.09-0.89,1.98-1.98,1.98s-1.98-0.89-1.98-1.98v-3.96c0-1.09,0.89-1.98,1.98-1.98s1.98,0.89,1.98,1.98V285.23z M250.94,285.23
				c0,1.09-0.89,1.98-1.98,1.98s-1.98-0.89-1.98-1.98v-3.96c0-1.09,0.89-1.98,1.98-1.98s1.98,0.89,1.98,1.98V285.23z"/>
		</g>
		<path class="st34" d="M272.86,300.42h-12.54v41.2h12.54c1.09,0,1.98-0.89,1.98-1.98V302.4
			C274.84,301.31,273.96,300.42,272.86,300.42z M269.56,324.28c0,1.09-0.89,1.98-1.98,1.98c-1.09,0-1.98-0.89-1.98-1.98v-13.96
			c0-1.09,0.89-1.98,1.98-1.98c1.09,0,1.98,0.89,1.98,1.98V324.28z"/>
		<path class="st34" d="M209.22,300.42c-1.09,0-1.98,0.89-1.98,1.98v37.24c0,1.09,0.89,1.98,1.98,1.98h12.54v-41.2H209.22z
			 M216.48,324.34c0,1.09-0.89,1.98-1.98,1.98s-1.98-0.89-1.98-1.98v-14.01c0-1.09,0.89-1.98,1.98-1.98s1.98,0.89,1.98,1.98V324.34z
			"/>
	</g>
	<rect x="215.78" y="230.23" class="st78" width="54.37" height="16.31"/>
	<text transform="matrix(1 0 0 1 215.7842 242.1414)" class="st14 st206 st208">Building</text>
</g>
<g>
	<path class="st15" d="M154.29,352.35H64.7c-7.29,0-13.2-5.91-13.2-13.2v-94.32c0-7.29,5.91-13.2,13.2-13.2h89.59
		c7.29,0,13.2,5.91,13.2,13.2v94.32C167.49,346.44,161.58,352.35,154.29,352.35z"/>
	<g>
		<path class="st96" d="M138.47,254.12H81.52c-4.68,0-8.48-3.79-8.48-8.48v-18.52c0-4.68,3.79-8.48,8.48-8.48h56.95
			c4.68,0,8.48,3.79,8.48,8.48v18.52C146.95,250.32,143.15,254.12,138.47,254.12z"/>
		<polygon class="st96" points="100.18,249.31 118.97,249.53 109.38,262.61 		"/>
	</g>
	<g>
		<g>
			<path class="st34" d="M88.56,287.55c0.48-0.37,1.03-0.64,1.65-0.81c1.58-0.41,3.25-0.33,4.75-1.04c1.1-0.52,2.04-1.44,3.14-1.97
				c2.11-1.01,4.5-0.43,6.57,0.47c2.83,1.22,5.51,3.07,7.31,5.78c1.81,2.71,2.65,6.37,1.74,9.71c-1.32,4.88-5.93,7.94-10.38,8.86
				c-4.83,1-10.06-0.05-13.65-3.58c-2.42-2.38-3.93-5.95-4.01-9.63C85.62,292.53,86.42,289.18,88.56,287.55z"/>
			<path class="st34" d="M133.55,304.83c0,5.69-4.81,10.3-10.75,10.3c-5.94,0-10.75-4.61-10.75-10.3s4.81-10.3,10.75-10.3
				C128.74,294.53,133.55,299.14,133.55,304.83z"/>
			<path class="st34" d="M122.67,309.13c-1.89,0.17-3.76,0.43-5.53,0.92c-1.63,0.45-3.3,0.96-4.84,1.68
				c2.47-2.57,5.13-4.84,8.09-6.82c1.68-1.12,3.36-2.19,4.73-3.69c1-1.1,2.01-2.19,3.03-3.27c-0.28-0.15-0.96-0.7-1.25-0.65
				c-0.29,0.04-0.85,0.81-1.06,1.01c-1.36,1.29-2.69,2.66-4.19,3.78c-0.58,0.43-3.76,2.89-4.21,2.04c-0.29-0.55,0.09-2.26,0.43-3.52
				c-0.2,0.03-0.41,0.06-0.63,0.06c-0.26,0-0.5-0.03-0.73-0.07c-0.32,1.73-0.62,4.5-1.36,5.54c-1.49,2.13-3.96,3.27-5.48,5.38
				c0.08-2.63,0.12-5.25,0.24-7.88c0.09-2.12,0.41-4.26,1.23-6.23c0.77-1.86,1.78-3.61,2.53-5.48c0.09-0.23,0.7-1.34,0.61-1.59
				c-0.04-0.11-0.78-0.54-0.89-0.51c-0.49,0.11-1.37,2.41-1.58,2.82c-1.74,3.4-3.19,7.08-3.39,10.94c-0.46-2.87-0.89-5.85-1.87-8.59
				c-0.63-1.77-1.23-3.54-1.78-5.34c-0.13-0.43-0.25-1.54-0.56-1.86c-0.24-0.25-0.74-0.14-1.14-0.14c0.81,4.24,2.19,8.36,2.85,12.63
				c0.35,2.29,0.89,4.63,0.89,6.95c0,1.74-0.16,3.49-0.31,5.22c-3.54-1.58-7.65-2.9-10.71-5.32c-1.62-1.28-2.68-2.86-3.59-4.7
				c-0.31-0.64-0.65-2.11-1.17-2.56c-0.29-0.26-0.71-0.09-1.18-0.03c0.62,1.88,1.28,3.76,2.1,5.56c0.51,1.13,1.09,2.02,2.11,2.76
				c1.06,0.78,6.44,4.08,8.28,4.85c1.8,0.75,3.46,2.43,3.89,4.5c0.64,3.05,0.14,6.61-0.03,9.69c-0.13,2.45-0.29,4.9-0.44,7.35
				c-0.15,2.27,0.12,5.26-0.91,7.33h6.78c-0.78-1.07-0.7-2.72-0.79-3.97c-0.12-1.78-0.25-3.56-0.36-5.34
				c-0.22-3.33-0.48-6.67-0.49-10c0-1.83,0.14-3.62,0.64-5.38c0.58-2.03,1.32-3.13,3.27-4.04c2.74-1.27,5.78-2.11,8.79-2.5
				C122.69,310.15,122.68,309.64,122.67,309.13z"/>
			<circle class="st34" cx="92.15" cy="305.75" r="7.82"/>
			<path class="st34" d="M118.11,292.69c1.25-1.12,2.88-1.82,4.56-1.84c2.97-0.03,5.44,2.05,6.6,4.68c1.22,2.76-0.14,6.11-2.51,7.81
				c-2.34,1.68-5.75,1.67-8.08-0.02c-2.33-1.69-3.39-4.94-2.51-7.68C116.54,294.5,117.23,293.49,118.11,292.69z"/>
			<path class="st34" d="M123.3,281.48c0,0,7.01-2.22,10.2,4.38c2.33,4.82-0.51,9.22-2.9,10.23c-3.94,1.67-6.31-0.51-6.31-0.51
				s-2.66,5.2-9.39,6.28c-11.87,1.91-15.99-6.13-15.99-6.13s-2.83,1.52-6.89,0.77c-5.36-1-8.16-5.23-7.63-9.95
				c0.6-5.43,5.38-8.55,9.45-7.86c0,0,0.17-3.81,4.99-5.32c1.18-0.37,3.9-0.56,5.24,0.04c0,0,2.99-5.53,10.68-4.1
				C125.26,271.28,123.3,281.48,123.3,281.48z"/>
		</g>
		<path class="st34" d="M114.64,342.04c-0.11-2.12-0.75-3.75-3.19-3.75h-6.43c-2.37,0-2.98,1.63-3.09,3.75H114.64z"/>
	</g>
	<rect x="83.5" y="230.24" class="st78" width="54.37" height="16.31"/>
	<text transform="matrix(1 0 0 1 96.4589 242.153)" class="st14 st206 st208">Tree</text>
</g>
<path class="st209" d="M1019.49,352.08h-89.59c-7.29,0-13.2-5.91-13.2-13.2v-94.32c0-7.29,5.91-13.2,13.2-13.2h89.59
	c7.29,0,13.2,5.91,13.2,13.2v94.32C1032.7,346.17,1026.79,352.08,1019.49,352.08z"/>
<g>
	<path class="st27" d="M1003.68,253.84h-56.95c-4.68,0-8.48-3.79-8.48-8.48v-18.52c0-4.68,3.79-8.48,8.48-8.48h56.95
		c4.68,0,8.48,3.79,8.48,8.48v18.52C1012.15,250.05,1008.36,253.84,1003.68,253.84z"/>
	<polygon class="st27" points="965.38,249.04 984.18,249.26 974.59,262.34 	"/>
</g>
<g>
	<g>
		<path class="st27" d="M953.76,287.28c0.48-0.37,1.03-0.64,1.65-0.81c1.58-0.41,3.25-0.33,4.75-1.04c1.1-0.52,2.04-1.44,3.14-1.97
			c2.11-1.01,4.5-0.43,6.57,0.47c2.83,1.22,5.51,3.07,7.31,5.78c1.81,2.71,2.65,6.37,1.74,9.71c-1.32,4.88-5.93,7.94-10.38,8.86
			c-4.83,1-10.06-0.05-13.65-3.58c-2.42-2.38-3.93-5.95-4.01-9.63C950.83,292.26,951.62,288.9,953.76,287.28z"/>
		<path class="st27" d="M998.76,304.55c0,5.69-4.81,10.3-10.75,10.3c-5.94,0-10.75-4.61-10.75-10.3c0-5.69,4.81-10.3,10.75-10.3
			C993.94,294.26,998.76,298.87,998.76,304.55z"/>
		<path class="st27" d="M987.88,308.86c-1.89,0.17-3.76,0.43-5.53,0.92c-1.63,0.45-3.3,0.96-4.84,1.68
			c2.47-2.57,5.13-4.84,8.09-6.82c1.68-1.12,3.36-2.19,4.73-3.69c1-1.1,2.01-2.19,3.03-3.27c-0.28-0.15-0.96-0.7-1.25-0.65
			c-0.29,0.04-0.85,0.81-1.06,1.01c-1.36,1.29-2.69,2.66-4.19,3.78c-0.58,0.43-3.76,2.89-4.21,2.04c-0.29-0.55,0.09-2.26,0.43-3.52
			c-0.2,0.03-0.41,0.06-0.63,0.06c-0.26,0-0.5-0.03-0.73-0.07c-0.32,1.73-0.62,4.5-1.36,5.54c-1.49,2.13-3.96,3.27-5.48,5.38
			c0.08-2.63,0.12-5.25,0.24-7.88c0.09-2.12,0.41-4.26,1.23-6.23c0.77-1.86,1.78-3.61,2.53-5.48c0.09-0.23,0.7-1.34,0.61-1.59
			c-0.04-0.11-0.78-0.54-0.89-0.51c-0.49,0.11-1.37,2.41-1.58,2.82c-1.74,3.4-3.19,7.08-3.39,10.94c-0.46-2.87-0.89-5.85-1.87-8.59
			c-0.63-1.77-1.23-3.54-1.78-5.34c-0.13-0.43-0.25-1.54-0.56-1.86c-0.24-0.25-0.74-0.14-1.14-0.14c0.81,4.24,2.19,8.36,2.85,12.63
			c0.35,2.29,0.89,4.63,0.89,6.95c0,1.74-0.16,3.49-0.31,5.22c-3.54-1.58-7.65-2.9-10.71-5.32c-1.62-1.28-2.68-2.86-3.59-4.7
			c-0.31-0.64-0.65-2.11-1.17-2.56c-0.29-0.26-0.71-0.09-1.18-0.03c0.62,1.88,1.28,3.76,2.1,5.56c0.51,1.13,1.09,2.02,2.11,2.76
			c1.06,0.78,6.44,4.08,8.28,4.85c1.8,0.75,3.46,2.43,3.89,4.5c0.64,3.05,0.14,6.61-0.03,9.69c-0.13,2.45-0.29,4.9-0.44,7.35
			c-0.15,2.27,0.12,5.26-0.91,7.33h6.78c-0.78-1.07-0.7-2.72-0.79-3.97c-0.12-1.78-0.25-3.56-0.36-5.34
			c-0.22-3.33-0.48-6.67-0.49-10c0-1.83,0.14-3.62,0.64-5.38c0.58-2.03,1.32-3.13,3.27-4.04c2.74-1.27,5.78-2.11,8.79-2.5
			C987.89,309.87,987.89,309.37,987.88,308.86z"/>
		<circle class="st27" cx="957.35" cy="305.47" r="7.82"/>
		<path class="st27" d="M983.32,292.41c1.25-1.12,2.88-1.82,4.56-1.84c2.97-0.03,5.44,2.05,6.6,4.68c1.22,2.76-0.14,6.11-2.51,7.81
			c-2.34,1.68-5.75,1.67-8.08-0.02c-2.33-1.69-3.39-4.94-2.51-7.68C981.75,294.23,982.43,293.21,983.32,292.41z"/>
		<path class="st27" d="M988.51,281.2c0,0,7.01-2.22,10.2,4.38c2.33,4.82-0.51,9.22-2.9,10.23c-3.94,1.67-6.31-0.51-6.31-0.51
			s-2.66,5.2-9.39,6.28c-11.87,1.91-15.99-6.13-15.99-6.13s-2.83,1.52-6.89,0.77c-5.36-1-8.16-5.23-7.63-9.95
			c0.6-5.43,5.38-8.55,9.45-7.86c0,0,0.17-3.81,4.99-5.32c1.18-0.37,3.9-0.56,5.24,0.04c0,0,2.99-5.53,10.68-4.1
			C990.47,271,988.51,281.2,988.51,281.2z"/>
	</g>
	<path class="st27" d="M979.84,341.76c-0.11-2.12-0.75-3.75-3.19-3.75h-6.43c-2.37,0-2.98,1.63-3.09,3.75H979.84z"/>
</g>
<rect x="948.71" y="229.97" class="st78" width="54.37" height="16.31"/>
<text transform="matrix(1 0 0 1 961.6662 241.8787)" class="st14 st206 st208">Tree</text>
<g>
	<g>
		<g>
			<path class="st34" d="M493.94,105.13v6.77l-31.6,0c-2.34,0-4.26,1.91-4.26,4.26l0,17.02c0,2.34,1.91,4.26,4.26,4.26h31.6v6.77
				c0,3.79,4.6,5.7,7.28,3.02l19.53-19.53c1.66-1.66,1.66-4.34,0-6l-19.53-19.53C498.53,99.47,493.94,101.35,493.94,105.13z"/>
		</g>
	</g>
	<rect x="466.8" y="116.61" class="st78" width="43.92" height="19.51"/>
	<text transform="matrix(1 0 0 1 466.8035 129.2762)" class="st14 st206 st210">Input</text>
</g>
<g>
	<g>
		<g>
			<path class="st96" d="M873.66,215.54v6.77h-42.72c-2.34,0-4.26,1.91-4.26,4.26v17.02c0,2.34,1.91,4.26,4.26,4.26h42.72v6.77
				c0,3.79,4.6,5.7,7.28,3.02l19.53-19.53c1.66-1.66,1.66-4.34,0-6l-19.53-19.53C878.26,209.88,873.66,211.75,873.66,215.54z"/>
		</g>
	</g>
	<rect x="834.63" y="227.01" class="st78" width="56.24" height="19.51"/>
	<text transform="matrix(1 0 0 1 834.6336 239.6805)" class="st14 st206 st210">Output</text>
</g>
<g>
	<path class="st15" d="M283.03,204.5h-89.59c-7.29,0-13.2-5.91-13.2-13.2V96.98c0-7.29,5.91-13.2,13.2-13.2h89.59
		c7.29,0,13.2,5.91,13.2,13.2v94.32C296.23,198.59,290.32,204.5,283.03,204.5z"/>
	<path class="st96" d="M277.76,106.26h-78.04c-4.68,0-8.48-3.79-8.48-8.48V79.26c0-4.68,3.79-8.48,8.48-8.48h78.04
		c4.68,0,8.48,3.79,8.48,8.48v18.52C286.23,102.47,282.44,106.26,277.76,106.26z"/>
	<polygon class="st96" points="228.92,101.46 247.72,101.68 238.13,114.76 	"/>
	<rect x="201" y="82.39" class="st78" width="81.42" height="16.31"/>
	<text transform="matrix(1 0 0 1 201.0008 94.302)" class="st14 st206 st208">Traffic light</text>
	<g>
		<path class="st34" d="M243.57,144.59c0,0,3.04-3.79,3.04-8.02c-0.15,0-1.57,0-3.53,0v-1.52h0.48c0,0,3.04-3.79,3.04-8.02
			c-0.15,0-1.57,0-3.53,0v-1.88h-3.05v-1.93h-0.34c0-0.35-0.19-0.64-0.43-0.64h-2.8c-0.24,0-0.43,0.29-0.43,0.64h-0.34v1.93h-3.05
			v1.88c-1.89,0-3.24,0-3.39,0c0,4.23,3.04,8.02,3.04,8.02h0.35v1.52c-1.89,0-3.24,0-3.39,0c0,4.23,3.04,8.02,3.04,8.02h0.35v1.63
			c-1.89,0-3.24,0-3.39,0c0,4.23,3.04,8.02,3.04,8.02h0.35v2.48h3.05v33.26h-1.22c-2.46,0-3.09,1.69-3.21,3.89h13.19
			c-0.12-2.2-0.78-3.89-3.31-3.89h-1.12v-33.26h3.05v-2.48h0.48c0,0,3.04-3.79,3.04-8.02c-0.15,0-1.57,0-3.53,0v-1.63H243.57z"/>
		<path class="st14" d="M241.11,131c0,1.79-1.45,3.24-3.24,3.24s-3.24-1.45-3.24-3.24s1.45-3.24,3.24-3.24S241.11,129.21,241.11,131
			z"/>
		<path class="st14" d="M241.11,140.58c0,1.79-1.45,3.24-3.24,3.24s-3.24-1.45-3.24-3.24c0-1.79,1.45-3.24,3.24-3.24
			S241.11,138.79,241.11,140.58z"/>
		<circle class="st14" cx="237.87" cy="150.17" r="3.24"/>
	</g>
</g>
<g>
	<path class="st15" d="M153.18,204.5H63.59c-7.29,0-13.2-5.91-13.2-13.2V96.98c0-7.29,5.91-13.2,13.2-13.2h89.59
		c7.29,0,13.2,5.91,13.2,13.2v94.32C166.38,198.59,160.47,204.5,153.18,204.5z"/>
	<g>
		<path class="st96" d="M137.36,106.26H80.41c-4.68,0-8.48-3.79-8.48-8.48V79.26c0-4.68,3.79-8.48,8.48-8.48h56.95
			c4.68,0,8.48,3.79,8.48,8.48v18.52C145.84,102.47,142.04,106.26,137.36,106.26z"/>
		<polygon class="st96" points="99.07,101.46 117.86,101.68 108.27,114.76 		"/>
	</g>
	<rect x="82.39" y="82.39" class="st78" width="54.37" height="16.31"/>
	<text transform="matrix(1 0 0 1 89.3778 94.302)" class="st14 st206 st208">Bench</text>
	<path class="st211" d="M135.6,181.81c0.34,0,0.61-0.27,0.61-0.61v-13.34h1.98c0.34,0,0.61-0.27,0.61-0.61v-5.18
		c0-0.34-0.27-0.61-0.61-0.61h-7.15v-6.54h4.56c0.34,0,0.61-0.27,0.61-0.61v-5.18c0-0.34-0.27-0.61-0.61-0.61h-4.56v-3.95h4.56
		c0.34,0,0.61-0.27,0.61-0.61v-5.18c0-0.34-0.27-0.61-0.61-0.61h-4.56v-1.98c0-0.32-1.1-0.92-3.2-0.92c-2.1,0-3.2,0.6-3.2,0.92v1.98
		H92.22v-1.98c0-0.32-1.1-0.92-3.2-0.92c-2.1,0-3.2,0.6-3.2,0.92v1.98h-4.56c-0.34,0-0.61,0.27-0.61,0.61v5.18
		c0,0.34,0.27,0.61,0.61,0.61h4.56v3.95h-4.56c-0.34,0-0.61,0.27-0.61,0.61v5.18c0,0.34,0.27,0.61,0.61,0.61h4.56v6.54h-7.15
		c-0.16,0-0.32,0.06-0.43,0.18c-0.12,0.12-0.18,0.27-0.18,0.43v5.18c0,0.34,0.27,0.61,0.61,0.61h1.98v13.34
		c0,0.34,0.27,0.61,0.61,0.61h5.18c0.34,0,0.61-0.27,0.61-0.61v-13.34h42.77v13.34c0,0.34,0.27,0.61,0.61,0.61H135.6z
		 M124.63,161.45H92.22v-6.54h32.41V161.45z M124.63,148.51H92.22v-3.95h32.41V148.51z"/>
</g>
<g>
	<path class="st15" d="M417.22,352.35h-89.59c-7.29,0-13.2-5.91-13.2-13.2v-94.32c0-7.29,5.91-13.2,13.2-13.2h89.59
		c7.29,0,13.2,5.91,13.2,13.2v94.32C430.42,346.44,424.51,352.35,417.22,352.35z"/>
	<g>
		<path class="st96" d="M401.4,254.12h-56.95c-4.68,0-8.48-3.79-8.48-8.48v-18.52c0-4.68,3.79-8.48,8.48-8.48h56.95
			c4.68,0,8.48,3.79,8.48,8.48v18.52C409.88,250.32,406.08,254.12,401.4,254.12z"/>
		<polygon class="st96" points="363.11,249.31 381.9,249.53 372.31,262.61 		"/>
	</g>
	<rect x="346.43" y="230.24" class="st78" width="65.03" height="13.98"/>
	<text transform="matrix(1 0 0 1 346.4288 242.153)" class="st14 st206 st208">Bus stop</text>
	<g>
		<rect x="361" y="274.86" class="st14" width="21.09" height="26.17"/>
		<g>
			<g>
				<path class="st34" d="M377.52,280.95h-11.19c-0.31,0-0.56,0.25-0.56,0.56v5.04h12.31v-5.04
					C378.08,281.2,377.83,280.95,377.52,280.95z"/>
				<path class="st34" d="M365.78,289.9h12.31v3.36h-12.31V289.9z"/>
				<path class="st34" d="M373.61,335.53v-28.85H382c3.39,0,6.15-2.76,6.15-6.15v-23.5c0-3.39-2.76-6.15-6.15-6.15h-20.14
					c-3.39,0-6.15,2.76-6.15,6.15v23.5c0,3.39,2.76,6.15,6.15,6.15h8.39v28.85 M381.44,294.93c0,0.93-0.75,1.68-1.68,1.68h-0.56
					v1.68c0,0.93-0.75,1.68-1.68,1.68c-0.93,0-1.68-0.75-1.68-1.68v-1.68h-7.83v1.68c0,0.93-0.75,1.68-1.68,1.68
					c-0.93,0-1.68-0.75-1.68-1.68v-1.68h-0.56c-0.93,0-1.68-0.75-1.68-1.68v-13.43c0-2.16,1.76-3.92,3.92-3.92h11.19
					c2.16,0,3.92,1.76,3.92,3.92V294.93z"/>
			</g>
			<rect x="369.53" y="304.72" class="st34" width="4.9" height="33.32"/>
			<path class="st34" d="M379.24,341.96c-0.13-2.49-0.88-4.4-3.74-4.4h-7.54c-2.78,0-3.49,1.91-3.62,4.4H379.24z"/>
		</g>
	</g>
</g>
<path class="st209" d="M1017.42,207.97h-89.59c-7.29,0-13.2-5.91-13.2-13.2v-94.32c0-7.29,5.91-13.2,13.2-13.2h89.59
	c7.29,0,13.2,5.91,13.2,13.2v94.32C1030.63,202.06,1024.71,207.97,1017.42,207.97z"/>
<g>
	<path class="st27" d="M1001.61,109.73h-56.95c-4.68,0-8.48-3.79-8.48-8.48V82.73c0-4.68,3.79-8.48,8.48-8.48h56.95
		c4.68,0,8.48,3.79,8.48,8.48v18.52C1010.08,105.93,1006.29,109.73,1001.61,109.73z"/>
	<polygon class="st27" points="963.31,104.93 982.11,105.15 972.52,118.23 	"/>
</g>
<rect x="946.64" y="85.86" class="st78" width="65.03" height="13.98"/>
<text transform="matrix(1 0 0 1 946.6356 97.7671)" class="st14 st206 st208">Bus stop</text>
<g>
	<rect x="961.2" y="130.48" class="st14" width="21.09" height="26.17"/>
	<g>
		<g>
			<path class="st27" d="M977.73,136.56h-11.19c-0.31,0-0.56,0.25-0.56,0.56v5.04h12.31v-5.04
				C978.29,136.81,978.04,136.56,977.73,136.56z"/>
			<path class="st27" d="M965.98,145.51h12.31v3.36h-12.31V145.51z"/>
			<path class="st27" d="M973.81,191.14V162.3h8.39c3.39,0,6.15-2.76,6.15-6.15v-23.5c0-3.39-2.76-6.15-6.15-6.15h-20.14
				c-3.39,0-6.15,2.76-6.15,6.15v23.5c0,3.39,2.76,6.15,6.15,6.15h8.39v28.85 M981.65,150.55c0,0.93-0.75,1.68-1.68,1.68h-0.56v1.68
				c0,0.93-0.75,1.68-1.68,1.68s-1.68-0.75-1.68-1.68v-1.68h-7.83v1.68c0,0.93-0.75,1.68-1.68,1.68s-1.68-0.75-1.68-1.68v-1.68
				h-0.56c-0.93,0-1.68-0.75-1.68-1.68v-13.43c0-2.16,1.76-3.92,3.92-3.92h11.19c2.16,0,3.92,1.76,3.92,3.92V150.55z"/>
		</g>
		<rect x="969.74" y="160.34" class="st27" width="4.9" height="33.32"/>
		<path class="st27" d="M979.44,197.57c-0.13-2.49-0.88-4.4-3.74-4.4h-7.54c-2.78,0-3.49,1.91-3.62,4.4H979.44z"/>
	</g>
</g>
<g>
	<path class="st15" d="M416.97,204.5h-89.59c-7.29,0-13.2-5.91-13.2-13.2V96.98c0-7.29,5.91-13.2,13.2-13.2h89.59
		c7.29,0,13.2,5.91,13.2,13.2v94.32C430.17,198.59,424.26,204.5,416.97,204.5z"/>
	<g>
		<path class="st96" d="M411.5,106.26h-77.64c-4.68,0-8.48-3.79-8.48-8.48V79.26c0-4.68,3.79-8.48,8.48-8.48h77.64
			c4.68,0,8.48,3.79,8.48,8.48v18.52C419.98,102.47,416.18,106.26,411.5,106.26z"/>
		<polygon class="st96" points="362.86,101.46 381.66,101.68 372.07,114.76 		"/>
	</g>
	<rect x="334.07" y="82.39" class="st78" width="78.59" height="16.31"/>
	<text transform="matrix(1 0 0 1 336.1682 94.3019)" class="st14 st206 st208">Street light</text>
	<g>
		<path class="st34" d="M380.62,127.66v-4.51h-3.48c-0.12-1.51-0.63-2.65-2.4-2.65h-4.88c-1.72,0-2.21,1.14-2.33,2.65h-3.49v4.51
			H380.62z"/>
		<path class="st34" d="M377.15,180.87c-0.02-0.28-0.05-0.55-0.09-0.8l-0.03-0.28H377c-0.25-1.05-0.87-1.76-2.27-1.76h-0.25v-38.93
			c1.64-0.79,2.86-2.46,3.1-4.49l0.48-3.98h-11.49l0.48,3.98c0.25,2.02,1.47,3.69,3.11,4.49v38.93h-0.32c-1.37,0-1.96,0.71-2.2,1.76
			h-0.03l-0.03,0.3c-0.04,0.25-0.07,0.51-0.09,0.79h0.01l-1.33,13.8h12.28l-1.33-13.8H377.15z"/>
	</g>
</g>
<path class="st212" d="M1154.49,268.62h-89.59c-7.29,0-13.2-5.91-13.2-13.2V161.1c0-7.29,5.91-13.2,13.2-13.2h89.59
	c7.29,0,13.2,5.91,13.2,13.2v94.32C1167.69,262.71,1161.78,268.62,1154.49,268.62z"/>
<g>
	<path class="st31" d="M1146.54,170.39h-72.68c-4.68,0-8.48-3.79-8.48-8.48v-18.52c0-4.68,3.79-8.48,8.48-8.48h72.68
		c4.68,0,8.48,3.79,8.48,8.48v18.52C1155.01,166.59,1151.22,170.39,1146.54,170.39z"/>
	<polygon class="st31" points="1100.38,165.58 1119.18,165.81 1109.59,178.89 	"/>
</g>
<rect x="1070.88" y="146.51" class="st78" width="80.01" height="16.31"/>
<text transform="matrix(1 0 0 1 1073.6855 158.4252)" class="st14 st206 st208">Street light</text>
<g>
	<path class="st31" d="M1118.13,191.79v-4.51h-3.48c-0.12-1.51-0.63-2.65-2.4-2.65h-4.88c-1.72,0-2.21,1.14-2.33,2.65h-3.49v4.51
		H1118.13z"/>
	<path class="st31" d="M1114.67,244.99c-0.02-0.28-0.05-0.55-0.09-0.8l-0.03-0.28h-0.03c-0.25-1.05-0.87-1.76-2.27-1.76H1112v-38.93
		c1.64-0.79,2.86-2.46,3.1-4.49l0.48-3.98h-11.49l0.48,3.98c0.25,2.02,1.47,3.69,3.11,4.49v38.93h-0.32c-1.37,0-1.96,0.71-2.2,1.76
		h-0.03l-0.03,0.3c-0.04,0.25-0.07,0.51-0.09,0.79h0.01l-1.33,13.8h12.28l-1.33-13.8H1114.67z"/>
</g>
</svg>
