<?xml version="1.0" encoding="utf-8"?>
<!-- Generator: Adobe Illustrator 27.2.0, SVG Export Plug-In . SVG Version: 6.00 Build 0)  -->
<svg version="1.1" id="Ebene_1" xmlns="http://www.w3.org/2000/svg" xmlns:xlink="http://www.w3.org/1999/xlink" x="0px" y="0px"
	 viewBox="0 0 872.39 415.36" style="enable-background:new 0 0 872.39 415.36;" xml:space="preserve">
<style type="text/css">
	.st0{opacity:0.4;fill:#60748C;}
	.st1{opacity:0.75;fill:#60748C;}
	.st2{fill:#ECECEC;}
	.st3{opacity:0.1;}
	.st4{opacity:0.3;fill:#5B7188;}
	.st5{fill:#60748C;}
	.st6{opacity:0.3;fill:none;stroke:#5B7188;stroke-width:13;stroke-miterlimit:10;}
	.st7{opacity:0.7;fill:#60748C;}
	.st8{fill:#A4C748;}
	.st9{fill:none;stroke:#FFFFFF;stroke-width:5;stroke-miterlimit:10;}
	.st10{fill:#A3C648;}
	.st11{opacity:0.25;fill:#60748C;}
	.st12{opacity:0.34;fill:#60748C;}
	.st13{stroke:#FFFFFF;stroke-width:0.5;stroke-miterlimit:10;}
	.st14{fill:#FFFFFF;}
	.st15{fill:#EDEDED;}
	.st16{opacity:0.1;fill:#546579;stroke:#60748C;stroke-width:1.0251;stroke-miterlimit:10;}
	.st17{opacity:0.1;fill:#546579;stroke:#282F39;stroke-width:1.0251;stroke-miterlimit:10;}
	.st18{opacity:0.1;fill:#546579;stroke:#546579;stroke-width:1.0251;stroke-miterlimit:10;}
	.st19{fill:#60748C;stroke:#60748C;stroke-width:0.9491;stroke-miterlimit:10;}
	.st20{fill:#282F39;}
	.st21{fill:#45AD4B;stroke:#45AD4B;stroke-width:0.8985;stroke-miterlimit:10;}
	.st22{fill:#6DC5D8;stroke:#6DC5D8;stroke-width:0.9491;stroke-miterlimit:10;}
	.st23{fill:#282F39;stroke:#FFFFFF;stroke-width:1.0437;stroke-miterlimit:10;}
	.st24{fill:#45AD4B;stroke:#45AD4B;stroke-width:0.9491;stroke-miterlimit:10;}
	.st25{fill:#45AD4B;stroke:#45AD4B;stroke-width:0.9119;stroke-miterlimit:10;}
	.st26{fill:#C1252D;stroke:#C1252D;stroke-width:0.9491;stroke-miterlimit:10;}
	.st27{fill:#C1252D;}
	.st28{fill:#C1252D;stroke:#C1252D;stroke-width:1.0339;stroke-miterlimit:10;}
	.st29{fill:#C1252D;stroke:#C1252D;stroke-width:0.8834;stroke-miterlimit:10;}
	.st30{fill:none;stroke:#282F39;stroke-width:2;stroke-linecap:round;stroke-linejoin:round;stroke-miterlimit:10;}
	.st31{fill:#45AD4B;}
	.st32{fill:#45AB4B;}
	.st33{fill:#6DC5D8;}
	.st34{fill:#5B7188;}
	.st35{fill:#97A2AF;}
	.st36{fill:#BABBBC;}
	.st37{fill:#5B7185;}
	.st38{fill:#A0C348;}
	.st39{fill:#45A84B;}
	.st40{fill:#BC252D;}
	.st41{fill:#6DC0D3;}
	.st42{fill:none;stroke:#C7D3D7;stroke-miterlimit:10;}
	.st43{opacity:0.1;fill:#757577;}
	.st44{fill:none;stroke:#FFFFFF;stroke-miterlimit:10;}
	.st45{opacity:0.6;}
	.st46{fill:#F1F3F4;}
	.st47{fill:none;stroke:#F1F3F4;stroke-miterlimit:10;}
	.st48{fill:#E8EAED;}
	.st49{fill:#F1F1F1;}
	.st50{fill:#646768;}
	.st51{opacity:0.25;fill:#757577;}
	.st52{fill:none;stroke:#6DC5D8;stroke-width:3;stroke-miterlimit:10;}
	.st53{fill:none;stroke:#C1252D;stroke-width:3;stroke-miterlimit:10;}
	.st54{fill:none;stroke:#45AD4B;stroke-width:3;stroke-miterlimit:10;}
	.st55{fill:#E7E7E7;}
	.st56{clip-path:url(#SVGID_00000178925019707803410650000016256420106613082790_);}
	.st57{clip-path:url(#SVGID_00000178925019707803410650000016256420106613082790_);fill:#F1F1F1;}
	.st58{clip-path:url(#SVGID_00000094614300134966167310000011518998050320009861_);}
	.st59{fill:#FEF9E8;}
	.st60{fill:#CEEAD6;}
	.st61{fill:#FCE8E6;}
	.st62{fill:none;stroke:#9CC0F9;stroke-width:3;stroke-miterlimit:10;}
	.st63{fill:none;stroke:#9CC0F9;stroke-miterlimit:10;}
	.st64{opacity:0.5;fill:#757577;}
	.st65{clip-path:url(#SVGID_00000178925019707803410650000016256420106613082790_);fill:#FFFFFF;}
	.st66{fill:none;stroke:#C1252D;stroke-width:9;stroke-miterlimit:10;}
	.st67{fill:none;stroke:#E7E7E7;stroke-width:9;stroke-miterlimit:10;}
	.st68{fill:none;stroke:#FFFFFF;stroke-width:3;stroke-miterlimit:10;}
	.st69{fill:none;stroke:#45AD4B;stroke-width:9;stroke-miterlimit:10;}
	.st70{fill:none;stroke:#6DC5D8;stroke-width:1.5;stroke-miterlimit:10;}
	.st71{opacity:0.25;clip-path:url(#SVGID_00000178925019707803410650000016256420106613082790_);fill:#757577;}
	.st72{fill:#292929;}
	.st73{fill-rule:evenodd;clip-rule:evenodd;}
	.st74{fill:#FF7578;}
	.st75{fill:#FFC9CA;}
	.st76{fill:#173042;}
	.st77{fill:#946B6B;}
	.st78{fill:none;}
	.st79{fill:#FFFFFF;stroke:#FFFFFF;stroke-width:7;stroke-miterlimit:10;}
	.st80{fill:#444444;}
	.st81{fill:#F73103;}
	.st82{fill:#FFBB39;}
	.st83{fill:#398229;}
	.st84{fill:#DE0505;}
	.st85{fill:#FF804E;}
	.st86{fill:#7ED668;}
	.st87{fill:#BF252D;}
	.st88{fill:#D4894D;}
	.st89{fill:#AD5512;}
	.st90{fill:#FF00FF;}
	.st91{fill:#FF3D75;}
	.st92{fill:#F28E1E;}
	.st93{fill:#2B6E53;}
	.st94{fill:#399150;}
	.st95{fill:#6A4A1D;}
	.st96{fill:#6DC3D6;}
	.st97{clip-path:url(#SVGID_00000142159846711104806530000006964743888436425365_);}
	.st98{clip-path:url(#SVGID_00000012470451874116682540000009025844626122277787_);}
	.st99{fill:#333333;}
	.st100{fill:url(#SVGID_00000044891988561138825830000007593515708438045097_);}
	.st101{fill:url(#SVGID_00000008864558037468451020000008248940127665409962_);}
	.st102{opacity:0.08;}
	.st103{fill:url(#SVGID_00000023243878305194653560000007555783011226690455_);}
	.st104{fill-rule:evenodd;clip-rule:evenodd;fill:#1A1A1A;}
	.st105{fill:#1A1A1A;}
	.st106{fill-rule:evenodd;clip-rule:evenodd;fill:#60748C;}
	.st107{fill:#FCEED7;}
	.st108{fill:#FBD18B;}
	.st109{fill:#DEE1E5;}
	.st110{fill:#ED8D80;}
	.st111{fill:#E97361;}
	.st112{fill:#AE5649;}
	.st113{fill:#CACED5;}
	.st114{fill:#A8B0BB;}
	.st115{fill:#CACFD7;}
	.st116{fill:#EABF9A;}
	.st117{fill:#E4E7EB;}
	.st118{fill:#69D4F2;}
	.st119{fill:#B2DB7F;}
	.st120{fill:#9ED268;}
	.st121{fill:#F8F8F8;}
	.st122{fill:#F0F0F0;}
	.st123{fill:#738DBD;}
	.st124{fill:#E46D67;}
	.st125{fill:#24C1F0;}
	.st126{fill:#36B183;}
	.st127{fill:#FFB866;}
	.st128{fill:#FFD873;}
	.st129{fill-rule:evenodd;clip-rule:evenodd;fill:#485156;}
	.st130{fill:#58595B;}
	.st131{fill:#BF252D;stroke:#BF252D;stroke-width:2;stroke-miterlimit:10;}
	.st132{fill:#FFFFFF;stroke:#BF252D;stroke-width:4;stroke-linecap:round;stroke-linejoin:round;stroke-miterlimit:10;}
	.st133{fill-rule:evenodd;clip-rule:evenodd;fill:#BF252D;}
	.st134{fill:none;stroke:#FFFFFF;stroke-miterlimit:10;stroke-dasharray:1.0108,1.0108;}
	.st135{fill:none;stroke:#45AD4B;stroke-width:4;stroke-miterlimit:10;}
	.st136{fill:none;stroke:#C1252D;stroke-width:4;stroke-miterlimit:10;}
	.st137{opacity:0.2;fill:#45AD4B;}
	.st138{opacity:0.6;fill:#45AD4B;}
	.st139{fill:#44A049;}
	.st140{clip-path:url(#SVGID_00000108293239990998034450000002620444008404457613_);}
	.st141{opacity:0.5;fill:#45AD4B;}
	.st142{opacity:0.2;fill:#E7E7E7;}
	.st143{opacity:0.5;fill:#E7E7E7;}
	.st144{opacity:0.5;fill:#FFFFFF;}
	.st145{opacity:0.2;fill:#6DC5D8;}
	.st146{fill:none;stroke:#FFFFFF;stroke-width:2.5;stroke-miterlimit:10;}
	.st147{fill:none;stroke:#BF252D;stroke-width:5;stroke-miterlimit:10;}
	.st148{fill:#BF252D;stroke:#FFFFFF;stroke-width:3;stroke-miterlimit:10;}
	.st149{fill:#FFFFFF;stroke:#FFFFFF;stroke-width:5.5;stroke-miterlimit:10;}
	.st150{fill:none;stroke:#BF252D;stroke-width:3;stroke-miterlimit:10;}
	.st151{fill:#BF252D;stroke:#FFFFFF;stroke-width:4.5;stroke-miterlimit:10;}
	.st152{fill:#BF252D;stroke:#FFFFFF;stroke-miterlimit:10;}
	.st153{fill:#F7E921;}
	.st154{fill:#6E81B5;}
	.st155{fill:#466087;}
	.st156{fill:#FFAEA8;}
	.st157{fill:#FFE152;}
	.st158{fill:#96C869;}
	.st159{fill:#ADB3BD;}
	.st160{fill:#CACED8;}
	.st161{fill:#40CAEF;}
	.st162{fill:#276F80;}
	.st163{fill:#878F9E;}
	.st164{fill:#EEF0F3;}
	.st165{fill:#1E505B;}
	.st166{fill:#9C80EA;}
	.st167{fill:#FAC955;}
	.st168{clip-path:url(#SVGID_00000165952464038524625900000010884046130783324606_);}
	.st169{fill:#E5EAEB;}
	.st170{fill:#ADB4B9;}
	.st171{fill:#495D72;}
	.st172{fill:#28384C;}
	.st173{fill:#E9B816;}
	.st174{fill:#DB352E;}
	.st175{fill:#366DB4;}
	.st176{fill:#753489;}
	.st177{fill:#57A9BF;}
	.st178{fill:#25AC86;}
	.st179{fill:#F56363;}
	.st180{fill:#BD5A45;}
	.st181{fill:#F0EABD;}
	.st182{fill:#EB8819;}
	.st183{fill:#C3411E;}
	.st184{fill:#205B75;}
	.st185{fill:#C8D9E8;}
	.st186{fill:#A9B9CA;}
	.st187{fill:#114559;}
	.st188{fill:#DFE8F2;}
	.st189{fill:#E3B933;}
	.st190{fill:#E96374;}
	.st191{fill:#80EAFF;}
	.st192{font-family:'Yummo-Bold';}
	.st193{font-size:16.7771px;}
	.st194{fill:#FFFFFF;stroke:#C1252D;stroke-width:7;stroke-miterlimit:10;}
	.st195{font-size:14.836px;}
	.st196{fill:#FFFFFF;stroke:#45AD4B;stroke-width:7;stroke-miterlimit:10;}
	.st197{fill:#B4BCBD;}
	.st198{fill:#CED7DA;}
	.st199{fill:none;stroke:#45AD4B;stroke-width:2;stroke-miterlimit:10;}
	.st200{fill:#6DC3D6;stroke:#FFFFFF;stroke-width:0.1;stroke-miterlimit:10;}
	.st201{fill:#C1252D;stroke:#FFFFFF;stroke-width:0.1;stroke-miterlimit:10;}
	.st202{fill:#A3C648;stroke:#FFFFFF;stroke-width:0.1;stroke-miterlimit:10;}
	.st203{fill:#45AB4B;stroke:#FFFFFF;stroke-width:0.1;stroke-miterlimit:10;}
	.st204{fill:#566469;}
	.st205{font-size:21px;}
	.st206{fill:none;stroke:#60748C;stroke-linecap:round;stroke-linejoin:round;stroke-miterlimit:10;stroke-dasharray:2,4;}
	.st207{fill:#F0F0F0;stroke:#C1252D;stroke-width:7;stroke-miterlimit:10;}
	.st208{fill:#F0F0F0;stroke:#45AD4B;stroke-width:7;stroke-miterlimit:10;}
	.st209{opacity:0.3;}
	.st210{fill:#EDEDED;stroke:#C1252D;stroke-width:6;stroke-miterlimit:10;}
	.st211{fill:#5B7188;stroke:#EDEDED;stroke-miterlimit:10;}
	.st212{fill:#EDEDED;stroke:#45AD4B;stroke-width:6;stroke-miterlimit:10;}
	.st213{fill:#FFFFFF;stroke:#C1252D;stroke-width:6;stroke-miterlimit:10;}
	.st214{fill:#FFFFFF;stroke:#45AD4B;stroke-width:6;stroke-miterlimit:10;}
	.st215{fill:none;stroke:#6DC5D8;stroke-linecap:round;stroke-linejoin:round;}
	.st216{fill:none;stroke:#6DC5D8;stroke-linecap:round;stroke-linejoin:round;stroke-dasharray:4.8937,7.8299;}
	.st217{fill:none;stroke:#6DC5D8;stroke-linecap:round;stroke-linejoin:round;stroke-dasharray:5.1322,8.2115;}
	.st218{fill:none;stroke:#6DC5D8;stroke-linecap:round;stroke-linejoin:round;stroke-miterlimit:10;stroke-dasharray:5,8;}
	.st219{fill:#45AC4B;}
	.st220{fill:#C0252D;}
	.st221{fill:#6DC4D7;}
	.st222{fill:#5B7189;}
	.st223{fill:none;stroke:#60748C;stroke-width:1.5;stroke-miterlimit:10;}
	.st224{opacity:0.4;}
	.st225{fill:none;stroke:#60748C;stroke-width:2;stroke-linecap:round;stroke-linejoin:round;stroke-miterlimit:10;}
	.st226{opacity:0.54;fill:#FFFFFF;}
	.st227{clip-path:url(#SVGID_00000060738734187046444640000013705593635891228817_);}
	.st228{opacity:0.5;fill:#5B7188;}
	.st229{opacity:0.1;fill:#60748C;}
	.st230{clip-path:url(#SVGID_00000157308219130243462480000016735538958774460850_);}
	.st231{display:none;}
	.st232{display:inline;fill:#FFFFFF;}
	.st233{display:inline;fill:#090C11;}
	.st234{display:inline;fill:#4A596E;}
	.st235{fill:#546579;}
	.st236{fill:#6F88A6;}
	.st237{opacity:0.1;fill:none;stroke:#FFFFFF;stroke-miterlimit:10;}
	.st238{display:none;fill:#6DC5D8;}
	.st239{opacity:0.45;fill:#60748C;}
	.st240{opacity:0.03;clip-path:url(#SVGID_00000175292545734654490220000006076745993457165241_);}
	.st241{clip-path:url(#SVGID_00000175292545734654490220000006076745993457165241_);}
	
		.st242{clip-path:url(#SVGID_00000175292545734654490220000006076745993457165241_);fill:#FFFFFF;stroke:#60748C;stroke-width:1.5;stroke-miterlimit:10;}
	.st243{opacity:0.4;clip-path:url(#SVGID_00000175292545734654490220000006076745993457165241_);}
	.st244{clip-path:url(#SVGID_00000109749591069086642710000006100447158504884613_);}
	.st245{opacity:0.05;clip-path:url(#SVGID_00000109749591069086642710000006100447158504884613_);}
	.st246{fill:#575756;}
	
		.st247{clip-path:url(#SVGID_00000109749591069086642710000006100447158504884613_);fill:#FFFFFF;stroke:#60748C;stroke-width:1.5;stroke-miterlimit:10;}
	.st248{opacity:0.4;clip-path:url(#SVGID_00000109749591069086642710000006100447158504884613_);}
	.st249{fill:#FFFFFF;stroke:#60748C;stroke-width:1.5;stroke-miterlimit:10;}
	.st250{fill:#A5C848;}
	.st251{opacity:0.2;}
	.st252{clip-path:url(#SVGID_00000072251127503694182470000003944921678650677378_);}
	.st253{clip-path:url(#SVGID_00000117654287152914772390000010222656411326542495_);}
	.st254{fill:none;stroke:#60748C;stroke-width:3;stroke-miterlimit:10;}
	.st255{fill:#EDEDED;stroke:#C0252D;stroke-width:3;stroke-miterlimit:10;}
	.st256{clip-path:url(#SVGID_00000178885970954327574510000015883562849768535212_);}
	.st257{opacity:0.1;fill:#546579;}
	.st258{opacity:0.05;}
	.st259{fill:#606060;}
	.st260{opacity:0.15;}
	.st261{opacity:0.5;}
	.st262{fill:#535353;}
	.st263{opacity:0.7;}
	.st264{filter:url(#Adobe_OpacityMaskFilter);}
	.st265{filter:url(#Adobe_OpacityMaskFilter_00000137094927021297844190000002340071264999065738_);}
	
		.st266{mask:url(#SVGID_00000174570126533155025670000014886683524133606801_);fill:url(#SVGID_00000050664270151027094340000012168689159767863427_);}
	.st267{filter:url(#Adobe_OpacityMaskFilter_00000044893768965316608680000015346614348384853436_);}
	.st268{filter:url(#Adobe_OpacityMaskFilter_00000019639090952742852240000012582105296455331459_);}
	
		.st269{mask:url(#SVGID_00000121238238651261668430000011418825167292046758_);fill:url(#SVGID_00000021803020439619881260000002473524109984924809_);}
	.st270{filter:url(#Adobe_OpacityMaskFilter_00000021829612596104325120000001036227365877181600_);}
	.st271{filter:url(#Adobe_OpacityMaskFilter_00000063623263102705101770000000691205566546860429_);}
	
		.st272{mask:url(#SVGID_00000010305105713403820550000004274921574778243257_);fill:url(#SVGID_00000062893894058636767720000013622631816954236063_);}
	.st273{filter:url(#Adobe_OpacityMaskFilter_00000066505345571453958470000011921459007506792323_);}
	.st274{filter:url(#Adobe_OpacityMaskFilter_00000014604369536637841660000004639593232207952296_);}
	
		.st275{mask:url(#SVGID_00000016762127505408303260000007543050177902005379_);fill:url(#SVGID_00000155865981070904988080000004256285510082691207_);}
	.st276{filter:url(#Adobe_OpacityMaskFilter_00000170960788566574979240000001806711645739803306_);}
	.st277{filter:url(#Adobe_OpacityMaskFilter_00000070829767118030972770000015919013826490094985_);}
	
		.st278{mask:url(#SVGID_00000129884015529054908260000006754407988977244073_);fill:url(#SVGID_00000099648047867978016400000005356451143539942847_);}
	.st279{filter:url(#Adobe_OpacityMaskFilter_00000152970349746544271640000005003476101314535574_);}
	.st280{filter:url(#Adobe_OpacityMaskFilter_00000072258253769820093650000007972781367615067071_);}
	
		.st281{mask:url(#SVGID_00000177461320643825256930000011010535917455432122_);fill:url(#SVGID_00000017487327412574178090000003419449646303871666_);}
	.st282{filter:url(#Adobe_OpacityMaskFilter_00000140012559330213442600000017491196096551450033_);}
	.st283{filter:url(#Adobe_OpacityMaskFilter_00000070807460900749691240000009499909369156213159_);}
	
		.st284{mask:url(#SVGID_00000151506469805727570890000013392893854556815539_);fill:url(#SVGID_00000076590866644965793210000013004576583961068214_);}
	.st285{opacity:0.8;}
	.st286{filter:url(#Adobe_OpacityMaskFilter_00000171686347147219469260000003693685679563042199_);}
	.st287{filter:url(#Adobe_OpacityMaskFilter_00000039110121893979478860000016693541299702783658_);}
	
		.st288{mask:url(#SVGID_00000041254512681155340260000004202917570728005249_);fill:url(#SVGID_00000029728950839273264450000002557693571073543585_);}
	.st289{fill:none;stroke:#1A1A1A;stroke-width:4;stroke-miterlimit:10;}
	.st290{fill:none;stroke:#60748C;stroke-width:4;stroke-miterlimit:10;}
	.st291{fill:#FFFFFF;stroke:#60748C;stroke-width:3;stroke-miterlimit:10;}
	.st292{fill:#FFFFFF;stroke:#6DC5D8;stroke-width:3;stroke-miterlimit:10;}
	.st293{fill:#6DC5D8;stroke:#FFFFFF;stroke-width:3;stroke-miterlimit:10;}
	.st294{opacity:0.25;}
	.st295{fill:#757577;}
	.st296{fill:#AEAEAE;}
	.st297{fill:#C1252D;stroke:#FFFFFF;stroke-width:3;stroke-miterlimit:10;}
	.st298{fill:#1A1A1A;stroke:#FFFFFF;stroke-width:3;stroke-miterlimit:10;}
	.st299{fill:none;stroke:#000000;stroke-width:10;stroke-linecap:round;stroke-miterlimit:10;}
	.st300{fill:none;stroke:#45AD4B;stroke-width:6;stroke-miterlimit:10;}
	.st301{fill:none;stroke:#6DC5D8;stroke-width:6;stroke-miterlimit:10;}
	.st302{fill:none;stroke:#60748C;stroke-width:6;stroke-miterlimit:10;}
	.st303{fill:none;stroke:#000000;stroke-width:6;stroke-miterlimit:10;}
	.st304{fill:#60748C;stroke:#FFFFFF;stroke-width:4;stroke-miterlimit:10;}
	.st305{fill:none;stroke:#000000;stroke-width:7;stroke-linecap:round;stroke-miterlimit:10;}
	.st306{fill-rule:evenodd;clip-rule:evenodd;fill:none;stroke:#000000;stroke-width:4;stroke-miterlimit:10;}
	.st307{fill:none;stroke:#000000;stroke-width:4;stroke-miterlimit:10;}
	.st308{fill:none;stroke:#000000;stroke-width:4;stroke-linecap:round;stroke-miterlimit:10;}
	.st309{fill-rule:evenodd;clip-rule:evenodd;stroke:#FFFFFF;stroke-miterlimit:10;}
	.st310{fill:#949494;}
	.st311{clip-path:url(#SVGID_00000088101461522489081920000008201524711618633102_);}
	.st312{fill:#1A1A1A;stroke:#1A1A1A;stroke-miterlimit:10;}
	.st313{stroke:#000000;stroke-miterlimit:10;}
	.st314{clip-path:url(#SVGID_00000030457293312282315900000008912480130393943955_);}
	.st315{fill:#60748C;stroke:#60748C;stroke-miterlimit:10;}
	.st316{fill:#728499;}
	.st317{opacity:0.4;fill:#BF252D;}
	.st318{opacity:0.75;fill:#BF252D;}
	.st319{fill:#C7C7C7;}
	.st320{opacity:0.23;}
	.st321{opacity:0.2;fill:#5B7188;}
	.st322{fill:none;stroke:#FFFFFF;stroke-width:6;stroke-miterlimit:10;}
	.st323{fill:#BF252D;stroke:#FFFFFF;stroke-width:6;stroke-miterlimit:10;}
	.st324{opacity:0.3;fill:#BF252D;}
	.st325{opacity:0.7;fill:#BF252D;}
	.st326{opacity:0.5;fill:#BF252D;}
	.st327{opacity:0.2;fill:#BF252D;}
	.st328{fill:#BF252D;stroke:#FFFFFF;stroke-width:5;stroke-miterlimit:10;}
	.st329{opacity:0.53;fill:#52717F;}
	.st330{opacity:0.36;fill:#60748C;}
	.st331{opacity:0.31;fill:#60748C;}
	.st332{opacity:0.45;fill:#6DC5D8;}
	.st333{fill:#E81C24;}
	.st334{fill:#D4DB21;}
	.st335{fill:#F6AB3B;}
	.st336{opacity:0.8;fill:#60748C;}
	.st337{opacity:0.61;fill:#60748C;}
	.st338{opacity:0.12;fill:#6DC5D8;}
	.st339{fill:none;stroke:#6DC5D8;stroke-width:4;stroke-miterlimit:10;}
	.st340{fill:none;stroke:#A4C748;stroke-width:4;stroke-miterlimit:10;}
	.st341{fill:#C1252D;stroke:#C1252D;stroke-width:4;stroke-miterlimit:10;}
	.st342{fill:none;stroke:#FFFFFF;stroke-width:2;stroke-linecap:round;stroke-miterlimit:10;stroke-dasharray:3.9843,5.9765;}
	.st343{fill:none;stroke:#60748C;stroke-width:3;stroke-linecap:round;stroke-miterlimit:10;stroke-dasharray:0.4961,6.945;}
	.st344{fill:none;stroke:#FFFFFF;stroke-width:2;stroke-linecap:round;stroke-miterlimit:10;stroke-dasharray:4.0153,6.023;}
	.st345{fill:none;stroke:#60748C;stroke-width:3;stroke-linecap:round;stroke-miterlimit:10;stroke-dasharray:0.4971,6.9599;}
	.st346{opacity:0.47;fill:#60748C;}
	.st347{fill:none;stroke:#D01519;stroke-miterlimit:10;}
	.st348{clip-path:url(#SVGID_00000045589597106319777440000006386417709414477458_);}
	.st349{clip-path:url(#SVGID_00000009557066464435130900000013983088228750482585_);}
	.st350{fill:#ECECEC;stroke:#FFFFFF;stroke-width:10;stroke-miterlimit:10;}
	.st351{clip-path:url(#SVGID_00000065754822573331432750000010227582844451741089_);}
	.st352{clip-path:url(#SVGID_00000150082211211060894680000005444189110913470882_);}
	.st353{clip-path:url(#SVGID_00000147915090490742502720000015099790501872042672_);}
	.st354{clip-path:url(#SVGID_00000089572976949033190770000014425606756027739835_);}
	.st355{fill:none;stroke:#5B7188;stroke-width:3;stroke-miterlimit:10;stroke-dasharray:9,8;}
	.st356{clip-path:url(#SVGID_00000047756759795431335030000006776966225232605629_);}
	.st357{clip-path:url(#SVGID_00000013893719134043233060000003755043004314643364_);}
	.st358{fill:none;stroke:#E1E1E1;stroke-width:4;stroke-linecap:round;stroke-miterlimit:10;}
	.st359{fill:none;stroke:#000000;stroke-width:5;stroke-miterlimit:10;}
	.st360{fill:none;stroke:#000000;stroke-width:5;stroke-linecap:round;stroke-miterlimit:10;}
	.st361{fill:none;stroke:#E1E1E1;stroke-width:10;stroke-miterlimit:10;}
	.st362{fill:none;stroke:#A4C748;stroke-width:5;stroke-miterlimit:10;}
	.st363{fill:#A4C748;stroke:#FFFFFF;stroke-width:3;stroke-miterlimit:10;}
	.st364{fill:none;stroke:#E1E1E1;stroke-width:10;stroke-linecap:round;stroke-miterlimit:10;}
	.st365{fill:#60748C;stroke:#FFFFFF;stroke-width:5;stroke-miterlimit:10;}
	.st366{fill:#5B7188;stroke:#FFFFFF;stroke-width:5;stroke-miterlimit:10;}
	.st367{fill:#E1E1E1;}
	.st368{fill:none;stroke:#000000;stroke-width:7;stroke-linecap:round;stroke-linejoin:round;stroke-miterlimit:10;}
	.st369{fill:none;stroke:#000000;stroke-width:3;stroke-linecap:round;stroke-linejoin:round;stroke-miterlimit:10;}
	.st370{fill:none;stroke:#000000;stroke-width:6;stroke-linecap:round;stroke-linejoin:round;stroke-miterlimit:10;}
	.st371{fill:none;stroke:#000000;stroke-width:15;stroke-linecap:round;stroke-linejoin:round;stroke-miterlimit:10;}
	.st372{opacity:0.15;fill:#60748C;}
	.st373{opacity:0.37;fill:#60748C;}
	.st374{fill:none;stroke:#333E4C;stroke-width:6;stroke-linecap:round;stroke-linejoin:round;stroke-miterlimit:10;}
	.st375{fill:#EDEDED;stroke:#333E4C;stroke-miterlimit:10;}
	.st376{fill:none;stroke:#333E4C;stroke-width:7;stroke-linecap:round;stroke-linejoin:round;stroke-miterlimit:10;}
	.st377{fill:#5B7188;stroke:#FFFFFF;stroke-miterlimit:10;}
</style>
<g>
	<circle class="st122" cx="280.18" cy="83.25" r="55.88"/>
	<rect x="240.36" y="112.15" class="st78" width="79.63" height="18.2"/>
	<text transform="matrix(1 0 0 1 265.95 124.0652)" class="st5 st192 st193">Tree</text>
	<g>
		<g>
			<path class="st34" d="M261.6,53.57c0.46-0.35,0.98-0.61,1.57-0.76c1.49-0.39,3.08-0.31,4.5-0.99c1.05-0.5,1.93-1.37,2.98-1.87
				c2-0.96,4.26-0.41,6.23,0.44c2.69,1.16,5.22,2.91,6.94,5.48c1.71,2.57,2.51,6.04,1.65,9.21c-1.25,4.63-5.62,7.53-9.85,8.4
				c-4.58,0.94-9.54-0.05-12.95-3.39c-2.29-2.25-3.72-5.64-3.8-9.13C258.82,58.29,259.57,55.11,261.6,53.57z"/>
			<path class="st34" d="M304.27,69.95c0,5.39-4.56,9.76-10.19,9.76c-5.63,0-10.19-4.37-10.19-9.76s4.56-9.76,10.19-9.76
				C299.7,60.19,304.27,64.56,304.27,69.95z"/>
			<path class="st34" d="M293.95,74.03c-1.79,0.16-3.56,0.41-5.24,0.87c-1.55,0.43-3.13,0.91-4.59,1.6
				c2.34-2.44,4.86-4.59,7.67-6.47c1.59-1.06,3.19-2.08,4.49-3.5c0.95-1.04,1.91-2.08,2.87-3.11c-0.27-0.14-0.91-0.66-1.19-0.62
				c-0.28,0.04-0.81,0.77-1.01,0.96c-1.29,1.22-2.55,2.52-3.98,3.59c-0.55,0.41-3.56,2.74-3.99,1.93c-0.28-0.52,0.09-2.15,0.4-3.34
				c-0.19,0.03-0.38,0.06-0.6,0.06c-0.25,0-0.47-0.03-0.7-0.07c-0.3,1.64-0.59,4.26-1.29,5.26c-1.41,2.02-3.76,3.1-5.2,5.1
				c0.08-2.49,0.12-4.98,0.23-7.47c0.09-2.01,0.39-4.04,1.17-5.9c0.73-1.76,1.69-3.42,2.4-5.2c0.09-0.22,0.66-1.27,0.58-1.51
				c-0.04-0.11-0.74-0.51-0.85-0.49c-0.47,0.1-1.3,2.28-1.5,2.68c-1.65,3.23-3.03,6.71-3.21,10.38c-0.44-2.72-0.84-5.54-1.77-8.14
				c-0.6-1.68-1.16-3.36-1.69-5.06c-0.12-0.4-0.24-1.46-0.53-1.76c-0.23-0.23-0.7-0.13-1.08-0.13c0.77,4.02,2.08,7.92,2.7,11.97
				c0.34,2.17,0.84,4.39,0.84,6.59c0,1.65-0.15,3.31-0.29,4.95c-3.36-1.5-7.26-2.75-10.16-5.05c-1.53-1.21-2.55-2.72-3.4-4.45
				c-0.3-0.61-0.61-2-1.11-2.43c-0.28-0.24-0.68-0.09-1.11-0.03c0.59,1.78,1.21,3.56,1.99,5.27c0.49,1.07,1.03,1.92,2,2.62
				c1.01,0.74,6.1,3.87,7.85,4.6c1.71,0.71,3.28,2.3,3.69,4.27c0.61,2.89,0.13,6.27-0.03,9.19c-0.13,2.32-0.27,4.64-0.42,6.97
				c-0.14,2.16,0.12,4.99-0.86,6.95h6.43c-0.74-1.01-0.66-2.58-0.75-3.77c-0.12-1.69-0.23-3.37-0.34-5.06
				c-0.2-3.15-0.46-6.32-0.46-9.49c0-1.73,0.13-3.43,0.61-5.11c0.55-1.92,1.26-2.97,3.11-3.83c2.59-1.21,5.48-2,8.33-2.37
				C293.97,74.99,293.96,74.51,293.95,74.03z"/>
			<circle class="st34" cx="265.01" cy="70.82" r="7.42"/>
			<path class="st34" d="M289.63,58.44c1.18-1.07,2.73-1.73,4.33-1.74c2.81-0.03,5.16,1.95,6.26,4.44c1.16,2.61-0.13,5.79-2.38,7.41
				c-2.22,1.59-5.45,1.58-7.66-0.02c-2.21-1.6-3.21-4.68-2.38-7.28C288.14,60.16,288.79,59.19,289.63,58.44z"/>
			<path class="st34" d="M294.55,47.81c0,0,6.65-2.11,9.68,4.16c2.21,4.57-0.48,8.74-2.75,9.7c-3.73,1.58-5.99-0.48-5.99-0.48
				s-2.53,4.93-8.9,5.96c-11.26,1.81-15.16-5.81-15.16-5.81s-2.69,1.44-6.54,0.73c-5.09-0.95-7.74-4.96-7.24-9.44
				c0.57-5.15,5.1-8.11,8.96-7.45c0,0,0.16-3.62,4.73-5.04c1.12-0.35,3.7-0.53,4.97,0.03c0,0,2.83-5.25,10.12-3.89
				C296.41,38.13,294.55,47.81,294.55,47.81z"/>
		</g>
		<path class="st34" d="M286.33,105.23c-0.11-2.01-0.72-3.56-3.03-3.56h-6.1c-2.25,0-2.82,1.54-2.93,3.56H286.33z"/>
	</g>
</g>
<circle class="st194" cx="669.08" cy="275.42" r="49.42"/>
<rect x="633.87" y="300.98" class="st78" width="70.41" height="16.1"/>
<text transform="matrix(1 0 0 1 656.4944 311.5143)" class="st27 st192 st195">Tree</text>
<g>
	<g>
		<path class="st27" d="M652.65,249.17c0.4-0.31,0.86-0.54,1.39-0.68c1.32-0.35,2.72-0.28,3.98-0.87c0.92-0.44,1.71-1.21,2.63-1.65
			c1.77-0.85,3.77-0.36,5.51,0.39c2.38,1.03,4.62,2.57,6.13,4.84c1.51,2.27,2.22,5.34,1.46,8.15c-1.1,4.09-4.97,6.66-8.71,7.43
			c-4.05,0.84-8.44-0.04-11.45-3c-2.03-1.99-3.29-4.99-3.36-8.07C650.19,253.35,650.86,250.54,652.65,249.17z"/>
		<path class="st27" d="M690.38,263.66c0,4.77-4.04,8.63-9.01,8.63c-4.98,0-9.01-3.87-9.01-8.63s4.04-8.63,9.01-8.63
			C686.34,255.03,690.38,258.89,690.38,263.66z"/>
		<path class="st27" d="M681.26,267.27c-1.58,0.14-3.15,0.36-4.64,0.77c-1.37,0.38-2.77,0.81-4.06,1.41
			c2.07-2.15,4.3-4.06,6.78-5.72c1.41-0.94,2.82-1.84,3.97-3.1c0.84-0.92,1.69-1.84,2.54-2.75c-0.23-0.12-0.8-0.58-1.05-0.55
			c-0.25,0.04-0.72,0.68-0.89,0.85c-1.14,1.08-2.26,2.23-3.52,3.17c-0.49,0.36-3.15,2.42-3.53,1.71c-0.25-0.46,0.08-1.9,0.36-2.95
			c-0.17,0.02-0.34,0.05-0.53,0.05c-0.22,0-0.42-0.03-0.62-0.06c-0.27,1.45-0.52,3.77-1.14,4.65c-1.25,1.78-3.32,2.74-4.6,4.51
			c0.07-2.2,0.1-4.41,0.2-6.61c0.08-1.78,0.34-3.57,1.03-5.22c0.65-1.56,1.49-3.03,2.13-4.6c0.08-0.19,0.59-1.12,0.52-1.33
			c-0.03-0.09-0.65-0.45-0.75-0.43c-0.41,0.09-1.15,2.02-1.33,2.37c-1.46,2.85-2.68,5.94-2.84,9.18c-0.39-2.4-0.75-4.9-1.57-7.2
			c-0.53-1.48-1.03-2.97-1.49-4.48c-0.11-0.36-0.21-1.29-0.47-1.56c-0.2-0.21-0.62-0.12-0.96-0.12c0.68,3.56,1.84,7.01,2.39,10.59
			c0.3,1.92,0.74,3.88,0.75,5.83c0,1.46-0.13,2.92-0.26,4.38c-2.97-1.33-6.42-2.43-8.98-4.46c-1.36-1.07-2.25-2.4-3.01-3.94
			c-0.26-0.54-0.54-1.77-0.98-2.15c-0.25-0.21-0.6-0.08-0.99-0.03c0.52,1.57,1.07,3.15,1.76,4.66c0.43,0.94,0.91,1.69,1.77,2.32
			c0.89,0.65,5.4,3.42,6.94,4.07c1.51,0.63,2.9,2.04,3.26,3.78c0.54,2.56,0.12,5.54-0.03,8.12c-0.11,2.05-0.24,4.11-0.37,6.16
			c-0.12,1.91,0.1,4.41-0.76,6.15H672c-0.66-0.89-0.59-2.28-0.66-3.33c-0.1-1.49-0.21-2.98-0.3-4.48c-0.18-2.79-0.41-5.59-0.41-8.39
			c0-1.53,0.11-3.03,0.54-4.51c0.48-1.7,1.11-2.62,2.75-3.39c2.29-1.07,4.85-1.77,7.37-2.1
			C681.27,268.12,681.26,267.7,681.26,267.27z"/>
		<circle class="st27" cx="655.66" cy="264.43" r="6.56"/>
		<path class="st27" d="M677.43,253.48c1.04-0.94,2.42-1.53,3.83-1.54c2.49-0.02,4.56,1.72,5.53,3.92c1.02,2.31-0.11,5.12-2.11,6.55
			c-1.96,1.41-4.82,1.4-6.77-0.02c-1.95-1.42-2.84-4.14-2.11-6.44C676.11,255,676.69,254.15,677.43,253.48z"/>
		<path class="st27" d="M681.78,244.08c0,0,5.88-1.86,8.56,3.67c1.95,4.04-0.43,7.73-2.43,8.58c-3.3,1.4-5.29-0.43-5.29-0.43
			s-2.23,4.36-7.87,5.27c-9.96,1.6-13.41-5.14-13.41-5.14s-2.38,1.28-5.78,0.64c-4.5-0.84-6.84-4.38-6.4-8.34
			c0.51-4.55,4.51-7.17,7.93-6.59c0,0,0.14-3.2,4.18-4.46c0.99-0.31,3.27-0.47,4.4,0.03c0,0,2.5-4.64,8.95-3.44
			C683.43,235.53,681.78,244.08,681.78,244.08z"/>
	</g>
	<path class="st27" d="M674.52,294.86c-0.09-1.78-0.63-3.14-2.68-3.14h-5.39c-1.99,0-2.5,1.36-2.59,3.14H674.52z"/>
</g>
<g>
	<circle class="st122" cx="139.26" cy="80.01" r="55.88"/>
	<g>
		<path class="st34" d="M143.98,51c0,0,2.59-3.23,2.59-6.83c-0.13,0-1.33,0-3,0v-1.3h0.41c0,0,2.59-3.23,2.59-6.83
			c-0.13,0-1.33,0-3,0v-1.6h-2.6V32.8h-0.29c0-0.3-0.16-0.55-0.36-0.55h-2.38c-0.2,0-0.36,0.24-0.36,0.55h-0.29v1.65h-2.6v1.6
			c-1.61,0-2.76,0-2.89,0c0,3.6,2.59,6.83,2.59,6.83h0.3v1.3c-1.61,0-2.76,0-2.89,0c0,3.6,2.59,6.83,2.59,6.83h0.3v1.38
			c-1.61,0-2.76,0-2.89,0c0,3.6,2.59,6.83,2.59,6.83h0.3v2.11h2.6v28.33h-1.04c-2.09,0-2.63,1.44-2.73,3.32h11.24
			c-0.1-1.88-0.67-3.32-2.82-3.32h-0.95V61.32h2.6v-2.11h0.41c0,0,2.59-3.23,2.59-6.83c-0.13,0-1.33,0-3,0V51H143.98z"/>
		<path class="st14" d="M141.89,39.42c0,1.52-1.24,2.76-2.76,2.76s-2.76-1.24-2.76-2.76c0-1.52,1.24-2.76,2.76-2.76
			S141.89,37.9,141.89,39.42z"/>
		<path class="st14" d="M141.89,47.58c0,1.52-1.24,2.76-2.76,2.76s-2.76-1.24-2.76-2.76c0-1.52,1.24-2.76,2.76-2.76
			S141.89,46.06,141.89,47.58z"/>
		<circle class="st14" cx="139.13" cy="55.75" r="2.76"/>
	</g>
	<rect x="99.77" y="97.79" class="st78" width="79.63" height="37.94"/>
	<text transform="matrix(1 0 0 1 118.0124 109.7005)"><tspan x="0" y="0" class="st5 st192 st193">Traffic </tspan><tspan x="6.39" y="16" class="st5 st192 st193">light</tspan></text>
</g>
<circle class="st122" cx="78.71" cy="187.93" r="55.88"/>
<rect x="38.33" y="210.25" class="st78" width="79.63" height="18.2"/>
<text transform="matrix(1 0 0 1 40.9455 222.1581)" class="st5 st192 st193">Street light</text>
<g>
	<path class="st34" d="M86.35,146.13v-4.01h-3.1c-0.1-1.34-0.56-2.36-2.14-2.36h-4.34c-1.53,0-1.97,1.01-2.07,2.36h-3.1v4.01H86.35z
		"/>
	<path class="st34" d="M83.27,193.42c-0.01-0.25-0.04-0.49-0.08-0.71l-0.02-0.25h-0.02c-0.23-0.93-0.77-1.57-2.02-1.57h-0.22v-34.6
		c1.46-0.7,2.54-2.19,2.76-3.99l0.43-3.54H73.87l0.43,3.54c0.22,1.8,1.3,3.28,2.76,3.99v34.6h-0.29c-1.21,0-1.74,0.64-1.96,1.57
		H74.8l-0.03,0.26c-0.04,0.22-0.07,0.45-0.08,0.7h0.01l-1.18,12.27h10.91l-1.18-12.27H83.27z"/>
</g>
<circle class="st196" cx="790.11" cy="196.93" r="49.42"/>
<rect x="754.4" y="215.65" class="st78" width="70.41" height="16.1"/>
<text transform="matrix(1 0 0 1 756.7126 226.1807)" class="st31 st192 st195">Street light</text>
<g>
	<path class="st31" d="M795.69,162.93v-3.23h-2.49c-0.08-1.08-0.45-1.9-1.72-1.9h-3.49c-1.23,0-1.58,0.82-1.67,1.9h-2.5v3.23H795.69
		z"/>
	<path class="st31" d="M793.21,201.01c-0.01-0.2-0.03-0.39-0.07-0.57l-0.02-0.2h-0.02c-0.18-0.75-0.62-1.26-1.63-1.26h-0.18v-27.86
		c1.17-0.57,2.05-1.76,2.22-3.21l0.35-2.85h-8.22l0.35,2.85c0.18,1.45,1.05,2.64,2.22,3.21v27.86h-0.23c-0.98,0-1.4,0.51-1.58,1.26
		h-0.02l-0.02,0.21c-0.03,0.18-0.05,0.37-0.06,0.56h0.01l-0.95,9.88h8.79l-0.95-9.88H793.21z"/>
</g>
<g>
	<circle class="st122" cx="150.16" cy="340.54" r="55.88"/>
	<rect x="110.31" y="361.08" class="st78" width="79.63" height="18.2"/>
	<text transform="matrix(1 0 0 1 121.9303 372.9896)" class="st5 st192 st193">Bus stop</text>
	<g>
		<rect x="141.67" y="301.27" class="st14" width="16.4" height="20.36"/>
		<g>
			<g>
				<path class="st34" d="M154.52,306.01h-8.7c-0.24,0-0.44,0.2-0.44,0.44v3.92h9.57v-3.92
					C154.96,306.2,154.76,306.01,154.52,306.01z"/>
				<path class="st34" d="M145.38,312.97h9.57v2.61h-9.57V312.97z"/>
				<path class="st34" d="M151.47,348.45v-22.43H158c2.64,0,4.79-2.15,4.79-4.79v-18.27c0-2.64-2.15-4.79-4.79-4.79h-15.66
					c-2.64,0-4.79,2.15-4.79,4.79v18.27c0,2.64,2.15,4.79,4.79,4.79h6.53v22.43 M157.57,316.88c0,0.72-0.58,1.31-1.31,1.31h-0.44
					v1.31c0,0.72-0.58,1.31-1.31,1.31c-0.72,0-1.31-0.58-1.31-1.31v-1.31h-6.09v1.31c0,0.72-0.58,1.31-1.31,1.31
					c-0.72,0-1.31-0.58-1.31-1.31v-1.31h-0.44c-0.72,0-1.31-0.58-1.31-1.31v-10.44c0-1.68,1.37-3.05,3.05-3.05h8.7
					c1.68,0,3.05,1.37,3.05,3.05V316.88z"/>
			</g>
			<rect x="148.31" y="324.5" class="st34" width="3.81" height="25.91"/>
			<path class="st34" d="M155.85,353.45c-0.1-1.94-0.69-3.42-2.91-3.42h-5.86c-2.16,0-2.71,1.48-2.82,3.42H155.85z"/>
		</g>
	</g>
</g>
<circle class="st194" cx="672.4" cy="120.87" r="49.42"/>
<rect x="637.16" y="139.03" class="st78" width="70.41" height="16.1"/>
<text transform="matrix(1 0 0 1 647.4387 149.5643)" class="st27 st192 st195">Bus stop</text>
<g>
	<rect x="664.89" y="86.15" class="st14" width="14.5" height="18"/>
	<g>
		<g>
			<path class="st27" d="M676.26,90.33h-7.7c-0.21,0-0.38,0.17-0.38,0.38v3.46h8.46v-3.46C676.64,90.5,676.47,90.33,676.26,90.33z"
				/>
			<path class="st27" d="M668.18,96.49h8.46v2.31h-8.46V96.49z"/>
			<path class="st27" d="M673.57,127.87v-19.84h5.77c2.33,0,4.23-1.9,4.23-4.23V87.64c0-2.33-1.9-4.23-4.23-4.23h-13.85
				c-2.33,0-4.23,1.9-4.23,4.23v16.16c0,2.33,1.9,4.23,4.23,4.23h5.77v19.84 M678.95,99.95c0,0.64-0.52,1.15-1.15,1.15h-0.38v1.15
				c0,0.64-0.52,1.15-1.15,1.15c-0.64,0-1.15-0.52-1.15-1.15v-1.15h-5.39v1.15c0,0.64-0.52,1.15-1.15,1.15s-1.15-0.52-1.15-1.15
				v-1.15h-0.38c-0.64,0-1.15-0.52-1.15-1.15v-9.23c0-1.49,1.21-2.69,2.69-2.69h7.7c1.49,0,2.69,1.21,2.69,2.69V99.95z"/>
		</g>
		<rect x="670.76" y="106.68" class="st27" width="3.37" height="22.91"/>
		<path class="st27" d="M677.44,132.29c-0.09-1.71-0.61-3.02-2.57-3.02h-5.18c-1.91,0-2.4,1.31-2.49,3.02H677.44z"/>
	</g>
</g>
<g>
	<circle class="st122" cx="286.78" cy="325.96" r="55.88"/>
	<rect x="247.52" y="350.68" class="st78" width="79.63" height="18.2"/>
	<text transform="matrix(1 0 0 1 260.3542 362.5966)" class="st5 st192 st193">Building</text>
	<g>
		<g>
			<path class="st34" d="M283.58,330.5h8.9v8.85h-8.9V330.5z"/>
			<path class="st34" d="M282.77,330.5h3.24v8.85h-3.24V330.5z"/>
			<path class="st34" d="M298.52,284.12h-21.79c-0.89,0-1.62,0.72-1.62,1.62v53.61h4.42v-10.46c0-0.89,0.72-1.62,1.62-1.62h6.47
				h6.47c0.89,0,1.62,0.72,1.62,1.62v10.46h4.42v-53.61C300.14,284.84,299.41,284.12,298.52,284.12z M282.77,312.7
				c0,0.89-0.72,1.62-1.62,1.62s-1.62-0.72-1.62-1.62v-3.24c0-0.89,0.72-1.62,1.62-1.62s1.62,0.72,1.62,1.62V312.7z M289.24,312.7
				c0,0.89-0.72,1.62-1.62,1.62s-1.62-0.72-1.62-1.62v-3.24c0-0.89,0.72-1.62,1.62-1.62s1.62,0.72,1.62,1.62V312.7z M295.72,312.7
				c0,0.89-0.72,1.62-1.62,1.62s-1.62-0.72-1.62-1.62v-3.24c0-0.89,0.72-1.62,1.62-1.62s1.62,0.72,1.62,1.62V312.7z M282.77,302.99
				c0,0.89-0.72,1.62-1.62,1.62s-1.62-0.72-1.62-1.62v-3.24c0-0.89,0.72-1.62,1.62-1.62s1.62,0.72,1.62,1.62V302.99z M289.24,302.99
				c0,0.89-0.72,1.62-1.62,1.62s-1.62-0.72-1.62-1.62v-3.24c0-0.89,0.72-1.62,1.62-1.62s1.62,0.72,1.62,1.62V302.99z M295.72,302.99
				c0,0.89-0.72,1.62-1.62,1.62s-1.62-0.72-1.62-1.62v-3.24c0-0.89,0.72-1.62,1.62-1.62s1.62,0.72,1.62,1.62V302.99z M282.77,293.28
				c0,0.89-0.72,1.62-1.62,1.62s-1.62-0.72-1.62-1.62v-3.24c0-0.89,0.72-1.62,1.62-1.62s1.62,0.72,1.62,1.62V293.28z M289.24,293.28
				c0,0.89-0.72,1.62-1.62,1.62s-1.62-0.72-1.62-1.62v-3.24c0-0.89,0.72-1.62,1.62-1.62s1.62,0.72,1.62,1.62V293.28z M295.72,293.28
				c0,0.89-0.72,1.62-1.62,1.62s-1.62-0.72-1.62-1.62v-3.24c0-0.89,0.72-1.62,1.62-1.62s1.62,0.72,1.62,1.62V293.28z"/>
		</g>
		<path class="st34" d="M313.62,305.69h-10.25v33.66h10.25c0.89,0,1.62-0.72,1.62-1.62v-30.42
			C315.24,306.41,314.52,305.69,313.62,305.69z M310.93,325.19c0,0.89-0.72,1.62-1.62,1.62s-1.62-0.72-1.62-1.62v-11.41
			c0-0.89,0.72-1.62,1.62-1.62s1.62,0.72,1.62,1.62V325.19z"/>
		<path class="st34" d="M261.63,305.69c-0.89,0-1.62,0.72-1.62,1.62v30.42c0,0.89,0.72,1.62,1.62,1.62h10.25v-33.66H261.63z
			 M267.56,325.23c0,0.89-0.72,1.62-1.62,1.62s-1.62-0.72-1.62-1.62v-11.45c0-0.89,0.72-1.62,1.62-1.62s1.62,0.72,1.62,1.62V325.23z
			"/>
	</g>
</g>
<g>
	<circle class="st122" cx="205.91" cy="214.62" r="55.88"/>
	<rect x="165.65" y="235.94" class="st78" width="79.63" height="18.2"/>
	<text transform="matrix(1 0 0 1 185.2683 247.8495)" class="st5 st192 st193">Bench</text>
	<path class="st34" d="M227.02,225.25c0.27,0,0.49-0.22,0.49-0.49v-10.62h1.57c0.27,0,0.49-0.22,0.49-0.49v-4.12
		c0-0.27-0.22-0.49-0.49-0.49h-5.69v-5.2h3.63c0.27,0,0.49-0.22,0.49-0.49v-4.12c0-0.27-0.22-0.49-0.49-0.49h-3.63v-3.14h3.63
		c0.27,0,0.49-0.22,0.49-0.49V191c0-0.27-0.22-0.49-0.49-0.49h-3.63v-1.57c0-0.26-0.87-0.73-2.55-0.73c-1.67,0-2.55,0.48-2.55,0.73
		v1.57h-25.8v-1.57c0-0.26-0.87-0.73-2.55-0.73c-1.67,0-2.55,0.48-2.55,0.73v1.57h-3.63c-0.27,0-0.49,0.22-0.49,0.49v4.12
		c0,0.27,0.22,0.49,0.49,0.49h3.63v3.14h-3.63c-0.27,0-0.49,0.22-0.49,0.49v4.12c0,0.27,0.22,0.49,0.49,0.49h3.63v5.2h-5.69
		c-0.13,0-0.25,0.05-0.34,0.14c-0.09,0.09-0.14,0.21-0.14,0.34v4.12c0,0.27,0.22,0.49,0.49,0.49h1.57v10.62
		c0,0.27,0.22,0.49,0.49,0.49h4.12c0.27,0,0.49-0.22,0.49-0.49v-10.62h34.04v10.62c0,0.27,0.22,0.49,0.49,0.49H227.02z
		 M218.29,209.05h-25.8v-5.2h25.8V209.05z M218.29,198.75h-25.8v-3.14h25.8V198.75z"/>
</g>
<g>
	<path class="st197" d="M433.84,275.68h82.9v20.72h-82.9V275.68z"/>
	<path class="st198" d="M540.26,306.77c-0.27-0.42-0.64-0.76-1.07-1l-22.45-12.81h-82.9l-22.45,12.81c-0.43,0.24-0.8,0.58-1.07,1
		c-0.42,0.58-0.65,1.28-0.66,2v8.36c0,1.91,1.55,3.45,3.45,3.45h124.35c1.91,0,3.45-1.55,3.45-3.45v-8.36
		C540.91,308.05,540.68,307.35,540.26,306.77z"/>
	<path class="st197" d="M540.92,308.77v8.36c0,1.91-1.55,3.45-3.45,3.45H413.12c-1.91,0-3.45-1.55-3.45-3.45v-8.36
		c0-0.72,0.23-1.42,0.66-2h129.94C540.68,307.35,540.91,308.05,540.92,308.77L540.92,308.77z"/>
	<path class="st198" d="M575.46,251.5v17.27c0,5.72-4.64,10.36-10.36,10.36H385.49c-5.72,0-10.36-4.64-10.36-10.36V251.5l6.91-6.91
		h189.97L575.46,251.5z"/>
	<path class="st122" d="M575.46,130.61V251.5H375.12V130.61c0-5.72,4.64-10.36,10.36-10.36H565.1
		C570.82,120.25,575.46,124.89,575.46,130.61z"/>
	<path class="st87" d="M481.95,209.71h-3.45c-1.91,0-3.45-1.55-3.45-3.45s1.55-3.45,3.45-3.45h3.45c1.91,0,3.45,1.55,3.45,3.45
		S483.86,209.71,481.95,209.71z"/>
	<path class="st96" d="M519.94,209.71h-24.18c-1.91,0-3.45-1.55-3.45-3.45s1.55-3.45,3.45-3.45h24.18c1.91,0,3.45,1.55,3.45,3.45
		S521.85,209.71,519.94,209.71z"/>
	<path class="st32" d="M498.65,237.69h-37.99c-1.91,0-3.45-1.55-3.45-3.45s1.55-3.45,3.45-3.45h37.99c1.91,0,3.45,1.55,3.45,3.45
		S500.56,237.69,498.65,237.69z"/>
	<path class="st87" d="M496.07,223.68h-72.54c-1.91,0-3.45-1.55-3.45-3.45c0-1.91,1.55-3.45,3.45-3.45h72.54
		c1.91,0,3.45,1.55,3.45,3.45C499.52,222.14,497.98,223.68,496.07,223.68z"/>
	<path class="st32" d="M409.72,223.68h-6.91c-1.91,0-3.45-1.55-3.45-3.45c0-1.91,1.55-3.45,3.45-3.45h6.91
		c1.91,0,3.45,1.55,3.45,3.45C413.17,222.14,411.62,223.68,409.72,223.68z"/>
	<path class="st96" d="M416.62,237.5h-13.82c-1.91,0-3.45-1.55-3.45-3.45c0-1.91,1.55-3.45,3.45-3.45h13.82
		c1.91,0,3.45,1.55,3.45,3.45C420.08,235.95,418.53,237.5,416.62,237.5z"/>
	<path class="st87" d="M526.92,237.5H513.1c-1.91,0-3.45-1.55-3.45-3.45c0-1.91,1.55-3.45,3.45-3.45h13.82
		c1.91,0,3.45,1.55,3.45,3.45C530.37,235.95,528.83,237.5,526.92,237.5z"/>
	<path class="st32" d="M547.5,209.72h-13.82c-1.91,0-3.45-1.55-3.45-3.45c0-1.91,1.55-3.45,3.45-3.45h13.82
		c1.91,0,3.45,1.55,3.45,3.45C550.95,208.17,549.41,209.72,547.5,209.72z"/>
	<path class="st87" d="M416.62,209.87h-13.82c-1.91,0-3.45-1.55-3.45-3.45c0-1.91,1.55-3.45,3.45-3.45h13.82
		c1.91,0,3.45,1.55,3.45,3.45C420.08,208.32,418.53,209.87,416.62,209.87z"/>
	<path class="st96" d="M464.98,209.87h-34.54c-1.91,0-3.45-1.55-3.45-3.45c0-1.91,1.55-3.45,3.45-3.45h34.54
		c1.91,0,3.45,1.55,3.45,3.45C468.44,208.32,466.89,209.87,464.98,209.87z"/>
	<path class="st96" d="M543.53,223.93h-34.54c-1.91,0-3.45-1.55-3.45-3.45c0-1.91,1.55-3.45,3.45-3.45h34.54
		c1.91,0,3.45,1.55,3.45,3.45C546.98,222.38,545.44,223.93,543.53,223.93z"/>
	<path class="st87" d="M446.85,237.5h-13.82c-1.91,0-3.45-1.55-3.45-3.45c0-1.91,1.55-3.45,3.45-3.45h13.82
		c1.91,0,3.45,1.55,3.45,3.45C450.3,235.95,448.76,237.5,446.85,237.5z"/>
	<circle class="st199" cx="475.68" cy="264.38" r="6.53"/>
	<g>
		<path class="st200" d="M385.58,135.6c-1.58-0.6-2.71-2.13-2.71-3.92c0-0.99,0.35-1.9,0.92-2.61l-1.63-0.3
			c-0.51,0.86-0.81,1.85-0.81,2.92c0,2.54,1.67,4.7,3.97,5.44L385.58,135.6z"/>
		<path class="st201" d="M384.09,128.72c0.76-0.76,1.81-1.24,2.97-1.24c0.3,0,0.6,0.03,0.88,0.1l0.47-1.44
			c-0.44-0.11-0.89-0.17-1.36-0.17c-1.93,0-3.64,0.97-4.68,2.44L384.09,128.72z"/>
		<path class="st202" d="M386.98,135.87c-0.36-0.01-0.7-0.06-1.03-0.15l-0.26,1.5c0.44,0.11,0.89,0.17,1.37,0.17
			c0.3,0,0.59-0.03,0.87-0.07L386.98,135.87z"/>
		<path class="st203" d="M388.8,126.24l-0.47,1.44c1.7,0.54,2.93,2.13,2.93,4c0,2.18-1.68,3.98-3.81,4.18l0.91,1.38
			c2.53-0.59,4.42-2.86,4.42-5.56C392.78,129.14,391.1,126.98,388.8,126.24z"/>
	</g>
	<rect x="396.25" y="146.92" class="st78" width="160.39" height="47.87"/>
	<text transform="matrix(1 0 0 1 396.2491 161.8276)"><tspan x="0" y="0" class="st204 st192 st205">10010101011010</tspan><tspan x="0" y="25.2" class="st204 st192 st205">11101001101011</tspan></text>
</g>
<polyline class="st206" points="198.04,297.91 365.79,194.69 187.2,121.43 "/>
<polyline class="st206" points="322.72,275.02 365.79,194.69 307.67,136.49 "/>
<polyline class="st206" points="131.18,158.77 365.79,194.69 265.6,207.73 "/>
<rect x="342.82" y="183.91" class="st14" width="29.5" height="23.15"/>
<g>
	<g>
		<g>
			<g>
				<path class="st5" d="M371.46,195.67c0,0.25-0.05,0.49-0.14,0.71c-0.09,0.2-0.21,0.4-0.38,0.57c0,0,0,0,0,0c0,0,0,0,0,0
					c0,0,0,0,0,0c0,0,0,0,0,0c0,0,0,0,0,0c0,0,0,0,0,0c0,0,0,0,0,0l-7.33,7.33c-0.72,0.72-1.88,0.72-2.59,0
					c-0.72-0.72-0.72-1.88,0-2.59l4.2-4.2h-17.57c-1.01,0-1.83-0.82-1.83-1.83s0.82-1.83,1.83-1.83h17.57l-4.2-4.2
					c-0.72-0.72-0.72-1.88,0-2.59c0.72-0.72,1.88-0.72,2.59,0l7.33,7.33c0,0,0,0,0,0c0,0,0,0,0,0c0,0,0,0,0,0c0,0,0,0,0,0
					c0,0,0,0,0,0c0,0,0,0,0,0c0,0,0,0,0,0c0.02,0.02,0.04,0.04,0.06,0.06c0.14,0.15,0.24,0.32,0.32,0.51c0,0,0,0,0,0c0,0,0,0,0,0
					C371.41,195.18,371.46,195.42,371.46,195.67L371.46,195.67z"/>
			</g>
		</g>
	</g>
</g>
<g>
	<g>
		<g>
			<g>
				<path class="st5" d="M728.23,195.94c0,0.25-0.05,0.49-0.14,0.71c-0.09,0.2-0.21,0.4-0.38,0.57c0,0,0,0,0,0c0,0,0,0,0,0
					c0,0,0,0,0,0c0,0,0,0,0,0c0,0,0,0,0,0c0,0,0,0,0,0c0,0,0,0,0,0l-7.33,7.33c-0.72,0.72-1.88,0.72-2.59,0s-0.72-1.88,0-2.59
					l4.2-4.2H582.91c-1.01,0-1.83-0.82-1.83-1.83s0.82-1.83,1.83-1.83h139.07l-4.2-4.2c-0.72-0.72-0.72-1.88,0-2.59
					c0.72-0.72,1.88-0.72,2.59,0l7.33,7.33c0,0,0,0,0,0c0,0,0,0,0,0c0,0,0,0,0,0c0,0,0,0,0,0c0,0,0,0,0,0c0,0,0,0,0,0c0,0,0,0,0,0
					c0.02,0.02,0.04,0.04,0.06,0.06c0.14,0.15,0.24,0.32,0.32,0.51c0,0,0,0,0,0c0,0,0,0,0,0
					C728.18,195.45,728.23,195.69,728.23,195.94L728.23,195.94z"/>
			</g>
		</g>
	</g>
</g>
<g>
	<g>
		<g>
			<g>
				<path class="st5" d="M611.96,238.85c-0.12,0.22-0.28,0.41-0.47,0.56c-0.17,0.14-0.38,0.25-0.6,0.32c0,0,0,0,0,0c0,0,0,0,0,0
					c0,0,0,0,0,0c0,0,0,0,0,0c0,0,0,0,0,0c0,0,0,0,0,0c0,0,0,0-0.01,0l-9.85,2.91c-0.88,0.26-1.86-0.1-2.26-0.92
					c-0.5-1.05,0.06-2.25,1.13-2.57l5.7-1.69l-24.57-13.86c-0.84-2.3,1.12-3.56,2.53-2.8l23.8,13.44l-1.66-5.61
					c-0.26-0.88,0.1-1.86,0.92-2.26c1.05-0.5,2.25,0.06,2.57,1.13l2.94,9.94c0,0,0,0,0,0.01c0,0,0,0,0,0c0,0,0,0,0,0c0,0,0,0,0,0
					c0,0,0,0,0,0c0,0,0,0,0,0c0,0,0,0,0,0c0.01,0.03,0.01,0.05,0.02,0.08c0.05,0.2,0.06,0.4,0.04,0.6c0,0,0,0,0,0c0,0,0,0,0,0
					C612.15,238.39,612.08,238.63,611.96,238.85L611.96,238.85z"/>
			</g>
		</g>
	</g>
</g>
<g>
	<g>
		<g>
			<g>
				<path class="st5" d="M618.07,156.16c0.1,0.23,0.16,0.47,0.16,0.71c0,0.22-0.03,0.45-0.11,0.67c0,0,0,0,0,0c0,0,0,0,0,0
					c0,0,0,0,0,0c0,0,0,0,0,0c0,0,0,0,0,0c0,0,0,0,0,0c0,0,0,0,0,0.01l-3.68,9.69c-0.36,0.95-1.42,1.42-2.36,1.06
					c-0.95-0.36-1.42-1.42-1.06-2.36l2.11-5.56l-29.35,12.62c-0.92,0.41-2.01,0-2.42-0.92c-0.41-0.92,0-2.01,0.92-2.42l29.35-12.62
					l-5.56-2.11c-0.95-0.36-1.42-1.42-1.06-2.36c0.36-0.95,1.42-1.42,2.36-1.06l9.69,3.68c0,0,0,0,0.01,0c0,0,0,0,0,0c0,0,0,0,0,0
					c0,0,0,0,0,0c0,0,0,0,0,0c0,0,0,0,0,0c0,0,0,0,0,0c0.03,0.01,0.05,0.02,0.08,0.03c0.19,0.08,0.36,0.2,0.5,0.33c0,0,0,0,0,0
					c0,0,0,0,0,0C617.83,155.74,617.97,155.93,618.07,156.16L618.07,156.16z"/>
			</g>
		</g>
	</g>
</g>
</svg>
