<?xml version="1.0" encoding="utf-8"?>
<!-- Generator: Adobe Illustrator 27.2.0, SVG Export Plug-In . SVG Version: 6.00 Build 0)  -->
<svg version="1.1" id="Ebene_1" xmlns="http://www.w3.org/2000/svg" xmlns:xlink="http://www.w3.org/1999/xlink" x="0px" y="0px"
	 viewBox="0 0 1152.62 453.14" style="enable-background:new 0 0 1152.62 453.14;" xml:space="preserve">
<style type="text/css">
	.st0{opacity:0.4;fill:#60748C;}
	.st1{opacity:0.75;fill:#60748C;}
	.st2{fill:#ECECEC;}
	.st3{opacity:0.1;}
	.st4{opacity:0.3;fill:#5B7188;}
	.st5{fill:#60748C;}
	.st6{opacity:0.3;fill:none;stroke:#5B7188;stroke-width:13;stroke-miterlimit:10;}
	.st7{opacity:0.7;fill:#60748C;}
	.st8{fill:#A4C748;}
	.st9{fill:none;stroke:#FFFFFF;stroke-width:5;stroke-miterlimit:10;}
	.st10{fill:#A3C648;}
	.st11{opacity:0.25;fill:#60748C;}
	.st12{opacity:0.34;fill:#60748C;}
	.st13{stroke:#FFFFFF;stroke-width:0.5;stroke-miterlimit:10;}
	.st14{fill:#FFFFFF;}
	.st15{fill:#EDEDED;}
	.st16{opacity:0.1;fill:#546579;stroke:#60748C;stroke-width:1.0251;stroke-miterlimit:10;}
	.st17{opacity:0.1;fill:#546579;stroke:#282F39;stroke-width:1.0251;stroke-miterlimit:10;}
	.st18{opacity:0.1;fill:#546579;stroke:#546579;stroke-width:1.0251;stroke-miterlimit:10;}
	.st19{fill:#60748C;stroke:#60748C;stroke-width:0.9491;stroke-miterlimit:10;}
	.st20{fill:#282F39;}
	.st21{fill:#45AD4B;stroke:#45AD4B;stroke-width:0.8985;stroke-miterlimit:10;}
	.st22{fill:#6DC5D8;stroke:#6DC5D8;stroke-width:0.9491;stroke-miterlimit:10;}
	.st23{fill:#282F39;stroke:#FFFFFF;stroke-width:1.0437;stroke-miterlimit:10;}
	.st24{fill:#45AD4B;stroke:#45AD4B;stroke-width:0.9491;stroke-miterlimit:10;}
	.st25{fill:#45AD4B;stroke:#45AD4B;stroke-width:0.9119;stroke-miterlimit:10;}
	.st26{fill:#C1252D;stroke:#C1252D;stroke-width:0.9491;stroke-miterlimit:10;}
	.st27{fill:#C1252D;}
	.st28{fill:#C1252D;stroke:#C1252D;stroke-width:1.0339;stroke-miterlimit:10;}
	.st29{fill:#C1252D;stroke:#C1252D;stroke-width:0.8834;stroke-miterlimit:10;}
	.st30{fill:none;stroke:#282F39;stroke-width:2;stroke-linecap:round;stroke-linejoin:round;stroke-miterlimit:10;}
	.st31{fill:#45AD4B;}
	.st32{fill:#45AB4B;}
	.st33{fill:#6DC5D8;}
	.st34{fill:#5B7188;}
	.st35{fill:#97A2AF;}
	.st36{fill:#BABBBC;}
	.st37{fill:#5B7185;}
	.st38{fill:#A0C348;}
	.st39{fill:#45A84B;}
	.st40{fill:#BC252D;}
	.st41{fill:#6DC0D3;}
	.st42{fill:none;stroke:#C7D3D7;stroke-miterlimit:10;}
	.st43{opacity:0.1;fill:#757577;}
	.st44{fill:none;stroke:#FFFFFF;stroke-miterlimit:10;}
	.st45{opacity:0.6;}
	.st46{fill:#F1F3F4;}
	.st47{fill:none;stroke:#F1F3F4;stroke-miterlimit:10;}
	.st48{fill:#E8EAED;}
	.st49{fill:#F1F1F1;}
	.st50{fill:#646768;}
	.st51{opacity:0.25;fill:#757577;}
	.st52{fill:none;stroke:#6DC5D8;stroke-width:3;stroke-miterlimit:10;}
	.st53{fill:none;stroke:#C1252D;stroke-width:3;stroke-miterlimit:10;}
	.st54{fill:none;stroke:#45AD4B;stroke-width:3;stroke-miterlimit:10;}
	.st55{fill:#E7E7E7;}
	.st56{clip-path:url(#SVGID_00000175311798469738700500000014364191530713575047_);}
	.st57{clip-path:url(#SVGID_00000175311798469738700500000014364191530713575047_);fill:#F1F1F1;}
	.st58{clip-path:url(#SVGID_00000035506862593464008040000011733449965285165492_);}
	.st59{fill:#FEF9E8;}
	.st60{fill:#CEEAD6;}
	.st61{fill:#FCE8E6;}
	.st62{fill:none;stroke:#9CC0F9;stroke-width:3;stroke-miterlimit:10;}
	.st63{fill:none;stroke:#9CC0F9;stroke-miterlimit:10;}
	.st64{opacity:0.5;fill:#757577;}
	.st65{clip-path:url(#SVGID_00000175311798469738700500000014364191530713575047_);fill:#FFFFFF;}
	.st66{fill:none;stroke:#C1252D;stroke-width:9;stroke-miterlimit:10;}
	.st67{fill:none;stroke:#E7E7E7;stroke-width:9;stroke-miterlimit:10;}
	.st68{fill:none;stroke:#FFFFFF;stroke-width:3;stroke-miterlimit:10;}
	.st69{fill:none;stroke:#45AD4B;stroke-width:9;stroke-miterlimit:10;}
	.st70{fill:none;stroke:#6DC5D8;stroke-width:1.5;stroke-miterlimit:10;}
	.st71{opacity:0.25;clip-path:url(#SVGID_00000175311798469738700500000014364191530713575047_);fill:#757577;}
	.st72{fill:#292929;}
	.st73{fill-rule:evenodd;clip-rule:evenodd;}
	.st74{fill:#FF7578;}
	.st75{fill:#FFC9CA;}
	.st76{fill:#173042;}
	.st77{fill:#946B6B;}
	.st78{fill:none;}
	.st79{fill:#FFFFFF;stroke:#FFFFFF;stroke-width:7;stroke-miterlimit:10;}
	.st80{fill:#444444;}
	.st81{fill:#F73103;}
	.st82{fill:#FFBB39;}
	.st83{fill:#398229;}
	.st84{fill:#DE0505;}
	.st85{fill:#FF804E;}
	.st86{fill:#7ED668;}
	.st87{fill:#BF252D;}
	.st88{fill:#D4894D;}
	.st89{fill:#AD5512;}
	.st90{fill:#FF00FF;}
	.st91{fill:#FF3D75;}
	.st92{fill:#F28E1E;}
	.st93{fill:#2B6E53;}
	.st94{fill:#399150;}
	.st95{fill:#6A4A1D;}
	.st96{fill:#6DC3D6;}
	.st97{clip-path:url(#SVGID_00000130648078905713037700000008574966175649609393_);}
	.st98{clip-path:url(#SVGID_00000125602655086524189280000002028255150065674115_);}
	.st99{fill:#333333;}
	.st100{fill:url(#SVGID_00000109728418907814447840000007743245321480822198_);}
	.st101{fill:url(#SVGID_00000034783578471239899660000014883837242407647641_);}
	.st102{opacity:0.08;}
	.st103{fill:url(#SVGID_00000076566658862078558720000008808047825598415794_);}
	.st104{fill-rule:evenodd;clip-rule:evenodd;fill:#1A1A1A;}
	.st105{fill:#1A1A1A;}
	.st106{fill-rule:evenodd;clip-rule:evenodd;fill:#60748C;}
	.st107{fill:#FCEED7;}
	.st108{fill:#FBD18B;}
	.st109{fill:#DEE1E5;}
	.st110{fill:#ED8D80;}
	.st111{fill:#E97361;}
	.st112{fill:#AE5649;}
	.st113{fill:#CACED5;}
	.st114{fill:#A8B0BB;}
	.st115{fill:#CACFD7;}
	.st116{fill:#EABF9A;}
	.st117{fill:#E4E7EB;}
	.st118{fill:#69D4F2;}
	.st119{fill:#B2DB7F;}
	.st120{fill:#9ED268;}
	.st121{fill:#F8F8F8;}
	.st122{fill:#F0F0F0;}
	.st123{fill:#738DBD;}
	.st124{fill:#E46D67;}
	.st125{fill:#24C1F0;}
	.st126{fill:#36B183;}
	.st127{fill:#FFB866;}
	.st128{fill:#FFD873;}
	.st129{fill-rule:evenodd;clip-rule:evenodd;fill:#485156;}
	.st130{fill:#58595B;}
	.st131{fill:#BF252D;stroke:#BF252D;stroke-width:2;stroke-miterlimit:10;}
	.st132{fill:#FFFFFF;stroke:#BF252D;stroke-width:4;stroke-linecap:round;stroke-linejoin:round;stroke-miterlimit:10;}
	.st133{fill-rule:evenodd;clip-rule:evenodd;fill:#BF252D;}
	.st134{fill:none;stroke:#FFFFFF;stroke-miterlimit:10;stroke-dasharray:1.0108,1.0108;}
	.st135{fill:none;stroke:#45AD4B;stroke-width:4;stroke-miterlimit:10;}
	.st136{fill:none;stroke:#C1252D;stroke-width:4;stroke-miterlimit:10;}
	.st137{opacity:0.2;fill:#45AD4B;}
	.st138{opacity:0.6;fill:#45AD4B;}
	.st139{fill:#44A049;}
	.st140{clip-path:url(#SVGID_00000039815666533524952950000016076475974175690374_);}
	.st141{opacity:0.5;fill:#45AD4B;}
	.st142{opacity:0.2;fill:#E7E7E7;}
	.st143{opacity:0.5;fill:#E7E7E7;}
	.st144{opacity:0.5;fill:#FFFFFF;}
	.st145{opacity:0.2;fill:#6DC5D8;}
	.st146{fill:none;stroke:#FFFFFF;stroke-width:2.5;stroke-miterlimit:10;}
	.st147{fill:none;stroke:#BF252D;stroke-width:5;stroke-miterlimit:10;}
	.st148{fill:#BF252D;stroke:#FFFFFF;stroke-width:3;stroke-miterlimit:10;}
	.st149{fill:#FFFFFF;stroke:#FFFFFF;stroke-width:5.5;stroke-miterlimit:10;}
	.st150{fill:none;stroke:#BF252D;stroke-width:3;stroke-miterlimit:10;}
	.st151{fill:#BF252D;stroke:#FFFFFF;stroke-width:4.5;stroke-miterlimit:10;}
	.st152{fill:#BF252D;stroke:#FFFFFF;stroke-miterlimit:10;}
	.st153{fill:#F7E921;}
	.st154{fill:#6E81B5;}
	.st155{fill:#466087;}
	.st156{fill:#FFAEA8;}
	.st157{fill:#FFE152;}
	.st158{fill:#96C869;}
	.st159{fill:#ADB3BD;}
	.st160{fill:#CACED8;}
	.st161{fill:#40CAEF;}
	.st162{fill:#276F80;}
	.st163{fill:#878F9E;}
	.st164{fill:#EEF0F3;}
	.st165{fill:#1E505B;}
	.st166{fill:#9C80EA;}
	.st167{fill:#FAC955;}
	.st168{clip-path:url(#SVGID_00000161596883919210491500000016081333747292807843_);}
	.st169{fill:#E5EAEB;}
	.st170{fill:#ADB4B9;}
	.st171{fill:#495D72;}
	.st172{fill:#28384C;}
	.st173{fill:#E9B816;}
	.st174{fill:#DB352E;}
	.st175{fill:#366DB4;}
	.st176{fill:#753489;}
	.st177{fill:#57A9BF;}
	.st178{fill:#25AC86;}
	.st179{fill:#F56363;}
	.st180{fill:#BD5A45;}
	.st181{fill:#F0EABD;}
	.st182{fill:#EB8819;}
	.st183{fill:#C3411E;}
	.st184{fill:#205B75;}
	.st185{fill:#C8D9E8;}
	.st186{fill:#A9B9CA;}
	.st187{fill:#114559;}
	.st188{fill:#DFE8F2;}
	.st189{fill:#E3B933;}
	.st190{fill:#E96374;}
	.st191{fill:#80EAFF;}
	.st192{fill:#FFFFFF;stroke:#C1252D;stroke-width:7;stroke-miterlimit:10;}
	.st193{fill:#FFFFFF;stroke:#45AD4B;stroke-width:7;stroke-miterlimit:10;}
	.st194{fill:#B4BCBD;}
	.st195{fill:#CED7DA;}
	.st196{fill:none;stroke:#45AD4B;stroke-width:2;stroke-miterlimit:10;}
	.st197{fill:#6DC3D6;stroke:#FFFFFF;stroke-width:0.1;stroke-miterlimit:10;}
	.st198{fill:#C1252D;stroke:#FFFFFF;stroke-width:0.1;stroke-miterlimit:10;}
	.st199{fill:#A3C648;stroke:#FFFFFF;stroke-width:0.1;stroke-miterlimit:10;}
	.st200{fill:#45AB4B;stroke:#FFFFFF;stroke-width:0.1;stroke-miterlimit:10;}
	.st201{fill:none;stroke:#60748C;stroke-linecap:round;stroke-linejoin:round;stroke-miterlimit:10;stroke-dasharray:2,4;}
	.st202{fill:#F0F0F0;stroke:#C1252D;stroke-width:7;stroke-miterlimit:10;}
	.st203{fill:#F0F0F0;stroke:#45AD4B;stroke-width:7;stroke-miterlimit:10;}
	.st204{opacity:0.3;}
	.st205{fill:#EDEDED;stroke:#C1252D;stroke-width:6;stroke-miterlimit:10;}
	.st206{fill:#5B7188;stroke:#EDEDED;stroke-miterlimit:10;}
	.st207{fill:#EDEDED;stroke:#45AD4B;stroke-width:6;stroke-miterlimit:10;}
	.st208{font-family:'Yummo-Bold';}
	.st209{font-size:16.7771px;}
	.st210{fill:#FFFFFF;stroke:#C1252D;stroke-width:6;stroke-miterlimit:10;}
	.st211{fill:#FFFFFF;stroke:#45AD4B;stroke-width:6;stroke-miterlimit:10;}
	.st212{fill:#566469;}
	.st213{font-size:21px;}
	.st214{fill:none;stroke:#6DC5D8;stroke-linecap:round;stroke-linejoin:round;}
	.st215{fill:none;stroke:#6DC5D8;stroke-linecap:round;stroke-linejoin:round;stroke-dasharray:4.8937,7.8299;}
	.st216{fill:none;stroke:#6DC5D8;stroke-linecap:round;stroke-linejoin:round;stroke-dasharray:5.1322,8.2115;}
	.st217{fill:none;stroke:#6DC5D8;stroke-linecap:round;stroke-linejoin:round;stroke-miterlimit:10;stroke-dasharray:5,8;}
	.st218{font-size:17.8446px;}
	.st219{fill:#45AC4B;}
	.st220{fill:#C0252D;}
	.st221{fill:#6DC4D7;}
	.st222{fill:#5B7189;}
	.st223{fill:none;stroke:#60748C;stroke-width:1.5;stroke-miterlimit:10;}
	.st224{opacity:0.4;}
	.st225{fill:none;stroke:#60748C;stroke-width:2;stroke-linecap:round;stroke-linejoin:round;stroke-miterlimit:10;}
	.st226{opacity:0.54;fill:#FFFFFF;}
	.st227{clip-path:url(#SVGID_00000000915714937519263650000008639334376076221864_);}
	.st228{opacity:0.5;fill:#5B7188;}
	.st229{opacity:0.1;fill:#60748C;}
	.st230{clip-path:url(#SVGID_00000083073170592996291080000000143497626165827261_);}
	.st231{display:none;}
	.st232{display:inline;fill:#FFFFFF;}
	.st233{display:inline;fill:#090C11;}
	.st234{display:inline;fill:#4A596E;}
	.st235{fill:#546579;}
	.st236{fill:#6F88A6;}
	.st237{opacity:0.1;fill:none;stroke:#FFFFFF;stroke-miterlimit:10;}
	.st238{display:none;fill:#6DC5D8;}
	.st239{opacity:0.45;fill:#60748C;}
	.st240{opacity:0.03;clip-path:url(#SVGID_00000017513128250456282620000006720645694895736746_);}
	.st241{clip-path:url(#SVGID_00000017513128250456282620000006720645694895736746_);}
	
		.st242{clip-path:url(#SVGID_00000017513128250456282620000006720645694895736746_);fill:#FFFFFF;stroke:#60748C;stroke-width:1.5;stroke-miterlimit:10;}
	.st243{opacity:0.4;clip-path:url(#SVGID_00000017513128250456282620000006720645694895736746_);}
	.st244{clip-path:url(#SVGID_00000150814723850658719760000010836330824334853526_);}
	.st245{opacity:0.05;clip-path:url(#SVGID_00000150814723850658719760000010836330824334853526_);}
	.st246{fill:#575756;}
	
		.st247{clip-path:url(#SVGID_00000150814723850658719760000010836330824334853526_);fill:#FFFFFF;stroke:#60748C;stroke-width:1.5;stroke-miterlimit:10;}
	.st248{opacity:0.4;clip-path:url(#SVGID_00000150814723850658719760000010836330824334853526_);}
	.st249{fill:#FFFFFF;stroke:#60748C;stroke-width:1.5;stroke-miterlimit:10;}
	.st250{fill:#A5C848;}
	.st251{opacity:0.2;}
	.st252{clip-path:url(#SVGID_00000116237282118080269930000000529121336953876921_);}
	.st253{clip-path:url(#SVGID_00000106825861580628324130000004292220382773548439_);}
	.st254{fill:none;stroke:#60748C;stroke-width:3;stroke-miterlimit:10;}
	.st255{fill:#EDEDED;stroke:#C0252D;stroke-width:3;stroke-miterlimit:10;}
	.st256{clip-path:url(#SVGID_00000009592471983646892820000015487923271423280020_);}
	.st257{opacity:0.1;fill:#546579;}
	.st258{opacity:0.05;}
	.st259{fill:#606060;}
	.st260{opacity:0.15;}
	.st261{opacity:0.5;}
	.st262{fill:#535353;}
	.st263{opacity:0.7;}
	.st264{filter:url(#Adobe_OpacityMaskFilter);}
	.st265{filter:url(#Adobe_OpacityMaskFilter_00000091699370649142224910000012414972862633952384_);}
	
		.st266{mask:url(#SVGID_00000181068842076612442850000013103891635585203586_);fill:url(#SVGID_00000056409268609806025190000008325473822124786083_);}
	.st267{filter:url(#Adobe_OpacityMaskFilter_00000159435844488107223280000002721146077786774679_);}
	.st268{filter:url(#Adobe_OpacityMaskFilter_00000066480636193684744370000005459077095530599868_);}
	
		.st269{mask:url(#SVGID_00000098212436818901746550000005214681655477818759_);fill:url(#SVGID_00000095296777567735348330000011803139888025585547_);}
	.st270{filter:url(#Adobe_OpacityMaskFilter_00000078038368357552221920000014228999432582873233_);}
	.st271{filter:url(#Adobe_OpacityMaskFilter_00000109022378373592681080000000546629558182739865_);}
	
		.st272{mask:url(#SVGID_00000179611397003362101400000008513653289152647103_);fill:url(#SVGID_00000130633681281998218950000011735235831342730921_);}
	.st273{filter:url(#Adobe_OpacityMaskFilter_00000111871061274726276450000009457911082314952070_);}
	.st274{filter:url(#Adobe_OpacityMaskFilter_00000005235739233705649490000005085518644451640991_);}
	
		.st275{mask:url(#SVGID_00000088819653524612227610000001752394792335753640_);fill:url(#SVGID_00000045617726198730395740000008454505649163830181_);}
	.st276{filter:url(#Adobe_OpacityMaskFilter_00000165950843264238435950000009975429333563290519_);}
	.st277{filter:url(#Adobe_OpacityMaskFilter_00000005237586694726343490000008912869834797508496_);}
	
		.st278{mask:url(#SVGID_00000155145921157234294600000012721891648309121700_);fill:url(#SVGID_00000053505461070138290650000000701133673173723536_);}
	.st279{filter:url(#Adobe_OpacityMaskFilter_00000147198888971508229920000004691909458839352240_);}
	.st280{filter:url(#Adobe_OpacityMaskFilter_00000002361124598024441940000018218101157588011711_);}
	
		.st281{mask:url(#SVGID_00000064345385622544716290000004581624670672285060_);fill:url(#SVGID_00000033356808438177275910000007065222570207393411_);}
	.st282{filter:url(#Adobe_OpacityMaskFilter_00000166666606685740337280000005835380999639708807_);}
	.st283{filter:url(#Adobe_OpacityMaskFilter_00000164515431995376367100000007692788903276083882_);}
	
		.st284{mask:url(#SVGID_00000052806978923135968940000017255258863243589015_);fill:url(#SVGID_00000171703434925310524190000006226992522739141545_);}
	.st285{opacity:0.8;}
	.st286{filter:url(#Adobe_OpacityMaskFilter_00000065058785186288328260000002852198842507172029_);}
	.st287{filter:url(#Adobe_OpacityMaskFilter_00000011724186318110135110000001819898421552269203_);}
	
		.st288{mask:url(#SVGID_00000076566569439855649220000001804483286906912694_);fill:url(#SVGID_00000144321920995288936740000017870376968281382277_);}
	.st289{fill:none;stroke:#1A1A1A;stroke-width:4;stroke-miterlimit:10;}
	.st290{fill:none;stroke:#60748C;stroke-width:4;stroke-miterlimit:10;}
	.st291{fill:#FFFFFF;stroke:#60748C;stroke-width:3;stroke-miterlimit:10;}
	.st292{fill:#FFFFFF;stroke:#6DC5D8;stroke-width:3;stroke-miterlimit:10;}
	.st293{fill:#6DC5D8;stroke:#FFFFFF;stroke-width:3;stroke-miterlimit:10;}
	.st294{opacity:0.25;}
	.st295{fill:#757577;}
	.st296{fill:#AEAEAE;}
	.st297{fill:#C1252D;stroke:#FFFFFF;stroke-width:3;stroke-miterlimit:10;}
	.st298{fill:#1A1A1A;stroke:#FFFFFF;stroke-width:3;stroke-miterlimit:10;}
	.st299{fill:none;stroke:#000000;stroke-width:10;stroke-linecap:round;stroke-miterlimit:10;}
	.st300{fill:none;stroke:#45AD4B;stroke-width:6;stroke-miterlimit:10;}
	.st301{fill:none;stroke:#6DC5D8;stroke-width:6;stroke-miterlimit:10;}
	.st302{fill:none;stroke:#60748C;stroke-width:6;stroke-miterlimit:10;}
	.st303{fill:none;stroke:#000000;stroke-width:6;stroke-miterlimit:10;}
	.st304{fill:#60748C;stroke:#FFFFFF;stroke-width:4;stroke-miterlimit:10;}
	.st305{fill:none;stroke:#000000;stroke-width:7;stroke-linecap:round;stroke-miterlimit:10;}
	.st306{fill-rule:evenodd;clip-rule:evenodd;fill:none;stroke:#000000;stroke-width:4;stroke-miterlimit:10;}
	.st307{fill:none;stroke:#000000;stroke-width:4;stroke-miterlimit:10;}
	.st308{fill:none;stroke:#000000;stroke-width:4;stroke-linecap:round;stroke-miterlimit:10;}
	.st309{fill-rule:evenodd;clip-rule:evenodd;stroke:#FFFFFF;stroke-miterlimit:10;}
	.st310{fill:#949494;}
	.st311{clip-path:url(#SVGID_00000042732521965614277990000006930929419415280274_);}
	.st312{fill:#1A1A1A;stroke:#1A1A1A;stroke-miterlimit:10;}
	.st313{stroke:#000000;stroke-miterlimit:10;}
	.st314{clip-path:url(#SVGID_00000072979462927797959750000005677637125988024729_);}
	.st315{fill:#60748C;stroke:#60748C;stroke-miterlimit:10;}
	.st316{fill:#728499;}
	.st317{opacity:0.4;fill:#BF252D;}
	.st318{opacity:0.75;fill:#BF252D;}
	.st319{fill:#C7C7C7;}
	.st320{opacity:0.23;}
	.st321{opacity:0.2;fill:#5B7188;}
	.st322{fill:none;stroke:#FFFFFF;stroke-width:6;stroke-miterlimit:10;}
	.st323{fill:#BF252D;stroke:#FFFFFF;stroke-width:6;stroke-miterlimit:10;}
	.st324{opacity:0.3;fill:#BF252D;}
	.st325{opacity:0.7;fill:#BF252D;}
	.st326{opacity:0.5;fill:#BF252D;}
	.st327{opacity:0.2;fill:#BF252D;}
	.st328{fill:#BF252D;stroke:#FFFFFF;stroke-width:5;stroke-miterlimit:10;}
	.st329{opacity:0.53;fill:#52717F;}
	.st330{opacity:0.36;fill:#60748C;}
	.st331{opacity:0.31;fill:#60748C;}
	.st332{opacity:0.45;fill:#6DC5D8;}
	.st333{fill:#E81C24;}
	.st334{fill:#D4DB21;}
	.st335{fill:#F6AB3B;}
	.st336{opacity:0.8;fill:#60748C;}
	.st337{opacity:0.61;fill:#60748C;}
	.st338{opacity:0.12;fill:#6DC5D8;}
	.st339{fill:none;stroke:#6DC5D8;stroke-width:4;stroke-miterlimit:10;}
	.st340{fill:none;stroke:#A4C748;stroke-width:4;stroke-miterlimit:10;}
	.st341{fill:#C1252D;stroke:#C1252D;stroke-width:4;stroke-miterlimit:10;}
	.st342{fill:none;stroke:#FFFFFF;stroke-width:2;stroke-linecap:round;stroke-miterlimit:10;stroke-dasharray:3.9843,5.9765;}
	.st343{fill:none;stroke:#60748C;stroke-width:3;stroke-linecap:round;stroke-miterlimit:10;stroke-dasharray:0.4961,6.945;}
	.st344{fill:none;stroke:#FFFFFF;stroke-width:2;stroke-linecap:round;stroke-miterlimit:10;stroke-dasharray:4.0153,6.023;}
	.st345{fill:none;stroke:#60748C;stroke-width:3;stroke-linecap:round;stroke-miterlimit:10;stroke-dasharray:0.4971,6.9599;}
	.st346{opacity:0.47;fill:#60748C;}
	.st347{fill:none;stroke:#D01519;stroke-miterlimit:10;}
	.st348{clip-path:url(#SVGID_00000003101492803237347230000015350480660797271468_);}
	.st349{clip-path:url(#SVGID_00000044143509518062063910000002954670514499022735_);}
	.st350{fill:#ECECEC;stroke:#FFFFFF;stroke-width:10;stroke-miterlimit:10;}
	.st351{clip-path:url(#SVGID_00000031197109551374664370000011393001983076070321_);}
	.st352{clip-path:url(#SVGID_00000051379560848022886740000002665534599367814814_);}
	.st353{clip-path:url(#SVGID_00000049208326977431825540000002014862575784918411_);}
	.st354{clip-path:url(#SVGID_00000054239890033428849370000016732222677243601825_);}
	.st355{fill:none;stroke:#5B7188;stroke-width:3;stroke-miterlimit:10;stroke-dasharray:9,8;}
	.st356{clip-path:url(#SVGID_00000165219102169882027100000013918010305205665941_);}
	.st357{clip-path:url(#SVGID_00000180365646183713255840000013100661446448785070_);}
	.st358{fill:none;stroke:#E1E1E1;stroke-width:4;stroke-linecap:round;stroke-miterlimit:10;}
	.st359{fill:none;stroke:#000000;stroke-width:5;stroke-miterlimit:10;}
	.st360{fill:none;stroke:#000000;stroke-width:5;stroke-linecap:round;stroke-miterlimit:10;}
	.st361{fill:none;stroke:#E1E1E1;stroke-width:10;stroke-miterlimit:10;}
	.st362{fill:none;stroke:#A4C748;stroke-width:5;stroke-miterlimit:10;}
	.st363{fill:#A4C748;stroke:#FFFFFF;stroke-width:3;stroke-miterlimit:10;}
	.st364{fill:none;stroke:#E1E1E1;stroke-width:10;stroke-linecap:round;stroke-miterlimit:10;}
	.st365{fill:#60748C;stroke:#FFFFFF;stroke-width:5;stroke-miterlimit:10;}
	.st366{fill:#5B7188;stroke:#FFFFFF;stroke-width:5;stroke-miterlimit:10;}
	.st367{fill:#E1E1E1;}
	.st368{fill:none;stroke:#000000;stroke-width:7;stroke-linecap:round;stroke-linejoin:round;stroke-miterlimit:10;}
	.st369{fill:none;stroke:#000000;stroke-width:3;stroke-linecap:round;stroke-linejoin:round;stroke-miterlimit:10;}
	.st370{fill:none;stroke:#000000;stroke-width:6;stroke-linecap:round;stroke-linejoin:round;stroke-miterlimit:10;}
	.st371{fill:none;stroke:#000000;stroke-width:15;stroke-linecap:round;stroke-linejoin:round;stroke-miterlimit:10;}
	.st372{opacity:0.15;fill:#60748C;}
	.st373{opacity:0.37;fill:#60748C;}
	.st374{fill:none;stroke:#333E4C;stroke-width:6;stroke-linecap:round;stroke-linejoin:round;stroke-miterlimit:10;}
	.st375{fill:#EDEDED;stroke:#333E4C;stroke-miterlimit:10;}
	.st376{fill:none;stroke:#333E4C;stroke-width:7;stroke-linecap:round;stroke-linejoin:round;stroke-miterlimit:10;}
	.st377{fill:#5B7188;stroke:#FFFFFF;stroke-miterlimit:10;}
</style>
<path class="st15" d="M277.9,243.06h-89.59c-7.29,0-13.2-5.91-13.2-13.2v-94.32c0-7.29,5.91-13.2,13.2-13.2h89.59
	c7.29,0,13.2,5.91,13.2,13.2v94.32C291.1,237.15,285.19,243.06,277.9,243.06z"/>
<path class="st15" d="M412.85,153.83h-89.59c-7.29,0-13.2-5.91-13.2-13.2V46.31c0-7.29,5.91-13.2,13.2-13.2h89.59
	c7.29,0,13.2,5.91,13.2,13.2v94.32C426.05,147.92,420.14,153.83,412.85,153.83z"/>
<g>
	<path class="st34" d="M239.71,156c0,0,3.44-4.28,3.44-9.06c-0.17,0-1.77,0-3.98,0v-1.72h0.55c0,0,3.44-4.28,3.44-9.06
		c-0.17,0-1.77,0-3.98,0v-2.12h-3.44v-2.18h-0.39c0-0.4-0.22-0.72-0.48-0.72h-3.16c-0.27,0-0.48,0.32-0.48,0.72h-0.39v2.18h-3.44
		v2.12c-2.13,0-3.67,0-3.83,0c0,4.77,3.44,9.06,3.44,9.06h0.4v1.72c-2.13,0-3.67,0-3.83,0c0,4.77,3.44,9.06,3.44,9.06h0.4v1.84
		c-2.13,0-3.67,0-3.83,0c0,4.77,3.44,9.06,3.44,9.06h0.4v2.8h3.44v37.57h-1.38c-2.78,0-3.49,1.91-3.62,4.4h14.9
		c-0.13-2.49-0.88-4.4-3.74-4.4h-1.26v-37.57h3.44v-2.8h0.55c0,0,3.44-4.28,3.44-9.06c-0.17,0-1.77,0-3.98,0V156H239.71z"/>
	<path class="st14" d="M236.93,140.64c0,2.02-1.64,3.66-3.66,3.66s-3.66-1.64-3.66-3.66s1.64-3.66,3.66-3.66
		S236.93,138.62,236.93,140.64z"/>
	<path class="st14" d="M236.93,151.47c0,2.02-1.64,3.66-3.66,3.66s-3.66-1.64-3.66-3.66c0-2.02,1.64-3.66,3.66-3.66
		S236.93,149.45,236.93,151.47z"/>
	<circle class="st14" cx="233.27" cy="162.3" r="3.66"/>
</g>
<rect x="193.81" y="218.91" class="st78" width="79.63" height="18.2"/>
<text transform="matrix(1 0 0 1 193.8134 230.8212)" class="st5 st208 st209">Traffic light</text>
<path class="st15" d="M150.01,305.68H60.42c-7.29,0-13.2-5.91-13.2-13.2v-94.32c0-7.29,5.91-13.2,13.2-13.2h89.59
	c7.29,0,13.2,5.91,13.2,13.2v94.32C163.21,299.77,157.3,305.68,150.01,305.68z"/>
<path class="st15" d="M279.76,378.63h-89.59c-7.29,0-13.2-5.91-13.2-13.2v-94.32c0-7.29,5.91-13.2,13.2-13.2h89.59
	c7.29,0,13.2,5.91,13.2,13.2v94.32C292.96,372.72,287.05,378.63,279.76,378.63z"/>
<g>
	<rect x="328.02" y="127.6" class="st78" width="79.63" height="18.2"/>
	<text transform="matrix(1 0 0 1 353.6084 139.513)" class="st5 st208 st209">Tree</text>
	<g>
		<g>
			<path class="st34" d="M347.39,62.49c0.51-0.39,1.1-0.68,1.76-0.86c1.68-0.44,3.45-0.35,5.05-1.11c1.17-0.56,2.17-1.54,3.34-2.09
				c2.25-1.07,4.79-0.46,7,0.5c3.02,1.3,5.86,3.27,7.78,6.15c1.92,2.88,2.82,6.78,1.86,10.34c-1.4,5.2-6.31,8.45-11.05,9.43
				c-5.15,1.06-10.71-0.06-14.53-3.81c-2.57-2.53-4.18-6.33-4.27-10.25C344.27,67.79,345.11,64.22,347.39,62.49z"/>
			<path class="st34" d="M395.28,80.88c0,6.05-5.12,10.96-11.44,10.96c-6.32,0-11.44-4.91-11.44-10.96s5.12-10.96,11.44-10.96
				C390.15,69.92,395.28,74.82,395.28,80.88z"/>
			<path class="st34" d="M383.7,85.46c-2.01,0.18-4,0.46-5.88,0.98c-1.74,0.48-3.51,1.03-5.15,1.79c2.63-2.73,5.46-5.16,8.61-7.26
				c1.79-1.19,3.58-2.33,5.04-3.93c1.07-1.17,2.14-2.33,3.22-3.49c-0.3-0.16-1.02-0.74-1.33-0.7c-0.31,0.04-0.91,0.86-1.13,1.07
				c-1.45,1.37-2.86,2.83-4.46,4.03c-0.62,0.46-4,3.07-4.48,2.17c-0.31-0.59,0.1-2.41,0.45-3.74c-0.22,0.03-0.43,0.07-0.67,0.07
				c-0.28,0-0.53-0.04-0.78-0.08c-0.34,1.84-0.66,4.79-1.44,5.9c-1.58,2.26-4.22,3.48-5.83,5.73c0.09-2.79,0.13-5.59,0.25-8.38
				c0.1-2.26,0.44-4.53,1.31-6.63c0.82-1.98,1.9-3.84,2.7-5.84c0.1-0.25,0.74-1.42,0.65-1.69c-0.04-0.12-0.83-0.57-0.95-0.55
				c-0.52,0.12-1.46,2.56-1.69,3.01c-1.85,3.62-3.4,7.54-3.6,11.65c-0.49-3.05-0.95-6.22-1.99-9.14c-0.67-1.88-1.3-3.77-1.89-5.68
				c-0.14-0.45-0.26-1.64-0.6-1.98c-0.26-0.26-0.79-0.15-1.22-0.15c0.86,4.52,2.33,8.89,3.04,13.44c0.38,2.43,0.94,4.93,0.95,7.4
				c0,1.85-0.17,3.71-0.33,5.55c-3.77-1.69-8.14-3.09-11.4-5.67c-1.72-1.36-2.86-3.05-3.82-5c-0.34-0.68-0.69-2.24-1.24-2.73
				c-0.31-0.27-0.76-0.1-1.25-0.03c0.66,2,1.36,4,2.24,5.92c0.55,1.2,1.16,2.15,2.24,2.94c1.13,0.83,6.85,4.34,8.81,5.16
				c1.92,0.8,3.68,2.59,4.14,4.79c0.68,3.25,0.15,7.04-0.03,10.31c-0.14,2.61-0.3,5.21-0.47,7.82c-0.16,2.42,0.13,5.6-0.96,7.8h7.22
				c-0.83-1.14-0.75-2.89-0.84-4.23c-0.13-1.89-0.26-3.79-0.38-5.68c-0.23-3.54-0.52-7.1-0.52-10.65c0-1.95,0.15-3.85,0.68-5.73
				c0.62-2.16,1.41-3.33,3.49-4.3c2.91-1.36,6.15-2.24,9.36-2.66C383.72,86.54,383.71,86,383.7,85.46z"/>
			<circle class="st34" cx="351.21" cy="81.86" r="8.33"/>
			<path class="st34" d="M378.85,67.95c1.33-1.2,3.07-1.94,4.86-1.96c3.16-0.03,5.79,2.19,7.02,4.98c1.3,2.93-0.15,6.5-2.67,8.32
				c-2.49,1.79-6.12,1.78-8.6-0.02c-2.48-1.8-3.61-5.26-2.67-8.17C377.17,69.89,377.9,68.81,378.85,67.95z"/>
			<path class="st34" d="M384.37,56.02c0,0,7.46-2.36,10.86,4.66c2.48,5.13-0.54,9.81-3.09,10.89c-4.19,1.78-6.72-0.54-6.72-0.54
				s-2.83,5.54-9.99,6.69c-12.64,2.03-17.02-6.52-17.02-6.52s-3.02,1.62-7.34,0.82c-5.71-1.06-8.68-5.56-8.13-10.59
				c0.64-5.78,5.73-9.1,10.06-8.36c0,0,0.18-4.06,5.31-5.66c1.25-0.39,4.15-0.6,5.58,0.04c0,0,3.18-5.89,11.36-4.36
				C386.46,45.17,384.37,56.02,384.37,56.02z"/>
		</g>
		<path class="st34" d="M375.15,120.48c-0.12-2.26-0.8-3.99-3.4-3.99h-6.84c-2.52,0-3.17,1.73-3.29,3.99H375.15z"/>
	</g>
</g>
<path class="st210" d="M1085,289.59h-89.59c-7.29,0-13.2-5.91-13.2-13.2v-94.32c0-7.29,5.91-13.2,13.2-13.2H1085
	c7.29,0,13.2,5.91,13.2,13.2v94.32C1098.2,283.68,1092.29,289.59,1085,289.59z"/>
<g>
	<rect x="1000.18" y="263.37" class="st78" width="79.63" height="18.2"/>
	<text transform="matrix(1 0 0 1 1025.7634 275.2773)" class="st27 st208 st209">Tree</text>
</g>
<g>
	<g>
		<path class="st27" d="M1019.54,198.25c0.51-0.39,1.1-0.68,1.76-0.86c1.68-0.44,3.45-0.35,5.05-1.11c1.17-0.56,2.17-1.54,3.34-2.09
			c2.25-1.07,4.79-0.46,7,0.5c3.02,1.3,5.86,3.27,7.78,6.15c1.92,2.88,2.82,6.78,1.86,10.34c-1.4,5.2-6.31,8.45-11.05,9.43
			c-5.15,1.06-10.71-0.06-14.53-3.81c-2.57-2.53-4.18-6.33-4.27-10.25C1016.42,203.56,1017.27,199.98,1019.54,198.25z"/>
		<path class="st27" d="M1067.43,216.64c0,6.05-5.12,10.96-11.44,10.96c-6.32,0-11.44-4.91-11.44-10.96
			c0-6.05,5.12-10.96,11.44-10.96C1062.31,205.68,1067.43,210.59,1067.43,216.64z"/>
		<path class="st27" d="M1055.85,221.22c-2.01,0.18-4,0.46-5.88,0.98c-1.74,0.48-3.51,1.03-5.15,1.79c2.63-2.73,5.46-5.16,8.61-7.26
			c1.79-1.19,3.58-2.33,5.04-3.93c1.07-1.17,2.14-2.33,3.22-3.49c-0.3-0.16-1.02-0.74-1.33-0.7c-0.31,0.04-0.91,0.86-1.13,1.07
			c-1.45,1.37-2.86,2.83-4.46,4.03c-0.62,0.46-4,3.07-4.48,2.17c-0.31-0.59,0.1-2.41,0.45-3.74c-0.22,0.03-0.43,0.07-0.67,0.07
			c-0.28,0-0.53-0.04-0.78-0.08c-0.34,1.84-0.66,4.79-1.44,5.9c-1.58,2.26-4.22,3.48-5.83,5.73c0.09-2.79,0.13-5.59,0.25-8.38
			c0.1-2.26,0.44-4.53,1.31-6.63c0.82-1.98,1.9-3.84,2.7-5.84c0.1-0.25,0.74-1.42,0.65-1.69c-0.04-0.12-0.83-0.57-0.95-0.55
			c-0.52,0.12-1.46,2.56-1.69,3.01c-1.85,3.62-3.4,7.54-3.6,11.65c-0.49-3.05-0.95-6.22-1.99-9.14c-0.67-1.88-1.3-3.77-1.89-5.68
			c-0.14-0.45-0.26-1.64-0.6-1.98c-0.26-0.26-0.79-0.15-1.22-0.15c0.86,4.52,2.33,8.89,3.04,13.44c0.38,2.43,0.94,4.93,0.95,7.4
			c0,1.85-0.17,3.71-0.33,5.55c-3.77-1.69-8.14-3.09-11.4-5.67c-1.72-1.36-2.86-3.05-3.82-5c-0.34-0.68-0.69-2.24-1.24-2.73
			c-0.31-0.27-0.76-0.1-1.25-0.03c0.66,2,1.36,4,2.24,5.92c0.55,1.2,1.16,2.15,2.24,2.94c1.13,0.83,6.85,4.34,8.81,5.16
			c1.92,0.8,3.68,2.59,4.14,4.79c0.68,3.25,0.15,7.04-0.03,10.31c-0.14,2.61-0.3,5.21-0.47,7.82c-0.16,2.42,0.13,5.6-0.96,7.8h7.22
			c-0.83-1.14-0.75-2.89-0.84-4.23c-0.13-1.89-0.26-3.79-0.38-5.68c-0.23-3.54-0.52-7.1-0.52-10.65c0-1.95,0.15-3.85,0.68-5.73
			c0.62-2.16,1.41-3.33,3.49-4.3c2.91-1.36,6.15-2.24,9.36-2.66C1055.87,222.3,1055.86,221.76,1055.85,221.22z"/>
		<circle class="st27" cx="1023.36" cy="217.62" r="8.33"/>
		<path class="st27" d="M1051,203.72c1.33-1.2,3.07-1.94,4.86-1.96c3.16-0.03,5.79,2.19,7.02,4.98c1.3,2.93-0.15,6.5-2.67,8.32
			c-2.49,1.79-6.12,1.78-8.6-0.02c-2.48-1.8-3.61-5.26-2.67-8.17C1049.33,205.65,1050.06,204.57,1051,203.72z"/>
		<path class="st27" d="M1056.52,191.79c0,0,7.46-2.36,10.86,4.66c2.48,5.13-0.54,9.81-3.09,10.89c-4.19,1.78-6.72-0.54-6.72-0.54
			s-2.83,5.54-9.99,6.69c-12.64,2.03-17.02-6.52-17.02-6.52s-3.02,1.62-7.34,0.82c-5.71-1.06-8.68-5.56-8.13-10.59
			c0.64-5.78,5.73-9.1,10.06-8.36c0,0,0.18-4.06,5.31-5.66c1.25-0.39,4.15-0.6,5.58,0.04c0,0,3.18-5.89,11.36-4.36
			C1058.61,180.93,1056.52,191.79,1056.52,191.79z"/>
	</g>
	<path class="st27" d="M1047.3,256.24c-0.12-2.26-0.8-3.99-3.4-3.99h-6.84c-2.52,0-3.17,1.73-3.29,3.99H1047.3z"/>
</g>
<path class="st15" d="M412.85,289.82h-89.59c-7.29,0-13.2-5.91-13.2-13.2V182.3c0-7.29,5.91-13.2,13.2-13.2h89.59
	c7.29,0,13.2,5.91,13.2,13.2v94.32C426.05,283.91,420.14,289.82,412.85,289.82z"/>
<rect x="328.02" y="263.6" class="st78" width="79.63" height="18.2"/>
<text transform="matrix(1 0 0 1 330.6328 275.5075)" class="st5 st208 st209">Street light</text>
<g>
	<path class="st34" d="M376.5,189.02v-4.58h-3.54c-0.12-1.54-0.64-2.7-2.44-2.7h-4.96c-1.75,0-2.25,1.16-2.36,2.7h-3.54v4.58H376.5z
		"/>
	<path class="st34" d="M372.98,243.09c-0.02-0.29-0.05-0.56-0.1-0.82l-0.03-0.28h-0.03c-0.26-1.07-0.88-1.79-2.31-1.79h-0.25v-39.56
		c1.67-0.8,2.9-2.5,3.15-4.56l0.49-4.04h-11.67l0.49,4.04c0.25,2.06,1.49,3.75,3.16,4.56v39.56h-0.33c-1.39,0-1.99,0.73-2.24,1.79
		h-0.03l-0.03,0.3c-0.04,0.25-0.07,0.52-0.09,0.8h0.01l-1.35,14.03h12.48l-1.35-14.03H372.98z"/>
</g>
<path class="st211" d="M952.89,219.62H863.3c-7.29,0-13.2-5.91-13.2-13.2V112.1c0-7.29,5.91-13.2,13.2-13.2h89.59
	c7.29,0,13.2,5.91,13.2,13.2v94.32C966.09,213.71,960.18,219.62,952.89,219.62z"/>
<rect x="868.06" y="193.39" class="st78" width="79.63" height="18.2"/>
<text transform="matrix(1 0 0 1 870.6752 205.3012)" class="st31 st208 st209">Street light</text>
<g>
	<path class="st31" d="M916.54,118.82v-4.58H913c-0.12-1.54-0.64-2.7-2.44-2.7h-4.96c-1.75,0-2.25,1.16-2.36,2.7h-3.54v4.58H916.54z
		"/>
	<path class="st31" d="M913.02,172.89c-0.02-0.29-0.05-0.56-0.1-0.82l-0.03-0.28h-0.03c-0.26-1.07-0.88-1.79-2.31-1.79h-0.25v-39.56
		c1.67-0.8,2.9-2.5,3.15-4.56l0.49-4.04h-11.67l0.49,4.04c0.25,2.06,1.49,3.75,3.16,4.56v39.56h-0.33c-1.39,0-1.99,0.73-2.24,1.79
		h-0.03l-0.03,0.3c-0.04,0.25-0.07,0.52-0.09,0.8h0.01l-1.35,14.03h12.48l-1.35-14.03H913.02z"/>
</g>
<path class="st15" d="M412.85,424.37h-89.59c-7.29,0-13.2-5.91-13.2-13.2v-94.32c0-7.29,5.91-13.2,13.2-13.2h89.59
	c7.29,0,13.2,5.91,13.2,13.2v94.32C426.05,418.46,420.14,424.37,412.85,424.37z"/>
<rect x="195.67" y="354.48" class="st78" width="79.63" height="18.2"/>
<text transform="matrix(1 0 0 1 207.2902 366.3919)" class="st5 st208 st209">Bus stop</text>
<g>
	<rect x="223.55" y="277.77" class="st14" width="21.09" height="26.17"/>
	<g>
		<g>
			<path class="st34" d="M240.07,283.85h-11.19c-0.31,0-0.56,0.25-0.56,0.56v5.04h12.31v-5.04
				C240.63,284.11,240.38,283.85,240.07,283.85z"/>
			<path class="st34" d="M228.32,292.81h12.31v3.36h-12.31V292.81z"/>
			<path class="st34" d="M236.16,338.44v-28.85h8.39c3.39,0,6.15-2.76,6.15-6.15v-23.5c0-3.39-2.76-6.15-6.15-6.15h-20.14
				c-3.39,0-6.15,2.76-6.15,6.15v23.5c0,3.39,2.76,6.15,6.15,6.15h8.39v28.85 M243.99,297.84c0,0.93-0.75,1.68-1.68,1.68h-0.56v1.68
				c0,0.93-0.75,1.68-1.68,1.68s-1.68-0.75-1.68-1.68v-1.68h-7.83v1.68c0,0.93-0.75,1.68-1.68,1.68c-0.93,0-1.68-0.75-1.68-1.68
				v-1.68h-0.56c-0.93,0-1.68-0.75-1.68-1.68v-13.43c0-2.16,1.76-3.92,3.92-3.92h11.19c2.16,0,3.92,1.76,3.92,3.92V297.84z"/>
		</g>
		<rect x="232.08" y="307.63" class="st34" width="4.9" height="33.32"/>
		<path class="st34" d="M241.79,344.87c-0.13-2.49-0.88-4.4-3.74-4.4h-7.54c-2.78,0-3.49,1.91-3.62,4.4H241.79z"/>
	</g>
</g>
<path class="st210" d="M952.95,359.39h-89.59c-7.29,0-13.2-5.91-13.2-13.2v-94.32c0-7.29,5.91-13.2,13.2-13.2h89.59
	c7.29,0,13.2,5.91,13.2,13.2v94.32C966.16,353.48,960.25,359.39,952.95,359.39z"/>
<rect x="868.87" y="335.25" class="st78" width="79.63" height="18.2"/>
<text transform="matrix(1 0 0 1 880.4855 347.158)" class="st27 st208 st209">Bus stop</text>
<g>
	<rect x="896.74" y="258.53" class="st14" width="21.09" height="26.17"/>
	<g>
		<g>
			<path class="st27" d="M913.27,264.62h-11.19c-0.31,0-0.56,0.25-0.56,0.56v5.04h12.31v-5.04
				C913.83,264.87,913.58,264.62,913.27,264.62z"/>
			<path class="st27" d="M901.52,273.57h12.31v3.36h-12.31V273.57z"/>
			<path class="st27" d="M909.35,319.2v-28.85h8.39c3.39,0,6.15-2.76,6.15-6.15v-23.5c0-3.39-2.76-6.15-6.15-6.15H897.6
				c-3.39,0-6.15,2.76-6.15,6.15v23.5c0,3.39,2.76,6.15,6.15,6.15H906v28.85 M917.19,278.61c0,0.93-0.75,1.68-1.68,1.68h-0.56v1.68
				c0,0.93-0.75,1.68-1.68,1.68s-1.68-0.75-1.68-1.68v-1.68h-7.83v1.68c0,0.93-0.75,1.68-1.68,1.68s-1.68-0.75-1.68-1.68v-1.68
				h-0.56c-0.93,0-1.68-0.75-1.68-1.68v-13.43c0-2.16,1.76-3.92,3.92-3.92h11.19c2.16,0,3.92,1.76,3.92,3.92V278.61z"/>
		</g>
		<rect x="905.28" y="288.4" class="st27" width="4.9" height="33.32"/>
		<path class="st27" d="M914.98,325.63c-0.13-2.49-0.88-4.4-3.74-4.4h-7.54c-2.78,0-3.49,1.91-3.62,4.4H914.98z"/>
	</g>
</g>
<g>
	<rect x="328.02" y="398.14" class="st78" width="79.63" height="18.2"/>
	<text transform="matrix(1 0 0 1 340.8574 410.0568)" class="st5 st208 st209">Building</text>
	<g>
		<g>
			<path class="st34" d="M363.43,376.06h10.9v10.83h-10.9V376.06z"/>
			<path class="st34" d="M362.45,376.06h3.96v10.83h-3.96V376.06z"/>
			<path class="st34" d="M381.73,319.29h-26.67c-1.09,0-1.98,0.89-1.98,1.98v65.63h5.41v-12.81c0-1.09,0.89-1.98,1.98-1.98h7.92
				h7.92c1.09,0,1.98,0.89,1.98,1.98v12.81h5.41v-65.63C383.71,320.17,382.82,319.29,381.73,319.29z M362.45,354.28
				c0,1.09-0.89,1.98-1.98,1.98c-1.09,0-1.98-0.89-1.98-1.98v-3.96c0-1.09,0.89-1.98,1.98-1.98c1.09,0,1.98,0.89,1.98,1.98V354.28z
				 M370.37,354.28c0,1.09-0.89,1.98-1.98,1.98c-1.09,0-1.98-0.89-1.98-1.98v-3.96c0-1.09,0.89-1.98,1.98-1.98
				c1.09,0,1.98,0.89,1.98,1.98V354.28z M378.3,354.28c0,1.09-0.89,1.98-1.98,1.98c-1.09,0-1.98-0.89-1.98-1.98v-3.96
				c0-1.09,0.89-1.98,1.98-1.98c1.09,0,1.98,0.89,1.98,1.98V354.28z M362.45,342.39c0,1.09-0.89,1.98-1.98,1.98
				c-1.09,0-1.98-0.89-1.98-1.98v-3.96c0-1.09,0.89-1.98,1.98-1.98c1.09,0,1.98,0.89,1.98,1.98V342.39z M370.37,342.39
				c0,1.09-0.89,1.98-1.98,1.98c-1.09,0-1.98-0.89-1.98-1.98v-3.96c0-1.09,0.89-1.98,1.98-1.98c1.09,0,1.98,0.89,1.98,1.98V342.39z
				 M378.3,342.39c0,1.09-0.89,1.98-1.98,1.98c-1.09,0-1.98-0.89-1.98-1.98v-3.96c0-1.09,0.89-1.98,1.98-1.98
				c1.09,0,1.98,0.89,1.98,1.98V342.39z M362.45,330.51c0,1.09-0.89,1.98-1.98,1.98c-1.09,0-1.98-0.89-1.98-1.98v-3.96
				c0-1.09,0.89-1.98,1.98-1.98c1.09,0,1.98,0.89,1.98,1.98V330.51z M370.37,330.51c0,1.09-0.89,1.98-1.98,1.98
				c-1.09,0-1.98-0.89-1.98-1.98v-3.96c0-1.09,0.89-1.98,1.98-1.98c1.09,0,1.98,0.89,1.98,1.98V330.51z M378.3,330.51
				c0,1.09-0.89,1.98-1.98,1.98c-1.09,0-1.98-0.89-1.98-1.98v-3.96c0-1.09,0.89-1.98,1.98-1.98c1.09,0,1.98,0.89,1.98,1.98V330.51z"
				/>
		</g>
		<path class="st34" d="M400.21,345.69h-12.54v41.2h12.54c1.09,0,1.98-0.89,1.98-1.98v-37.24
			C402.2,346.58,401.31,345.69,400.21,345.69z M396.91,369.56c0,1.09-0.89,1.98-1.98,1.98c-1.09,0-1.98-0.89-1.98-1.98V355.6
			c0-1.09,0.89-1.98,1.98-1.98c1.09,0,1.98,0.89,1.98,1.98V369.56z"/>
		<path class="st34" d="M336.57,345.69c-1.09,0-1.98,0.89-1.98,1.98v37.24c0,1.09,0.89,1.98,1.98,1.98h12.54v-41.2H336.57z
			 M343.83,369.61c0,1.09-0.89,1.98-1.98,1.98c-1.09,0-1.98-0.89-1.98-1.98V355.6c0-1.09,0.89-1.98,1.98-1.98
			c1.09,0,1.98,0.89,1.98,1.98V369.61z"/>
	</g>
</g>
<rect x="65.92" y="281.53" class="st78" width="79.63" height="18.2"/>
<text transform="matrix(1 0 0 1 85.5361 293.4416)" class="st5 st208 st209">Bench</text>
<path class="st206" d="M132.83,266.06c0.34,0,0.61-0.27,0.61-0.61V252.1h1.98c0.34,0,0.61-0.27,0.61-0.61v-5.18
	c0-0.34-0.27-0.61-0.61-0.61h-7.15v-6.54h4.56c0.34,0,0.61-0.27,0.61-0.61v-5.18c0-0.34-0.27-0.61-0.61-0.61h-4.56v-3.95h4.56
	c0.34,0,0.61-0.27,0.61-0.61v-5.18c0-0.34-0.27-0.61-0.61-0.61h-4.56v-1.98c0-0.32-1.1-0.92-3.2-0.92c-2.1,0-3.2,0.6-3.2,0.92v1.98
	H89.46v-1.98c0-0.32-1.1-0.92-3.2-0.92c-2.1,0-3.2,0.6-3.2,0.92v1.98h-4.56c-0.34,0-0.61,0.27-0.61,0.61v5.18
	c0,0.34,0.27,0.61,0.61,0.61h4.56v3.95h-4.56c-0.34,0-0.61,0.27-0.61,0.61v5.18c0,0.34,0.27,0.61,0.61,0.61h4.56v6.54H75.9
	c-0.16,0-0.32,0.06-0.43,0.18c-0.12,0.12-0.18,0.27-0.18,0.43v5.18c0,0.34,0.27,0.61,0.61,0.61h1.98v13.34
	c0,0.34,0.27,0.61,0.61,0.61h5.18c0.34,0,0.61-0.27,0.61-0.61V252.1h42.77v13.34c0,0.34,0.27,0.61,0.61,0.61H132.83z M121.87,245.7
	H89.46v-6.54h32.41V245.7z M121.87,232.76H89.46v-3.95h32.41V232.76z"/>
<g>
	<path class="st194" d="M598.85,310.3h82.9v20.72h-82.9V310.3z"/>
	<path class="st195" d="M705.27,341.39c-0.27-0.42-0.64-0.76-1.07-1l-22.45-12.81h-82.9l-22.45,12.81c-0.43,0.24-0.8,0.58-1.07,1
		c-0.42,0.58-0.65,1.28-0.66,2v8.36c0,1.91,1.55,3.45,3.45,3.45h124.35c1.91,0,3.45-1.55,3.45-3.45v-8.36
		C705.92,342.67,705.69,341.97,705.27,341.39z"/>
	<path class="st194" d="M705.92,343.39v8.36c0,1.91-1.55,3.45-3.45,3.45H578.12c-1.91,0-3.45-1.55-3.45-3.45v-8.36
		c0-0.72,0.23-1.42,0.66-2h129.94C705.69,341.97,705.92,342.67,705.92,343.39L705.92,343.39z"/>
	<path class="st195" d="M740.47,286.12v17.27c0,5.72-4.64,10.36-10.36,10.36H550.49c-5.72,0-10.36-4.64-10.36-10.36v-17.27
		l6.91-6.91h189.97L740.47,286.12z"/>
	<path class="st122" d="M740.47,165.23v120.89H540.13V165.23c0-5.72,4.64-10.36,10.36-10.36H730.1
		C735.83,154.87,740.47,159.51,740.47,165.23z"/>
	<path class="st87" d="M646.95,244.33h-3.45c-1.91,0-3.45-1.55-3.45-3.45s1.55-3.45,3.45-3.45h3.45c1.91,0,3.45,1.55,3.45,3.45
		S648.86,244.33,646.95,244.33z"/>
	<path class="st96" d="M684.95,244.33h-24.18c-1.91,0-3.45-1.55-3.45-3.45s1.55-3.45,3.45-3.45h24.18c1.91,0,3.45,1.55,3.45,3.45
		S686.86,244.33,684.95,244.33z"/>
	<path class="st32" d="M663.65,272.31h-37.99c-1.91,0-3.45-1.55-3.45-3.45s1.55-3.45,3.45-3.45h37.99c1.91,0,3.45,1.55,3.45,3.45
		S665.56,272.31,663.65,272.31z"/>
	<path class="st87" d="M661.07,258.3h-72.54c-1.91,0-3.45-1.55-3.45-3.45s1.55-3.45,3.45-3.45h72.54c1.91,0,3.45,1.55,3.45,3.45
		S662.98,258.3,661.07,258.3z"/>
	<path class="st32" d="M574.72,258.3h-6.91c-1.91,0-3.45-1.55-3.45-3.45s1.55-3.45,3.45-3.45h6.91c1.91,0,3.45,1.55,3.45,3.45
		S576.63,258.3,574.72,258.3z"/>
	<path class="st96" d="M581.63,272.12h-13.82c-1.91,0-3.45-1.55-3.45-3.45c0-1.91,1.55-3.45,3.45-3.45h13.82
		c1.91,0,3.45,1.55,3.45,3.45C585.08,270.57,583.54,272.12,581.63,272.12z"/>
	<path class="st87" d="M691.93,272.12h-13.82c-1.91,0-3.45-1.55-3.45-3.45c0-1.91,1.55-3.45,3.45-3.45h13.82
		c1.91,0,3.45,1.55,3.45,3.45C695.38,270.57,693.83,272.12,691.93,272.12z"/>
	<path class="st32" d="M712.51,244.34h-13.82c-1.91,0-3.45-1.55-3.45-3.45c0-1.91,1.55-3.45,3.45-3.45h13.82
		c1.91,0,3.45,1.55,3.45,3.45C715.96,242.79,714.41,244.34,712.51,244.34z"/>
	<path class="st87" d="M581.63,244.49h-13.82c-1.91,0-3.45-1.55-3.45-3.45c0-1.91,1.55-3.45,3.45-3.45h13.82
		c1.91,0,3.45,1.55,3.45,3.45C585.08,242.94,583.54,244.49,581.63,244.49z"/>
	<path class="st96" d="M629.99,244.49h-34.54c-1.91,0-3.45-1.55-3.45-3.45c0-1.91,1.55-3.45,3.45-3.45h34.54
		c1.91,0,3.45,1.55,3.45,3.45C633.44,242.94,631.9,244.49,629.99,244.49z"/>
	<path class="st96" d="M708.53,258.55h-34.54c-1.91,0-3.45-1.55-3.45-3.45s1.55-3.45,3.45-3.45h34.54c1.91,0,3.45,1.55,3.45,3.45
		S710.44,258.55,708.53,258.55z"/>
	<path class="st87" d="M611.86,272.12h-13.82c-1.91,0-3.45-1.55-3.45-3.45c0-1.91,1.55-3.45,3.45-3.45h13.82
		c1.91,0,3.45,1.55,3.45,3.45C615.31,270.57,613.76,272.12,611.86,272.12z"/>
	<circle class="st196" cx="640.69" cy="299" r="6.53"/>
	<g>
		<path class="st197" d="M550.58,170.22c-1.58-0.6-2.71-2.13-2.71-3.92c0-0.99,0.35-1.9,0.92-2.61l-1.63-0.3
			c-0.51,0.86-0.81,1.85-0.81,2.92c0,2.54,1.67,4.7,3.97,5.44L550.58,170.22z"/>
		<path class="st198" d="M549.09,163.34c0.76-0.76,1.81-1.24,2.97-1.24c0.3,0,0.6,0.03,0.88,0.1l0.47-1.44
			c-0.44-0.11-0.89-0.17-1.36-0.17c-1.93,0-3.64,0.97-4.68,2.44L549.09,163.34z"/>
		<path class="st199" d="M551.99,170.5c-0.36-0.01-0.7-0.06-1.03-0.15l-0.26,1.5c0.44,0.11,0.89,0.17,1.37,0.17
			c0.3,0,0.59-0.03,0.87-0.07L551.99,170.5z"/>
		<path class="st200" d="M553.81,160.86l-0.47,1.44c1.7,0.54,2.93,2.13,2.93,4c0,2.18-1.68,3.98-3.81,4.18l0.91,1.38
			c2.53-0.59,4.42-2.86,4.42-5.56C557.78,163.76,556.11,161.6,553.81,160.86z"/>
	</g>
	<rect x="561.25" y="181.54" class="st78" width="160.39" height="47.87"/>
	<text transform="matrix(1 0 0 1 561.2549 196.4486)"><tspan x="0" y="0" class="st212 st208 st213">10010101011010</tspan><tspan x="0" y="25.2" class="st212 st208 st213">11101001101011</tspan></text>
</g>
<g>
	<g>
		<line class="st214" x1="434.37" y1="97.65" x2="435.79" y2="99.7"/>
		<line class="st215" x1="440.24" y1="106.15" x2="517.52" y2="218.12"/>
		<polyline class="st214" points="519.74,221.34 521.16,223.39 519.81,225.5 		"/>
		<line class="st216" x1="515.39" y1="232.42" x2="445.68" y2="341.36"/>
		<line class="st214" x1="443.47" y1="344.82" x2="442.12" y2="346.92"/>
	</g>
</g>
<polyline class="st217" points="295.3,166.05 521.16,223.39 434.93,222.28 "/>
<polyline class="st217" points="166.39,241.13 521.16,223.39 299.05,300.99 "/>
<rect x="462.38" y="197.81" class="st14" width="73.33" height="52.88"/>
<g>
	<g>
		<g>
			<path class="st34" d="M505.82,204.34v6.77h-31.6c-2.34,0-4.26,1.91-4.26,4.26v17.02c0,2.34,1.91,4.26,4.26,4.26h31.6v6.77
				c0,3.79,4.6,5.7,7.28,3.02l19.53-19.53c1.66-1.66,1.66-4.34,0-6l-19.53-19.53C510.42,198.68,505.82,200.55,505.82,204.34z"/>
		</g>
	</g>
	<rect x="478.69" y="215.81" class="st78" width="43.92" height="19.51"/>
	<text transform="matrix(1 0 0 1 478.6889 228.4824)" class="st14 st208 st218">Input</text>
</g>
<g>
	<g>
		<g>
			<path class="st96" d="M803.31,208.05v6.77l-42.72,0c-2.34,0-4.26,1.91-4.26,4.26v17.02c0,2.34,1.91,4.26,4.26,4.26l42.72,0v6.77
				c0,3.79,4.6,5.7,7.28,3.02l19.53-19.53c1.66-1.66,1.66-4.34,0-6l-19.53-19.53C807.91,202.39,803.31,204.26,803.31,208.05z"/>
		</g>
	</g>
	<rect x="764.28" y="219.52" class="st78" width="56.24" height="19.51"/>
	<text transform="matrix(1 0 0 1 764.2837 232.1907)" class="st14 st208 st218">Output</text>
</g>
</svg>
