<?xml version="1.0" encoding="utf-8"?>
<!-- Generator: Adobe Illustrator 27.2.0, SVG Export Plug-In . SVG Version: 6.00 Build 0)  -->
<svg version="1.1" id="Ebene_1" xmlns="http://www.w3.org/2000/svg" xmlns:xlink="http://www.w3.org/1999/xlink" x="0px" y="0px"
	 viewBox="0 0 1000.8 415.36" style="enable-background:new 0 0 1000.8 415.36;" xml:space="preserve">
<style type="text/css">
	.st0{opacity:0.4;fill:#60748C;}
	.st1{opacity:0.75;fill:#60748C;}
	.st2{fill:#ECECEC;}
	.st3{opacity:0.1;}
	.st4{opacity:0.3;fill:#5B7188;}
	.st5{fill:#60748C;}
	.st6{opacity:0.3;fill:none;stroke:#5B7188;stroke-width:13;stroke-miterlimit:10;}
	.st7{opacity:0.7;fill:#60748C;}
	.st8{fill:#A4C748;}
	.st9{fill:none;stroke:#FFFFFF;stroke-width:5;stroke-miterlimit:10;}
	.st10{fill:#A3C648;}
	.st11{opacity:0.25;fill:#60748C;}
	.st12{opacity:0.34;fill:#60748C;}
	.st13{stroke:#FFFFFF;stroke-width:0.5;stroke-miterlimit:10;}
	.st14{fill:#FFFFFF;}
	.st15{fill:#EDEDED;}
	.st16{opacity:0.1;fill:#546579;stroke:#60748C;stroke-width:1.0251;stroke-miterlimit:10;}
	.st17{opacity:0.1;fill:#546579;stroke:#282F39;stroke-width:1.0251;stroke-miterlimit:10;}
	.st18{opacity:0.1;fill:#546579;stroke:#546579;stroke-width:1.0251;stroke-miterlimit:10;}
	.st19{fill:#60748C;stroke:#60748C;stroke-width:0.9491;stroke-miterlimit:10;}
	.st20{fill:#282F39;}
	.st21{fill:#45AD4B;stroke:#45AD4B;stroke-width:0.8985;stroke-miterlimit:10;}
	.st22{fill:#6DC5D8;stroke:#6DC5D8;stroke-width:0.9491;stroke-miterlimit:10;}
	.st23{fill:#282F39;stroke:#FFFFFF;stroke-width:1.0437;stroke-miterlimit:10;}
	.st24{fill:#45AD4B;stroke:#45AD4B;stroke-width:0.9491;stroke-miterlimit:10;}
	.st25{fill:#45AD4B;stroke:#45AD4B;stroke-width:0.9119;stroke-miterlimit:10;}
	.st26{fill:#C1252D;stroke:#C1252D;stroke-width:0.9491;stroke-miterlimit:10;}
	.st27{fill:#C1252D;}
	.st28{fill:#C1252D;stroke:#C1252D;stroke-width:1.0339;stroke-miterlimit:10;}
	.st29{fill:#C1252D;stroke:#C1252D;stroke-width:0.8834;stroke-miterlimit:10;}
	.st30{fill:none;stroke:#282F39;stroke-width:2;stroke-linecap:round;stroke-linejoin:round;stroke-miterlimit:10;}
	.st31{fill:#45AD4B;}
	.st32{fill:#45AB4B;}
	.st33{fill:#6DC5D8;}
	.st34{fill:#5B7188;}
	.st35{fill:#97A2AF;}
	.st36{fill:#BABBBC;}
	.st37{fill:#5B7185;}
	.st38{fill:#A0C348;}
	.st39{fill:#45A84B;}
	.st40{fill:#BC252D;}
	.st41{fill:#6DC0D3;}
	.st42{fill:none;stroke:#C7D3D7;stroke-miterlimit:10;}
	.st43{opacity:0.1;fill:#757577;}
	.st44{fill:none;stroke:#FFFFFF;stroke-miterlimit:10;}
	.st45{opacity:0.6;}
	.st46{fill:#F1F3F4;}
	.st47{fill:none;stroke:#F1F3F4;stroke-miterlimit:10;}
	.st48{fill:#E8EAED;}
	.st49{fill:#F1F1F1;}
	.st50{fill:#646768;}
	.st51{opacity:0.25;fill:#757577;}
	.st52{fill:none;stroke:#6DC5D8;stroke-width:3;stroke-miterlimit:10;}
	.st53{fill:none;stroke:#C1252D;stroke-width:3;stroke-miterlimit:10;}
	.st54{fill:none;stroke:#45AD4B;stroke-width:3;stroke-miterlimit:10;}
	.st55{fill:#E7E7E7;}
	.st56{clip-path:url(#SVGID_00000051382185526355310350000005766997197292750726_);}
	.st57{clip-path:url(#SVGID_00000051382185526355310350000005766997197292750726_);fill:#F1F1F1;}
	.st58{clip-path:url(#SVGID_00000022534152348756444100000018329075644204327556_);}
	.st59{fill:#FEF9E8;}
	.st60{fill:#CEEAD6;}
	.st61{fill:#FCE8E6;}
	.st62{fill:none;stroke:#9CC0F9;stroke-width:3;stroke-miterlimit:10;}
	.st63{fill:none;stroke:#9CC0F9;stroke-miterlimit:10;}
	.st64{opacity:0.5;fill:#757577;}
	.st65{clip-path:url(#SVGID_00000051382185526355310350000005766997197292750726_);fill:#FFFFFF;}
	.st66{fill:none;stroke:#C1252D;stroke-width:9;stroke-miterlimit:10;}
	.st67{fill:none;stroke:#E7E7E7;stroke-width:9;stroke-miterlimit:10;}
	.st68{fill:none;stroke:#FFFFFF;stroke-width:3;stroke-miterlimit:10;}
	.st69{fill:none;stroke:#45AD4B;stroke-width:9;stroke-miterlimit:10;}
	.st70{fill:none;stroke:#6DC5D8;stroke-width:1.5;stroke-miterlimit:10;}
	.st71{opacity:0.25;clip-path:url(#SVGID_00000051382185526355310350000005766997197292750726_);fill:#757577;}
	.st72{fill:#292929;}
	.st73{fill-rule:evenodd;clip-rule:evenodd;}
	.st74{fill:#FF7578;}
	.st75{fill:#FFC9CA;}
	.st76{fill:#173042;}
	.st77{fill:#946B6B;}
	.st78{fill:none;}
	.st79{fill:#FFFFFF;stroke:#FFFFFF;stroke-width:7;stroke-miterlimit:10;}
	.st80{fill:#444444;}
	.st81{fill:#F73103;}
	.st82{fill:#FFBB39;}
	.st83{fill:#398229;}
	.st84{fill:#DE0505;}
	.st85{fill:#FF804E;}
	.st86{fill:#7ED668;}
	.st87{fill:#BF252D;}
	.st88{fill:#D4894D;}
	.st89{fill:#AD5512;}
	.st90{fill:#FF00FF;}
	.st91{fill:#FF3D75;}
	.st92{fill:#F28E1E;}
	.st93{fill:#2B6E53;}
	.st94{fill:#399150;}
	.st95{fill:#6A4A1D;}
	.st96{fill:#6DC3D6;}
	.st97{clip-path:url(#SVGID_00000061459669194737862700000007052988091124617627_);}
	.st98{clip-path:url(#SVGID_00000044886148949453071380000004667612553468638120_);}
	.st99{fill:#333333;}
	.st100{fill:url(#SVGID_00000062876009236660086790000011999799524640535680_);}
	.st101{fill:url(#SVGID_00000144321238508013948690000006252574510469962624_);}
	.st102{opacity:0.08;}
	.st103{fill:url(#SVGID_00000088116933356854528360000011171046658271721604_);}
	.st104{fill-rule:evenodd;clip-rule:evenodd;fill:#1A1A1A;}
	.st105{fill:#1A1A1A;}
	.st106{fill-rule:evenodd;clip-rule:evenodd;fill:#60748C;}
	.st107{fill:#FCEED7;}
	.st108{fill:#FBD18B;}
	.st109{fill:#DEE1E5;}
	.st110{fill:#ED8D80;}
	.st111{fill:#E97361;}
	.st112{fill:#AE5649;}
	.st113{fill:#CACED5;}
	.st114{fill:#A8B0BB;}
	.st115{fill:#CACFD7;}
	.st116{fill:#EABF9A;}
	.st117{fill:#E4E7EB;}
	.st118{fill:#69D4F2;}
	.st119{fill:#B2DB7F;}
	.st120{fill:#9ED268;}
	.st121{fill:#F8F8F8;}
	.st122{fill:#F0F0F0;}
	.st123{fill:#738DBD;}
	.st124{fill:#E46D67;}
	.st125{fill:#24C1F0;}
	.st126{fill:#36B183;}
	.st127{fill:#FFB866;}
	.st128{fill:#FFD873;}
	.st129{fill-rule:evenodd;clip-rule:evenodd;fill:#485156;}
	.st130{fill:#58595B;}
	.st131{fill:#BF252D;stroke:#BF252D;stroke-width:2;stroke-miterlimit:10;}
	.st132{fill:#FFFFFF;stroke:#BF252D;stroke-width:4;stroke-linecap:round;stroke-linejoin:round;stroke-miterlimit:10;}
	.st133{fill-rule:evenodd;clip-rule:evenodd;fill:#BF252D;}
	.st134{fill:none;stroke:#FFFFFF;stroke-miterlimit:10;stroke-dasharray:1.0108,1.0108;}
	.st135{fill:none;stroke:#45AD4B;stroke-width:4;stroke-miterlimit:10;}
	.st136{fill:none;stroke:#C1252D;stroke-width:4;stroke-miterlimit:10;}
	.st137{opacity:0.2;fill:#45AD4B;}
	.st138{opacity:0.6;fill:#45AD4B;}
	.st139{fill:#44A049;}
	.st140{clip-path:url(#SVGID_00000127040224417468512940000006314688582755449236_);}
	.st141{opacity:0.5;fill:#45AD4B;}
	.st142{opacity:0.2;fill:#E7E7E7;}
	.st143{opacity:0.5;fill:#E7E7E7;}
	.st144{opacity:0.5;fill:#FFFFFF;}
	.st145{opacity:0.2;fill:#6DC5D8;}
	.st146{fill:none;stroke:#FFFFFF;stroke-width:2.5;stroke-miterlimit:10;}
	.st147{fill:none;stroke:#BF252D;stroke-width:5;stroke-miterlimit:10;}
	.st148{fill:#BF252D;stroke:#FFFFFF;stroke-width:3;stroke-miterlimit:10;}
	.st149{fill:#FFFFFF;stroke:#FFFFFF;stroke-width:5.5;stroke-miterlimit:10;}
	.st150{fill:none;stroke:#BF252D;stroke-width:3;stroke-miterlimit:10;}
	.st151{fill:#BF252D;stroke:#FFFFFF;stroke-width:4.5;stroke-miterlimit:10;}
	.st152{fill:#BF252D;stroke:#FFFFFF;stroke-miterlimit:10;}
	.st153{fill:#F7E921;}
	.st154{fill:#6E81B5;}
	.st155{fill:#466087;}
	.st156{fill:#FFAEA8;}
	.st157{fill:#FFE152;}
	.st158{fill:#96C869;}
	.st159{fill:#ADB3BD;}
	.st160{fill:#CACED8;}
	.st161{fill:#40CAEF;}
	.st162{fill:#276F80;}
	.st163{fill:#878F9E;}
	.st164{fill:#EEF0F3;}
	.st165{fill:#1E505B;}
	.st166{fill:#9C80EA;}
	.st167{fill:#FAC955;}
	.st168{clip-path:url(#SVGID_00000064344347574032278130000013517753009951452308_);}
	.st169{fill:#E5EAEB;}
	.st170{fill:#ADB4B9;}
	.st171{fill:#495D72;}
	.st172{fill:#28384C;}
	.st173{fill:#E9B816;}
	.st174{fill:#DB352E;}
	.st175{fill:#366DB4;}
	.st176{fill:#753489;}
	.st177{fill:#57A9BF;}
	.st178{fill:#25AC86;}
	.st179{fill:#F56363;}
	.st180{fill:#BD5A45;}
	.st181{fill:#F0EABD;}
	.st182{fill:#EB8819;}
	.st183{fill:#C3411E;}
	.st184{fill:#205B75;}
	.st185{fill:#C8D9E8;}
	.st186{fill:#A9B9CA;}
	.st187{fill:#114559;}
	.st188{fill:#DFE8F2;}
	.st189{fill:#E3B933;}
	.st190{fill:#E96374;}
	.st191{fill:#80EAFF;}
	.st192{fill:#FFFFFF;stroke:#C1252D;stroke-width:7;stroke-miterlimit:10;}
	.st193{fill:#FFFFFF;stroke:#45AD4B;stroke-width:7;stroke-miterlimit:10;}
	.st194{fill:#B4BCBD;}
	.st195{fill:#CED7DA;}
	.st196{fill:none;stroke:#45AD4B;stroke-width:2;stroke-miterlimit:10;}
	.st197{fill:#6DC3D6;stroke:#FFFFFF;stroke-width:0.1;stroke-miterlimit:10;}
	.st198{fill:#C1252D;stroke:#FFFFFF;stroke-width:0.1;stroke-miterlimit:10;}
	.st199{fill:#A3C648;stroke:#FFFFFF;stroke-width:0.1;stroke-miterlimit:10;}
	.st200{fill:#45AB4B;stroke:#FFFFFF;stroke-width:0.1;stroke-miterlimit:10;}
	.st201{fill:none;stroke:#60748C;stroke-linecap:round;stroke-linejoin:round;stroke-miterlimit:10;stroke-dasharray:2,4;}
	.st202{fill:#F0F0F0;stroke:#C1252D;stroke-width:7;stroke-miterlimit:10;}
	.st203{fill:#F0F0F0;stroke:#45AD4B;stroke-width:7;stroke-miterlimit:10;}
	.st204{font-family:'Yummo-Bold';}
	.st205{font-size:16.7771px;}
	.st206{fill:#566469;stroke:#566469;stroke-width:0.5;stroke-miterlimit:10;}
	.st207{font-size:17px;}
	.st208{opacity:0.3;}
	.st209{font-size:13px;}
	.st210{fill:#EDEDED;stroke:#C1252D;stroke-width:6;stroke-miterlimit:10;}
	.st211{fill:#5B7188;stroke:#EDEDED;stroke-miterlimit:10;}
	.st212{fill:#EDEDED;stroke:#45AD4B;stroke-width:6;stroke-miterlimit:10;}
	.st213{fill:#FFFFFF;stroke:#C1252D;stroke-width:6;stroke-miterlimit:10;}
	.st214{fill:#FFFFFF;stroke:#45AD4B;stroke-width:6;stroke-miterlimit:10;}
	.st215{fill:none;stroke:#6DC5D8;stroke-linecap:round;stroke-linejoin:round;}
	.st216{fill:none;stroke:#6DC5D8;stroke-linecap:round;stroke-linejoin:round;stroke-dasharray:4.8937,7.8299;}
	.st217{fill:none;stroke:#6DC5D8;stroke-linecap:round;stroke-linejoin:round;stroke-dasharray:5.1322,8.2115;}
	.st218{fill:none;stroke:#6DC5D8;stroke-linecap:round;stroke-linejoin:round;stroke-miterlimit:10;stroke-dasharray:5,8;}
	.st219{fill:#45AC4B;}
	.st220{fill:#C0252D;}
	.st221{fill:#6DC4D7;}
	.st222{fill:#5B7189;}
	.st223{fill:none;stroke:#60748C;stroke-width:1.5;stroke-miterlimit:10;}
	.st224{opacity:0.4;}
	.st225{fill:none;stroke:#60748C;stroke-width:2;stroke-linecap:round;stroke-linejoin:round;stroke-miterlimit:10;}
	.st226{opacity:0.54;fill:#FFFFFF;}
	.st227{clip-path:url(#SVGID_00000144338365882520318850000016074627194051441567_);}
	.st228{opacity:0.5;fill:#5B7188;}
	.st229{opacity:0.1;fill:#60748C;}
	.st230{clip-path:url(#SVGID_00000162348639956641767370000010487089910302272696_);}
	.st231{display:none;}
	.st232{display:inline;fill:#FFFFFF;}
	.st233{display:inline;fill:#090C11;}
	.st234{display:inline;fill:#4A596E;}
	.st235{fill:#546579;}
	.st236{fill:#6F88A6;}
	.st237{opacity:0.1;fill:none;stroke:#FFFFFF;stroke-miterlimit:10;}
	.st238{display:none;fill:#6DC5D8;}
	.st239{opacity:0.45;fill:#60748C;}
	.st240{opacity:0.03;clip-path:url(#SVGID_00000127026492653742012910000014160134166180110765_);}
	.st241{clip-path:url(#SVGID_00000127026492653742012910000014160134166180110765_);}
	
		.st242{clip-path:url(#SVGID_00000127026492653742012910000014160134166180110765_);fill:#FFFFFF;stroke:#60748C;stroke-width:1.5;stroke-miterlimit:10;}
	.st243{opacity:0.4;clip-path:url(#SVGID_00000127026492653742012910000014160134166180110765_);}
	.st244{clip-path:url(#SVGID_00000171721856376217048360000009290037308689880767_);}
	.st245{opacity:0.05;clip-path:url(#SVGID_00000171721856376217048360000009290037308689880767_);}
	.st246{fill:#575756;}
	
		.st247{clip-path:url(#SVGID_00000171721856376217048360000009290037308689880767_);fill:#FFFFFF;stroke:#60748C;stroke-width:1.5;stroke-miterlimit:10;}
	.st248{opacity:0.4;clip-path:url(#SVGID_00000171721856376217048360000009290037308689880767_);}
	.st249{fill:#FFFFFF;stroke:#60748C;stroke-width:1.5;stroke-miterlimit:10;}
	.st250{fill:#A5C848;}
	.st251{opacity:0.2;}
	.st252{clip-path:url(#SVGID_00000049205583456451382520000000504220832047308930_);}
	.st253{clip-path:url(#SVGID_00000053516372473151272920000016436263120528272799_);}
	.st254{fill:none;stroke:#60748C;stroke-width:3;stroke-miterlimit:10;}
	.st255{fill:#EDEDED;stroke:#C0252D;stroke-width:3;stroke-miterlimit:10;}
	.st256{clip-path:url(#SVGID_00000004510150455506523000000000903619379159711896_);}
	.st257{opacity:0.1;fill:#546579;}
	.st258{opacity:0.05;}
	.st259{fill:#606060;}
	.st260{opacity:0.15;}
	.st261{opacity:0.5;}
	.st262{fill:#535353;}
	.st263{opacity:0.7;}
	.st264{filter:url(#Adobe_OpacityMaskFilter);}
	.st265{filter:url(#Adobe_OpacityMaskFilter_00000118393492674589271850000008506980496310206848_);}
	
		.st266{mask:url(#SVGID_00000121269617682915329170000008956060783016883596_);fill:url(#SVGID_00000132074021281538619630000012293509562132409751_);}
	.st267{filter:url(#Adobe_OpacityMaskFilter_00000021096160027020214610000012395514529007903930_);}
	.st268{filter:url(#Adobe_OpacityMaskFilter_00000060749153923191242220000007298977661512611254_);}
	
		.st269{mask:url(#SVGID_00000147187706719686282580000017891399752670406288_);fill:url(#SVGID_00000016794834492942568320000014904664688651654535_);}
	.st270{filter:url(#Adobe_OpacityMaskFilter_00000178907984459126069000000008682902681201953457_);}
	.st271{filter:url(#Adobe_OpacityMaskFilter_00000005231431373858057750000002573159819935838863_);}
	
		.st272{mask:url(#SVGID_00000181083387478798135620000004421853036740922024_);fill:url(#SVGID_00000158740822126015621980000013684465272712256395_);}
	.st273{filter:url(#Adobe_OpacityMaskFilter_00000003074416013314814430000010861011858677657494_);}
	.st274{filter:url(#Adobe_OpacityMaskFilter_00000114758249179953219660000011772702339547877045_);}
	
		.st275{mask:url(#SVGID_00000117673337688274454300000013110981835578273408_);fill:url(#SVGID_00000041294806776579401710000004859633906103146681_);}
	.st276{filter:url(#Adobe_OpacityMaskFilter_00000093170098939624908280000002549504499001424828_);}
	.st277{filter:url(#Adobe_OpacityMaskFilter_00000080174831291264214540000002304030343366518915_);}
	
		.st278{mask:url(#SVGID_00000068678657139404723790000006025117368612351373_);fill:url(#SVGID_00000029737980802282799040000013361406751256093626_);}
	.st279{filter:url(#Adobe_OpacityMaskFilter_00000043457191959992449990000007550194944868608658_);}
	.st280{filter:url(#Adobe_OpacityMaskFilter_00000065761064772769757930000011226528289353263766_);}
	
		.st281{mask:url(#SVGID_00000121982414005127795790000015490386694543811462_);fill:url(#SVGID_00000103947965548832723640000003490895330877749412_);}
	.st282{filter:url(#Adobe_OpacityMaskFilter_00000169525303394603459170000017079553934036648118_);}
	.st283{filter:url(#Adobe_OpacityMaskFilter_00000124124462069256647530000011488529135649117865_);}
	
		.st284{mask:url(#SVGID_00000030456421616006633320000008003455485370464157_);fill:url(#SVGID_00000018226998762479027690000010328079152695637174_);}
	.st285{opacity:0.8;}
	.st286{filter:url(#Adobe_OpacityMaskFilter_00000059267674152333286630000017737862407141712025_);}
	.st287{filter:url(#Adobe_OpacityMaskFilter_00000153683198971645365950000005677456240726655140_);}
	
		.st288{mask:url(#SVGID_00000047742128748391219070000010340782965561433990_);fill:url(#SVGID_00000070825486346728066430000003750555348965832854_);}
	.st289{fill:none;stroke:#1A1A1A;stroke-width:4;stroke-miterlimit:10;}
	.st290{fill:none;stroke:#60748C;stroke-width:4;stroke-miterlimit:10;}
	.st291{fill:#FFFFFF;stroke:#60748C;stroke-width:3;stroke-miterlimit:10;}
	.st292{fill:#FFFFFF;stroke:#6DC5D8;stroke-width:3;stroke-miterlimit:10;}
	.st293{fill:#6DC5D8;stroke:#FFFFFF;stroke-width:3;stroke-miterlimit:10;}
	.st294{opacity:0.25;}
	.st295{fill:#757577;}
	.st296{fill:#AEAEAE;}
	.st297{fill:#C1252D;stroke:#FFFFFF;stroke-width:3;stroke-miterlimit:10;}
	.st298{fill:#1A1A1A;stroke:#FFFFFF;stroke-width:3;stroke-miterlimit:10;}
	.st299{fill:none;stroke:#000000;stroke-width:10;stroke-linecap:round;stroke-miterlimit:10;}
	.st300{fill:none;stroke:#45AD4B;stroke-width:6;stroke-miterlimit:10;}
	.st301{fill:none;stroke:#6DC5D8;stroke-width:6;stroke-miterlimit:10;}
	.st302{fill:none;stroke:#60748C;stroke-width:6;stroke-miterlimit:10;}
	.st303{fill:none;stroke:#000000;stroke-width:6;stroke-miterlimit:10;}
	.st304{fill:#60748C;stroke:#FFFFFF;stroke-width:4;stroke-miterlimit:10;}
	.st305{fill:none;stroke:#000000;stroke-width:7;stroke-linecap:round;stroke-miterlimit:10;}
	.st306{fill-rule:evenodd;clip-rule:evenodd;fill:none;stroke:#000000;stroke-width:4;stroke-miterlimit:10;}
	.st307{fill:none;stroke:#000000;stroke-width:4;stroke-miterlimit:10;}
	.st308{fill:none;stroke:#000000;stroke-width:4;stroke-linecap:round;stroke-miterlimit:10;}
	.st309{fill-rule:evenodd;clip-rule:evenodd;stroke:#FFFFFF;stroke-miterlimit:10;}
	.st310{fill:#949494;}
	.st311{clip-path:url(#SVGID_00000101072601581145528180000018095427371584226226_);}
	.st312{fill:#1A1A1A;stroke:#1A1A1A;stroke-miterlimit:10;}
	.st313{stroke:#000000;stroke-miterlimit:10;}
	.st314{clip-path:url(#SVGID_00000015338228785604211360000002994187099449693094_);}
	.st315{fill:#60748C;stroke:#60748C;stroke-miterlimit:10;}
	.st316{fill:#728499;}
	.st317{opacity:0.4;fill:#BF252D;}
	.st318{opacity:0.75;fill:#BF252D;}
	.st319{fill:#C7C7C7;}
	.st320{opacity:0.23;}
	.st321{opacity:0.2;fill:#5B7188;}
	.st322{fill:none;stroke:#FFFFFF;stroke-width:6;stroke-miterlimit:10;}
	.st323{fill:#BF252D;stroke:#FFFFFF;stroke-width:6;stroke-miterlimit:10;}
	.st324{opacity:0.3;fill:#BF252D;}
	.st325{opacity:0.7;fill:#BF252D;}
	.st326{opacity:0.5;fill:#BF252D;}
	.st327{opacity:0.2;fill:#BF252D;}
	.st328{fill:#BF252D;stroke:#FFFFFF;stroke-width:5;stroke-miterlimit:10;}
	.st329{opacity:0.53;fill:#52717F;}
	.st330{opacity:0.36;fill:#60748C;}
	.st331{opacity:0.31;fill:#60748C;}
	.st332{opacity:0.45;fill:#6DC5D8;}
	.st333{fill:#E81C24;}
	.st334{fill:#D4DB21;}
	.st335{fill:#F6AB3B;}
	.st336{opacity:0.8;fill:#60748C;}
	.st337{opacity:0.61;fill:#60748C;}
	.st338{opacity:0.12;fill:#6DC5D8;}
	.st339{fill:none;stroke:#6DC5D8;stroke-width:4;stroke-miterlimit:10;}
	.st340{fill:none;stroke:#A4C748;stroke-width:4;stroke-miterlimit:10;}
	.st341{fill:#C1252D;stroke:#C1252D;stroke-width:4;stroke-miterlimit:10;}
	.st342{fill:none;stroke:#FFFFFF;stroke-width:2;stroke-linecap:round;stroke-miterlimit:10;stroke-dasharray:3.9843,5.9765;}
	.st343{fill:none;stroke:#60748C;stroke-width:3;stroke-linecap:round;stroke-miterlimit:10;stroke-dasharray:0.4961,6.945;}
	.st344{fill:none;stroke:#FFFFFF;stroke-width:2;stroke-linecap:round;stroke-miterlimit:10;stroke-dasharray:4.0153,6.023;}
	.st345{fill:none;stroke:#60748C;stroke-width:3;stroke-linecap:round;stroke-miterlimit:10;stroke-dasharray:0.4971,6.9599;}
	.st346{opacity:0.47;fill:#60748C;}
	.st347{fill:none;stroke:#D01519;stroke-miterlimit:10;}
	.st348{clip-path:url(#SVGID_00000111908129468768488160000001705700366812686761_);}
	.st349{clip-path:url(#SVGID_00000024710909494599672630000007539330205193527434_);}
	.st350{fill:#ECECEC;stroke:#FFFFFF;stroke-width:10;stroke-miterlimit:10;}
	.st351{clip-path:url(#SVGID_00000000914040002837277560000016015023357578893247_);}
	.st352{clip-path:url(#SVGID_00000013156543850820687400000003352543291228576158_);}
	.st353{clip-path:url(#SVGID_00000021840849815366423000000014392132113355932803_);}
	.st354{clip-path:url(#SVGID_00000009555915044313529860000011529059458232599182_);}
	.st355{fill:none;stroke:#5B7188;stroke-width:3;stroke-miterlimit:10;stroke-dasharray:9,8;}
	.st356{clip-path:url(#SVGID_00000160158568885531381930000017514106467797824671_);}
	.st357{clip-path:url(#SVGID_00000028300314229662118110000013670245616837016741_);}
	.st358{fill:none;stroke:#E1E1E1;stroke-width:4;stroke-linecap:round;stroke-miterlimit:10;}
	.st359{fill:none;stroke:#000000;stroke-width:5;stroke-miterlimit:10;}
	.st360{fill:none;stroke:#000000;stroke-width:5;stroke-linecap:round;stroke-miterlimit:10;}
	.st361{fill:none;stroke:#E1E1E1;stroke-width:10;stroke-miterlimit:10;}
	.st362{fill:none;stroke:#A4C748;stroke-width:5;stroke-miterlimit:10;}
	.st363{fill:#A4C748;stroke:#FFFFFF;stroke-width:3;stroke-miterlimit:10;}
	.st364{fill:none;stroke:#E1E1E1;stroke-width:10;stroke-linecap:round;stroke-miterlimit:10;}
	.st365{fill:#60748C;stroke:#FFFFFF;stroke-width:5;stroke-miterlimit:10;}
	.st366{fill:#5B7188;stroke:#FFFFFF;stroke-width:5;stroke-miterlimit:10;}
	.st367{fill:#E1E1E1;}
	.st368{fill:none;stroke:#000000;stroke-width:7;stroke-linecap:round;stroke-linejoin:round;stroke-miterlimit:10;}
	.st369{fill:none;stroke:#000000;stroke-width:3;stroke-linecap:round;stroke-linejoin:round;stroke-miterlimit:10;}
	.st370{fill:none;stroke:#000000;stroke-width:6;stroke-linecap:round;stroke-linejoin:round;stroke-miterlimit:10;}
	.st371{fill:none;stroke:#000000;stroke-width:15;stroke-linecap:round;stroke-linejoin:round;stroke-miterlimit:10;}
	.st372{opacity:0.15;fill:#60748C;}
	.st373{opacity:0.37;fill:#60748C;}
	.st374{fill:none;stroke:#333E4C;stroke-width:6;stroke-linecap:round;stroke-linejoin:round;stroke-miterlimit:10;}
	.st375{fill:#EDEDED;stroke:#333E4C;stroke-miterlimit:10;}
	.st376{fill:none;stroke:#333E4C;stroke-width:7;stroke-linecap:round;stroke-linejoin:round;stroke-miterlimit:10;}
	.st377{fill:#5B7188;stroke:#FFFFFF;stroke-miterlimit:10;}
</style>
<path class="st122" d="M531.49,297.23H414.41c-7.29,0-13.2-5.91-13.2-13.2V161.09c0-7.29,5.91-13.2,13.2-13.2h117.08
	c7.29,0,13.2,5.91,13.2,13.2v122.93C544.7,291.31,538.78,297.23,531.49,297.23z"/>
<g>
	<g>
		<path class="st87" d="M669.28,205.26h-6.46c-0.18,0-0.32,0.14-0.32,0.32v2.91h7.1v-2.91C669.6,205.4,669.46,205.26,669.28,205.26z
			"/>
		<path class="st87" d="M662.5,210.42h7.1v1.94h-7.1V210.42z"/>
		<path class="st87" d="M667.02,236.76v-16.65h4.84c1.96,0,3.55-1.59,3.55-3.55V203c0-1.96-1.59-3.55-3.55-3.55h-11.62
			c-1.96,0-3.55,1.59-3.55,3.55v13.56c0,1.96,1.59,3.55,3.55,3.55h4.84v16.65 M671.54,213.33c0,0.53-0.43,0.97-0.97,0.97h-0.32v0.97
			c0,0.53-0.43,0.97-0.97,0.97s-0.97-0.43-0.97-0.97v-0.97h-4.52v0.97c0,0.53-0.43,0.97-0.97,0.97s-0.97-0.43-0.97-0.97v-0.97h-0.32
			c-0.53,0-0.97-0.43-0.97-0.97v-7.75c0-1.25,1.01-2.26,2.26-2.26h6.46c1.25,0,2.26,1.01,2.26,2.26V213.33z"/>
	</g>
	<rect x="664.67" y="218.98" class="st87" width="2.83" height="19.23"/>
	<path class="st87" d="M670.27,240.47c-0.08-1.44-0.51-2.54-2.16-2.54h-4.35c-1.6,0-2.01,1.1-2.09,2.54H670.27z"/>
</g>
<g>
	<g>
		<path class="st34" d="M371.72,207.99l0,4.93H348.7c-1.7,0-3.1,1.39-3.1,3.1v12.4c0,1.7,1.39,3.1,3.1,3.1l23.02,0v4.93
			c0,2.76,3.35,4.15,5.3,2.2l14.23-14.23c1.21-1.21,1.21-3.16,0-4.37l-14.23-14.23C375.07,203.86,371.72,205.23,371.72,207.99z"/>
	</g>
</g>
<rect x="612.37" y="266.95" class="st78" width="110.76" height="17.8"/>
<text transform="matrix(1 0 0 1 614.1651 278.8623)" class="st5 st204 st205">Public Transport</text>
<rect x="740.18" y="268.68" class="st78" width="83.18" height="17.8"/>
<text transform="matrix(1 0 0 1 766.9484 280.5958)" class="st5 st204 st205">Park</text>
<rect x="847.84" y="268.36" class="st78" width="83.18" height="17.8"/>
<text transform="matrix(1 0 0 1 848.8447 280.2719)" class="st5 st204 st205">Bright Areas</text>
<rect x="440.86" y="197.33" class="st78" width="70.49" height="58.82"/>
<text transform="matrix(1 1.000000e-05 0 1 440.8189 209.3874)"><tspan x="0" y="0" class="st206 st204 st207">1001010</tspan><tspan x="0" y="21" class="st206 st204 st207">1011011</tspan><tspan x="0" y="42" class="st206 st204 st207">10100…</tspan></text>
<g>
	<g>
		<path class="st34" d="M101.24,273.29v-3.26h-2.52c-0.08-1.09-0.46-1.92-1.74-1.92h-3.53c-1.25,0-1.6,0.82-1.68,1.92h-2.52v3.26
			H101.24z"/>
		<path class="st34" d="M98.73,311.78c-0.01-0.2-0.04-0.4-0.07-0.58l-0.02-0.2h-0.02c-0.18-0.76-0.63-1.28-1.65-1.28H96.8v-28.16
			c1.19-0.57,2.07-1.78,2.25-3.24l0.35-2.88h-8.31l0.35,2.88c0.18,1.46,1.06,2.67,2.25,3.24v28.16h-0.23
			c-0.99,0-1.42,0.52-1.59,1.28h-0.02l-0.02,0.21c-0.03,0.18-0.05,0.37-0.06,0.57h0.01l-0.96,9.99h8.88l-0.96-9.99H98.73z"/>
	</g>
	<rect x="55.03" y="347.72" class="st78" width="84.04" height="16.31"/>
	<text transform="matrix(1 0 0 1 55.0313 359.628)" class="st5 st204 st205">Street light</text>
	<g class="st208">
		<g>
			<g>
				<path class="st34" d="M68.3,271.02c6.71-7.46,16.44-12.17,27.24-12.17c1.58,0,3.13,0.11,4.66,0.31l2.95-9.03
					c-2.48-0.41-5.02-0.64-7.61-0.64c-15.48,0-29.2,7.7-37.54,19.46L68.3,271.02z"/>
				<path class="st34" d="M77.1,327.13c-10.87-6.36-18.2-18.16-18.2-31.64c0-8.26,2.75-15.88,7.37-22.01l-9.95-2
					c-4.3,7-6.79,15.22-6.79,24.02c0,18.25,10.69,34.06,26.13,41.48L77.1,327.13z"/>
				<path class="st34" d="M92.59,332c-4.57-0.37-8.91-1.57-12.86-3.46l-1.4,9.61c5.32,2.15,11.12,3.35,17.2,3.35
					c0.75,0,1.49-0.02,2.22-0.06L92.59,332z"/>
			</g>
		</g>
		<path class="st34" d="M134.71,271.32l-0.03,0.02c-6.33-10.23-16.54-17.79-28.59-20.61l-3.04,8.91
			c10.73,2.23,19.73,9.16,24.78,18.53c0.01,0,0.02,0.01,0.03,0.01c4.12,7.66,5.32,16.47,3.59,24.81l-0.01,0
			c-1.09,5.22-3.29,10.02-6.34,14.17c0,0,0,0-0.01,0c-2.06,2.81-4.52,5.31-7.28,7.43c-0.21,0.16-0.42,0.31-0.63,0.46
			c-0.32,0.24-0.65,0.48-0.98,0.71c-0.33,0.23-0.67,0.44-1.01,0.65c-0.22,0.14-0.44,0.29-0.67,0.42c-0.4,0.24-0.81,0.47-1.22,0.7
			c-5.23,2.91-11.23,4.58-17.64,4.6l4.8,9.1c7.63-0.81,14.69-3.49,20.74-7.56c0.01-0.01,0.02-0.02,0.04-0.02
			c0.41-0.28,0.82-0.57,1.23-0.86c0.05-0.04,0.1-0.07,0.15-0.11c0.37-0.27,0.73-0.54,1.08-0.82c0.08-0.07,0.17-0.13,0.25-0.2
			c0.32-0.25,0.63-0.5,0.94-0.76c0.12-0.1,0.24-0.2,0.36-0.3c0.27-0.23,0.54-0.46,0.8-0.7c0.15-0.14,0.31-0.27,0.46-0.41
			c0.22-0.2,0.44-0.41,0.66-0.62c0.18-0.17,0.37-0.35,0.55-0.53c0.18-0.17,0.35-0.35,0.53-0.53c0.21-0.22,0.43-0.43,0.64-0.66
			c0.14-0.14,0.27-0.29,0.4-0.43c0.24-0.26,0.48-0.53,0.72-0.79c0.09-0.11,0.19-0.21,0.28-0.32c0.27-0.31,0.54-0.63,0.8-0.94
			c0.05-0.07,0.11-0.13,0.16-0.2c0.3-0.36,0.59-0.73,0.87-1.1c0.02-0.02,0.03-0.04,0.05-0.06c0.58-0.77,1.15-1.55,1.68-2.35
			c-0.01,0.04-0.01,0.08-0.02,0.13C143.87,306.11,144.16,286.56,134.71,271.32z"/>
	</g>
</g>
<g>
	<g>
		<g>
			<path class="st34" d="M85.86,173.69h8.24v8.18h-8.24V173.69z"/>
			<path class="st34" d="M85.11,173.69h2.99v8.18h-2.99V173.69z"/>
			<path class="st34" d="M99.68,130.79H79.53c-0.83,0-1.5,0.67-1.5,1.5v49.6h4.09v-9.68c0-0.83,0.67-1.5,1.5-1.5h5.99h5.99
				c0.83,0,1.5,0.67,1.5,1.5v9.68h4.09v-49.6C101.18,131.46,100.51,130.79,99.68,130.79z M85.11,157.23c0,0.83-0.67,1.5-1.5,1.5
				s-1.5-0.67-1.5-1.5v-2.99c0-0.83,0.67-1.5,1.5-1.5s1.5,0.67,1.5,1.5V157.23z M91.1,157.23c0,0.83-0.67,1.5-1.5,1.5
				s-1.5-0.67-1.5-1.5v-2.99c0-0.83,0.67-1.5,1.5-1.5s1.5,0.67,1.5,1.5V157.23z M97.09,157.23c0,0.83-0.67,1.5-1.5,1.5
				c-0.83,0-1.5-0.67-1.5-1.5v-2.99c0-0.83,0.67-1.5,1.5-1.5c0.83,0,1.5,0.67,1.5,1.5V157.23z M85.11,148.25
				c0,0.83-0.67,1.5-1.5,1.5s-1.5-0.67-1.5-1.5v-2.99c0-0.83,0.67-1.5,1.5-1.5s1.5,0.67,1.5,1.5V148.25z M91.1,148.25
				c0,0.83-0.67,1.5-1.5,1.5s-1.5-0.67-1.5-1.5v-2.99c0-0.83,0.67-1.5,1.5-1.5s1.5,0.67,1.5,1.5V148.25z M97.09,148.25
				c0,0.83-0.67,1.5-1.5,1.5c-0.83,0-1.5-0.67-1.5-1.5v-2.99c0-0.83,0.67-1.5,1.5-1.5c0.83,0,1.5,0.67,1.5,1.5V148.25z
				 M85.11,139.27c0,0.83-0.67,1.5-1.5,1.5s-1.5-0.67-1.5-1.5v-2.99c0-0.83,0.67-1.5,1.5-1.5s1.5,0.67,1.5,1.5V139.27z M91.1,139.27
				c0,0.83-0.67,1.5-1.5,1.5s-1.5-0.67-1.5-1.5v-2.99c0-0.83,0.67-1.5,1.5-1.5s1.5,0.67,1.5,1.5V139.27z M97.09,139.27
				c0,0.83-0.67,1.5-1.5,1.5c-0.83,0-1.5-0.67-1.5-1.5v-2.99c0-0.83,0.67-1.5,1.5-1.5c0.83,0,1.5,0.67,1.5,1.5V139.27z"/>
		</g>
		<path class="st34" d="M113.65,150.74h-9.48v31.13h9.48c0.83,0,1.5-0.67,1.5-1.5v-28.14C115.15,151.41,114.48,150.74,113.65,150.74
			z M111.16,168.78c0,0.83-0.67,1.5-1.5,1.5s-1.5-0.67-1.5-1.5v-10.55c0-0.83,0.67-1.5,1.5-1.5s1.5,0.67,1.5,1.5V168.78z"/>
		<path class="st34" d="M65.55,150.74c-0.83,0-1.5,0.67-1.5,1.5v28.14c0,0.83,0.67,1.5,1.5,1.5h9.48v-31.13H65.55z M71.04,168.82
			c0,0.83-0.67,1.5-1.5,1.5s-1.5-0.67-1.5-1.5v-10.59c0-0.83,0.67-1.5,1.5-1.5s1.5,0.67,1.5,1.5V168.82z"/>
	</g>
	<rect x="61.62" y="210.68" class="st78" width="54.37" height="16.31"/>
	<text transform="matrix(1 0 0 1 61.6168 222.592)" class="st5 st204 st205">Building</text>
	<g class="st208">
		<g>
			<g>
				<path class="st34" d="M61.94,134.83c6.71-7.46,16.44-12.17,27.24-12.17c1.58,0,3.13,0.11,4.66,0.31l2.95-9.03
					c-2.48-0.41-5.02-0.64-7.61-0.64c-15.48,0-29.2,7.7-37.54,19.46L61.94,134.83z"/>
				<path class="st34" d="M70.73,190.93c-10.87-6.36-18.2-18.16-18.2-31.64c0-8.26,2.75-15.88,7.37-22.01l-9.95-2
					c-4.3,7-6.79,15.22-6.79,24.02c0,18.25,10.69,34.06,26.13,41.48L70.73,190.93z"/>
				<path class="st34" d="M86.22,195.81c-4.57-0.37-8.91-1.57-12.86-3.46l-1.4,9.61c5.32,2.15,11.12,3.35,17.2,3.35
					c0.75,0,1.49-0.02,2.22-0.06L86.22,195.81z"/>
			</g>
		</g>
		<path class="st34" d="M128.35,135.12l-0.03,0.02c-6.33-10.23-16.54-17.79-28.59-20.61l-3.04,8.91
			c10.73,2.23,19.73,9.16,24.78,18.53c0.01,0,0.02,0.01,0.03,0.01c4.12,7.66,5.32,16.47,3.59,24.81l-0.01,0
			c-1.09,5.22-3.29,10.02-6.34,14.17c0,0,0,0-0.01,0c-2.06,2.81-4.52,5.31-7.28,7.43c-0.21,0.16-0.42,0.31-0.63,0.46
			c-0.32,0.24-0.65,0.48-0.98,0.71c-0.33,0.23-0.67,0.44-1.01,0.65c-0.22,0.14-0.44,0.29-0.67,0.42c-0.4,0.24-0.81,0.47-1.22,0.7
			c-5.23,2.91-11.23,4.58-17.64,4.6l4.8,9.1c7.63-0.81,14.69-3.49,20.74-7.56c0.01-0.01,0.02-0.02,0.04-0.02
			c0.41-0.28,0.82-0.57,1.23-0.86c0.05-0.04,0.1-0.07,0.15-0.11c0.37-0.27,0.73-0.54,1.08-0.82c0.08-0.07,0.17-0.13,0.25-0.2
			c0.32-0.25,0.63-0.5,0.94-0.76c0.12-0.1,0.24-0.2,0.36-0.3c0.27-0.23,0.54-0.46,0.8-0.7c0.15-0.14,0.31-0.27,0.46-0.41
			c0.22-0.2,0.44-0.41,0.66-0.62c0.18-0.17,0.37-0.35,0.55-0.53c0.18-0.17,0.35-0.35,0.53-0.53c0.21-0.22,0.43-0.43,0.64-0.66
			c0.14-0.14,0.27-0.29,0.4-0.43c0.24-0.26,0.48-0.53,0.72-0.79c0.09-0.11,0.19-0.21,0.28-0.32c0.27-0.31,0.54-0.63,0.8-0.94
			c0.05-0.07,0.11-0.13,0.16-0.2c0.3-0.36,0.59-0.73,0.87-1.1c0.02-0.02,0.03-0.04,0.05-0.06c0.58-0.77,1.15-1.55,1.68-2.35
			c-0.01,0.04-0.01,0.08-0.02,0.13C137.5,169.92,137.79,150.36,128.35,135.12z"/>
	</g>
</g>
<g>
	<g>
		<g>
			<path class="st34" d="M177.78,75.24c0.36-0.27,0.77-0.48,1.23-0.6c1.17-0.31,2.42-0.25,3.54-0.78c0.82-0.39,1.52-1.08,2.34-1.47
				c1.57-0.75,3.35-0.32,4.9,0.35c2.11,0.91,4.11,2.29,5.45,4.31c1.35,2.02,1.97,4.75,1.3,7.24c-0.98,3.64-4.42,5.92-7.74,6.6
				c-3.6,0.74-7.5-0.04-10.18-2.67c-1.8-1.77-2.93-4.43-2.99-7.17C175.59,78.95,176.18,76.45,177.78,75.24z"/>
			<path class="st34" d="M211.31,88.11c0,4.24-3.59,7.67-8.01,7.67c-4.42,0-8.01-3.44-8.01-7.67s3.59-7.67,8.01-7.67
				C207.73,80.44,211.31,83.87,211.31,88.11z"/>
			<path class="st34" d="M203.21,91.32c-1.41,0.13-2.8,0.32-4.12,0.69c-1.22,0.33-2.46,0.72-3.61,1.25
				c1.84-1.91,3.82-3.61,6.03-5.09c1.25-0.84,2.51-1.63,3.53-2.75c0.75-0.82,1.5-1.63,2.26-2.44c-0.21-0.11-0.71-0.52-0.93-0.49
				c-0.22,0.03-0.64,0.6-0.79,0.75c-1.01,0.96-2.01,1.98-3.12,2.82c-0.43,0.32-2.8,2.15-3.14,1.52c-0.22-0.41,0.07-1.69,0.32-2.62
				c-0.15,0.02-0.3,0.05-0.47,0.05c-0.19,0-0.37-0.02-0.55-0.05c-0.24,1.29-0.46,3.35-1.01,4.13c-1.11,1.58-2.95,2.44-4.08,4.01
				c0.06-1.96,0.09-3.92,0.18-5.87c0.07-1.58,0.31-3.17,0.92-4.64c0.58-1.39,1.33-2.69,1.89-4.09c0.07-0.17,0.52-1,0.46-1.19
				c-0.03-0.08-0.58-0.4-0.66-0.38c-0.37,0.08-1.02,1.79-1.18,2.1c-1.3,2.54-2.38,5.28-2.52,8.16c-0.34-2.14-0.66-4.36-1.39-6.4
				c-0.47-1.32-0.91-2.64-1.33-3.98c-0.1-0.32-0.19-1.15-0.42-1.39c-0.18-0.18-0.55-0.1-0.85-0.1c0.6,3.16,1.63,6.23,2.13,9.41
				c0.26,1.7,0.66,3.45,0.66,5.18c0,1.3-0.12,2.6-0.23,3.89c-2.64-1.18-5.7-2.16-7.99-3.97c-1.21-0.95-2-2.13-2.67-3.5
				c-0.23-0.48-0.48-1.57-0.87-1.91c-0.22-0.19-0.53-0.07-0.88-0.02c0.46,1.4,0.95,2.8,1.57,4.14c0.38,0.84,0.81,1.51,1.57,2.06
				c0.79,0.58,4.8,3.04,6.17,3.61c1.34,0.56,2.58,1.81,2.9,3.36c0.48,2.27,0.1,4.93-0.02,7.22c-0.1,1.83-0.21,3.65-0.33,5.47
				c-0.11,1.69,0.09,3.92-0.68,5.46h5.06c-0.58-0.79-0.52-2.02-0.59-2.96c-0.09-1.33-0.18-2.65-0.27-3.98
				c-0.16-2.48-0.36-4.97-0.36-7.46c0-1.36,0.1-2.7,0.48-4.01c0.43-1.51,0.99-2.33,2.44-3.01c2.04-0.95,4.31-1.57,6.55-1.87
				C203.22,92.08,203.21,91.7,203.21,91.32z"/>
			<circle class="st34" cx="180.45" cy="88.8" r="5.83"/>
			<path class="st34" d="M199.81,79.06c0.93-0.84,2.15-1.36,3.4-1.37c2.21-0.02,4.05,1.53,4.92,3.49c0.91,2.05-0.1,4.55-1.87,5.82
				c-1.74,1.25-4.29,1.24-6.02-0.02c-1.73-1.26-2.53-3.68-1.87-5.72C198.63,80.42,199.15,79.66,199.81,79.06z"/>
			<path class="st34" d="M203.68,70.71c0,0,5.23-1.66,7.6,3.27c1.74,3.59-0.38,6.87-2.16,7.63c-2.93,1.24-4.71-0.38-4.71-0.38
				s-1.98,3.88-7,4.68c-8.85,1.42-11.92-4.57-11.92-4.57s-2.11,1.13-5.14,0.57c-4-0.74-6.08-3.9-5.69-7.42
				c0.45-4.05,4.01-6.38,7.05-5.86c0,0,0.12-2.84,3.72-3.96c0.88-0.27,2.9-0.42,3.91,0.03c0,0,2.22-4.12,7.96-3.05
				C205.14,63.11,203.68,70.71,203.68,70.71z"/>
		</g>
		<path class="st34" d="M197.22,115.85c-0.08-1.58-0.56-2.8-2.38-2.8h-4.79c-1.77,0-2.22,1.21-2.3,2.8H197.22z"/>
	</g>
	<rect x="150.88" y="140.8" class="st78" width="84.61" height="17.8"/>
	<text transform="matrix(1 0 0 1 178.9554 152.7137)" class="st5 st204 st205">Tree</text>
	<g class="st208">
		<g>
			<g>
				<path class="st34" d="M165.76,64.69c6.71-7.46,16.44-12.17,27.24-12.17c1.58,0,3.13,0.11,4.66,0.31l2.95-9.03
					c-2.48-0.41-5.02-0.64-7.61-0.64c-15.48,0-29.2,7.7-37.54,19.46L165.76,64.69z"/>
				<path class="st34" d="M174.55,120.8c-10.87-6.36-18.2-18.16-18.2-31.64c0-8.26,2.75-15.88,7.37-22.01l-9.95-2
					c-4.3,7-6.79,15.22-6.79,24.02c0,18.25,10.69,34.06,26.13,41.48L174.55,120.8z"/>
				<path class="st34" d="M190.04,125.67c-4.57-0.37-8.91-1.57-12.86-3.46l-1.4,9.61c5.32,2.15,11.12,3.35,17.2,3.35
					c0.75,0,1.49-0.02,2.22-0.06L190.04,125.67z"/>
			</g>
		</g>
		<path class="st34" d="M232.17,64.98L232.14,65c-6.33-10.23-16.54-17.79-28.59-20.61l-3.04,8.91c10.73,2.23,19.73,9.16,24.78,18.53
			c0.01,0,0.02,0.01,0.03,0.01c4.12,7.66,5.32,16.47,3.59,24.81l-0.01,0c-1.09,5.22-3.29,10.02-6.34,14.17c0,0,0,0-0.01,0
			c-2.06,2.81-4.52,5.31-7.28,7.43c-0.21,0.16-0.42,0.31-0.63,0.46c-0.32,0.24-0.65,0.48-0.98,0.71c-0.33,0.23-0.67,0.44-1.01,0.65
			c-0.22,0.14-0.44,0.29-0.67,0.42c-0.4,0.24-0.81,0.47-1.22,0.7c-5.23,2.91-11.23,4.58-17.64,4.6l4.8,9.1
			c7.63-0.81,14.69-3.49,20.74-7.56c0.01-0.01,0.02-0.02,0.04-0.02c0.41-0.28,0.82-0.57,1.23-0.86c0.05-0.04,0.1-0.07,0.15-0.11
			c0.37-0.27,0.73-0.54,1.08-0.82c0.08-0.07,0.17-0.13,0.25-0.2c0.32-0.25,0.63-0.5,0.94-0.76c0.12-0.1,0.24-0.2,0.36-0.3
			c0.27-0.23,0.54-0.46,0.8-0.7c0.15-0.14,0.31-0.27,0.46-0.41c0.22-0.2,0.44-0.41,0.66-0.62c0.18-0.17,0.37-0.35,0.55-0.53
			c0.18-0.17,0.35-0.35,0.53-0.53c0.21-0.22,0.43-0.43,0.64-0.66c0.14-0.14,0.27-0.29,0.4-0.43c0.24-0.26,0.48-0.53,0.72-0.79
			c0.09-0.11,0.19-0.21,0.28-0.32c0.27-0.31,0.54-0.63,0.8-0.94c0.05-0.07,0.11-0.13,0.16-0.2c0.3-0.36,0.59-0.73,0.87-1.1
			c0.02-0.02,0.03-0.04,0.05-0.06c0.58-0.77,1.15-1.55,1.68-2.35c-0.01,0.04-0.01,0.08-0.02,0.13
			C241.32,99.78,241.61,80.23,232.17,64.98z"/>
	</g>
</g>
<g>
	<path class="st34" d="M212.37,231.28c0.2,0,0.37-0.16,0.37-0.37v-8h1.18c0.2,0,0.37-0.16,0.37-0.37v-3.1c0-0.2-0.16-0.37-0.37-0.37
		h-4.29v-3.92h2.74c0.2,0,0.37-0.16,0.37-0.37v-3.1c0-0.2-0.16-0.37-0.37-0.37h-2.74v-2.37h2.74c0.2,0,0.37-0.16,0.37-0.37v-3.1
		c0-0.2-0.16-0.37-0.37-0.37h-2.74v-1.18c0-0.19-0.66-0.55-1.92-0.55c-1.26,0-1.92,0.36-1.92,0.55v1.18h-19.43v-1.18
		c0-0.19-0.66-0.55-1.92-0.55c-1.26,0-1.92,0.36-1.92,0.55v1.18h-2.74c-0.2,0-0.37,0.16-0.37,0.37v3.1c0,0.2,0.16,0.37,0.37,0.37
		h2.74v2.37h-2.74c-0.2,0-0.37,0.16-0.37,0.37v3.1c0,0.2,0.16,0.37,0.37,0.37h2.74v3.92h-4.29c-0.1,0-0.19,0.04-0.26,0.11
		c-0.07,0.07-0.11,0.16-0.11,0.26v3.1c0,0.2,0.16,0.37,0.37,0.37h1.18v8c0,0.2,0.16,0.37,0.37,0.37h3.1c0.2,0,0.37-0.16,0.37-0.37
		v-8h25.64v8c0,0.2,0.16,0.37,0.37,0.37H212.37z M205.8,219.07h-19.43v-3.92h19.43V219.07z M205.8,211.32h-19.43v-2.37h19.43V211.32
		z"/>
	<rect x="152.98" y="271.82" class="st78" width="84.61" height="17.8"/>
	<text transform="matrix(1 0 0 1 175.092 283.736)" class="st5 st204 st205">Bench</text>
	<g class="st208">
		<g>
			<g>
				<path class="st34" d="M168.25,191.98c6.71-7.46,16.44-12.17,27.24-12.17c1.58,0,3.13,0.11,4.66,0.31l2.95-9.03
					c-2.48-0.41-5.02-0.64-7.61-0.64c-15.48,0-29.2,7.7-37.54,19.46L168.25,191.98z"/>
				<path class="st34" d="M177.05,248.08c-10.87-6.36-18.2-18.16-18.2-31.64c0-8.26,2.75-15.88,7.37-22.01l-9.95-2
					c-4.3,7-6.79,15.22-6.79,24.02c0,18.25,10.69,34.06,26.13,41.48L177.05,248.08z"/>
				<path class="st34" d="M192.54,252.95c-4.57-0.37-8.91-1.57-12.86-3.46l-1.4,9.61c5.32,2.15,11.12,3.35,17.2,3.35
					c0.75,0,1.49-0.02,2.22-0.06L192.54,252.95z"/>
			</g>
		</g>
		<path class="st34" d="M234.66,192.27l-0.03,0.02c-6.33-10.23-16.54-17.79-28.59-20.61l-3.04,8.91
			c10.73,2.23,19.73,9.16,24.78,18.53c0.01,0,0.02,0.01,0.03,0.01c4.12,7.66,5.32,16.47,3.59,24.81l-0.01,0
			c-1.09,5.22-3.29,10.02-6.34,14.17c0,0,0,0-0.01,0c-2.06,2.81-4.52,5.31-7.28,7.43c-0.21,0.16-0.42,0.31-0.63,0.46
			c-0.32,0.24-0.65,0.48-0.98,0.71c-0.33,0.23-0.67,0.44-1.01,0.65c-0.22,0.14-0.44,0.29-0.67,0.42c-0.4,0.24-0.81,0.47-1.22,0.7
			c-5.23,2.91-11.23,4.58-17.64,4.6l4.8,9.1c7.63-0.81,14.69-3.49,20.74-7.56c0.01-0.01,0.02-0.02,0.04-0.02
			c0.41-0.28,0.82-0.57,1.23-0.86c0.05-0.04,0.1-0.07,0.15-0.11c0.37-0.27,0.73-0.54,1.08-0.82c0.08-0.07,0.17-0.13,0.25-0.2
			c0.32-0.25,0.63-0.5,0.94-0.76c0.12-0.1,0.24-0.2,0.36-0.3c0.27-0.23,0.54-0.46,0.8-0.7c0.15-0.14,0.31-0.27,0.46-0.41
			c0.22-0.2,0.44-0.41,0.66-0.62c0.18-0.17,0.37-0.35,0.55-0.53c0.18-0.17,0.35-0.35,0.53-0.53c0.21-0.22,0.43-0.43,0.64-0.66
			c0.14-0.14,0.27-0.29,0.4-0.43c0.24-0.26,0.48-0.53,0.72-0.79c0.09-0.11,0.19-0.21,0.28-0.32c0.27-0.31,0.54-0.63,0.8-0.94
			c0.05-0.07,0.11-0.13,0.16-0.2c0.3-0.36,0.59-0.73,0.87-1.1c0.02-0.02,0.03-0.04,0.05-0.06c0.58-0.77,1.15-1.55,1.68-2.35
			c-0.01,0.04-0.01,0.08-0.02,0.13C243.82,227.07,244.11,207.51,234.66,192.27z"/>
	</g>
</g>
<g>
	<g>
		<g>
			<path class="st34" d="M303.22,125.15h-8.06c-0.22,0-0.4,0.18-0.4,0.4v3.63h8.87v-3.63C303.62,125.34,303.44,125.15,303.22,125.15
				z"/>
			<path class="st34" d="M294.75,131.6h8.87v2.42h-8.87V131.6z"/>
			<path class="st34" d="M300.4,164.49V143.7h6.05c2.45,0,4.43-1.99,4.43-4.43v-16.93c0-2.45-1.99-4.43-4.43-4.43h-14.51
				c-2.45,0-4.43,1.99-4.43,4.43v16.93c0,2.45,1.99,4.43,4.43,4.43h6.05v20.79 M306.04,135.23c0,0.67-0.54,1.21-1.21,1.21h-0.4v1.21
				c0,0.67-0.54,1.21-1.21,1.21s-1.21-0.54-1.21-1.21v-1.21h-5.64v1.21c0,0.67-0.54,1.21-1.21,1.21c-0.67,0-1.21-0.54-1.21-1.21
				v-1.21h-0.4c-0.67,0-1.21-0.54-1.21-1.21v-9.68c0-1.56,1.27-2.82,2.82-2.82h8.06c1.56,0,2.82,1.27,2.82,2.82V135.23z"/>
		</g>
		<rect x="297.46" y="142.29" class="st34" width="3.53" height="24.01"/>
		<path class="st34" d="M304.45,169.12c-0.1-1.79-0.64-3.17-2.7-3.17h-5.43c-2,0-2.51,1.37-2.61,3.17H304.45z"/>
	</g>
	<rect x="259.76" y="197.06" class="st78" width="84.61" height="17.8"/>
	<text transform="matrix(1 0 0 1 273.8768 208.969)" class="st5 st204 st205">Bus stop</text>
	<g class="st208">
		<g>
			<g>
				<path class="st34" d="M271.47,119.28c6.71-7.46,16.44-12.17,27.24-12.17c1.58,0,3.13,0.11,4.66,0.31l2.95-9.03
					c-2.48-0.41-5.02-0.64-7.61-0.64c-15.48,0-29.2,7.7-37.54,19.46L271.47,119.28z"/>
				<path class="st34" d="M280.27,175.39c-10.87-6.36-18.2-18.16-18.2-31.64c0-8.26,2.75-15.88,7.37-22.01l-9.95-2
					c-4.3,7-6.79,15.22-6.79,24.02c0,18.25,10.69,34.06,26.13,41.48L280.27,175.39z"/>
				<path class="st34" d="M295.76,180.26c-4.57-0.37-8.91-1.57-12.86-3.46l-1.4,9.61c5.32,2.15,11.12,3.35,17.2,3.35
					c0.75,0,1.49-0.02,2.22-0.06L295.76,180.26z"/>
			</g>
		</g>
		<path class="st34" d="M337.88,119.57l-0.03,0.02c-6.33-10.23-16.54-17.79-28.59-20.61l-3.04,8.91
			c10.73,2.23,19.73,9.16,24.78,18.53c0.01,0,0.02,0.01,0.03,0.01c4.12,7.66,5.32,16.47,3.59,24.81l-0.01,0
			c-1.09,5.22-3.29,10.02-6.34,14.17c0,0,0,0-0.01,0c-2.06,2.81-4.52,5.31-7.28,7.43c-0.21,0.16-0.42,0.31-0.63,0.46
			c-0.32,0.24-0.65,0.48-0.98,0.71c-0.33,0.23-0.67,0.44-1.01,0.65c-0.22,0.14-0.44,0.29-0.67,0.42c-0.4,0.24-0.81,0.47-1.22,0.7
			c-5.23,2.91-11.23,4.58-17.64,4.6l4.8,9.1c7.63-0.81,14.69-3.49,20.74-7.56c0.01-0.01,0.02-0.02,0.04-0.02
			c0.41-0.28,0.82-0.57,1.23-0.86c0.05-0.04,0.1-0.07,0.15-0.11c0.37-0.27,0.73-0.54,1.08-0.82c0.08-0.07,0.17-0.13,0.25-0.2
			c0.32-0.25,0.63-0.5,0.94-0.76c0.12-0.1,0.24-0.2,0.36-0.3c0.27-0.23,0.54-0.46,0.8-0.7c0.15-0.14,0.31-0.27,0.46-0.41
			c0.22-0.2,0.44-0.41,0.66-0.62c0.18-0.17,0.37-0.35,0.55-0.53c0.18-0.17,0.35-0.35,0.53-0.53c0.21-0.22,0.43-0.43,0.64-0.66
			c0.14-0.14,0.27-0.29,0.4-0.43c0.24-0.26,0.48-0.53,0.72-0.79c0.09-0.11,0.19-0.21,0.28-0.32c0.27-0.31,0.54-0.63,0.8-0.94
			c0.05-0.07,0.11-0.13,0.16-0.2c0.3-0.36,0.59-0.73,0.87-1.1c0.02-0.02,0.03-0.04,0.05-0.06c0.58-0.77,1.15-1.55,1.68-2.35
			c-0.01,0.04-0.01,0.08-0.02,0.13C347.04,154.37,347.33,134.81,337.88,119.57z"/>
	</g>
</g>
<g>
	<g>
		<path class="st34" d="M291.11,280.03c0,0,2.31-2.88,2.31-6.09c-0.12,0-1.19,0-2.68,0v-1.16h0.37c0,0,2.31-2.88,2.31-6.09
			c-0.12,0-1.19,0-2.68,0v-1.43h-2.32v-1.47h-0.26c0-0.27-0.15-0.49-0.32-0.49h-2.12c-0.18,0-0.32,0.22-0.32,0.49h-0.26v1.47h-2.32
			v1.43c-1.44,0-2.46,0-2.58,0c0,3.21,2.31,6.09,2.31,6.09h0.27v1.16c-1.44,0-2.46,0-2.58,0c0,3.21,2.31,6.09,2.31,6.09h0.27v1.23
			c-1.44,0-2.46,0-2.58,0c0,3.21,2.31,6.09,2.31,6.09h0.27v1.88h2.32v25.26h-0.93c-1.87,0-2.35,1.28-2.44,2.96h10.02
			c-0.09-1.67-0.59-2.96-2.52-2.96h-0.85v-25.26h2.32v-1.88h0.37c0,0,2.31-2.88,2.31-6.09c-0.12,0-1.19,0-2.68,0v-1.23H291.11z"/>
		<path class="st14" d="M289.24,269.71c0,1.36-1.1,2.46-2.46,2.46s-2.46-1.1-2.46-2.46s1.1-2.46,2.46-2.46
			S289.24,268.35,289.24,269.71z"/>
		<path class="st14" d="M289.24,276.99c0,1.36-1.1,2.46-2.46,2.46s-2.46-1.1-2.46-2.46c0-1.36,1.1-2.46,2.46-2.46
			S289.24,275.63,289.24,276.99z"/>
		<circle class="st14" cx="286.78" cy="284.27" r="2.46"/>
	</g>
	<rect x="248.02" y="344.7" class="st78" width="84.61" height="17.8"/>
	<text transform="matrix(1 0 0 1 248.0193 356.6132)" class="st5 st204 st205">Traffic light</text>
	<g class="st208">
		<g>
			<g>
				<path class="st34" d="M258.94,265.56c6.71-7.46,16.44-12.17,27.24-12.17c1.58,0,3.13,0.11,4.66,0.31l2.95-9.03
					c-2.48-0.41-5.02-0.64-7.61-0.64c-15.48,0-29.2,7.7-37.54,19.46L258.94,265.56z"/>
				<path class="st34" d="M267.74,321.67c-10.87-6.36-18.2-18.16-18.2-31.64c0-8.26,2.75-15.88,7.37-22.01l-9.95-2
					c-4.3,7-6.79,15.22-6.79,24.02c0,18.25,10.69,34.06,26.13,41.48L267.74,321.67z"/>
				<path class="st34" d="M283.23,326.54c-4.57-0.37-8.91-1.57-12.86-3.46l-1.4,9.61c5.32,2.15,11.12,3.35,17.2,3.35
					c0.75,0,1.49-0.02,2.22-0.06L283.23,326.54z"/>
			</g>
		</g>
		<path class="st34" d="M325.35,265.85l-0.03,0.02c-6.33-10.23-16.54-17.79-28.59-20.61l-3.04,8.91
			c10.73,2.23,19.73,9.16,24.78,18.53c0.01,0,0.02,0.01,0.03,0.01c4.12,7.66,5.32,16.47,3.59,24.81l-0.01,0
			c-1.09,5.22-3.29,10.02-6.34,14.17c0,0,0,0-0.01,0c-2.06,2.81-4.52,5.31-7.28,7.43c-0.21,0.16-0.42,0.31-0.63,0.46
			c-0.32,0.24-0.65,0.48-0.98,0.71c-0.33,0.23-0.67,0.44-1.01,0.65c-0.22,0.14-0.44,0.29-0.67,0.42c-0.4,0.24-0.81,0.47-1.22,0.7
			c-5.23,2.91-11.23,4.58-17.64,4.6l4.8,9.1c7.63-0.81,14.69-3.49,20.74-7.56c0.01-0.01,0.02-0.02,0.04-0.02
			c0.41-0.28,0.82-0.57,1.23-0.86c0.05-0.04,0.1-0.07,0.15-0.11c0.37-0.27,0.73-0.54,1.08-0.82c0.08-0.07,0.17-0.13,0.25-0.2
			c0.32-0.25,0.63-0.5,0.94-0.76c0.12-0.1,0.24-0.2,0.36-0.3c0.27-0.23,0.54-0.46,0.8-0.7c0.15-0.14,0.31-0.27,0.46-0.41
			c0.22-0.2,0.44-0.41,0.66-0.62c0.18-0.17,0.37-0.35,0.55-0.53c0.18-0.17,0.35-0.35,0.53-0.53c0.21-0.22,0.43-0.43,0.64-0.66
			c0.14-0.14,0.27-0.29,0.4-0.43c0.24-0.26,0.48-0.53,0.72-0.79c0.09-0.11,0.19-0.21,0.28-0.32c0.27-0.31,0.54-0.63,0.8-0.94
			c0.05-0.07,0.11-0.13,0.16-0.2c0.3-0.36,0.59-0.73,0.87-1.1c0.02-0.02,0.03-0.04,0.05-0.06c0.58-0.77,1.15-1.55,1.68-2.35
			c-0.01,0.04-0.01,0.08-0.02,0.13C334.51,300.65,334.8,281.09,325.35,265.85z"/>
	</g>
</g>
<g>
	<g>
		<g>
			<path class="st87" d="M438.69,191.77c8.76-9.75,21.46-15.89,35.57-15.89c2.06,0,4.09,0.15,6.09,0.4l3.86-11.79
				c-3.24-0.54-6.55-0.84-9.94-0.84c-20.22,0-38.12,10.05-49.01,25.41L438.69,191.77z"/>
			<path class="st96" d="M450.17,265.03c-14.2-8.31-23.76-23.71-23.76-41.31c0-10.78,3.59-20.74,9.63-28.74l-13-2.62
				c-5.61,9.13-8.86,19.87-8.86,31.36c0,23.83,13.95,44.47,34.12,54.17L450.17,265.03z"/>
			<path class="st10" d="M470.4,271.39c-5.97-0.48-11.63-2.04-16.79-4.52l-1.82,12.54c6.94,2.81,14.52,4.37,22.46,4.37
				c0.97,0,1.94-0.03,2.9-0.07L470.4,271.39z"/>
		</g>
	</g>
	<path class="st32" d="M525.4,192.15l-0.04,0.02c-8.26-13.35-21.6-23.22-37.33-26.92l-3.98,11.63c14.01,2.92,25.76,11.96,32.35,24.2
		c0.01,0,0.03,0.01,0.04,0.01c5.38,10,6.95,21.51,4.69,32.39l-0.01,0c-1.42,6.82-4.3,13.09-8.28,18.5c0,0-0.01,0-0.01,0
		c-2.69,3.67-5.9,6.94-9.5,9.7c-0.27,0.21-0.55,0.4-0.83,0.6c-0.42,0.31-0.85,0.62-1.28,0.92c-0.43,0.29-0.88,0.57-1.32,0.85
		c-0.29,0.19-0.58,0.38-0.87,0.55c-0.52,0.32-1.06,0.62-1.6,0.92c-6.83,3.79-14.67,5.98-23.03,6.01l6.27,11.89
		c9.96-1.06,19.18-4.56,27.08-9.88c0.02-0.01,0.03-0.02,0.05-0.03c0.54-0.37,1.08-0.74,1.61-1.12c0.07-0.05,0.13-0.09,0.2-0.14
		c0.48-0.35,0.95-0.7,1.42-1.07c0.11-0.09,0.22-0.17,0.33-0.26c0.41-0.33,0.82-0.66,1.23-0.99c0.16-0.13,0.31-0.26,0.47-0.39
		c0.35-0.3,0.7-0.6,1.04-0.91c0.2-0.18,0.4-0.35,0.6-0.53c0.29-0.27,0.58-0.54,0.87-0.81c0.24-0.23,0.48-0.46,0.72-0.69
		c0.23-0.23,0.46-0.46,0.69-0.69c0.28-0.28,0.56-0.57,0.83-0.86c0.18-0.19,0.35-0.38,0.53-0.57c0.32-0.34,0.63-0.69,0.94-1.04
		c0.12-0.14,0.24-0.28,0.36-0.42c0.35-0.41,0.7-0.82,1.05-1.23c0.07-0.09,0.14-0.17,0.21-0.26c0.39-0.47,0.77-0.95,1.14-1.44
		c0.02-0.03,0.04-0.06,0.06-0.08c0.76-1,1.5-2.02,2.2-3.07c-0.01,0.05-0.02,0.11-0.03,0.16
		C537.35,237.59,537.74,212.05,525.4,192.15z"/>
</g>
<g>
	<g>
		<g>
			<path class="st4" d="M642.72,200.05c5.62-6.25,13.76-10.18,22.8-10.18c1.32,0,2.62,0.09,3.9,0.26l2.47-7.56
				c-2.07-0.35-4.2-0.54-6.37-0.54c-12.96,0-24.44,6.44-31.42,16.29L642.72,200.05z"/>
			<path class="st4" d="M650.08,247.01c-9.1-5.32-15.23-15.2-15.23-26.48c0-6.91,2.3-13.29,6.17-18.42l-8.33-1.68
				c-3.6,5.86-5.68,12.74-5.68,20.1c0,15.28,8.94,28.5,21.87,34.72L650.08,247.01z"/>
			<path class="st4" d="M663.05,251.09c-3.83-0.31-7.46-1.31-10.76-2.9l-1.17,8.04c4.45,1.8,9.31,2.8,14.4,2.8
				c0.62,0,1.24-0.02,1.86-0.05L663.05,251.09z"/>
		</g>
	</g>
	<path class="st87" d="M698.3,200.3l-0.03,0.01c-5.29-8.56-13.85-14.89-23.93-17.25l-2.55,7.46c8.98,1.87,16.51,7.67,20.74,15.51
		c0.01,0,0.02,0,0.03,0.01c3.45,6.41,4.45,13.79,3.01,20.76l-0.01,0c-0.91,4.37-2.75,8.39-5.31,11.86c0,0,0,0-0.01,0
		c-1.73,2.35-3.78,4.45-6.09,6.22c-0.17,0.13-0.35,0.26-0.53,0.39c-0.27,0.2-0.54,0.4-0.82,0.59c-0.28,0.19-0.56,0.37-0.84,0.55
		c-0.19,0.12-0.37,0.24-0.56,0.36c-0.34,0.2-0.68,0.4-1.02,0.59c-4.38,2.43-9.4,3.83-14.76,3.85l4.02,7.62
		c6.38-0.68,12.3-2.92,17.36-6.33c0.01-0.01,0.02-0.01,0.03-0.02c0.35-0.23,0.69-0.47,1.03-0.72c0.04-0.03,0.08-0.06,0.13-0.09
		c0.31-0.22,0.61-0.45,0.91-0.68c0.07-0.05,0.14-0.11,0.21-0.16c0.27-0.21,0.53-0.42,0.79-0.64c0.1-0.08,0.2-0.17,0.3-0.25
		c0.23-0.19,0.45-0.39,0.67-0.58c0.13-0.11,0.26-0.23,0.38-0.34c0.19-0.17,0.37-0.34,0.56-0.52c0.15-0.15,0.31-0.29,0.46-0.44
		c0.15-0.15,0.3-0.3,0.44-0.44c0.18-0.18,0.36-0.36,0.53-0.55c0.11-0.12,0.23-0.24,0.34-0.36c0.2-0.22,0.41-0.44,0.6-0.66
		c0.08-0.09,0.15-0.18,0.23-0.27c0.23-0.26,0.45-0.52,0.67-0.79c0.05-0.05,0.09-0.11,0.13-0.17c0.25-0.3,0.49-0.61,0.73-0.92
		c0.01-0.02,0.03-0.04,0.04-0.05c0.49-0.64,0.96-1.3,1.41-1.97c-0.01,0.03-0.01,0.07-0.02,0.11
		C705.96,229.42,706.21,213.06,698.3,200.3z"/>
</g>
<g>
	<g>
		<g>
			<path class="st87" d="M769.42,210.15c0.28-0.21,0.59-0.37,0.95-0.46c0.91-0.24,1.87-0.19,2.73-0.6c0.63-0.3,1.17-0.83,1.81-1.13
				c1.21-0.58,2.59-0.25,3.78,0.27c1.63,0.7,3.17,1.76,4.21,3.32c1.04,1.56,1.52,3.66,1,5.59c-0.76,2.81-3.41,4.56-5.97,5.09
				c-2.78,0.57-5.79-0.03-7.85-2.06c-1.39-1.37-2.26-3.42-2.31-5.53C767.74,213.01,768.19,211.08,769.42,210.15z"/>
			<path class="st87" d="M795.29,220.08c0,3.27-2.77,5.92-6.18,5.92c-3.41,0-6.18-2.65-6.18-5.92c0-3.27,2.77-5.92,6.18-5.92
				C792.53,214.16,795.29,216.81,795.29,220.08z"/>
			<path class="st87" d="M789.04,222.55c-1.09,0.1-2.16,0.25-3.18,0.53c-0.94,0.26-1.9,0.55-2.78,0.97
				c1.42-1.48,2.95-2.79,4.65-3.92c0.96-0.65,1.93-1.26,2.72-2.12c0.58-0.63,1.16-1.26,1.74-1.88c-0.16-0.09-0.55-0.4-0.72-0.38
				c-0.17,0.02-0.49,0.47-0.61,0.58c-0.78,0.74-1.55,1.53-2.41,2.18c-0.33,0.25-2.16,1.66-2.42,1.17c-0.17-0.32,0.05-1.3,0.25-2.02
				c-0.12,0.02-0.23,0.04-0.36,0.04c-0.15,0-0.29-0.02-0.42-0.04c-0.18,1-0.36,2.59-0.78,3.19c-0.86,1.22-2.28,1.88-3.15,3.1
				c0.05-1.51,0.07-3.02,0.14-4.53c0.05-1.22,0.24-2.45,0.71-3.58c0.44-1.07,1.02-2.07,1.46-3.15c0.05-0.13,0.4-0.77,0.35-0.91
				c-0.02-0.06-0.45-0.31-0.51-0.3c-0.28,0.06-0.79,1.38-0.91,1.62c-1,1.96-1.84,4.07-1.95,6.29c-0.27-1.65-0.51-3.36-1.08-4.94
				c-0.36-1.02-0.7-2.04-1.02-3.07c-0.08-0.24-0.14-0.88-0.32-1.07c-0.14-0.14-0.42-0.08-0.66-0.08c0.47,2.44,1.26,4.81,1.64,7.26
				c0.2,1.32,0.51,2.66,0.51,4c0,1-0.09,2-0.18,3c-2.04-0.91-4.4-1.67-6.16-3.06c-0.93-0.74-1.54-1.65-2.06-2.7
				c-0.18-0.37-0.37-1.21-0.67-1.47c-0.17-0.15-0.41-0.05-0.68-0.02c0.36,1.08,0.74,2.16,1.21,3.2c0.29,0.65,0.63,1.16,1.21,1.59
				c0.61,0.45,3.7,2.35,4.76,2.79c1.04,0.43,1.99,1.4,2.24,2.59c0.37,1.75,0.08,3.8-0.02,5.57c-0.08,1.41-0.16,2.82-0.25,4.22
				c-0.08,1.31,0.07,3.02-0.52,4.21h3.9c-0.45-0.61-0.4-1.56-0.45-2.28c-0.07-1.02-0.14-2.05-0.21-3.07
				c-0.12-1.91-0.28-3.83-0.28-5.75c0-1.05,0.08-2.08,0.37-3.1c0.33-1.16,0.76-1.8,1.88-2.32c1.57-0.73,3.32-1.21,5.05-1.44
				C789.05,223.14,789.04,222.85,789.04,222.55z"/>
			<circle class="st87" cx="771.49" cy="220.61" r="4.5"/>
			<path class="st87" d="M786.42,213.1c0.72-0.65,1.66-1.05,2.62-1.06c1.71-0.02,3.13,1.18,3.8,2.69c0.7,1.58-0.08,3.51-1.45,4.49
				c-1.34,0.97-3.31,0.96-4.64-0.01c-1.34-0.97-1.95-2.84-1.44-4.41C785.51,214.14,785.91,213.56,786.42,213.1z"/>
			<path class="st87" d="M789.4,206.65c0,0,4.03-1.28,5.87,2.52c1.34,2.77-0.29,5.3-1.67,5.88c-2.26,0.96-3.63-0.29-3.63-0.29
				s-1.53,2.99-5.4,3.61c-6.83,1.1-9.19-3.52-9.19-3.52s-1.63,0.88-3.96,0.44c-3.08-0.57-4.69-3.01-4.39-5.72
				c0.35-3.12,3.09-4.92,5.44-4.52c0,0,0.1-2.19,2.87-3.06c0.68-0.21,2.24-0.32,3.02,0.02c0,0,1.72-3.18,6.14-2.36
				C790.53,200.79,789.4,206.65,789.4,206.65z"/>
		</g>
		<path class="st87" d="M784.42,241.47c-0.06-1.22-0.43-2.16-1.83-2.16h-3.7c-1.36,0-1.71,0.94-1.78,2.16H784.42z"/>
	</g>
	<g>
		<g>
			<g>
				<path class="st4" d="M758.75,200.72c5.62-6.25,13.76-10.18,22.8-10.18c1.32,0,2.62,0.09,3.9,0.26l2.47-7.56
					c-2.07-0.35-4.2-0.54-6.37-0.54c-12.96,0-24.44,6.44-31.42,16.29L758.75,200.72z"/>
				<path class="st87" d="M766.11,247.68c-9.1-5.32-15.23-15.2-15.23-26.48c0-6.91,2.3-13.29,6.17-18.42l-8.33-1.68
					c-3.6,5.86-5.68,12.74-5.68,20.1c0,15.28,8.94,28.5,21.87,34.72L766.11,247.68z"/>
				<path class="st4" d="M779.08,251.76c-3.83-0.31-7.46-1.31-10.76-2.9l-1.17,8.04c4.45,1.8,9.31,2.8,14.4,2.8
					c0.62,0,1.24-0.02,1.86-0.05L779.08,251.76z"/>
			</g>
		</g>
		<path class="st4" d="M814.33,200.97l-0.03,0.01c-5.29-8.56-13.85-14.89-23.93-17.25l-2.55,7.46c8.98,1.87,16.51,7.67,20.74,15.51
			c0.01,0,0.02,0,0.03,0.01c3.45,6.41,4.45,13.79,3.01,20.76l-0.01,0c-0.91,4.37-2.75,8.39-5.31,11.86c0,0,0,0-0.01,0
			c-1.73,2.35-3.78,4.45-6.09,6.22c-0.17,0.13-0.35,0.26-0.53,0.39c-0.27,0.2-0.54,0.4-0.82,0.59c-0.28,0.19-0.56,0.37-0.84,0.55
			c-0.19,0.12-0.37,0.24-0.56,0.36c-0.34,0.2-0.68,0.4-1.02,0.59c-4.38,2.43-9.4,3.83-14.76,3.85l4.02,7.62
			c6.38-0.68,12.3-2.92,17.36-6.33c0.01-0.01,0.02-0.01,0.03-0.02c0.35-0.23,0.69-0.47,1.03-0.72c0.04-0.03,0.08-0.06,0.13-0.09
			c0.31-0.22,0.61-0.45,0.91-0.68c0.07-0.05,0.14-0.11,0.21-0.16c0.27-0.21,0.53-0.42,0.79-0.64c0.1-0.08,0.2-0.17,0.3-0.25
			c0.23-0.19,0.45-0.39,0.67-0.58c0.13-0.11,0.26-0.23,0.38-0.34c0.19-0.17,0.37-0.34,0.56-0.52c0.15-0.15,0.31-0.29,0.46-0.44
			c0.15-0.15,0.3-0.3,0.44-0.44c0.18-0.18,0.36-0.36,0.53-0.55c0.11-0.12,0.23-0.24,0.34-0.36c0.2-0.22,0.41-0.44,0.6-0.66
			c0.08-0.09,0.15-0.18,0.23-0.27c0.23-0.26,0.45-0.52,0.67-0.79c0.05-0.05,0.09-0.11,0.13-0.17c0.25-0.3,0.49-0.61,0.73-0.92
			c0.01-0.02,0.03-0.04,0.04-0.05c0.49-0.64,0.96-1.3,1.41-1.97c-0.01,0.03-0.01,0.07-0.02,0.11
			C821.99,230.09,822.24,213.72,814.33,200.97z"/>
	</g>
</g>
<g>
	<g>
		<path class="st32" d="M895.15,203.05v-2.73h-2.11c-0.07-0.92-0.38-1.6-1.45-1.6h-2.95c-1.04,0-1.34,0.69-1.41,1.6h-2.11v2.73
			H895.15z"/>
		<path class="st32" d="M893.05,235.23c-0.01-0.17-0.03-0.33-0.06-0.49l-0.02-0.17h-0.02c-0.15-0.63-0.53-1.07-1.38-1.07h-0.15
			v-23.55c0.99-0.48,1.73-1.49,1.88-2.71l0.29-2.41h-6.95l0.29,2.41c0.15,1.22,0.89,2.23,1.88,2.71v23.55h-0.2
			c-0.83,0-1.18,0.43-1.33,1.07h-0.02l-0.02,0.18c-0.03,0.15-0.04,0.31-0.05,0.48h0.01l-0.81,8.35h7.43L893.05,235.23L893.05,235.23
			z"/>
	</g>
	<g>
		<g>
			<g>
				<path class="st200" d="M866.87,200.72c5.62-6.25,13.76-10.18,22.8-10.18c1.32,0,2.62,0.09,3.9,0.26l2.47-7.56
					c-2.07-0.35-4.2-0.54-6.37-0.54c-12.96,0-24.44,6.44-31.42,16.29L866.87,200.72z"/>
				<path class="st4" d="M874.23,247.68c-9.1-5.32-15.23-15.2-15.23-26.48c0-6.91,2.3-13.29,6.17-18.42l-8.33-1.68
					c-3.6,5.86-5.68,12.74-5.68,20.1c0,15.28,8.94,28.5,21.87,34.72L874.23,247.68z"/>
				<path class="st4" d="M887.2,251.75c-3.83-0.31-7.46-1.31-10.76-2.9l-1.17,8.04c4.45,1.8,9.31,2.8,14.4,2.8
					c0.62,0,1.24-0.02,1.86-0.05L887.2,251.75z"/>
			</g>
		</g>
		<path class="st4" d="M922.45,200.97l-0.03,0.01c-5.29-8.56-13.85-14.89-23.93-17.25l-2.55,7.46c8.98,1.87,16.51,7.67,20.74,15.51
			c0.01,0,0.02,0,0.03,0.01c3.45,6.41,4.45,13.79,3.01,20.76l-0.01,0c-0.91,4.37-2.75,8.39-5.31,11.86c0,0,0,0-0.01,0
			c-1.73,2.35-3.78,4.45-6.09,6.22c-0.17,0.13-0.35,0.26-0.53,0.39c-0.27,0.2-0.54,0.4-0.82,0.59c-0.28,0.19-0.56,0.37-0.84,0.55
			c-0.19,0.12-0.37,0.24-0.56,0.36c-0.34,0.2-0.68,0.4-1.02,0.59c-4.38,2.43-9.4,3.83-14.76,3.85l4.02,7.62
			c6.38-0.68,12.3-2.92,17.36-6.33c0.01-0.01,0.02-0.01,0.03-0.02c0.35-0.23,0.69-0.47,1.03-0.72c0.04-0.03,0.08-0.06,0.13-0.09
			c0.31-0.22,0.61-0.45,0.91-0.68c0.07-0.05,0.14-0.11,0.21-0.16c0.27-0.21,0.53-0.42,0.79-0.64c0.1-0.08,0.2-0.17,0.3-0.25
			c0.23-0.19,0.45-0.39,0.67-0.58c0.13-0.11,0.26-0.23,0.38-0.34c0.19-0.17,0.37-0.34,0.56-0.52c0.15-0.15,0.31-0.29,0.46-0.44
			c0.15-0.15,0.3-0.3,0.44-0.44c0.18-0.18,0.36-0.36,0.54-0.55c0.11-0.12,0.23-0.24,0.34-0.36c0.2-0.22,0.41-0.44,0.6-0.66
			c0.08-0.09,0.15-0.18,0.23-0.27c0.23-0.26,0.45-0.52,0.67-0.79c0.05-0.05,0.09-0.11,0.13-0.17c0.25-0.3,0.49-0.61,0.73-0.92
			c0.01-0.02,0.03-0.04,0.04-0.05c0.49-0.64,0.96-1.3,1.41-1.97c-0.01,0.03-0.01,0.07-0.02,0.11
			C930.11,230.09,930.36,213.72,922.45,200.97z"/>
	</g>
</g>
<path class="st27" d="M697.96,164.35h-66.62c-4.68,0-8.48-3.79-8.48-8.48v-18.52c0-4.68,3.79-8.48,8.48-8.48h66.62
	c4.68,0,8.48,3.79,8.48,8.48v18.52C706.43,160.56,702.64,164.35,697.96,164.35z"/>
<polygon class="st27" points="654.83,159.55 673.62,159.77 664.03,175.94 "/>
<rect x="634.22" y="139.72" class="st78" width="68.2" height="17.1"/>
<text transform="matrix(1 0 0 1 634.2167 151.6299)" class="st14 st204 st205">Not good!</text>
<path class="st27" d="M816.71,164.35h-66.62c-4.68,0-8.48-3.79-8.48-8.48v-18.52c0-4.68,3.79-8.48,8.48-8.48h66.62
	c4.68,0,8.48,3.79,8.48,8.48v18.52C825.18,160.56,821.39,164.35,816.71,164.35z"/>
<polygon class="st27" points="773.58,159.55 792.37,159.77 782.78,175.94 "/>
<rect x="752.97" y="139.72" class="st78" width="68.2" height="17.1"/>
<text transform="matrix(1 0 0 1 752.9695 151.6299)" class="st14 st204 st205">38 % …</text>
<path class="st31" d="M929.22,165.74h-75.95c-4.68,0-8.48-3.79-8.48-8.48v-18.52c0-4.68,3.79-8.48,8.48-8.48h75.95
	c4.68,0,8.48,3.79,8.48,8.48v18.52C937.7,161.94,933.9,165.74,929.22,165.74z"/>
<polygon class="st31" points="883.79,160.93 902.59,161.16 893,177.32 "/>
<rect x="854.27" y="141.11" class="st78" width="78.08" height="17.1"/>
<text transform="matrix(1 0 0 1 854.2675 153.0166)" class="st14 st204 st205">Good news!</text>
<rect x="351.95" y="216.35" class="st78" width="32" height="14.21"/>
<text transform="matrix(1 0 0 1 351.951 225.5755)" class="st14 st204 st209">Input</text>
<g>
	<g>
		<path class="st96" d="M587.07,207.99v4.93h-31.12c-1.71,0-3.1,1.39-3.1,3.1v12.4c0,1.7,1.39,3.1,3.1,3.1l31.12,0v4.93
			c0,2.76,3.35,4.15,5.3,2.2l14.23-14.23c1.21-1.21,1.21-3.16,0-4.37l-14.23-14.23C590.42,203.86,587.07,205.23,587.07,207.99z"/>
	</g>
</g>
<rect x="558.64" y="216.35" class="st78" width="40.97" height="14.21"/>
<text transform="matrix(1 0 0 1 558.639 225.5755)" class="st14 st204 st209">Output</text>
</svg>
