<?xml version="1.0" encoding="utf-8"?>
<!-- Generator: Adobe Illustrator 27.2.0, SVG Export Plug-In . SVG Version: 6.00 Build 0)  -->
<svg version="1.1" id="Ebene_1" xmlns="http://www.w3.org/2000/svg" xmlns:xlink="http://www.w3.org/1999/xlink" x="0px" y="0px"
	 viewBox="0 0 967.13 468.92" style="enable-background:new 0 0 967.13 468.92;" xml:space="preserve">
<style type="text/css">
	.st0{opacity:0.4;fill:#60748C;}
	.st1{opacity:0.75;fill:#60748C;}
	.st2{fill:#ECECEC;}
	.st3{opacity:0.1;}
	.st4{opacity:0.3;fill:#5B7188;}
	.st5{fill:#60748C;}
	.st6{opacity:0.3;fill:none;stroke:#5B7188;stroke-width:13;stroke-miterlimit:10;}
	.st7{opacity:0.7;fill:#60748C;}
	.st8{fill:#A4C748;}
	.st9{fill:none;stroke:#FFFFFF;stroke-width:5;stroke-miterlimit:10;}
	.st10{fill:#A3C648;}
	.st11{opacity:0.25;fill:#60748C;}
	.st12{opacity:0.34;fill:#60748C;}
	.st13{stroke:#FFFFFF;stroke-width:0.5;stroke-miterlimit:10;}
	.st14{fill:#FFFFFF;}
	.st15{fill:#EDEDED;}
	.st16{opacity:0.1;fill:#546579;stroke:#60748C;stroke-width:1.0251;stroke-miterlimit:10;}
	.st17{opacity:0.1;fill:#546579;stroke:#282F39;stroke-width:1.0251;stroke-miterlimit:10;}
	.st18{opacity:0.1;fill:#546579;stroke:#546579;stroke-width:1.0251;stroke-miterlimit:10;}
	.st19{fill:#60748C;stroke:#60748C;stroke-width:0.9491;stroke-miterlimit:10;}
	.st20{fill:#282F39;}
	.st21{fill:#45AD4B;stroke:#45AD4B;stroke-width:0.8985;stroke-miterlimit:10;}
	.st22{fill:#6DC5D8;stroke:#6DC5D8;stroke-width:0.9491;stroke-miterlimit:10;}
	.st23{fill:#282F39;stroke:#FFFFFF;stroke-width:1.0437;stroke-miterlimit:10;}
	.st24{fill:#45AD4B;stroke:#45AD4B;stroke-width:0.9491;stroke-miterlimit:10;}
	.st25{fill:#45AD4B;stroke:#45AD4B;stroke-width:0.9119;stroke-miterlimit:10;}
	.st26{fill:#C1252D;stroke:#C1252D;stroke-width:0.9491;stroke-miterlimit:10;}
	.st27{fill:#C1252D;}
	.st28{fill:#C1252D;stroke:#C1252D;stroke-width:1.0339;stroke-miterlimit:10;}
	.st29{fill:#C1252D;stroke:#C1252D;stroke-width:0.8834;stroke-miterlimit:10;}
	.st30{fill:none;stroke:#282F39;stroke-width:2;stroke-linecap:round;stroke-linejoin:round;stroke-miterlimit:10;}
	.st31{fill:#45AD4B;}
	.st32{fill:#45AB4B;}
	.st33{fill:#6DC5D8;}
	.st34{fill:#5B7188;}
	.st35{fill:#97A2AF;}
	.st36{fill:#BABBBC;}
	.st37{fill:#5B7185;}
	.st38{fill:#A0C348;}
	.st39{fill:#45A84B;}
	.st40{fill:#BC252D;}
	.st41{fill:#6DC0D3;}
	.st42{fill:none;stroke:#C7D3D7;stroke-miterlimit:10;}
	.st43{opacity:0.1;fill:#757577;}
	.st44{fill:none;stroke:#FFFFFF;stroke-miterlimit:10;}
	.st45{opacity:0.6;}
	.st46{fill:#F1F3F4;}
	.st47{fill:none;stroke:#F1F3F4;stroke-miterlimit:10;}
	.st48{fill:#E8EAED;}
	.st49{fill:#F1F1F1;}
	.st50{fill:#646768;}
	.st51{opacity:0.25;fill:#757577;}
	.st52{fill:none;stroke:#6DC5D8;stroke-width:3;stroke-miterlimit:10;}
	.st53{fill:none;stroke:#C1252D;stroke-width:3;stroke-miterlimit:10;}
	.st54{fill:none;stroke:#45AD4B;stroke-width:3;stroke-miterlimit:10;}
	.st55{fill:#E7E7E7;}
	.st56{clip-path:url(#SVGID_00000060003771565705952580000009127146421791404955_);}
	.st57{clip-path:url(#SVGID_00000060003771565705952580000009127146421791404955_);fill:#F1F1F1;}
	.st58{clip-path:url(#SVGID_00000155850456869237586130000014552429225133647509_);}
	.st59{fill:#FEF9E8;}
	.st60{fill:#CEEAD6;}
	.st61{fill:#FCE8E6;}
	.st62{fill:none;stroke:#9CC0F9;stroke-width:3;stroke-miterlimit:10;}
	.st63{fill:none;stroke:#9CC0F9;stroke-miterlimit:10;}
	.st64{opacity:0.5;fill:#757577;}
	.st65{clip-path:url(#SVGID_00000060003771565705952580000009127146421791404955_);fill:#FFFFFF;}
	.st66{fill:none;stroke:#C1252D;stroke-width:9;stroke-miterlimit:10;}
	.st67{fill:none;stroke:#E7E7E7;stroke-width:9;stroke-miterlimit:10;}
	.st68{fill:none;stroke:#FFFFFF;stroke-width:3;stroke-miterlimit:10;}
	.st69{fill:none;stroke:#45AD4B;stroke-width:9;stroke-miterlimit:10;}
	.st70{fill:none;stroke:#6DC5D8;stroke-width:1.5;stroke-miterlimit:10;}
	.st71{opacity:0.25;clip-path:url(#SVGID_00000060003771565705952580000009127146421791404955_);fill:#757577;}
	.st72{fill:#292929;}
	.st73{fill-rule:evenodd;clip-rule:evenodd;}
	.st74{fill:#FF7578;}
	.st75{fill:#FFC9CA;}
	.st76{fill:#173042;}
	.st77{fill:#946B6B;}
	.st78{fill:none;}
	.st79{fill:#FFFFFF;stroke:#FFFFFF;stroke-width:7;stroke-miterlimit:10;}
	.st80{fill:#444444;}
	.st81{fill:#F73103;}
	.st82{fill:#FFBB39;}
	.st83{fill:#398229;}
	.st84{fill:#DE0505;}
	.st85{fill:#FF804E;}
	.st86{fill:#7ED668;}
	.st87{fill:#BF252D;}
	.st88{fill:#D4894D;}
	.st89{fill:#AD5512;}
	.st90{fill:#FF00FF;}
	.st91{fill:#FF3D75;}
	.st92{fill:#F28E1E;}
	.st93{fill:#2B6E53;}
	.st94{fill:#399150;}
	.st95{fill:#6A4A1D;}
	.st96{fill:#6DC3D6;}
	.st97{clip-path:url(#SVGID_00000013191687510677933450000013756928330215392409_);}
	.st98{clip-path:url(#SVGID_00000181056839588348450090000016888767699347242424_);}
	.st99{fill:#333333;}
	.st100{fill:url(#SVGID_00000119098880365306748010000014805505616851354529_);}
	.st101{fill:url(#SVGID_00000183933284688767860370000011185006734790633919_);}
	.st102{opacity:0.08;}
	.st103{fill:url(#SVGID_00000102541292955488253910000006617429701267154345_);}
	.st104{fill-rule:evenodd;clip-rule:evenodd;fill:#1A1A1A;}
	.st105{fill:#1A1A1A;}
	.st106{fill-rule:evenodd;clip-rule:evenodd;fill:#60748C;}
	.st107{fill:#FCEED7;}
	.st108{fill:#FBD18B;}
	.st109{fill:#DEE1E5;}
	.st110{fill:#ED8D80;}
	.st111{fill:#E97361;}
	.st112{fill:#AE5649;}
	.st113{fill:#CACED5;}
	.st114{fill:#A8B0BB;}
	.st115{fill:#CACFD7;}
	.st116{fill:#EABF9A;}
	.st117{fill:#E4E7EB;}
	.st118{fill:#69D4F2;}
	.st119{fill:#B2DB7F;}
	.st120{fill:#9ED268;}
	.st121{fill:#F8F8F8;}
	.st122{fill:#F0F0F0;}
	.st123{fill:#738DBD;}
	.st124{fill:#E46D67;}
	.st125{fill:#24C1F0;}
	.st126{fill:#36B183;}
	.st127{fill:#FFB866;}
	.st128{fill:#FFD873;}
	.st129{fill-rule:evenodd;clip-rule:evenodd;fill:#485156;}
	.st130{fill:#58595B;}
	.st131{fill:#BF252D;stroke:#BF252D;stroke-width:2;stroke-miterlimit:10;}
	.st132{fill:#FFFFFF;stroke:#BF252D;stroke-width:4;stroke-linecap:round;stroke-linejoin:round;stroke-miterlimit:10;}
	.st133{fill-rule:evenodd;clip-rule:evenodd;fill:#BF252D;}
	.st134{fill:none;stroke:#FFFFFF;stroke-miterlimit:10;stroke-dasharray:1.0108,1.0108;}
	.st135{fill:none;stroke:#45AD4B;stroke-width:4;stroke-miterlimit:10;}
	.st136{fill:none;stroke:#C1252D;stroke-width:4;stroke-miterlimit:10;}
	.st137{opacity:0.2;fill:#45AD4B;}
	.st138{opacity:0.6;fill:#45AD4B;}
	.st139{fill:#44A049;}
	.st140{clip-path:url(#SVGID_00000158720605613120760880000018377047806947622801_);}
	.st141{opacity:0.5;fill:#45AD4B;}
	.st142{opacity:0.2;fill:#E7E7E7;}
	.st143{opacity:0.5;fill:#E7E7E7;}
	.st144{opacity:0.5;fill:#FFFFFF;}
	.st145{opacity:0.2;fill:#6DC5D8;}
	.st146{fill:none;stroke:#FFFFFF;stroke-width:2.5;stroke-miterlimit:10;}
	.st147{fill:none;stroke:#BF252D;stroke-width:5;stroke-miterlimit:10;}
	.st148{fill:#BF252D;stroke:#FFFFFF;stroke-width:3;stroke-miterlimit:10;}
	.st149{fill:#FFFFFF;stroke:#FFFFFF;stroke-width:5.5;stroke-miterlimit:10;}
	.st150{fill:none;stroke:#BF252D;stroke-width:3;stroke-miterlimit:10;}
	.st151{fill:#BF252D;stroke:#FFFFFF;stroke-width:4.5;stroke-miterlimit:10;}
	.st152{fill:#BF252D;stroke:#FFFFFF;stroke-miterlimit:10;}
	.st153{fill:#F7E921;}
	.st154{fill:#6E81B5;}
	.st155{fill:#466087;}
	.st156{fill:#FFAEA8;}
	.st157{fill:#FFE152;}
	.st158{fill:#96C869;}
	.st159{fill:#ADB3BD;}
	.st160{fill:#CACED8;}
	.st161{fill:#40CAEF;}
	.st162{fill:#276F80;}
	.st163{fill:#878F9E;}
	.st164{fill:#EEF0F3;}
	.st165{fill:#1E505B;}
	.st166{fill:#9C80EA;}
	.st167{fill:#FAC955;}
	.st168{clip-path:url(#SVGID_00000144331845493240918600000017743920081347195540_);}
	.st169{fill:#E5EAEB;}
	.st170{fill:#ADB4B9;}
	.st171{fill:#495D72;}
	.st172{fill:#28384C;}
	.st173{fill:#E9B816;}
	.st174{fill:#DB352E;}
	.st175{fill:#366DB4;}
	.st176{fill:#753489;}
	.st177{fill:#57A9BF;}
	.st178{fill:#25AC86;}
	.st179{fill:#F56363;}
	.st180{fill:#BD5A45;}
	.st181{fill:#F0EABD;}
	.st182{fill:#EB8819;}
	.st183{fill:#C3411E;}
	.st184{fill:#205B75;}
	.st185{fill:#C8D9E8;}
	.st186{fill:#A9B9CA;}
	.st187{fill:#114559;}
	.st188{fill:#DFE8F2;}
	.st189{fill:#E3B933;}
	.st190{fill:#E96374;}
	.st191{fill:#80EAFF;}
	.st192{fill:#FFFFFF;stroke:#C1252D;stroke-width:7;stroke-miterlimit:10;}
	.st193{fill:#FFFFFF;stroke:#45AD4B;stroke-width:7;stroke-miterlimit:10;}
	.st194{fill:#B4BCBD;}
	.st195{fill:#CED7DA;}
	.st196{fill:none;stroke:#45AD4B;stroke-width:2;stroke-miterlimit:10;}
	.st197{fill:#6DC3D6;stroke:#FFFFFF;stroke-width:0.1;stroke-miterlimit:10;}
	.st198{fill:#C1252D;stroke:#FFFFFF;stroke-width:0.1;stroke-miterlimit:10;}
	.st199{fill:#A3C648;stroke:#FFFFFF;stroke-width:0.1;stroke-miterlimit:10;}
	.st200{fill:#45AB4B;stroke:#FFFFFF;stroke-width:0.1;stroke-miterlimit:10;}
	.st201{fill:none;stroke:#60748C;stroke-linecap:round;stroke-linejoin:round;stroke-miterlimit:10;stroke-dasharray:2,4;}
	.st202{font-family:'Yummo-Bold';}
	.st203{font-size:16.7771px;}
	.st204{fill:#566469;}
	.st205{font-size:21px;}
	.st206{fill:#F0F0F0;stroke:#C1252D;stroke-width:7;stroke-miterlimit:10;}
	.st207{fill:#F0F0F0;stroke:#45AD4B;stroke-width:7;stroke-miterlimit:10;}
	.st208{opacity:0.3;}
	.st209{fill:#EDEDED;stroke:#C1252D;stroke-width:6;stroke-miterlimit:10;}
	.st210{fill:#5B7188;stroke:#EDEDED;stroke-miterlimit:10;}
	.st211{fill:#EDEDED;stroke:#45AD4B;stroke-width:6;stroke-miterlimit:10;}
	.st212{fill:#FFFFFF;stroke:#C1252D;stroke-width:6;stroke-miterlimit:10;}
	.st213{fill:#FFFFFF;stroke:#45AD4B;stroke-width:6;stroke-miterlimit:10;}
	.st214{fill:none;stroke:#6DC5D8;stroke-linecap:round;stroke-linejoin:round;}
	.st215{fill:none;stroke:#6DC5D8;stroke-linecap:round;stroke-linejoin:round;stroke-dasharray:4.8937,7.8299;}
	.st216{fill:none;stroke:#6DC5D8;stroke-linecap:round;stroke-linejoin:round;stroke-dasharray:5.1322,8.2115;}
	.st217{fill:none;stroke:#6DC5D8;stroke-linecap:round;stroke-linejoin:round;stroke-miterlimit:10;stroke-dasharray:5,8;}
	.st218{fill:#45AC4B;}
	.st219{fill:#C0252D;}
	.st220{fill:#6DC4D7;}
	.st221{fill:#5B7189;}
	.st222{fill:none;stroke:#60748C;stroke-width:1.5;stroke-miterlimit:10;}
	.st223{opacity:0.4;}
	.st224{fill:none;stroke:#60748C;stroke-width:2;stroke-linecap:round;stroke-linejoin:round;stroke-miterlimit:10;}
	.st225{opacity:0.54;fill:#FFFFFF;}
	.st226{clip-path:url(#SVGID_00000076604727424526432640000009565018963930627746_);}
	.st227{opacity:0.5;fill:#5B7188;}
	.st228{opacity:0.1;fill:#60748C;}
	.st229{clip-path:url(#SVGID_00000115501503666139732190000006719794387068996499_);}
	.st230{display:none;}
	.st231{display:inline;fill:#FFFFFF;}
	.st232{display:inline;fill:#090C11;}
	.st233{display:inline;fill:#4A596E;}
	.st234{fill:#546579;}
	.st235{fill:#6F88A6;}
	.st236{opacity:0.1;fill:none;stroke:#FFFFFF;stroke-miterlimit:10;}
	.st237{display:none;fill:#6DC5D8;}
	.st238{opacity:0.45;fill:#60748C;}
	.st239{opacity:0.03;clip-path:url(#SVGID_00000103239133315497033510000008146993035528695168_);}
	.st240{clip-path:url(#SVGID_00000103239133315497033510000008146993035528695168_);}
	
		.st241{clip-path:url(#SVGID_00000103239133315497033510000008146993035528695168_);fill:#FFFFFF;stroke:#60748C;stroke-width:1.5;stroke-miterlimit:10;}
	.st242{opacity:0.4;clip-path:url(#SVGID_00000103239133315497033510000008146993035528695168_);}
	.st243{clip-path:url(#SVGID_00000099651479911275408950000017924602198496689067_);}
	.st244{opacity:0.05;clip-path:url(#SVGID_00000099651479911275408950000017924602198496689067_);}
	.st245{fill:#575756;}
	
		.st246{clip-path:url(#SVGID_00000099651479911275408950000017924602198496689067_);fill:#FFFFFF;stroke:#60748C;stroke-width:1.5;stroke-miterlimit:10;}
	.st247{opacity:0.4;clip-path:url(#SVGID_00000099651479911275408950000017924602198496689067_);}
	.st248{fill:#FFFFFF;stroke:#60748C;stroke-width:1.5;stroke-miterlimit:10;}
	.st249{fill:#A5C848;}
	.st250{opacity:0.2;}
	.st251{clip-path:url(#SVGID_00000160148504807748056650000003427397340424011923_);}
	.st252{clip-path:url(#SVGID_00000129916155063507643810000013646600773779697559_);}
	.st253{fill:none;stroke:#60748C;stroke-width:3;stroke-miterlimit:10;}
	.st254{fill:#EDEDED;stroke:#C0252D;stroke-width:3;stroke-miterlimit:10;}
	.st255{clip-path:url(#SVGID_00000140014179035930706180000009827416845427861655_);}
	.st256{opacity:0.1;fill:#546579;}
	.st257{opacity:0.05;}
	.st258{fill:#606060;}
	.st259{opacity:0.15;}
	.st260{opacity:0.5;}
	.st261{fill:#535353;}
	.st262{opacity:0.7;}
	.st263{filter:url(#Adobe_OpacityMaskFilter);}
	.st264{filter:url(#Adobe_OpacityMaskFilter_00000062174368975623872590000017195974184893420674_);}
	
		.st265{mask:url(#SVGID_00000087369921868789758900000002614332843057418919_);fill:url(#SVGID_00000133493339631272584450000010748998070633162400_);}
	.st266{filter:url(#Adobe_OpacityMaskFilter_00000175314734029151876550000007019532661404273026_);}
	.st267{filter:url(#Adobe_OpacityMaskFilter_00000103261624639215343210000011269272719167724205_);}
	
		.st268{mask:url(#SVGID_00000177486785008773634790000015905880030126333334_);fill:url(#SVGID_00000005983282144266375220000007963272730226272129_);}
	.st269{filter:url(#Adobe_OpacityMaskFilter_00000044874645053844621260000007955630812921867401_);}
	.st270{filter:url(#Adobe_OpacityMaskFilter_00000037685711081257556080000008649636830620092855_);}
	
		.st271{mask:url(#SVGID_00000129910595154692032030000000966450703411934627_);fill:url(#SVGID_00000103943744127099983340000005317084136934810547_);}
	.st272{filter:url(#Adobe_OpacityMaskFilter_00000114035168060986428130000011990543802050931899_);}
	.st273{filter:url(#Adobe_OpacityMaskFilter_00000118362079033253833970000015578501617182037438_);}
	
		.st274{mask:url(#SVGID_00000132059669208810661260000010961138546272739513_);fill:url(#SVGID_00000048485330082864756030000002240559167306035855_);}
	.st275{filter:url(#Adobe_OpacityMaskFilter_00000137116134494035950930000018137283776315639168_);}
	.st276{filter:url(#Adobe_OpacityMaskFilter_00000183964474321307580990000006043433427166455201_);}
	
		.st277{mask:url(#SVGID_00000124128996915649647520000001689102686287703172_);fill:url(#SVGID_00000127041627325616485240000017835819906631205777_);}
	.st278{filter:url(#Adobe_OpacityMaskFilter_00000131327644640993172640000008099475937095635072_);}
	.st279{filter:url(#Adobe_OpacityMaskFilter_00000036951913029430380040000006276100173520247428_);}
	
		.st280{mask:url(#SVGID_00000042006577083571083510000005384917957981056149_);fill:url(#SVGID_00000143575121628606851770000001878992978894406330_);}
	.st281{filter:url(#Adobe_OpacityMaskFilter_00000163062367663886086630000013871530201940300183_);}
	.st282{filter:url(#Adobe_OpacityMaskFilter_00000114046645791982126250000011241724431319663500_);}
	
		.st283{mask:url(#SVGID_00000077295050284694576730000017155768824989429410_);fill:url(#SVGID_00000154396081554471483450000009858060990740065716_);}
	.st284{opacity:0.8;}
	.st285{filter:url(#Adobe_OpacityMaskFilter_00000045621133929192690840000004357663285848340106_);}
	.st286{filter:url(#Adobe_OpacityMaskFilter_00000072254285778835820630000005780540801355262874_);}
	
		.st287{mask:url(#SVGID_00000133522636228981366550000016339085516890546343_);fill:url(#SVGID_00000031209298286725657880000016375725077258056080_);}
	.st288{fill:none;stroke:#1A1A1A;stroke-width:4;stroke-miterlimit:10;}
	.st289{fill:none;stroke:#60748C;stroke-width:4;stroke-miterlimit:10;}
	.st290{fill:#FFFFFF;stroke:#60748C;stroke-width:3;stroke-miterlimit:10;}
	.st291{fill:#FFFFFF;stroke:#6DC5D8;stroke-width:3;stroke-miterlimit:10;}
	.st292{fill:#6DC5D8;stroke:#FFFFFF;stroke-width:3;stroke-miterlimit:10;}
	.st293{opacity:0.25;}
	.st294{fill:#757577;}
	.st295{fill:#AEAEAE;}
	.st296{fill:#C1252D;stroke:#FFFFFF;stroke-width:3;stroke-miterlimit:10;}
	.st297{fill:#1A1A1A;stroke:#FFFFFF;stroke-width:3;stroke-miterlimit:10;}
	.st298{fill:none;stroke:#000000;stroke-width:10;stroke-linecap:round;stroke-miterlimit:10;}
	.st299{fill:none;stroke:#45AD4B;stroke-width:6;stroke-miterlimit:10;}
	.st300{fill:none;stroke:#6DC5D8;stroke-width:6;stroke-miterlimit:10;}
	.st301{fill:none;stroke:#60748C;stroke-width:6;stroke-miterlimit:10;}
	.st302{fill:none;stroke:#000000;stroke-width:6;stroke-miterlimit:10;}
	.st303{fill:#60748C;stroke:#FFFFFF;stroke-width:4;stroke-miterlimit:10;}
	.st304{fill:none;stroke:#000000;stroke-width:7;stroke-linecap:round;stroke-miterlimit:10;}
	.st305{fill-rule:evenodd;clip-rule:evenodd;fill:none;stroke:#000000;stroke-width:4;stroke-miterlimit:10;}
	.st306{fill:none;stroke:#000000;stroke-width:4;stroke-miterlimit:10;}
	.st307{fill:none;stroke:#000000;stroke-width:4;stroke-linecap:round;stroke-miterlimit:10;}
	.st308{fill-rule:evenodd;clip-rule:evenodd;stroke:#FFFFFF;stroke-miterlimit:10;}
	.st309{fill:#949494;}
	.st310{clip-path:url(#SVGID_00000023245427091156033860000000608249580571044996_);}
	.st311{fill:#1A1A1A;stroke:#1A1A1A;stroke-miterlimit:10;}
	.st312{stroke:#000000;stroke-miterlimit:10;}
	.st313{clip-path:url(#SVGID_00000098178552547369645070000002317819573376671902_);}
	.st314{fill:#60748C;stroke:#60748C;stroke-miterlimit:10;}
	.st315{fill:#728499;}
	.st316{opacity:0.4;fill:#BF252D;}
	.st317{opacity:0.75;fill:#BF252D;}
	.st318{fill:#C7C7C7;}
	.st319{opacity:0.23;}
	.st320{opacity:0.2;fill:#5B7188;}
	.st321{fill:none;stroke:#FFFFFF;stroke-width:6;stroke-miterlimit:10;}
	.st322{fill:#BF252D;stroke:#FFFFFF;stroke-width:6;stroke-miterlimit:10;}
	.st323{opacity:0.3;fill:#BF252D;}
	.st324{opacity:0.7;fill:#BF252D;}
	.st325{opacity:0.5;fill:#BF252D;}
	.st326{opacity:0.2;fill:#BF252D;}
	.st327{fill:#BF252D;stroke:#FFFFFF;stroke-width:5;stroke-miterlimit:10;}
	.st328{opacity:0.53;fill:#52717F;}
	.st329{opacity:0.36;fill:#60748C;}
	.st330{opacity:0.31;fill:#60748C;}
	.st331{opacity:0.45;fill:#6DC5D8;}
	.st332{fill:#E81C24;}
	.st333{fill:#D4DB21;}
	.st334{fill:#F6AB3B;}
	.st335{opacity:0.8;fill:#60748C;}
	.st336{opacity:0.61;fill:#60748C;}
	.st337{opacity:0.12;fill:#6DC5D8;}
	.st338{fill:none;stroke:#6DC5D8;stroke-width:4;stroke-miterlimit:10;}
	.st339{fill:none;stroke:#A4C748;stroke-width:4;stroke-miterlimit:10;}
	.st340{fill:#C1252D;stroke:#C1252D;stroke-width:4;stroke-miterlimit:10;}
	.st341{fill:none;stroke:#FFFFFF;stroke-width:2;stroke-linecap:round;stroke-miterlimit:10;stroke-dasharray:3.9843,5.9765;}
	.st342{fill:none;stroke:#60748C;stroke-width:3;stroke-linecap:round;stroke-miterlimit:10;stroke-dasharray:0.4961,6.945;}
	.st343{fill:none;stroke:#FFFFFF;stroke-width:2;stroke-linecap:round;stroke-miterlimit:10;stroke-dasharray:4.0153,6.023;}
	.st344{fill:none;stroke:#60748C;stroke-width:3;stroke-linecap:round;stroke-miterlimit:10;stroke-dasharray:0.4971,6.9599;}
	.st345{opacity:0.47;fill:#60748C;}
	.st346{fill:none;stroke:#D01519;stroke-miterlimit:10;}
	.st347{clip-path:url(#SVGID_00000167397388360874223710000013000574712036817821_);}
	.st348{clip-path:url(#SVGID_00000159441131000440534210000012588940612399156383_);}
	.st349{fill:#ECECEC;stroke:#FFFFFF;stroke-width:10;stroke-miterlimit:10;}
	.st350{clip-path:url(#SVGID_00000161611368074201416770000006519583418266520732_);}
	.st351{clip-path:url(#SVGID_00000024000918605096829340000002398556274057811877_);}
	.st352{clip-path:url(#SVGID_00000129911053549342533380000003356717124511515836_);}
	.st353{clip-path:url(#SVGID_00000057828389538467198470000009015944920415381644_);}
	.st354{fill:none;stroke:#5B7188;stroke-width:3;stroke-miterlimit:10;stroke-dasharray:9,8;}
	.st355{clip-path:url(#SVGID_00000088829417461929653010000015178317262899613873_);}
	.st356{clip-path:url(#SVGID_00000058574255525831759990000000052256062128870288_);}
	.st357{fill:none;stroke:#E1E1E1;stroke-width:4;stroke-linecap:round;stroke-miterlimit:10;}
	.st358{fill:none;stroke:#000000;stroke-width:5;stroke-miterlimit:10;}
	.st359{fill:none;stroke:#000000;stroke-width:5;stroke-linecap:round;stroke-miterlimit:10;}
	.st360{fill:none;stroke:#E1E1E1;stroke-width:10;stroke-miterlimit:10;}
	.st361{fill:none;stroke:#A4C748;stroke-width:5;stroke-miterlimit:10;}
	.st362{fill:#A4C748;stroke:#FFFFFF;stroke-width:3;stroke-miterlimit:10;}
	.st363{fill:none;stroke:#E1E1E1;stroke-width:10;stroke-linecap:round;stroke-miterlimit:10;}
	.st364{fill:#60748C;stroke:#FFFFFF;stroke-width:5;stroke-miterlimit:10;}
	.st365{fill:#5B7188;stroke:#FFFFFF;stroke-width:5;stroke-miterlimit:10;}
	.st366{fill:#E1E1E1;}
	.st367{fill:none;stroke:#000000;stroke-width:7;stroke-linecap:round;stroke-linejoin:round;stroke-miterlimit:10;}
	.st368{fill:none;stroke:#000000;stroke-width:3;stroke-linecap:round;stroke-linejoin:round;stroke-miterlimit:10;}
	.st369{fill:none;stroke:#000000;stroke-width:6;stroke-linecap:round;stroke-linejoin:round;stroke-miterlimit:10;}
	.st370{fill:none;stroke:#000000;stroke-width:15;stroke-linecap:round;stroke-linejoin:round;stroke-miterlimit:10;}
	.st371{opacity:0.15;fill:#60748C;}
	.st372{opacity:0.37;fill:#60748C;}
	.st373{fill:none;stroke:#333E4C;stroke-width:6;stroke-linecap:round;stroke-linejoin:round;stroke-miterlimit:10;}
	.st374{fill:#EDEDED;stroke:#333E4C;stroke-miterlimit:10;}
	.st375{fill:none;stroke:#333E4C;stroke-width:7;stroke-linecap:round;stroke-linejoin:round;stroke-miterlimit:10;}
	.st376{fill:#5B7188;stroke:#FFFFFF;stroke-miterlimit:10;}
</style>
<g>
	<circle class="st122" cx="297.39" cy="137.13" r="55.88"/>
	<rect x="257.57" y="166.04" class="st78" width="79.63" height="18.2"/>
	<text transform="matrix(1 0 0 1 283.1586 177.9506)" class="st5 st202 st203">Tree</text>
	<g>
		<g>
			<path class="st34" d="M278.81,107.45c0.46-0.35,0.98-0.61,1.57-0.76c1.49-0.39,3.08-0.31,4.5-0.99c1.05-0.5,1.93-1.37,2.98-1.87
				c2-0.96,4.26-0.41,6.23,0.44c2.69,1.16,5.22,2.91,6.94,5.48c1.71,2.57,2.51,6.04,1.65,9.21c-1.25,4.63-5.62,7.53-9.85,8.4
				c-4.58,0.94-9.54-0.05-12.95-3.39c-2.29-2.25-3.72-5.64-3.8-9.13C276.03,112.18,276.78,108.99,278.81,107.45z"/>
			<path class="st34" d="M321.48,123.83c0,5.39-4.56,9.76-10.19,9.76c-5.63,0-10.19-4.37-10.19-9.76c0-5.39,4.56-9.76,10.19-9.76
				C316.91,114.07,321.48,118.44,321.48,123.83z"/>
			<path class="st34" d="M311.16,127.92c-1.79,0.16-3.56,0.41-5.24,0.87c-1.55,0.43-3.13,0.91-4.59,1.6
				c2.34-2.44,4.86-4.59,7.67-6.47c1.59-1.06,3.19-2.08,4.49-3.5c0.95-1.04,1.91-2.08,2.87-3.11c-0.27-0.14-0.91-0.66-1.19-0.62
				c-0.28,0.04-0.81,0.77-1.01,0.96c-1.29,1.22-2.55,2.52-3.98,3.59c-0.55,0.41-3.56,2.74-3.99,1.93c-0.28-0.52,0.09-2.15,0.4-3.34
				c-0.19,0.03-0.38,0.06-0.6,0.06c-0.25,0-0.47-0.03-0.7-0.07c-0.3,1.64-0.59,4.26-1.29,5.26c-1.41,2.02-3.76,3.1-5.2,5.1
				c0.08-2.49,0.12-4.98,0.23-7.47c0.09-2.01,0.39-4.04,1.17-5.9c0.73-1.76,1.69-3.42,2.4-5.2c0.09-0.22,0.66-1.27,0.58-1.51
				c-0.04-0.11-0.74-0.51-0.85-0.49c-0.47,0.1-1.3,2.28-1.5,2.68c-1.65,3.23-3.03,6.71-3.21,10.38c-0.44-2.72-0.84-5.54-1.77-8.14
				c-0.6-1.68-1.16-3.36-1.69-5.06c-0.12-0.4-0.24-1.46-0.53-1.76c-0.23-0.23-0.7-0.13-1.08-0.13c0.77,4.02,2.08,7.92,2.7,11.97
				c0.34,2.17,0.84,4.39,0.84,6.59c0,1.65-0.15,3.31-0.29,4.95c-3.36-1.5-7.26-2.75-10.16-5.05c-1.53-1.21-2.55-2.72-3.4-4.45
				c-0.3-0.61-0.61-2-1.11-2.43c-0.28-0.24-0.68-0.09-1.11-0.03c0.59,1.78,1.21,3.56,1.99,5.27c0.49,1.07,1.03,1.92,2,2.62
				c1.01,0.74,6.1,3.87,7.85,4.6c1.71,0.71,3.28,2.3,3.69,4.27c0.61,2.89,0.13,6.27-0.03,9.19c-0.13,2.32-0.27,4.64-0.42,6.97
				c-0.14,2.16,0.12,4.99-0.86,6.95h6.43c-0.74-1.01-0.66-2.58-0.75-3.77c-0.12-1.69-0.23-3.37-0.34-5.06
				c-0.2-3.15-0.46-6.32-0.46-9.49c0-1.73,0.13-3.43,0.61-5.11c0.55-1.92,1.26-2.97,3.11-3.83c2.59-1.21,5.48-2,8.33-2.37
				C311.18,128.88,311.17,128.4,311.16,127.92z"/>
			<circle class="st34" cx="282.22" cy="124.71" r="7.42"/>
			<path class="st34" d="M306.84,112.32c1.18-1.07,2.73-1.73,4.33-1.74c2.81-0.03,5.16,1.95,6.26,4.44
				c1.16,2.61-0.13,5.79-2.38,7.41c-2.22,1.59-5.45,1.58-7.66-0.02c-2.21-1.6-3.21-4.68-2.38-7.28
				C305.34,114.04,306,113.08,306.84,112.32z"/>
			<path class="st34" d="M311.76,101.69c0,0,6.65-2.11,9.68,4.16c2.21,4.57-0.48,8.74-2.75,9.7c-3.73,1.58-5.99-0.48-5.99-0.48
				s-2.53,4.93-8.9,5.96c-11.26,1.81-15.16-5.81-15.16-5.81s-2.69,1.44-6.54,0.73c-5.09-0.95-7.74-4.96-7.24-9.44
				c0.57-5.15,5.1-8.11,8.96-7.45c0,0,0.16-3.62,4.73-5.04c1.12-0.35,3.7-0.53,4.97,0.03c0,0,2.83-5.25,10.12-3.89
				C313.62,92.02,311.76,101.69,311.76,101.69z"/>
		</g>
		<path class="st34" d="M303.54,159.12c-0.11-2.01-0.72-3.56-3.03-3.56h-6.1c-2.25,0-2.82,1.54-2.93,3.56H303.54z"/>
	</g>
</g>
<g>
	<circle class="st122" cx="168.13" cy="105.9" r="55.88"/>
	<g>
		<path class="st34" d="M172.86,76.9c0,0,2.59-3.23,2.59-6.83c-0.13,0-1.33,0-3,0v-1.3h0.41c0,0,2.59-3.23,2.59-6.83
			c-0.13,0-1.33,0-3,0v-1.6h-2.6v-1.65h-0.29c0-0.3-0.16-0.55-0.36-0.55h-2.38c-0.2,0-0.36,0.24-0.36,0.55h-0.29v1.65h-2.6v1.6
			c-1.61,0-2.76,0-2.89,0c0,3.6,2.59,6.83,2.59,6.83h0.3v1.3c-1.61,0-2.76,0-2.89,0c0,3.6,2.59,6.83,2.59,6.83h0.3v1.38
			c-1.61,0-2.76,0-2.89,0c0,3.6,2.59,6.83,2.59,6.83h0.3v2.11h2.6v28.33h-1.04c-2.09,0-2.63,1.44-2.73,3.32h11.24
			c-0.1-1.88-0.67-3.32-2.82-3.32h-0.95V87.22h2.6v-2.11h0.41c0,0,2.59-3.23,2.59-6.83c-0.13,0-1.33,0-3,0V76.9H172.86z"/>
		<path class="st14" d="M170.76,65.32c0,1.52-1.24,2.76-2.76,2.76c-1.52,0-2.76-1.24-2.76-2.76c0-1.52,1.24-2.76,2.76-2.76
			C169.52,62.56,170.76,63.79,170.76,65.32z"/>
		<path class="st14" d="M170.76,73.48c0,1.52-1.24,2.76-2.76,2.76c-1.52,0-2.76-1.24-2.76-2.76c0-1.52,1.24-2.76,2.76-2.76
			C169.52,70.72,170.76,71.96,170.76,73.48z"/>
		<circle class="st14" cx="168" cy="81.65" r="2.76"/>
	</g>
	<rect x="128.64" y="123.69" class="st78" width="79.63" height="37.94"/>
	<text transform="matrix(1 0 0 1 146.8841 135.5972)"><tspan x="0" y="0" class="st5 st202 st203">Traffic </tspan><tspan x="6.39" y="16" class="st5 st202 st203">light</tspan></text>
</g>
<circle class="st122" cx="89.48" cy="217.94" r="55.88"/>
<rect x="49.11" y="242.37" class="st78" width="79.63" height="18.2"/>
<text transform="matrix(1 0 0 1 51.7194 254.2772)" class="st5 st202 st203">Street light</text>
<g>
	<path class="st34" d="M97.14,177.95v-4.01h-3.1c-0.1-1.35-0.56-2.36-2.14-2.36h-4.34c-1.53,0-1.97,1.01-2.07,2.36h-3.1v4.01H97.14z
		"/>
	<path class="st34" d="M94.05,225.29c-0.01-0.25-0.04-0.49-0.08-0.71l-0.02-0.25h-0.02c-0.23-0.93-0.77-1.57-2.02-1.57h-0.22v-34.64
		c1.46-0.7,2.54-2.19,2.76-3.99l0.43-3.54H84.65l0.43,3.54c0.22,1.8,1.3,3.29,2.76,3.99v34.64h-0.29c-1.22,0-1.74,0.64-1.96,1.57
		h-0.02l-0.03,0.26c-0.04,0.22-0.07,0.45-0.08,0.7h0.01l-1.18,12.28h10.92l-1.18-12.28H94.05z"/>
</g>
<g>
	<circle class="st122" cx="150.24" cy="319.55" r="55.88"/>
	<rect x="110.39" y="340.08" class="st78" width="79.63" height="18.2"/>
	<text transform="matrix(1 0 0 1 122.0099 351.9958)" class="st5 st202 st203">Bus stop</text>
	<g>
		<rect x="141.75" y="280.28" class="st14" width="16.4" height="20.36"/>
		<g>
			<g>
				<path class="st34" d="M154.6,285.01h-8.7c-0.24,0-0.44,0.2-0.44,0.44v3.92h9.57v-3.92C155.04,285.21,154.84,285.01,154.6,285.01
					z"/>
				<path class="st34" d="M145.46,291.97h9.57v2.61h-9.57V291.97z"/>
				<path class="st34" d="M151.55,327.46v-22.43h6.53c2.64,0,4.79-2.15,4.79-4.79v-18.27c0-2.64-2.15-4.79-4.79-4.79h-15.66
					c-2.64,0-4.79,2.15-4.79,4.79v18.27c0,2.64,2.15,4.79,4.79,4.79h6.53v22.43 M157.65,295.89c0,0.72-0.58,1.31-1.31,1.31h-0.44
					v1.31c0,0.72-0.58,1.31-1.31,1.31c-0.72,0-1.31-0.58-1.31-1.31v-1.31h-6.09v1.31c0,0.72-0.58,1.31-1.31,1.31
					c-0.72,0-1.31-0.58-1.31-1.31v-1.31h-0.44c-0.72,0-1.31-0.58-1.31-1.31v-10.44c0-1.68,1.37-3.05,3.05-3.05h8.7
					c1.68,0,3.05,1.37,3.05,3.05V295.89z"/>
			</g>
			<rect x="148.39" y="303.5" class="st34" width="3.81" height="25.91"/>
			<path class="st34" d="M155.93,332.46c-0.1-1.94-0.69-3.42-2.91-3.42h-5.86c-2.16,0-2.71,1.48-2.82,3.42H155.93z"/>
		</g>
	</g>
</g>
<g>
	<circle class="st122" cx="286.86" cy="304.97" r="55.88"/>
	<rect x="247.6" y="329.69" class="st78" width="79.63" height="18.2"/>
	<text transform="matrix(1 0 0 1 260.4335 341.6028)" class="st5 st202 st203">Building</text>
	<g>
		<g>
			<path class="st34" d="M283.66,309.51h8.9v8.85h-8.9V309.51z"/>
			<path class="st34" d="M282.85,309.51h3.24v8.85h-3.24V309.51z"/>
			<path class="st34" d="M298.6,263.12h-21.79c-0.89,0-1.62,0.72-1.62,1.62v53.61h4.42v-10.46c0-0.89,0.72-1.62,1.62-1.62h6.47h6.47
				c0.89,0,1.62,0.72,1.62,1.62v10.46h4.42v-53.61C300.22,263.85,299.49,263.12,298.6,263.12z M282.85,291.71
				c0,0.89-0.72,1.62-1.62,1.62s-1.62-0.72-1.62-1.62v-3.24c0-0.89,0.72-1.62,1.62-1.62s1.62,0.72,1.62,1.62V291.71z M289.32,291.71
				c0,0.89-0.72,1.62-1.62,1.62s-1.62-0.72-1.62-1.62v-3.24c0-0.89,0.72-1.62,1.62-1.62s1.62,0.72,1.62,1.62V291.71z M295.8,291.71
				c0,0.89-0.72,1.62-1.62,1.62s-1.62-0.72-1.62-1.62v-3.24c0-0.89,0.72-1.62,1.62-1.62s1.62,0.72,1.62,1.62V291.71z M282.85,282
				c0,0.89-0.72,1.62-1.62,1.62s-1.62-0.72-1.62-1.62v-3.24c0-0.89,0.72-1.62,1.62-1.62s1.62,0.72,1.62,1.62V282z M289.32,282
				c0,0.89-0.72,1.62-1.62,1.62s-1.62-0.72-1.62-1.62v-3.24c0-0.89,0.72-1.62,1.62-1.62s1.62,0.72,1.62,1.62V282z M295.8,282
				c0,0.89-0.72,1.62-1.62,1.62s-1.62-0.72-1.62-1.62v-3.24c0-0.89,0.72-1.62,1.62-1.62s1.62,0.72,1.62,1.62V282z M282.85,272.29
				c0,0.89-0.72,1.62-1.62,1.62s-1.62-0.72-1.62-1.62v-3.24c0-0.89,0.72-1.62,1.62-1.62s1.62,0.72,1.62,1.62V272.29z M289.32,272.29
				c0,0.89-0.72,1.62-1.62,1.62s-1.62-0.72-1.62-1.62v-3.24c0-0.89,0.72-1.62,1.62-1.62s1.62,0.72,1.62,1.62V272.29z M295.8,272.29
				c0,0.89-0.72,1.62-1.62,1.62s-1.62-0.72-1.62-1.62v-3.24c0-0.89,0.72-1.62,1.62-1.62s1.62,0.72,1.62,1.62V272.29z"/>
		</g>
		<path class="st34" d="M313.7,284.7h-10.25v33.66h10.25c0.89,0,1.62-0.72,1.62-1.62v-30.42C315.32,285.42,314.6,284.7,313.7,284.7z
			 M311.01,304.19c0,0.89-0.72,1.62-1.62,1.62s-1.62-0.72-1.62-1.62v-11.41c0-0.89,0.72-1.62,1.62-1.62s1.62,0.72,1.62,1.62V304.19z
			"/>
		<path class="st34" d="M261.71,284.7c-0.89,0-1.62,0.72-1.62,1.62v30.42c0,0.89,0.72,1.62,1.62,1.62h10.25V284.7H261.71z
			 M267.64,304.23c0,0.89-0.72,1.62-1.62,1.62s-1.62-0.72-1.62-1.62v-11.45c0-0.89,0.72-1.62,1.62-1.62s1.62,0.72,1.62,1.62V304.23z
			"/>
	</g>
</g>
<g>
	<circle class="st122" cx="208.46" cy="216.66" r="55.88"/>
	<rect x="168.2" y="237.98" class="st78" width="79.63" height="18.2"/>
	<text transform="matrix(1 0 0 1 187.8155 249.8896)" class="st5 st202 st203">Bench</text>
	<path class="st34" d="M229.57,227.29c0.27,0,0.49-0.22,0.49-0.49v-10.62h1.57c0.27,0,0.49-0.22,0.49-0.49v-4.12
		c0-0.27-0.22-0.49-0.49-0.49h-5.69v-5.2h3.63c0.27,0,0.49-0.22,0.49-0.49v-4.12c0-0.27-0.22-0.49-0.49-0.49h-3.63v-3.14h3.63
		c0.27,0,0.49-0.22,0.49-0.49v-4.12c0-0.27-0.22-0.49-0.49-0.49h-3.63v-1.57c0-0.26-0.87-0.73-2.55-0.73
		c-1.67,0-2.55,0.48-2.55,0.73v1.57h-25.8v-1.57c0-0.26-0.87-0.73-2.55-0.73c-1.67,0-2.55,0.48-2.55,0.73v1.57h-3.63
		c-0.27,0-0.49,0.22-0.49,0.49v4.12c0,0.27,0.22,0.49,0.49,0.49h3.63v3.14h-3.63c-0.27,0-0.49,0.22-0.49,0.49v4.12
		c0,0.27,0.22,0.49,0.49,0.49h3.63v5.2h-5.69c-0.13,0-0.25,0.05-0.34,0.14c-0.09,0.09-0.14,0.21-0.14,0.34v4.12
		c0,0.27,0.22,0.49,0.49,0.49h1.57v10.62c0,0.27,0.22,0.49,0.49,0.49h4.12c0.27,0,0.49-0.22,0.49-0.49v-10.62h34.04v10.62
		c0,0.27,0.22,0.49,0.49,0.49H229.57z M220.84,211.09h-25.8v-5.2h25.8V211.09z M220.84,200.8h-25.8v-3.14h25.8V200.8z"/>
</g>
<g>
	<path class="st194" d="M479.99,298.29h82.9v20.72h-82.9V298.29z"/>
	<path class="st195" d="M586.41,329.37c-0.27-0.42-0.64-0.76-1.07-1l-22.45-12.81h-82.9l-22.45,12.81c-0.43,0.24-0.8,0.58-1.07,1
		c-0.42,0.58-0.65,1.28-0.66,2v8.36c0,1.91,1.55,3.45,3.45,3.45h124.35c1.91,0,3.45-1.55,3.45-3.45v-8.36
		C587.06,330.66,586.83,329.96,586.41,329.37z"/>
	<path class="st194" d="M587.07,331.38v8.36c0,1.91-1.55,3.45-3.45,3.45H459.27c-1.91,0-3.45-1.55-3.45-3.45v-8.36
		c0-0.72,0.23-1.42,0.66-2h129.94C586.83,329.96,587.06,330.66,587.07,331.38L587.07,331.38z"/>
	<path class="st195" d="M621.61,274.11v17.27c0,5.72-4.64,10.36-10.36,10.36H431.63c-5.72,0-10.36-4.64-10.36-10.36v-17.27
		l6.91-6.91h189.97L621.61,274.11z"/>
	<path class="st122" d="M621.61,153.22v120.89H421.27V153.22c0-5.72,4.64-10.36,10.36-10.36h179.61
		C616.97,142.85,621.61,147.49,621.61,153.22z"/>
	<path class="st87" d="M528.09,232.31h-3.45c-1.91,0-3.45-1.55-3.45-3.45c0-1.91,1.55-3.45,3.45-3.45h3.45
		c1.91,0,3.45,1.55,3.45,3.45C531.55,230.77,530,232.31,528.09,232.31z"/>
	<path class="st96" d="M566.09,232.31h-24.18c-1.91,0-3.45-1.55-3.45-3.45c0-1.91,1.55-3.45,3.45-3.45h24.18
		c1.91,0,3.45,1.55,3.45,3.45C569.54,230.77,568,232.31,566.09,232.31z"/>
	<path class="st32" d="M544.8,260.29H506.8c-1.91,0-3.45-1.55-3.45-3.45c0-1.91,1.55-3.45,3.45-3.45h37.99
		c1.91,0,3.45,1.55,3.45,3.45C548.25,258.75,546.7,260.29,544.8,260.29z"/>
	<path class="st87" d="M542.22,246.29h-72.54c-1.91,0-3.45-1.55-3.45-3.45s1.55-3.45,3.45-3.45h72.54c1.91,0,3.45,1.55,3.45,3.45
		S544.12,246.29,542.22,246.29z"/>
	<path class="st32" d="M455.86,246.29h-6.91c-1.91,0-3.45-1.55-3.45-3.45s1.55-3.45,3.45-3.45h6.91c1.91,0,3.45,1.55,3.45,3.45
		S457.77,246.29,455.86,246.29z"/>
	<path class="st96" d="M462.77,260.11h-13.82c-1.91,0-3.45-1.55-3.45-3.45s1.55-3.45,3.45-3.45h13.82c1.91,0,3.45,1.55,3.45,3.45
		S464.68,260.11,462.77,260.11z"/>
	<path class="st87" d="M573.07,260.11h-13.82c-1.91,0-3.45-1.55-3.45-3.45s1.55-3.45,3.45-3.45h13.82c1.91,0,3.45,1.55,3.45,3.45
		S574.97,260.11,573.07,260.11z"/>
	<path class="st32" d="M593.65,232.32h-13.82c-1.91,0-3.45-1.55-3.45-3.45s1.55-3.45,3.45-3.45h13.82c1.91,0,3.45,1.55,3.45,3.45
		S595.55,232.32,593.65,232.32z"/>
	<path class="st87" d="M462.77,232.47h-13.82c-1.91,0-3.45-1.55-3.45-3.45s1.55-3.45,3.45-3.45h13.82c1.91,0,3.45,1.55,3.45,3.45
		S464.68,232.47,462.77,232.47z"/>
	<path class="st96" d="M511.13,232.47h-34.54c-1.91,0-3.45-1.55-3.45-3.45s1.55-3.45,3.45-3.45h34.54c1.91,0,3.45,1.55,3.45,3.45
		S513.04,232.47,511.13,232.47z"/>
	<path class="st96" d="M589.68,246.54h-34.54c-1.91,0-3.45-1.55-3.45-3.45c0-1.91,1.55-3.45,3.45-3.45h34.54
		c1.91,0,3.45,1.55,3.45,3.45C593.13,244.99,591.58,246.54,589.68,246.54z"/>
	<path class="st87" d="M493,260.11h-13.82c-1.91,0-3.45-1.55-3.45-3.45s1.55-3.45,3.45-3.45H493c1.91,0,3.45,1.55,3.45,3.45
		S494.91,260.11,493,260.11z"/>
	<circle class="st196" cx="521.83" cy="286.99" r="6.53"/>
	<g>
		<path class="st197" d="M431.72,158.21c-1.58-0.6-2.71-2.13-2.71-3.92c0-0.99,0.35-1.9,0.92-2.61l-1.63-0.3
			c-0.51,0.86-0.81,1.85-0.81,2.92c0,2.54,1.67,4.7,3.97,5.44L431.72,158.21z"/>
		<path class="st198" d="M430.23,151.33c0.76-0.76,1.81-1.24,2.97-1.24c0.3,0,0.6,0.03,0.88,0.1l0.47-1.44
			c-0.44-0.11-0.89-0.17-1.36-0.17c-1.93,0-3.64,0.97-4.68,2.44L430.23,151.33z"/>
		<path class="st199" d="M433.13,158.48c-0.36-0.01-0.7-0.06-1.03-0.15l-0.26,1.5c0.44,0.11,0.89,0.17,1.37,0.17
			c0.3,0,0.59-0.03,0.87-0.07L433.13,158.48z"/>
		<path class="st200" d="M434.95,148.85l-0.47,1.44c1.7,0.54,2.93,2.13,2.93,4c0,2.18-1.68,3.98-3.81,4.18l0.91,1.38
			c2.53-0.59,4.42-2.86,4.42-5.56C438.92,151.74,437.25,149.58,434.95,148.85z"/>
	</g>
	<rect x="442.4" y="169.52" class="st78" width="160.39" height="47.87"/>
	<text transform="matrix(1 0 0 1 442.3959 184.4344)"><tspan x="0" y="0" class="st204 st202 st205">10010101011010</tspan><tspan x="0" y="25.2" class="st204 st202 st205">11101001101011</tspan></text>
</g>
<circle class="st201" cx="210.01" cy="215.63" r="185.09"/>
<g>
	<circle class="st206" cx="724.17" cy="302.93" r="55.88"/>
	<rect x="684.35" y="331.84" class="st78" width="79.63" height="18.2"/>
	<text transform="matrix(1 0 0 1 709.9384 343.7471)" class="st5 st202 st203">Tree</text>
	<g>
		<g>
			<path class="st27" d="M705.59,273.25c0.46-0.35,0.98-0.61,1.57-0.76c1.49-0.39,3.08-0.31,4.5-0.99c1.05-0.5,1.93-1.37,2.98-1.87
				c2-0.96,4.26-0.41,6.23,0.44c2.69,1.16,5.22,2.91,6.94,5.48c1.71,2.57,2.51,6.04,1.65,9.21c-1.25,4.63-5.62,7.53-9.85,8.4
				c-4.58,0.94-9.54-0.05-12.95-3.39c-2.29-2.25-3.72-5.64-3.8-9.13C702.81,277.97,703.56,274.79,705.59,273.25z"/>
			<path class="st27" d="M748.26,289.63c0,5.39-4.56,9.76-10.19,9.76c-5.63,0-10.19-4.37-10.19-9.76s4.56-9.76,10.19-9.76
				C743.69,279.87,748.26,284.24,748.26,289.63z"/>
			<path class="st27" d="M737.94,293.71c-1.79,0.16-3.56,0.41-5.24,0.87c-1.55,0.43-3.13,0.91-4.59,1.6
				c2.34-2.44,4.86-4.59,7.67-6.47c1.59-1.06,3.19-2.08,4.49-3.5c0.95-1.04,1.91-2.08,2.87-3.11c-0.27-0.14-0.91-0.66-1.19-0.62
				c-0.28,0.04-0.81,0.77-1.01,0.96c-1.29,1.22-2.55,2.52-3.98,3.59c-0.55,0.41-3.56,2.74-3.99,1.93c-0.28-0.52,0.09-2.15,0.4-3.34
				c-0.19,0.03-0.38,0.06-0.6,0.06c-0.25,0-0.47-0.03-0.7-0.07c-0.3,1.64-0.59,4.26-1.29,5.26c-1.41,2.02-3.76,3.1-5.2,5.1
				c0.08-2.49,0.12-4.98,0.23-7.47c0.09-2.01,0.39-4.04,1.17-5.9c0.73-1.76,1.69-3.42,2.4-5.2c0.09-0.22,0.66-1.27,0.58-1.51
				c-0.04-0.11-0.74-0.51-0.85-0.49c-0.47,0.1-1.3,2.28-1.5,2.68c-1.65,3.23-3.03,6.71-3.21,10.38c-0.44-2.72-0.84-5.54-1.77-8.14
				c-0.6-1.68-1.16-3.36-1.69-5.06c-0.12-0.4-0.24-1.46-0.53-1.76c-0.23-0.23-0.7-0.13-1.08-0.13c0.77,4.02,2.08,7.92,2.7,11.97
				c0.34,2.17,0.84,4.39,0.84,6.59c0,1.65-0.15,3.31-0.29,4.95c-3.36-1.5-7.26-2.75-10.16-5.05c-1.53-1.21-2.55-2.72-3.4-4.45
				c-0.3-0.61-0.61-2-1.11-2.43c-0.28-0.24-0.68-0.09-1.11-0.03c0.59,1.78,1.21,3.56,1.99,5.27c0.49,1.07,1.03,1.92,2,2.62
				c1.01,0.74,6.1,3.87,7.85,4.6c1.71,0.71,3.28,2.3,3.69,4.27c0.61,2.89,0.13,6.27-0.03,9.19c-0.13,2.32-0.27,4.64-0.42,6.97
				c-0.14,2.16,0.12,4.99-0.86,6.95h6.43c-0.74-1.01-0.66-2.58-0.75-3.77c-0.12-1.69-0.23-3.37-0.34-5.06
				c-0.2-3.15-0.46-6.32-0.46-9.49c0-1.73,0.13-3.43,0.61-5.11c0.55-1.92,1.26-2.97,3.11-3.83c2.59-1.21,5.48-2,8.33-2.37
				C737.96,294.68,737.95,294.2,737.94,293.71z"/>
			<circle class="st27" cx="709" cy="290.5" r="7.42"/>
			<path class="st27" d="M733.62,278.12c1.18-1.07,2.73-1.73,4.33-1.74c2.81-0.03,5.16,1.95,6.26,4.44
				c1.16,2.61-0.13,5.79-2.38,7.41c-2.22,1.59-5.45,1.58-7.66-0.02c-2.21-1.6-3.21-4.68-2.38-7.28
				C732.12,279.84,732.78,278.88,733.62,278.12z"/>
			<path class="st27" d="M738.54,267.49c0,0,6.65-2.11,9.68,4.16c2.21,4.57-0.48,8.74-2.75,9.7c-3.73,1.58-5.99-0.48-5.99-0.48
				s-2.53,4.93-8.9,5.96c-11.26,1.81-15.16-5.81-15.16-5.81s-2.69,1.44-6.54,0.73c-5.09-0.95-7.74-4.96-7.24-9.44
				c0.57-5.15,5.1-8.11,8.96-7.45c0,0,0.16-3.62,4.73-5.04c1.12-0.35,3.7-0.53,4.97,0.03c0,0,2.83-5.25,10.12-3.89
				C740.4,257.82,738.54,267.49,738.54,267.49z"/>
		</g>
		<path class="st27" d="M730.32,324.92c-0.11-2.01-0.72-3.56-3.03-3.56h-6.1c-2.25,0-2.82,1.54-2.93,3.56H730.32z"/>
	</g>
</g>
<g>
	<circle class="st206" cx="835.07" cy="240" r="55.88"/>
	<rect x="794.7" y="261.4" class="st78" width="79.63" height="18.2"/>
	<text transform="matrix(1 0 0 1 797.3074 273.3148)" class="st5 st202 st203">Street light</text>
	<g>
		<path class="st27" d="M842.72,201.65v-3.71h-2.86c-0.09-1.24-0.52-2.18-1.98-2.18h-4.01c-1.42,0-1.82,0.94-1.91,2.18h-2.87v3.71
			H842.72z"/>
		<path class="st27" d="M839.88,245.37c-0.01-0.23-0.04-0.45-0.08-0.66l-0.02-0.23h-0.02c-0.21-0.86-0.71-1.45-1.87-1.45h-0.21
			v-31.99c1.35-0.65,2.35-2.02,2.55-3.69l0.4-3.27h-9.44l0.4,3.27c0.2,1.66,1.2,3.03,2.55,3.69v31.99h-0.27
			c-1.12,0-1.61,0.59-1.81,1.45h-0.02l-0.02,0.24c-0.03,0.21-0.06,0.42-0.07,0.65h0.01l-1.09,11.34h10.09l-1.09-11.34H839.88z"/>
	</g>
</g>
<g>
	<circle class="st206" cx="832.57" cy="364.13" r="55.88"/>
	<rect x="792.72" y="384.66" class="st78" width="79.63" height="18.2"/>
	<text transform="matrix(1 0 0 1 804.3406 396.5737)" class="st5 st202 st203">Bus stop</text>
	<g>
		<rect x="824.08" y="324.86" class="st14" width="16.4" height="20.36"/>
		<g>
			<g>
				<path class="st27" d="M836.93,329.59h-8.7c-0.24,0-0.44,0.2-0.44,0.44v3.92h9.57v-3.92
					C837.37,329.79,837.17,329.59,836.93,329.59z"/>
				<path class="st27" d="M827.79,336.55h9.57v2.61h-9.57V336.55z"/>
				<path class="st27" d="M833.89,372.04v-22.43h6.53c2.64,0,4.79-2.15,4.79-4.79v-18.27c0-2.64-2.15-4.79-4.79-4.79h-15.66
					c-2.64,0-4.79,2.15-4.79,4.79v18.27c0,2.64,2.15,4.79,4.79,4.79h6.53v22.43 M839.98,340.47c0,0.72-0.58,1.31-1.31,1.31h-0.44
					v1.31c0,0.72-0.58,1.31-1.31,1.31s-1.31-0.58-1.31-1.31v-1.31h-6.09v1.31c0,0.72-0.58,1.31-1.31,1.31s-1.31-0.58-1.31-1.31
					v-1.31h-0.44c-0.72,0-1.31-0.58-1.31-1.31v-10.44c0-1.68,1.37-3.05,3.05-3.05h8.7c1.68,0,3.05,1.37,3.05,3.05V340.47z"/>
			</g>
			<rect x="830.72" y="348.08" class="st27" width="3.81" height="25.91"/>
			<path class="st27" d="M838.26,377.04c-0.1-1.94-0.69-3.42-2.91-3.42h-5.86c-2.16,0-2.71,1.48-2.82,3.42H838.26z"/>
		</g>
	</g>
</g>
<circle class="st201" cx="796.38" cy="300.47" r="141.5"/>
<g>
	<circle class="st207" cx="726.88" cy="105.45" r="55.88"/>
	<rect x="686.62" y="126.76" class="st78" width="79.63" height="18.2"/>
	<text transform="matrix(1 0 0 1 706.235 138.6765)" class="st5 st202 st203">Bench</text>
	<path class="st31" d="M747.99,116.08c0.27,0,0.49-0.22,0.49-0.49v-10.62h1.57c0.27,0,0.49-0.22,0.49-0.49v-4.12
		c0-0.27-0.22-0.49-0.49-0.49h-5.69v-5.2h3.63c0.27,0,0.49-0.22,0.49-0.49v-4.12c0-0.27-0.22-0.49-0.49-0.49h-3.63v-3.14h3.63
		c0.27,0,0.49-0.22,0.49-0.49v-4.12c0-0.27-0.22-0.49-0.49-0.49h-3.63v-1.57c0-0.26-0.87-0.73-2.55-0.73
		c-1.67,0-2.55,0.48-2.55,0.73v1.57h-25.8v-1.57c0-0.26-0.87-0.73-2.55-0.73c-1.67,0-2.55,0.48-2.55,0.73v1.57h-3.63
		c-0.27,0-0.49,0.22-0.49,0.49v4.12c0,0.27,0.22,0.49,0.49,0.49h3.63v3.14h-3.63c-0.27,0-0.49,0.22-0.49,0.49v4.12
		c0,0.27,0.22,0.49,0.49,0.49h3.63v5.2h-5.69c-0.13,0-0.25,0.05-0.34,0.14c-0.09,0.09-0.14,0.21-0.14,0.34v4.12
		c0,0.27,0.22,0.49,0.49,0.49h1.57v10.62c0,0.27,0.22,0.49,0.49,0.49h4.12c0.27,0,0.49-0.22,0.49-0.49v-10.62h34.04v10.62
		c0,0.27,0.22,0.49,0.49,0.49H747.99z M739.26,99.88h-25.8v-5.2h25.8V99.88z M739.26,89.58h-25.8v-3.14h25.8V89.58z"/>
	<circle class="st201" cx="727" cy="106.29" r="78.41"/>
</g>
<g>
	<g>
		<g>
			<g>
				<path class="st5" d="M412.24,216.53c0,0.25-0.05,0.49-0.14,0.71c-0.09,0.2-0.21,0.4-0.38,0.57c0,0,0,0,0,0c0,0,0,0,0,0
					c0,0,0,0,0,0c0,0,0,0,0,0c0,0,0,0,0,0c0,0,0,0,0,0c0,0,0,0,0,0l-7.33,7.33c-0.72,0.72-1.88,0.72-2.59,0
					c-0.72-0.72-0.72-1.88,0-2.59l4.2-4.2h-17.57c-1.01,0-1.83-0.82-1.83-1.83s0.82-1.83,1.83-1.83h17.57l-4.2-4.2
					c-0.72-0.72-0.72-1.88,0-2.59c0.72-0.72,1.88-0.72,2.59,0l7.33,7.33c0,0,0,0,0,0c0,0,0,0,0,0c0,0,0,0,0,0c0,0,0,0,0,0
					c0,0,0,0,0,0c0,0,0,0,0,0c0,0,0,0,0,0c0.02,0.02,0.04,0.04,0.06,0.06c0.14,0.15,0.24,0.32,0.32,0.51c0,0,0,0,0,0c0,0,0,0,0,0
					C412.19,216.04,412.24,216.28,412.24,216.53L412.24,216.53z"/>
			</g>
		</g>
	</g>
</g>
<g>
	<g>
		<g>
			<g>
				<path class="st32" d="M652.02,161.76c0.1,0.23,0.14,0.48,0.14,0.71c0,0.22-0.04,0.45-0.13,0.67c0,0,0,0,0,0c0,0,0,0,0,0
					c0,0,0,0,0,0c0,0,0,0,0,0c0,0,0,0,0,0c0,0,0,0,0,0c0,0,0,0,0,0.01l-3.93,9.6c-0.38,0.94-1.45,1.39-2.39,1
					c-0.94-0.38-1.39-1.45-1-2.39l2.25-5.5l-16.2,6.79c-0.93,0.39-2.01-0.05-2.4-0.98s0.05-2.01,0.98-2.4l16.2-6.79l-5.5-2.25
					c-0.94-0.38-1.39-1.45-1-2.39c0.38-0.94,1.45-1.39,2.39-1l9.6,3.93c0,0,0,0,0.01,0c0,0,0,0,0,0c0,0,0,0,0,0c0,0,0,0,0,0
					c0,0,0,0,0,0c0,0,0,0,0,0c0,0,0,0,0,0c0.03,0.01,0.05,0.02,0.08,0.03c0.19,0.09,0.35,0.21,0.49,0.34c0,0,0,0,0,0c0,0,0,0,0,0
					C651.79,161.33,651.93,161.53,652.02,161.76L652.02,161.76z"/>
			</g>
		</g>
	</g>
</g>
<g>
	<g>
		<g>
			<g>
				<path class="st87" d="M651.07,243.42c-0.09,0.24-0.23,0.44-0.4,0.61c-0.16,0.16-0.34,0.29-0.56,0.39c0,0,0,0,0,0c0,0,0,0,0,0
					c0,0,0,0,0,0c0,0,0,0,0,0c0,0,0,0,0,0c0,0,0,0,0,0c0,0,0,0-0.01,0l-9.51,4.13c-0.93,0.4-2.01-0.02-2.41-0.95
					c-0.4-0.93,0.02-2.01,0.95-2.41l5.45-2.37l-16.34-6.45c-0.94-0.37-1.4-1.44-1.03-2.38s1.44-1.4,2.38-1.03l16.34,6.45l-2.37-5.45
					c-0.4-0.93,0.02-2.01,0.95-2.41c0.93-0.4,2.01,0.02,2.41,0.95l4.13,9.51c0,0,0,0,0,0.01c0,0,0,0,0,0c0,0,0,0,0,0c0,0,0,0,0,0
					c0,0,0,0,0,0c0,0,0,0,0,0c0,0,0,0,0,0c0.01,0.03,0.02,0.05,0.03,0.08c0.07,0.19,0.11,0.39,0.11,0.59c0,0,0,0,0,0c0,0,0,0,0,0
					C651.2,242.94,651.16,243.18,651.07,243.42L651.07,243.42z"/>
			</g>
		</g>
	</g>
</g>
</svg>
