<?xml version="1.0" encoding="utf-8"?>
<!-- Generator: Adobe Illustrator 27.2.0, SVG Export Plug-In . SVG Version: 6.00 Build 0)  -->
<svg version="1.1" id="Ebene_1" xmlns="http://www.w3.org/2000/svg" xmlns:xlink="http://www.w3.org/1999/xlink" x="0px" y="0px"
	 viewBox="0 0 385.6 122.38" style="enable-background:new 0 0 385.6 122.38;" xml:space="preserve">
<style type="text/css">
	.st0{fill:#FFFFFF;}
	.st1{opacity:0.4;fill:#60748C;}
	.st2{opacity:0.75;fill:#60748C;}
	.st3{fill:#ECECEC;}
	.st4{opacity:0.1;}
	.st5{opacity:0.3;fill:#5B7188;}
	.st6{fill:#60748C;}
	.st7{opacity:0.3;fill:none;stroke:#5B7188;stroke-width:13;stroke-miterlimit:10;}
	.st8{opacity:0.7;fill:#60748C;}
	.st9{fill:#A4C748;}
	.st10{fill:none;stroke:#FFFFFF;stroke-width:5;stroke-miterlimit:10;}
	.st11{fill:#A3C648;}
	.st12{opacity:0.25;fill:#60748C;}
	.st13{opacity:0.34;fill:#60748C;}
	.st14{stroke:#FFFFFF;stroke-width:0.5;stroke-miterlimit:10;}
	.st15{fill:#EDEDED;}
	.st16{opacity:0.1;fill:#546579;stroke:#60748C;stroke-width:1.0251;stroke-miterlimit:10;}
	.st17{opacity:0.1;fill:#546579;stroke:#282F39;stroke-width:1.0251;stroke-miterlimit:10;}
	.st18{opacity:0.1;fill:#546579;stroke:#546579;stroke-width:1.0251;stroke-miterlimit:10;}
	.st19{fill:#60748C;stroke:#60748C;stroke-width:0.9491;stroke-miterlimit:10;}
	.st20{fill:#282F39;}
	.st21{fill:#45AD4B;stroke:#45AD4B;stroke-width:0.8985;stroke-miterlimit:10;}
	.st22{fill:#6DC5D8;stroke:#6DC5D8;stroke-width:0.9491;stroke-miterlimit:10;}
	.st23{fill:#282F39;stroke:#FFFFFF;stroke-width:1.0437;stroke-miterlimit:10;}
	.st24{fill:#45AD4B;stroke:#45AD4B;stroke-width:0.9491;stroke-miterlimit:10;}
	.st25{fill:#45AD4B;stroke:#45AD4B;stroke-width:0.9119;stroke-miterlimit:10;}
	.st26{fill:#C1252D;stroke:#C1252D;stroke-width:0.9491;stroke-miterlimit:10;}
	.st27{fill:#C1252D;}
	.st28{fill:#C1252D;stroke:#C1252D;stroke-width:1.0339;stroke-miterlimit:10;}
	.st29{fill:#C1252D;stroke:#C1252D;stroke-width:0.8834;stroke-miterlimit:10;}
	.st30{fill:none;stroke:#282F39;stroke-width:2;stroke-linecap:round;stroke-linejoin:round;stroke-miterlimit:10;}
	.st31{fill:#45AD4B;}
	.st32{fill:#45AB4B;}
	.st33{fill:#6DC5D8;}
	.st34{fill:#5B7188;}
	.st35{fill:#97A2AF;}
	.st36{fill:#BABBBC;}
	.st37{fill:#5B7185;}
	.st38{fill:#A0C348;}
	.st39{fill:#45A84B;}
	.st40{fill:#BC252D;}
	.st41{fill:#6DC0D3;}
	.st42{fill:none;stroke:#C7D3D7;stroke-miterlimit:10;}
	.st43{opacity:0.1;fill:#757577;}
	.st44{fill:none;stroke:#FFFFFF;stroke-miterlimit:10;}
	.st45{opacity:0.6;}
	.st46{fill:#F1F3F4;}
	.st47{fill:none;stroke:#F1F3F4;stroke-miterlimit:10;}
	.st48{fill:#E8EAED;}
	.st49{fill:#F1F1F1;}
	.st50{fill:#646768;}
	.st51{opacity:0.25;fill:#757577;}
	.st52{fill:none;stroke:#6DC5D8;stroke-width:3;stroke-miterlimit:10;}
	.st53{fill:none;stroke:#C1252D;stroke-width:3;stroke-miterlimit:10;}
	.st54{fill:none;stroke:#45AD4B;stroke-width:3;stroke-miterlimit:10;}
	.st55{fill:#E7E7E7;}
	.st56{clip-path:url(#SVGID_00000111157504744011609300000014685073144184268167_);}
	.st57{clip-path:url(#SVGID_00000111157504744011609300000014685073144184268167_);fill:#F1F1F1;}
	.st58{clip-path:url(#SVGID_00000134231381729129066210000018356979916062312365_);}
	.st59{fill:#FEF9E8;}
	.st60{fill:#CEEAD6;}
	.st61{fill:#FCE8E6;}
	.st62{fill:none;stroke:#9CC0F9;stroke-width:3;stroke-miterlimit:10;}
	.st63{fill:none;stroke:#9CC0F9;stroke-miterlimit:10;}
	.st64{opacity:0.5;fill:#757577;}
	.st65{clip-path:url(#SVGID_00000111157504744011609300000014685073144184268167_);fill:#FFFFFF;}
	.st66{fill:none;stroke:#C1252D;stroke-width:9;stroke-miterlimit:10;}
	.st67{fill:none;stroke:#E7E7E7;stroke-width:9;stroke-miterlimit:10;}
	.st68{fill:none;stroke:#FFFFFF;stroke-width:3;stroke-miterlimit:10;}
	.st69{fill:none;stroke:#45AD4B;stroke-width:9;stroke-miterlimit:10;}
	.st70{fill:none;stroke:#6DC5D8;stroke-width:1.5;stroke-miterlimit:10;}
	.st71{opacity:0.25;clip-path:url(#SVGID_00000111157504744011609300000014685073144184268167_);fill:#757577;}
	.st72{fill:#292929;}
	.st73{fill-rule:evenodd;clip-rule:evenodd;}
	.st74{fill:#FF7578;}
	.st75{fill:#FFC9CA;}
	.st76{fill:#173042;}
	.st77{fill:#946B6B;}
	.st78{fill:none;}
	.st79{fill:#FFFFFF;stroke:#FFFFFF;stroke-width:7;stroke-miterlimit:10;}
	.st80{fill:#444444;}
	.st81{fill:#F73103;}
	.st82{fill:#FFBB39;}
	.st83{fill:#398229;}
	.st84{fill:#DE0505;}
	.st85{fill:#FF804E;}
	.st86{fill:#7ED668;}
	.st87{fill:#BF252D;}
	.st88{fill:#D4894D;}
	.st89{fill:#AD5512;}
	.st90{fill:#FF00FF;}
	.st91{fill:#FF3D75;}
	.st92{fill:#F28E1E;}
	.st93{fill:#2B6E53;}
	.st94{fill:#399150;}
	.st95{fill:#6A4A1D;}
	.st96{fill:#6DC3D6;}
	.st97{clip-path:url(#SVGID_00000036931375418713508730000003757103215882174136_);}
	.st98{clip-path:url(#SVGID_00000106144534250623590980000008048782568664430783_);}
	.st99{fill:#333333;}
	.st100{fill:url(#SVGID_00000072971717135525135330000008771901945938464156_);}
	.st101{fill:url(#SVGID_00000020374414669333075730000014046158884821793175_);}
	.st102{opacity:0.08;}
	.st103{fill:url(#SVGID_00000017512340786428786880000009435015161433805952_);}
	.st104{fill-rule:evenodd;clip-rule:evenodd;fill:#1A1A1A;}
	.st105{fill:#1A1A1A;}
	.st106{fill-rule:evenodd;clip-rule:evenodd;fill:#60748C;}
	.st107{fill:#FCEED7;}
	.st108{fill:#FBD18B;}
	.st109{fill:#DEE1E5;}
	.st110{fill:#ED8D80;}
	.st111{fill:#E97361;}
	.st112{fill:#AE5649;}
	.st113{fill:#CACED5;}
	.st114{fill:#A8B0BB;}
	.st115{fill:#CACFD7;}
	.st116{fill:#EABF9A;}
	.st117{fill:#E4E7EB;}
	.st118{fill:#69D4F2;}
	.st119{fill:#B2DB7F;}
	.st120{fill:#9ED268;}
	.st121{fill:#F8F8F8;}
	.st122{fill:#F0F0F0;}
	.st123{fill:#738DBD;}
	.st124{fill:#E46D67;}
	.st125{fill:#24C1F0;}
	.st126{fill:#36B183;}
	.st127{fill:#FFB866;}
	.st128{fill:#FFD873;}
	.st129{fill-rule:evenodd;clip-rule:evenodd;fill:#485156;}
	.st130{fill:#58595B;}
	.st131{fill:#BF252D;stroke:#BF252D;stroke-width:2;stroke-miterlimit:10;}
	.st132{fill:#FFFFFF;stroke:#BF252D;stroke-width:4;stroke-linecap:round;stroke-linejoin:round;stroke-miterlimit:10;}
	.st133{fill-rule:evenodd;clip-rule:evenodd;fill:#BF252D;}
	.st134{fill:none;stroke:#FFFFFF;stroke-miterlimit:10;stroke-dasharray:1.0108,1.0108;}
	.st135{fill:none;stroke:#45AD4B;stroke-width:4;stroke-miterlimit:10;}
	.st136{fill:none;stroke:#C1252D;stroke-width:4;stroke-miterlimit:10;}
	.st137{opacity:0.2;fill:#45AD4B;}
	.st138{opacity:0.6;fill:#45AD4B;}
	.st139{fill:#44A049;}
	.st140{clip-path:url(#SVGID_00000058575992680640505260000001652105100935097262_);}
	.st141{opacity:0.5;fill:#45AD4B;}
	.st142{opacity:0.2;fill:#E7E7E7;}
	.st143{opacity:0.5;fill:#E7E7E7;}
	.st144{opacity:0.5;fill:#FFFFFF;}
	.st145{opacity:0.2;fill:#6DC5D8;}
	.st146{fill:#FFFFFF;stroke:#FFFFFF;stroke-width:0.3;stroke-miterlimit:10;}
	.st147{fill:none;stroke:#BF252D;stroke-width:5;stroke-miterlimit:10;}
	.st148{fill:#BF252D;stroke:#FFFFFF;stroke-width:3;stroke-miterlimit:10;}
	.st149{fill:#FFFFFF;stroke:#FFFFFF;stroke-width:5.5;stroke-miterlimit:10;}
	.st150{fill:none;stroke:#BF252D;stroke-width:3;stroke-miterlimit:10;}
	.st151{fill:#BF252D;stroke:#FFFFFF;stroke-width:4.5;stroke-miterlimit:10;}
	.st152{fill:#BF252D;stroke:#FFFFFF;stroke-miterlimit:10;}
	.st153{fill:#F7E921;}
	.st154{fill:#6E81B5;}
	.st155{fill:#466087;}
	.st156{fill:#FFAEA8;}
	.st157{fill:#FFE152;}
	.st158{fill:#96C869;}
	.st159{fill:#ADB3BD;}
	.st160{fill:#CACED8;}
	.st161{fill:#40CAEF;}
	.st162{fill:#276F80;}
	.st163{fill:#878F9E;}
	.st164{fill:#EEF0F3;}
	.st165{fill:#1E505B;}
	.st166{fill:#9C80EA;}
	.st167{fill:#FAC955;}
	.st168{clip-path:url(#SVGID_00000015323573079086426660000010842361639951383994_);}
	.st169{fill:#E5EAEB;}
	.st170{fill:#ADB4B9;}
	.st171{fill:#495D72;}
	.st172{fill:#28384C;}
	.st173{fill:#E9B816;}
	.st174{fill:#DB352E;}
	.st175{fill:#366DB4;}
	.st176{fill:#753489;}
	.st177{fill:#57A9BF;}
	.st178{fill:#25AC86;}
	.st179{fill:#F56363;}
	.st180{fill:#BD5A45;}
	.st181{fill:#F0EABD;}
	.st182{fill:#EB8819;}
	.st183{fill:#C3411E;}
	.st184{fill:#205B75;}
	.st185{fill:#C8D9E8;}
	.st186{fill:#A9B9CA;}
	.st187{fill:#114559;}
	.st188{fill:#DFE8F2;}
	.st189{fill:#E3B933;}
	.st190{fill:#E96374;}
	.st191{fill:#80EAFF;}
	.st192{fill:#FFFFFF;stroke:#C1252D;stroke-width:7;stroke-miterlimit:10;}
	.st193{fill:#FFFFFF;stroke:#45AD4B;stroke-width:7;stroke-miterlimit:10;}
	.st194{fill:#B4BCBD;}
	.st195{fill:#CED7DA;}
	.st196{fill:none;stroke:#45AD4B;stroke-width:2;stroke-miterlimit:10;}
	.st197{fill:#6DC3D6;stroke:#FFFFFF;stroke-width:0.1;stroke-miterlimit:10;}
	.st198{fill:#C1252D;stroke:#FFFFFF;stroke-width:0.1;stroke-miterlimit:10;}
	.st199{fill:#A3C648;stroke:#FFFFFF;stroke-width:0.1;stroke-miterlimit:10;}
	.st200{fill:#45AB4B;stroke:#FFFFFF;stroke-width:0.1;stroke-miterlimit:10;}
	.st201{fill:none;stroke:#60748C;stroke-linecap:round;stroke-linejoin:round;stroke-miterlimit:10;stroke-dasharray:2,4;}
	.st202{fill:#F0F0F0;stroke:#C1252D;stroke-width:7;stroke-miterlimit:10;}
	.st203{fill:#F0F0F0;stroke:#45AD4B;stroke-width:7;stroke-miterlimit:10;}
	.st204{opacity:0.3;}
	.st205{fill:#EDEDED;stroke:#C1252D;stroke-width:6;stroke-miterlimit:10;}
	.st206{fill:#5B7188;stroke:#EDEDED;stroke-miterlimit:10;}
	.st207{fill:#EDEDED;stroke:#45AD4B;stroke-width:6;stroke-miterlimit:10;}
	.st208{fill:#FFFFFF;stroke:#C1252D;stroke-width:6;stroke-miterlimit:10;}
	.st209{fill:#FFFFFF;stroke:#45AD4B;stroke-width:6;stroke-miterlimit:10;}
	.st210{fill:none;stroke:#6DC5D8;stroke-linecap:round;stroke-linejoin:round;}
	.st211{fill:none;stroke:#6DC5D8;stroke-linecap:round;stroke-linejoin:round;stroke-dasharray:4.8937,7.8299;}
	.st212{fill:none;stroke:#6DC5D8;stroke-linecap:round;stroke-linejoin:round;stroke-dasharray:5.1322,8.2115;}
	.st213{fill:none;stroke:#6DC5D8;stroke-linecap:round;stroke-linejoin:round;stroke-miterlimit:10;stroke-dasharray:5,8;}
	.st214{fill:#45AC4B;}
	.st215{fill:#C0252D;}
	.st216{fill:#6DC4D7;}
	.st217{fill:#5B7189;}
	.st218{fill:none;stroke:#60748C;stroke-width:1.5;stroke-miterlimit:10;}
	.st219{opacity:0.4;}
	.st220{fill:none;stroke:#60748C;stroke-width:2;stroke-linecap:round;stroke-linejoin:round;stroke-miterlimit:10;}
	.st221{opacity:0.54;fill:#FFFFFF;}
	.st222{clip-path:url(#SVGID_00000123398947186049237970000000351347935138106538_);}
	.st223{opacity:0.5;fill:#5B7188;}
	.st224{opacity:0.1;fill:#60748C;}
	.st225{clip-path:url(#SVGID_00000049919939672459338510000017160846016066740136_);}
	.st226{display:none;}
	.st227{display:inline;fill:#FFFFFF;}
	.st228{display:inline;fill:#090C11;}
	.st229{display:inline;fill:#4A596E;}
	.st230{fill:#546579;}
	.st231{fill:#6F88A6;}
	.st232{opacity:0.1;fill:none;stroke:#FFFFFF;stroke-miterlimit:10;}
	.st233{display:none;fill:#6DC5D8;}
	.st234{opacity:0.45;fill:#60748C;}
	.st235{opacity:0.03;clip-path:url(#SVGID_00000072977855486116738980000015369275909766336946_);}
	.st236{clip-path:url(#SVGID_00000072977855486116738980000015369275909766336946_);}
	
		.st237{clip-path:url(#SVGID_00000072977855486116738980000015369275909766336946_);fill:#FFFFFF;stroke:#60748C;stroke-width:1.5;stroke-miterlimit:10;}
	.st238{opacity:0.4;clip-path:url(#SVGID_00000072977855486116738980000015369275909766336946_);}
	.st239{clip-path:url(#SVGID_00000025441568976891532960000006727124954832845696_);}
	.st240{opacity:0.05;clip-path:url(#SVGID_00000025441568976891532960000006727124954832845696_);}
	.st241{fill:#575756;}
	
		.st242{clip-path:url(#SVGID_00000025441568976891532960000006727124954832845696_);fill:#FFFFFF;stroke:#60748C;stroke-width:1.5;stroke-miterlimit:10;}
	.st243{opacity:0.4;clip-path:url(#SVGID_00000025441568976891532960000006727124954832845696_);}
	.st244{fill:#FFFFFF;stroke:#60748C;stroke-width:1.5;stroke-miterlimit:10;}
	.st245{fill:#A5C848;}
	.st246{opacity:0.2;}
	.st247{clip-path:url(#SVGID_00000043429878242117063850000006992320528097330107_);}
	.st248{clip-path:url(#SVGID_00000002345329884319692930000010676546914115664049_);}
	.st249{fill:none;stroke:#60748C;stroke-width:3;stroke-miterlimit:10;}
	.st250{fill:#EDEDED;stroke:#C0252D;stroke-width:3;stroke-miterlimit:10;}
	.st251{clip-path:url(#SVGID_00000160191469411233976070000016471249534702779546_);}
	.st252{opacity:0.1;fill:#546579;}
	.st253{opacity:0.05;}
	.st254{fill:#606060;}
	.st255{opacity:0.15;}
	.st256{opacity:0.5;}
	.st257{fill:#535353;}
	.st258{opacity:0.7;}
	.st259{filter:url(#Adobe_OpacityMaskFilter);}
	.st260{filter:url(#Adobe_OpacityMaskFilter_00000106116715818688031950000010825614420230694813_);}
	
		.st261{mask:url(#SVGID_00000040562914881045688610000017657449161222809776_);fill:url(#SVGID_00000175286324220248796160000013490612977550951055_);}
	.st262{filter:url(#Adobe_OpacityMaskFilter_00000147195996233613392970000004241938504521673919_);}
	.st263{filter:url(#Adobe_OpacityMaskFilter_00000034091188867657840940000012478683632737658003_);}
	
		.st264{mask:url(#SVGID_00000104691416740838495950000007690193854305997731_);fill:url(#SVGID_00000088131326394840837220000015211880086003074199_);}
	.st265{filter:url(#Adobe_OpacityMaskFilter_00000051379547360624514910000008898648513907903638_);}
	.st266{filter:url(#Adobe_OpacityMaskFilter_00000168817963508449794440000014585151566713278385_);}
	
		.st267{mask:url(#SVGID_00000012468501954991460880000004136526873183785644_);fill:url(#SVGID_00000084523365769757120590000005188607658811684497_);}
	.st268{filter:url(#Adobe_OpacityMaskFilter_00000174580078119713391470000010415682672708968863_);}
	.st269{filter:url(#Adobe_OpacityMaskFilter_00000121256803617177000990000007862250241551301264_);}
	
		.st270{mask:url(#SVGID_00000030486520297291865930000008324655491497390248_);fill:url(#SVGID_00000124162575104402214850000015055057798455343289_);}
	.st271{filter:url(#Adobe_OpacityMaskFilter_00000132810129576648304580000016476023957081508745_);}
	.st272{filter:url(#Adobe_OpacityMaskFilter_00000129171358671394419340000008353862164324383893_);}
	
		.st273{mask:url(#SVGID_00000028321300400102474220000002491841442500082593_);fill:url(#SVGID_00000041255298244889648930000007068963729999889281_);}
	.st274{filter:url(#Adobe_OpacityMaskFilter_00000170974887723545940230000013600011244588132738_);}
	.st275{filter:url(#Adobe_OpacityMaskFilter_00000181088467528313375910000000045499729879792308_);}
	
		.st276{mask:url(#SVGID_00000114074010172874270910000012804534547520377479_);fill:url(#SVGID_00000168103906547172689450000016656999872047792030_);}
	.st277{filter:url(#Adobe_OpacityMaskFilter_00000085248940059805471410000012694713884463109251_);}
	.st278{filter:url(#Adobe_OpacityMaskFilter_00000012456204631887342800000005145617534824102545_);}
	
		.st279{mask:url(#SVGID_00000176747462697385809560000001922339952818755722_);fill:url(#SVGID_00000052789979867850474960000017540254426999932039_);}
	.st280{opacity:0.8;}
	.st281{filter:url(#Adobe_OpacityMaskFilter_00000103260725107342793780000015235099493711685033_);}
	.st282{filter:url(#Adobe_OpacityMaskFilter_00000164499775013574362230000012789650796553140648_);}
	
		.st283{mask:url(#SVGID_00000026857413932431040910000012402497879194956174_);fill:url(#SVGID_00000105405581310047457610000006932383570060823449_);}
	.st284{fill:none;stroke:#1A1A1A;stroke-width:4;stroke-miterlimit:10;}
	.st285{fill:none;stroke:#60748C;stroke-width:4;stroke-miterlimit:10;}
	.st286{fill:#FFFFFF;stroke:#60748C;stroke-width:3;stroke-miterlimit:10;}
	.st287{fill:#FFFFFF;stroke:#6DC5D8;stroke-width:3;stroke-miterlimit:10;}
	.st288{fill:#6DC5D8;stroke:#FFFFFF;stroke-width:3;stroke-miterlimit:10;}
	.st289{opacity:0.25;}
	.st290{fill:#757577;}
	.st291{fill:#AEAEAE;}
	.st292{fill:#C1252D;stroke:#FFFFFF;stroke-width:3;stroke-miterlimit:10;}
	.st293{fill:#1A1A1A;stroke:#FFFFFF;stroke-width:3;stroke-miterlimit:10;}
	.st294{fill:none;stroke:#000000;stroke-width:10;stroke-linecap:round;stroke-miterlimit:10;}
	.st295{fill:none;stroke:#45AD4B;stroke-width:6;stroke-miterlimit:10;}
	.st296{fill:none;stroke:#6DC5D8;stroke-width:6;stroke-miterlimit:10;}
	.st297{fill:none;stroke:#60748C;stroke-width:6;stroke-miterlimit:10;}
	.st298{fill:none;stroke:#000000;stroke-width:6;stroke-miterlimit:10;}
	.st299{fill:#60748C;stroke:#FFFFFF;stroke-width:4;stroke-miterlimit:10;}
	.st300{fill:none;stroke:#000000;stroke-width:7;stroke-linecap:round;stroke-miterlimit:10;}
	.st301{fill-rule:evenodd;clip-rule:evenodd;fill:none;stroke:#000000;stroke-width:4;stroke-miterlimit:10;}
	.st302{fill:none;stroke:#000000;stroke-width:4;stroke-miterlimit:10;}
	.st303{fill:none;stroke:#000000;stroke-width:4;stroke-linecap:round;stroke-miterlimit:10;}
	.st304{fill-rule:evenodd;clip-rule:evenodd;stroke:#FFFFFF;stroke-miterlimit:10;}
	.st305{fill:#949494;}
	.st306{clip-path:url(#SVGID_00000039820062122094694420000009299593242059906998_);}
	.st307{fill:#1A1A1A;stroke:#1A1A1A;stroke-miterlimit:10;}
	.st308{stroke:#000000;stroke-miterlimit:10;}
	.st309{clip-path:url(#SVGID_00000150061267423132499680000016466860668442260361_);}
	.st310{fill:#60748C;stroke:#60748C;stroke-miterlimit:10;}
	.st311{fill:#728499;}
	.st312{opacity:0.4;fill:#BF252D;}
	.st313{opacity:0.75;fill:#BF252D;}
	.st314{fill:#C7C7C7;}
	.st315{opacity:0.23;}
	.st316{opacity:0.2;fill:#5B7188;}
	.st317{fill:none;stroke:#FFFFFF;stroke-width:6;stroke-miterlimit:10;}
	.st318{fill:#BF252D;stroke:#FFFFFF;stroke-width:6;stroke-miterlimit:10;}
	.st319{opacity:0.3;fill:#BF252D;}
	.st320{opacity:0.7;fill:#BF252D;}
	.st321{opacity:0.5;fill:#BF252D;}
	.st322{opacity:0.2;fill:#BF252D;}
	.st323{fill:#BF252D;stroke:#FFFFFF;stroke-width:5;stroke-miterlimit:10;}
	.st324{opacity:0.53;fill:#52717F;}
	.st325{opacity:0.36;fill:#60748C;}
	.st326{opacity:0.31;fill:#60748C;}
	.st327{opacity:0.45;fill:#6DC5D8;}
	.st328{fill:#E81C24;}
	.st329{fill:#D4DB21;}
	.st330{fill:#F6AB3B;}
	.st331{opacity:0.8;fill:#60748C;}
	.st332{opacity:0.61;fill:#60748C;}
	.st333{opacity:0.12;fill:#6DC5D8;}
	.st334{fill:none;stroke:#6DC5D8;stroke-width:4;stroke-miterlimit:10;}
	.st335{fill:none;stroke:#A4C748;stroke-width:4;stroke-miterlimit:10;}
	.st336{fill:#C1252D;stroke:#C1252D;stroke-width:4;stroke-miterlimit:10;}
	.st337{fill:none;stroke:#FFFFFF;stroke-width:2;stroke-linecap:round;stroke-miterlimit:10;stroke-dasharray:3.9843,5.9765;}
	.st338{fill:none;stroke:#60748C;stroke-width:3;stroke-linecap:round;stroke-miterlimit:10;stroke-dasharray:0.4961,6.945;}
	.st339{fill:none;stroke:#FFFFFF;stroke-width:2;stroke-linecap:round;stroke-miterlimit:10;stroke-dasharray:4.0153,6.023;}
	.st340{fill:none;stroke:#60748C;stroke-width:3;stroke-linecap:round;stroke-miterlimit:10;stroke-dasharray:0.4971,6.9599;}
	.st341{opacity:0.47;fill:#60748C;}
	.st342{fill:none;stroke:#D01519;stroke-miterlimit:10;}
	.st343{clip-path:url(#SVGID_00000139261674620589735090000000177804817270247586_);}
	.st344{clip-path:url(#SVGID_00000002356694995293397700000003814188289609665410_);}
	.st345{fill:#ECECEC;stroke:#FFFFFF;stroke-width:10;stroke-miterlimit:10;}
	.st346{clip-path:url(#SVGID_00000153705386700823880900000017339468732648989082_);}
	.st347{clip-path:url(#SVGID_00000165934419889446503220000010016192625760493203_);}
	.st348{clip-path:url(#SVGID_00000011020682575347322430000001180070432953177782_);}
	.st349{clip-path:url(#SVGID_00000133516664729669061180000014502887051134623628_);}
	.st350{fill:none;stroke:#5B7188;stroke-width:3;stroke-miterlimit:10;stroke-dasharray:9,8;}
	.st351{clip-path:url(#SVGID_00000089536204895057713880000017633564801389335708_);}
	.st352{clip-path:url(#SVGID_00000093136104398713249720000007016584939560874881_);}
	.st353{fill:none;stroke:#E1E1E1;stroke-width:4;stroke-linecap:round;stroke-miterlimit:10;}
	.st354{fill:none;stroke:#000000;stroke-width:5;stroke-miterlimit:10;}
	.st355{fill:none;stroke:#000000;stroke-width:5;stroke-linecap:round;stroke-miterlimit:10;}
	.st356{fill:none;stroke:#E1E1E1;stroke-width:10;stroke-miterlimit:10;}
	.st357{fill:none;stroke:#A4C748;stroke-width:5;stroke-miterlimit:10;}
	.st358{fill:#A4C748;stroke:#FFFFFF;stroke-width:3;stroke-miterlimit:10;}
	.st359{fill:none;stroke:#E1E1E1;stroke-width:10;stroke-linecap:round;stroke-miterlimit:10;}
	.st360{fill:#60748C;stroke:#FFFFFF;stroke-width:5;stroke-miterlimit:10;}
	.st361{fill:#5B7188;stroke:#FFFFFF;stroke-width:5;stroke-miterlimit:10;}
	.st362{fill:#E1E1E1;}
	.st363{fill:none;stroke:#000000;stroke-width:7;stroke-linecap:round;stroke-linejoin:round;stroke-miterlimit:10;}
	.st364{fill:none;stroke:#000000;stroke-width:3;stroke-linecap:round;stroke-linejoin:round;stroke-miterlimit:10;}
	.st365{fill:none;stroke:#000000;stroke-width:6;stroke-linecap:round;stroke-linejoin:round;stroke-miterlimit:10;}
	.st366{fill:none;stroke:#000000;stroke-width:15;stroke-linecap:round;stroke-linejoin:round;stroke-miterlimit:10;}
	.st367{opacity:0.15;fill:#60748C;}
	.st368{opacity:0.37;fill:#60748C;}
	.st369{fill:none;stroke:#333E4C;stroke-width:6;stroke-linecap:round;stroke-linejoin:round;stroke-miterlimit:10;}
	.st370{fill:#EDEDED;stroke:#333E4C;stroke-miterlimit:10;}
	.st371{fill:none;stroke:#333E4C;stroke-width:7;stroke-linecap:round;stroke-linejoin:round;stroke-miterlimit:10;}
	.st372{fill:#5B7188;stroke:#FFFFFF;stroke-miterlimit:10;}
</style>
<g>
	<g>
		<g>
			<polygon class="st34" points="365.07,94.95 363.66,78 351.28,78 349.87,94.95 345.47,94.95 345.47,99.18 369.48,99.18 
				369.48,94.95 			"/>
		</g>
	</g>
	<g>
		<g>
			<path class="st34" d="M344.76,26.86h-23.31v4.24h23.31c5.84,0,10.59,4.75,10.59,10.59v32.06h4.24V41.69
				C359.59,33.52,352.94,26.86,344.76,26.86z"/>
		</g>
	</g>
	<g>
		<g>
			<path class="st34" d="M322.34,35.34c1.59,3.74,5.21,6.36,9.42,6.36c4.21,0,7.83-2.62,9.42-6.36H322.34z"/>
		</g>
	</g>
</g>
<g>
	<path class="st34" d="M200.46,76.49h-9.83v-4.77h-3.93v4.77h-35.63v-4.77h-3.93v4.77h-9.83c-1.09,0-1.96,0.88-1.96,1.96v3.93
		c0,1.09,0.88,1.96,1.96,1.96h63.14c1.09,0,1.96-0.88,1.96-1.96v-3.93C202.42,77.37,201.54,76.49,200.46,76.49z"/>
	<path class="st34" d="M141.38,67.84h55.02c1.09,0,1.96-0.88,1.96-1.96V54.09c0-1.08-0.88-1.96-1.96-1.96h-55.02
		c-1.09,0-1.96,0.88-1.96,1.96v11.79C139.42,66.96,140.3,67.84,141.38,67.84z"/>
	<rect x="143.15" y="88.09" class="st34" width="6.3" height="10.87"/>
	<rect x="188.28" y="88.09" class="st34" width="6.3" height="10.87"/>
</g>
<g>
	<path class="st34" d="M117.95,84.2c-0.62,0-1.23-0.04-1.84-0.1l-5.23,6.21v-7.53c-1.34-0.56-2.62-1.28-3.81-2.16
		c-1.01,0.66-2.08,1.21-3.19,1.65v17.78h7v-5.08l9.17-10.9C119.36,84.15,118.66,84.2,117.95,84.2z"/>
	<path class="st34" d="M97.08,79.08c3.18,0,6.18-1.05,8.67-3.04l1.49-1.19l1.42,1.28c2.57,2.31,5.87,3.58,9.29,3.58
		c7.67,0,13.91-6.24,13.91-13.91c0-3.88-1.65-7.61-4.54-10.25l-1.52-1.39l1.25-1.64c1.87-2.45,2.86-5.36,2.86-8.42
		c0-7.67-6.24-13.91-13.91-13.91c-4.06,0-7.92,1.78-10.57,4.89l-0.93,1.09l-1.38-0.38c-0.94-0.26-1.89-0.39-2.81-0.39
		c-5.87,0-10.64,4.77-10.64,10.64c0,1.53,0.33,3.03,0.99,4.45l0.84,1.81l-1.7,1.05c-4.15,2.56-6.63,6.98-6.63,11.83
		C83.18,72.84,89.42,79.08,97.08,79.08z"/>
</g>
<g>
	<g>
		<path class="st34" d="M67.41,78.43H33.32c-5.19,0-9.4-4.21-9.4-9.4V36.8c0-5.19,4.21-9.4,9.4-9.4h34.09c5.19,0,9.4,4.21,9.4,9.4
			v32.22C76.82,74.22,72.61,78.43,67.41,78.43z"/>
	</g>
	<g>
		<path class="st146" d="M42.05,47.52c1.96,0,3,0.92,3,2.99v0.02c0,1.28-0.45,2.06-1.26,2.46c0.91,0.37,1.42,1.17,1.42,2.53v0.34
			c0,2.07-1.04,3-2.99,3H39c-0.4,0-0.62-0.21-0.62-0.62v-10.1c0-0.4,0.21-0.61,0.62-0.61H42.05z M40.25,52.2h1.44
			c1,0,1.49-0.31,1.49-1.49c0-1.12-0.45-1.42-1.42-1.42h-1.5V52.2z M40.25,53.9v3.19h1.67c0.97,0,1.42-0.31,1.42-1.42v-0.28
			c0-1.18-0.49-1.49-1.49-1.49H40.25z"/>
		<path class="st146" d="M47.77,47.52h0.63c0.4,0,0.62,0.21,0.62,0.61v7.16c0,1.51,0.74,1.98,1.65,1.98c0.91,0,1.65-0.47,1.65-1.98
			v-7.16c0-0.4,0.21-0.61,0.62-0.61h0.63c0.4,0,0.62,0.21,0.62,0.61v7.35c0,2.36-1.51,3.55-3.51,3.55c-2.01,0-3.51-1.18-3.51-3.55
			v-7.35C47.16,47.73,47.37,47.52,47.77,47.52z"/>
		<path class="st146" d="M58,55.84c0,1,0.7,1.42,1.55,1.42s1.55-0.4,1.55-1.41v-0.02c0-2.46-4.87-1.23-4.87-5.39v-0.02
			c0-1.94,1.36-3.09,3.3-3.09c1.94,0,3.3,1.17,3.3,3.11v0.03c0,0.4-0.21,0.62-0.62,0.62h-0.7c-0.37,0-0.55-0.19-0.55-0.55V50.5
			c0-0.91-0.6-1.39-1.44-1.39s-1.44,0.49-1.44,1.39v0.02c0,2.46,4.87,1.25,4.87,5.41v0.02c0,1.98-1.42,3.09-3.46,3.09
			c-1.94,0-3.37-1.17-3.37-3.11v-0.06c0-0.4,0.21-0.61,0.62-0.61h0.7c0.37,0,0.55,0.19,0.55,0.55V55.84z"/>
	</g>
	<g>
		<path class="st0" d="M50.44,72.57c-11.01,0-19.96-8.95-19.96-19.96c0-11.01,8.95-19.96,19.96-19.96S70.4,41.6,70.4,52.61
			C70.4,63.61,61.45,72.57,50.44,72.57z M50.44,35.15c-9.63,0-17.46,7.83-17.46,17.46c0,9.63,7.83,17.46,17.46,17.46
			c9.63,0,17.46-7.83,17.46-17.46C67.9,42.98,60.07,35.15,50.44,35.15z"/>
	</g>
	<g>
		<rect x="46.73" y="83.08" class="st34" width="7" height="16.86"/>
	</g>
</g>
<g>
	<rect x="222.12" y="29.42" class="st0" width="15.65" height="49.87"/>
	<g>
		<rect x="226.32" y="87.19" class="st34" width="7.54" height="11.64"/>
		<rect x="226.32" y="21.36" class="st34" width="7.54" height="3.25"/>
		<path class="st34" d="M240,61.91c0,0,5.29-6.6,5.29-13.94c-0.27,0-2.72,0-6.13,0v-2.65H240c0,0,5.29-6.6,5.29-13.94
			c-0.27,0-2.72,0-6.13,0V28.1h-18.14v3.27c-3.29,0-5.64,0-5.9,0c0,7.35,5.29,13.94,5.29,13.94h0.61v2.65c-3.29,0-5.64,0-5.9,0
			c0,7.35,5.29,13.94,5.29,13.94h0.61v2.83c-3.29,0-5.64,0-5.9,0c0,7.35,5.29,13.94,5.29,13.94h0.61v4.3h18.14v-4.3H240
			c0,0,5.29-6.6,5.29-13.94c-0.27,0-2.72,0-6.13,0v-2.83H240z M230.09,78.5c-3.75,0-6.79-3.04-6.79-6.79c0-3.75,3.04-6.79,6.79-6.79
			c3.75,0,6.79,3.04,6.79,6.79C236.88,75.46,233.84,78.5,230.09,78.5z M230.09,61.73c-3.75,0-6.79-3.04-6.79-6.79
			c0-3.75,3.04-6.79,6.79-6.79c3.75,0,6.79,3.04,6.79,6.79C236.88,58.69,233.84,61.73,230.09,61.73z M230.09,44.96
			c-3.75,0-6.79-3.04-6.79-6.79s3.04-6.79,6.79-6.79c3.75,0,6.79,3.04,6.79,6.79S233.84,44.96,230.09,44.96z"/>
	</g>
</g>
<rect x="263.75" y="38.51" class="st0" width="30.32" height="35.5"/>
<rect x="308.43" y="65.64" class="st0" width="15.56" height="29.52"/>
<g>
	<path class="st34" d="M295.16,34.46l-32.02-4.86c-1.49-0.23-3,0.17-4.14,1.14c-1.14,0.99-1.81,2.42-1.81,3.9v61.38
		c0,1.6,1.31,2.91,2.91,2.91h9.47V83.64c0-2.83,2.27-5.1,5.1-5.1h7.28c2.83,0,5.1,2.27,5.1,5.1v15.29h12.38V39.5
		C299.44,37,297.63,34.87,295.16,34.46z M273.22,71.99h-4.37c-1.21,0-2.18-0.98-2.18-2.18c0-1.21,0.98-2.18,2.18-2.18h4.37
		c1.21,0,2.18,0.98,2.18,2.18C275.41,71.01,274.43,71.99,273.22,71.99z M273.22,63.25h-4.37c-1.21,0-2.18-0.98-2.18-2.18
		c0-1.21,0.98-2.18,2.18-2.18h4.37c1.21,0,2.18,0.98,2.18,2.18C275.41,62.27,274.43,63.25,273.22,63.25z M273.22,54.51h-4.37
		c-1.21,0-2.18-0.98-2.18-2.18c0-1.21,0.98-2.18,2.18-2.18h4.37c1.21,0,2.18,0.98,2.18,2.18C275.41,53.53,274.43,54.51,273.22,54.51
		z M273.22,45.77h-4.37c-1.21,0-2.18-0.98-2.18-2.18c0-1.21,0.98-2.18,2.18-2.18h4.37c1.21,0,2.18,0.98,2.18,2.18
		C275.41,44.79,274.43,45.77,273.22,45.77z M287.79,71.99h-4.37c-1.21,0-2.18-0.98-2.18-2.18c0-1.21,0.98-2.18,2.18-2.18h4.37
		c1.21,0,2.18,0.98,2.18,2.18C289.97,71.01,288.99,71.99,287.79,71.99z M287.79,63.25h-4.37c-1.21,0-2.18-0.98-2.18-2.18
		c0-1.21,0.98-2.18,2.18-2.18h4.37c1.21,0,2.18,0.98,2.18,2.18C289.97,62.27,288.99,63.25,287.79,63.25z M287.79,54.51h-4.37
		c-1.21,0-2.18-0.98-2.18-2.18c0-1.21,0.98-2.18,2.18-2.18h4.37c1.21,0,2.18,0.98,2.18,2.18C289.97,53.53,288.99,54.51,287.79,54.51
		z M287.79,45.77h-4.37c-1.21,0-2.18-0.98-2.18-2.18c0-1.21,0.98-2.18,2.18-2.18h4.37c1.21,0,2.18,0.98,2.18,2.18
		C289.97,44.79,288.99,45.77,287.79,45.77z"/>
	<path class="st34" d="M325.38,60.6l-20.74-4.34v42.68h19.66c2.81,0,5.1-2.29,5.1-5.1V65.58C329.4,63.18,327.76,61.13,325.38,60.6z
		 M318.48,90.19h-4.37c-1.21,0-2.18-0.98-2.18-2.18c0-1.21,0.98-2.18,2.18-2.18h4.37c1.21,0,2.18,0.98,2.18,2.18
		C320.66,89.21,319.68,90.19,318.48,90.19z M318.48,81.45h-4.37c-1.21,0-2.18-0.98-2.18-2.18s0.98-2.18,2.18-2.18h4.37
		c1.21,0,2.18,0.98,2.18,2.18S319.68,81.45,318.48,81.45z M318.48,72.71h-4.37c-1.21,0-2.18-0.98-2.18-2.18
		c0-1.21,0.98-2.18,2.18-2.18h4.37c1.21,0,2.18,0.98,2.18,2.18C320.66,71.74,319.68,72.71,318.48,72.71z"/>
</g>
</svg>
