<?xml version="1.0" encoding="utf-8"?>
<!-- Generator: Adobe Illustrator 27.2.0, SVG Export Plug-In . SVG Version: 6.00 Build 0)  -->
<svg version="1.1" id="Ebene_1" xmlns="http://www.w3.org/2000/svg" xmlns:xlink="http://www.w3.org/1999/xlink" x="0px" y="0px"
	 viewBox="0 0 110.23 115.24" style="enable-background:new 0 0 110.23 115.24;" xml:space="preserve">
<style type="text/css">
	.st0{fill:#45AB4B;}
	.st1{fill:#FFFFFF;stroke:#FFFFFF;stroke-width:0.3;stroke-miterlimit:10;}
	.st2{fill:#FFFFFF;}
</style>
<g>
	<path class="st0" d="M70.12,75.35H36.03c-5.19,0-9.4-4.21-9.4-9.4V33.73c0-5.19,4.21-9.4,9.4-9.4h34.09c5.19,0,9.4,4.21,9.4,9.4
		v32.22C79.53,71.14,75.32,75.35,70.12,75.35z"/>
</g>
<g>
	<path class="st1" d="M44.76,44.44c1.96,0,3,0.92,3,2.99v0.02c0,1.28-0.45,2.06-1.26,2.46c0.91,0.37,1.42,1.17,1.42,2.53v0.34
		c0,2.07-1.04,3-2.99,3h-3.21c-0.4,0-0.62-0.21-0.62-0.62v-10.1c0-0.4,0.21-0.61,0.62-0.61L44.76,44.44L44.76,44.44z M42.96,49.12
		h1.44c1,0,1.49-0.31,1.49-1.49c0-1.12-0.45-1.42-1.42-1.42h-1.5v2.91H42.96z M42.96,50.82v3.19h1.67c0.97,0,1.42-0.31,1.42-1.42
		v-0.28c0-1.18-0.49-1.49-1.49-1.49H42.96z"/>
	<path class="st1" d="M50.48,44.44h0.63c0.4,0,0.62,0.21,0.62,0.61v7.16c0,1.51,0.74,1.98,1.65,1.98s1.65-0.47,1.65-1.98v-7.16
		c0-0.4,0.21-0.61,0.62-0.61h0.63c0.4,0,0.62,0.21,0.62,0.61v7.35c0,2.36-1.51,3.55-3.51,3.55c-2.01,0-3.51-1.18-3.51-3.55v-7.35
		C49.87,44.65,50.08,44.44,50.48,44.44z"/>
	<path class="st1" d="M60.71,52.76c0,1,0.7,1.42,1.55,1.42s1.55-0.4,1.55-1.41v-0.02c0-2.46-4.87-1.23-4.87-5.39v-0.02
		c0-1.94,1.36-3.09,3.3-3.09c1.94,0,3.3,1.17,3.3,3.11v0.03c0,0.4-0.21,0.62-0.62,0.62h-0.7c-0.37,0-0.55-0.19-0.55-0.55v-0.05
		c0-0.91-0.6-1.39-1.44-1.39s-1.44,0.49-1.44,1.39v0.02c0,2.46,4.87,1.25,4.87,5.41v0.02c0,1.98-1.42,3.09-3.46,3.09
		c-1.94,0-3.37-1.17-3.37-3.11v-0.06c0-0.4,0.21-0.61,0.62-0.61h0.7c0.37,0,0.55,0.19,0.55,0.55L60.71,52.76L60.71,52.76z"/>
</g>
<g>
	<path class="st2" d="M53.15,69.49c-11.01,0-19.96-8.95-19.96-19.96s8.95-19.96,19.96-19.96s19.96,8.95,19.96,19.96
		S64.16,69.49,53.15,69.49z M53.15,32.07c-9.63,0-17.46,7.83-17.46,17.46s7.83,17.46,17.46,17.46s17.46-7.83,17.46-17.46
		C70.61,39.91,62.78,32.07,53.15,32.07z"/>
</g>
<g>
	<rect x="49.44" y="80.01" class="st0" width="7" height="16.86"/>
</g>
</svg>
