<?xml version="1.0" encoding="utf-8"?>
<!-- Generator: Adobe Illustrator 27.2.0, SVG Export Plug-In . SVG Version: 6.00 Build 0)  -->
<svg version="1.1" id="Ebene_1" xmlns="http://www.w3.org/2000/svg" xmlns:xlink="http://www.w3.org/1999/xlink" x="0px" y="0px"
	 viewBox="0 0 2731.27 275.94" style="enable-background:new 0 0 2731.27 275.94;" xml:space="preserve">
<style type="text/css">
	.st0{fill:#ECECEC;}
	.st1{fill:none;stroke:#FFFFFF;stroke-width:5;stroke-miterlimit:10;}
	.st2{fill:#A3C648;}
	.st3{opacity:0.25;fill:#60748C;}
	.st4{opacity:0.34;fill:#60748C;}
	.st5{opacity:0.39;fill:#96A7DA;}
	.st6{fill:#60748C;}
	.st7{stroke:#FFFFFF;stroke-width:0.5;stroke-miterlimit:10;}
	.st8{fill:#FFFFFF;}
	.st9{fill:#EDEDED;}
	.st10{opacity:0.1;fill:#546579;stroke:#60748C;stroke-width:1.0251;stroke-miterlimit:10;}
	.st11{opacity:0.1;fill:#546579;stroke:#282F39;stroke-width:1.0251;stroke-miterlimit:10;}
	.st12{opacity:0.1;fill:#546579;stroke:#546579;stroke-width:1.0251;stroke-miterlimit:10;}
	.st13{fill:#60748C;stroke:#60748C;stroke-width:0.9491;stroke-miterlimit:10;}
	.st14{fill:#282F39;}
	.st15{fill:#45AD4B;stroke:#45AD4B;stroke-width:0.8985;stroke-miterlimit:10;}
	.st16{fill:#6DC5D8;stroke:#6DC5D8;stroke-width:0.9491;stroke-miterlimit:10;}
	.st17{fill:#282F39;stroke:#FFFFFF;stroke-width:1.0437;stroke-miterlimit:10;}
	.st18{fill:#45AD4B;stroke:#45AD4B;stroke-width:0.9491;stroke-miterlimit:10;}
	.st19{fill:#A4C748;}
	.st20{fill:#45AD4B;stroke:#45AD4B;stroke-width:0.9119;stroke-miterlimit:10;}
	.st21{fill:#C1252D;stroke:#C1252D;stroke-width:0.9491;stroke-miterlimit:10;}
	.st22{fill:#C1252D;}
	.st23{fill:#C1252D;stroke:#C1252D;stroke-width:1.0339;stroke-miterlimit:10;}
	.st24{fill:#C1252D;stroke:#C1252D;stroke-width:0.8834;stroke-miterlimit:10;}
	.st25{fill:none;stroke:#282F39;stroke-width:2;stroke-linecap:round;stroke-linejoin:round;stroke-miterlimit:10;}
	.st26{fill:#45AD4B;}
	.st27{fill:#45AB4B;}
	.st28{fill:#6DC5D8;}
	.st29{opacity:0.1;}
	.st30{fill:#5B7188;}
	.st31{fill:#97A2AF;}
	.st32{fill:#BABBBC;}
	.st33{fill:#5B7185;}
	.st34{fill:#A0C348;}
	.st35{fill:#45A84B;}
	.st36{fill:#BC252D;}
	.st37{fill:#6DC0D3;}
	.st38{fill:none;stroke:#C7D3D7;stroke-miterlimit:10;}
	.st39{opacity:0.1;fill:#757577;}
	.st40{fill:none;stroke:#FFFFFF;stroke-miterlimit:10;}
	.st41{opacity:0.6;}
	.st42{fill:#F1F3F4;}
	.st43{fill:none;stroke:#F1F3F4;stroke-miterlimit:10;}
	.st44{fill:#E8EAED;}
	.st45{fill:#F1F1F1;}
	.st46{fill:#646768;}
	.st47{opacity:0.25;fill:#757577;}
	.st48{fill:none;stroke:#6DC5D8;stroke-width:3;stroke-miterlimit:10;}
	.st49{fill:none;stroke:#C1252D;stroke-width:3;stroke-miterlimit:10;}
	.st50{fill:none;stroke:#45AD4B;stroke-width:3;stroke-miterlimit:10;}
	.st51{fill:#E7E7E7;}
	.st52{clip-path:url(#SVGID_00000104665641956771632570000007581602412445171644_);}
	.st53{clip-path:url(#SVGID_00000104665641956771632570000007581602412445171644_);fill:#F1F1F1;}
	.st54{clip-path:url(#SVGID_00000013157419039638536880000013347604590425875878_);}
	.st55{fill:#FEF9E8;}
	.st56{fill:#CEEAD6;}
	.st57{fill:#FCE8E6;}
	.st58{fill:none;stroke:#9CC0F9;stroke-width:3;stroke-miterlimit:10;}
	.st59{fill:none;stroke:#9CC0F9;stroke-miterlimit:10;}
	.st60{opacity:0.5;fill:#757577;}
	.st61{clip-path:url(#SVGID_00000104665641956771632570000007581602412445171644_);fill:#FFFFFF;}
	.st62{fill:none;stroke:#C1252D;stroke-width:9;stroke-miterlimit:10;}
	.st63{fill:none;stroke:#E7E7E7;stroke-width:9;stroke-miterlimit:10;}
	.st64{fill:none;stroke:#FFFFFF;stroke-width:3;stroke-miterlimit:10;}
	.st65{fill:none;stroke:#45AD4B;stroke-width:9;stroke-miterlimit:10;}
	.st66{fill:none;stroke:#6DC5D8;stroke-width:1.5;stroke-miterlimit:10;}
	.st67{opacity:0.25;clip-path:url(#SVGID_00000104665641956771632570000007581602412445171644_);fill:#757577;}
	.st68{fill:#292929;}
	.st69{fill-rule:evenodd;clip-rule:evenodd;}
	.st70{fill:#FF7578;}
	.st71{fill:#FFC9CA;}
	.st72{fill:#173042;}
	.st73{fill:#946B6B;}
	.st74{fill:none;}
	.st75{fill:#FFFFFF;stroke:#FFFFFF;stroke-width:7;stroke-miterlimit:10;}
	.st76{fill:#444444;}
	.st77{fill:#F73103;}
	.st78{fill:#FFBB39;}
	.st79{fill:#398229;}
	.st80{fill:#DE0505;}
	.st81{fill:#FF804E;}
	.st82{fill:#7ED668;}
	.st83{fill:#BF252D;}
	.st84{fill:#D4894D;}
	.st85{fill:#AD5512;}
	.st86{fill:#FF00FF;}
	.st87{fill:#FF3D75;}
	.st88{fill:#F28E1E;}
	.st89{fill:#2B6E53;}
	.st90{fill:#399150;}
	.st91{fill:#6A4A1D;}
	.st92{fill:#6DC3D6;}
	.st93{clip-path:url(#SVGID_00000148656210731455200660000013383906547092092831_);}
	.st94{clip-path:url(#SVGID_00000117644732635020320790000002362504681067751064_);}
	.st95{fill:#333333;}
	.st96{fill:url(#SVGID_00000130611570971826866170000000252846592481941639_);}
	.st97{fill:url(#SVGID_00000021119378289758239310000007025422369663642002_);}
	.st98{opacity:0.08;}
	.st99{fill:url(#SVGID_00000091698434071363670470000006945419739652631689_);}
	.st100{fill-rule:evenodd;clip-rule:evenodd;fill:#1A1A1A;}
	.st101{fill:#1A1A1A;}
	.st102{fill-rule:evenodd;clip-rule:evenodd;fill:#60748C;}
	.st103{fill:#FCEED7;}
	.st104{fill:#FBD18B;}
	.st105{fill:#DEE1E5;}
	.st106{fill:#ED8D80;}
	.st107{fill:#E97361;}
	.st108{fill:#AE5649;}
	.st109{fill:#CACED5;}
	.st110{fill:#A8B0BB;}
	.st111{fill:#CACFD7;}
	.st112{fill:#EABF9A;}
	.st113{fill:#E4E7EB;}
	.st114{fill:#69D4F2;}
	.st115{fill:#B2DB7F;}
	.st116{fill:#9ED268;}
	.st117{fill:#F8F8F8;}
	.st118{fill:#F0F0F0;}
	.st119{fill:#738DBD;}
	.st120{fill:#E46D67;}
	.st121{fill:#24C1F0;}
	.st122{fill:#36B183;}
	.st123{fill:#FFB866;}
	.st124{fill:#FFD873;}
	.st125{fill-rule:evenodd;clip-rule:evenodd;fill:#485156;}
	.st126{fill:#58595B;}
	.st127{fill:#BF252D;stroke:#BF252D;stroke-width:2;stroke-miterlimit:10;}
	.st128{fill:#FFFFFF;stroke:#BF252D;stroke-width:4;stroke-linecap:round;stroke-linejoin:round;stroke-miterlimit:10;}
	.st129{fill-rule:evenodd;clip-rule:evenodd;fill:#BF252D;}
	.st130{fill:none;stroke:#FFFFFF;stroke-miterlimit:10;stroke-dasharray:1.0108,1.0108;}
	.st131{fill:none;stroke:#45AD4B;stroke-width:4;stroke-miterlimit:10;}
	.st132{fill:none;stroke:#C1252D;stroke-width:4;stroke-miterlimit:10;}
	.st133{opacity:0.2;fill:#45AD4B;}
	.st134{opacity:0.6;fill:#45AD4B;}
	.st135{fill:#44A049;}
	.st136{clip-path:url(#SVGID_00000012439830413484701120000003318321910093726357_);}
	.st137{opacity:0.5;fill:#45AD4B;}
	.st138{opacity:0.2;fill:#E7E7E7;}
	.st139{opacity:0.5;fill:#E7E7E7;}
	.st140{opacity:0.5;fill:#FFFFFF;}
	.st141{opacity:0.2;fill:#6DC5D8;}
	.st142{fill:none;stroke:#FFFFFF;stroke-width:2.5;stroke-miterlimit:10;}
	.st143{fill:none;stroke:#BF252D;stroke-width:5;stroke-miterlimit:10;}
	.st144{fill:#BF252D;stroke:#FFFFFF;stroke-width:3;stroke-miterlimit:10;}
	.st145{fill:#FFFFFF;stroke:#FFFFFF;stroke-width:5.5;stroke-miterlimit:10;}
	.st146{fill:none;stroke:#BF252D;stroke-width:3;stroke-miterlimit:10;}
	.st147{fill:#BF252D;stroke:#FFFFFF;stroke-width:4.5;stroke-miterlimit:10;}
	.st148{fill:#BF252D;stroke:#FFFFFF;stroke-miterlimit:10;}
	.st149{fill:#F7E921;}
	.st150{fill:#6E81B5;}
	.st151{fill:#466087;}
	.st152{fill:#FFAEA8;}
	.st153{fill:#FFE152;}
	.st154{fill:#96C869;}
	.st155{fill:#ADB3BD;}
	.st156{fill:#CACED8;}
	.st157{fill:#40CAEF;}
	.st158{fill:#276F80;}
	.st159{fill:#878F9E;}
	.st160{fill:#EEF0F3;}
	.st161{fill:#1E505B;}
	.st162{fill:#9C80EA;}
	.st163{fill:#FAC955;}
	.st164{clip-path:url(#SVGID_00000025400961586129664410000005309497343348808097_);}
	.st165{fill:#E5EAEB;}
	.st166{fill:#ADB4B9;}
	.st167{fill:#495D72;}
	.st168{fill:#28384C;}
	.st169{fill:#E9B816;}
	.st170{fill:#DB352E;}
	.st171{fill:#366DB4;}
	.st172{fill:#753489;}
	.st173{fill:#57A9BF;}
	.st174{fill:#25AC86;}
	.st175{fill:#F56363;}
	.st176{fill:#BD5A45;}
	.st177{fill:#F0EABD;}
	.st178{fill:#EB8819;}
	.st179{fill:#C3411E;}
	.st180{fill:#205B75;}
	.st181{fill:#C8D9E8;}
	.st182{fill:#A9B9CA;}
	.st183{fill:#114559;}
	.st184{fill:#DFE8F2;}
	.st185{fill:#E3B933;}
	.st186{fill:#E96374;}
	.st187{fill:#80EAFF;}
	.st188{fill:#FFFFFF;stroke:#C1252D;stroke-width:7;stroke-miterlimit:10;}
	.st189{fill:#FFFFFF;stroke:#45AD4B;stroke-width:7;stroke-miterlimit:10;}
	.st190{fill:#B4BCBD;}
	.st191{fill:#CED7DA;}
	.st192{fill:none;stroke:#45AD4B;stroke-width:2;stroke-miterlimit:10;}
	.st193{fill:#6DC3D6;stroke:#FFFFFF;stroke-width:0.1;stroke-miterlimit:10;}
	.st194{fill:#C1252D;stroke:#FFFFFF;stroke-width:0.1;stroke-miterlimit:10;}
	.st195{fill:#A3C648;stroke:#FFFFFF;stroke-width:0.1;stroke-miterlimit:10;}
	.st196{fill:#45AB4B;stroke:#FFFFFF;stroke-width:0.1;stroke-miterlimit:10;}
	.st197{fill:none;stroke:#60748C;stroke-linecap:round;stroke-linejoin:round;stroke-miterlimit:10;stroke-dasharray:2,4;}
	.st198{fill:#F0F0F0;stroke:#C1252D;stroke-width:7;stroke-miterlimit:10;}
	.st199{fill:#F0F0F0;stroke:#45AD4B;stroke-width:7;stroke-miterlimit:10;}
	.st200{opacity:0.3;}
	.st201{opacity:0.3;fill:#5B7188;}
	.st202{fill:#EDEDED;stroke:#C1252D;stroke-width:6;stroke-miterlimit:10;}
	.st203{fill:#5B7188;stroke:#EDEDED;stroke-miterlimit:10;}
	.st204{fill:#EDEDED;stroke:#45AD4B;stroke-width:6;stroke-miterlimit:10;}
	.st205{fill:#FFFFFF;stroke:#C1252D;stroke-width:6;stroke-miterlimit:10;}
	.st206{fill:#FFFFFF;stroke:#45AD4B;stroke-width:6;stroke-miterlimit:10;}
	.st207{fill:none;stroke:#6DC5D8;stroke-linecap:round;stroke-linejoin:round;}
	.st208{fill:none;stroke:#6DC5D8;stroke-linecap:round;stroke-linejoin:round;stroke-dasharray:4.8937,7.8299;}
	.st209{fill:none;stroke:#6DC5D8;stroke-linecap:round;stroke-linejoin:round;stroke-dasharray:5.1322,8.2115;}
	.st210{fill:none;stroke:#6DC5D8;stroke-linecap:round;stroke-linejoin:round;stroke-miterlimit:10;stroke-dasharray:5,8;}
	.st211{fill:#45AC4B;}
	.st212{fill:#C0252D;}
	.st213{fill:#6DC4D7;}
	.st214{fill:#5B7189;}
	.st215{fill:none;stroke:#60748C;stroke-width:1.5;stroke-miterlimit:10;}
	.st216{opacity:0.4;}
	.st217{fill:none;stroke:#60748C;stroke-width:2;stroke-linecap:round;stroke-linejoin:round;stroke-miterlimit:10;}
	.st218{opacity:0.54;fill:#FFFFFF;}
	.st219{clip-path:url(#SVGID_00000103981633096145977650000009651276230897318070_);}
	.st220{opacity:0.5;fill:#5B7188;}
	.st221{opacity:0.1;fill:#60748C;}
	.st222{clip-path:url(#SVGID_00000002386238425746949090000006516075900455711423_);}
	.st223{display:none;}
	.st224{display:inline;fill:#FFFFFF;}
	.st225{display:inline;fill:#090C11;}
	.st226{display:inline;fill:#4A596E;}
	.st227{fill:#546579;}
	.st228{fill:#6F88A6;}
	.st229{opacity:0.1;fill:none;stroke:#FFFFFF;stroke-miterlimit:10;}
	.st230{display:none;fill:#6DC5D8;}
	.st231{opacity:0.45;fill:#60748C;}
	.st232{opacity:0.03;clip-path:url(#SVGID_00000094617451216400934970000007596109554333687199_);}
	.st233{clip-path:url(#SVGID_00000094617451216400934970000007596109554333687199_);}
	
		.st234{clip-path:url(#SVGID_00000094617451216400934970000007596109554333687199_);fill:#FFFFFF;stroke:#60748C;stroke-width:1.5;stroke-miterlimit:10;}
	.st235{opacity:0.4;clip-path:url(#SVGID_00000094617451216400934970000007596109554333687199_);}
	.st236{clip-path:url(#SVGID_00000141414806105002803120000012275138303798373311_);}
	.st237{opacity:0.05;clip-path:url(#SVGID_00000141414806105002803120000012275138303798373311_);}
	.st238{fill:#575756;}
	
		.st239{clip-path:url(#SVGID_00000141414806105002803120000012275138303798373311_);fill:#FFFFFF;stroke:#60748C;stroke-width:1.5;stroke-miterlimit:10;}
	.st240{opacity:0.4;clip-path:url(#SVGID_00000141414806105002803120000012275138303798373311_);}
	.st241{fill:#FFFFFF;stroke:#60748C;stroke-width:1.5;stroke-miterlimit:10;}
	.st242{fill:#A5C848;}
	.st243{opacity:0.2;}
	.st244{clip-path:url(#SVGID_00000111160777686846281010000017468618890262531458_);}
	.st245{clip-path:url(#SVGID_00000162339136437914335160000000733864608159526786_);}
	.st246{fill:none;stroke:#60748C;stroke-width:3;stroke-miterlimit:10;}
	.st247{fill:#EDEDED;stroke:#C0252D;stroke-width:3;stroke-miterlimit:10;}
	.st248{clip-path:url(#SVGID_00000119802790121623150900000014574261541194141609_);}
	.st249{opacity:0.1;fill:#546579;}
	.st250{opacity:0.05;}
	.st251{fill:#606060;}
	.st252{opacity:0.15;}
	.st253{opacity:0.5;}
	.st254{fill:#535353;}
	.st255{opacity:0.7;}
	.st256{filter:url(#Adobe_OpacityMaskFilter);}
	.st257{filter:url(#Adobe_OpacityMaskFilter_00000069376740442746182070000016389609904544574638_);}
	
		.st258{mask:url(#SVGID_00000059308122891188756380000018418508826279102642_);fill:url(#SVGID_00000140704436359132623210000010849461022990741896_);}
	.st259{filter:url(#Adobe_OpacityMaskFilter_00000109724513428424345490000011365307668266101177_);}
	.st260{filter:url(#Adobe_OpacityMaskFilter_00000011019828063277190680000011978902175421305520_);}
	
		.st261{mask:url(#SVGID_00000101796126621262659040000005672584151180000922_);fill:url(#SVGID_00000101082070898977340750000004201542507374699942_);}
	.st262{filter:url(#Adobe_OpacityMaskFilter_00000116935785804064335220000010318091703131764392_);}
	.st263{filter:url(#Adobe_OpacityMaskFilter_00000111183365957190999300000008042649590446535583_);}
	
		.st264{mask:url(#SVGID_00000108272817207773966840000003364152252965362078_);fill:url(#SVGID_00000021830018824646974030000015326143631832312486_);}
	.st265{filter:url(#Adobe_OpacityMaskFilter_00000084505593935002678610000016739563441922152862_);}
	.st266{filter:url(#Adobe_OpacityMaskFilter_00000079480356567176503120000006147060390966114179_);}
	
		.st267{mask:url(#SVGID_00000083080903560701143120000014950608645432510875_);fill:url(#SVGID_00000057846058358049107650000014008307682363410323_);}
	.st268{filter:url(#Adobe_OpacityMaskFilter_00000056388149469807111980000017423080490477807282_);}
	.st269{filter:url(#Adobe_OpacityMaskFilter_00000152262057886379592520000003457151627237710726_);}
	
		.st270{mask:url(#SVGID_00000115472614515414796830000001157833004835008175_);fill:url(#SVGID_00000013155710787960459230000012146460207276215721_);}
	.st271{filter:url(#Adobe_OpacityMaskFilter_00000163046032351037296600000003865427576037631395_);}
	.st272{filter:url(#Adobe_OpacityMaskFilter_00000114041888746662184020000008990168284485242528_);}
	
		.st273{mask:url(#SVGID_00000144320148903663105190000017008863670755840655_);fill:url(#SVGID_00000029725163034295961490000012098011336808075440_);}
	.st274{filter:url(#Adobe_OpacityMaskFilter_00000145020033608909461660000010865977015576121236_);}
	.st275{filter:url(#Adobe_OpacityMaskFilter_00000060741986365681105420000011387654583968715141_);}
	
		.st276{mask:url(#SVGID_00000159465025350135308190000012544324527119098268_);fill:url(#SVGID_00000182518201572824554870000006411344652018212536_);}
	.st277{opacity:0.8;}
	.st278{filter:url(#Adobe_OpacityMaskFilter_00000070802245597274452260000001176048076752793511_);}
	.st279{filter:url(#Adobe_OpacityMaskFilter_00000141431751100178371910000000497540857560087426_);}
	
		.st280{mask:url(#SVGID_00000007409412051102941190000016590902759523459472_);fill:url(#SVGID_00000156567989014940600150000006074922090542285212_);}
	.st281{fill:none;stroke:#1A1A1A;stroke-width:4;stroke-miterlimit:10;}
	.st282{fill:none;stroke:#60748C;stroke-width:4;stroke-miterlimit:10;}
	.st283{fill:#FFFFFF;stroke:#60748C;stroke-width:3;stroke-miterlimit:10;}
	.st284{fill:#FFFFFF;stroke:#6DC5D8;stroke-width:3;stroke-miterlimit:10;}
	.st285{fill:#6DC5D8;stroke:#FFFFFF;stroke-width:3;stroke-miterlimit:10;}
	.st286{opacity:0.25;}
	.st287{fill:#757577;}
	.st288{fill:#AEAEAE;}
	.st289{fill:#C1252D;stroke:#FFFFFF;stroke-width:3;stroke-miterlimit:10;}
	.st290{fill:#1A1A1A;stroke:#FFFFFF;stroke-width:3;stroke-miterlimit:10;}
	.st291{fill:none;stroke:#000000;stroke-width:10;stroke-linecap:round;stroke-miterlimit:10;}
	.st292{fill:none;stroke:#45AD4B;stroke-width:6;stroke-miterlimit:10;}
	.st293{fill:none;stroke:#6DC5D8;stroke-width:6;stroke-miterlimit:10;}
	.st294{fill:none;stroke:#60748C;stroke-width:6;stroke-miterlimit:10;}
	.st295{fill:none;stroke:#000000;stroke-width:6;stroke-miterlimit:10;}
	.st296{fill:#60748C;stroke:#FFFFFF;stroke-width:4;stroke-miterlimit:10;}
	.st297{fill:none;stroke:#000000;stroke-width:7;stroke-linecap:round;stroke-miterlimit:10;}
	.st298{fill-rule:evenodd;clip-rule:evenodd;fill:none;stroke:#000000;stroke-width:4;stroke-miterlimit:10;}
	.st299{fill:none;stroke:#000000;stroke-width:4;stroke-miterlimit:10;}
	.st300{fill:none;stroke:#000000;stroke-width:4;stroke-linecap:round;stroke-miterlimit:10;}
	.st301{fill-rule:evenodd;clip-rule:evenodd;stroke:#FFFFFF;stroke-miterlimit:10;}
	.st302{fill:#949494;}
	.st303{clip-path:url(#SVGID_00000116207767880354096380000001360536157736880831_);}
	.st304{fill:#1A1A1A;stroke:#1A1A1A;stroke-miterlimit:10;}
	.st305{stroke:#000000;stroke-miterlimit:10;}
	.st306{clip-path:url(#SVGID_00000158716297146249877780000000432937573776112266_);}
	.st307{fill:#60748C;stroke:#60748C;stroke-miterlimit:10;}
	.st308{fill:#728499;}
	.st309{opacity:0.4;fill:#BF252D;}
	.st310{opacity:0.75;fill:#BF252D;}
	.st311{fill:#C7C7C7;}
	.st312{opacity:0.23;}
	.st313{opacity:0.2;fill:#5B7188;}
	.st314{fill:none;stroke:#FFFFFF;stroke-width:6;stroke-miterlimit:10;}
	.st315{fill:#BF252D;stroke:#FFFFFF;stroke-width:6;stroke-miterlimit:10;}
	.st316{opacity:0.3;fill:#BF252D;}
	.st317{opacity:0.7;fill:#BF252D;}
	.st318{opacity:0.5;fill:#BF252D;}
	.st319{opacity:0.2;fill:#BF252D;}
	.st320{fill:#BF252D;stroke:#FFFFFF;stroke-width:5;stroke-miterlimit:10;}
	.st321{fill:#96A7DA;}
	.st322{fill:#6678EA;}
	.st323{fill:#00BCD1;}
	.st324{fill:#D4DB21;}
	.st325{fill:#E81C24;}
	.st326{opacity:0.53;fill:#52717F;}
	.st327{opacity:0.36;fill:#60748C;}
	.st328{opacity:0.31;fill:#60748C;}
	.st329{opacity:0.45;fill:#6DC5D8;}
	.st330{fill:#F6AB3B;}
	.st331{opacity:0.8;fill:#60748C;}
	.st332{opacity:0.61;fill:#60748C;}
	.st333{opacity:0.12;fill:#6DC5D8;}
	.st334{fill:none;stroke:#6DC5D8;stroke-width:4;stroke-miterlimit:10;}
	.st335{fill:none;stroke:#A4C748;stroke-width:4;stroke-miterlimit:10;}
	.st336{fill:#C1252D;stroke:#C1252D;stroke-width:4;stroke-miterlimit:10;}
	.st337{fill:none;stroke:#60748C;stroke-width:7;stroke-miterlimit:10;}
	.st338{fill:none;stroke:#45AD4B;stroke-width:5.5;stroke-miterlimit:10;}
	.st339{fill:none;stroke:#A4C748;stroke-width:5;stroke-miterlimit:10;}
	.st340{opacity:0.13;}
	.st341{opacity:0.39;fill:#60748C;}
	.st342{fill:none;stroke:#FFFFFF;stroke-width:2;stroke-linecap:round;stroke-miterlimit:10;stroke-dasharray:3.9843,5.9765;}
	.st343{fill:none;stroke:#60748C;stroke-width:3;stroke-linecap:round;stroke-miterlimit:10;stroke-dasharray:0.4961,6.945;}
	.st344{fill:none;stroke:#FFFFFF;stroke-width:2;stroke-linecap:round;stroke-miterlimit:10;stroke-dasharray:4.0153,6.023;}
	.st345{fill:none;stroke:#60748C;stroke-width:3;stroke-linecap:round;stroke-miterlimit:10;stroke-dasharray:0.4971,6.9599;}
	.st346{opacity:0.47;fill:#60748C;}
</style>
<g>
	<g>
		<path class="st0" d="M415.23,130.34c-1.5,0.61-3.11,1.05-4.5,1.85c-14.45,8.32-28.85,16.75-43.31,25.06
			c-9.71,5.58-19.51,11.01-29.27,16.5c-4.41,2.48-6.37,6.14-4.54,9.42c6.1,10.94,12.35,21.8,18.71,32.6
			c0.5,0.85,2.56,1.64,3.43,1.29c5.76-2.32,11.67-4.47,17-7.58c12.16-7.09,22.02-16.7,29.53-28.72
			c8.71-13.93,13.2-29.07,13.84-46.53C415.98,133.62,415.6,131.98,415.23,130.34z"/>
		<path class="st0" d="M286.28,101.27c7.09,12.35,14.12,24.74,21.2,37.1c4.45,7.77,9.19,15.38,13.35,23.3
			c3.28,6.25,6.9,7.62,13,4.04c7.08-4.16,14.2-8.24,21.31-12.36c5.81-3.37,11.62-6.74,17.44-10.1c13.01-7.49,26-15.02,39.07-22.41
			c2.54-1.44,3.31-3.14,2.56-5.89c-1.14-4.16-2.09-8.36-3.11-12.55c-30.87-62.82-90.47-57.75-94.39-57.35c0-0.01,0-0.02,0-0.03
			c-3.67,0.57-7.41,0.88-11.01,1.76c-14.03,3.46-26.4,10.19-37.25,19.69c-0.59,0.52-0.87,2.23-0.48,2.92
			C273.99,80.07,280.18,90.65,286.28,101.27z"/>
		<path class="st0" d="M284.41,131.41c2.8-1.63,5.13-3.74,4.18-7.36c-0.4-1.52-1.68-2.8-2.5-4.23c-8.11-14.2-16.22-28.41-24.3-42.63
			c-1.16-2.04-2.34-1.86-3.61-0.22c-1.32,1.71-2.57,3.48-3.82,5.24c-7.06,9.87-11.7,20.79-14.03,32.7c-0.32,0.93-0.8,1.84-0.93,2.79
			c-1.58,11.56-1.79,23.1,0.88,34.54c0.3,1.28,1,2.48,1.52,3.71c1.34-0.7,2.68-1.41,4.03-2.11
			C258.69,146.37,271.56,138.9,284.41,131.41z"/>
		<path class="st0" d="M333.62,201.92c-4.16-7.28-8.3-14.58-12.5-21.84c-7.1-12.3-14.3-24.53-21.31-36.88
			c-2.7-4.75-5.63-6.05-10.39-3.37c-14.12,7.94-28.13,16.05-42.19,24.09c-2.42,1.38-2.4,3.25-1.31,5.51
			c5.19,10.7,11.92,20.21,20.62,28.43c16.8,15.85,36.84,23.47,60.88,24.45c3.84-0.44,8.87-1.02,13.9-1.61
			c2.13-0.25,2.42-1.18,1.33-3.03C339.58,212.47,336.63,207.18,333.62,201.92z"/>
	</g>
	<ellipse class="st1" cx="327.46" cy="134.87" rx="90.62" ry="88.89"/>
</g>
<g>
	<circle class="st2" cx="263.63" cy="118.89" r="12"/>
	<circle class="st2" cx="308.68" cy="195.72" r="12"/>
	<circle class="st2" cx="287.76" cy="188.11" r="6.5"/>
</g>
<g>
	<g>
		<path class="st0" d="M656.24,130.34c-1.5,0.61-3.11,1.05-4.5,1.85c-14.45,8.32-28.85,16.75-43.31,25.06
			c-9.71,5.58-19.51,11.01-29.27,16.5c-4.41,2.48-6.37,6.14-4.54,9.42c6.1,10.94,12.35,21.8,18.71,32.6
			c0.5,0.85,2.56,1.64,3.43,1.29c5.76-2.32,11.67-4.47,17-7.58c12.16-7.09,22.02-16.7,29.53-28.72
			c8.71-13.93,13.2-29.07,13.84-46.53C656.99,133.62,656.61,131.98,656.24,130.34z"/>
		<path class="st0" d="M527.29,101.27c7.09,12.35,14.12,24.74,21.2,37.1c4.45,7.77,9.19,15.38,13.35,23.3
			c3.28,6.25,6.9,7.62,13,4.04c7.08-4.16,14.2-8.24,21.31-12.36c5.81-3.37,11.62-6.74,17.44-10.1c13.01-7.49,26-15.02,39.07-22.41
			c2.54-1.44,3.31-3.14,2.56-5.89c-1.14-4.16-2.09-8.36-3.11-12.55c-30.87-62.82-90.47-57.75-94.39-57.35c0-0.01,0-0.02,0-0.03
			c-3.67,0.57-7.41,0.88-11.01,1.76c-14.03,3.46-26.4,10.19-37.25,19.69c-0.59,0.52-0.87,2.23-0.48,2.92
			C515,80.07,521.19,90.65,527.29,101.27z"/>
		<path class="st0" d="M525.42,131.41c2.8-1.63,5.13-3.74,4.18-7.36c-0.4-1.52-1.68-2.8-2.5-4.23c-8.11-14.2-16.22-28.41-24.3-42.63
			c-1.16-2.04-2.34-1.86-3.61-0.22c-1.32,1.71-2.57,3.48-3.82,5.24c-7.06,9.87-11.7,20.79-14.03,32.7c-0.32,0.93-0.8,1.84-0.93,2.79
			c-1.58,11.56-1.79,23.1,0.88,34.54c0.3,1.28,1,2.48,1.52,3.71c1.34-0.7,2.68-1.41,4.03-2.11
			C499.7,146.37,512.57,138.9,525.42,131.41z"/>
		<path class="st0" d="M574.64,201.92c-4.16-7.28-8.3-14.58-12.5-21.84c-7.1-12.3-14.3-24.53-21.31-36.88
			c-2.7-4.75-5.63-6.05-10.39-3.37c-14.12,7.94-28.13,16.05-42.19,24.09c-2.42,1.38-2.4,3.25-1.31,5.51
			c5.19,10.7,11.92,20.21,20.62,28.43c16.8,15.85,36.84,23.47,60.88,24.45c3.84-0.44,8.87-1.02,13.9-1.61
			c2.13-0.25,2.42-1.18,1.33-3.03C580.59,212.47,577.64,207.18,574.64,201.92z"/>
	</g>
	<ellipse class="st1" cx="568.47" cy="134.87" rx="90.62" ry="88.89"/>
</g>
<g>
	<circle class="st2" cx="504.22" cy="118.89" r="12"/>
	<circle class="st2" cx="549.27" cy="195.72" r="12"/>
	<circle class="st2" cx="528.34" cy="188.11" r="6.5"/>
</g>
<g>
	<g>
		<path class="st0" d="M896.24,131.24c-1.5,0.61-3.11,1.05-4.5,1.85c-14.45,8.32-28.85,16.75-43.31,25.06
			c-9.71,5.58-19.51,11.01-29.27,16.5c-4.41,2.48-6.37,6.14-4.54,9.42c6.1,10.94,12.35,21.8,18.71,32.6
			c0.5,0.85,2.56,1.64,3.43,1.29c5.76-2.32,11.67-4.47,17-7.58c12.16-7.09,22.02-16.7,29.53-28.72
			c8.71-13.93,13.2-29.07,13.84-46.53C896.99,134.51,896.61,132.87,896.24,131.24z"/>
		<path class="st0" d="M767.28,102.17c7.09,12.35,14.12,24.74,21.2,37.1c4.45,7.77,9.19,15.38,13.35,23.3
			c3.28,6.25,6.9,7.62,13,4.04c7.08-4.16,14.2-8.24,21.31-12.36c5.81-3.37,11.62-6.74,17.44-10.1c13.01-7.49,26-15.02,39.07-22.41
			c2.54-1.44,3.31-3.14,2.56-5.89c-1.14-4.16-2.09-8.36-3.11-12.55c-30.87-62.82-90.47-57.75-94.39-57.35c0-0.01,0-0.02,0-0.03
			c-3.67,0.57-7.41,0.88-11.01,1.76c-14.03,3.46-26.4,10.19-37.25,19.69c-0.59,0.52-0.87,2.23-0.48,2.92
			C755,80.96,761.18,91.54,767.28,102.17z"/>
		<path class="st0" d="M765.42,132.31c2.8-1.63,5.13-3.74,4.18-7.36c-0.4-1.52-1.68-2.8-2.5-4.23c-8.11-14.2-16.22-28.41-24.3-42.63
			c-1.16-2.04-2.34-1.86-3.61-0.22c-1.32,1.71-2.57,3.48-3.82,5.24c-7.06,9.87-11.7,20.79-14.03,32.7c-0.32,0.93-0.8,1.84-0.93,2.79
			c-1.58,11.56-1.79,23.1,0.88,34.54c0.3,1.28,1,2.48,1.52,3.71c1.34-0.7,2.68-1.41,4.03-2.11
			C739.7,147.26,752.57,139.8,765.42,132.31z"/>
		<path class="st0" d="M814.63,202.81c-4.16-7.28-8.3-14.58-12.5-21.84c-7.1-12.3-14.3-24.53-21.31-36.88
			c-2.7-4.75-5.63-6.05-10.39-3.37c-14.12,7.94-28.13,16.05-42.19,24.09c-2.42,1.38-2.4,3.25-1.31,5.51
			c5.19,10.7,11.92,20.21,20.62,28.43c16.8,15.85,36.84,23.47,60.88,24.45c3.84-0.44,8.87-1.02,13.9-1.61
			c2.13-0.25,2.42-1.18,1.33-3.03C820.58,213.36,817.64,208.07,814.63,202.81z"/>
	</g>
	<ellipse class="st1" cx="808.47" cy="135.77" rx="90.62" ry="88.89"/>
</g>
<g>
	<circle class="st2" cx="742.77" cy="118.89" r="12"/>
	<circle class="st2" cx="787.82" cy="195.72" r="12"/>
	<circle class="st2" cx="766.89" cy="188.11" r="6.5"/>
</g>
<g>
	<g>
		<path class="st0" d="M1112.03,132.13c-1.5,0.61-3.11,1.05-4.5,1.85c-14.45,8.32-28.85,16.75-43.31,25.06
			c-9.71,5.58-19.51,11.01-29.27,16.5c-4.41,2.48-6.37,6.14-4.54,9.42c6.1,10.94,12.35,21.8,18.71,32.6
			c0.5,0.85,2.56,1.64,3.43,1.29c5.76-2.32,11.67-4.47,17-7.58c12.16-7.09,22.02-16.7,29.53-28.72
			c8.71-13.93,13.2-29.07,13.84-46.53C1112.78,135.4,1112.4,133.77,1112.03,132.13z"/>
		<path class="st0" d="M983.07,103.06c7.09,12.35,14.12,24.74,21.2,37.1c4.45,7.77,9.19,15.38,13.35,23.3
			c3.28,6.25,6.9,7.62,13,4.04c7.08-4.16,14.2-8.24,21.31-12.36c5.81-3.37,11.62-6.74,17.44-10.1c13.01-7.49,26-15.02,39.07-22.41
			c2.54-1.44,3.31-3.14,2.56-5.89c-1.14-4.16-2.09-8.36-3.11-12.55c-30.87-62.82-90.47-57.75-94.39-57.35c0-0.01,0-0.02,0-0.03
			c-3.67,0.57-7.41,0.88-11.01,1.76c-14.03,3.46-26.4,10.19-37.25,19.69c-0.59,0.52-0.87,2.23-0.48,2.92
			C970.79,81.86,976.97,92.43,983.07,103.06z"/>
		<path class="st0" d="M981.21,133.2c2.8-1.63,5.13-3.74,4.18-7.36c-0.4-1.52-1.68-2.8-2.5-4.23c-8.11-14.2-16.22-28.41-24.3-42.63
			c-1.16-2.04-2.34-1.86-3.61-0.22c-1.32,1.71-2.57,3.48-3.82,5.24c-7.06,9.87-11.7,20.79-14.03,32.7c-0.32,0.93-0.8,1.84-0.93,2.79
			c-1.58,11.56-1.79,23.1,0.88,34.54c0.3,1.28,1,2.48,1.52,3.71c1.34-0.7,2.68-1.41,4.03-2.11
			C955.49,148.15,968.36,140.69,981.21,133.2z"/>
		<path class="st0" d="M1030.42,203.7c-4.16-7.28-8.3-14.58-12.5-21.84c-7.1-12.3-14.3-24.53-21.31-36.88
			c-2.7-4.75-5.63-6.05-10.39-3.37c-14.12,7.94-28.13,16.05-42.19,24.09c-2.42,1.38-2.4,3.25-1.31,5.51
			c5.19,10.7,11.92,20.21,20.62,28.43c16.8,15.85,36.84,23.47,60.88,24.45c3.84-0.44,8.87-1.02,13.9-1.61
			c2.13-0.25,2.42-1.18,1.33-3.03C1036.37,214.25,1033.43,208.96,1030.42,203.7z"/>
	</g>
	<ellipse class="st1" cx="1024.26" cy="136.66" rx="90.62" ry="88.89"/>
</g>
<g>
	<circle class="st2" cx="956.35" cy="118.89" r="12"/>
	<circle class="st2" cx="1001.4" cy="195.72" r="12"/>
	<circle class="st2" cx="980.47" cy="188.11" r="6.5"/>
</g>
<g>
	<g>
		<path class="st0" d="M1330.43,132.13c-1.5,0.61-3.11,1.05-4.5,1.85c-14.45,8.32-28.85,16.75-43.31,25.06
			c-9.71,5.58-19.51,11.01-29.27,16.5c-4.41,2.48-6.37,6.14-4.54,9.42c6.1,10.94,12.35,21.8,18.71,32.6
			c0.5,0.85,2.56,1.64,3.43,1.29c5.76-2.32,11.67-4.47,17-7.58c12.16-7.09,22.02-16.7,29.53-28.72
			c8.71-13.93,13.2-29.07,13.84-46.53C1331.18,135.4,1330.8,133.77,1330.43,132.13z"/>
		<path class="st0" d="M1201.47,103.06c7.09,12.35,14.12,24.74,21.2,37.1c4.45,7.77,9.19,15.38,13.35,23.3
			c3.28,6.25,6.9,7.62,13,4.04c7.08-4.16,14.2-8.24,21.31-12.36c5.81-3.37,11.62-6.74,17.44-10.1c13.01-7.49,26-15.02,39.07-22.41
			c2.54-1.44,3.31-3.14,2.56-5.89c-1.14-4.16-2.09-8.36-3.11-12.55c-30.87-62.82-90.47-57.75-94.39-57.35c0-0.01,0-0.02,0-0.03
			c-3.67,0.57-7.41,0.88-11.01,1.76c-14.03,3.46-26.4,10.19-37.25,19.69c-0.59,0.52-0.87,2.23-0.48,2.92
			C1189.19,81.86,1195.38,92.43,1201.47,103.06z"/>
		<path class="st0" d="M1199.61,133.2c2.8-1.63,5.13-3.74,4.18-7.36c-0.4-1.52-1.68-2.8-2.5-4.23c-8.11-14.2-16.22-28.41-24.3-42.63
			c-1.16-2.04-2.34-1.86-3.61-0.22c-1.32,1.71-2.57,3.48-3.82,5.24c-7.06,9.87-11.7,20.79-14.03,32.7c-0.32,0.93-0.8,1.84-0.93,2.79
			c-1.58,11.56-1.79,23.1,0.88,34.54c0.3,1.28,1,2.48,1.52,3.71c1.34-0.7,2.68-1.41,4.03-2.11
			C1173.89,148.15,1186.76,140.69,1199.61,133.2z"/>
		<path class="st0" d="M1248.82,203.7c-4.16-7.28-8.3-14.58-12.5-21.84c-7.1-12.3-14.3-24.53-21.31-36.88
			c-2.7-4.75-5.63-6.05-10.39-3.37c-14.12,7.94-28.13,16.05-42.19,24.09c-2.42,1.38-2.4,3.25-1.31,5.51
			c5.19,10.7,11.92,20.21,20.62,28.43c16.8,15.85,36.84,23.47,60.88,24.45c3.84-0.44,8.87-1.02,13.9-1.61
			c2.13-0.25,2.42-1.18,1.33-3.03C1254.77,214.25,1251.83,208.96,1248.82,203.7z"/>
	</g>
	<ellipse class="st1" cx="1242.66" cy="136.66" rx="90.62" ry="88.89"/>
</g>
<g>
	<circle class="st2" cx="1175.66" cy="118.89" r="12"/>
	<circle class="st2" cx="1220.71" cy="195.72" r="12"/>
	<circle class="st2" cx="1199.78" cy="188.11" r="6.5"/>
</g>
<g>
	<g>
		<path class="st0" d="M2415.67,136.55c-1.5,0.61-3.11,1.05-4.5,1.85c-14.45,8.32-28.85,16.75-43.31,25.06
			c-9.71,5.58-19.51,11.01-29.27,16.5c-4.41,2.48-6.37,6.14-4.54,9.42c6.1,10.94,12.35,21.8,18.71,32.6
			c0.5,0.85,2.56,1.64,3.43,1.29c5.76-2.32,11.67-4.47,17-7.58c12.16-7.09,22.02-16.7,29.53-28.72
			c8.71-13.93,13.2-29.07,13.84-46.53C2416.42,139.83,2416.04,138.19,2415.67,136.55z"/>
		<path class="st0" d="M2286.71,107.48c7.09,12.35,14.12,24.74,21.2,37.1c4.45,7.77,9.19,15.38,13.35,23.3
			c3.28,6.25,6.9,7.62,13,4.04c7.08-4.16,14.2-8.24,21.31-12.36c5.81-3.37,11.62-6.74,17.44-10.1c13.01-7.49,26-15.02,39.07-22.41
			c2.54-1.44,3.31-3.14,2.56-5.89c-1.14-4.16-2.09-8.36-3.11-12.55c-30.87-62.82-90.47-57.75-94.39-57.35c0-0.01,0-0.02,0-0.03
			c-3.67,0.57-7.41,0.88-11.01,1.76c-14.03,3.46-26.4,10.19-37.25,19.69c-0.59,0.52-0.87,2.23-0.48,2.92
			C2274.43,86.28,2280.61,96.86,2286.71,107.48z"/>
		<path class="st0" d="M2284.85,137.62c2.8-1.63,5.13-3.74,4.18-7.36c-0.4-1.52-1.68-2.8-2.5-4.23
			c-8.11-14.2-16.22-28.41-24.3-42.63c-1.16-2.04-2.34-1.86-3.61-0.22c-1.32,1.71-2.57,3.48-3.82,5.24
			c-7.06,9.87-11.7,20.79-14.03,32.7c-0.32,0.93-0.8,1.84-0.93,2.79c-1.58,11.56-1.79,23.1,0.88,34.54c0.3,1.28,1,2.48,1.52,3.71
			c1.34-0.7,2.68-1.41,4.03-2.11C2259.13,152.58,2272,145.11,2284.85,137.62z"/>
		<path class="st0" d="M2334.06,208.13c-4.16-7.28-8.3-14.58-12.5-21.84c-7.1-12.3-14.3-24.53-21.31-36.88
			c-2.7-4.75-5.63-6.05-10.39-3.37c-14.12,7.94-28.13,16.05-42.19,24.09c-2.42,1.38-2.4,3.25-1.31,5.51
			c5.19,10.7,11.92,20.21,20.62,28.43c16.8,15.85,36.84,23.47,60.88,24.45c3.84-0.44,8.87-1.02,13.9-1.61
			c2.13-0.25,2.42-1.18,1.33-3.03C2340.01,218.67,2337.07,213.38,2334.06,208.13z"/>
	</g>
	<ellipse class="st1" cx="2327.9" cy="141.08" rx="90.62" ry="88.89"/>
</g>
<path class="st3" d="M2402.1,149.49c-11.58,29.43,8.14,34.7-10.13,57.35c-17.57,21.78-40.29,19.96-75.8,19.96
	c-43.71,0-109.06-41.72-71.86-82.89c28.32-31.34-6.58-82.08,71.86-80.48C2359.87,64.31,2436.6,61.8,2402.1,149.49z"/>
<path class="st4" d="M2235.51,153.12c0,0,39.54-23.39,53.52-22.86c13.98,0.53,34.66-4.85,38.86,10.82s9.78,35.94,27.64,46.79
	c17.67,10.74,27.7,30.67,14.2,39.49s-29.85,11.43-46.47,4.16c-16.62-7.27-51.41,6.23-69.58-12.46
	C2235.51,200.37,2201.24,171.81,2235.51,153.12z"/>
<path class="st326" d="M2235.49,181.54c0,0,27.78,49.6,65.65,39.04c33.46-9.33,43.86,20.09,61.51,4.84s-32.2-34.68-33.8-52.79
	c-1.6-18.12-25.04-43.16-39.96-36.77C2273.96,142.25,2221.45,154.53,2235.49,181.54z"/>
<path class="st327" d="M2290.48,76.18c0,0,9.59,9.06,9.59,17.05s-0.53,18.12,12.79,22.91c13.32,4.8,25.04,37.3,39.43,38.36
	c14.39,1.07,42.63,2.13,39.43-25.04c-3.2-27.18-14.92-40.5-14.39-58.61c0.53-18.12-0.9-43.36-41.56-26.11
	c-15.05,6.38-20.25,9.06-34.1,6.93S2280.89,67.65,2290.48,76.18z"/>
<path class="st326" d="M2340.51,48.18c0,0-12.67,9.5-21.72,10.86c-9.05,1.36-24.43-0.45-24.43,8.14s5.43,15.38,7.69,26.24
	c2.26,10.86,19.91,12.22,27.15,22.62s10.86,14.03,24.88,18.1c14.03,4.07,17.64,15.38,25.34-1.81c7.69-17.19,6.33-19-1.36-31.67
	s-5.88-24.43-7.24-35.29C2369.47,54.51,2360.98,37.42,2340.51,48.18z"/>
<path class="st328" d="M2249.89,120.78c-12.45-5.28-14.9-13.67-7.41-19.3c7.49-5.63,15.73-25.04,24.63-7.9s29.92,27.87,12.81,35.12
	S2259.87,125.01,2249.89,120.78z"/>
<g>
	<path class="st329" d="M2269.46,155.14c0,0-11.14,5.97-6.36,12.33s3.58,21.88,11.14,25.46c7.56,3.58,15.91-1.19,27.05,1.99
		c11.14,3.18,19.89-0.8,15.51-9.55c-4.38-8.75-7.16-22.67-12.33-30.63C2299.29,146.79,2278.21,145.2,2269.46,155.14z"/>
	<path class="st329" d="M2327.14,198.1c0,0,2.78,1.19,9.55,0.4c6.76-0.8,13.52,7.96,9.94,12.33c-3.58,4.38-7.95,6.76-15.91,2.78
		s-21.48,2.78-19.49-3.58S2311.23,197.31,2327.14,198.1z"/>
	<path class="st329" d="M2358.03,51.41c0,0-13.89-5.64-28.51,8.28c-8.15,7.76-13.13,5.57-20.29,10.74
		c-7.16,5.17-7.95,32.62,8.35,33.01c16.31,0.4,14.72,15.51,26.65,15.51s21.88,18.3,29.83,0.8c7.95-17.5-9.15-15.11-7.56-28.24
		S2369.57,54.19,2358.03,51.41z"/>
</g>
<path class="st325" d="M2290.8,163.79c0,0-1.54-0.78-1.23,1.65c0.31,2.43,1.53-0.08,2.07-0.81S2290.8,163.79,2290.8,163.79z"/>
<path class="st325" d="M2296.95,170.79c0.09,0.22,1.15,2.59-1.03,2.47c-2.17-0.12-1.09-1.15-3.44-0.97
	c-2.35,0.18-3.14-1.03-1.39-1.93C2292.85,169.46,2295.93,168.26,2296.95,170.79z"/>
<path class="st28" d="M2309.64,78.71c0,0-5.9,12.61,4.03,14.76s9.93,3.49,13.15,7.78c3.22,4.29,15.41,7.94,21.77,8.16
	c7.84,0.27,18.07,12.8,19.29,5.26c2.26-13.93-7.78-19.05-5.9-24.96c1.88-5.9,4.12-23-3.31-28.08c-8.33-5.7-15.89-9.46-23.67-3.29
	c-7.78,6.17-14.35,15.54-18.11,15.54C2313.13,73.87,2310.45,76.02,2309.64,78.71z"/>
<path class="st28" d="M2282.51,161.13c0,0-11.94,1.57-11.94,8.8s5.03,13.83,14.46,14.77c9.43,0.94,11.31,4.09,13.51,5.34
	c2.2,1.26,8.8-0.31,8.17-5.66c-0.63-5.34-2.83-5.66-3.46-10.69c-0.63-5.03,3.77-8.49-3.14-9.11c-6.91-0.63-6.91,0.31-8.49-6.29
	C2290.05,151.71,2283.45,154.85,2282.51,161.13z"/>
<path class="st324" d="M2356.26,62.94c0,0-3.95-5.04-17.12,0.38c-10.31,4.24-9.54,14.46-16,13.23c-6.46-1.23-8.31,0.62-8.31,6.15
	c0,5.54-0.31,7.08,7.08,7.08s13.23,0.62,13.54,7.08c0.31,6.46,4.61,9.85,10.15,8.31s9.23-0.92,11.38,0.92
	c2.15,1.85,7.79,0.79,4.1-5.67s-2.68-8.88-0.22-15.34C2363.32,78.61,2365.49,70.94,2356.26,62.94z"/>
<path class="st28" d="M2338.79,204.99c0,0-3.22-0.99-4.71,0.5c-1.49,1.49-1.74,4.46,2.23,4.46c3.97,0,3.72-1.74,6.2-3.72
	S2338.79,204.99,2338.79,204.99z"/>
<path class="st149" d="M2320.77,86.88c0.8,1.2,11.38,1.11,13.57,4.7c2.61,4.29,4.06-0.21,8.44,2.55
	c13.54,8.52,12.57,6.09,12.76-3.93c0.2-10.02,5.11-14.15,1.83-19.79c-5.27-9.06-11.45-5.54-17.15-2.59
	c-2.6,1.35-7.84,6.46-12.23,9.56C2322.78,81.06,2316.93,81.13,2320.77,86.88z"/>
<path class="st324" d="M2287.45,160.53c0,0-2.41,0.27-2.35,4.69c0.08,5.94-10.85-1.76-8.8,4.69s4.69,7.33,10.56,6.45
	c5.87-0.88,5.57,3.23,9.68-0.88c4.11-4.11,4.69-6.45-1.17-7.92S2293.32,158.18,2287.45,160.53z"/>
<path class="st330" d="M2335.56,74.03c0,0-10.59,7.5-6.9,8.84c3.69,1.34,6.02-1.07,8.83,5.09c2.17,4.74,5.45,2.35,10.65,3.69
	c5.2,1.34,7.55-0.67,5.87-5.2c-1.68-4.53-2.52-3.36-1.51-8.73c1.01-5.37-3.69-9.9-7.22-7.89
	C2341.77,71.85,2340.09,69.33,2335.56,74.03z"/>
<path class="st325" d="M2339.76,77.89c0,0-4.53,5.03-0.17,6.04c4.36,1.01,3.52,1.34,5.87,2.18c2.35,0.84,5.03-2.35,3.69-5.71
	c-1.34-3.36,2.01-6.04-2.01-5.37C2343.11,75.71,2339.93,74.19,2339.76,77.89z"/>
<path class="st330" d="M2288.04,167.02c0,0-2.46,3.58,0.19,3.58c2.65,0,2.4,0.37,2.28-2.59
	C2290.39,165.05,2288.04,167.02,2288.04,167.02z"/>
<g>
	<circle class="st342" cx="2343.14" cy="83.4" r="33.3"/>
</g>
<g>
	
		<ellipse transform="matrix(0.3827 -0.9239 0.9239 0.3827 1253.1072 2219.387)" class="st344" cx="2287.33" cy="171.99" rx="41.55" ry="41.55"/>
</g>
<path class="st346" d="M2266.15,103.69c0,0,0.96,3.25,8.21,9.38c7.25,6.14,2.25,14.24-7.23,9.77c-9.49-4.46-16.44-4.63-13.29-15.64
	C2254.61,104.47,2258.52,93.13,2266.15,103.69z"/>
<g>
	<g>
		<path class="st0" d="M2650.38,136.55c-1.5,0.61-3.11,1.05-4.5,1.85c-14.45,8.32-28.85,16.75-43.31,25.06
			c-9.71,5.58-19.51,11.01-29.27,16.5c-4.41,2.48-6.37,6.14-4.54,9.42c6.1,10.94,12.35,21.8,18.71,32.6
			c0.5,0.85,2.56,1.64,3.43,1.29c5.76-2.32,11.67-4.47,17-7.58c12.16-7.09,22.02-16.7,29.53-28.72
			c8.71-13.93,13.2-29.07,13.84-46.53C2651.13,139.83,2650.76,138.19,2650.38,136.55z"/>
		<path class="st0" d="M2521.43,107.48c7.09,12.35,14.12,24.74,21.2,37.1c4.45,7.77,9.19,15.38,13.35,23.3
			c3.28,6.25,6.9,7.62,13,4.04c7.08-4.16,14.2-8.24,21.31-12.36c5.81-3.37,11.62-6.74,17.44-10.1c13.01-7.49,26-15.02,39.07-22.41
			c2.54-1.44,3.31-3.14,2.56-5.89c-1.14-4.16-2.09-8.36-3.11-12.55c-30.87-62.82-90.47-57.75-94.39-57.35c0-0.01,0-0.02,0-0.03
			c-3.67,0.57-7.41,0.88-11.01,1.76c-14.03,3.46-26.4,10.19-37.25,19.69c-0.59,0.52-0.87,2.23-0.48,2.92
			C2509.15,86.28,2515.33,96.86,2521.43,107.48z"/>
		<path class="st0" d="M2519.57,137.62c2.8-1.63,5.13-3.74,4.18-7.36c-0.4-1.52-1.68-2.8-2.5-4.23
			c-8.11-14.2-16.22-28.41-24.3-42.63c-1.16-2.04-2.34-1.86-3.61-0.22c-1.32,1.71-2.57,3.48-3.82,5.24
			c-7.06,9.87-11.7,20.79-14.03,32.7c-0.32,0.93-0.8,1.84-0.93,2.79c-1.58,11.56-1.79,23.1,0.88,34.54c0.3,1.28,1,2.48,1.52,3.71
			c1.34-0.7,2.68-1.41,4.03-2.11C2493.85,152.58,2506.72,145.11,2519.57,137.62z"/>
		<path class="st0" d="M2568.78,208.13c-4.16-7.28-8.3-14.58-12.5-21.84c-7.1-12.3-14.3-24.53-21.31-36.88
			c-2.7-4.75-5.63-6.05-10.39-3.37c-14.12,7.94-28.13,16.05-42.19,24.09c-2.42,1.38-2.4,3.25-1.31,5.51
			c5.19,10.7,11.92,20.21,20.62,28.43c16.8,15.85,36.84,23.47,60.88,24.45c3.84-0.44,8.87-1.02,13.9-1.61
			c2.13-0.25,2.42-1.18,1.33-3.03C2574.73,218.67,2571.79,213.38,2568.78,208.13z"/>
	</g>
	<ellipse class="st1" cx="2562.61" cy="141.08" rx="90.62" ry="88.89"/>
</g>
<path class="st3" d="M2636.82,149.49c-11.58,29.43,8.14,34.7-10.13,57.35c-17.57,21.78-40.29,19.96-75.8,19.96
	c-43.71,0-109.06-41.72-71.86-82.89c28.32-31.34-6.58-82.08,71.86-80.48C2594.59,64.31,2671.32,61.8,2636.82,149.49z"/>
<path class="st4" d="M2470.23,153.12c0,0,39.54-23.39,53.52-22.86c13.98,0.53,34.66-4.85,38.86,10.82s9.78,35.94,27.64,46.79
	c17.67,10.74,27.7,30.67,14.2,39.49s-29.85,11.43-46.47,4.16c-16.62-7.27-51.41,6.23-69.58-12.46
	C2470.23,200.37,2435.96,171.81,2470.23,153.12z"/>
<path class="st326" d="M2470.21,181.54c0,0,27.78,49.6,65.65,39.04c33.46-9.33,43.86,20.09,61.51,4.84s-32.2-34.68-33.8-52.79
	c-1.6-18.12-25.04-43.16-39.96-36.77C2508.68,142.25,2456.17,154.53,2470.21,181.54z"/>
<path class="st327" d="M2525.2,76.18c0,0,9.59,9.06,9.59,17.05s-0.53,18.12,12.79,22.91c13.32,4.8,25.04,37.3,39.43,38.36
	c14.39,1.07,42.63,2.13,39.43-25.04c-3.2-27.18-14.92-40.5-14.39-58.61c0.53-18.12-0.9-43.36-41.56-26.11
	c-15.05,6.38-20.25,9.06-34.1,6.93S2515.6,67.65,2525.2,76.18z"/>
<path class="st326" d="M2575.23,48.18c0,0-12.67,9.5-21.72,10.86c-9.05,1.36-24.43-0.45-24.43,8.14s5.43,15.38,7.69,26.24
	c2.26,10.86,19.91,12.22,27.15,22.62s10.86,14.03,24.88,18.1c14.03,4.07,17.64,15.38,25.34-1.81c7.69-17.19,6.33-19-1.36-31.67
	s-5.88-24.43-7.24-35.29C2604.19,54.51,2595.7,37.42,2575.23,48.18z"/>
<path class="st328" d="M2484.6,120.78c-12.45-5.28-14.9-13.67-7.41-19.3c7.49-5.63,15.73-25.04,24.63-7.9s29.92,27.87,12.81,35.12
	S2494.59,125.01,2484.6,120.78z"/>
<g>
	<path class="st329" d="M2504.18,155.14c0,0-11.14,5.97-6.36,12.33s3.58,21.88,11.14,25.46c7.56,3.58,15.91-1.19,27.05,1.99
		c11.14,3.18,19.89-0.8,15.51-9.55c-4.38-8.75-7.16-22.67-12.33-30.63C2534.01,146.79,2512.93,145.2,2504.18,155.14z"/>
	<path class="st329" d="M2561.85,198.1c0,0,2.78,1.19,9.55,0.4c6.76-0.8,13.52,7.96,9.94,12.33c-3.58,4.38-7.95,6.76-15.91,2.78
		s-21.48,2.78-19.49-3.58S2545.94,197.31,2561.85,198.1z"/>
	<path class="st329" d="M2592.75,51.41c0,0-13.89-5.64-28.51,8.28c-8.15,7.76-13.13,5.57-20.29,10.74
		c-7.16,5.17-7.95,32.62,8.35,33.01c16.31,0.4,14.72,15.51,26.65,15.51c11.93,0,21.88,18.3,29.83,0.8
		c7.95-17.5-9.15-15.11-7.56-28.24S2604.29,54.19,2592.75,51.41z"/>
</g>
<path class="st325" d="M2525.52,163.79c0,0-1.54-0.78-1.23,1.65c0.31,2.43,1.53-0.08,2.07-0.81S2525.52,163.79,2525.52,163.79z"/>
<path class="st325" d="M2531.67,170.79c0.09,0.22,1.15,2.59-1.03,2.47c-2.17-0.12-1.09-1.15-3.44-0.97
	c-2.35,0.18-3.14-1.03-1.39-1.93C2527.57,169.46,2530.64,168.26,2531.67,170.79z"/>
<path class="st28" d="M2544.36,78.71c0,0-5.9,12.61,4.03,14.76s9.93,3.49,13.15,7.78c3.22,4.29,15.41,7.94,21.77,8.16
	c7.84,0.27,18.07,12.8,19.29,5.26c2.26-13.93-7.78-19.05-5.9-24.96c1.88-5.9,4.12-23-3.31-28.08c-8.33-5.7-15.89-9.46-23.67-3.29
	c-7.78,6.17-14.35,15.54-18.11,15.54C2547.85,73.87,2545.17,76.02,2544.36,78.71z"/>
<path class="st28" d="M2517.22,161.13c0,0-11.94,1.57-11.94,8.8s5.03,13.83,14.46,14.77c9.43,0.94,11.31,4.09,13.51,5.34
	c2.2,1.26,8.8-0.31,8.17-5.66c-0.63-5.34-2.83-5.66-3.46-10.69c-0.63-5.03,3.77-8.49-3.14-9.11c-6.91-0.63-6.91,0.31-8.49-6.29
	C2524.77,151.71,2518.17,154.85,2517.22,161.13z"/>
<path class="st324" d="M2590.97,62.94c0,0-3.95-5.04-17.12,0.38c-10.31,4.24-9.54,14.46-16,13.23c-6.46-1.23-8.31,0.62-8.31,6.15
	c0,5.54-0.31,7.08,7.08,7.08s13.23,0.62,13.54,7.08c0.31,6.46,4.61,9.85,10.15,8.31s9.23-0.92,11.38,0.92
	c2.15,1.85,7.79,0.79,4.1-5.67s-2.68-8.88-0.22-15.34C2598.04,78.61,2600.2,70.94,2590.97,62.94z"/>
<path class="st28" d="M2573.51,204.99c0,0-3.22-0.99-4.71,0.5c-1.49,1.49-1.74,4.46,2.23,4.46c3.97,0,3.72-1.74,6.2-3.72
	S2573.51,204.99,2573.51,204.99z"/>
<path class="st149" d="M2555.49,86.88c0.8,1.2,11.38,1.11,13.57,4.7c2.61,4.29,4.06-0.21,8.44,2.55
	c13.54,8.52,12.57,6.09,12.76-3.93c0.2-10.02,5.11-14.15,1.83-19.79c-5.27-9.06-11.45-5.54-17.15-2.59
	c-2.6,1.35-7.84,6.46-12.23,9.56C2557.49,81.06,2551.65,81.13,2555.49,86.88z"/>
<path class="st324" d="M2522.17,160.53c0,0-2.41,0.27-2.35,4.69c0.08,5.94-10.85-1.76-8.8,4.69s4.69,7.33,10.56,6.45
	c5.87-0.88,5.57,3.23,9.68-0.88c4.11-4.11,4.69-6.45-1.17-7.92S2528.04,158.18,2522.17,160.53z"/>
<path class="st330" d="M2570.28,74.03c0,0-10.59,7.5-6.9,8.84c3.69,1.34,6.02-1.07,8.83,5.09c2.17,4.74,5.45,2.35,10.65,3.69
	c5.2,1.34,7.55-0.67,5.87-5.2c-1.68-4.53-2.52-3.36-1.51-8.73c1.01-5.37-3.69-9.9-7.22-7.89
	C2576.49,71.85,2574.81,69.33,2570.28,74.03z"/>
<path class="st325" d="M2572.1,76.21c0,0-6.11,4.81-0.16,6.24s4.74,4.23,7.94,5.42c3.2,1.19,6.86-3.33,5.03-8.09
	c-1.83-4.76,2.74-8.57-2.74-7.62S2572.33,70.97,2572.1,76.21z"/>
<path class="st330" d="M2520.79,170.13c0,0,4.6,5.62,5.96,1.77s1.83-3.27-3.08-4.79S2520.79,170.13,2520.79,170.13z"/>
<g>
	<circle class="st342" cx="2577.86" cy="83.4" r="33.3"/>
</g>
<g>
	
		<ellipse transform="matrix(0.3827 -0.9239 0.9239 0.3827 1398.0031 2436.239)" class="st344" cx="2522.05" cy="171.99" rx="41.55" ry="41.55"/>
</g>
<path class="st346" d="M2500.87,103.69c0,0,0.96,3.25,8.21,9.38c7.25,6.14,2.25,14.24-7.23,9.77c-9.49-4.46-16.44-4.63-13.29-15.64
	C2489.33,104.47,2493.24,93.13,2500.87,103.69z"/>
<g>
	<g>
		<path class="st0" d="M2203.82,132.98c-1.5,0.61-3.11,1.05-4.5,1.85c-14.45,8.32-28.85,16.75-43.31,25.06
			c-9.71,5.58-19.51,11.01-29.27,16.5c-4.41,2.48-6.37,6.14-4.54,9.42c6.1,10.94,12.35,21.8,18.71,32.6
			c0.5,0.85,2.56,1.64,3.43,1.29c5.76-2.32,11.67-4.47,17-7.58c12.16-7.09,22.02-16.7,29.53-28.72
			c8.71-13.93,13.2-29.07,13.84-46.53C2204.57,136.25,2204.2,134.61,2203.82,132.98z"/>
		<path class="st0" d="M2074.87,103.91c7.09,12.35,14.12,24.74,21.2,37.1c4.45,7.77,9.19,15.38,13.35,23.3
			c3.28,6.25,6.9,7.62,13,4.04c7.08-4.16,14.2-8.24,21.31-12.36c5.81-3.37,11.62-6.74,17.44-10.1c13.01-7.49,26-15.02,39.07-22.41
			c2.54-1.44,3.31-3.14,2.56-5.89c-1.14-4.16-2.09-8.36-3.11-12.55c-30.87-62.82-90.47-57.75-94.39-57.35c0-0.01,0-0.02,0-0.03
			c-3.67,0.57-7.41,0.88-11.01,1.76c-14.03,3.46-26.4,10.19-37.25,19.69c-0.59,0.52-0.87,2.23-0.48,2.92
			C2062.59,82.7,2068.77,93.28,2074.87,103.91z"/>
		<path class="st0" d="M2073.01,134.04c2.8-1.63,5.13-3.74,4.18-7.36c-0.4-1.52-1.68-2.8-2.5-4.23
			c-8.11-14.2-16.22-28.41-24.3-42.63c-1.16-2.04-2.34-1.86-3.61-0.22c-1.32,1.71-2.57,3.48-3.82,5.24
			c-7.06,9.87-11.7,20.79-14.03,32.7c-0.32,0.93-0.8,1.84-0.93,2.79c-1.58,11.56-1.79,23.1,0.88,34.54c0.3,1.28,1,2.48,1.52,3.71
			c1.34-0.7,2.68-1.41,4.03-2.11C2047.29,149,2060.16,141.53,2073.01,134.04z"/>
		<path class="st0" d="M2122.22,204.55c-4.16-7.28-8.3-14.58-12.5-21.84c-7.1-12.3-14.3-24.53-21.31-36.88
			c-2.7-4.75-5.63-6.05-10.39-3.37c-14.12,7.94-28.13,16.05-42.19,24.09c-2.42,1.38-2.4,3.25-1.31,5.51
			c5.19,10.7,11.92,20.21,20.62,28.43c16.8,15.85,36.84,23.47,60.88,24.45c3.84-0.44,8.87-1.02,13.9-1.61
			c2.13-0.25,2.42-1.18,1.33-3.03C2128.17,215.1,2125.23,209.81,2122.22,204.55z"/>
	</g>
	<ellipse class="st1" cx="2116.06" cy="137.51" rx="90.62" ry="88.89"/>
</g>
<path class="st3" d="M2190.26,145.91c-11.58,29.43,8.14,34.7-10.13,57.35c-17.57,21.78-40.29,19.96-75.8,19.96
	c-43.71,0-109.06-41.72-71.86-82.89c28.32-31.34-6.58-82.08,71.86-80.48C2148.03,60.73,2224.76,58.22,2190.26,145.91z"/>
<path class="st4" d="M2023.67,149.54c0,0,39.54-23.39,53.52-22.86c13.98,0.53,34.66-4.85,38.86,10.82
	c4.2,15.67,9.78,35.94,27.64,46.79c17.67,10.74,27.71,30.67,14.2,39.49c-13.5,8.83-29.85,11.43-46.47,4.16s-51.41,6.23-69.58-12.46
	S1989.4,168.24,2023.67,149.54z"/>
<path class="st326" d="M2023.65,177.96c0,0,27.78,49.6,65.65,39.04c33.46-9.33,43.86,20.09,61.51,4.84
	c17.65-15.25-32.2-34.68-33.8-52.79s-25.04-43.16-39.96-36.77C2062.12,138.67,2009.61,150.95,2023.65,177.96z"/>
<path class="st327" d="M2078.64,72.6c0,0,9.59,9.06,9.59,17.05s-0.53,18.12,12.79,22.91c13.32,4.8,25.04,37.3,39.43,38.37
	c14.39,1.07,42.63,2.13,39.43-25.04s-14.92-40.5-14.39-58.61c0.53-18.12-0.9-43.36-41.56-26.11c-15.05,6.38-20.25,9.06-34.1,6.93
	S2069.04,64.08,2078.64,72.6z"/>
<path class="st326" d="M2128.67,44.6c0,0-12.67,9.5-21.72,10.86c-9.05,1.36-24.43-0.45-24.43,8.14s5.43,15.38,7.69,26.24
	c2.26,10.86,19.91,12.22,27.15,22.62c7.24,10.41,10.86,14.03,24.88,18.1c14.03,4.07,17.64,15.38,25.34-1.81s6.33-19-1.36-31.67
	s-5.88-24.43-7.24-35.29C2157.63,50.93,2149.14,33.85,2128.67,44.6z"/>
<path class="st328" d="M2038.05,117.2c-12.45-5.28-14.9-13.67-7.41-19.3c7.49-5.63,15.73-25.04,24.63-7.9
	c8.91,17.14,29.92,27.87,12.81,35.12C2050.97,132.36,2048.03,121.44,2038.05,117.2z"/>
<g>
	<path class="st329" d="M2057.62,151.57c0,0-11.14,5.97-6.36,12.33c4.77,6.36,3.58,21.88,11.14,25.46
		c7.56,3.58,15.91-1.19,27.05,1.99c11.14,3.18,19.89-0.8,15.51-9.55c-4.38-8.75-7.16-22.67-12.33-30.63
		C2087.45,143.21,2066.37,141.62,2057.62,151.57z"/>
	<path class="st329" d="M2115.3,194.52c0,0,2.78,1.19,9.55,0.4c6.76-0.8,13.52,7.96,9.94,12.33s-7.96,6.76-15.91,2.78
		c-7.95-3.98-21.48,2.78-19.49-3.58S2099.39,193.73,2115.3,194.52z"/>
	<path class="st329" d="M2146.19,47.83c0,0-13.89-5.64-28.51,8.28c-8.15,7.76-13.13,5.57-20.29,10.74s-7.96,32.62,8.35,33.01
		c16.31,0.4,14.72,15.51,26.65,15.51s21.88,18.3,29.83,0.8s-9.15-15.11-7.56-28.24C2156.26,74.8,2157.73,50.61,2146.19,47.83z"/>
</g>
<path class="st325" d="M2078.96,160.22c0,0-1.54-0.78-1.23,1.65c0.31,2.43,1.53-0.08,2.07-0.81
	C2080.34,160.34,2078.96,160.22,2078.96,160.22z"/>
<path class="st325" d="M2085.11,167.21c0.09,0.22,1.15,2.59-1.03,2.47c-2.17-0.12-1.09-1.15-3.44-0.97s-3.14-1.03-1.39-1.93
	C2081.01,165.89,2084.08,164.68,2085.11,167.21z"/>
<path class="st28" d="M2097.8,75.13c0,0-5.9,12.61,4.03,14.76s9.93,3.49,13.15,7.78s15.41,7.94,21.77,8.16
	c7.84,0.27,18.07,12.8,19.29,5.26c2.26-13.93-7.78-19.05-5.9-24.96c1.88-5.9,4.12-23-3.31-28.08c-8.33-5.7-15.89-9.46-23.67-3.29
	c-7.78,6.17-14.35,15.54-18.11,15.54S2098.61,72.44,2097.8,75.13z"/>
<path class="st28" d="M2070.66,157.56c0,0-11.94,1.57-11.94,8.8c0,7.23,5.03,13.83,14.46,14.77c9.43,0.94,11.31,4.09,13.51,5.34
	c2.2,1.26,8.8-0.31,8.17-5.66c-0.63-5.34-2.83-5.66-3.46-10.69c-0.63-5.03,3.77-8.49-3.14-9.11c-6.91-0.63-6.91,0.31-8.49-6.29
	C2078.21,148.13,2071.61,151.27,2070.66,157.56z"/>
<path class="st324" d="M2144.41,59.36c0,0-3.95-5.04-17.12,0.38c-10.31,4.24-9.54,14.46-16,13.23c-6.46-1.23-8.31,0.62-8.31,6.15
	c0,5.54-0.31,7.08,7.08,7.08c7.38,0,13.23,0.62,13.54,7.08s4.61,9.85,10.15,8.31c5.54-1.54,9.23-0.92,11.38,0.92s7.79,0.79,4.1-5.67
	c-3.69-6.46-2.68-8.88-0.22-15.34C2151.48,75.04,2153.64,67.36,2144.41,59.36z"/>
<path class="st28" d="M2126.95,201.41c0,0-3.22-0.99-4.71,0.5c-1.49,1.49-1.74,4.46,2.23,4.46c3.97,0,3.72-1.74,6.2-3.72
	S2126.95,201.41,2126.95,201.41z"/>
<path class="st149" d="M2108.93,83.31c0.8,1.2,11.38,1.11,13.57,4.7c2.61,4.29,4.06-0.21,8.44,2.55
	c13.54,8.52,12.57,6.09,12.76-3.93c0.2-10.02,5.11-14.15,1.83-19.79c-5.27-9.06-11.45-5.54-17.15-2.59
	c-2.6,1.35-7.84,6.46-12.23,9.56C2110.94,77.48,2105.09,77.55,2108.93,83.31z"/>
<path class="st324" d="M2075.61,156.95c0,0-2.41,0.27-2.35,4.69c0.08,5.94-10.85-1.76-8.8,4.69c2.05,6.45,4.69,7.33,10.56,6.45
	c5.87-0.88,5.57,3.23,9.68-0.88c4.11-4.11,4.69-6.45-1.17-7.92C2077.67,162.52,2081.48,154.6,2075.61,156.95z"/>
<g>
	<circle class="st342" cx="2131.3" cy="79.82" r="33.3"/>
</g>
<path class="st346" d="M2054.31,100.11c0,0,0.96,3.25,8.21,9.38c7.25,6.14,2.25,14.24-7.23,9.77c-9.49-4.46-16.44-4.63-13.29-15.64
	C2042.77,100.89,2046.68,89.55,2054.31,100.11z"/>
<g>
	<g>
		<path class="st0" d="M1765.42,127.75c-1.5,0.61-3.11,1.05-4.5,1.85c-14.45,8.32-28.85,16.75-43.31,25.06
			c-9.71,5.58-19.51,11.01-29.27,16.5c-4.41,2.48-6.37,6.14-4.54,9.42c6.1,10.94,12.35,21.8,18.71,32.6
			c0.5,0.85,2.56,1.64,3.43,1.29c5.76-2.32,11.67-4.47,17-7.58c12.16-7.09,22.02-16.7,29.53-28.72
			c8.71-13.93,13.2-29.07,13.84-46.53C1766.17,131.03,1765.8,129.39,1765.42,127.75z"/>
		<path class="st0" d="M1636.47,98.68c7.09,12.35,14.12,24.74,21.2,37.1c4.45,7.77,9.19,15.38,13.35,23.3
			c3.28,6.25,6.9,7.62,13,4.04c7.08-4.16,14.2-8.24,21.31-12.36c5.81-3.37,11.62-6.74,17.44-10.1c13.01-7.49,26-15.02,39.07-22.41
			c2.54-1.44,3.31-3.14,2.56-5.89c-1.14-4.16-2.09-8.36-3.11-12.55c-30.87-62.82-90.47-57.75-94.39-57.35c0-0.01,0-0.02,0-0.03
			c-3.67,0.57-7.41,0.88-11.01,1.76c-14.03,3.46-26.4,10.19-37.25,19.69c-0.59,0.52-0.87,2.23-0.48,2.92
			C1624.19,77.48,1630.37,88.06,1636.47,98.68z"/>
		<path class="st0" d="M1634.61,128.82c2.8-1.63,5.13-3.74,4.18-7.36c-0.4-1.52-1.68-2.8-2.5-4.23
			c-8.11-14.2-16.22-28.41-24.3-42.63c-1.16-2.04-2.34-1.86-3.61-0.22c-1.32,1.71-2.57,3.48-3.82,5.24
			c-7.06,9.87-11.7,20.79-14.03,32.7c-0.32,0.93-0.8,1.84-0.93,2.79c-1.58,11.56-1.79,23.1,0.88,34.54c0.3,1.28,1,2.48,1.52,3.71
			c1.34-0.7,2.68-1.41,4.03-2.11C1608.89,143.78,1621.75,136.31,1634.61,128.82z"/>
		<path class="st0" d="M1683.82,199.33c-4.16-7.28-8.3-14.58-12.5-21.84c-7.1-12.3-14.3-24.53-21.31-36.88
			c-2.7-4.75-5.63-6.05-10.39-3.37c-14.12,7.94-28.13,16.05-42.19,24.09c-2.42,1.38-2.4,3.25-1.31,5.51
			c5.19,10.7,11.92,20.21,20.62,28.43c16.8,15.85,36.84,23.47,60.88,24.45c3.84-0.44,8.87-1.02,13.9-1.61
			c2.13-0.25,2.42-1.18,1.33-3.03C1689.77,209.88,1686.82,204.58,1683.82,199.33z"/>
	</g>
	<ellipse class="st1" cx="1677.65" cy="132.28" rx="90.62" ry="88.89"/>
</g>
<path class="st3" d="M1751.86,140.69c-11.58,29.43,8.14,34.7-10.13,57.35c-17.57,21.78-40.29,19.96-75.8,19.96
	c-43.71,0-109.06-41.72-71.86-82.89c28.32-31.34-6.58-82.08,71.86-80.48C1709.62,55.51,1786.36,53,1751.86,140.69z"/>
<path class="st4" d="M1585.27,144.32c0,0,39.54-23.39,53.52-22.86c13.98,0.53,34.66-4.85,38.86,10.82
	c4.2,15.67,9.78,35.94,27.64,46.79c17.67,10.74,27.7,30.67,14.2,39.49s-29.85,11.43-46.47,4.16c-16.62-7.27-51.41,6.23-69.58-12.46
	S1551,163.02,1585.27,144.32z"/>
<path class="st326" d="M1585.25,172.74c0,0,27.78,49.6,65.65,39.04c33.46-9.33,43.86,20.09,61.51,4.84s-32.2-34.68-33.8-52.79
	c-1.6-18.12-25.04-43.16-39.96-36.77C1623.72,133.45,1571.21,145.73,1585.25,172.74z"/>
<path class="st327" d="M1640.23,67.38c0,0,9.59,9.06,9.59,17.05s-0.53,18.12,12.79,22.91s25.04,37.3,39.43,38.36
	c14.39,1.07,42.63,2.13,39.43-25.04c-3.2-27.18-14.92-40.5-14.39-58.61s-0.9-43.36-41.56-26.11c-15.05,6.38-20.25,9.06-34.1,6.93
	S1630.64,58.85,1640.23,67.38z"/>
<path class="st326" d="M1690.27,39.38c0,0-12.67,9.5-21.72,10.86c-9.05,1.36-24.43-0.45-24.43,8.14s5.43,15.38,7.69,26.24
	s19.91,12.22,27.15,22.62c7.24,10.41,10.86,14.03,24.88,18.1c14.03,4.07,17.64,15.38,25.34-1.81s6.33-19-1.36-31.67
	s-5.88-24.43-7.24-35.29C1719.23,45.71,1710.74,28.62,1690.27,39.38z"/>
<path class="st328" d="M1599.64,111.98c-12.45-5.28-14.9-13.67-7.41-19.3c7.49-5.63,15.73-25.04,24.63-7.9s29.92,27.87,12.81,35.12
	C1612.57,127.14,1609.63,116.21,1599.64,111.98z"/>
<g>
	<path class="st329" d="M1619.22,146.35c0,0-11.14,5.97-6.36,12.33c4.77,6.36,3.58,21.88,11.14,25.46
		c7.56,3.58,15.91-1.19,27.05,1.99c11.14,3.18,19.89-0.8,15.51-9.55c-4.38-8.75-7.16-22.67-12.33-30.63
		C1649.05,137.99,1627.97,136.4,1619.22,146.35z"/>
	<path class="st329" d="M1676.89,189.3c0,0,2.78,1.19,9.55,0.4c6.76-0.8,13.52,7.96,9.94,12.33c-3.58,4.38-7.96,6.76-15.91,2.78
		c-7.95-3.98-21.48,2.78-19.49-3.58S1660.98,188.51,1676.89,189.3z"/>
	<path class="st329" d="M1707.79,42.61c0,0-13.89-5.64-28.51,8.28c-8.15,7.76-13.13,5.57-20.29,10.74s-7.96,32.62,8.35,33.01
		c16.31,0.4,14.72,15.51,26.65,15.51c11.93,0,21.88,18.3,29.83,0.8c7.96-17.5-9.15-15.11-7.56-28.24
		C1717.86,69.58,1719.33,45.39,1707.79,42.61z"/>
</g>
<path class="st325" d="M1640.56,155c0,0-1.54-0.78-1.23,1.65c0.31,2.43,1.53-0.08,2.07-0.81C1641.94,155.11,1640.56,155,1640.56,155
	z"/>
<path class="st325" d="M1646.71,161.99c0.09,0.22,1.15,2.59-1.03,2.47s-1.09-1.15-3.44-0.97s-3.14-1.03-1.39-1.93
	C1642.61,160.67,1645.68,159.46,1646.71,161.99z"/>
<path class="st28" d="M1659.4,69.91c0,0-5.9,12.61,4.03,14.76s9.93,3.49,13.15,7.78s15.41,7.94,21.77,8.16
	c7.84,0.27,18.07,12.8,19.29,5.26c2.26-13.93-7.78-19.05-5.9-24.96c1.88-5.9,4.12-23-3.31-28.08c-8.33-5.7-15.89-9.46-23.67-3.29
	s-14.35,15.54-18.11,15.54C1662.89,65.08,1660.21,67.22,1659.4,69.91z"/>
<path class="st28" d="M1632.26,152.33c0,0-11.94,1.57-11.94,8.8s5.03,13.83,14.46,14.77c9.43,0.94,11.31,4.09,13.51,5.34
	c2.2,1.26,8.8-0.31,8.17-5.66s-2.83-5.66-3.46-10.69c-0.63-5.03,3.77-8.49-3.14-9.11c-6.91-0.63-6.91,0.31-8.49-6.29
	C1639.81,142.91,1633.21,146.05,1632.26,152.33z"/>
<path class="st28" d="M1688.55,196.19c0,0-3.22-0.99-4.71,0.5s-1.74,4.46,2.23,4.46s3.72-1.74,6.2-3.72
	C1694.74,195.45,1688.55,196.19,1688.55,196.19z"/>
<path class="st346" d="M1615.9,94.89c0,0,0.96,3.25,8.21,9.38s2.25,14.24-7.23,9.77c-9.49-4.46-16.44-4.63-13.29-15.64
	C1604.37,95.67,1608.28,84.33,1615.9,94.89z"/>
<g>
	<g>
		<path class="st0" d="M1992.2,127.75c-1.5,0.61-3.11,1.05-4.5,1.85c-14.45,8.32-28.85,16.75-43.31,25.06
			c-9.71,5.58-19.51,11.01-29.27,16.5c-4.41,2.48-6.37,6.14-4.54,9.42c6.1,10.94,12.35,21.8,18.71,32.6
			c0.5,0.85,2.56,1.64,3.43,1.29c5.76-2.32,11.67-4.47,17-7.58c12.16-7.09,22.02-16.7,29.53-28.72
			c8.71-13.93,13.2-29.07,13.84-46.53C1992.95,131.03,1992.58,129.39,1992.2,127.75z"/>
		<path class="st0" d="M1863.25,98.68c7.09,12.35,14.12,24.74,21.2,37.1c4.45,7.77,9.19,15.38,13.35,23.3
			c3.28,6.25,6.9,7.62,13,4.04c7.08-4.16,14.2-8.24,21.31-12.36c5.81-3.37,11.62-6.74,17.44-10.1c13.01-7.49,26-15.02,39.07-22.41
			c2.54-1.44,3.31-3.14,2.56-5.89c-1.14-4.16-2.09-8.36-3.11-12.55c-30.87-62.82-90.47-57.75-94.39-57.35c0-0.01,0-0.02,0-0.03
			c-3.67,0.57-7.41,0.88-11.01,1.76c-14.03,3.46-26.4,10.19-37.25,19.69c-0.59,0.52-0.87,2.23-0.48,2.92
			C1850.97,77.48,1857.15,88.06,1863.25,98.68z"/>
		<path class="st0" d="M1861.39,128.82c2.8-1.63,5.13-3.74,4.18-7.36c-0.4-1.52-1.68-2.8-2.5-4.23
			c-8.11-14.2-16.22-28.41-24.3-42.63c-1.16-2.04-2.34-1.86-3.61-0.22c-1.32,1.71-2.57,3.48-3.82,5.24
			c-7.06,9.87-11.7,20.79-14.03,32.7c-0.32,0.93-0.8,1.84-0.93,2.79c-1.58,11.56-1.79,23.1,0.88,34.54c0.3,1.28,1,2.48,1.52,3.71
			c1.34-0.7,2.68-1.41,4.03-2.11C1835.67,143.78,1848.54,136.31,1861.39,128.82z"/>
		<path class="st0" d="M1910.6,199.33c-4.16-7.28-8.3-14.58-12.5-21.84c-7.1-12.3-14.3-24.53-21.31-36.88
			c-2.7-4.75-5.63-6.05-10.39-3.37c-14.12,7.94-28.13,16.05-42.19,24.09c-2.42,1.38-2.4,3.25-1.31,5.51
			c5.19,10.7,11.92,20.21,20.62,28.43c16.8,15.85,36.84,23.47,60.88,24.45c3.84-0.44,8.87-1.02,13.9-1.61
			c2.13-0.25,2.42-1.18,1.33-3.03C1916.55,209.88,1913.6,204.58,1910.6,199.33z"/>
	</g>
	<ellipse class="st1" cx="1904.43" cy="132.28" rx="90.62" ry="88.89"/>
</g>
<path class="st3" d="M1978.64,140.69c-11.58,29.43,8.14,34.7-10.13,57.35c-17.57,21.78-40.29,19.96-75.8,19.96
	c-43.71,0-109.06-41.72-71.86-82.89c28.32-31.34-6.58-82.08,71.86-80.48C1936.41,55.51,2013.14,53,1978.64,140.69z"/>
<path class="st4" d="M1812.05,144.32c0,0,39.54-23.39,53.52-22.86c13.98,0.53,34.66-4.85,38.86,10.82
	c4.2,15.67,9.78,35.94,27.64,46.79c17.67,10.74,27.71,30.67,14.2,39.49c-13.5,8.83-29.85,11.43-46.47,4.16
	c-16.62-7.27-51.41,6.23-69.58-12.46S1777.78,163.02,1812.05,144.32z"/>
<path class="st326" d="M1812.03,172.74c0,0,27.78,49.6,65.65,39.04c33.46-9.33,43.86,20.09,61.51,4.84
	c17.65-15.25-32.2-34.68-33.8-52.79s-25.04-43.16-39.96-36.77C1850.5,133.45,1797.99,145.73,1812.03,172.74z"/>
<path class="st327" d="M1867.02,67.38c0,0,9.59,9.06,9.59,17.05s-0.53,18.12,12.79,22.91c13.32,4.8,25.04,37.3,39.43,38.36
	s42.63,2.13,39.43-25.04c-3.2-27.18-14.92-40.5-14.39-58.61s-0.9-43.36-41.56-26.11c-15.05,6.38-20.25,9.06-34.1,6.93
	S1857.42,58.85,1867.02,67.38z"/>
<path class="st326" d="M1917.05,39.38c0,0-12.67,9.5-21.72,10.86c-9.05,1.36-24.43-0.45-24.43,8.14s5.43,15.38,7.69,26.24
	c2.26,10.86,19.91,12.22,27.15,22.62s10.86,14.03,24.88,18.1s17.64,15.38,25.34-1.81s6.33-19-1.36-31.67
	c-7.69-12.67-5.88-24.43-7.24-35.29C1946.01,45.71,1937.52,28.62,1917.05,39.38z"/>
<path class="st328" d="M1826.42,111.98c-12.45-5.28-14.9-13.67-7.41-19.3c7.49-5.63,15.73-25.04,24.63-7.9s29.92,27.87,12.81,35.12
	C1839.35,127.14,1836.41,116.21,1826.42,111.98z"/>
<g>
	<path class="st329" d="M1846,146.35c0,0-11.14,5.97-6.36,12.33c4.77,6.36,3.58,21.88,11.14,25.46c7.56,3.58,15.91-1.19,27.05,1.99
		c11.14,3.18,19.89-0.8,15.51-9.55c-4.38-8.75-7.16-22.67-12.33-30.63C1875.83,137.99,1854.75,136.4,1846,146.35z"/>
	<path class="st329" d="M1903.67,189.3c0,0,2.78,1.19,9.55,0.4c6.76-0.8,13.52,7.96,9.94,12.33c-3.58,4.38-7.95,6.76-15.91,2.78
		c-7.96-3.98-21.48,2.78-19.49-3.58S1887.76,188.51,1903.67,189.3z"/>
	<path class="st329" d="M1934.57,42.61c0,0-13.89-5.64-28.51,8.28c-8.15,7.76-13.13,5.57-20.29,10.74s-7.96,32.62,8.35,33.01
		c16.31,0.4,14.72,15.51,26.65,15.51c11.93,0,21.88,18.3,29.83,0.8c7.95-17.5-9.15-15.11-7.56-28.24
		C1944.64,69.58,1946.11,45.39,1934.57,42.61z"/>
</g>
<path class="st325" d="M1867.34,155c0,0-1.54-0.78-1.23,1.65c0.31,2.43,1.53-0.08,2.07-0.81S1867.34,155,1867.34,155z"/>
<path class="st325" d="M1873.49,161.99c0.09,0.22,1.15,2.59-1.03,2.47s-1.09-1.15-3.44-0.97c-2.35,0.18-3.14-1.03-1.39-1.93
	S1872.46,159.46,1873.49,161.99z"/>
<path class="st28" d="M1886.18,69.91c0,0-5.9,12.61,4.03,14.76s9.93,3.49,13.15,7.78c3.22,4.29,15.41,7.94,21.77,8.16
	c7.84,0.27,18.07,12.8,19.29,5.26c2.26-13.93-7.78-19.05-5.9-24.96c1.88-5.9,4.12-23-3.31-28.08c-8.33-5.7-15.89-9.46-23.67-3.29
	s-14.35,15.54-18.11,15.54C1889.67,65.08,1886.99,67.22,1886.18,69.91z"/>
<path class="st28" d="M1859.04,152.33c0,0-11.94,1.57-11.94,8.8s5.03,13.83,14.46,14.77c9.43,0.94,11.31,4.09,13.51,5.34
	c2.2,1.26,8.8-0.31,8.17-5.66s-2.83-5.66-3.46-10.69s3.77-8.49-3.14-9.11c-6.91-0.63-6.91,0.31-8.49-6.29
	C1866.59,142.91,1859.99,146.05,1859.04,152.33z"/>
<path class="st324" d="M1932.79,54.14c0,0-3.95-5.04-17.12,0.38c-10.31,4.24-9.54,14.46-16,13.23c-6.46-1.23-8.31,0.62-8.31,6.15
	c0,5.54-0.31,7.08,7.08,7.08s13.23,0.62,13.54,7.08c0.31,6.46,4.61,9.85,10.15,8.31c5.54-1.54,9.23-0.92,11.38,0.92
	c2.15,1.85,7.79,0.79,4.1-5.67c-3.69-6.46-2.68-8.88-0.22-15.34C1939.86,69.81,1942.02,62.14,1932.79,54.14z"/>
<path class="st28" d="M1915.33,196.19c0,0-3.22-0.99-4.71,0.5s-1.74,4.46,2.23,4.46s3.72-1.74,6.2-3.72
	C1921.53,195.45,1915.33,196.19,1915.33,196.19z"/>
<path class="st324" d="M1863.99,151.73c0,0-2.41,0.27-2.35,4.69c0.08,5.94-10.85-1.76-8.8,4.69c2.05,6.45,4.69,7.33,10.56,6.45
	c5.87-0.88,5.57,3.23,9.68-0.88c4.11-4.11,4.69-6.45-1.17-7.92C1866.05,157.3,1869.86,149.38,1863.99,151.73z"/>
<path class="st346" d="M1842.69,94.89c0,0,0.96,3.25,8.21,9.38s2.25,14.24-7.23,9.77s-16.44-4.63-13.29-15.64
	C1831.15,95.67,1835.06,84.33,1842.69,94.89z"/>
<g>
	<g>
		<path class="st0" d="M1545.48,130.96c-1.5,0.61-3.11,1.05-4.5,1.85c-14.45,8.32-28.85,16.75-43.31,25.06
			c-9.71,5.58-19.51,11.01-29.27,16.5c-4.41,2.48-6.37,6.14-4.54,9.42c6.1,10.94,12.35,21.8,18.71,32.6
			c0.5,0.85,2.56,1.64,3.43,1.29c5.76-2.32,11.67-4.47,17-7.58c12.16-7.09,22.02-16.7,29.53-28.72
			c8.71-13.93,13.2-29.07,13.84-46.53C1546.23,134.23,1545.86,132.59,1545.48,130.96z"/>
		<path class="st0" d="M1416.53,101.89c7.09,12.35,14.12,24.74,21.2,37.1c4.45,7.77,9.19,15.38,13.35,23.3
			c3.28,6.25,6.9,7.62,13,4.04c7.08-4.16,14.2-8.24,21.31-12.36c5.81-3.37,11.62-6.74,17.44-10.1c13.01-7.49,26-15.02,39.07-22.41
			c2.54-1.44,3.31-3.14,2.56-5.89c-1.14-4.16-2.09-8.36-3.11-12.55c-30.87-62.82-90.47-57.75-94.39-57.35c0-0.01,0-0.02,0-0.03
			c-3.67,0.57-7.41,0.88-11.01,1.76c-14.03,3.46-26.4,10.19-37.25,19.69c-0.59,0.52-0.87,2.23-0.48,2.92
			C1404.24,80.68,1410.43,91.26,1416.53,101.89z"/>
		<path class="st0" d="M1414.66,132.03c2.8-1.63,5.13-3.74,4.18-7.36c-0.4-1.52-1.68-2.8-2.5-4.23
			c-8.11-14.2-16.22-28.41-24.3-42.63c-1.16-2.04-2.34-1.86-3.61-0.22c-1.32,1.71-2.57,3.48-3.82,5.24
			c-7.06,9.87-11.7,20.79-14.03,32.7c-0.32,0.93-0.8,1.84-0.93,2.79c-1.58,11.56-1.79,23.1,0.88,34.54c0.3,1.28,1,2.48,1.52,3.71
			c1.34-0.7,2.68-1.41,4.03-2.11C1388.94,146.98,1401.81,139.52,1414.66,132.03z"/>
		<path class="st0" d="M1463.88,202.53c-4.16-7.28-8.3-14.58-12.5-21.84c-7.1-12.3-14.3-24.53-21.31-36.88
			c-2.7-4.75-5.63-6.05-10.39-3.37c-14.12,7.94-28.13,16.05-42.19,24.09c-2.42,1.38-2.4,3.25-1.31,5.51
			c5.19,10.7,11.92,20.21,20.62,28.43c16.8,15.85,36.84,23.47,60.88,24.45c3.84-0.44,8.87-1.02,13.9-1.61
			c2.13-0.25,2.42-1.18,1.33-3.03C1469.83,213.08,1466.88,207.79,1463.88,202.53z"/>
	</g>
	<ellipse class="st1" cx="1457.71" cy="135.49" rx="90.62" ry="88.89"/>
</g>
<path class="st3" d="M1531.91,143.89c-11.58,29.43,8.14,34.7-10.13,57.35c-17.57,21.78-40.29,19.96-75.8,19.96
	c-43.71,0-109.06-41.72-71.86-82.89c28.32-31.34-6.58-82.08,71.86-80.48C1489.68,58.71,1566.42,56.2,1531.91,143.89z"/>
<path class="st4" d="M1365.33,147.52c0,0,39.54-23.39,53.52-22.86c13.98,0.53,34.66-4.85,38.86,10.82
	c4.2,15.67,9.78,35.94,27.64,46.79c17.67,10.74,27.7,30.67,14.2,39.49s-29.85,11.43-46.47,4.16c-16.62-7.27-51.41,6.23-69.58-12.46
	C1365.33,194.78,1331.06,166.22,1365.33,147.52z"/>
<path class="st326" d="M1365.3,175.94c0,0,27.78,49.6,65.65,39.04c33.46-9.33,43.86,20.09,61.51,4.84s-32.2-34.68-33.8-52.79
	c-1.6-18.12-25.04-43.16-39.96-36.77C1403.77,136.65,1351.26,148.93,1365.3,175.94z"/>
<path class="st327" d="M1420.29,70.58c0,0,9.59,9.06,9.59,17.05s-0.53,18.12,12.79,22.91s25.04,37.3,39.43,38.36
	c14.39,1.07,42.63,2.13,39.43-25.04c-3.2-27.18-14.92-40.5-14.39-58.61s-0.9-43.36-41.56-26.11c-15.05,6.38-20.25,9.06-34.1,6.93
	S1410.7,62.06,1420.29,70.58z"/>
<path class="st326" d="M1470.33,42.58c0,0-12.67,9.5-21.72,10.86s-24.43-0.45-24.43,8.14s5.43,15.38,7.69,26.24
	s19.91,12.22,27.15,22.62c7.24,10.41,10.86,14.03,24.88,18.1c14.03,4.07,17.64,15.38,25.34-1.81s6.33-19-1.36-31.67
	s-5.88-24.43-7.24-35.29S1490.79,31.83,1470.33,42.58z"/>
<path class="st328" d="M1379.7,115.18c-12.45-5.28-14.9-13.67-7.41-19.3c7.49-5.63,15.73-25.04,24.63-7.9
	c8.91,17.14,29.92,27.87,12.81,35.12S1389.69,119.42,1379.7,115.18z"/>
<g>
	<path class="st329" d="M1399.28,149.55c0,0-11.14,5.97-6.36,12.33c4.77,6.36,3.58,21.88,11.14,25.46
		c7.56,3.58,15.91-1.19,27.05,1.99c11.14,3.18,19.89-0.8,15.51-9.55c-4.38-8.75-7.16-22.67-12.33-30.63
		C1429.11,141.2,1408.03,139.6,1399.28,149.55z"/>
	<path class="st329" d="M1456.95,192.51c0,0,2.78,1.19,9.55,0.4c6.76-0.8,13.52,7.96,9.94,12.33c-3.58,4.38-7.96,6.76-15.91,2.78
		c-7.95-3.98-21.48,2.78-19.49-3.58C1443.03,198.07,1441.04,191.71,1456.95,192.51z"/>
	<path class="st329" d="M1487.85,45.81c0,0-13.89-5.64-28.51,8.28c-8.15,7.76-13.13,5.57-20.29,10.74s-7.96,32.62,8.35,33.01
		c16.31,0.4,14.72,15.51,26.65,15.51c11.93,0,21.88,18.3,29.83,0.8s-9.15-15.11-7.56-28.24
		C1497.92,72.78,1499.38,48.6,1487.85,45.81z"/>
</g>
<path class="st346" d="M1395.96,98.09c0,0,0.96,3.25,8.21,9.38s2.25,14.24-7.23,9.77c-9.49-4.46-16.44-4.63-13.29-15.64
	C1384.43,98.87,1388.34,87.54,1395.96,98.09z"/>
<path class="st3" d="M616.74,150c-11.58,29.43,34.07,27.98,15.8,50.63c-17.57,21.78-40.29,19.96-75.8,19.96
	c-43.71,0-109.06-41.72-71.86-82.89c28.32-31.34-6.58-82.08,71.86-80.48C600.44,58.1,651.25,62.31,616.74,150z"/>
<path class="st4" d="M502.81,139.33c0,0,30.22-10.44,39.12-7.58c8.9,2.86,23.31,2.49,22.83,14.89c-0.48,12.4-1.01,28.45,8.29,39.67
	c9.2,11.1,11.61,27.69,1.12,31.88c-10.49,4.19-21.55,3.25-30.78-5.09c-9.22-8.33-34.38-4.41-42.28-21.52
	C493.21,174.48,476.94,147.2,502.81,139.33z"/>
<path class="st327" d="M531.21,89.74c0,0,9.94,5.09,9.94,9.57s-0.55,10.17,13.25,12.86c13.8,2.69,25.95,20.94,40.85,21.54
	c14.91,0.6,44.16,1.2,40.85-14.06s-15.46-22.74-14.91-32.91s-0.93-24.34-43.06-14.66c-15.59,3.58-20.98,5.09-35.33,3.89
	C528.45,74.79,521.27,84.96,531.21,89.74z"/>
<path class="st3" d="M1098.46,145.06c-11.58,29.43,8.14,34.7-10.13,57.35c-17.57,21.78-40.29,19.96-75.8,19.96
	c-43.71,0-109.06-41.72-71.86-82.89c28.32-31.34-6.58-82.08,71.86-80.48C1056.23,59.88,1132.96,57.37,1098.46,145.06z"/>
<path class="st4" d="M931.87,148.7c0,0,39.54-23.39,53.52-22.86c13.98,0.53,34.66-4.85,38.86,10.82
	c4.2,15.67,9.78,35.94,27.64,46.79c17.67,10.74,27.7,30.67,14.2,39.49s-29.85,11.43-46.47,4.16c-16.62-7.27-51.41,6.23-69.58-12.46
	S897.6,167.39,931.87,148.7z"/>
<path class="st326" d="M952.75,175.67c0,0,19.13,29.16,45.21,22.95c23.04-5.48,30.2,11.81,42.36,2.84
	c12.15-8.97-22.17-20.39-23.27-31.04c-1.1-10.65-17.25-25.37-27.52-21.61S943.09,159.79,952.75,175.67z"/>
<path class="st327" d="M986.84,71.75c0,0,9.59,9.06,9.59,17.05s-0.53,18.12,12.79,22.91c13.32,4.8,25.04,37.3,39.43,38.36
	c14.39,1.07,42.63,2.13,39.43-25.04c-3.2-27.18-14.92-40.5-14.39-58.61c0.53-18.12-0.9-43.36-41.56-26.11
	c-15.05,6.38-20.25,9.06-34.1,6.93S977.25,63.23,986.84,71.75z"/>
<path class="st326" d="M1036.87,43.75c0,0-12.67,9.5-21.72,10.86c-9.05,1.36-24.43-0.45-24.43,8.14s5.43,15.38,7.69,26.24
	c2.26,10.86,19.91,12.22,27.15,22.62c7.24,10.41,10.86,14.03,24.88,18.1c14.03,4.07,17.64,15.38,25.34-1.81s6.33-19-1.36-31.67
	s-5.88-24.43-7.24-35.29C1065.83,50.09,1057.34,33,1036.87,43.75z"/>
<path class="st328" d="M946.25,116.35c-12.45-5.28-14.9-13.67-7.41-19.3c7.49-5.63,15.73-25.04,24.63-7.9
	c8.91,17.14,29.92,27.87,12.81,35.12S956.23,120.59,946.25,116.35z"/>
<path class="st346" d="M962.26,102.06c0,0,0.62,2.11,5.34,6.11c4.72,3.99,1.47,9.27-4.71,6.36s-10.7-3.01-8.65-10.18
	C954.75,102.57,957.3,95.19,962.26,102.06z"/>
<path class="st3" d="M1316.86,145.06c-11.58,29.43,8.14,34.7-10.13,57.35c-17.57,21.78-40.29,19.96-75.8,19.96
	c-43.71,0-109.06-41.72-71.86-82.89c28.32-31.34-6.58-82.08,71.86-80.48C1274.63,59.88,1351.36,57.37,1316.86,145.06z"/>
<path class="st4" d="M1150.28,148.7c0,0,39.54-23.39,53.52-22.86c13.98,0.53,34.66-4.85,38.86,10.82
	c4.2,15.67,9.78,35.94,27.64,46.79c17.67,10.74,27.7,30.67,14.2,39.49c-13.5,8.83-29.85,11.43-46.47,4.16
	c-16.62-7.27-51.41,6.23-69.58-12.46S1116,167.39,1150.28,148.7z"/>
<path class="st326" d="M1150.25,177.11c0,0,27.78,49.6,65.65,39.04c33.46-9.33,43.86,20.09,61.51,4.84s-32.2-34.68-33.8-52.79
	c-1.6-18.12-25.04-43.16-39.96-36.77C1188.72,137.83,1136.21,150.1,1150.25,177.11z"/>
<path class="st327" d="M1205.24,71.75c0,0,9.59,9.06,9.59,17.05s-0.53,18.12,12.79,22.91c13.32,4.8,25.04,37.3,39.43,38.36
	c14.39,1.07,42.63,2.13,39.43-25.04c-3.2-27.18-14.92-40.5-14.39-58.61s-0.9-43.36-41.56-26.11c-15.05,6.38-20.25,9.06-34.1,6.93
	S1195.65,63.23,1205.24,71.75z"/>
<path class="st326" d="M1255.28,43.75c0,0-12.67,9.5-21.72,10.86s-24.43-0.45-24.43,8.14s5.43,15.38,7.69,26.24
	s19.91,12.22,27.15,22.62s10.86,14.03,24.88,18.1c14.03,4.07,17.64,15.38,25.34-1.81s6.33-19-1.36-31.67s-5.88-24.43-7.24-35.29
	S1275.74,33,1255.28,43.75z"/>
<path class="st328" d="M1164.65,116.35c-12.45-5.28-14.9-13.67-7.41-19.3c7.49-5.63,15.73-25.04,24.63-7.9
	c8.91,17.14,29.92,27.87,12.81,35.12C1177.57,131.51,1174.63,120.59,1164.65,116.35z"/>
<path class="st346" d="M1180.91,99.26c0,0,0.96,3.25,8.21,9.38c7.25,6.14,2.25,14.24-7.23,9.77c-9.49-4.46-16.44-4.63-13.29-15.64
	C1169.38,100.05,1173.29,88.71,1180.91,99.26z"/>
<path class="st3" d="M865.53,147.33c-11.58,29.43,25.29,31.55,7.01,54.19c-17.57,21.78-40.29,19.96-75.8,19.96
	c-43.71,0-109.06-41.72-71.86-82.89c28.32-31.34-6.58-82.08,71.86-80.48C840.44,58.99,900.03,59.63,865.53,147.33z"/>
<path class="st4" d="M716.08,147.8c0,0,39.54-23.39,53.52-22.86s34.66-4.85,38.86,10.82s9.78,35.94,27.64,46.79
	c17.67,10.74,27.71,30.67,14.2,39.49s-29.85,11.43-46.47,4.16s-51.41,6.23-69.58-12.46C716.08,195.06,681.81,166.5,716.08,147.8z"/>
<path class="st327" d="M771.05,70.86c0,0,9.59,9.06,9.59,17.05s-0.53,18.12,12.79,22.91c13.32,4.8,25.04,37.3,39.43,38.36
	c14.39,1.07,42.63,2.13,39.43-25.04s-14.92-40.5-14.39-58.61s-0.9-43.36-41.56-26.11c-15.05,6.38-20.25,9.06-34.1,6.93
	C768.38,44.22,761.46,62.34,771.05,70.86z"/>
<path class="st326" d="M819.43,70.44c0,0-7.44-5.25-13.7-4.31c-6.27,0.94-16.92-0.31-16.92,5.64s3.76,10.65,5.33,18.17
	c1.57,7.52,13.78,8.46,18.8,15.66s7.52,9.71,17.23,12.53c9.71,2.82,12.22,10.65,17.54-1.25s4.39-13.16-0.94-21.93
	s-4.07-16.92-5.01-24.44C840.81,63,833.6,62.99,819.43,70.44z"/>
<path class="st328" d="M730.46,115.46c-12.45-5.28-14.9-13.67-7.41-19.3c7.49-5.63,15.73-25.04,24.63-7.9
	c8.91,17.14,29.92,27.87,12.81,35.12C743.38,130.62,740.44,119.7,730.46,115.46z"/>
<g>
	<g>
		<path class="st0" d="M206.97,130.34c-1.5,0.61-3.11,1.05-4.5,1.85c-14.45,8.32-28.85,16.75-43.31,25.06
			c-9.71,5.58-19.51,11.01-29.27,16.5c-4.41,2.48-6.37,6.14-4.54,9.42c6.1,10.94,12.35,21.8,18.71,32.6
			c0.5,0.85,2.56,1.64,3.43,1.29c5.76-2.32,11.67-4.47,17-7.58c12.16-7.09,22.02-16.7,29.53-28.72
			c8.71-13.93,13.2-29.07,13.84-46.53C207.72,133.62,207.35,131.98,206.97,130.34z"/>
		<path class="st0" d="M78.02,101.27c7.09,12.35,14.12,24.74,21.2,37.1c4.45,7.77,9.19,15.38,13.35,23.3c3.28,6.25,6.9,7.62,13,4.04
			c7.08-4.16,14.2-8.24,21.31-12.36c5.81-3.37,11.62-6.74,17.44-10.1c13.01-7.49,26-15.02,39.07-22.41
			c2.54-1.44,3.31-3.14,2.56-5.89c-1.14-4.16-2.09-8.36-3.11-12.55c-30.87-62.82-90.47-57.75-94.39-57.35c0-0.01,0-0.02,0-0.03
			c-3.67,0.57-7.41,0.88-11.01,1.76c-14.03,3.46-26.4,10.19-37.25,19.69c-0.59,0.52-0.87,2.23-0.48,2.92
			C65.74,80.07,71.92,90.65,78.02,101.27z"/>
		<path class="st0" d="M76.16,131.41c2.8-1.63,5.13-3.74,4.18-7.36c-0.4-1.52-1.68-2.8-2.5-4.23c-8.11-14.2-16.22-28.41-24.3-42.63
			c-1.16-2.04-2.34-1.86-3.61-0.22c-1.32,1.71-2.57,3.48-3.82,5.24c-7.06,9.87-11.7,20.79-14.03,32.7c-0.32,0.93-0.8,1.84-0.93,2.79
			c-1.58,11.56-1.79,23.1,0.88,34.54c0.3,1.28,1,2.48,1.52,3.71c1.34-0.7,2.68-1.41,4.03-2.11C50.44,146.37,63.3,138.9,76.16,131.41
			z"/>
		<path class="st0" d="M125.37,201.92c-4.16-7.28-8.3-14.58-12.5-21.84c-7.1-12.3-14.3-24.53-21.31-36.88
			c-2.7-4.75-5.63-6.05-10.39-3.37c-14.12,7.94-28.13,16.05-42.19,24.09c-2.42,1.38-2.4,3.25-1.31,5.51
			c5.19,10.7,11.92,20.21,20.62,28.43c16.8,15.85,36.84,23.47,60.88,24.45c3.84-0.44,8.87-1.02,13.9-1.61
			c2.13-0.25,2.42-1.18,1.33-3.03C131.32,212.47,128.37,207.18,125.37,201.92z"/>
	</g>
	<ellipse class="st1" cx="119.2" cy="134.87" rx="90.62" ry="88.89"/>
</g>
<path class="st3" d="M380.53,132.31c-11.58,29.43,37.91,40.78,19.63,63.43c-17.57,21.78-50.06,1.01-85.58,1.01
	c-43.71,0-96.6-14.2-59.4-55.37c28.32-31.34-11.58-57.39,60.54-84.16C356.71,42,415.03,44.61,380.53,132.31z"/>
<g>
	<circle class="st2" cx="54.89" cy="118.89" r="12"/>
	<circle class="st2" cx="99.94" cy="195.72" r="12"/>
	<circle class="st2" cx="79.01" cy="188.11" r="6.5"/>
</g>
</svg>
