<?xml version="1.0" encoding="utf-8"?>
<!-- Generator: Adobe Illustrator 27.2.0, SVG Export Plug-In . SVG Version: 6.00 Build 0)  -->
<svg version="1.1" id="Ebene_1" xmlns="http://www.w3.org/2000/svg" xmlns:xlink="http://www.w3.org/1999/xlink" x="0px" y="0px"
	 viewBox="0 0 253.04 238.98" style="enable-background:new 0 0 253.04 238.98;" xml:space="preserve">
<style type="text/css">
	.st0{fill:#ECECEC;}
	.st1{fill:none;stroke:#FFFFFF;stroke-width:5;stroke-miterlimit:10;}
	.st2{opacity:0.39;fill:#96A7DA;}
	.st3{fill:#60748C;}
	.st4{stroke:#FFFFFF;stroke-width:0.5;stroke-miterlimit:10;}
	.st5{fill:#FFFFFF;}
	.st6{fill:#EDEDED;}
	.st7{opacity:0.1;fill:#546579;stroke:#60748C;stroke-width:1.0251;stroke-miterlimit:10;}
	.st8{opacity:0.1;fill:#546579;stroke:#282F39;stroke-width:1.0251;stroke-miterlimit:10;}
	.st9{opacity:0.1;fill:#546579;stroke:#546579;stroke-width:1.0251;stroke-miterlimit:10;}
	.st10{fill:#60748C;stroke:#60748C;stroke-width:0.9491;stroke-miterlimit:10;}
	.st11{fill:#282F39;}
	.st12{fill:#45AD4B;stroke:#45AD4B;stroke-width:0.8985;stroke-miterlimit:10;}
	.st13{fill:#6DC5D8;stroke:#6DC5D8;stroke-width:0.9491;stroke-miterlimit:10;}
	.st14{fill:#282F39;stroke:#FFFFFF;stroke-width:1.0437;stroke-miterlimit:10;}
	.st15{fill:#45AD4B;stroke:#45AD4B;stroke-width:0.9491;stroke-miterlimit:10;}
	.st16{fill:#A4C748;}
	.st17{fill:#45AD4B;stroke:#45AD4B;stroke-width:0.9119;stroke-miterlimit:10;}
	.st18{fill:#C1252D;stroke:#C1252D;stroke-width:0.9491;stroke-miterlimit:10;}
	.st19{fill:#C1252D;}
	.st20{fill:#C1252D;stroke:#C1252D;stroke-width:1.0339;stroke-miterlimit:10;}
	.st21{fill:#C1252D;stroke:#C1252D;stroke-width:0.8834;stroke-miterlimit:10;}
	.st22{fill:none;stroke:#282F39;stroke-width:2;stroke-linecap:round;stroke-linejoin:round;stroke-miterlimit:10;}
	.st23{fill:#45AD4B;}
	.st24{fill:#45AB4B;}
	.st25{fill:#6DC5D8;}
	.st26{opacity:0.1;}
	.st27{fill:#5B7188;}
	.st28{fill:#97A2AF;}
	.st29{fill:#BABBBC;}
	.st30{fill:#5B7185;}
	.st31{fill:#A0C348;}
	.st32{fill:#45A84B;}
	.st33{fill:#BC252D;}
	.st34{fill:#6DC0D3;}
	.st35{fill:none;stroke:#C7D3D7;stroke-miterlimit:10;}
	.st36{opacity:0.1;fill:#757577;}
	.st37{fill:none;stroke:#FFFFFF;stroke-miterlimit:10;}
	.st38{opacity:0.6;}
	.st39{fill:#F1F3F4;}
	.st40{fill:none;stroke:#F1F3F4;stroke-miterlimit:10;}
	.st41{fill:#E8EAED;}
	.st42{fill:#F1F1F1;}
	.st43{fill:#646768;}
	.st44{opacity:0.25;fill:#757577;}
	.st45{fill:none;stroke:#6DC5D8;stroke-width:3;stroke-miterlimit:10;}
	.st46{fill:none;stroke:#C1252D;stroke-width:3;stroke-miterlimit:10;}
	.st47{fill:none;stroke:#45AD4B;stroke-width:3;stroke-miterlimit:10;}
	.st48{fill:#E7E7E7;}
	.st49{clip-path:url(#SVGID_00000179637023490010510600000013894337696562699424_);}
	.st50{clip-path:url(#SVGID_00000179637023490010510600000013894337696562699424_);fill:#F1F1F1;}
	.st51{clip-path:url(#SVGID_00000031929706690106980100000012401870955869650571_);}
	.st52{fill:#FEF9E8;}
	.st53{fill:#CEEAD6;}
	.st54{fill:#FCE8E6;}
	.st55{fill:none;stroke:#9CC0F9;stroke-width:3;stroke-miterlimit:10;}
	.st56{fill:none;stroke:#9CC0F9;stroke-miterlimit:10;}
	.st57{opacity:0.5;fill:#757577;}
	.st58{clip-path:url(#SVGID_00000179637023490010510600000013894337696562699424_);fill:#FFFFFF;}
	.st59{fill:none;stroke:#C1252D;stroke-width:9;stroke-miterlimit:10;}
	.st60{fill:none;stroke:#E7E7E7;stroke-width:9;stroke-miterlimit:10;}
	.st61{fill:none;stroke:#FFFFFF;stroke-width:3;stroke-miterlimit:10;}
	.st62{fill:none;stroke:#45AD4B;stroke-width:9;stroke-miterlimit:10;}
	.st63{fill:none;stroke:#6DC5D8;stroke-width:1.5;stroke-miterlimit:10;}
	.st64{opacity:0.25;clip-path:url(#SVGID_00000179637023490010510600000013894337696562699424_);fill:#757577;}
	.st65{fill:#292929;}
	.st66{fill-rule:evenodd;clip-rule:evenodd;}
	.st67{fill:#FF7578;}
	.st68{fill:#FFC9CA;}
	.st69{fill:#173042;}
	.st70{fill:#946B6B;}
	.st71{fill:none;}
	.st72{fill:#FFFFFF;stroke:#FFFFFF;stroke-width:7;stroke-miterlimit:10;}
	.st73{fill:#444444;}
	.st74{fill:#F73103;}
	.st75{fill:#FFBB39;}
	.st76{fill:#398229;}
	.st77{fill:#DE0505;}
	.st78{fill:#FF804E;}
	.st79{fill:#7ED668;}
	.st80{fill:#BF252D;}
	.st81{fill:#D4894D;}
	.st82{fill:#AD5512;}
	.st83{fill:#FF00FF;}
	.st84{fill:#FF3D75;}
	.st85{fill:#F28E1E;}
	.st86{fill:#2B6E53;}
	.st87{fill:#399150;}
	.st88{fill:#6A4A1D;}
	.st89{fill:#6DC3D6;}
	.st90{clip-path:url(#SVGID_00000114775174590220988530000000465226128663521668_);}
	.st91{clip-path:url(#SVGID_00000080174686173672477630000017258108757928289189_);}
	.st92{fill:#333333;}
	.st93{fill:url(#SVGID_00000013895143536265502070000017827352462931237302_);}
	.st94{fill:url(#SVGID_00000013185288801114878630000017447415079981839027_);}
	.st95{opacity:0.08;}
	.st96{fill:url(#SVGID_00000111184494290537564620000003961928623957862323_);}
	.st97{fill-rule:evenodd;clip-rule:evenodd;fill:#1A1A1A;}
	.st98{fill:#1A1A1A;}
	.st99{fill-rule:evenodd;clip-rule:evenodd;fill:#60748C;}
	.st100{fill:#FCEED7;}
	.st101{fill:#FBD18B;}
	.st102{fill:#DEE1E5;}
	.st103{fill:#ED8D80;}
	.st104{fill:#E97361;}
	.st105{fill:#AE5649;}
	.st106{fill:#CACED5;}
	.st107{fill:#A8B0BB;}
	.st108{fill:#CACFD7;}
	.st109{fill:#EABF9A;}
	.st110{fill:#E4E7EB;}
	.st111{fill:#69D4F2;}
	.st112{fill:#B2DB7F;}
	.st113{fill:#9ED268;}
	.st114{fill:#F8F8F8;}
	.st115{fill:#F0F0F0;}
	.st116{fill:#738DBD;}
	.st117{fill:#E46D67;}
	.st118{fill:#24C1F0;}
	.st119{fill:#36B183;}
	.st120{fill:#FFB866;}
	.st121{fill:#FFD873;}
	.st122{fill-rule:evenodd;clip-rule:evenodd;fill:#485156;}
	.st123{fill:#58595B;}
	.st124{fill:#BF252D;stroke:#BF252D;stroke-width:2;stroke-miterlimit:10;}
	.st125{fill:#FFFFFF;stroke:#BF252D;stroke-width:4;stroke-linecap:round;stroke-linejoin:round;stroke-miterlimit:10;}
	.st126{fill-rule:evenodd;clip-rule:evenodd;fill:#BF252D;}
	.st127{fill:none;stroke:#FFFFFF;stroke-miterlimit:10;stroke-dasharray:1.0108,1.0108;}
	.st128{fill:none;stroke:#45AD4B;stroke-width:4;stroke-miterlimit:10;}
	.st129{fill:none;stroke:#C1252D;stroke-width:4;stroke-miterlimit:10;}
	.st130{opacity:0.2;fill:#45AD4B;}
	.st131{opacity:0.6;fill:#45AD4B;}
	.st132{fill:#44A049;}
	.st133{fill:#A3C648;}
	.st134{clip-path:url(#SVGID_00000137099673769825592830000013285195285456794038_);}
	.st135{opacity:0.5;fill:#45AD4B;}
	.st136{opacity:0.2;fill:#E7E7E7;}
	.st137{opacity:0.5;fill:#E7E7E7;}
	.st138{opacity:0.5;fill:#FFFFFF;}
	.st139{opacity:0.2;fill:#6DC5D8;}
	.st140{fill:none;stroke:#FFFFFF;stroke-width:2.5;stroke-miterlimit:10;}
	.st141{fill:none;stroke:#BF252D;stroke-width:5;stroke-miterlimit:10;}
	.st142{fill:#BF252D;stroke:#FFFFFF;stroke-width:3;stroke-miterlimit:10;}
	.st143{fill:#FFFFFF;stroke:#FFFFFF;stroke-width:5.5;stroke-miterlimit:10;}
	.st144{fill:none;stroke:#BF252D;stroke-width:3;stroke-miterlimit:10;}
	.st145{fill:#BF252D;stroke:#FFFFFF;stroke-width:4.5;stroke-miterlimit:10;}
	.st146{fill:#BF252D;stroke:#FFFFFF;stroke-miterlimit:10;}
	.st147{fill:#F7E921;}
	.st148{fill:#6E81B5;}
	.st149{fill:#466087;}
	.st150{fill:#FFAEA8;}
	.st151{fill:#FFE152;}
	.st152{fill:#96C869;}
	.st153{fill:#ADB3BD;}
	.st154{fill:#CACED8;}
	.st155{fill:#40CAEF;}
	.st156{fill:#276F80;}
	.st157{fill:#878F9E;}
	.st158{fill:#EEF0F3;}
	.st159{fill:#1E505B;}
	.st160{fill:#9C80EA;}
	.st161{fill:#FAC955;}
	.st162{clip-path:url(#SVGID_00000132064181639146397870000017121548588083844516_);}
	.st163{fill:#E5EAEB;}
	.st164{fill:#ADB4B9;}
	.st165{fill:#495D72;}
	.st166{fill:#28384C;}
	.st167{fill:#E9B816;}
	.st168{fill:#DB352E;}
	.st169{fill:#366DB4;}
	.st170{fill:#753489;}
	.st171{fill:#57A9BF;}
	.st172{fill:#25AC86;}
	.st173{fill:#F56363;}
	.st174{fill:#BD5A45;}
	.st175{fill:#F0EABD;}
	.st176{fill:#EB8819;}
	.st177{fill:#C3411E;}
	.st178{fill:#205B75;}
	.st179{fill:#C8D9E8;}
	.st180{fill:#A9B9CA;}
	.st181{fill:#114559;}
	.st182{fill:#DFE8F2;}
	.st183{fill:#E3B933;}
	.st184{fill:#E96374;}
	.st185{fill:#80EAFF;}
	.st186{fill:#FFFFFF;stroke:#C1252D;stroke-width:7;stroke-miterlimit:10;}
	.st187{fill:#FFFFFF;stroke:#45AD4B;stroke-width:7;stroke-miterlimit:10;}
	.st188{fill:#B4BCBD;}
	.st189{fill:#CED7DA;}
	.st190{fill:none;stroke:#45AD4B;stroke-width:2;stroke-miterlimit:10;}
	.st191{fill:#6DC3D6;stroke:#FFFFFF;stroke-width:0.1;stroke-miterlimit:10;}
	.st192{fill:#C1252D;stroke:#FFFFFF;stroke-width:0.1;stroke-miterlimit:10;}
	.st193{fill:#A3C648;stroke:#FFFFFF;stroke-width:0.1;stroke-miterlimit:10;}
	.st194{fill:#45AB4B;stroke:#FFFFFF;stroke-width:0.1;stroke-miterlimit:10;}
	.st195{fill:none;stroke:#60748C;stroke-linecap:round;stroke-linejoin:round;stroke-miterlimit:10;stroke-dasharray:2,4;}
	.st196{fill:#F0F0F0;stroke:#C1252D;stroke-width:7;stroke-miterlimit:10;}
	.st197{fill:#F0F0F0;stroke:#45AD4B;stroke-width:7;stroke-miterlimit:10;}
	.st198{opacity:0.3;}
	.st199{opacity:0.3;fill:#5B7188;}
	.st200{fill:#EDEDED;stroke:#C1252D;stroke-width:6;stroke-miterlimit:10;}
	.st201{fill:#5B7188;stroke:#EDEDED;stroke-miterlimit:10;}
	.st202{fill:#EDEDED;stroke:#45AD4B;stroke-width:6;stroke-miterlimit:10;}
	.st203{fill:#FFFFFF;stroke:#C1252D;stroke-width:6;stroke-miterlimit:10;}
	.st204{fill:#FFFFFF;stroke:#45AD4B;stroke-width:6;stroke-miterlimit:10;}
	.st205{fill:none;stroke:#6DC5D8;stroke-linecap:round;stroke-linejoin:round;}
	.st206{fill:none;stroke:#6DC5D8;stroke-linecap:round;stroke-linejoin:round;stroke-dasharray:4.8937,7.8299;}
	.st207{fill:none;stroke:#6DC5D8;stroke-linecap:round;stroke-linejoin:round;stroke-dasharray:5.1322,8.2115;}
	.st208{fill:none;stroke:#6DC5D8;stroke-linecap:round;stroke-linejoin:round;stroke-miterlimit:10;stroke-dasharray:5,8;}
	.st209{fill:#45AC4B;}
	.st210{fill:#C0252D;}
	.st211{fill:#6DC4D7;}
	.st212{fill:#5B7189;}
	.st213{fill:none;stroke:#60748C;stroke-width:1.5;stroke-miterlimit:10;}
	.st214{opacity:0.4;}
	.st215{fill:none;stroke:#60748C;stroke-width:2;stroke-linecap:round;stroke-linejoin:round;stroke-miterlimit:10;}
	.st216{opacity:0.54;fill:#FFFFFF;}
	.st217{clip-path:url(#SVGID_00000115480931646077975800000006309501982982600087_);}
	.st218{opacity:0.5;fill:#5B7188;}
	.st219{opacity:0.1;fill:#60748C;}
	.st220{clip-path:url(#SVGID_00000024682498686924612590000010090186350268353155_);}
	.st221{display:none;}
	.st222{display:inline;fill:#FFFFFF;}
	.st223{display:inline;fill:#090C11;}
	.st224{display:inline;fill:#4A596E;}
	.st225{fill:#546579;}
	.st226{fill:#6F88A6;}
	.st227{opacity:0.1;fill:none;stroke:#FFFFFF;stroke-miterlimit:10;}
	.st228{display:none;fill:#6DC5D8;}
	.st229{opacity:0.45;fill:#60748C;}
	.st230{opacity:0.03;clip-path:url(#SVGID_00000086678139248209096080000011982595984443464346_);}
	.st231{clip-path:url(#SVGID_00000086678139248209096080000011982595984443464346_);}
	
		.st232{clip-path:url(#SVGID_00000086678139248209096080000011982595984443464346_);fill:#FFFFFF;stroke:#60748C;stroke-width:1.5;stroke-miterlimit:10;}
	.st233{opacity:0.4;clip-path:url(#SVGID_00000086678139248209096080000011982595984443464346_);}
	.st234{clip-path:url(#SVGID_00000012431733066055032990000000294536825280305043_);}
	.st235{opacity:0.05;clip-path:url(#SVGID_00000012431733066055032990000000294536825280305043_);}
	.st236{fill:#575756;}
	
		.st237{clip-path:url(#SVGID_00000012431733066055032990000000294536825280305043_);fill:#FFFFFF;stroke:#60748C;stroke-width:1.5;stroke-miterlimit:10;}
	.st238{opacity:0.4;clip-path:url(#SVGID_00000012431733066055032990000000294536825280305043_);}
	.st239{fill:#FFFFFF;stroke:#60748C;stroke-width:1.5;stroke-miterlimit:10;}
	.st240{fill:#A5C848;}
	.st241{opacity:0.2;}
	.st242{clip-path:url(#SVGID_00000010308853751479140140000005783144302843423104_);}
	.st243{clip-path:url(#SVGID_00000083049646738399571690000017602030917912498338_);}
	.st244{fill:none;stroke:#60748C;stroke-width:3;stroke-miterlimit:10;}
	.st245{fill:#EDEDED;stroke:#C0252D;stroke-width:3;stroke-miterlimit:10;}
	.st246{clip-path:url(#SVGID_00000013159294027226973360000006612188780904561592_);}
	.st247{opacity:0.1;fill:#546579;}
	.st248{opacity:0.05;}
	.st249{fill:#606060;}
	.st250{opacity:0.15;}
	.st251{opacity:0.5;}
	.st252{fill:#535353;}
	.st253{opacity:0.7;}
	.st254{filter:url(#Adobe_OpacityMaskFilter);}
	.st255{filter:url(#Adobe_OpacityMaskFilter_00000090986371259779644630000010348393984025269394_);}
	
		.st256{mask:url(#SVGID_00000136389434083162527010000012627854528644656816_);fill:url(#SVGID_00000151528943232307447870000010080422143720716170_);}
	.st257{filter:url(#Adobe_OpacityMaskFilter_00000150082068929091941990000004590909189608125864_);}
	.st258{filter:url(#Adobe_OpacityMaskFilter_00000127006625486104778240000017586954932064362936_);}
	
		.st259{mask:url(#SVGID_00000175322094248782008110000003010422476335492796_);fill:url(#SVGID_00000056401397424414233700000008897281735072114095_);}
	.st260{filter:url(#Adobe_OpacityMaskFilter_00000039103785913462053780000011252981104806834607_);}
	.st261{filter:url(#Adobe_OpacityMaskFilter_00000013885805005189153550000009452787537797559734_);}
	
		.st262{mask:url(#SVGID_00000135664019117094815920000009763672877531357071_);fill:url(#SVGID_00000163045356471074471380000003249972917719556777_);}
	.st263{filter:url(#Adobe_OpacityMaskFilter_00000170980687826893108910000010645905342550523819_);}
	.st264{filter:url(#Adobe_OpacityMaskFilter_00000041284437521438845970000015687322630340301464_);}
	
		.st265{mask:url(#SVGID_00000060710198637821355860000006631111784485981604_);fill:url(#SVGID_00000148628559444540982250000011076622695954177687_);}
	.st266{filter:url(#Adobe_OpacityMaskFilter_00000106142639244033019210000005002731716420679305_);}
	.st267{filter:url(#Adobe_OpacityMaskFilter_00000180342346316014484130000015012620546794229165_);}
	
		.st268{mask:url(#SVGID_00000010991632120765437830000005041988182095631038_);fill:url(#SVGID_00000043439584363267832450000011856531324379656863_);}
	.st269{filter:url(#Adobe_OpacityMaskFilter_00000082331855478041603670000009518520199852237501_);}
	.st270{filter:url(#Adobe_OpacityMaskFilter_00000121252864773998939810000008085728090239422092_);}
	
		.st271{mask:url(#SVGID_00000001641972364027348330000002676127302203056293_);fill:url(#SVGID_00000135688814341121839730000005372728291327011725_);}
	.st272{filter:url(#Adobe_OpacityMaskFilter_00000163795515334411130600000018446615441315350454_);}
	.st273{filter:url(#Adobe_OpacityMaskFilter_00000055698598522098449670000015860519590099641766_);}
	
		.st274{mask:url(#SVGID_00000019656788260958913060000005127514843031555738_);fill:url(#SVGID_00000104670554122933789020000017283596045323024017_);}
	.st275{opacity:0.8;}
	.st276{filter:url(#Adobe_OpacityMaskFilter_00000071561990398785328460000006165273484368481448_);}
	.st277{filter:url(#Adobe_OpacityMaskFilter_00000095336652175405991600000011245035239730723242_);}
	
		.st278{mask:url(#SVGID_00000063602889194002523880000006961607000091493255_);fill:url(#SVGID_00000168810916142187992820000000408082225211861659_);}
	.st279{fill:none;stroke:#1A1A1A;stroke-width:4;stroke-miterlimit:10;}
	.st280{fill:none;stroke:#60748C;stroke-width:4;stroke-miterlimit:10;}
	.st281{fill:#FFFFFF;stroke:#60748C;stroke-width:3;stroke-miterlimit:10;}
	.st282{fill:#FFFFFF;stroke:#6DC5D8;stroke-width:3;stroke-miterlimit:10;}
	.st283{fill:#6DC5D8;stroke:#FFFFFF;stroke-width:3;stroke-miterlimit:10;}
	.st284{opacity:0.25;}
	.st285{fill:#757577;}
	.st286{fill:#AEAEAE;}
	.st287{fill:#C1252D;stroke:#FFFFFF;stroke-width:3;stroke-miterlimit:10;}
	.st288{fill:#1A1A1A;stroke:#FFFFFF;stroke-width:3;stroke-miterlimit:10;}
	.st289{fill:none;stroke:#000000;stroke-width:10;stroke-linecap:round;stroke-miterlimit:10;}
	.st290{fill:none;stroke:#45AD4B;stroke-width:6;stroke-miterlimit:10;}
	.st291{fill:none;stroke:#6DC5D8;stroke-width:6;stroke-miterlimit:10;}
	.st292{fill:none;stroke:#60748C;stroke-width:6;stroke-miterlimit:10;}
	.st293{fill:none;stroke:#000000;stroke-width:6;stroke-miterlimit:10;}
	.st294{fill:#60748C;stroke:#FFFFFF;stroke-width:4;stroke-miterlimit:10;}
	.st295{fill:none;stroke:#000000;stroke-width:7;stroke-linecap:round;stroke-miterlimit:10;}
	.st296{fill-rule:evenodd;clip-rule:evenodd;fill:none;stroke:#000000;stroke-width:4;stroke-miterlimit:10;}
	.st297{fill:none;stroke:#000000;stroke-width:4;stroke-miterlimit:10;}
	.st298{fill:none;stroke:#000000;stroke-width:4;stroke-linecap:round;stroke-miterlimit:10;}
	.st299{fill-rule:evenodd;clip-rule:evenodd;stroke:#FFFFFF;stroke-miterlimit:10;}
	.st300{fill:#949494;}
	.st301{clip-path:url(#SVGID_00000178178760777744765340000014423234557923311235_);}
	.st302{fill:#1A1A1A;stroke:#1A1A1A;stroke-miterlimit:10;}
	.st303{stroke:#000000;stroke-miterlimit:10;}
	.st304{clip-path:url(#SVGID_00000119113648291774912330000005110317744225339525_);}
	.st305{fill:#60748C;stroke:#60748C;stroke-miterlimit:10;}
	.st306{fill:#728499;}
	.st307{opacity:0.4;fill:#BF252D;}
	.st308{opacity:0.75;fill:#BF252D;}
	.st309{fill:#C7C7C7;}
	.st310{opacity:0.23;}
	.st311{opacity:0.2;fill:#5B7188;}
	.st312{fill:none;stroke:#FFFFFF;stroke-width:6;stroke-miterlimit:10;}
	.st313{fill:#BF252D;stroke:#FFFFFF;stroke-width:6;stroke-miterlimit:10;}
	.st314{opacity:0.3;fill:#BF252D;}
	.st315{opacity:0.7;fill:#BF252D;}
	.st316{opacity:0.5;fill:#BF252D;}
	.st317{opacity:0.2;fill:#BF252D;}
	.st318{fill:#BF252D;stroke:#FFFFFF;stroke-width:5;stroke-miterlimit:10;}
	.st319{fill:#96A7DA;}
	.st320{fill:#6678EA;}
	.st321{fill:#00BCD1;}
	.st322{fill:#D4DB21;}
	.st323{fill:#E81C24;}
	.st324{opacity:0.25;fill:#60748C;}
	.st325{opacity:0.8;fill:#60748C;}
	.st326{opacity:0.36;fill:#60748C;}
	.st327{opacity:0.61;fill:#60748C;}
	.st328{opacity:0.34;fill:#60748C;}
	.st329{opacity:0.31;fill:#60748C;}
	.st330{opacity:0.45;fill:#6DC5D8;}
	.st331{fill:#F6AB3B;}
	.st332{opacity:0.12;fill:#6DC5D8;}
	.st333{fill:none;stroke:#6DC5D8;stroke-width:4;stroke-miterlimit:10;}
	.st334{fill:none;stroke:#A4C748;stroke-width:4;stroke-miterlimit:10;}
	.st335{fill:#C1252D;stroke:#C1252D;stroke-width:4;stroke-miterlimit:10;}
	.st336{fill:none;stroke:#60748C;stroke-width:7;stroke-miterlimit:10;}
	.st337{fill:none;stroke:#45AD4B;stroke-width:5.5;stroke-miterlimit:10;}
	.st338{fill:none;stroke:#A4C748;stroke-width:5;stroke-miterlimit:10;}
	.st339{opacity:0.13;}
	.st340{opacity:0.39;fill:#60748C;}
</style>
<g>
	<g>
		<path class="st0" d="M222.22,113.13c-1.5,0.61-3.11,1.05-4.5,1.85c-14.45,8.32-28.85,16.75-43.31,25.06
			c-9.71,5.58-19.51,11.01-29.27,16.5c-4.41,2.48-6.37,6.14-4.54,9.42c6.1,10.94,12.35,21.8,18.71,32.6
			c0.5,0.85,2.56,1.64,3.43,1.29c5.76-2.32,11.67-4.47,17-7.58c12.16-7.09,22.02-16.7,29.53-28.72
			c8.71-13.93,13.2-29.07,13.84-46.53C222.97,116.41,222.6,114.77,222.22,113.13z"/>
		<path class="st0" d="M93.27,84.06c7.09,12.35,14.12,24.74,21.2,37.1c4.45,7.77,9.19,15.38,13.35,23.3c3.28,6.25,6.9,7.62,13,4.04
			c7.08-4.16,14.2-8.24,21.31-12.36c5.81-3.37,11.62-6.74,17.44-10.1c13.01-7.49,26-15.02,39.07-22.41
			c2.54-1.44,3.31-3.14,2.56-5.89c-1.14-4.16-2.09-8.36-3.11-12.55c-30.87-62.82-90.47-57.75-94.39-57.35c0-0.01,0-0.02,0-0.03
			c-3.67,0.57-7.41,0.88-11.01,1.76c-14.03,3.46-26.4,10.19-37.25,19.69c-0.59,0.52-0.87,2.23-0.48,2.92
			C80.99,62.86,87.17,73.44,93.27,84.06z"/>
		<path class="st0" d="M91.41,114.2c2.8-1.63,5.13-3.74,4.18-7.36c-0.4-1.52-1.68-2.8-2.5-4.23c-8.11-14.2-16.22-28.41-24.3-42.63
			c-1.16-2.04-2.34-1.86-3.61-0.22c-1.32,1.71-2.57,3.48-3.82,5.24c-7.06,9.87-11.7,20.79-14.03,32.7c-0.32,0.93-0.8,1.84-0.93,2.79
			c-1.58,11.56-1.79,23.1,0.88,34.54c0.3,1.28,1,2.48,1.52,3.71c1.34-0.7,2.68-1.41,4.03-2.11
			C65.69,129.16,78.55,121.69,91.41,114.2z"/>
		<path class="st0" d="M140.62,184.7c-4.16-7.28-8.3-14.58-12.5-21.84c-7.1-12.3-14.3-24.53-21.31-36.88
			c-2.7-4.75-5.63-6.05-10.39-3.37c-14.12,7.94-28.13,16.05-42.19,24.09c-2.42,1.38-2.4,3.25-1.31,5.51
			c5.19,10.7,11.92,20.21,20.62,28.43c16.8,15.85,36.84,23.47,60.88,24.45c3.84-0.44,8.87-1.02,13.9-1.61
			c2.13-0.25,2.42-1.18,1.33-3.03C146.57,195.25,143.62,189.96,140.62,184.7z"/>
	</g>
	<ellipse class="st1" cx="134.45" cy="117.66" rx="90.62" ry="88.89"/>
</g>
<path class="st324" d="M208.66,126.07c-11.58,29.43,8.14,34.7-10.13,57.35c-17.57,21.78-40.29,19.96-75.8,19.96
	c-43.71,0-109.06-41.72-71.86-82.89C79.18,89.15,44.28,38.41,122.72,40C166.42,40.89,243.16,38.37,208.66,126.07z"/>
<g class="st275">
	<path class="st325" d="M42.05,158.11c0,0,27.78,49.6,65.65,39.04c33.46-9.33,43.86,20.09,61.51,4.84s-32.2-34.68-33.8-52.79
		s-25.04-43.16-39.96-36.77S28.01,131.11,42.05,158.11z"/>
	<path class="st326" d="M97.03,52.76c0,0,9.59,9.06,9.59,17.05s-0.53,18.12,12.79,22.91c13.32,4.8,25.04,37.3,39.43,38.37
		c14.39,1.07,42.63,2.13,39.43-25.04s-14.92-40.5-14.39-58.61c0.53-18.12-0.9-43.36-41.56-26.11c-15.05,6.38-20.25,9.06-34.1,6.93
		S87.44,44.23,97.03,52.76z"/>
	<path class="st3" d="M72.7,80.27c0,0,0.96,3.25,8.21,9.38c7.25,6.14,2.25,14.24-7.23,9.77S57.24,94.8,60.39,83.79
		C61.17,81.05,65.08,69.71,72.7,80.27z"/>
</g>
<path class="st327" d="M147.07,24.76c0,0-12.67,9.5-21.72,10.86c-9.05,1.36-24.43-0.45-24.43,8.14s5.43,15.38,7.69,26.24
	s19.91,12.22,27.15,22.62c7.24,10.41,10.86,14.03,24.88,18.1s17.64,15.38,25.34-1.81c7.69-17.19,6.33-19-1.36-31.67
	c-7.69-12.67-5.88-24.43-7.24-35.29S167.54,14,147.07,24.76z"/>
<path class="st328" d="M42.07,129.7c0,0,39.54-23.39,53.52-22.86c13.98,0.53,34.66-4.85,38.86,10.82
	c4.2,15.67,9.78,35.94,27.64,46.79c17.67,10.74,27.7,30.67,14.2,39.49c-13.5,8.83-29.85,11.43-46.47,4.16s-51.41,6.23-69.58-12.46
	S7.8,148.39,42.07,129.7z"/>
<path class="st329" d="M55.08,96.77c-12.45-5.28-14.9-13.67-7.41-19.3c7.49-5.63,15.73-25.04,24.63-7.9s29.92,27.87,12.81,35.12
	C68.01,111.93,65.07,101.01,55.08,96.77z"/>
<g>
	<path class="st330" d="M76.02,131.72c0,0-11.14,5.97-6.36,12.33c4.77,6.36,3.58,21.88,11.14,25.46c7.56,3.58,15.91-1.19,27.05,1.99
		s19.89-0.8,15.51-9.55c-4.38-8.75-7.16-22.67-12.33-30.63S84.77,121.78,76.02,131.72z"/>
	<path class="st330" d="M133.69,174.68c0,0,2.78,1.19,9.55,0.4c6.76-0.8,13.52,7.96,9.94,12.33c-3.58,4.38-7.96,6.76-15.91,2.78
		c-7.96-3.98-21.48,2.78-19.49-3.58C119.77,180.25,117.78,173.89,133.69,174.68z"/>
	<path class="st330" d="M164.59,27.99c0,0-13.89-5.64-28.51,8.28c-8.15,7.76-13.13,5.57-20.29,10.74
		c-7.16,5.17-7.96,32.62,8.35,33.01c16.31,0.4,14.72,15.51,26.65,15.51s21.88,18.3,29.83,0.8s-9.15-15.11-7.56-28.24
		C174.66,54.96,176.13,30.77,164.59,27.99z"/>
</g>
<path class="st323" d="M97.36,140.37c0,0-1.54-0.78-1.23,1.65c0.31,2.43,1.53-0.08,2.07-0.81S97.36,140.37,97.36,140.37z"/>
<path class="st323" d="M103.51,147.37c0.09,0.22,1.15,2.59-1.03,2.47s-1.09-1.15-3.44-0.97s-3.14-1.03-1.39-1.93
	S102.48,144.84,103.51,147.37z"/>
<path class="st25" d="M116.2,55.28c0,0-5.9,12.61,4.03,14.76c9.93,2.15,9.93,3.49,13.15,7.78c3.22,4.29,15.41,7.94,21.77,8.16
	c7.84,0.27,18.07,12.8,19.29,5.26c2.26-13.93-7.78-19.05-5.9-24.96c1.88-5.9,4.12-23-3.31-28.08c-8.33-5.7-15.89-9.46-23.67-3.29
	s-14.35,15.54-18.11,15.54S117.01,52.6,116.2,55.28z"/>
<path class="st25" d="M89.06,137.71c0,0-11.94,1.57-11.94,8.8c0,7.23,5.03,13.83,14.46,14.77c9.43,0.94,11.31,4.09,13.51,5.34
	c2.2,1.26,8.8-0.31,8.17-5.66c-0.63-5.34-2.83-5.66-3.46-10.69c-0.63-5.03,3.77-8.49-3.14-9.11c-6.91-0.63-6.91,0.31-8.49-6.29
	C96.61,128.28,90.01,131.43,89.06,137.71z"/>
<path class="st322" d="M162.81,39.52c0,0-3.95-5.04-17.12,0.38c-10.31,4.24-9.54,14.46-16,13.23s-8.31,0.62-8.31,6.15
	s-0.31,7.08,7.08,7.08c7.38,0,13.23,0.62,13.54,7.08c0.31,6.46,4.61,9.85,10.15,8.31c5.54-1.54,9.23-0.92,11.38,0.92
	c2.15,1.85,7.79,0.79,4.1-5.67c-3.69-6.46-2.68-8.88-0.22-15.34C169.88,55.19,172.04,47.52,162.81,39.52z"/>
<path class="st25" d="M145.35,181.57c0,0-3.22-0.99-4.71,0.5c-1.49,1.49-1.74,4.46,2.23,4.46c3.97,0,3.72-1.74,6.2-3.72
	S145.35,181.57,145.35,181.57z"/>
<path class="st147" d="M127.32,63.46c0.8,1.2,11.38,1.11,13.57,4.7c2.61,4.29,4.06-0.21,8.44,2.55c13.54,8.52,12.57,6.09,12.76-3.93
	c0.2-10.02,5.11-14.15,1.83-19.79c-5.27-9.06-11.45-5.54-17.15-2.59c-2.6,1.35-7.84,6.46-12.23,9.56
	C129.33,57.64,123.49,57.71,127.32,63.46z"/>
<path class="st322" d="M94.01,137.11c0,0-2.41,0.27-2.35,4.69c0.08,5.94-10.85-1.76-8.8,4.69c2.05,6.45,4.69,7.33,10.56,6.45
	c5.87-0.88,5.57,3.23,9.68-0.88c4.11-4.11,4.69-6.45-1.17-7.92C96.06,142.68,99.88,134.76,94.01,137.11z"/>
<path class="st331" d="M142.12,50.61c0,0-10.59,7.5-6.9,8.84s6.02-1.07,8.83,5.09c2.16,4.74,5.45,2.35,10.65,3.69
	c5.2,1.34,7.55-0.67,5.87-5.2s-2.52-3.36-1.51-8.73c1.01-5.37-3.69-9.9-7.22-7.89C148.33,48.42,146.65,45.91,142.12,50.61z"/>
<path class="st323" d="M146.32,54.47c0,0-4.53,5.03-0.17,6.04c4.36,1.01,3.52,1.34,5.87,2.18c2.35,0.84,5.03-2.35,3.69-5.71
	c-1.34-3.36,2.01-6.04-2.01-5.37C149.67,52.28,146.48,50.77,146.32,54.47z"/>
<path class="st331" d="M94.6,143.6c0,0-2.46,3.58,0.19,3.58c2.65,0,2.4,0.37,2.28-2.59C96.95,141.63,94.6,143.6,94.6,143.6z"/>
</svg>
