<?xml version="1.0" encoding="utf-8"?>
<!-- Generator: Adobe Illustrator 27.2.0, SVG Export Plug-In . SVG Version: 6.00 Build 0)  -->
<svg version="1.1" id="Ebene_1" xmlns="http://www.w3.org/2000/svg" xmlns:xlink="http://www.w3.org/1999/xlink" x="0px" y="0px"
	 viewBox="0 0 60.46 63.58" style="enable-background:new 0 0 60.46 63.58;" xml:space="preserve">
<style type="text/css">
	.st0{fill:#EDEDED;}
	.st1{opacity:0.1;fill:#546579;stroke:#60748C;stroke-width:1.0251;stroke-miterlimit:10;}
	.st2{opacity:0.1;fill:#546579;stroke:#282F39;stroke-width:1.0251;stroke-miterlimit:10;}
	.st3{opacity:0.1;fill:#546579;stroke:#546579;stroke-width:1.0251;stroke-miterlimit:10;}
	.st4{fill:#60748C;stroke:#60748C;stroke-width:0.9491;stroke-miterlimit:10;}
	.st5{fill:#282F39;}
	.st6{fill:#FFFFFF;}
	.st7{fill:#45AD4B;stroke:#45AD4B;stroke-width:0.8985;stroke-miterlimit:10;}
	.st8{fill:#6DC5D8;stroke:#6DC5D8;stroke-width:0.9491;stroke-miterlimit:10;}
	.st9{fill:#282F39;stroke:#FFFFFF;stroke-width:1.0437;stroke-miterlimit:10;}
	.st10{fill:#45AD4B;stroke:#45AD4B;stroke-width:0.9491;stroke-miterlimit:10;}
	.st11{fill:#A4C748;}
	.st12{fill:#45AD4B;stroke:#45AD4B;stroke-width:0.9119;stroke-miterlimit:10;}
	.st13{fill:#C1252D;stroke:#C1252D;stroke-width:0.9491;stroke-miterlimit:10;}
	.st14{fill:#C1252D;}
	.st15{fill:#C1252D;stroke:#C1252D;stroke-width:1.0339;stroke-miterlimit:10;}
	.st16{fill:#C1252D;stroke:#C1252D;stroke-width:0.8834;stroke-miterlimit:10;}
	.st17{fill:none;stroke:#282F39;stroke-width:2;stroke-linecap:round;stroke-linejoin:round;stroke-miterlimit:10;}
	.st18{fill:#45AD4B;}
	.st19{fill:#45AB4B;}
	.st20{fill:#60748C;}
	.st21{fill:#6DC5D8;}
	.st22{opacity:0.1;}
	.st23{fill:#5B7188;}
	.st24{fill:#97A2AF;}
	.st25{fill:#BABBBC;}
	.st26{fill:#5B7185;}
	.st27{fill:#A0C348;}
	.st28{fill:#45A84B;}
	.st29{fill:#BC252D;}
	.st30{fill:#6DC0D3;}
	.st31{fill:none;stroke:#C7D3D7;stroke-miterlimit:10;}
	.st32{opacity:0.1;fill:#757577;}
	.st33{fill:none;stroke:#FFFFFF;stroke-miterlimit:10;}
	.st34{opacity:0.6;}
	.st35{fill:#F1F3F4;}
	.st36{fill:none;stroke:#F1F3F4;stroke-miterlimit:10;}
	.st37{fill:#E8EAED;}
	.st38{fill:#F1F1F1;}
	.st39{fill:#646768;}
	.st40{opacity:0.25;fill:#757577;}
	.st41{fill:none;stroke:#6DC5D8;stroke-width:3;stroke-miterlimit:10;}
	.st42{fill:none;stroke:#C1252D;stroke-width:3;stroke-miterlimit:10;}
	.st43{fill:none;stroke:#45AD4B;stroke-width:3;stroke-miterlimit:10;}
	.st44{fill:#E7E7E7;}
	.st45{clip-path:url(#SVGID_00000100342103421365588190000002416131353411829890_);}
	.st46{clip-path:url(#SVGID_00000100342103421365588190000002416131353411829890_);fill:#F1F1F1;}
	.st47{clip-path:url(#SVGID_00000155146912145757466320000008638478742257833116_);}
	.st48{fill:#FEF9E8;}
	.st49{fill:#CEEAD6;}
	.st50{fill:#FCE8E6;}
	.st51{fill:none;stroke:#9CC0F9;stroke-width:3;stroke-miterlimit:10;}
	.st52{fill:none;stroke:#9CC0F9;stroke-miterlimit:10;}
	.st53{opacity:0.5;fill:#757577;}
	.st54{clip-path:url(#SVGID_00000100342103421365588190000002416131353411829890_);fill:#FFFFFF;}
	.st55{fill:none;stroke:#C1252D;stroke-width:9;stroke-miterlimit:10;}
	.st56{fill:none;stroke:#E7E7E7;stroke-width:9;stroke-miterlimit:10;}
	.st57{fill:none;stroke:#FFFFFF;stroke-width:3;stroke-miterlimit:10;}
	.st58{fill:none;stroke:#45AD4B;stroke-width:9;stroke-miterlimit:10;}
	.st59{fill:none;stroke:#6DC5D8;stroke-width:1.5;stroke-miterlimit:10;}
	.st60{opacity:0.25;clip-path:url(#SVGID_00000100342103421365588190000002416131353411829890_);fill:#757577;}
	.st61{fill:#292929;}
	.st62{fill-rule:evenodd;clip-rule:evenodd;}
	.st63{fill:#FF7578;}
	.st64{fill:#FFC9CA;}
	.st65{fill:#173042;}
	.st66{fill:#946B6B;}
	.st67{fill:none;}
	.st68{fill:#FFFFFF;stroke:#FFFFFF;stroke-width:7;stroke-miterlimit:10;}
	.st69{fill:#444444;}
	.st70{fill:#F73103;}
	.st71{fill:#FFBB39;}
	.st72{fill:#398229;}
	.st73{fill:#DE0505;}
	.st74{fill:#FF804E;}
	.st75{fill:#7ED668;}
	.st76{fill:#BF252D;}
	.st77{fill:#D4894D;}
	.st78{fill:#AD5512;}
	.st79{fill:#FF00FF;}
	.st80{fill:#FF3D75;}
	.st81{fill:#F28E1E;}
	.st82{fill:#2B6E53;}
	.st83{fill:#399150;}
	.st84{fill:#6A4A1D;}
	.st85{clip-path:url(#SVGID_00000138539514940423270050000002160256721131276990_);}
	.st86{clip-path:url(#SVGID_00000139987588005731108750000005356573466001551773_);}
	.st87{fill:#333333;}
	.st88{fill:url(#SVGID_00000140704800507344859570000005816354228538165149_);}
	.st89{fill:url(#SVGID_00000066493709328575831480000001985906127981066625_);}
	.st90{opacity:0.08;}
	.st91{fill:url(#SVGID_00000093892934505476783300000006375154101884864429_);}
	.st92{fill:#FCEED7;}
	.st93{fill:#FBD18B;}
	.st94{fill:#DEE1E5;}
	.st95{fill:#ED8D80;}
	.st96{fill:#E97361;}
	.st97{fill:#AE5649;}
	.st98{fill:#CACED5;}
	.st99{fill:#A8B0BB;}
	.st100{fill:#CACFD7;}
	.st101{fill:#EABF9A;}
	.st102{fill:#E4E7EB;}
	.st103{fill:#69D4F2;}
	.st104{fill:#B2DB7F;}
	.st105{fill:#9ED268;}
	.st106{fill:#F8F8F8;}
	.st107{fill:#F0F0F0;}
	.st108{fill:#738DBD;}
	.st109{fill:#E46D67;}
	.st110{fill:#24C1F0;}
	.st111{fill:#36B183;}
	.st112{fill:#FFB866;}
	.st113{fill:#FFD873;}
	.st114{fill-rule:evenodd;clip-rule:evenodd;fill:#485156;}
	.st115{fill:#58595B;}
	.st116{fill:#BF252D;stroke:#BF252D;stroke-width:2;stroke-miterlimit:10;}
	.st117{fill:#FFFFFF;stroke:#BF252D;stroke-width:4;stroke-linecap:round;stroke-linejoin:round;stroke-miterlimit:10;}
	.st118{fill-rule:evenodd;clip-rule:evenodd;fill:#BF252D;}
	.st119{fill:none;stroke:#FFFFFF;stroke-miterlimit:10;stroke-dasharray:1.0108,1.0108;}
	.st120{fill:none;stroke:#45AD4B;stroke-width:4;stroke-miterlimit:10;}
	.st121{fill:none;stroke:#C1252D;stroke-width:4;stroke-miterlimit:10;}
	.st122{opacity:0.2;fill:#45AD4B;}
	.st123{opacity:0.6;fill:#45AD4B;}
	.st124{fill:#44A049;}
	.st125{fill:#1A1A1A;}
	.st126{fill:#A3C648;}
	.st127{fill:#6DC3D6;}
	.st128{clip-path:url(#SVGID_00000174592143454645805090000003085794360337426856_);}
	.st129{opacity:0.5;fill:#45AD4B;}
	.st130{opacity:0.2;fill:#E7E7E7;}
	.st131{opacity:0.5;fill:#E7E7E7;}
	.st132{opacity:0.5;fill:#FFFFFF;}
	.st133{opacity:0.2;fill:#6DC5D8;}
	.st134{fill:none;stroke:#FFFFFF;stroke-width:2.5;stroke-miterlimit:10;}
	.st135{fill:none;stroke:#BF252D;stroke-width:5;stroke-miterlimit:10;}
	.st136{fill:#BF252D;stroke:#FFFFFF;stroke-width:3;stroke-miterlimit:10;}
	.st137{fill:#FFFFFF;stroke:#FFFFFF;stroke-width:5.5;stroke-miterlimit:10;}
	.st138{fill:none;stroke:#BF252D;stroke-width:3;stroke-miterlimit:10;}
	.st139{fill:#BF252D;stroke:#FFFFFF;stroke-width:4.5;stroke-miterlimit:10;}
	.st140{fill:#BF252D;stroke:#FFFFFF;stroke-miterlimit:10;}
	.st141{fill:#F7E921;}
	.st142{fill:#6E81B5;}
	.st143{fill:#466087;}
	.st144{fill:#FFAEA8;}
	.st145{fill:#FFE152;}
	.st146{fill:#96C869;}
	.st147{fill:#ADB3BD;}
	.st148{fill:#CACED8;}
	.st149{fill:#40CAEF;}
	.st150{fill:#276F80;}
	.st151{fill:#878F9E;}
	.st152{fill:#EEF0F3;}
	.st153{fill:#1E505B;}
	.st154{fill:#9C80EA;}
	.st155{fill:#FAC955;}
	.st156{clip-path:url(#SVGID_00000032616793351465420550000015847428536276222128_);}
	.st157{fill:#E5EAEB;}
	.st158{fill:#ADB4B9;}
	.st159{fill:#495D72;}
	.st160{fill:#28384C;}
	.st161{fill:#E9B816;}
	.st162{fill:#DB352E;}
	.st163{fill:#366DB4;}
	.st164{fill:#753489;}
	.st165{fill:#57A9BF;}
	.st166{fill:#25AC86;}
	.st167{fill:#F56363;}
	.st168{fill:#BD5A45;}
	.st169{fill:#F0EABD;}
	.st170{fill:#EB8819;}
	.st171{fill:#C3411E;}
	.st172{fill:#205B75;}
	.st173{fill:#C8D9E8;}
	.st174{fill:#A9B9CA;}
	.st175{fill:#114559;}
	.st176{fill:#DFE8F2;}
	.st177{fill:#E3B933;}
	.st178{fill:#E96374;}
	.st179{fill:#80EAFF;}
	.st180{fill:#FFFFFF;stroke:#C1252D;stroke-width:7;stroke-miterlimit:10;}
	.st181{fill:#FFFFFF;stroke:#45AD4B;stroke-width:7;stroke-miterlimit:10;}
	.st182{fill:#B4BCBD;}
	.st183{fill:#CED7DA;}
	.st184{fill:none;stroke:#45AD4B;stroke-width:2;stroke-miterlimit:10;}
	.st185{fill:#6DC3D6;stroke:#FFFFFF;stroke-width:0.1;stroke-miterlimit:10;}
	.st186{fill:#C1252D;stroke:#FFFFFF;stroke-width:0.1;stroke-miterlimit:10;}
	.st187{fill:#A3C648;stroke:#FFFFFF;stroke-width:0.1;stroke-miterlimit:10;}
	.st188{fill:#45AB4B;stroke:#FFFFFF;stroke-width:0.1;stroke-miterlimit:10;}
	.st189{fill:none;stroke:#60748C;stroke-linecap:round;stroke-linejoin:round;stroke-miterlimit:10;stroke-dasharray:2,4;}
	.st190{fill:#F0F0F0;stroke:#C1252D;stroke-width:7;stroke-miterlimit:10;}
	.st191{fill:#F0F0F0;stroke:#45AD4B;stroke-width:7;stroke-miterlimit:10;}
	.st192{opacity:0.3;}
	.st193{opacity:0.3;fill:#5B7188;}
	.st194{fill:#EDEDED;stroke:#C1252D;stroke-width:6;stroke-miterlimit:10;}
	.st195{fill:#5B7188;stroke:#EDEDED;stroke-miterlimit:10;}
	.st196{fill:#EDEDED;stroke:#45AD4B;stroke-width:6;stroke-miterlimit:10;}
	.st197{fill:#FFFFFF;stroke:#C1252D;stroke-width:6;stroke-miterlimit:10;}
	.st198{fill:#FFFFFF;stroke:#45AD4B;stroke-width:6;stroke-miterlimit:10;}
	.st199{fill:none;stroke:#6DC5D8;stroke-linecap:round;stroke-linejoin:round;}
	.st200{fill:none;stroke:#6DC5D8;stroke-linecap:round;stroke-linejoin:round;stroke-dasharray:4.8937,7.8299;}
	.st201{fill:none;stroke:#6DC5D8;stroke-linecap:round;stroke-linejoin:round;stroke-dasharray:5.1322,8.2115;}
	.st202{fill:none;stroke:#6DC5D8;stroke-linecap:round;stroke-linejoin:round;stroke-miterlimit:10;stroke-dasharray:5,8;}
	.st203{fill:#45AC4B;}
	.st204{fill:#C0252D;}
	.st205{fill:#6DC4D7;}
	.st206{fill:#5B7189;}
	.st207{fill:none;stroke:#60748C;stroke-width:1.5;stroke-miterlimit:10;}
	.st208{opacity:0.4;}
	.st209{fill:none;stroke:#60748C;stroke-width:2;stroke-linecap:round;stroke-linejoin:round;stroke-miterlimit:10;}
	.st210{opacity:0.54;fill:#FFFFFF;}
	.st211{clip-path:url(#SVGID_00000103233358567677979740000003903095172264508601_);}
	.st212{opacity:0.5;fill:#5B7188;}
	.st213{opacity:0.1;fill:#60748C;}
	.st214{clip-path:url(#SVGID_00000096036642295757685320000018362389096560879274_);}
	.st215{display:none;}
	.st216{display:inline;fill:#FFFFFF;}
	.st217{display:inline;fill:#090C11;}
	.st218{display:inline;fill:#4A596E;}
	.st219{fill:#546579;}
	.st220{fill:#6F88A6;}
	.st221{opacity:0.1;fill:none;stroke:#FFFFFF;stroke-miterlimit:10;}
	.st222{display:none;fill:#6DC5D8;}
	.st223{opacity:0.45;fill:#60748C;}
	.st224{opacity:0.03;clip-path:url(#SVGID_00000061447908105873081970000011085148674167283890_);}
	.st225{clip-path:url(#SVGID_00000061447908105873081970000011085148674167283890_);}
	
		.st226{clip-path:url(#SVGID_00000061447908105873081970000011085148674167283890_);fill:#FFFFFF;stroke:#60748C;stroke-width:1.5;stroke-miterlimit:10;}
	.st227{opacity:0.4;clip-path:url(#SVGID_00000061447908105873081970000011085148674167283890_);}
	.st228{clip-path:url(#SVGID_00000079447716286570836010000014213491082040496553_);}
	.st229{opacity:0.05;clip-path:url(#SVGID_00000079447716286570836010000014213491082040496553_);}
	.st230{fill:#575756;}
	
		.st231{clip-path:url(#SVGID_00000079447716286570836010000014213491082040496553_);fill:#FFFFFF;stroke:#60748C;stroke-width:1.5;stroke-miterlimit:10;}
	.st232{opacity:0.4;clip-path:url(#SVGID_00000079447716286570836010000014213491082040496553_);}
	.st233{fill:#FFFFFF;stroke:#60748C;stroke-width:1.5;stroke-miterlimit:10;}
	.st234{fill:#A5C848;}
	.st235{opacity:0.2;}
	.st236{clip-path:url(#SVGID_00000079457278909542971980000001872644227197239227_);}
	.st237{clip-path:url(#SVGID_00000065764885751250383160000012671968358400633784_);}
	.st238{fill:none;stroke:#60748C;stroke-width:3;stroke-miterlimit:10;}
	.st239{fill:#EDEDED;stroke:#C0252D;stroke-width:3;stroke-miterlimit:10;}
	.st240{clip-path:url(#SVGID_00000127750284341844804880000001139993056634637707_);}
	.st241{opacity:0.1;fill:#546579;}
	.st242{opacity:0.05;}
	.st243{fill:#606060;}
	.st244{opacity:0.15;}
	.st245{opacity:0.5;}
	.st246{fill:#535353;}
	.st247{opacity:0.7;}
	.st248{filter:url(#Adobe_OpacityMaskFilter);}
	.st249{filter:url(#Adobe_OpacityMaskFilter_00000073723674350492049440000007806343387696787113_);}
	
		.st250{mask:url(#SVGID_00000029023519150669544450000015309213113878029984_);fill:url(#SVGID_00000008854056445666257920000002517057794334382514_);}
	.st251{filter:url(#Adobe_OpacityMaskFilter_00000061444192636296711870000002480485547192784803_);}
	.st252{filter:url(#Adobe_OpacityMaskFilter_00000119818338821123353100000014099679079387328921_);}
	
		.st253{mask:url(#SVGID_00000151537400656275556860000002554056084705110680_);fill:url(#SVGID_00000182508785728980293500000013152193187142021029_);}
	.st254{filter:url(#Adobe_OpacityMaskFilter_00000013899799604964586150000001178166000854962618_);}
	.st255{filter:url(#Adobe_OpacityMaskFilter_00000130624919184196539580000003351990541412710326_);}
	
		.st256{mask:url(#SVGID_00000140693663844140175950000006376924607547846020_);fill:url(#SVGID_00000099622964784514677690000014892316142087375511_);}
	.st257{filter:url(#Adobe_OpacityMaskFilter_00000173144302306571359150000000066694429248160692_);}
	.st258{filter:url(#Adobe_OpacityMaskFilter_00000112604056151800578420000017231568859121059231_);}
	
		.st259{mask:url(#SVGID_00000067920127170777866160000007924071320108697747_);fill:url(#SVGID_00000063617516988046174960000008633912692504668082_);}
	.st260{filter:url(#Adobe_OpacityMaskFilter_00000035522825133733814550000010433776445968055439_);}
	.st261{filter:url(#Adobe_OpacityMaskFilter_00000062880343248352661530000014510688176515464087_);}
	
		.st262{mask:url(#SVGID_00000022519021116613522010000010004330723981976756_);fill:url(#SVGID_00000122693816422110469860000011284901360177280133_);}
	.st263{filter:url(#Adobe_OpacityMaskFilter_00000021827700154710211530000005046705044650016919_);}
	.st264{filter:url(#Adobe_OpacityMaskFilter_00000116231804904045390230000000274892015790211243_);}
	
		.st265{mask:url(#SVGID_00000098199723617516506830000010847888042678883984_);fill:url(#SVGID_00000040541018044199891410000012420572387281779380_);}
	.st266{filter:url(#Adobe_OpacityMaskFilter_00000110452979869258414490000013942104990683154070_);}
	.st267{filter:url(#Adobe_OpacityMaskFilter_00000147189024371217953120000004340542363503194548_);}
	
		.st268{mask:url(#SVGID_00000042716537927354622720000004266473302561496469_);fill:url(#SVGID_00000104675974569431211520000002719259486262788796_);}
	.st269{opacity:0.8;}
	.st270{filter:url(#Adobe_OpacityMaskFilter_00000054233587053546779770000011810973049270601148_);}
	.st271{filter:url(#Adobe_OpacityMaskFilter_00000145054201192711869700000013409259310817763006_);}
	
		.st272{mask:url(#SVGID_00000168085635239147681930000010894503194497192638_);fill:url(#SVGID_00000125570104931052427870000016353992947976396695_);}
	.st273{fill:none;stroke:#1A1A1A;stroke-width:4;stroke-miterlimit:10;}
	.st274{fill:none;stroke:#60748C;stroke-width:4;stroke-miterlimit:10;}
</style>
<g>
	<path class="st14" d="M34.02,26.28c0.78-1.1,1.25-2.44,1.25-3.89c0-3.7-3-6.7-6.7-6.7c-0.05,0-0.11,0.01-0.16,0.01
		c-0.89-1.37-2.29-2.37-3.92-2.75l0,0c0,0,0,0,0,0c-0.23-0.05-0.46-0.1-0.7-0.13c-0.24-0.03-0.49-0.05-0.75-0.05
		c-2.61,0-4.86,1.57-5.86,3.81c-4,1.05-6.96,4.68-6.96,9.01c0,2.38,0.9,4.55,2.37,6.2c-0.03,0.26-0.04,0.53-0.04,0.8
		c0,4.51,3.65,8.16,8.16,8.16c0.26,0,0.92-0.01,1.56-0.04l-0.39,8.19l0,0l0,0h1.75l0,0h1.75l-0.47-9.83c0.87,0.32,1.81,0.5,2.8,0.5
		c4.51,0,8.16-3.65,8.16-8.16C35.85,29.48,35.17,27.68,34.02,26.28z"/>
	<g>
		<path class="st14" d="M34.85,31.43c0-1.66-0.56-3.22-1.61-4.52l-0.48-0.59l0.44-0.62c0.7-0.97,1.06-2.12,1.06-3.3
			c0-0.87-0.2-1.69-0.55-2.43c-1.19,0.36-2.22,1.1-2.89,2.1c-0.05,0-0.09-0.01-0.14-0.01c-3.09,0-5.59,2.43-5.59,5.42
			c0,1.17,0.39,2.26,1.04,3.14c-0.95,1.14-1.53,2.58-1.53,4.16c0,1.27,0.38,2.45,1.02,3.46c0.68,0.21,1.37,0.34,2.06,0.34
			C31.64,38.59,34.85,35.37,34.85,31.43z"/>
		<path class="st14" d="M47.69,30.58c0-3.51-2.47-6.44-5.81-7.29c-0.77-1.68-2.44-2.88-4.42-3.05c0.31,0.83,0.48,1.72,0.48,2.66
			c0,1.36-0.35,2.67-1.03,3.84c1.05,1.52,1.61,3.34,1.61,5.19c0,4.9-3.52,9.06-8.37,9.28c0.98,0.53,1.74,0.68,2.94,0.68
			c0.82,0,1.61-0.15,2.34-0.41l-0.39,7.53h1.46v0h1.46v0l-0.33-6.21c0.53,0.02,1.08,0.03,1.3,0.03c3.76,0,6.81-2.96,6.81-6.6
			c0-0.22-0.01-0.43-0.03-0.64C46.94,34.27,47.69,32.51,47.69,30.58z"/>
	</g>
</g>
<g>
	<path class="st14" d="M34.02,26.28c0.78-1.1,1.25-2.44,1.25-3.89c0-3.7-3-6.7-6.7-6.7c-0.05,0-0.11,0.01-0.16,0.01
		c-0.89-1.37-2.29-2.37-3.92-2.75l0,0c0,0,0,0,0,0c-0.23-0.05-0.46-0.1-0.7-0.13c-0.24-0.03-0.49-0.05-0.75-0.05
		c-2.61,0-4.86,1.57-5.86,3.81c-4,1.05-6.96,4.68-6.96,9.01c0,2.38,0.9,4.55,2.37,6.2c-0.03,0.26-0.04,0.53-0.04,0.8
		c0,4.51,3.65,8.16,8.16,8.16c0.26,0,0.92-0.01,1.56-0.04l-0.39,8.19l0,0l0,0h1.75l0,0h1.75l-0.47-9.83c0.87,0.32,1.81,0.5,2.8,0.5
		c4.51,0,8.16-3.65,8.16-8.16C35.85,29.48,35.17,27.68,34.02,26.28z"/>
	<g>
		<path class="st14" d="M34.85,31.43c0-1.66-0.56-3.22-1.61-4.52l-0.48-0.59l0.44-0.62c0.7-0.97,1.06-2.12,1.06-3.3
			c0-0.87-0.2-1.69-0.55-2.43c-1.19,0.36-2.22,1.1-2.89,2.1c-0.05,0-0.09-0.01-0.14-0.01c-3.09,0-5.59,2.43-5.59,5.42
			c0,1.17,0.39,2.26,1.04,3.14c-0.95,1.14-1.53,2.58-1.53,4.16c0,1.27,0.38,2.45,1.02,3.46c0.68,0.21,1.37,0.34,2.06,0.34
			C31.64,38.59,34.85,35.37,34.85,31.43z"/>
		<path class="st14" d="M47.69,30.58c0-3.51-2.47-6.44-5.81-7.29c-0.77-1.68-2.44-2.88-4.42-3.05c0.31,0.83,0.48,1.72,0.48,2.66
			c0,1.36-0.35,2.67-1.03,3.84c1.05,1.52,1.61,3.34,1.61,5.19c0,4.9-3.52,9.06-8.37,9.28c0.98,0.53,1.74,0.68,2.94,0.68
			c0.82,0,1.61-0.15,2.34-0.41l-0.39,7.53h1.46v0h1.46v0l-0.33-6.21c0.53,0.02,1.08,0.03,1.3,0.03c3.76,0,6.81-2.96,6.81-6.6
			c0-0.22-0.01-0.43-0.03-0.64C46.94,34.27,47.69,32.51,47.69,30.58z"/>
	</g>
</g>
</svg>
