<?xml version="1.0" encoding="utf-8"?>
<!-- Generator: Adobe Illustrator 27.2.0, SVG Export Plug-In . SVG Version: 6.00 Build 0)  -->
<svg version="1.1" id="Ebene_1" xmlns="http://www.w3.org/2000/svg" xmlns:xlink="http://www.w3.org/1999/xlink" x="0px" y="0px"
	 viewBox="0 0 1914.32 255.69" style="enable-background:new 0 0 1914.32 255.69;" xml:space="preserve">
<style type="text/css">
	.st0{fill:#60748C;}
	.st1{fill:#ECECEC;}
	.st2{stroke:#FFFFFF;stroke-width:0.5;stroke-miterlimit:10;}
	.st3{fill:#FFFFFF;}
	.st4{fill:#EDEDED;}
	.st5{opacity:0.1;fill:#546579;stroke:#60748C;stroke-width:1.0251;stroke-miterlimit:10;}
	.st6{opacity:0.1;fill:#546579;stroke:#282F39;stroke-width:1.0251;stroke-miterlimit:10;}
	.st7{opacity:0.1;fill:#546579;stroke:#546579;stroke-width:1.0251;stroke-miterlimit:10;}
	.st8{fill:#60748C;stroke:#60748C;stroke-width:0.9491;stroke-miterlimit:10;}
	.st9{fill:#282F39;}
	.st10{fill:#45AD4B;stroke:#45AD4B;stroke-width:0.8985;stroke-miterlimit:10;}
	.st11{fill:#6DC5D8;stroke:#6DC5D8;stroke-width:0.9491;stroke-miterlimit:10;}
	.st12{fill:#282F39;stroke:#FFFFFF;stroke-width:1.0437;stroke-miterlimit:10;}
	.st13{fill:#45AD4B;stroke:#45AD4B;stroke-width:0.9491;stroke-miterlimit:10;}
	.st14{fill:#A4C748;}
	.st15{fill:#45AD4B;stroke:#45AD4B;stroke-width:0.9119;stroke-miterlimit:10;}
	.st16{fill:#C1252D;stroke:#C1252D;stroke-width:0.9491;stroke-miterlimit:10;}
	.st17{fill:#C1252D;}
	.st18{fill:#C1252D;stroke:#C1252D;stroke-width:1.0339;stroke-miterlimit:10;}
	.st19{fill:#C1252D;stroke:#C1252D;stroke-width:0.8834;stroke-miterlimit:10;}
	.st20{fill:none;stroke:#282F39;stroke-width:2;stroke-linecap:round;stroke-linejoin:round;stroke-miterlimit:10;}
	.st21{fill:#45AD4B;}
	.st22{fill:#45AB4B;}
	.st23{fill:#6DC5D8;}
	.st24{opacity:0.1;}
	.st25{fill:#5B7188;}
	.st26{fill:#97A2AF;}
	.st27{fill:#BABBBC;}
	.st28{fill:#5B7185;}
	.st29{fill:#A0C348;}
	.st30{fill:#45A84B;}
	.st31{fill:#BC252D;}
	.st32{fill:#6DC0D3;}
	.st33{fill:none;stroke:#C7D3D7;stroke-miterlimit:10;}
	.st34{opacity:0.1;fill:#757577;}
	.st35{fill:none;stroke:#FFFFFF;stroke-miterlimit:10;}
	.st36{opacity:0.6;}
	.st37{fill:#F1F3F4;}
	.st38{fill:none;stroke:#F1F3F4;stroke-miterlimit:10;}
	.st39{fill:#E8EAED;}
	.st40{fill:#F1F1F1;}
	.st41{fill:#646768;}
	.st42{opacity:0.25;fill:#757577;}
	.st43{fill:none;stroke:#6DC5D8;stroke-width:3;stroke-miterlimit:10;}
	.st44{fill:none;stroke:#C1252D;stroke-width:3;stroke-miterlimit:10;}
	.st45{fill:none;stroke:#45AD4B;stroke-width:3;stroke-miterlimit:10;}
	.st46{fill:#E7E7E7;}
	.st47{clip-path:url(#SVGID_00000103230624558426840290000011289652098569746831_);}
	.st48{clip-path:url(#SVGID_00000103230624558426840290000011289652098569746831_);fill:#F1F1F1;}
	.st49{clip-path:url(#SVGID_00000165956829153218496860000012558620315660285079_);}
	.st50{fill:#FEF9E8;}
	.st51{fill:#CEEAD6;}
	.st52{fill:#FCE8E6;}
	.st53{fill:none;stroke:#9CC0F9;stroke-width:3;stroke-miterlimit:10;}
	.st54{fill:none;stroke:#9CC0F9;stroke-miterlimit:10;}
	.st55{opacity:0.5;fill:#757577;}
	.st56{clip-path:url(#SVGID_00000103230624558426840290000011289652098569746831_);fill:#FFFFFF;}
	.st57{fill:none;stroke:#C1252D;stroke-width:9;stroke-miterlimit:10;}
	.st58{fill:none;stroke:#E7E7E7;stroke-width:9;stroke-miterlimit:10;}
	.st59{fill:none;stroke:#FFFFFF;stroke-width:3;stroke-miterlimit:10;}
	.st60{fill:none;stroke:#45AD4B;stroke-width:9;stroke-miterlimit:10;}
	.st61{fill:none;stroke:#6DC5D8;stroke-width:1.5;stroke-miterlimit:10;}
	.st62{opacity:0.25;clip-path:url(#SVGID_00000103230624558426840290000011289652098569746831_);fill:#757577;}
	.st63{fill:#292929;}
	.st64{fill-rule:evenodd;clip-rule:evenodd;}
	.st65{fill:#FF7578;}
	.st66{fill:#FFC9CA;}
	.st67{fill:#173042;}
	.st68{fill:#946B6B;}
	.st69{fill:none;}
	.st70{fill:#FFFFFF;stroke:#FFFFFF;stroke-width:7;stroke-miterlimit:10;}
	.st71{fill:#444444;}
	.st72{fill:#F73103;}
	.st73{fill:#FFBB39;}
	.st74{fill:#398229;}
	.st75{fill:#DE0505;}
	.st76{fill:#FF804E;}
	.st77{fill:#7ED668;}
	.st78{fill:#BF252D;}
	.st79{fill:#D4894D;}
	.st80{fill:#AD5512;}
	.st81{fill:#FF00FF;}
	.st82{fill:#FF3D75;}
	.st83{fill:#F28E1E;}
	.st84{fill:#2B6E53;}
	.st85{fill:#399150;}
	.st86{fill:#6A4A1D;}
	.st87{fill:#6DC3D6;}
	.st88{clip-path:url(#SVGID_00000025426407354180925510000008428283172113083554_);}
	.st89{clip-path:url(#SVGID_00000169521143728795481400000013696052414596009652_);}
	.st90{fill:#333333;}
	.st91{fill:url(#SVGID_00000164479108353521172780000001819850663240707714_);}
	.st92{fill:url(#SVGID_00000060021676347021039490000013193317643105995427_);}
	.st93{opacity:0.08;}
	.st94{fill:url(#SVGID_00000111912760012826170180000015108865589641006243_);}
	.st95{fill-rule:evenodd;clip-rule:evenodd;fill:#1A1A1A;}
	.st96{fill:#1A1A1A;}
	.st97{fill-rule:evenodd;clip-rule:evenodd;fill:#60748C;}
	.st98{fill:#FCEED7;}
	.st99{fill:#FBD18B;}
	.st100{fill:#DEE1E5;}
	.st101{fill:#ED8D80;}
	.st102{fill:#E97361;}
	.st103{fill:#AE5649;}
	.st104{fill:#CACED5;}
	.st105{fill:#A8B0BB;}
	.st106{fill:#CACFD7;}
	.st107{fill:#EABF9A;}
	.st108{fill:#E4E7EB;}
	.st109{fill:#69D4F2;}
	.st110{fill:#B2DB7F;}
	.st111{fill:#9ED268;}
	.st112{fill:#F8F8F8;}
	.st113{fill:#F0F0F0;}
	.st114{fill:#738DBD;}
	.st115{fill:#E46D67;}
	.st116{fill:#24C1F0;}
	.st117{fill:#36B183;}
	.st118{fill:#FFB866;}
	.st119{fill:#FFD873;}
	.st120{fill-rule:evenodd;clip-rule:evenodd;fill:#485156;}
	.st121{fill:#58595B;}
	.st122{fill:#BF252D;stroke:#BF252D;stroke-width:2;stroke-miterlimit:10;}
	.st123{fill:#FFFFFF;stroke:#BF252D;stroke-width:4;stroke-linecap:round;stroke-linejoin:round;stroke-miterlimit:10;}
	.st124{fill-rule:evenodd;clip-rule:evenodd;fill:#BF252D;}
	.st125{fill:none;stroke:#FFFFFF;stroke-miterlimit:10;stroke-dasharray:1.0108,1.0108;}
	.st126{fill:none;stroke:#45AD4B;stroke-width:4;stroke-miterlimit:10;}
	.st127{fill:none;stroke:#C1252D;stroke-width:4;stroke-miterlimit:10;}
	.st128{opacity:0.2;fill:#45AD4B;}
	.st129{opacity:0.6;fill:#45AD4B;}
	.st130{fill:#44A049;}
	.st131{fill:#A3C648;}
	.st132{clip-path:url(#SVGID_00000080897507080610323510000001333889837175878319_);}
	.st133{opacity:0.5;fill:#45AD4B;}
	.st134{opacity:0.2;fill:#E7E7E7;}
	.st135{opacity:0.5;fill:#E7E7E7;}
	.st136{opacity:0.5;fill:#FFFFFF;}
	.st137{opacity:0.2;fill:#6DC5D8;}
	.st138{fill:none;stroke:#FFFFFF;stroke-width:2.5;stroke-miterlimit:10;}
	.st139{fill:none;stroke:#BF252D;stroke-width:5;stroke-miterlimit:10;}
	.st140{fill:#BF252D;stroke:#FFFFFF;stroke-width:3;stroke-miterlimit:10;}
	.st141{fill:#FFFFFF;stroke:#FFFFFF;stroke-width:5.5;stroke-miterlimit:10;}
	.st142{fill:none;stroke:#BF252D;stroke-width:3;stroke-miterlimit:10;}
	.st143{fill:#BF252D;stroke:#FFFFFF;stroke-width:4.5;stroke-miterlimit:10;}
	.st144{fill:#BF252D;stroke:#FFFFFF;stroke-miterlimit:10;}
	.st145{fill:#F7E921;}
	.st146{fill:#6E81B5;}
	.st147{fill:#466087;}
	.st148{fill:#FFAEA8;}
	.st149{fill:#FFE152;}
	.st150{fill:#96C869;}
	.st151{fill:#ADB3BD;}
	.st152{fill:#CACED8;}
	.st153{fill:#40CAEF;}
	.st154{fill:#276F80;}
	.st155{fill:#878F9E;}
	.st156{fill:#EEF0F3;}
	.st157{fill:#1E505B;}
	.st158{fill:#9C80EA;}
	.st159{fill:#FAC955;}
	.st160{clip-path:url(#SVGID_00000168795337959496066000000014119184177811916187_);}
	.st161{fill:#E5EAEB;}
	.st162{fill:#ADB4B9;}
	.st163{fill:#495D72;}
	.st164{fill:#28384C;}
	.st165{fill:#E9B816;}
	.st166{fill:#DB352E;}
	.st167{fill:#366DB4;}
	.st168{fill:#753489;}
	.st169{fill:#57A9BF;}
	.st170{fill:#25AC86;}
	.st171{fill:#F56363;}
	.st172{fill:#BD5A45;}
	.st173{fill:#F0EABD;}
	.st174{fill:#EB8819;}
	.st175{fill:#C3411E;}
	.st176{fill:#205B75;}
	.st177{fill:#C8D9E8;}
	.st178{fill:#A9B9CA;}
	.st179{fill:#114559;}
	.st180{fill:#DFE8F2;}
	.st181{fill:#E3B933;}
	.st182{fill:#E96374;}
	.st183{fill:#80EAFF;}
	.st184{fill:#FFFFFF;stroke:#C1252D;stroke-width:7;stroke-miterlimit:10;}
	.st185{fill:#FFFFFF;stroke:#45AD4B;stroke-width:7;stroke-miterlimit:10;}
	.st186{fill:#B4BCBD;}
	.st187{fill:#CED7DA;}
	.st188{fill:none;stroke:#45AD4B;stroke-width:2;stroke-miterlimit:10;}
	.st189{fill:#6DC3D6;stroke:#FFFFFF;stroke-width:0.1;stroke-miterlimit:10;}
	.st190{fill:#C1252D;stroke:#FFFFFF;stroke-width:0.1;stroke-miterlimit:10;}
	.st191{fill:#A3C648;stroke:#FFFFFF;stroke-width:0.1;stroke-miterlimit:10;}
	.st192{fill:#45AB4B;stroke:#FFFFFF;stroke-width:0.1;stroke-miterlimit:10;}
	.st193{fill:none;stroke:#60748C;stroke-linecap:round;stroke-linejoin:round;stroke-miterlimit:10;stroke-dasharray:2,4;}
	.st194{fill:#F0F0F0;stroke:#C1252D;stroke-width:7;stroke-miterlimit:10;}
	.st195{fill:#F0F0F0;stroke:#45AD4B;stroke-width:7;stroke-miterlimit:10;}
	.st196{opacity:0.3;}
	.st197{opacity:0.3;fill:#5B7188;}
	.st198{fill:#EDEDED;stroke:#C1252D;stroke-width:6;stroke-miterlimit:10;}
	.st199{fill:#5B7188;stroke:#EDEDED;stroke-miterlimit:10;}
	.st200{fill:#EDEDED;stroke:#45AD4B;stroke-width:6;stroke-miterlimit:10;}
	.st201{fill:#FFFFFF;stroke:#C1252D;stroke-width:6;stroke-miterlimit:10;}
	.st202{fill:#FFFFFF;stroke:#45AD4B;stroke-width:6;stroke-miterlimit:10;}
	.st203{fill:none;stroke:#6DC5D8;stroke-linecap:round;stroke-linejoin:round;}
	.st204{fill:none;stroke:#6DC5D8;stroke-linecap:round;stroke-linejoin:round;stroke-dasharray:4.8937,7.8299;}
	.st205{fill:none;stroke:#6DC5D8;stroke-linecap:round;stroke-linejoin:round;stroke-dasharray:5.1322,8.2115;}
	.st206{fill:none;stroke:#6DC5D8;stroke-linecap:round;stroke-linejoin:round;stroke-miterlimit:10;stroke-dasharray:5,8;}
	.st207{fill:#45AC4B;}
	.st208{fill:#C0252D;}
	.st209{fill:#6DC4D7;}
	.st210{fill:#5B7189;}
	.st211{fill:none;stroke:#60748C;stroke-width:1.5;stroke-miterlimit:10;}
	.st212{opacity:0.4;}
	.st213{fill:none;stroke:#60748C;stroke-width:2;stroke-linecap:round;stroke-linejoin:round;stroke-miterlimit:10;}
	.st214{opacity:0.54;fill:#FFFFFF;}
	.st215{clip-path:url(#SVGID_00000008143817123678480590000006340250905708746683_);}
	.st216{opacity:0.5;fill:#5B7188;}
	.st217{opacity:0.1;fill:#60748C;}
	.st218{clip-path:url(#SVGID_00000067220374003527816390000005427777478341288356_);}
	.st219{display:none;}
	.st220{display:inline;fill:#FFFFFF;}
	.st221{display:inline;fill:#090C11;}
	.st222{display:inline;fill:#4A596E;}
	.st223{fill:#546579;}
	.st224{fill:#6F88A6;}
	.st225{opacity:0.1;fill:none;stroke:#FFFFFF;stroke-miterlimit:10;}
	.st226{display:none;fill:#6DC5D8;}
	.st227{opacity:0.45;fill:#60748C;}
	.st228{opacity:0.03;clip-path:url(#SVGID_00000088124705299031476040000009468321774599191992_);}
	.st229{clip-path:url(#SVGID_00000088124705299031476040000009468321774599191992_);}
	
		.st230{clip-path:url(#SVGID_00000088124705299031476040000009468321774599191992_);fill:#FFFFFF;stroke:#60748C;stroke-width:1.5;stroke-miterlimit:10;}
	.st231{opacity:0.4;clip-path:url(#SVGID_00000088124705299031476040000009468321774599191992_);}
	.st232{clip-path:url(#SVGID_00000142145775489801176450000000867865634914729106_);}
	.st233{opacity:0.05;clip-path:url(#SVGID_00000142145775489801176450000000867865634914729106_);}
	.st234{fill:#575756;}
	
		.st235{clip-path:url(#SVGID_00000142145775489801176450000000867865634914729106_);fill:#FFFFFF;stroke:#60748C;stroke-width:1.5;stroke-miterlimit:10;}
	.st236{opacity:0.4;clip-path:url(#SVGID_00000142145775489801176450000000867865634914729106_);}
	.st237{fill:#FFFFFF;stroke:#60748C;stroke-width:1.5;stroke-miterlimit:10;}
	.st238{fill:#A5C848;}
	.st239{opacity:0.2;}
	.st240{clip-path:url(#SVGID_00000024703688096837399110000011819023607816006784_);}
	.st241{clip-path:url(#SVGID_00000145767487063663072920000014984825803588741290_);}
	.st242{fill:none;stroke:#60748C;stroke-width:3;stroke-miterlimit:10;}
	.st243{fill:#EDEDED;stroke:#C0252D;stroke-width:3;stroke-miterlimit:10;}
	.st244{clip-path:url(#SVGID_00000038372510347082857550000012113034942006512574_);}
	.st245{opacity:0.1;fill:#546579;}
	.st246{opacity:0.05;}
	.st247{fill:#606060;}
	.st248{opacity:0.15;}
	.st249{opacity:0.5;}
	.st250{fill:#535353;}
	.st251{opacity:0.7;}
	.st252{filter:url(#Adobe_OpacityMaskFilter);}
	.st253{filter:url(#Adobe_OpacityMaskFilter_00000157300482593460318830000016181830086364658334_);}
	
		.st254{mask:url(#SVGID_00000025429367880971122330000009875463528674896015_);fill:url(#SVGID_00000127748849035228361050000000354810958988561337_);}
	.st255{filter:url(#Adobe_OpacityMaskFilter_00000125569520132085276870000016565946886851331005_);}
	.st256{filter:url(#Adobe_OpacityMaskFilter_00000032613439202317266920000007333131449188494526_);}
	
		.st257{mask:url(#SVGID_00000147907143629582809700000017634501856275400605_);fill:url(#SVGID_00000038379046219721984200000008718800990660115386_);}
	.st258{filter:url(#Adobe_OpacityMaskFilter_00000043435794391012716630000014809809398329941156_);}
	.st259{filter:url(#Adobe_OpacityMaskFilter_00000091700224732999573430000016460295198829362334_);}
	
		.st260{mask:url(#SVGID_00000137822373338952472970000015683687159570315938_);fill:url(#SVGID_00000008861456734167328280000000134273584244764333_);}
	.st261{filter:url(#Adobe_OpacityMaskFilter_00000029019943657447534740000016931024723091956135_);}
	.st262{filter:url(#Adobe_OpacityMaskFilter_00000125598680887715948750000003655344744840268198_);}
	
		.st263{mask:url(#SVGID_00000062899999146115918920000011057730394879680443_);fill:url(#SVGID_00000163751035269690891790000001380656446787605936_);}
	.st264{filter:url(#Adobe_OpacityMaskFilter_00000105409257928460824060000007812664741984688516_);}
	.st265{filter:url(#Adobe_OpacityMaskFilter_00000065789687986235459000000006600507338875177611_);}
	
		.st266{mask:url(#SVGID_00000044890752129319629320000009196136584023810448_);fill:url(#SVGID_00000109750995252557409600000002387875671765358240_);}
	.st267{filter:url(#Adobe_OpacityMaskFilter_00000017513802062562223520000006656921865051400844_);}
	.st268{filter:url(#Adobe_OpacityMaskFilter_00000032628692349239289760000005601249684381983124_);}
	
		.st269{mask:url(#SVGID_00000180324533566058677860000013211563560677920422_);fill:url(#SVGID_00000094589410751233019720000011279323939795042177_);}
	.st270{filter:url(#Adobe_OpacityMaskFilter_00000122685474872168807920000000848821790289832086_);}
	.st271{filter:url(#Adobe_OpacityMaskFilter_00000167365318455307886450000002065179139964180888_);}
	
		.st272{mask:url(#SVGID_00000094599723783415380150000009482969526123931310_);fill:url(#SVGID_00000029746462292836168160000001577828169154410642_);}
	.st273{opacity:0.8;}
	.st274{filter:url(#Adobe_OpacityMaskFilter_00000028326206300596996490000007979489356634235565_);}
	.st275{filter:url(#Adobe_OpacityMaskFilter_00000121280871342220003230000002237449195362531999_);}
	
		.st276{mask:url(#SVGID_00000095340376306002835380000014440892970831691393_);fill:url(#SVGID_00000067942383848936447720000007587275125565506223_);}
	.st277{fill:none;stroke:#1A1A1A;stroke-width:4;stroke-miterlimit:10;}
	.st278{fill:none;stroke:#60748C;stroke-width:4;stroke-miterlimit:10;}
	.st279{fill:#FFFFFF;stroke:#60748C;stroke-width:3;stroke-miterlimit:10;}
	.st280{fill:#FFFFFF;stroke:#6DC5D8;stroke-width:3;stroke-miterlimit:10;}
	.st281{fill:#6DC5D8;stroke:#FFFFFF;stroke-width:3;stroke-miterlimit:10;}
	.st282{opacity:0.25;}
	.st283{fill:#757577;}
	.st284{fill:#AEAEAE;}
	.st285{fill:#C1252D;stroke:#FFFFFF;stroke-width:3;stroke-miterlimit:10;}
	.st286{fill:#1A1A1A;stroke:#FFFFFF;stroke-width:3;stroke-miterlimit:10;}
	.st287{fill:none;stroke:#000000;stroke-width:10;stroke-linecap:round;stroke-miterlimit:10;}
	.st288{fill:none;stroke:#45AD4B;stroke-width:6;stroke-miterlimit:10;}
	.st289{fill:none;stroke:#6DC5D8;stroke-width:6;stroke-miterlimit:10;}
	.st290{fill:none;stroke:#60748C;stroke-width:6;stroke-miterlimit:10;}
	.st291{fill:none;stroke:#000000;stroke-width:6;stroke-miterlimit:10;}
	.st292{fill:#60748C;stroke:#FFFFFF;stroke-width:4;stroke-miterlimit:10;}
	.st293{fill:none;stroke:#000000;stroke-width:7;stroke-linecap:round;stroke-miterlimit:10;}
	.st294{fill-rule:evenodd;clip-rule:evenodd;fill:none;stroke:#000000;stroke-width:4;stroke-miterlimit:10;}
	.st295{fill:none;stroke:#000000;stroke-width:4;stroke-miterlimit:10;}
	.st296{fill:none;stroke:#000000;stroke-width:4;stroke-linecap:round;stroke-miterlimit:10;}
	.st297{fill-rule:evenodd;clip-rule:evenodd;stroke:#FFFFFF;stroke-miterlimit:10;}
	.st298{fill:#949494;}
	.st299{clip-path:url(#SVGID_00000039832139051836382770000000966631064832025494_);}
	.st300{fill:#1A1A1A;stroke:#1A1A1A;stroke-miterlimit:10;}
	.st301{stroke:#000000;stroke-miterlimit:10;}
	.st302{clip-path:url(#SVGID_00000144319375411816063150000005943936654120092861_);}
	.st303{fill:#60748C;stroke:#60748C;stroke-miterlimit:10;}
	.st304{fill:#728499;}
	.st305{opacity:0.4;fill:#BF252D;}
	.st306{opacity:0.75;fill:#BF252D;}
	.st307{fill:none;stroke:#FFFFFF;stroke-width:5;stroke-miterlimit:10;}
	.st308{fill:#C7C7C7;}
	.st309{opacity:0.23;}
	.st310{opacity:0.2;fill:#5B7188;}
	.st311{fill:none;stroke:#FFFFFF;stroke-width:6;stroke-miterlimit:10;}
	.st312{fill:#BF252D;stroke:#FFFFFF;stroke-width:6;stroke-miterlimit:10;}
	.st313{opacity:0.3;fill:#BF252D;}
	.st314{opacity:0.7;fill:#BF252D;}
	.st315{opacity:0.5;fill:#BF252D;}
	.st316{opacity:0.2;fill:#BF252D;}
	.st317{fill:#BF252D;stroke:#FFFFFF;stroke-width:5;stroke-miterlimit:10;}
</style>
<g>
	<path class="st1" d="M1769.39,175.49c-1.22,0.22-2.51,0.38-3.64,0.67c-11.68,2.99-23.32,6.03-35.01,9.01
		c-7.85,2.01-15.77,3.96-23.66,5.94c-3.57,0.89-5.15,2.21-3.67,3.39c4.94,3.94,9.98,7.84,15.12,11.73c0.41,0.31,2.07,0.59,2.77,0.46
		c4.65-0.83,9.43-1.61,13.75-2.73c9.83-2.55,17.8-6.01,23.87-10.33c7.04-5.01,10.67-10.46,11.19-16.74
		C1769.99,176.67,1769.69,176.08,1769.39,175.49z"/>
	<path class="st1" d="M1665.14,165.04c5.73,4.44,11.41,8.9,17.14,13.35c3.6,2.79,7.43,5.53,10.79,8.38
		c2.65,2.25,5.58,2.74,10.51,1.45c5.72-1.5,11.48-2.97,17.23-4.45c4.7-1.21,9.39-2.43,14.1-3.63c10.52-2.69,21.02-5.4,31.59-8.06
		c2.06-0.52,2.68-1.13,2.07-2.12c-0.92-1.5-1.69-3.01-2.52-4.52c-24.96-22.6-73.14-20.78-76.3-20.63c0,0,0-0.01,0-0.01
		c-2.97,0.21-5.99,0.32-8.9,0.63c-11.34,1.25-21.34,3.67-30.12,7.08c-0.48,0.19-0.7,0.8-0.39,1.05
		C1655.21,157.41,1660.21,161.21,1665.14,165.04z"/>
	<path class="st1" d="M1663.63,175.88c2.27-0.59,4.15-1.35,3.38-2.65c-0.32-0.55-1.36-1.01-2.02-1.52
		c-6.56-5.11-13.11-10.22-19.65-15.34c-0.94-0.73-1.9-0.67-2.92-0.08c-1.07,0.62-2.08,1.25-3.09,1.88
		c-5.71,3.55-9.46,7.48-11.34,11.76c-0.26,0.33-0.64,0.66-0.75,1.01c-1.28,4.16-1.44,8.31,0.71,12.43c0.24,0.46,0.81,0.89,1.23,1.33
		c1.08-0.25,2.17-0.51,3.25-0.76C1642.84,181.26,1653.24,178.57,1663.63,175.88z"/>
	<path class="st1" d="M1703.42,201.24c-3.36-2.62-6.71-5.25-10.1-7.86c-5.74-4.42-11.56-8.83-17.23-13.27
		c-2.18-1.71-4.55-2.18-8.4-1.21c-11.41,2.86-22.74,5.78-34.11,8.67c-1.95,0.5-1.94,1.17-1.06,1.98c4.19,3.85,9.64,7.27,16.67,10.23
		c13.58,5.7,29.78,8.44,49.22,8.8c3.11-0.16,7.17-0.37,11.23-0.58c1.72-0.09,1.96-0.43,1.08-1.09
		C1708.23,205.04,1705.85,203.14,1703.42,201.24z"/>
</g>
<g>
	<path class="st1" d="M740.23,175.22c-1.5,0.27-3.11,0.47-4.5,0.83c-14.45,3.7-28.85,7.45-43.31,11.15
		c-9.71,2.48-19.51,4.9-29.27,7.34c-4.41,1.1-6.37,2.73-4.54,4.19c6.1,4.87,12.35,9.7,18.71,14.51c0.5,0.38,2.56,0.73,3.43,0.57
		c5.76-1.03,11.67-1.99,17-3.37c12.16-3.15,22.02-7.43,29.53-12.78c8.71-6.2,13.2-12.94,13.84-20.71
		C740.98,176.68,740.61,175.95,740.23,175.22z"/>
	<path class="st1" d="M611.28,162.28c7.09,5.5,14.12,11.01,21.2,16.51c4.45,3.46,9.19,6.85,13.35,10.37c3.28,2.78,6.9,3.39,13,1.8
		c7.08-1.85,14.2-3.67,21.31-5.5c5.81-1.5,11.62-3,17.44-4.49c13.01-3.33,26-6.68,39.07-9.97c2.54-0.64,3.31-1.4,2.56-2.62
		c-1.14-1.85-2.09-3.72-3.11-5.59c-30.87-27.96-90.47-25.7-94.39-25.52c0,0,0-0.01,0-0.01c-3.67,0.25-7.41,0.39-11.01,0.78
		c-14.03,1.54-26.4,4.53-37.25,8.76c-0.59,0.23-0.87,0.99-0.48,1.3C599,152.85,605.18,157.55,611.28,162.28z"/>
	<path class="st1" d="M609.42,175.7c2.8-0.73,5.13-1.66,4.18-3.28c-0.4-0.68-1.68-1.25-2.5-1.88c-8.11-6.32-16.22-12.64-24.3-18.97
		c-1.16-0.91-2.34-0.83-3.61-0.1c-1.32,0.76-2.57,1.55-3.82,2.33c-7.06,4.39-11.7,9.25-14.03,14.55c-0.32,0.41-0.8,0.82-0.93,1.24
		c-1.58,5.14-1.79,10.28,0.88,15.37c0.3,0.57,1,1.1,1.52,1.65c1.34-0.31,2.68-0.63,4.03-0.94
		C583.7,182.35,596.56,179.03,609.42,175.7z"/>
	<path class="st1" d="M658.63,207.07c-4.16-3.24-8.3-6.49-12.5-9.72c-7.1-5.47-14.3-10.92-21.31-16.41
		c-2.7-2.12-5.63-2.69-10.39-1.5c-14.12,3.53-28.13,7.15-42.19,10.72c-2.42,0.61-2.4,1.45-1.31,2.45c5.19,4.76,11.92,9,20.62,12.65
		c16.8,7.05,36.84,10.44,60.88,10.88c3.84-0.2,8.87-0.45,13.9-0.72c2.13-0.11,2.42-0.53,1.33-1.35
		C664.58,211.77,661.63,209.41,658.63,207.07z"/>
</g>
<g>
	<path class="st1" d="M956.97,175.22c-1.5,0.27-3.11,0.47-4.5,0.83c-14.45,3.7-28.85,7.45-43.31,11.15
		c-9.71,2.48-19.51,4.9-29.27,7.34c-4.41,1.1-6.37,2.73-4.54,4.19c6.1,4.87,12.35,9.7,18.71,14.51c0.5,0.38,2.56,0.73,3.43,0.57
		c5.76-1.03,11.67-1.99,17-3.37c12.16-3.15,22.02-7.43,29.53-12.78c8.71-6.2,13.2-12.94,13.84-20.71
		C957.72,176.68,957.34,175.95,956.97,175.22z"/>
	<path class="st1" d="M828.02,162.28c7.09,5.5,14.12,11.01,21.2,16.51c4.45,3.46,9.19,6.85,13.35,10.37c3.28,2.78,6.9,3.39,13,1.8
		c7.08-1.85,14.2-3.67,21.31-5.5c5.81-1.5,11.62-3,17.44-4.49c13.01-3.33,26-6.68,39.07-9.97c2.54-0.64,3.31-1.4,2.56-2.62
		c-1.14-1.85-2.09-3.72-3.11-5.59c-30.87-27.96-90.47-25.7-94.39-25.52c0,0,0-0.01,0-0.01c-3.67,0.25-7.41,0.39-11.01,0.78
		c-14.03,1.54-26.4,4.53-37.25,8.76c-0.59,0.23-0.87,0.99-0.48,1.3C815.73,152.85,821.92,157.55,828.02,162.28z"/>
	<path class="st1" d="M826.15,175.7c2.8-0.73,5.13-1.66,4.18-3.28c-0.4-0.68-1.68-1.25-2.5-1.88c-8.11-6.32-16.22-12.64-24.3-18.97
		c-1.16-0.91-2.34-0.83-3.61-0.1c-1.32,0.76-2.57,1.55-3.82,2.33c-7.06,4.39-11.7,9.25-14.03,14.55c-0.32,0.41-0.8,0.82-0.93,1.24
		c-1.58,5.14-1.79,10.28,0.88,15.37c0.3,0.57,1,1.1,1.52,1.65c1.34-0.31,2.68-0.63,4.03-0.94
		C800.43,182.35,813.3,179.03,826.15,175.7z"/>
	<path class="st1" d="M875.37,207.07c-4.16-3.24-8.3-6.49-12.5-9.72c-7.1-5.47-14.3-10.92-21.31-16.41
		c-2.7-2.12-5.63-2.69-10.39-1.5c-14.12,3.53-28.13,7.15-42.19,10.72c-2.42,0.61-2.4,1.45-1.31,2.45c5.19,4.76,11.92,9,20.62,12.65
		c16.8,7.05,36.84,10.44,60.88,10.88c3.84-0.2,8.87-0.45,13.9-0.72c2.13-0.11,2.42-0.53,1.33-1.35
		C881.32,211.77,878.37,209.41,875.37,207.07z"/>
</g>
<g>
	<path class="st1" d="M1162.7,175.22c-1.5,0.27-3.11,0.47-4.5,0.83c-14.45,3.7-28.85,7.45-43.31,11.15
		c-9.71,2.48-19.51,4.9-29.27,7.34c-4.41,1.1-6.37,2.73-4.54,4.19c6.1,4.87,12.35,9.7,18.71,14.51c0.5,0.38,2.56,0.73,3.43,0.57
		c5.76-1.03,11.67-1.99,17-3.37c12.16-3.15,22.02-7.43,29.53-12.78c8.71-6.2,13.2-12.94,13.84-20.71
		C1163.45,176.68,1163.07,175.95,1162.7,175.22z"/>
	<path class="st1" d="M1033.74,162.28c7.09,5.5,14.12,11.01,21.2,16.51c4.45,3.46,9.19,6.85,13.35,10.37c3.28,2.78,6.9,3.39,13,1.8
		c7.08-1.85,14.2-3.67,21.31-5.5c5.81-1.5,11.62-3,17.44-4.49c13.01-3.33,26-6.68,39.07-9.97c2.54-0.64,3.31-1.4,2.56-2.62
		c-1.14-1.85-2.09-3.72-3.11-5.59c-30.87-27.96-90.47-25.7-94.39-25.52c0,0,0-0.01,0-0.01c-3.67,0.25-7.41,0.39-11.01,0.78
		c-14.03,1.54-26.4,4.53-37.25,8.76c-0.59,0.23-0.87,0.99-0.48,1.3C1021.46,152.85,1027.64,157.55,1033.74,162.28z"/>
	<path class="st1" d="M1031.88,175.7c2.8-0.73,5.13-1.66,4.18-3.28c-0.4-0.68-1.68-1.25-2.5-1.88c-8.11-6.32-16.22-12.64-24.3-18.97
		c-1.16-0.91-2.34-0.83-3.61-0.1c-1.32,0.76-2.57,1.55-3.82,2.33c-7.06,4.39-11.7,9.25-14.03,14.55c-0.32,0.41-0.8,0.82-0.93,1.24
		c-1.58,5.14-1.79,10.28,0.88,15.37c0.3,0.57,1,1.1,1.52,1.65c1.34-0.31,2.68-0.63,4.03-0.94
		C1006.16,182.35,1019.03,179.03,1031.88,175.7z"/>
	<path class="st1" d="M1081.09,207.07c-4.16-3.24-8.3-6.49-12.5-9.72c-7.1-5.47-14.3-10.92-21.31-16.41
		c-2.7-2.12-5.63-2.69-10.39-1.5c-14.12,3.53-28.13,7.15-42.19,10.72c-2.42,0.61-2.4,1.45-1.31,2.45c5.19,4.76,11.92,9,20.62,12.65
		c16.8,7.05,36.84,10.44,60.88,10.88c3.84-0.2,8.87-0.45,13.9-0.72c2.13-0.11,2.42-0.53,1.33-1.35
		C1087.04,211.77,1084.1,209.41,1081.09,207.07z"/>
</g>
<g>
	<path class="st1" d="M122.89,165.33c-0.33,0.06-0.69,0.1-0.99,0.18c-3.19,0.82-6.37,1.65-9.56,2.46c-2.14,0.55-4.31,1.08-6.46,1.62
		c-0.97,0.24-1.41,0.6-1,0.93c1.35,1.07,2.73,2.14,4.13,3.2c0.11,0.08,0.57,0.16,0.76,0.13c1.27-0.23,2.58-0.44,3.75-0.74
		c2.69-0.7,4.86-1.64,6.52-2.82c1.92-1.37,2.91-2.86,3.05-4.57C123.06,165.65,122.97,165.49,122.89,165.33z"/>
	<path class="st1" d="M94.42,162.47c1.57,1.21,3.12,2.43,4.68,3.65c0.98,0.76,2.03,1.51,2.95,2.29c0.72,0.61,1.52,0.75,2.87,0.4
		c1.56-0.41,3.14-0.81,4.7-1.21c1.28-0.33,2.57-0.66,3.85-0.99c2.87-0.74,5.74-1.48,8.63-2.2c0.56-0.14,0.73-0.31,0.56-0.58
		c-0.25-0.41-0.46-0.82-0.69-1.23c-6.82-6.17-19.97-5.67-20.84-5.63c0,0,0,0,0,0c-0.81,0.06-1.64,0.09-2.43,0.17
		c-3.1,0.34-5.83,1-8.22,1.93c-0.13,0.05-0.19,0.22-0.11,0.29C91.71,160.39,93.07,161.43,94.42,162.47z"/>
	<path class="st1" d="M94.01,165.43c0.62-0.16,1.13-0.37,0.92-0.72c-0.09-0.15-0.37-0.28-0.55-0.42c-1.79-1.4-3.58-2.79-5.37-4.19
		c-0.26-0.2-0.52-0.18-0.8-0.02c-0.29,0.17-0.57,0.34-0.84,0.51c-1.56,0.97-2.58,2.04-3.1,3.21c-0.07,0.09-0.18,0.18-0.2,0.27
		c-0.35,1.14-0.39,2.27,0.19,3.39c0.07,0.13,0.22,0.24,0.34,0.36c0.3-0.07,0.59-0.14,0.89-0.21
		C88.33,166.9,91.17,166.17,94.01,165.43z"/>
	<path class="st1" d="M104.87,172.36c-0.92-0.72-1.83-1.43-2.76-2.15c-1.57-1.21-3.16-2.41-4.71-3.62c-0.6-0.47-1.24-0.59-2.29-0.33
		c-3.12,0.78-6.21,1.58-9.32,2.37c-0.53,0.14-0.53,0.32-0.29,0.54c1.15,1.05,2.63,1.99,4.55,2.79c3.71,1.56,8.13,2.31,13.44,2.4
		c0.85-0.04,1.96-0.1,3.07-0.16c0.47-0.02,0.53-0.12,0.29-0.3C106.19,173.4,105.54,172.88,104.87,172.36z"/>
</g>
<g>
	<path class="st1" d="M1854.69,165.33c-0.33,0.06-0.69,0.1-0.99,0.18c-3.19,0.82-6.37,1.65-9.56,2.46
		c-2.14,0.55-4.31,1.08-6.46,1.62c-0.97,0.24-1.41,0.6-1,0.93c1.35,1.07,2.73,2.14,4.13,3.2c0.11,0.08,0.57,0.16,0.76,0.13
		c1.27-0.23,2.58-0.44,3.75-0.74c2.69-0.7,4.86-1.64,6.52-2.82c1.92-1.37,2.91-2.86,3.05-4.57
		C1854.86,165.65,1854.77,165.49,1854.69,165.33z"/>
	<path class="st1" d="M1826.22,162.47c1.57,1.21,3.12,2.43,4.68,3.65c0.98,0.76,2.03,1.51,2.95,2.29c0.72,0.61,1.52,0.75,2.87,0.4
		c1.56-0.41,3.14-0.81,4.7-1.21c1.28-0.33,2.57-0.66,3.85-0.99c2.87-0.74,5.74-1.48,8.63-2.2c0.56-0.14,0.73-0.31,0.56-0.58
		c-0.25-0.41-0.46-0.82-0.69-1.23c-6.82-6.17-19.97-5.67-20.84-5.63c0,0,0,0,0,0c-0.81,0.06-1.64,0.09-2.43,0.17
		c-3.1,0.34-5.83,1-8.22,1.93c-0.13,0.05-0.19,0.22-0.11,0.29C1823.51,160.39,1824.87,161.43,1826.22,162.47z"/>
	<path class="st1" d="M1825.81,165.43c0.62-0.16,1.13-0.37,0.92-0.72c-0.09-0.15-0.37-0.28-0.55-0.42c-1.79-1.4-3.58-2.79-5.37-4.19
		c-0.26-0.2-0.52-0.18-0.8-0.02c-0.29,0.17-0.57,0.34-0.84,0.51c-1.56,0.97-2.58,2.04-3.1,3.21c-0.07,0.09-0.18,0.18-0.2,0.27
		c-0.35,1.14-0.39,2.27,0.19,3.39c0.07,0.13,0.22,0.24,0.34,0.36c0.3-0.07,0.59-0.14,0.89-0.21
		C1820.13,166.9,1822.97,166.17,1825.81,165.43z"/>
	<path class="st1" d="M1836.67,172.36c-0.92-0.72-1.83-1.43-2.76-2.15c-1.57-1.21-3.16-2.41-4.71-3.62
		c-0.6-0.47-1.24-0.59-2.29-0.33c-3.12,0.78-6.21,1.58-9.32,2.37c-0.53,0.14-0.53,0.32-0.29,0.54c1.15,1.05,2.63,1.99,4.55,2.79
		c3.71,1.56,8.13,2.31,13.44,2.4c0.85-0.04,1.96-0.1,3.07-0.16c0.47-0.02,0.53-0.12,0.29-0.3
		C1837.99,173.4,1837.34,172.88,1836.67,172.36z"/>
</g>
<g>
	<path class="st1" d="M308.81,168.8c-1.04,0.19-2.14,0.32-3.1,0.57c-9.96,2.55-19.88,5.14-29.84,7.68
		c-6.69,1.71-13.44,3.38-20.17,5.06c-3.04,0.76-4.39,1.88-3.13,2.89c4.21,3.36,8.51,6.69,12.89,10c0.35,0.26,1.77,0.5,2.36,0.4
		c3.97-0.71,8.04-1.37,11.72-2.32c8.38-2.17,15.17-5.12,20.35-8.81c6-4.27,9.09-8.92,9.54-14.27
		C309.33,169.8,309.07,169.3,308.81,168.8z"/>
	<path class="st1" d="M219.95,159.88c4.89,3.79,9.73,7.59,14.61,11.38c3.07,2.38,6.34,4.72,9.2,7.15c2.26,1.92,4.75,2.34,8.96,1.24
		c4.88-1.28,9.79-2.53,14.68-3.79c4.01-1.03,8.01-2.07,12.02-3.1c8.97-2.3,17.92-4.61,26.92-6.87c1.75-0.44,2.28-0.96,1.76-1.81
		c-0.78-1.27-1.44-2.57-2.15-3.85c-21.27-19.26-62.34-17.71-65.04-17.59c0,0,0-0.01,0-0.01c-2.53,0.18-5.11,0.27-7.59,0.54
		c-9.67,1.06-18.19,3.12-25.67,6.04c-0.41,0.16-0.6,0.68-0.33,0.9C211.49,153.38,215.75,156.62,219.95,159.88z"/>
	<path class="st1" d="M218.67,169.13c1.93-0.5,3.53-1.15,2.88-2.26c-0.27-0.47-1.16-0.86-1.72-1.3
		c-5.59-4.36-11.18-8.71-16.75-13.07c-0.8-0.63-1.62-0.57-2.49-0.07c-0.91,0.53-1.77,1.07-2.64,1.61
		c-4.87,3.03-8.06,6.38-9.67,10.03c-0.22,0.29-0.55,0.56-0.64,0.86c-1.09,3.54-1.23,7.08,0.61,10.59c0.21,0.39,0.69,0.76,1.05,1.14
		c0.92-0.22,1.85-0.43,2.77-0.65C200.94,173.71,209.81,171.42,218.67,169.13z"/>
	<path class="st1" d="M252.58,190.75c-2.87-2.23-5.72-4.47-8.61-6.7c-4.89-3.77-9.85-7.52-14.69-11.31
		c-1.86-1.46-3.88-1.85-7.16-1.03c-9.73,2.44-19.39,4.92-29.08,7.39c-1.66,0.42-1.65,1-0.9,1.69c3.58,3.28,8.21,6.2,14.21,8.72
		c11.57,4.86,25.38,7.2,41.95,7.5c2.65-0.14,6.11-0.31,9.58-0.49c1.47-0.08,1.67-0.36,0.92-0.93
		C256.68,193.98,254.65,192.36,252.58,190.75z"/>
</g>
<g>
	<path class="st1" d="M530.76,175.22c-1.5,0.27-3.11,0.47-4.5,0.83c-14.45,3.7-28.85,7.45-43.31,11.15
		c-9.71,2.48-19.51,4.9-29.27,7.34c-4.41,1.1-6.37,2.73-4.54,4.19c6.1,4.87,12.35,9.7,18.71,14.51c0.5,0.38,2.56,0.73,3.43,0.57
		c5.76-1.03,11.67-1.99,17-3.37c12.16-3.15,22.02-7.43,29.53-12.78c8.71-6.2,13.2-12.94,13.84-20.71
		C531.51,176.68,531.13,175.95,530.76,175.22z"/>
	<path class="st1" d="M401.81,162.28c7.09,5.5,14.12,11.01,21.2,16.51c4.45,3.46,9.19,6.85,13.35,10.37c3.28,2.78,6.9,3.39,13,1.8
		c7.08-1.85,14.2-3.67,21.31-5.5c5.81-1.5,11.62-3,17.44-4.49c13.01-3.33,26-6.68,39.07-9.97c2.54-0.64,3.31-1.4,2.56-2.62
		c-1.14-1.85-2.09-3.72-3.11-5.59c-30.87-27.96-90.47-25.7-94.39-25.52c0,0,0-0.01,0-0.01c-3.67,0.25-7.41,0.39-11.01,0.78
		c-14.03,1.54-26.4,4.53-37.25,8.76c-0.59,0.23-0.87,0.99-0.48,1.3C389.52,152.85,395.71,157.55,401.81,162.28z"/>
	<path class="st1" d="M399.94,175.7c2.8-0.73,5.13-1.66,4.18-3.28c-0.4-0.68-1.68-1.25-2.5-1.88c-8.11-6.32-16.22-12.64-24.3-18.97
		c-1.16-0.91-2.34-0.83-3.61-0.1c-1.32,0.76-2.57,1.55-3.82,2.33c-7.06,4.39-11.7,9.25-14.03,14.55c-0.32,0.41-0.8,0.82-0.93,1.24
		c-1.58,5.14-1.79,10.28,0.88,15.37c0.3,0.57,1,1.1,1.52,1.65c1.34-0.31,2.68-0.63,4.03-0.94
		C374.22,182.35,387.09,179.03,399.94,175.7z"/>
	<path class="st1" d="M449.16,207.07c-4.16-3.24-8.3-6.49-12.5-9.72c-7.1-5.47-14.3-10.92-21.31-16.41
		c-2.7-2.12-5.63-2.69-10.39-1.5c-14.12,3.53-28.13,7.15-42.19,10.72c-2.42,0.61-2.4,1.45-1.31,2.45c5.19,4.76,11.92,9,20.62,12.65
		c16.8,7.05,36.84,10.44,60.88,10.88c3.84-0.2,8.87-0.45,13.9-0.72c2.13-0.11,2.42-0.53,1.33-1.35
		C455.11,211.77,452.16,209.41,449.16,207.07z"/>
</g>
<g>
	<ellipse class="st42" cx="253.34" cy="165.41" rx="14.23" ry="4.63"/>
</g>
<g>
	<ellipse class="st42" cx="1703.36" cy="162.58" rx="14.23" ry="4.63"/>
</g>
<g>
	<ellipse class="st42" cx="104.6" cy="162.58" rx="5.18" ry="1.69"/>
</g>
<g>
	<path class="st25" d="M279.71,122.9c0-14.43-11.74-26.17-26.17-26.17s-26.17,11.74-26.17,26.17c0,7.35,3.05,13.99,7.95,18.74
		l-0.03,0.03l18.18,17.75l18.39-17.85l-0.01-0.01C276.7,136.81,279.71,130.2,279.71,122.9z"/>
</g>
<ellipse transform="matrix(0.9999 -0.011 0.011 0.9999 -1.7974 4.998)" class="st78" cx="452.04" cy="165.38" rx="18.04" ry="7.77"/>
<ellipse transform="matrix(0.9999 -0.011 0.011 0.9999 -1.7845 7.3325)" class="st78" cx="663.61" cy="165.38" rx="12.63" ry="5.44"/>
<path class="st306" d="M664.25,152.92c-16.97,0-30.31,5.6-30.67,12.91c-0.35,7.31,12.41,13.89,29.38,13.89
	c16.97,0,30.61-6.21,30.96-13.52C694.29,158.9,681.22,152.92,664.25,152.92z M663.12,175.17c-11.83,0-22.6-3.74-22.33-9.34
	c0.27-5.6,10.32-9.81,23.31-9.81c13,0,22.9,4.58,22.63,10.18C686.46,171.81,674.51,175.17,663.12,175.17z"/>
<path class="st78" d="M690.01,128.47c0-14.43-11.74-26.17-26.17-26.17s-26.17,11.74-26.17,26.17c0,7.35,3.05,13.99,7.95,18.74
	l-0.03,0.03l18.18,17.75l18.39-17.85l-0.01-0.01C686.99,142.38,690.01,135.77,690.01,128.47z"/>
<g>
	<g>
		<path class="st37" d="M660.8,144.93c-0.63-0.7-0.94-1.58-0.94-2.66s0.31-1.96,0.94-2.64c0.63-0.68,1.42-1.02,2.4-1.02
			c0.97,0,1.77,0.34,2.4,1.02c0.63,0.68,0.94,1.56,0.94,2.64c0,1.05-0.31,1.93-0.94,2.64c-0.63,0.71-1.42,1.06-2.4,1.06
			C662.22,145.97,661.43,145.62,660.8,144.93z M661.07,135.47c-0.09-0.1-0.13-0.22-0.13-0.36l-0.65-18.4c0-0.34,0.15-0.51,0.46-0.51
			h5.44c0.31,0,0.46,0.17,0.46,0.51l-0.65,18.4c0,0.14-0.04,0.26-0.13,0.36c-0.09,0.1-0.2,0.15-0.33,0.15h-4.14
			C661.27,135.62,661.16,135.57,661.07,135.47z"/>
	</g>
</g>
<ellipse transform="matrix(0.9999 -0.011 0.011 0.9999 -1.7712 9.7355)" class="st78" cx="881.38" cy="165.38" rx="12.63" ry="5.44"/>
<path class="st305" d="M882.37,146.53c-26.17,0-47.23,9.17-47.78,20.45c-0.55,11.28,14.82,22.87,45.34,22.87
	c30.05,0,47.98-11.6,48.53-22.87C929.01,155.71,908.55,146.53,882.37,146.53z M880.91,184.66c-22.2,0-39.57-8.11-39.11-17.68
	c0.46-9.57,18.22-17.35,40.42-17.35c22.2,0,39.5,7.78,39.04,17.35C920.8,176.55,903.11,184.66,880.91,184.66z"/>
<path class="st306" d="M882.02,152.92c-16.97,0-30.31,5.6-30.67,12.91c-0.35,7.31,12.41,13.89,29.38,13.89s30.61-6.21,30.96-13.52
	C912.06,158.9,898.99,152.92,882.02,152.92z M880.89,175.17c-11.83,0-22.6-3.74-22.33-9.34c0.27-5.6,10.32-9.81,23.31-9.81
	s22.9,4.58,22.63,10.18C904.23,171.81,892.28,175.17,880.89,175.17z"/>
<g>
	<path class="st78" d="M907.78,128.47c0-14.43-11.74-26.17-26.17-26.17s-26.17,11.74-26.17,26.17c0,7.35,3.05,13.99,7.95,18.74
		l-0.03,0.03l18.18,17.75l18.39-17.85l-0.01-0.01C904.76,142.38,907.78,135.77,907.78,128.47z"/>
	<g>
		<g>
			<path class="st37" d="M878.57,144.93c-0.63-0.7-0.94-1.58-0.94-2.66s0.31-1.96,0.94-2.64c0.63-0.68,1.42-1.02,2.4-1.02
				c0.97,0,1.77,0.34,2.4,1.02c0.63,0.68,0.94,1.56,0.94,2.64c0,1.05-0.31,1.93-0.94,2.64c-0.63,0.71-1.42,1.06-2.4,1.06
				C880,145.97,879.2,145.62,878.57,144.93z M878.84,135.47c-0.09-0.1-0.13-0.22-0.13-0.36l-0.65-18.4c0-0.34,0.15-0.51,0.46-0.51
				h5.44c0.31,0,0.46,0.17,0.46,0.51l-0.65,18.4c0,0.14-0.04,0.26-0.13,0.36c-0.09,0.1-0.2,0.15-0.33,0.15h-4.14
				C879.04,135.62,878.93,135.57,878.84,135.47z"/>
		</g>
	</g>
</g>
<g>
	<path class="st1" d="M1372.11,175.22c-1.5,0.27-3.11,0.47-4.5,0.83c-14.45,3.7-28.85,7.45-43.31,11.15
		c-9.71,2.48-19.51,4.9-29.27,7.34c-4.41,1.1-6.37,2.73-4.54,4.19c6.1,4.87,12.35,9.7,18.71,14.51c0.5,0.38,2.56,0.73,3.43,0.57
		c5.76-1.03,11.67-1.99,17-3.37c12.16-3.15,22.02-7.43,29.53-12.78c8.71-6.2,13.2-12.94,13.84-20.71
		C1372.86,176.68,1372.48,175.95,1372.11,175.22z"/>
	<path class="st1" d="M1243.16,162.28c7.09,5.5,14.12,11.01,21.2,16.51c4.45,3.46,9.19,6.85,13.35,10.37c3.28,2.78,6.9,3.39,13,1.8
		c7.08-1.85,14.2-3.67,21.31-5.5c5.81-1.5,11.62-3,17.44-4.49c13.01-3.33,26-6.68,39.07-9.97c2.54-0.64,3.31-1.4,2.56-2.62
		c-1.14-1.85-2.09-3.72-3.11-5.59c-30.87-27.96-90.47-25.7-94.39-25.52c0,0,0-0.01,0-0.01c-3.67,0.25-7.41,0.39-11.01,0.78
		c-14.03,1.54-26.4,4.53-37.25,8.76c-0.59,0.23-0.87,0.99-0.48,1.3C1230.87,152.85,1237.06,157.55,1243.16,162.28z"/>
	<path class="st1" d="M1241.29,175.7c2.8-0.73,5.13-1.66,4.18-3.28c-0.4-0.68-1.68-1.25-2.5-1.88c-8.11-6.32-16.22-12.64-24.3-18.97
		c-1.16-0.91-2.34-0.83-3.61-0.1c-1.32,0.76-2.57,1.55-3.82,2.33c-7.06,4.39-11.7,9.25-14.03,14.55c-0.32,0.41-0.8,0.82-0.93,1.24
		c-1.58,5.14-1.79,10.28,0.88,15.37c0.3,0.57,1,1.1,1.52,1.65c1.34-0.31,2.68-0.63,4.03-0.94
		C1215.57,182.35,1228.44,179.03,1241.29,175.7z"/>
	<path class="st1" d="M1290.51,207.07c-4.16-3.24-8.3-6.49-12.5-9.72c-7.1-5.47-14.3-10.92-21.31-16.41
		c-2.7-2.12-5.63-2.69-10.39-1.5c-14.12,3.53-28.13,7.15-42.19,10.72c-2.42,0.61-2.4,1.45-1.31,2.45c5.19,4.76,11.92,9,20.62,12.65
		c16.8,7.05,36.84,10.44,60.88,10.88c3.84-0.2,8.87-0.45,13.9-0.72c2.13-0.11,2.42-0.53,1.33-1.35
		C1296.46,211.77,1293.51,209.41,1290.51,207.07z"/>
</g>
<ellipse transform="matrix(0.9999 -0.011 0.011 0.9999 -1.7459 14.3162)" class="st78" cx="1296.52" cy="165.38" rx="12.63" ry="5.44"/>
<path class="st305" d="M1297.51,146.53c-26.17,0-47.23,9.17-47.78,20.45c-0.55,11.28,14.82,22.87,45.34,22.87
	c30.05,0,47.98-11.6,48.53-22.87C1344.15,155.71,1323.69,146.53,1297.51,146.53z M1296.05,184.66c-22.2,0-39.57-8.11-39.11-17.68
	c0.46-9.57,18.22-17.35,40.42-17.35c22.2,0,39.5,7.78,39.04,17.35C1335.94,176.55,1318.25,184.66,1296.05,184.66z"/>
<path class="st306" d="M1297.16,152.92c-16.97,0-30.31,5.6-30.67,12.91s12.41,13.89,29.38,13.89c16.97,0,30.61-6.21,30.96-13.52
	C1327.2,158.9,1314.13,152.92,1297.16,152.92z M1296.03,175.17c-11.83,0-22.6-3.74-22.33-9.34c0.27-5.6,10.32-9.81,23.31-9.81
	c13,0,22.9,4.58,22.63,10.18C1319.37,171.81,1307.42,175.17,1296.03,175.17z"/>
<g>
	<path class="st78" d="M1322.92,128.47c0-14.43-11.74-26.17-26.17-26.17c-14.43,0-26.17,11.74-26.17,26.17
		c0,7.35,3.05,13.99,7.95,18.74l-0.03,0.03l18.18,17.75l18.39-17.85l-0.01-0.01C1319.9,142.38,1322.92,135.77,1322.92,128.47z"/>
	<g>
		<g>
			<path class="st37" d="M1293.71,144.93c-0.63-0.7-0.94-1.58-0.94-2.66s0.31-1.96,0.94-2.64c0.63-0.68,1.42-1.02,2.4-1.02
				c0.97,0,1.77,0.34,2.4,1.02c0.63,0.68,0.94,1.56,0.94,2.64c0,1.05-0.31,1.93-0.94,2.64c-0.63,0.71-1.42,1.06-2.4,1.06
				C1295.13,145.97,1294.34,145.62,1293.71,144.93z M1293.98,135.47c-0.09-0.1-0.13-0.22-0.13-0.36l-0.65-18.4
				c0-0.34,0.15-0.51,0.46-0.51h5.44c0.31,0,0.46,0.17,0.46,0.51l-0.65,18.4c0,0.14-0.04,0.26-0.13,0.36
				c-0.09,0.1-0.2,0.15-0.33,0.15h-4.14C1294.18,135.62,1294.07,135.57,1293.98,135.47z"/>
		</g>
	</g>
</g>
<path class="st305" d="M1703.4,146.53c-26.17,0-47.23,9.17-47.78,20.45c-0.55,11.28,14.82,22.87,45.34,22.87
	c30.05,0,47.98-11.6,48.53-22.87C1750.03,155.71,1729.57,146.53,1703.4,146.53z M1701.93,184.66c-22.2,0-39.57-8.11-39.11-17.68
	c0.46-9.57,18.22-17.35,40.42-17.35c22.2,0,39.5,7.78,39.04,17.35C1741.82,176.55,1724.13,184.66,1701.93,184.66z"/>
<g>
	<path class="st78" d="M1728.8,113.42c0-16.04-11.74-29.09-26.17-29.09c-14.43,0-26.17,13.05-26.17,29.09
		c0,8.17,3.05,15.55,7.95,20.83l-0.03,0.03l18.18,19.73l18.39-19.84l-0.01-0.01C1725.79,128.88,1728.8,121.54,1728.8,113.42z"/>
	<g>
		<g>
			<path class="st37" d="M1699.59,131.71c-0.63-0.77-0.94-1.76-0.94-2.96c0-1.2,0.31-2.18,0.94-2.94c0.63-0.76,1.42-1.14,2.4-1.14
				c0.97,0,1.77,0.38,2.4,1.14c0.63,0.76,0.94,1.74,0.94,2.94c0,1.17-0.31,2.15-0.94,2.94c-0.63,0.79-1.42,1.18-2.4,1.18
				C1701.02,132.87,1700.22,132.48,1699.59,131.71z M1699.86,121.2c-0.09-0.11-0.13-0.24-0.13-0.4l-0.65-20.45
				c0-0.38,0.15-0.57,0.46-0.57h5.44c0.31,0,0.46,0.19,0.46,0.57l-0.65,20.45c0,0.16-0.04,0.29-0.13,0.4
				c-0.09,0.11-0.2,0.17-0.33,0.17h-4.14C1700.06,121.37,1699.95,121.31,1699.86,121.2z"/>
		</g>
	</g>
</g>
<ellipse transform="matrix(0.9999 -0.011 0.011 0.9999 -1.7588 11.9816)" class="st78" cx="1084.94" cy="165.38" rx="12.63" ry="5.44"/>
<path class="st305" d="M1085.93,146.53c-26.17,0-47.23,9.17-47.78,20.45c-0.55,11.28,14.82,22.87,45.34,22.87
	c30.05,0,47.98-11.6,48.53-22.87C1132.57,155.71,1112.11,146.53,1085.93,146.53z M1084.47,184.66c-22.2,0-39.57-8.11-39.11-17.68
	c0.46-9.57,18.22-17.35,40.42-17.35c22.2,0,39.5,7.78,39.04,17.35C1124.35,176.55,1106.67,184.66,1084.47,184.66z"/>
<path class="st306" d="M1085.58,152.92c-16.97,0-30.31,5.6-30.67,12.91s12.41,13.89,29.38,13.89c16.97,0,30.61-6.21,30.96-13.52
	S1102.55,152.92,1085.58,152.92z M1084.45,175.17c-11.83,0-22.6-3.74-22.33-9.34c0.27-5.6,10.32-9.81,23.31-9.81
	c13,0,22.9,4.58,22.63,10.18C1107.79,171.81,1095.83,175.17,1084.45,175.17z"/>
<g>
	<path class="st78" d="M1111.33,134.6c0-12.01-11.74-21.78-26.17-21.78c-14.43,0-26.17,9.77-26.17,21.78
		c0,6.11,3.05,11.64,7.95,15.6l-0.03,0.02l18.18,14.77l18.39-14.86l-0.01-0.01C1108.32,146.17,1111.33,140.68,1111.33,134.6z"/>
	<g>
		<g>
			<path class="st37" d="M1082.13,148.29c-0.63-0.58-0.94-1.32-0.94-2.22c0-0.9,0.31-1.63,0.94-2.2c0.63-0.57,1.42-0.85,2.4-0.85
				c0.97,0,1.77,0.28,2.4,0.85c0.63,0.57,0.94,1.3,0.94,2.2c0,0.87-0.31,1.61-0.94,2.2c-0.63,0.59-1.42,0.89-2.4,0.89
				C1083.55,149.16,1082.75,148.87,1082.13,148.29z M1082.4,140.43c-0.09-0.08-0.13-0.18-0.13-0.3l-0.65-15.31
				c0-0.28,0.15-0.43,0.46-0.43h5.44c0.31,0,0.46,0.14,0.46,0.43l-0.65,15.31c0,0.12-0.04,0.22-0.13,0.3
				c-0.09,0.08-0.2,0.12-0.33,0.12h-4.14C1082.59,140.55,1082.49,140.51,1082.4,140.43z"/>
		</g>
	</g>
</g>
<g>
	<path class="st1" d="M1580.13,175.22c-1.5,0.27-3.11,0.47-4.5,0.83c-14.45,3.7-28.85,7.45-43.31,11.15
		c-9.71,2.48-19.51,4.9-29.27,7.34c-4.41,1.1-6.37,2.73-4.54,4.19c6.1,4.87,12.35,9.7,18.71,14.51c0.5,0.38,2.56,0.73,3.43,0.57
		c5.76-1.03,11.67-1.99,17-3.37c12.16-3.15,22.02-7.43,29.53-12.78c8.71-6.2,13.2-12.94,13.84-20.71
		C1580.88,176.68,1580.51,175.95,1580.13,175.22z"/>
	<path class="st1" d="M1451.18,162.28c7.09,5.5,14.12,11.01,21.2,16.51c4.45,3.46,9.19,6.85,13.35,10.37c3.28,2.78,6.9,3.39,13,1.8
		c7.08-1.85,14.2-3.67,21.31-5.5c5.81-1.5,11.62-3,17.44-4.49c13.01-3.33,26-6.68,39.07-9.97c2.54-0.64,3.31-1.4,2.56-2.62
		c-1.14-1.85-2.09-3.72-3.11-5.59c-30.87-27.96-90.47-25.7-94.39-25.52c0,0,0-0.01,0-0.01c-3.67,0.25-7.41,0.39-11.01,0.78
		c-14.03,1.54-26.4,4.53-37.25,8.76c-0.59,0.23-0.87,0.99-0.48,1.3C1438.9,152.85,1445.08,157.55,1451.18,162.28z"/>
	<path class="st1" d="M1449.32,175.7c2.8-0.73,5.13-1.66,4.18-3.28c-0.4-0.68-1.68-1.25-2.5-1.88c-8.11-6.32-16.22-12.64-24.3-18.97
		c-1.16-0.91-2.34-0.83-3.61-0.1c-1.32,0.76-2.57,1.55-3.82,2.33c-7.06,4.39-11.7,9.25-14.03,14.55c-0.32,0.41-0.8,0.82-0.93,1.24
		c-1.58,5.14-1.79,10.28,0.88,15.37c0.3,0.57,1,1.1,1.52,1.65c1.34-0.31,2.68-0.63,4.03-0.94
		C1423.6,182.35,1436.46,179.03,1449.32,175.7z"/>
	<path class="st1" d="M1498.53,207.07c-4.16-3.24-8.3-6.49-12.5-9.72c-7.1-5.47-14.3-10.92-21.31-16.41
		c-2.7-2.12-5.63-2.69-10.39-1.5c-14.12,3.53-28.13,7.15-42.19,10.72c-2.42,0.61-2.4,1.45-1.31,2.45c5.19,4.76,11.92,9,20.62,12.65
		c16.8,7.05,36.84,10.44,60.88,10.88c3.84-0.2,8.87-0.45,13.9-0.72c2.13-0.11,2.42-0.53,1.33-1.35
		C1504.48,211.77,1501.53,209.41,1498.53,207.07z"/>
</g>
<ellipse transform="matrix(0.9999 -0.011 0.011 0.9999 -1.7334 16.5877)" class="st78" cx="1502.38" cy="165.38" rx="12.63" ry="5.44"/>
<path class="st305" d="M1503.37,146.53c-26.17,0-47.23,9.17-47.78,20.45c-0.55,11.28,14.82,22.87,45.34,22.87
	c30.05,0,47.98-11.6,48.53-22.87C1550.01,155.71,1529.54,146.53,1503.37,146.53z M1501.9,184.66c-22.2,0-39.57-8.11-39.11-17.68
	c0.46-9.57,18.22-17.35,40.42-17.35c22.2,0,39.5,7.78,39.04,17.35C1541.79,176.55,1524.11,184.66,1501.9,184.66z"/>
<path class="st306" d="M1503.02,152.92c-16.97,0-30.31,5.6-30.67,12.91c-0.35,7.31,12.41,13.89,29.38,13.89s30.61-6.21,30.96-13.52
	S1519.99,152.92,1503.02,152.92z M1501.89,175.17c-11.83,0-22.6-3.74-22.33-9.34c0.27-5.6,10.32-9.81,23.31-9.81
	c13,0,22.9,4.58,22.63,10.18C1525.22,171.81,1513.27,175.17,1501.89,175.17z"/>
<g>
	<path class="st78" d="M1528.77,134.6c0-12.01-11.74-21.78-26.17-21.78c-14.43,0-26.17,9.77-26.17,21.78
		c0,6.11,3.05,11.64,7.95,15.6l-0.03,0.02l18.18,14.77l18.39-14.86l-0.01-0.01C1525.76,146.17,1528.77,140.68,1528.77,134.6z"/>
	<g>
		<g>
			<path class="st37" d="M1499.57,148.29c-0.63-0.58-0.94-1.32-0.94-2.22c0-0.9,0.31-1.63,0.94-2.2c0.63-0.57,1.42-0.85,2.4-0.85
				c0.97,0,1.77,0.28,2.4,0.85c0.63,0.57,0.94,1.3,0.94,2.2c0,0.87-0.31,1.61-0.94,2.2c-0.63,0.59-1.42,0.89-2.4,0.89
				C1500.99,149.16,1500.19,148.87,1499.57,148.29z M1499.83,140.43c-0.09-0.08-0.13-0.18-0.13-0.3l-0.65-15.31
				c0-0.28,0.15-0.43,0.46-0.43h5.44c0.31,0,0.46,0.14,0.46,0.43l-0.65,15.31c0,0.12-0.04,0.22-0.13,0.3
				c-0.09,0.08-0.2,0.12-0.33,0.12h-4.14C1500.03,140.55,1499.92,140.51,1499.83,140.43z"/>
		</g>
	</g>
</g>
<g>
	<path class="st25" d="M130.42,91.55c0-18.48-11.74-33.51-26.17-33.51S78.09,73.07,78.09,91.55c0,9.41,3.05,17.91,7.95,24
		l-0.03,0.03l18.18,22.73l18.39-22.86l-0.01-0.01C127.41,109.36,130.42,100.9,130.42,91.55z"/>
</g>
<g>
	<ellipse class="st42" cx="1837.28" cy="162.58" rx="5.18" ry="1.69"/>
</g>
<g>
	<path class="st78" d="M1863.11,91.55c0-18.48-11.74-33.51-26.17-33.51c-14.43,0-26.17,15.03-26.17,33.51c0,9.41,3.05,17.91,7.95,24
		l-0.03,0.03l18.18,22.73l18.39-22.86l-0.01-0.01C1860.09,109.36,1863.11,100.9,1863.11,91.55z"/>
</g>
<ellipse transform="matrix(0.9999 -0.011 0.011 0.9999 -1.7925 4.998)" class="st3" cx="452.04" cy="164.95" rx="4.4" ry="1.89"/>
<g>
	<path class="st25" d="M478.43,128.47c0-14.43-11.74-26.17-26.17-26.17s-26.17,11.74-26.17,26.17c0,7.35,3.05,13.99,7.95,18.74
		l-0.03,0.03l18.18,17.75l18.39-17.85l-0.01-0.01C475.42,142.38,478.43,135.77,478.43,128.47z"/>
</g>
<g>
	<path class="st78" d="M426.1,128.47c0,7.35,3.05,13.99,7.95,18.74l-0.03,0.03l18.18,17.75l18.39-17.85l-0.01-0.01
		c4.84-4.75,7.68-10.73,7.85-18.66C451.88,143.71,426.1,128.47,426.1,128.47z"/>
</g>
<g>
	<g>
		<path class="st37" d="M449.62,144.93c-0.63-0.7-0.94-1.58-0.94-2.66s0.31-1.96,0.94-2.64c0.63-0.68,1.42-1.02,2.4-1.02
			c0.97,0,1.77,0.34,2.4,1.02c0.63,0.68,0.94,1.56,0.94,2.64c0,1.05-0.31,1.93-0.94,2.64c-0.63,0.71-1.42,1.06-2.4,1.06
			C451.04,145.97,450.25,145.62,449.62,144.93z"/>
	</g>
</g>
</svg>
