<?xml version="1.0" encoding="utf-8"?>
<!-- Generator: Adobe Illustrator 27.2.0, SVG Export Plug-In . SVG Version: 6.00 Build 0)  -->
<svg version="1.1" id="Ebene_1" xmlns="http://www.w3.org/2000/svg" xmlns:xlink="http://www.w3.org/1999/xlink" x="0px" y="0px"
	 viewBox="0 0 229 68" style="enable-background:new 0 0 229 68;" xml:space="preserve">
<style type="text/css">
	.st0{fill:#9CA7B4;}
	.st1{fill:#FFFFFF;}
	.st2{fill:#BABBBC;}
	.st3{fill:#5B718A;}
	.st4{fill:#A5C848;}
	.st5{fill:#45AD4B;}
	.st6{fill:#C1252D;}
	.st7{fill:#6DC5D8;}
	.st8{fill:none;stroke:#CCD8DC;stroke-miterlimit:10;}
	.st9{opacity:0.1;fill:#757577;}
	.st10{fill:#60748C;}
	.st11{fill:none;stroke:#FFFFFF;stroke-miterlimit:10;}
	.st12{opacity:0.6;}
	.st13{fill:#F1F3F4;}
	.st14{fill:none;stroke:#F1F3F4;stroke-miterlimit:10;}
	.st15{fill:#E8EAED;}
	.st16{fill:#F1F1F1;}
	.st17{fill:#646768;}
	.st18{opacity:0.25;fill:#757577;}
	.st19{fill:none;stroke:#6DC5D8;stroke-width:3;stroke-miterlimit:10;}
	.st20{fill:none;stroke:#C1252D;stroke-width:3;stroke-miterlimit:10;}
	.st21{fill:none;stroke:#45AD4B;stroke-width:3;stroke-miterlimit:10;}
	.st22{fill:#E7E7E7;}
	.st23{clip-path:url(#SVGID_00000130623367223653419510000018213168195968678800_);}
	.st24{clip-path:url(#SVGID_00000130623367223653419510000018213168195968678800_);fill:#F1F1F1;}
	.st25{clip-path:url(#SVGID_00000007406344924309059260000008433290118784131467_);}
	.st26{fill:#FEF9E8;}
	.st27{fill:#CEEAD6;}
	.st28{fill:#FCE8E6;}
	.st29{fill:none;stroke:#9CC0F9;stroke-width:3;stroke-miterlimit:10;}
	.st30{fill:none;stroke:#9CC0F9;stroke-miterlimit:10;}
	.st31{opacity:0.5;fill:#757577;}
	.st32{clip-path:url(#SVGID_00000130623367223653419510000018213168195968678800_);fill:#FFFFFF;}
	.st33{fill:none;stroke:#C1252D;stroke-width:9;stroke-miterlimit:10;}
	.st34{fill:none;stroke:#E7E7E7;stroke-width:9;stroke-miterlimit:10;}
	.st35{fill:none;stroke:#FFFFFF;stroke-width:3;stroke-miterlimit:10;}
	.st36{fill:none;stroke:#45AD4B;stroke-width:9;stroke-miterlimit:10;}
	.st37{fill:none;stroke:#6DC5D8;stroke-width:1.5;stroke-miterlimit:10;}
	.st38{opacity:0.25;clip-path:url(#SVGID_00000130623367223653419510000018213168195968678800_);fill:#757577;}
</style>
<g>
	<g>
		<g>
			<path class="st3" d="M24.98,42.3l29.8-7.33L34.53,21.05l3.59-10.97c-0.61-0.13-1.22-0.22-1.84-0.3l-3.68,11.27l-17.27-3.48
				c-0.47,0.52-0.91,1.06-1.33,1.61l17.89,3.6l-8.12,17.29l-0.45-0.83l-0.38,2.59l-1.97,4.19l1.57-1.46l-1.43,9.85
				c0.56,0.33,1.14,0.64,1.73,0.93l1.51-10.38l6.94,12.65c0.64,0.05,1.29,0.08,1.94,0.08c0.07,0,0.14,0,0.21-0.01L24.98,42.3z
				 M33.83,22.98L50.3,34.51l-25.16,5.78L33.83,22.98z"/>
			<circle class="st4" cx="23.82" cy="41.25" r="7.91"/>
			<circle class="st5" cx="33.22" cy="22.12" r="4.86"/>
			<circle class="st6" cx="52.13" cy="34.97" r="3.44"/>
			<path class="st6" d="M15.32,17.57c4.41-4.9,10.79-7.99,17.89-7.99c1.04,0,2.06,0.07,3.06,0.2l1.94-5.93
				c-1.63-0.27-3.3-0.42-5-0.42c-10.17,0-19.18,5.06-24.66,12.78L15.32,17.57z"/>
			<path class="st7" d="M21.1,54.43C13.96,50.25,9.15,42.5,9.15,33.65c0-5.42,1.8-10.43,4.84-14.46l-6.54-1.32
				C4.63,22.47,3,27.87,3,33.65c0,11.99,7.02,22.37,17.16,27.25L21.1,54.43z"/>
			<path class="st4" d="M31.28,57.62c-3-0.24-5.85-1.03-8.44-2.27l-0.92,6.31c3.49,1.41,7.31,2.2,11.3,2.2
				c0.49,0,0.98-0.01,1.46-0.04L31.28,57.62z"/>
			<g>
				<path class="st6" d="M52.13,22.05c-7.13,0-12.92,5.8-12.92,12.92s5.8,12.92,12.92,12.92s12.92-5.8,12.92-12.92
					S59.26,22.05,52.13,22.05z M52.13,45.93c-6.04,0-10.96-4.92-10.96-10.96c0-6.04,4.92-10.96,10.96-10.96
					c6.04,0,10.96,4.92,10.96,10.96C63.09,41.01,58.18,45.93,52.13,45.93z"/>
				<path class="st6" d="M52.13,26.59c-4.62,0-8.38,3.76-8.38,8.38s3.76,8.38,8.38,8.38s8.38-3.76,8.38-8.38
					S56.75,26.59,52.13,26.59z M52.13,41.39c-3.54,0-6.42-2.88-6.42-6.42c0-3.54,2.88-6.42,6.42-6.42s6.42,2.88,6.42,6.42
					C58.55,38.51,55.67,41.39,52.13,41.39z"/>
			</g>
			<path class="st5" d="M52.62,47.87c-4.37,5.95-11.39,9.82-19.33,9.84l3.15,5.98C48.24,62.43,58,54.4,61.76,43.55
				C59.5,46.09,56.25,47.73,52.62,47.87z"/>
			<path class="st5" d="M54.42,22.26c3.5,0.63,6.52,2.66,8.43,5.5C60.55,16.15,51.61,6.93,40.14,4.24l-2,5.85
				C45.19,11.55,51.1,16.1,54.42,22.26z"/>
		</g>
	</g>
	<g>
		<path class="st3" d="M78.54,17.48h1.84c1.18,0,1.8,0.62,1.8,1.8v20.91c0,4.4,2.18,5.77,4.83,5.77c2.65,0,4.83-1.37,4.83-5.77
			V19.28c0-1.18,0.61-1.8,1.8-1.8h1.84c1.18,0,1.8,0.62,1.8,1.8v21.48c0,6.91-4.4,10.36-10.27,10.36c-5.87,0-10.27-3.45-10.27-10.36
			V19.28C76.74,18.1,77.36,17.48,78.54,17.48z"/>
		<path class="st3" d="M108.72,33.19V48.9c0,1.14-0.57,1.7-1.7,1.7h-1.7c-1.14,0-1.7-0.57-1.7-1.7V32.81c0-5.39,2.74-7.38,7.48-7.38
			c0.71,0,1.47,0,2.41,0.19c0.9,0.19,1.47,0.57,1.47,1.7v1.37c0,1.14-0.57,1.85-1.7,1.66c-0.57-0.09-0.99-0.14-1.47-0.14
			C109.62,30.21,108.72,30.97,108.72,33.19z"/>
		<path class="st3" d="M123.77,27.13c1.14-1.37,2.74-1.99,4.68-1.99c3.88,0,6.77,2.51,6.77,7.81v9.79c0,5.68-3.55,8.37-8.28,8.37
			s-8.28-2.7-8.28-8.37V18.71c0-1.14,0.57-1.7,1.7-1.7h1.7c1.14,0,1.7,0.57,1.7,1.7V27.13z M123.77,42.42
			c0,3.03,1.42,3.93,3.17,3.93c1.75,0,3.17-0.9,3.17-3.93v-8.56c0-3.03-1.42-3.93-3.17-3.93c-1.75,0-3.17,0.9-3.17,3.93V42.42z"/>
		<path class="st3" d="M136.75,19.52c-0.28-1.09,0.19-2.03,1.37-2.03h2.32c1.23,0,1.84,0.47,2.08,1.61l5.91,26.26l5.91-26.26
			c0.24-1.14,0.85-1.61,2.08-1.61h2.18c1.18,0,1.66,0.95,1.37,2.03l-7.1,28.53c-0.43,1.7-1.51,2.55-3.27,2.55h-2.51
			c-1.75,0-2.84-0.85-3.26-2.55L136.75,19.52z"/>
		<path class="st3" d="M162.77,19.18c0-1.14,0.57-1.7,1.7-1.7h1.7c1.14,0,1.7,0.57,1.7,1.7v1.61c0,1.14-0.57,1.7-1.7,1.7h-1.7
			c-1.14,0-1.7-0.57-1.7-1.7V19.18z M162.77,27.37c0-1.14,0.57-1.7,1.7-1.7h1.7c1.14,0,1.7,0.57,1.7,1.7V48.9
			c0,1.14-0.57,1.7-1.7,1.7h-1.7c-1.14,0-1.7-0.57-1.7-1.7V27.37z"/>
		<path class="st3" d="M186.38,42.23h1.94c1.14,0,1.7,0.57,1.7,1.7c0,4.26-3.22,7.19-8.04,7.19c-4.73,0-8.28-2.79-8.28-8.37v-9.23
			c0-5.58,3.55-8.37,8.28-8.37s8.28,2.79,8.28,8.37v4.02c0,1.14-0.57,1.7-1.7,1.7h-9.75v3.17c0,3.03,1.42,3.93,3.17,3.93
			c1.8,0,2.93-1.04,2.93-2.65C184.91,42.75,185.43,42.23,186.38,42.23z M178.81,35.41h6.34v-1.56c0-3.03-1.42-3.93-3.17-3.93
			s-3.17,0.9-3.17,3.93V35.41z"/>
		<path class="st3" d="M195.75,27.37c0-1.14,0.57-1.7,1.7-1.7h1.7c1.14,0,1.7,0.57,1.7,1.7v15.28c0,2.84,1.32,3.69,2.98,3.69
			s2.98-0.85,2.98-3.69V27.37c0-1.14,0.57-1.7,1.7-1.7h1.7c1.14,0,1.7,0.57,1.7,1.7v15.28c0,2.84,1.32,3.69,2.98,3.69
			c1.66,0,2.98-0.85,2.98-3.69V27.37c0-1.14,0.57-1.7,1.7-1.7h1.7c1.14,0,1.7,0.57,1.7,1.7V43.6c0,5.02-3.17,7.52-7.43,7.52
			c-2.84,0-5.02-1.23-6.2-3.55c-1.18,2.32-3.41,3.55-6.2,3.55c-4.26,0-7.43-2.51-7.43-7.52V27.37z"/>
	</g>
</g>
</svg>
