<?xml version="1.0" encoding="utf-8"?>
<!-- Generator: Adobe Illustrator 27.2.0, SVG Export Plug-In . SVG Version: 6.00 Build 0)  -->
<svg version="1.1" id="Ebene_1" xmlns="http://www.w3.org/2000/svg" xmlns:xlink="http://www.w3.org/1999/xlink" x="0px" y="0px"
	 viewBox="0 0 56 18" style="enable-background:new 0 0 56 18;" xml:space="preserve">
<style type="text/css">
	.st0{fill:#9CA7B4;}
	.st1{fill:#FFFFFF;}
	.st2{fill:#BABBBC;}
	.st3{fill:#5B718A;}
	.st4{fill:#A5C848;}
	.st5{fill:#45AD4B;}
	.st6{fill:#C1252D;}
	.st7{fill:#6DC5D8;}
	.st8{fill:none;stroke:#CCD8DC;stroke-miterlimit:10;}
	.st9{opacity:0.1;fill:#757577;}
	.st10{fill:#60748C;}
	.st11{fill:none;stroke:#FFFFFF;stroke-miterlimit:10;}
	.st12{opacity:0.6;}
	.st13{fill:#F1F3F4;}
	.st14{fill:none;stroke:#F1F3F4;stroke-miterlimit:10;}
	.st15{fill:#E8EAED;}
	.st16{fill:#F1F1F1;}
	.st17{fill:#646768;}
	.st18{opacity:0.25;fill:#757577;}
	.st19{fill:none;stroke:#6DC5D8;stroke-width:3;stroke-miterlimit:10;}
	.st20{fill:none;stroke:#C1252D;stroke-width:3;stroke-miterlimit:10;}
	.st21{fill:none;stroke:#45AD4B;stroke-width:3;stroke-miterlimit:10;}
	.st22{fill:#E7E7E7;}
	.st23{clip-path:url(#SVGID_00000182486968021237380700000015089115509247181452_);}
	.st24{clip-path:url(#SVGID_00000182486968021237380700000015089115509247181452_);fill:#F1F1F1;}
	.st25{clip-path:url(#SVGID_00000014621580119408129420000000604429906814904728_);}
	.st26{fill:#FEF9E8;}
	.st27{fill:#CEEAD6;}
	.st28{fill:#FCE8E6;}
	.st29{fill:none;stroke:#9CC0F9;stroke-width:3;stroke-miterlimit:10;}
	.st30{fill:none;stroke:#9CC0F9;stroke-miterlimit:10;}
	.st31{opacity:0.5;fill:#757577;}
	.st32{clip-path:url(#SVGID_00000182486968021237380700000015089115509247181452_);fill:#FFFFFF;}
	.st33{fill:none;stroke:#C1252D;stroke-width:9;stroke-miterlimit:10;}
	.st34{fill:none;stroke:#E7E7E7;stroke-width:9;stroke-miterlimit:10;}
	.st35{fill:none;stroke:#FFFFFF;stroke-width:3;stroke-miterlimit:10;}
	.st36{fill:none;stroke:#45AD4B;stroke-width:9;stroke-miterlimit:10;}
	.st37{fill:none;stroke:#6DC5D8;stroke-width:1.5;stroke-miterlimit:10;}
	.st38{opacity:0.25;clip-path:url(#SVGID_00000182486968021237380700000015089115509247181452_);fill:#757577;}
</style>
<g>
	<path class="st3" d="M14.18,9.55c0,2.91-2.41,5.27-5.37,5.27c-2.97,0-5.37-2.36-5.37-5.27c0-2.91,2.41-5.27,5.37-5.27
		C11.77,4.28,14.18,6.64,14.18,9.55z"/>
	<path class="st3" d="M34.12,9.55c0,2.91-2.41,5.27-5.37,5.27c-2.97,0-5.37-2.36-5.37-5.27c0-2.91,2.41-5.27,5.37-5.27
		C31.71,4.28,34.12,6.64,34.12,9.55z"/>
	<path class="st3" d="M54.06,9.55c0,2.91-2.41,5.27-5.37,5.27c-2.97,0-5.37-2.36-5.37-5.27c0-2.91,2.41-5.27,5.37-5.27
		C51.66,4.28,54.06,6.64,54.06,9.55z"/>
</g>
</svg>
