<?xml version="1.0" encoding="utf-8"?>
<!-- Generator: Adobe Illustrator 27.2.0, SVG Export Plug-In . SVG Version: 6.00 Build 0)  -->
<svg version="1.1" id="Ebene_1" xmlns="http://www.w3.org/2000/svg" xmlns:xlink="http://www.w3.org/1999/xlink" x="0px" y="0px"
	 viewBox="0 0 385.6 122.38" style="enable-background:new 0 0 385.6 122.38;" xml:space="preserve">
<style type="text/css">
	.st0{fill:#FFFFFF;}
	.st1{opacity:0.4;fill:#60748C;}
	.st2{opacity:0.75;fill:#60748C;}
	.st3{fill:#ECECEC;}
	.st4{opacity:0.1;}
	.st5{opacity:0.3;fill:#5B7188;}
	.st6{fill:#60748C;}
	.st7{opacity:0.3;fill:none;stroke:#5B7188;stroke-width:13;stroke-miterlimit:10;}
	.st8{opacity:0.7;fill:#60748C;}
	.st9{fill:#A4C748;}
	.st10{fill:none;stroke:#FFFFFF;stroke-width:5;stroke-miterlimit:10;}
	.st11{fill:#A3C648;}
	.st12{opacity:0.25;fill:#60748C;}
	.st13{opacity:0.34;fill:#60748C;}
	.st14{stroke:#FFFFFF;stroke-width:0.5;stroke-miterlimit:10;}
	.st15{fill:#EDEDED;}
	.st16{opacity:0.1;fill:#546579;stroke:#60748C;stroke-width:1.0251;stroke-miterlimit:10;}
	.st17{opacity:0.1;fill:#546579;stroke:#282F39;stroke-width:1.0251;stroke-miterlimit:10;}
	.st18{opacity:0.1;fill:#546579;stroke:#546579;stroke-width:1.0251;stroke-miterlimit:10;}
	.st19{fill:#60748C;stroke:#60748C;stroke-width:0.9491;stroke-miterlimit:10;}
	.st20{fill:#282F39;}
	.st21{fill:#45AD4B;stroke:#45AD4B;stroke-width:0.8985;stroke-miterlimit:10;}
	.st22{fill:#6DC5D8;stroke:#6DC5D8;stroke-width:0.9491;stroke-miterlimit:10;}
	.st23{fill:#282F39;stroke:#FFFFFF;stroke-width:1.0437;stroke-miterlimit:10;}
	.st24{fill:#45AD4B;stroke:#45AD4B;stroke-width:0.9491;stroke-miterlimit:10;}
	.st25{fill:#45AD4B;stroke:#45AD4B;stroke-width:0.9119;stroke-miterlimit:10;}
	.st26{fill:#C1252D;stroke:#C1252D;stroke-width:0.9491;stroke-miterlimit:10;}
	.st27{fill:#C1252D;}
	.st28{fill:#C1252D;stroke:#C1252D;stroke-width:1.0339;stroke-miterlimit:10;}
	.st29{fill:#C1252D;stroke:#C1252D;stroke-width:0.8834;stroke-miterlimit:10;}
	.st30{fill:none;stroke:#282F39;stroke-width:2;stroke-linecap:round;stroke-linejoin:round;stroke-miterlimit:10;}
	.st31{fill:#45AD4B;}
	.st32{fill:#45AB4B;}
	.st33{fill:#6DC5D8;}
	.st34{fill:#5B7188;}
	.st35{fill:#97A2AF;}
	.st36{fill:#BABBBC;}
	.st37{fill:#5B7185;}
	.st38{fill:#A0C348;}
	.st39{fill:#45A84B;}
	.st40{fill:#BC252D;}
	.st41{fill:#6DC0D3;}
	.st42{fill:none;stroke:#C7D3D7;stroke-miterlimit:10;}
	.st43{opacity:0.1;fill:#757577;}
	.st44{fill:none;stroke:#FFFFFF;stroke-miterlimit:10;}
	.st45{opacity:0.6;}
	.st46{fill:#F1F3F4;}
	.st47{fill:none;stroke:#F1F3F4;stroke-miterlimit:10;}
	.st48{fill:#E8EAED;}
	.st49{fill:#F1F1F1;}
	.st50{fill:#646768;}
	.st51{opacity:0.25;fill:#757577;}
	.st52{fill:none;stroke:#6DC5D8;stroke-width:3;stroke-miterlimit:10;}
	.st53{fill:none;stroke:#C1252D;stroke-width:3;stroke-miterlimit:10;}
	.st54{fill:none;stroke:#45AD4B;stroke-width:3;stroke-miterlimit:10;}
	.st55{fill:#E7E7E7;}
	.st56{clip-path:url(#SVGID_00000118381704434882564090000015997806500466461831_);}
	.st57{clip-path:url(#SVGID_00000118381704434882564090000015997806500466461831_);fill:#F1F1F1;}
	.st58{clip-path:url(#SVGID_00000009548101865054911160000006508907064682860691_);}
	.st59{fill:#FEF9E8;}
	.st60{fill:#CEEAD6;}
	.st61{fill:#FCE8E6;}
	.st62{fill:none;stroke:#9CC0F9;stroke-width:3;stroke-miterlimit:10;}
	.st63{fill:none;stroke:#9CC0F9;stroke-miterlimit:10;}
	.st64{opacity:0.5;fill:#757577;}
	.st65{clip-path:url(#SVGID_00000118381704434882564090000015997806500466461831_);fill:#FFFFFF;}
	.st66{fill:none;stroke:#C1252D;stroke-width:9;stroke-miterlimit:10;}
	.st67{fill:none;stroke:#E7E7E7;stroke-width:9;stroke-miterlimit:10;}
	.st68{fill:none;stroke:#FFFFFF;stroke-width:3;stroke-miterlimit:10;}
	.st69{fill:none;stroke:#45AD4B;stroke-width:9;stroke-miterlimit:10;}
	.st70{fill:none;stroke:#6DC5D8;stroke-width:1.5;stroke-miterlimit:10;}
	.st71{opacity:0.25;clip-path:url(#SVGID_00000118381704434882564090000015997806500466461831_);fill:#757577;}
	.st72{fill:#292929;}
	.st73{fill-rule:evenodd;clip-rule:evenodd;}
	.st74{fill:#FF7578;}
	.st75{fill:#FFC9CA;}
	.st76{fill:#173042;}
	.st77{fill:#946B6B;}
	.st78{fill:none;}
	.st79{fill:#FFFFFF;stroke:#FFFFFF;stroke-width:7;stroke-miterlimit:10;}
	.st80{fill:#444444;}
	.st81{fill:#F73103;}
	.st82{fill:#FFBB39;}
	.st83{fill:#398229;}
	.st84{fill:#DE0505;}
	.st85{fill:#FF804E;}
	.st86{fill:#7ED668;}
	.st87{fill:#BF252D;}
	.st88{fill:#D4894D;}
	.st89{fill:#AD5512;}
	.st90{fill:#FF00FF;}
	.st91{fill:#FF3D75;}
	.st92{fill:#F28E1E;}
	.st93{fill:#2B6E53;}
	.st94{fill:#399150;}
	.st95{fill:#6A4A1D;}
	.st96{fill:#6DC3D6;}
	.st97{clip-path:url(#SVGID_00000072256823216501629030000004967234591925141916_);}
	.st98{clip-path:url(#SVGID_00000022561727697875969340000018272549864326845859_);}
	.st99{fill:#333333;}
	.st100{fill:url(#SVGID_00000150064746918913222240000014024726980054613383_);}
	.st101{fill:url(#SVGID_00000169553815830146835070000005317743012586597017_);}
	.st102{opacity:0.08;}
	.st103{fill:url(#SVGID_00000047772301990130418100000010558514075695408514_);}
	.st104{fill-rule:evenodd;clip-rule:evenodd;fill:#1A1A1A;}
	.st105{fill:#1A1A1A;}
	.st106{fill-rule:evenodd;clip-rule:evenodd;fill:#60748C;}
	.st107{fill:#FCEED7;}
	.st108{fill:#FBD18B;}
	.st109{fill:#DEE1E5;}
	.st110{fill:#ED8D80;}
	.st111{fill:#E97361;}
	.st112{fill:#AE5649;}
	.st113{fill:#CACED5;}
	.st114{fill:#A8B0BB;}
	.st115{fill:#CACFD7;}
	.st116{fill:#EABF9A;}
	.st117{fill:#E4E7EB;}
	.st118{fill:#69D4F2;}
	.st119{fill:#B2DB7F;}
	.st120{fill:#9ED268;}
	.st121{fill:#F8F8F8;}
	.st122{fill:#F0F0F0;}
	.st123{fill:#738DBD;}
	.st124{fill:#E46D67;}
	.st125{fill:#24C1F0;}
	.st126{fill:#36B183;}
	.st127{fill:#FFB866;}
	.st128{fill:#FFD873;}
	.st129{fill-rule:evenodd;clip-rule:evenodd;fill:#485156;}
	.st130{fill:#58595B;}
	.st131{fill:#BF252D;stroke:#BF252D;stroke-width:2;stroke-miterlimit:10;}
	.st132{fill:#FFFFFF;stroke:#BF252D;stroke-width:4;stroke-linecap:round;stroke-linejoin:round;stroke-miterlimit:10;}
	.st133{fill-rule:evenodd;clip-rule:evenodd;fill:#BF252D;}
	.st134{fill:none;stroke:#FFFFFF;stroke-miterlimit:10;stroke-dasharray:1.0108,1.0108;}
	.st135{fill:none;stroke:#45AD4B;stroke-width:4;stroke-miterlimit:10;}
	.st136{fill:none;stroke:#C1252D;stroke-width:4;stroke-miterlimit:10;}
	.st137{opacity:0.2;fill:#45AD4B;}
	.st138{opacity:0.6;fill:#45AD4B;}
	.st139{fill:#44A049;}
	.st140{clip-path:url(#SVGID_00000123404175001933057720000006835438909975808190_);}
	.st141{opacity:0.5;fill:#45AD4B;}
	.st142{opacity:0.2;fill:#E7E7E7;}
	.st143{opacity:0.5;fill:#E7E7E7;}
	.st144{opacity:0.5;fill:#FFFFFF;}
	.st145{opacity:0.2;fill:#6DC5D8;}
	.st146{fill:#FFFFFF;stroke:#FFFFFF;stroke-width:0.3;stroke-miterlimit:10;}
	.st147{fill:none;stroke:#BF252D;stroke-width:5;stroke-miterlimit:10;}
	.st148{fill:#BF252D;stroke:#FFFFFF;stroke-width:3;stroke-miterlimit:10;}
	.st149{fill:#FFFFFF;stroke:#FFFFFF;stroke-width:5.5;stroke-miterlimit:10;}
	.st150{fill:none;stroke:#BF252D;stroke-width:3;stroke-miterlimit:10;}
	.st151{fill:#BF252D;stroke:#FFFFFF;stroke-width:4.5;stroke-miterlimit:10;}
	.st152{fill:#BF252D;stroke:#FFFFFF;stroke-miterlimit:10;}
	.st153{fill:#F7E921;}
	.st154{fill:#6E81B5;}
	.st155{fill:#466087;}
	.st156{fill:#FFAEA8;}
	.st157{fill:#FFE152;}
	.st158{fill:#96C869;}
	.st159{fill:#ADB3BD;}
	.st160{fill:#CACED8;}
	.st161{fill:#40CAEF;}
	.st162{fill:#276F80;}
	.st163{fill:#878F9E;}
	.st164{fill:#EEF0F3;}
	.st165{fill:#1E505B;}
	.st166{fill:#9C80EA;}
	.st167{fill:#FAC955;}
	.st168{clip-path:url(#SVGID_00000008117320295000727600000015725477935838296723_);}
	.st169{fill:#E5EAEB;}
	.st170{fill:#ADB4B9;}
	.st171{fill:#495D72;}
	.st172{fill:#28384C;}
	.st173{fill:#E9B816;}
	.st174{fill:#DB352E;}
	.st175{fill:#366DB4;}
	.st176{fill:#753489;}
	.st177{fill:#57A9BF;}
	.st178{fill:#25AC86;}
	.st179{fill:#F56363;}
	.st180{fill:#BD5A45;}
	.st181{fill:#F0EABD;}
	.st182{fill:#EB8819;}
	.st183{fill:#C3411E;}
	.st184{fill:#205B75;}
	.st185{fill:#C8D9E8;}
	.st186{fill:#A9B9CA;}
	.st187{fill:#114559;}
	.st188{fill:#DFE8F2;}
	.st189{fill:#E3B933;}
	.st190{fill:#E96374;}
	.st191{fill:#80EAFF;}
	.st192{fill:#FFFFFF;stroke:#C1252D;stroke-width:7;stroke-miterlimit:10;}
	.st193{fill:#FFFFFF;stroke:#45AD4B;stroke-width:7;stroke-miterlimit:10;}
	.st194{fill:#B4BCBD;}
	.st195{fill:#CED7DA;}
	.st196{fill:none;stroke:#45AD4B;stroke-width:2;stroke-miterlimit:10;}
	.st197{fill:#6DC3D6;stroke:#FFFFFF;stroke-width:0.1;stroke-miterlimit:10;}
	.st198{fill:#C1252D;stroke:#FFFFFF;stroke-width:0.1;stroke-miterlimit:10;}
	.st199{fill:#A3C648;stroke:#FFFFFF;stroke-width:0.1;stroke-miterlimit:10;}
	.st200{fill:#45AB4B;stroke:#FFFFFF;stroke-width:0.1;stroke-miterlimit:10;}
	.st201{fill:none;stroke:#60748C;stroke-linecap:round;stroke-linejoin:round;stroke-miterlimit:10;stroke-dasharray:2,4;}
	.st202{fill:#F0F0F0;stroke:#C1252D;stroke-width:7;stroke-miterlimit:10;}
	.st203{fill:#F0F0F0;stroke:#45AD4B;stroke-width:7;stroke-miterlimit:10;}
	.st204{opacity:0.3;}
	.st205{fill:#EDEDED;stroke:#C1252D;stroke-width:6;stroke-miterlimit:10;}
	.st206{fill:#5B7188;stroke:#EDEDED;stroke-miterlimit:10;}
	.st207{fill:#EDEDED;stroke:#45AD4B;stroke-width:6;stroke-miterlimit:10;}
	.st208{fill:#FFFFFF;stroke:#C1252D;stroke-width:6;stroke-miterlimit:10;}
	.st209{fill:#FFFFFF;stroke:#45AD4B;stroke-width:6;stroke-miterlimit:10;}
	.st210{fill:none;stroke:#6DC5D8;stroke-linecap:round;stroke-linejoin:round;}
	.st211{fill:none;stroke:#6DC5D8;stroke-linecap:round;stroke-linejoin:round;stroke-dasharray:4.8937,7.8299;}
	.st212{fill:none;stroke:#6DC5D8;stroke-linecap:round;stroke-linejoin:round;stroke-dasharray:5.1322,8.2115;}
	.st213{fill:none;stroke:#6DC5D8;stroke-linecap:round;stroke-linejoin:round;stroke-miterlimit:10;stroke-dasharray:5,8;}
	.st214{fill:#45AC4B;}
	.st215{fill:#C0252D;}
	.st216{fill:#6DC4D7;}
	.st217{fill:#5B7189;}
	.st218{fill:none;stroke:#60748C;stroke-width:1.5;stroke-miterlimit:10;}
	.st219{opacity:0.4;}
	.st220{fill:none;stroke:#60748C;stroke-width:2;stroke-linecap:round;stroke-linejoin:round;stroke-miterlimit:10;}
	.st221{opacity:0.54;fill:#FFFFFF;}
	.st222{clip-path:url(#SVGID_00000155147152565955052270000013405612094922784677_);}
	.st223{opacity:0.5;fill:#5B7188;}
	.st224{opacity:0.1;fill:#60748C;}
	.st225{clip-path:url(#SVGID_00000095303471956273775840000009241202819641434517_);}
	.st226{display:none;}
	.st227{display:inline;fill:#FFFFFF;}
	.st228{display:inline;fill:#090C11;}
	.st229{display:inline;fill:#4A596E;}
	.st230{fill:#546579;}
	.st231{fill:#6F88A6;}
	.st232{opacity:0.1;fill:none;stroke:#FFFFFF;stroke-miterlimit:10;}
	.st233{display:none;fill:#6DC5D8;}
	.st234{opacity:0.45;fill:#60748C;}
	.st235{opacity:0.03;clip-path:url(#SVGID_00000076569302764004461720000011251922101603762832_);}
	.st236{clip-path:url(#SVGID_00000076569302764004461720000011251922101603762832_);}
	
		.st237{clip-path:url(#SVGID_00000076569302764004461720000011251922101603762832_);fill:#FFFFFF;stroke:#60748C;stroke-width:1.5;stroke-miterlimit:10;}
	.st238{opacity:0.4;clip-path:url(#SVGID_00000076569302764004461720000011251922101603762832_);}
	.st239{clip-path:url(#SVGID_00000054238009225767980790000014757770572359975309_);}
	.st240{opacity:0.05;clip-path:url(#SVGID_00000054238009225767980790000014757770572359975309_);}
	.st241{fill:#575756;}
	
		.st242{clip-path:url(#SVGID_00000054238009225767980790000014757770572359975309_);fill:#FFFFFF;stroke:#60748C;stroke-width:1.5;stroke-miterlimit:10;}
	.st243{opacity:0.4;clip-path:url(#SVGID_00000054238009225767980790000014757770572359975309_);}
	.st244{fill:#FFFFFF;stroke:#60748C;stroke-width:1.5;stroke-miterlimit:10;}
	.st245{fill:#A5C848;}
	.st246{opacity:0.2;}
	.st247{clip-path:url(#SVGID_00000106853113023539667160000002678022063879731611_);}
	.st248{clip-path:url(#SVGID_00000095328733548599136270000002477368306276791696_);}
	.st249{fill:none;stroke:#60748C;stroke-width:3;stroke-miterlimit:10;}
	.st250{fill:#EDEDED;stroke:#C0252D;stroke-width:3;stroke-miterlimit:10;}
	.st251{clip-path:url(#SVGID_00000166659163836385390940000017109210690830597510_);}
	.st252{opacity:0.1;fill:#546579;}
	.st253{opacity:0.05;}
	.st254{fill:#606060;}
	.st255{opacity:0.15;}
	.st256{opacity:0.5;}
	.st257{fill:#535353;}
	.st258{opacity:0.7;}
	.st259{filter:url(#Adobe_OpacityMaskFilter);}
	.st260{filter:url(#Adobe_OpacityMaskFilter_00000106129089212789431930000007472329840879282097_);}
	
		.st261{mask:url(#SVGID_00000145021001633686071340000009738526339996068528_);fill:url(#SVGID_00000109740184171933462170000007254206447929035673_);}
	.st262{filter:url(#Adobe_OpacityMaskFilter_00000067228733587120382710000006197498322448482707_);}
	.st263{filter:url(#Adobe_OpacityMaskFilter_00000036965628868613332980000014768007674443069080_);}
	
		.st264{mask:url(#SVGID_00000166669216403632067800000009080980801009402255_);fill:url(#SVGID_00000149347381102225691150000000158364868834277541_);}
	.st265{filter:url(#Adobe_OpacityMaskFilter_00000005241175275664610150000000489039761474206874_);}
	.st266{filter:url(#Adobe_OpacityMaskFilter_00000045617525211348313120000006714488341243861632_);}
	
		.st267{mask:url(#SVGID_00000132785371509151359600000010601810845059116450_);fill:url(#SVGID_00000053515704050060816740000017801688796668146590_);}
	.st268{filter:url(#Adobe_OpacityMaskFilter_00000084524786839916071020000003987091037903518369_);}
	.st269{filter:url(#Adobe_OpacityMaskFilter_00000038390123060557739370000013845414649744149901_);}
	
		.st270{mask:url(#SVGID_00000053520738237087872880000015018993483272993944_);fill:url(#SVGID_00000071538249614597233710000009352806974176728233_);}
	.st271{filter:url(#Adobe_OpacityMaskFilter_00000146483912618523849710000001424640494352592530_);}
	.st272{filter:url(#Adobe_OpacityMaskFilter_00000053534219725238796280000011666100075255439000_);}
	
		.st273{mask:url(#SVGID_00000075150581111340945080000004322269520719218851_);fill:url(#SVGID_00000050621324216764597140000014753757465575148679_);}
	.st274{filter:url(#Adobe_OpacityMaskFilter_00000031922570491344354150000016129534141406751128_);}
	.st275{filter:url(#Adobe_OpacityMaskFilter_00000072976383703862779500000015672858821478588033_);}
	
		.st276{mask:url(#SVGID_00000003088575892012054240000000404570232939549624_);fill:url(#SVGID_00000080923473405988762770000012017685881563762842_);}
	.st277{filter:url(#Adobe_OpacityMaskFilter_00000018931827465053105060000000958111699592272004_);}
	.st278{filter:url(#Adobe_OpacityMaskFilter_00000042705808287063022390000004710764227971083655_);}
	
		.st279{mask:url(#SVGID_00000100344264381644540250000016473360329850581922_);fill:url(#SVGID_00000091005316146882654580000012319704826043857281_);}
	.st280{opacity:0.8;}
	.st281{filter:url(#Adobe_OpacityMaskFilter_00000155835233596624250350000018172208565003025844_);}
	.st282{filter:url(#Adobe_OpacityMaskFilter_00000036968556871854386810000006432189501107337873_);}
	
		.st283{mask:url(#SVGID_00000110461900824768285370000012932306255959045793_);fill:url(#SVGID_00000129885843110485010870000009767194735935904181_);}
	.st284{fill:none;stroke:#1A1A1A;stroke-width:4;stroke-miterlimit:10;}
	.st285{fill:none;stroke:#60748C;stroke-width:4;stroke-miterlimit:10;}
	.st286{fill:#FFFFFF;stroke:#60748C;stroke-width:3;stroke-miterlimit:10;}
	.st287{fill:#FFFFFF;stroke:#6DC5D8;stroke-width:3;stroke-miterlimit:10;}
	.st288{fill:#6DC5D8;stroke:#FFFFFF;stroke-width:3;stroke-miterlimit:10;}
	.st289{opacity:0.25;}
	.st290{fill:#757577;}
	.st291{fill:#AEAEAE;}
	.st292{fill:#C1252D;stroke:#FFFFFF;stroke-width:3;stroke-miterlimit:10;}
	.st293{fill:#1A1A1A;stroke:#FFFFFF;stroke-width:3;stroke-miterlimit:10;}
	.st294{fill:none;stroke:#000000;stroke-width:10;stroke-linecap:round;stroke-miterlimit:10;}
	.st295{fill:none;stroke:#45AD4B;stroke-width:6;stroke-miterlimit:10;}
	.st296{fill:none;stroke:#6DC5D8;stroke-width:6;stroke-miterlimit:10;}
	.st297{fill:none;stroke:#60748C;stroke-width:6;stroke-miterlimit:10;}
	.st298{fill:none;stroke:#000000;stroke-width:6;stroke-miterlimit:10;}
	.st299{fill:#60748C;stroke:#FFFFFF;stroke-width:4;stroke-miterlimit:10;}
	.st300{fill:none;stroke:#000000;stroke-width:7;stroke-linecap:round;stroke-miterlimit:10;}
	.st301{fill-rule:evenodd;clip-rule:evenodd;fill:none;stroke:#000000;stroke-width:4;stroke-miterlimit:10;}
	.st302{fill:none;stroke:#000000;stroke-width:4;stroke-miterlimit:10;}
	.st303{fill:none;stroke:#000000;stroke-width:4;stroke-linecap:round;stroke-miterlimit:10;}
	.st304{fill-rule:evenodd;clip-rule:evenodd;stroke:#FFFFFF;stroke-miterlimit:10;}
	.st305{fill:#949494;}
	.st306{clip-path:url(#SVGID_00000088117801786577490700000004527882424077890444_);}
	.st307{fill:#1A1A1A;stroke:#1A1A1A;stroke-miterlimit:10;}
	.st308{stroke:#000000;stroke-miterlimit:10;}
	.st309{clip-path:url(#SVGID_00000042007750701900931810000015217198706881820083_);}
	.st310{fill:#60748C;stroke:#60748C;stroke-miterlimit:10;}
	.st311{fill:#728499;}
	.st312{opacity:0.4;fill:#BF252D;}
	.st313{opacity:0.75;fill:#BF252D;}
	.st314{fill:#C7C7C7;}
	.st315{opacity:0.23;}
	.st316{opacity:0.2;fill:#5B7188;}
	.st317{fill:none;stroke:#FFFFFF;stroke-width:6;stroke-miterlimit:10;}
	.st318{fill:#BF252D;stroke:#FFFFFF;stroke-width:6;stroke-miterlimit:10;}
	.st319{opacity:0.3;fill:#BF252D;}
	.st320{opacity:0.7;fill:#BF252D;}
	.st321{opacity:0.5;fill:#BF252D;}
	.st322{opacity:0.2;fill:#BF252D;}
	.st323{fill:#BF252D;stroke:#FFFFFF;stroke-width:5;stroke-miterlimit:10;}
	.st324{opacity:0.53;fill:#52717F;}
	.st325{opacity:0.36;fill:#60748C;}
	.st326{opacity:0.31;fill:#60748C;}
	.st327{opacity:0.45;fill:#6DC5D8;}
	.st328{fill:#E81C24;}
	.st329{fill:#D4DB21;}
	.st330{fill:#F6AB3B;}
	.st331{opacity:0.8;fill:#60748C;}
	.st332{opacity:0.61;fill:#60748C;}
	.st333{opacity:0.12;fill:#6DC5D8;}
	.st334{fill:none;stroke:#6DC5D8;stroke-width:4;stroke-miterlimit:10;}
	.st335{fill:none;stroke:#A4C748;stroke-width:4;stroke-miterlimit:10;}
	.st336{fill:#C1252D;stroke:#C1252D;stroke-width:4;stroke-miterlimit:10;}
	.st337{fill:none;stroke:#FFFFFF;stroke-width:2;stroke-linecap:round;stroke-miterlimit:10;stroke-dasharray:3.9843,5.9765;}
	.st338{fill:none;stroke:#60748C;stroke-width:3;stroke-linecap:round;stroke-miterlimit:10;stroke-dasharray:0.4961,6.945;}
	.st339{fill:none;stroke:#FFFFFF;stroke-width:2;stroke-linecap:round;stroke-miterlimit:10;stroke-dasharray:4.0153,6.023;}
	.st340{fill:none;stroke:#60748C;stroke-width:3;stroke-linecap:round;stroke-miterlimit:10;stroke-dasharray:0.4971,6.9599;}
	.st341{opacity:0.47;fill:#60748C;}
	.st342{fill:none;stroke:#D01519;stroke-miterlimit:10;}
	.st343{clip-path:url(#SVGID_00000142163944945382850550000013510178028617210246_);}
	.st344{clip-path:url(#SVGID_00000004529875660823169280000006293174347276391552_);}
	.st345{fill:#ECECEC;stroke:#FFFFFF;stroke-width:10;stroke-miterlimit:10;}
	.st346{clip-path:url(#SVGID_00000183944185671207607330000003717565826130803122_);}
	.st347{clip-path:url(#SVGID_00000054247450352815038340000007506200237712648348_);}
	.st348{clip-path:url(#SVGID_00000018232910758216146440000010970075297918245021_);}
	.st349{clip-path:url(#SVGID_00000100365187662535526460000017909565355417319069_);}
	.st350{fill:none;stroke:#5B7188;stroke-width:3;stroke-miterlimit:10;stroke-dasharray:9,8;}
	.st351{clip-path:url(#SVGID_00000106869134892726439510000004111673616706922894_);}
	.st352{clip-path:url(#SVGID_00000064337928234521493770000006739846386292986508_);}
	.st353{fill:none;stroke:#E1E1E1;stroke-width:4;stroke-linecap:round;stroke-miterlimit:10;}
	.st354{fill:none;stroke:#000000;stroke-width:5;stroke-miterlimit:10;}
	.st355{fill:none;stroke:#000000;stroke-width:5;stroke-linecap:round;stroke-miterlimit:10;}
	.st356{fill:none;stroke:#E1E1E1;stroke-width:10;stroke-miterlimit:10;}
	.st357{fill:none;stroke:#A4C748;stroke-width:5;stroke-miterlimit:10;}
	.st358{fill:#A4C748;stroke:#FFFFFF;stroke-width:3;stroke-miterlimit:10;}
	.st359{fill:none;stroke:#E1E1E1;stroke-width:10;stroke-linecap:round;stroke-miterlimit:10;}
	.st360{fill:#60748C;stroke:#FFFFFF;stroke-width:5;stroke-miterlimit:10;}
	.st361{fill:#5B7188;stroke:#FFFFFF;stroke-width:5;stroke-miterlimit:10;}
	.st362{fill:#E1E1E1;}
	.st363{fill:none;stroke:#000000;stroke-width:7;stroke-linecap:round;stroke-linejoin:round;stroke-miterlimit:10;}
	.st364{fill:none;stroke:#000000;stroke-width:3;stroke-linecap:round;stroke-linejoin:round;stroke-miterlimit:10;}
	.st365{fill:none;stroke:#000000;stroke-width:6;stroke-linecap:round;stroke-linejoin:round;stroke-miterlimit:10;}
	.st366{fill:none;stroke:#000000;stroke-width:15;stroke-linecap:round;stroke-linejoin:round;stroke-miterlimit:10;}
	.st367{opacity:0.15;fill:#60748C;}
	.st368{opacity:0.37;fill:#60748C;}
	.st369{fill:none;stroke:#333E4C;stroke-width:6;stroke-linecap:round;stroke-linejoin:round;stroke-miterlimit:10;}
	.st370{fill:#EDEDED;stroke:#333E4C;stroke-miterlimit:10;}
	.st371{fill:none;stroke:#333E4C;stroke-width:7;stroke-linecap:round;stroke-linejoin:round;stroke-miterlimit:10;}
	.st372{fill:#5B7188;stroke:#FFFFFF;stroke-miterlimit:10;}
</style>
<rect x="87.25" y="41.97" class="st0" width="23.87" height="29.1"/>
<g>
	<path class="st34" d="M211.29,55.47c0,0,3.44-4.28,3.44-9.06c-0.17,0-1.77,0-3.98,0v-1.72h0.55c0,0,3.44-4.28,3.44-9.06
		c-0.17,0-1.77,0-3.98,0v-2.12h-3.44v-2.18h-0.39c0-0.4-0.22-0.72-0.48-0.72h-3.16c-0.27,0-0.48,0.32-0.48,0.72h-0.39v2.18h-3.44
		v2.12c-2.13,0-3.67,0-3.83,0c0,4.77,3.44,9.06,3.44,9.06h0.4v1.72c-2.13,0-3.67,0-3.83,0c0,4.77,3.44,9.06,3.44,9.06h0.4v1.84
		c-2.13,0-3.67,0-3.83,0c0,4.77,3.44,9.06,3.44,9.06h0.4v2.8h3.44v37.57h-1.38c-2.78,0-3.49,1.91-3.62,4.4h14.9
		c-0.13-2.49-0.88-4.4-3.74-4.4h-1.26V69.16h3.44v-2.8h0.55c0,0,3.44-4.28,3.44-9.06c-0.17,0-1.77,0-3.98,0v-1.84H211.29z"/>
	<path class="st0" d="M208.51,40.11c0,2.02-1.64,3.66-3.66,3.66s-3.66-1.64-3.66-3.66c0-2.02,1.64-3.66,3.66-3.66
		S208.51,38.09,208.51,40.11z"/>
	<path class="st0" d="M208.51,50.94c0,2.02-1.64,3.66-3.66,3.66s-3.66-1.64-3.66-3.66c0-2.02,1.64-3.66,3.66-3.66
		S208.51,48.92,208.51,50.94z"/>
	<circle class="st0" cx="204.85" cy="61.77" r="3.66"/>
</g>
<path class="st34" d="M72.06,110.08c0.25,0,0.45-0.2,0.45-0.45v-9.79h1.45c0.25,0,0.45-0.2,0.45-0.45v-3.8
	c0-0.25-0.2-0.45-0.45-0.45h-5.25v-4.8h3.35c0.25,0,0.45-0.2,0.45-0.45v-3.8c0-0.25-0.2-0.45-0.45-0.45h-3.35v-2.9h3.35
	c0.25,0,0.45-0.2,0.45-0.45v-3.8c0-0.25-0.2-0.45-0.45-0.45h-3.35v-1.45c0-0.24-0.81-0.68-2.35-0.68c-1.54,0-2.35,0.44-2.35,0.68
	v1.45H40.24v-1.45c0-0.24-0.81-0.68-2.35-0.68c-1.54,0-2.35,0.44-2.35,0.68v1.45H32.2c-0.25,0-0.45,0.2-0.45,0.45v3.8
	c0,0.25,0.2,0.45,0.45,0.45h3.35v2.9H32.2c-0.25,0-0.45,0.2-0.45,0.45v3.8c0,0.25,0.2,0.45,0.45,0.45h3.35v4.8H30.3
	c-0.12,0-0.23,0.05-0.32,0.13c-0.08,0.08-0.13,0.2-0.13,0.32v3.8c0,0.25,0.2,0.45,0.45,0.45h1.45v9.79c0,0.25,0.2,0.45,0.45,0.45H36
	c0.25,0,0.45-0.2,0.45-0.45v-9.79h31.37v9.79c0,0.25,0.2,0.45,0.45,0.45H72.06z M64.02,95.15H40.24v-4.8h23.78V95.15z M64.02,85.66
	H40.24v-2.9h23.78V85.66z"/>
<g>
	<g>
		<path class="st34" d="M273.39,94.31h16.62v16.51h-16.62V94.31z"/>
		<path class="st34" d="M271.89,94.31h6.04v16.51h-6.04V94.31z"/>
		<path class="st34" d="M301.29,7.71h-40.68c-1.67,0-3.02,1.35-3.02,3.02v100.1h8.26V91.29c0-1.67,1.35-3.02,3.02-3.02h12.08h12.08
			c1.67,0,3.02,1.35,3.02,3.02v19.54h8.26V10.73C304.31,9.06,302.96,7.71,301.29,7.71z M271.89,61.08c0,1.67-1.35,3.02-3.02,3.02
			s-3.02-1.35-3.02-3.02v-6.04c0-1.67,1.35-3.02,3.02-3.02s3.02,1.35,3.02,3.02V61.08z M283.97,61.08c0,1.67-1.35,3.02-3.02,3.02
			s-3.02-1.35-3.02-3.02v-6.04c0-1.67,1.35-3.02,3.02-3.02s3.02,1.35,3.02,3.02V61.08z M296.06,61.08c0,1.67-1.35,3.02-3.02,3.02
			c-1.67,0-3.02-1.35-3.02-3.02v-6.04c0-1.67,1.35-3.02,3.02-3.02c1.67,0,3.02,1.35,3.02,3.02V61.08z M271.89,42.95
			c0,1.67-1.35,3.02-3.02,3.02s-3.02-1.35-3.02-3.02v-6.04c0-1.67,1.35-3.02,3.02-3.02s3.02,1.35,3.02,3.02V42.95z M283.97,42.95
			c0,1.67-1.35,3.02-3.02,3.02s-3.02-1.35-3.02-3.02v-6.04c0-1.67,1.35-3.02,3.02-3.02s3.02,1.35,3.02,3.02V42.95z M296.06,42.95
			c0,1.67-1.35,3.02-3.02,3.02c-1.67,0-3.02-1.35-3.02-3.02v-6.04c0-1.67,1.35-3.02,3.02-3.02c1.67,0,3.02,1.35,3.02,3.02V42.95z
			 M271.89,24.82c0,1.67-1.35,3.02-3.02,3.02s-3.02-1.35-3.02-3.02v-6.04c0-1.67,1.35-3.02,3.02-3.02s3.02,1.35,3.02,3.02V24.82z
			 M283.97,24.82c0,1.67-1.35,3.02-3.02,3.02s-3.02-1.35-3.02-3.02v-6.04c0-1.67,1.35-3.02,3.02-3.02s3.02,1.35,3.02,3.02V24.82z
			 M296.06,24.82c0,1.67-1.35,3.02-3.02,3.02c-1.67,0-3.02-1.35-3.02-3.02v-6.04c0-1.67,1.35-3.02,3.02-3.02
			c1.67,0,3.02,1.35,3.02,3.02V24.82z"/>
	</g>
	<path class="st34" d="M329.49,47.99h-19.13v62.84h19.13c1.67,0,3.02-1.35,3.02-3.02v-56.8C332.51,49.34,331.16,47.99,329.49,47.99z
		 M324.45,84.39c0,1.67-1.35,3.02-3.02,3.02c-1.67,0-3.02-1.35-3.02-3.02v-21.3c0-1.67,1.35-3.02,3.02-3.02
		c1.67,0,3.02,1.35,3.02,3.02V84.39z"/>
	<path class="st34" d="M232.41,47.99c-1.67,0-3.02,1.35-3.02,3.02v56.8c0,1.67,1.35,3.02,3.02,3.02h19.13V47.99H232.41z
		 M243.49,84.47c0,1.67-1.35,3.02-3.02,3.02c-1.67,0-3.02-1.35-3.02-3.02V63.09c0-1.67,1.35-3.02,3.02-3.02
		c1.67,0,3.02,1.35,3.02,3.02V84.47z"/>
</g>
<g>
	<g>
		<path class="st34" d="M103.48,49.38H92.29c-0.31,0-0.56,0.25-0.56,0.56v5.04h12.31v-5.04C104.04,49.63,103.79,49.38,103.48,49.38z
			"/>
		<path class="st34" d="M91.74,58.33h12.31v3.36H91.74V58.33z"/>
		<path class="st34" d="M99.57,103.96V75.12h8.39c3.39,0,6.15-2.76,6.15-6.15v-23.5c0-3.39-2.76-6.15-6.15-6.15H87.82
			c-3.39,0-6.15,2.76-6.15,6.15v23.5c0,3.39,2.76,6.15,6.15,6.15h8.39v28.85 M107.4,63.37c0,0.93-0.75,1.68-1.68,1.68h-0.56v1.68
			c0,0.93-0.75,1.68-1.68,1.68c-0.93,0-1.68-0.75-1.68-1.68v-1.68h-7.83v1.68c0,0.93-0.75,1.68-1.68,1.68
			c-0.93,0-1.68-0.75-1.68-1.68v-1.68h-0.56c-0.93,0-1.68-0.75-1.68-1.68V49.94c0-2.16,1.76-3.92,3.92-3.92h11.19
			c2.16,0,3.92,1.76,3.92,3.92V63.37z"/>
	</g>
	<rect x="95.49" y="73.16" class="st34" width="4.9" height="33.32"/>
	<path class="st34" d="M105.2,110.39c-0.13-2.49-0.88-4.4-3.74-4.4h-7.54c-2.78,0-3.49,1.91-3.62,4.4H105.2z"/>
</g>
<g>
	<path class="st34" d="M361.84,38.35v-4.89h-3.78c-0.13-1.64-0.68-2.88-2.61-2.88h-5.29c-1.87,0-2.4,1.24-2.52,2.88h-3.78v4.89
		H361.84z"/>
	<path class="st34" d="M358.08,96.08c-0.02-0.31-0.05-0.59-0.1-0.87l-0.03-0.3h-0.03c-0.28-1.14-0.94-1.91-2.47-1.91h-0.27V50.75
		c1.78-0.86,3.1-2.67,3.37-4.87l0.53-4.32h-12.46l0.53,4.32c0.27,2.2,1.59,4.01,3.37,4.87v42.24h-0.35c-1.48,0-2.12,0.78-2.39,1.91
		h-0.03l-0.03,0.32c-0.05,0.27-0.08,0.55-0.1,0.85h0.01l-1.44,14.98h13.32l-1.44-14.98H358.08z"/>
</g>
<g>
	<g>
		<path class="st34" d="M131.96,46.99c0.56-0.43,1.21-0.75,1.94-0.95c1.85-0.49,3.81-0.39,5.56-1.22c1.29-0.61,2.39-1.69,3.68-2.31
			c2.48-1.18,5.27-0.5,7.71,0.55c3.32,1.43,6.46,3.6,8.57,6.77c2.12,3.18,3.1,7.47,2.04,11.39c-1.54,5.72-6.95,9.31-12.17,10.38
			c-5.67,1.17-11.8-0.06-16.01-4.2c-2.83-2.79-4.6-6.97-4.7-11.28C128.52,52.83,129.45,48.89,131.96,46.99z"/>
		<path class="st34" d="M184.71,67.24c0,6.67-5.64,12.07-12.6,12.07c-6.96,0-12.6-5.4-12.6-12.07s5.64-12.07,12.6-12.07
			C179.06,55.17,184.71,60.57,184.71,67.24z"/>
		<path class="st34" d="M171.95,72.29c-2.21,0.2-4.4,0.51-6.48,1.08c-1.91,0.53-3.87,1.13-5.67,1.97c2.89-3.01,6.01-5.68,9.48-8
			c1.97-1.32,3.94-2.57,5.55-4.33c1.17-1.29,2.36-2.57,3.55-3.84c-0.33-0.17-1.12-0.82-1.47-0.77c-0.34,0.05-1,0.95-1.25,1.18
			c-1.59,1.51-3.15,3.12-4.91,4.44c-0.68,0.51-4.4,3.38-4.94,2.39c-0.35-0.64,0.11-2.66,0.5-4.12c-0.24,0.03-0.48,0.07-0.74,0.07
			c-0.31,0-0.59-0.04-0.86-0.09c-0.38,2.03-0.73,5.27-1.59,6.5c-1.74,2.49-4.65,3.83-6.42,6.31c0.1-3.08,0.14-6.16,0.28-9.24
			c0.11-2.49,0.48-4.99,1.44-7.3c0.91-2.18,2.09-4.23,2.97-6.43c0.11-0.27,0.82-1.57,0.72-1.87c-0.04-0.13-0.91-0.63-1.05-0.6
			c-0.58,0.13-1.61,2.82-1.86,3.31c-2.04,3.99-3.74,8.3-3.97,12.83c-0.54-3.36-1.04-6.85-2.19-10.07c-0.74-2.07-1.44-4.15-2.09-6.26
			c-0.15-0.5-0.29-1.8-0.66-2.18c-0.28-0.29-0.87-0.16-1.34-0.16c0.95,4.98,2.57,9.8,3.34,14.8c0.42,2.68,1.04,5.43,1.04,8.15
			c0,2.04-0.19,4.09-0.36,6.12c-4.15-1.86-8.97-3.4-12.56-6.24c-1.9-1.5-3.15-3.36-4.2-5.51c-0.37-0.75-0.76-2.47-1.37-3
			c-0.34-0.3-0.84-0.11-1.38-0.04c0.73,2.2,1.5,4.41,2.46,6.52c0.6,1.32,1.28,2.37,2.47,3.24c1.25,0.91,7.55,4.78,9.71,5.68
			c2.11,0.88,4.05,2.85,4.56,5.28c0.75,3.58,0.16,7.75-0.04,11.36c-0.16,2.87-0.33,5.74-0.52,8.61c-0.17,2.67,0.15,6.17-1.06,8.59
			h7.95c-0.92-1.25-0.82-3.18-0.92-4.66c-0.15-2.09-0.29-4.17-0.42-6.26c-0.25-3.9-0.57-7.82-0.57-11.73c0-2.14,0.16-4.24,0.75-6.31
			c0.68-2.37,1.55-3.67,3.84-4.73c3.21-1.49,6.78-2.47,10.3-2.93C171.97,73.48,171.96,72.88,171.95,72.29z"/>
		<circle class="st34" cx="136.17" cy="68.32" r="9.17"/>
		<path class="st34" d="M166.61,53c1.46-1.32,3.38-2.14,5.35-2.15c3.48-0.03,6.38,2.41,7.74,5.48c1.43,3.23-0.16,7.16-2.95,9.16
			c-2.74,1.97-6.74,1.96-9.47-0.03c-2.73-1.98-3.97-5.79-2.94-9C164.76,55.13,165.57,53.94,166.61,53z"/>
		<path class="st34" d="M172.69,39.86c0,0,8.22-2.6,11.96,5.14c2.73,5.65-0.6,10.8-3.4,11.99c-4.61,1.96-7.4-0.6-7.4-0.6
			s-3.12,6.1-11,7.37c-13.92,2.24-18.75-7.18-18.75-7.18s-3.32,1.78-8.08,0.9c-6.29-1.17-9.57-6.13-8.95-11.67
			c0.71-6.37,6.31-10.03,11.08-9.21c0,0,0.2-4.47,5.85-6.24c1.38-0.43,4.57-0.66,6.15,0.04c0,0,3.5-6.49,12.52-4.8
			C174.99,27.91,172.69,39.86,172.69,39.86z"/>
	</g>
	<path class="st34" d="M162.53,110.86c-0.13-2.49-0.88-4.4-3.74-4.4h-7.54c-2.78,0-3.49,1.91-3.62,4.4H162.53z"/>
</g>
</svg>
